<?xml version="1.0" encoding="utf-8" standalone="no"?>
<!DOCTYPE svg PUBLIC "-//W3C//DTD SVG 1.1//EN"
  "http://www.w3.org/Graphics/SVG/1.1/DTD/svg11.dtd">
<!-- Created with matplotlib (https://matplotlib.org/) -->
<svg height="720pt" version="1.1" viewBox="0 0 864 720" width="864pt" xmlns="http://www.w3.org/2000/svg" xmlns:xlink="http://www.w3.org/1999/xlink">
 <defs>
  <style type="text/css">
*{stroke-linecap:butt;stroke-linejoin:round;white-space:pre;}
  </style>
 </defs>
 <g id="figure_1">
  <g id="patch_1">
   <path d="M 0 720 
L 864 720 
L 864 0 
L 0 0 
z
" style="fill:#ffffff;"/>
  </g>
  <g id="axes_1">
   <g id="patch_2">
    <path d="M 108 630 
L 777.6 630 
L 777.6 86.4 
L 108 86.4 
z
" style="fill:#ffffff;"/>
   </g>
   <g id="patch_3">
    <path clip-path="url(#p594d15cd8d)" d="M 308.424584 630 
L 314.293027 630 
L 314.293027 629.966013 
L 308.424584 629.966013 
z
" style="fill:#ff0000;opacity:0.5;"/>
   </g>
   <g id="patch_4">
    <path clip-path="url(#p594d15cd8d)" d="M 314.293027 630 
L 320.161469 630 
L 320.161469 629.918432 
L 314.293027 629.918432 
z
" style="fill:#ff0000;opacity:0.5;"/>
   </g>
   <g id="patch_5">
    <path clip-path="url(#p594d15cd8d)" d="M 320.161469 630 
L 326.029912 630 
L 326.029912 629.836863 
L 320.161469 629.836863 
z
" style="fill:#ff0000;opacity:0.5;"/>
   </g>
   <g id="patch_6">
    <path clip-path="url(#p594d15cd8d)" d="M 326.029912 630 
L 331.898354 630 
L 331.898354 629.63974 
L 326.029912 629.63974 
z
" style="fill:#ff0000;opacity:0.5;"/>
   </g>
   <g id="patch_7">
    <path clip-path="url(#p594d15cd8d)" d="M 331.898354 630 
L 337.766797 630 
L 337.766797 629.293074 
L 331.898354 629.293074 
z
" style="fill:#ff0000;opacity:0.5;"/>
   </g>
   <g id="patch_8">
    <path clip-path="url(#p594d15cd8d)" d="M 337.766797 630 
L 343.63524 630 
L 343.63524 628.76288 
L 337.766797 628.76288 
z
" style="fill:#ff0000;opacity:0.5;"/>
   </g>
   <g id="patch_9">
    <path clip-path="url(#p594d15cd8d)" d="M 343.63524 630 
L 349.503682 630 
L 349.503682 627.015958 
L 343.63524 627.015958 
z
" style="fill:#ff0000;opacity:0.5;"/>
   </g>
   <g id="patch_10">
    <path clip-path="url(#p594d15cd8d)" d="M 349.503682 630 
L 355.372125 630 
L 355.372125 624.786423 
L 349.503682 624.786423 
z
" style="fill:#ff0000;opacity:0.5;"/>
   </g>
   <g id="patch_11">
    <path clip-path="url(#p594d15cd8d)" d="M 355.372125 630 
L 361.240568 630 
L 361.240568 621.122645 
L 355.372125 621.122645 
z
" style="fill:#ff0000;opacity:0.5;"/>
   </g>
   <g id="patch_12">
    <path clip-path="url(#p594d15cd8d)" d="M 361.240568 630 
L 367.10901 630 
L 367.10901 614.107767 
L 361.240568 614.107767 
z
" style="fill:#ff0000;opacity:0.5;"/>
   </g>
   <g id="patch_13">
    <path clip-path="url(#p594d15cd8d)" d="M 367.10901 630 
L 372.977453 630 
L 372.977453 604.496297 
L 367.10901 604.496297 
z
" style="fill:#ff0000;opacity:0.5;"/>
   </g>
   <g id="patch_14">
    <path clip-path="url(#p594d15cd8d)" d="M 372.977453 630 
L 378.845895 630 
L 378.845895 590.480137 
L 372.977453 590.480137 
z
" style="fill:#ff0000;opacity:0.5;"/>
   </g>
   <g id="patch_15">
    <path clip-path="url(#p594d15cd8d)" d="M 378.845895 630 
L 384.714338 630 
L 384.714338 569.061649 
L 378.845895 569.061649 
z
" style="fill:#ff0000;opacity:0.5;"/>
   </g>
   <g id="patch_16">
    <path clip-path="url(#p594d15cd8d)" d="M 384.714338 630 
L 390.582781 630 
L 390.582781 541.362398 
L 384.714338 541.362398 
z
" style="fill:#ff0000;opacity:0.5;"/>
   </g>
   <g id="patch_17">
    <path clip-path="url(#p594d15cd8d)" d="M 390.582781 630 
L 396.451223 630 
L 396.451223 504.962524 
L 390.582781 504.962524 
z
" style="fill:#ff0000;opacity:0.5;"/>
   </g>
   <g id="patch_18">
    <path clip-path="url(#p594d15cd8d)" d="M 396.451223 630 
L 402.319666 630 
L 402.319666 459.182291 
L 396.451223 459.182291 
z
" style="fill:#ff0000;opacity:0.5;"/>
   </g>
   <g id="patch_19">
    <path clip-path="url(#p594d15cd8d)" d="M 402.319666 630 
L 408.188108 630 
L 408.188108 405.15006 
L 402.319666 405.15006 
z
" style="fill:#ff0000;opacity:0.5;"/>
   </g>
   <g id="patch_20">
    <path clip-path="url(#p594d15cd8d)" d="M 408.188108 630 
L 414.056551 630 
L 414.056551 345.448828 
L 408.188108 345.448828 
z
" style="fill:#ff0000;opacity:0.5;"/>
   </g>
   <g id="patch_21">
    <path clip-path="url(#p594d15cd8d)" d="M 414.056551 630 
L 419.924994 630 
L 419.924994 286.223413 
L 414.056551 286.223413 
z
" style="fill:#ff0000;opacity:0.5;"/>
   </g>
   <g id="patch_22">
    <path clip-path="url(#p594d15cd8d)" d="M 419.924994 630 
L 425.793436 630 
L 425.793436 228.901258 
L 419.924994 228.901258 
z
" style="fill:#ff0000;opacity:0.5;"/>
   </g>
   <g id="patch_23">
    <path clip-path="url(#p594d15cd8d)" d="M 425.793436 630 
L 431.661879 630 
L 431.661879 175.58275 
L 425.793436 175.58275 
z
" style="fill:#ff0000;opacity:0.5;"/>
   </g>
   <g id="patch_24">
    <path clip-path="url(#p594d15cd8d)" d="M 431.661879 630 
L 437.530321 630 
L 437.530321 137.925364 
L 431.661879 137.925364 
z
" style="fill:#ff0000;opacity:0.5;"/>
   </g>
   <g id="patch_25">
    <path clip-path="url(#p594d15cd8d)" d="M 437.530321 630 
L 443.398764 630 
L 443.398764 112.285714 
L 437.530321 112.285714 
z
" style="fill:#ff0000;opacity:0.5;"/>
   </g>
   <g id="patch_26">
    <path clip-path="url(#p594d15cd8d)" d="M 443.398764 630 
L 449.267207 630 
L 449.267207 112.306106 
L 443.398764 112.306106 
z
" style="fill:#ff0000;opacity:0.5;"/>
   </g>
   <g id="patch_27">
    <path clip-path="url(#p594d15cd8d)" d="M 449.267207 630 
L 455.135649 630 
L 455.135649 124.677305 
L 449.267207 124.677305 
z
" style="fill:#ff0000;opacity:0.5;"/>
   </g>
   <g id="patch_28">
    <path clip-path="url(#p594d15cd8d)" d="M 455.135649 630 
L 461.004092 630 
L 461.004092 160.084764 
L 455.135649 160.084764 
z
" style="fill:#ff0000;opacity:0.5;"/>
   </g>
   <g id="patch_29">
    <path clip-path="url(#p594d15cd8d)" d="M 461.004092 630 
L 466.872534 630 
L 466.872534 206.73506 
L 461.004092 206.73506 
z
" style="fill:#ff0000;opacity:0.5;"/>
   </g>
   <g id="patch_30">
    <path clip-path="url(#p594d15cd8d)" d="M 466.872534 630 
L 472.740977 630 
L 472.740977 264.424272 
L 466.872534 264.424272 
z
" style="fill:#ff0000;opacity:0.5;"/>
   </g>
   <g id="patch_31">
    <path clip-path="url(#p594d15cd8d)" d="M 472.740977 630 
L 478.60942 630 
L 478.60942 321.182246 
L 472.740977 321.182246 
z
" style="fill:#ff0000;opacity:0.5;"/>
   </g>
   <g id="patch_32">
    <path clip-path="url(#p594d15cd8d)" d="M 478.60942 630 
L 484.477862 630 
L 484.477862 383.017849 
L 478.60942 383.017849 
z
" style="fill:#ff0000;opacity:0.5;"/>
   </g>
   <g id="patch_33">
    <path clip-path="url(#p594d15cd8d)" d="M 484.477862 630 
L 490.346305 630 
L 490.346305 437.423935 
L 484.477862 437.423935 
z
" style="fill:#ff0000;opacity:0.5;"/>
   </g>
   <g id="patch_34">
    <path clip-path="url(#p594d15cd8d)" d="M 490.346305 630 
L 496.214747 630 
L 496.214747 486.439713 
L 490.346305 486.439713 
z
" style="fill:#ff0000;opacity:0.5;"/>
   </g>
   <g id="patch_35">
    <path clip-path="url(#p594d15cd8d)" d="M 496.214747 630 
L 502.08319 630 
L 502.08319 525.810034 
L 496.214747 525.810034 
z
" style="fill:#ff0000;opacity:0.5;"/>
   </g>
   <g id="patch_36">
    <path clip-path="url(#p594d15cd8d)" d="M 502.08319 630 
L 507.951633 630 
L 507.951633 558.586914 
L 502.08319 558.586914 
z
" style="fill:#ff0000;opacity:0.5;"/>
   </g>
   <g id="patch_37">
    <path clip-path="url(#p594d15cd8d)" d="M 507.951633 630 
L 513.820075 630 
L 513.820075 582.098989 
L 507.951633 582.098989 
z
" style="fill:#ff0000;opacity:0.5;"/>
   </g>
   <g id="patch_38">
    <path clip-path="url(#p594d15cd8d)" d="M 513.820075 630 
L 519.688518 630 
L 519.688518 598.834095 
L 513.820075 598.834095 
z
" style="fill:#ff0000;opacity:0.5;"/>
   </g>
   <g id="patch_39">
    <path clip-path="url(#p594d15cd8d)" d="M 519.688518 630 
L 525.556961 630 
L 525.556961 611.062549 
L 519.688518 611.062549 
z
" style="fill:#ff0000;opacity:0.5;"/>
   </g>
   <g id="patch_40">
    <path clip-path="url(#p594d15cd8d)" d="M 525.556961 630 
L 531.425403 630 
L 531.425403 618.288145 
L 525.556961 618.288145 
z
" style="fill:#ff0000;opacity:0.5;"/>
   </g>
   <g id="patch_41">
    <path clip-path="url(#p594d15cd8d)" d="M 531.425403 630 
L 537.293846 630 
L 537.293846 623.236625 
L 531.425403 623.236625 
z
" style="fill:#ff0000;opacity:0.5;"/>
   </g>
   <g id="patch_42">
    <path clip-path="url(#p594d15cd8d)" d="M 537.293846 630 
L 543.162288 630 
L 543.162288 626.512953 
L 537.293846 626.512953 
z
" style="fill:#ff0000;opacity:0.5;"/>
   </g>
   <g id="patch_43">
    <path clip-path="url(#p594d15cd8d)" d="M 543.162288 630 
L 549.030731 630 
L 549.030731 628.096739 
L 543.162288 628.096739 
z
" style="fill:#ff0000;opacity:0.5;"/>
   </g>
   <g id="patch_44">
    <path clip-path="url(#p594d15cd8d)" d="M 549.030731 630 
L 554.899174 630 
L 554.899174 628.864841 
L 549.030731 628.864841 
z
" style="fill:#ff0000;opacity:0.5;"/>
   </g>
   <g id="patch_45">
    <path clip-path="url(#p594d15cd8d)" d="M 554.899174 630 
L 560.767616 630 
L 560.767616 629.537779 
L 554.899174 629.537779 
z
" style="fill:#ff0000;opacity:0.5;"/>
   </g>
   <g id="patch_46">
    <path clip-path="url(#p594d15cd8d)" d="M 560.767616 630 
L 566.636059 630 
L 566.636059 629.680524 
L 560.767616 629.680524 
z
" style="fill:#ff0000;opacity:0.5;"/>
   </g>
   <g id="patch_47">
    <path clip-path="url(#p594d15cd8d)" d="M 566.636059 630 
L 572.504501 630 
L 572.504501 629.89804 
L 566.636059 629.89804 
z
" style="fill:#ff0000;opacity:0.5;"/>
   </g>
   <g id="patch_48">
    <path clip-path="url(#p594d15cd8d)" d="M 572.504501 630 
L 578.372944 630 
L 578.372944 629.979608 
L 572.504501 629.979608 
z
" style="fill:#ff0000;opacity:0.5;"/>
   </g>
   <g id="patch_49">
    <path clip-path="url(#p594d15cd8d)" d="M 578.372944 630 
L 584.241387 630 
L 584.241387 629.972811 
L 578.372944 629.972811 
z
" style="fill:#ff0000;opacity:0.5;"/>
   </g>
   <g id="patch_50">
    <path clip-path="url(#p594d15cd8d)" d="M 584.241387 630 
L 590.109829 630 
L 590.109829 629.979608 
L 584.241387 629.979608 
z
" style="fill:#ff0000;opacity:0.5;"/>
   </g>
   <g id="patch_51">
    <path clip-path="url(#p594d15cd8d)" d="M 590.109829 630 
L 595.978272 630 
L 595.978272 630 
L 590.109829 630 
z
" style="fill:#ff0000;opacity:0.5;"/>
   </g>
   <g id="patch_52">
    <path clip-path="url(#p594d15cd8d)" d="M 595.978272 630 
L 601.846714 630 
L 601.846714 629.993203 
L 595.978272 629.993203 
z
" style="fill:#ff0000;opacity:0.5;"/>
   </g>
   <g id="patch_53">
    <path clip-path="url(#p594d15cd8d)" d="M 138.436364 630 
L 150.610909 630 
L 150.610909 629.993447 
L 138.436364 629.993447 
z
" style="fill:#0000ff;opacity:0.5;"/>
   </g>
   <g id="patch_54">
    <path clip-path="url(#p594d15cd8d)" d="M 150.610909 630 
L 162.785455 630 
L 162.785455 630 
L 150.610909 630 
z
" style="fill:#0000ff;opacity:0.5;"/>
   </g>
   <g id="patch_55">
    <path clip-path="url(#p594d15cd8d)" d="M 162.785455 630 
L 174.96 630 
L 174.96 629.996723 
L 162.785455 629.996723 
z
" style="fill:#0000ff;opacity:0.5;"/>
   </g>
   <g id="patch_56">
    <path clip-path="url(#p594d15cd8d)" d="M 174.96 630 
L 187.134545 630 
L 187.134545 629.99017 
L 174.96 629.99017 
z
" style="fill:#0000ff;opacity:0.5;"/>
   </g>
   <g id="patch_57">
    <path clip-path="url(#p594d15cd8d)" d="M 187.134545 630 
L 199.309091 630 
L 199.309091 629.973788 
L 187.134545 629.973788 
z
" style="fill:#0000ff;opacity:0.5;"/>
   </g>
   <g id="patch_58">
    <path clip-path="url(#p594d15cd8d)" d="M 199.309091 630 
L 211.483636 630 
L 211.483636 629.941023 
L 199.309091 629.941023 
z
" style="fill:#0000ff;opacity:0.5;"/>
   </g>
   <g id="patch_59">
    <path clip-path="url(#p594d15cd8d)" d="M 211.483636 630 
L 223.658182 630 
L 223.658182 629.865663 
L 211.483636 629.865663 
z
" style="fill:#0000ff;opacity:0.5;"/>
   </g>
   <g id="patch_60">
    <path clip-path="url(#p594d15cd8d)" d="M 223.658182 630 
L 235.832727 630 
L 235.832727 629.665797 
L 223.658182 629.665797 
z
" style="fill:#0000ff;opacity:0.5;"/>
   </g>
   <g id="patch_61">
    <path clip-path="url(#p594d15cd8d)" d="M 235.832727 630 
L 248.007273 630 
L 248.007273 629.33487 
L 235.832727 629.33487 
z
" style="fill:#0000ff;opacity:0.5;"/>
   </g>
   <g id="patch_62">
    <path clip-path="url(#p594d15cd8d)" d="M 248.007273 630 
L 260.181818 630 
L 260.181818 628.699228 
L 248.007273 628.699228 
z
" style="fill:#0000ff;opacity:0.5;"/>
   </g>
   <g id="patch_63">
    <path clip-path="url(#p594d15cd8d)" d="M 260.181818 630 
L 272.356364 630 
L 272.356364 627.467264 
L 260.181818 627.467264 
z
" style="fill:#0000ff;opacity:0.5;"/>
   </g>
   <g id="patch_64">
    <path clip-path="url(#p594d15cd8d)" d="M 272.356364 630 
L 284.530909 630 
L 284.530909 625.013163 
L 272.356364 625.013163 
z
" style="fill:#0000ff;opacity:0.5;"/>
   </g>
   <g id="patch_65">
    <path clip-path="url(#p594d15cd8d)" d="M 284.530909 630 
L 296.705455 630 
L 296.705455 621.54007 
L 284.530909 621.54007 
z
" style="fill:#0000ff;opacity:0.5;"/>
   </g>
   <g id="patch_66">
    <path clip-path="url(#p594d15cd8d)" d="M 296.705455 630 
L 308.88 630 
L 308.88 615.970016 
L 296.705455 615.970016 
z
" style="fill:#0000ff;opacity:0.5;"/>
   </g>
   <g id="patch_67">
    <path clip-path="url(#p594d15cd8d)" d="M 308.88 630 
L 321.054545 630 
L 321.054545 606.979293 
L 308.88 606.979293 
z
" style="fill:#0000ff;opacity:0.5;"/>
   </g>
   <g id="patch_68">
    <path clip-path="url(#p594d15cd8d)" d="M 321.054545 630 
L 333.229091 630 
L 333.229091 594.341823 
L 321.054545 594.341823 
z
" style="fill:#0000ff;opacity:0.5;"/>
   </g>
   <g id="patch_69">
    <path clip-path="url(#p594d15cd8d)" d="M 333.229091 630 
L 345.403636 630 
L 345.403636 576.861682 
L 333.229091 576.861682 
z
" style="fill:#0000ff;opacity:0.5;"/>
   </g>
   <g id="patch_70">
    <path clip-path="url(#p594d15cd8d)" d="M 345.403636 630 
L 357.578182 630 
L 357.578182 553.886846 
L 345.403636 553.886846 
z
" style="fill:#0000ff;opacity:0.5;"/>
   </g>
   <g id="patch_71">
    <path clip-path="url(#p594d15cd8d)" d="M 357.578182 630 
L 369.752727 630 
L 369.752727 526.593579 
L 357.578182 526.593579 
z
" style="fill:#0000ff;opacity:0.5;"/>
   </g>
   <g id="patch_72">
    <path clip-path="url(#p594d15cd8d)" d="M 369.752727 630 
L 381.927273 630 
L 381.927273 495.820667 
L 369.752727 495.820667 
z
" style="fill:#0000ff;opacity:0.5;"/>
   </g>
   <g id="patch_73">
    <path clip-path="url(#p594d15cd8d)" d="M 381.927273 630 
L 394.101818 630 
L 394.101818 460.316486 
L 381.927273 460.316486 
z
" style="fill:#0000ff;opacity:0.5;"/>
   </g>
   <g id="patch_74">
    <path clip-path="url(#p594d15cd8d)" d="M 394.101818 630 
L 406.276364 630 
L 406.276364 428.55407 
L 394.101818 428.55407 
z
" style="fill:#0000ff;opacity:0.5;"/>
   </g>
   <g id="patch_75">
    <path clip-path="url(#p594d15cd8d)" d="M 406.276364 630 
L 418.450909 630 
L 418.450909 398.193997 
L 406.276364 398.193997 
z
" style="fill:#0000ff;opacity:0.5;"/>
   </g>
   <g id="patch_76">
    <path clip-path="url(#p594d15cd8d)" d="M 418.450909 630 
L 430.625455 630 
L 430.625455 377.633944 
L 418.450909 377.633944 
z
" style="fill:#0000ff;opacity:0.5;"/>
   </g>
   <g id="patch_77">
    <path clip-path="url(#p594d15cd8d)" d="M 430.625455 630 
L 442.8 630 
L 442.8 363.413923 
L 430.625455 363.413923 
z
" style="fill:#0000ff;opacity:0.5;"/>
   </g>
   <g id="patch_78">
    <path clip-path="url(#p594d15cd8d)" d="M 442.8 630 
L 454.974545 630 
L 454.974545 361.297302 
L 442.8 361.297302 
z
" style="fill:#0000ff;opacity:0.5;"/>
   </g>
   <g id="patch_79">
    <path clip-path="url(#p594d15cd8d)" d="M 454.974545 630 
L 467.149091 630 
L 467.149091 369.108484 
L 454.974545 369.108484 
z
" style="fill:#0000ff;opacity:0.5;"/>
   </g>
   <g id="patch_80">
    <path clip-path="url(#p594d15cd8d)" d="M 467.149091 630 
L 479.323636 630 
L 479.323636 388.914942 
L 467.149091 388.914942 
z
" style="fill:#0000ff;opacity:0.5;"/>
   </g>
   <g id="patch_81">
    <path clip-path="url(#p594d15cd8d)" d="M 479.323636 630 
L 491.498182 630 
L 491.498182 418.957194 
L 479.323636 418.957194 
z
" style="fill:#0000ff;opacity:0.5;"/>
   </g>
   <g id="patch_82">
    <path clip-path="url(#p594d15cd8d)" d="M 491.498182 630 
L 503.672727 630 
L 503.672727 451.276615 
L 491.498182 451.276615 
z
" style="fill:#0000ff;opacity:0.5;"/>
   </g>
   <g id="patch_83">
    <path clip-path="url(#p594d15cd8d)" d="M 503.672727 630 
L 515.847273 630 
L 515.847273 484.238231 
L 503.672727 484.238231 
z
" style="fill:#0000ff;opacity:0.5;"/>
   </g>
   <g id="patch_84">
    <path clip-path="url(#p594d15cd8d)" d="M 515.847273 630 
L 528.021818 630 
L 528.021818 518.323687 
L 515.847273 518.323687 
z
" style="fill:#0000ff;opacity:0.5;"/>
   </g>
   <g id="patch_85">
    <path clip-path="url(#p594d15cd8d)" d="M 528.021818 630 
L 540.196364 630 
L 540.196364 545.548147 
L 528.021818 545.548147 
z
" style="fill:#0000ff;opacity:0.5;"/>
   </g>
   <g id="patch_86">
    <path clip-path="url(#p594d15cd8d)" d="M 540.196364 630 
L 552.370909 630 
L 552.370909 569.941708 
L 540.196364 569.941708 
z
" style="fill:#0000ff;opacity:0.5;"/>
   </g>
   <g id="patch_87">
    <path clip-path="url(#p594d15cd8d)" d="M 552.370909 630 
L 564.545455 630 
L 564.545455 589.436898 
L 552.370909 589.436898 
z
" style="fill:#0000ff;opacity:0.5;"/>
   </g>
   <g id="patch_88">
    <path clip-path="url(#p594d15cd8d)" d="M 564.545455 630 
L 576.72 630 
L 576.72 603.614325 
L 564.545455 603.614325 
z
" style="fill:#0000ff;opacity:0.5;"/>
   </g>
   <g id="patch_89">
    <path clip-path="url(#p594d15cd8d)" d="M 576.72 630 
L 588.894545 630 
L 588.894545 613.28656 
L 576.72 613.28656 
z
" style="fill:#0000ff;opacity:0.5;"/>
   </g>
   <g id="patch_90">
    <path clip-path="url(#p594d15cd8d)" d="M 588.894545 630 
L 601.069091 630 
L 601.069091 619.931308 
L 588.894545 619.931308 
z
" style="fill:#0000ff;opacity:0.5;"/>
   </g>
   <g id="patch_91">
    <path clip-path="url(#p594d15cd8d)" d="M 601.069091 630 
L 613.243636 630 
L 613.243636 624.384075 
L 601.069091 624.384075 
z
" style="fill:#0000ff;opacity:0.5;"/>
   </g>
   <g id="patch_92">
    <path clip-path="url(#p594d15cd8d)" d="M 613.243636 630 
L 625.418182 630 
L 625.418182 627.087189 
L 613.243636 627.087189 
z
" style="fill:#0000ff;opacity:0.5;"/>
   </g>
   <g id="patch_93">
    <path clip-path="url(#p594d15cd8d)" d="M 625.418182 630 
L 637.592727 630 
L 637.592727 628.283113 
L 625.418182 628.283113 
z
" style="fill:#0000ff;opacity:0.5;"/>
   </g>
   <g id="patch_94">
    <path clip-path="url(#p594d15cd8d)" d="M 637.592727 630 
L 649.767273 630 
L 649.767273 629.216916 
L 637.592727 629.216916 
z
" style="fill:#0000ff;opacity:0.5;"/>
   </g>
   <g id="patch_95">
    <path clip-path="url(#p594d15cd8d)" d="M 649.767273 630 
L 661.941818 630 
L 661.941818 629.626479 
L 649.767273 629.626479 
z
" style="fill:#0000ff;opacity:0.5;"/>
   </g>
   <g id="patch_96">
    <path clip-path="url(#p594d15cd8d)" d="M 661.941818 630 
L 674.116364 630 
L 674.116364 629.855834 
L 661.941818 629.855834 
z
" style="fill:#0000ff;opacity:0.5;"/>
   </g>
   <g id="patch_97">
    <path clip-path="url(#p594d15cd8d)" d="M 674.116364 630 
L 686.290909 630 
L 686.290909 629.911534 
L 674.116364 629.911534 
z
" style="fill:#0000ff;opacity:0.5;"/>
   </g>
   <g id="patch_98">
    <path clip-path="url(#p594d15cd8d)" d="M 686.290909 630 
L 698.465455 630 
L 698.465455 629.970511 
L 686.290909 629.970511 
z
" style="fill:#0000ff;opacity:0.5;"/>
   </g>
   <g id="patch_99">
    <path clip-path="url(#p594d15cd8d)" d="M 698.465455 630 
L 710.64 630 
L 710.64 629.986894 
L 698.465455 629.986894 
z
" style="fill:#0000ff;opacity:0.5;"/>
   </g>
   <g id="patch_100">
    <path clip-path="url(#p594d15cd8d)" d="M 710.64 630 
L 722.814545 630 
L 722.814545 629.983617 
L 710.64 629.983617 
z
" style="fill:#0000ff;opacity:0.5;"/>
   </g>
   <g id="patch_101">
    <path clip-path="url(#p594d15cd8d)" d="M 722.814545 630 
L 734.989091 630 
L 734.989091 630 
L 722.814545 630 
z
" style="fill:#0000ff;opacity:0.5;"/>
   </g>
   <g id="patch_102">
    <path clip-path="url(#p594d15cd8d)" d="M 734.989091 630 
L 747.163636 630 
L 747.163636 629.996723 
L 734.989091 629.996723 
z
" style="fill:#0000ff;opacity:0.5;"/>
   </g>
   <g id="matplotlib.axis_1">
    <g id="xtick_1">
     <g id="line2d_1">
      <defs>
       <path d="M 0 0 
L 0 3.5 
" id="m564c59a4bb" style="stroke:#000000;stroke-width:0.8;"/>
      </defs>
      <g>
       <use style="stroke:#000000;stroke-width:0.8;" x="181.00739" xlink:href="#m564c59a4bb" y="630"/>
      </g>
     </g>
     <g id="text_1">
      <!-- −0.004 -->
      <defs>
       <path d="M 10.59375 35.5 
L 73.1875 35.5 
L 73.1875 27.203125 
L 10.59375 27.203125 
z
" id="DejaVuSans-8722"/>
       <path d="M 31.78125 66.40625 
Q 24.171875 66.40625 20.328125 58.90625 
Q 16.5 51.421875 16.5 36.375 
Q 16.5 21.390625 20.328125 13.890625 
Q 24.171875 6.390625 31.78125 6.390625 
Q 39.453125 6.390625 43.28125 13.890625 
Q 47.125 21.390625 47.125 36.375 
Q 47.125 51.421875 43.28125 58.90625 
Q 39.453125 66.40625 31.78125 66.40625 
z
M 31.78125 74.21875 
Q 44.046875 74.21875 50.515625 64.515625 
Q 56.984375 54.828125 56.984375 36.375 
Q 56.984375 17.96875 50.515625 8.265625 
Q 44.046875 -1.421875 31.78125 -1.421875 
Q 19.53125 -1.421875 13.0625 8.265625 
Q 6.59375 17.96875 6.59375 36.375 
Q 6.59375 54.828125 13.0625 64.515625 
Q 19.53125 74.21875 31.78125 74.21875 
z
" id="DejaVuSans-48"/>
       <path d="M 10.6875 12.40625 
L 21 12.40625 
L 21 0 
L 10.6875 0 
z
" id="DejaVuSans-46"/>
       <path d="M 37.796875 64.3125 
L 12.890625 25.390625 
L 37.796875 25.390625 
z
M 35.203125 72.90625 
L 47.609375 72.90625 
L 47.609375 25.390625 
L 58.015625 25.390625 
L 58.015625 17.1875 
L 47.609375 17.1875 
L 47.609375 0 
L 37.796875 0 
L 37.796875 17.1875 
L 4.890625 17.1875 
L 4.890625 26.703125 
z
" id="DejaVuSans-52"/>
      </defs>
      <g transform="translate(162.503484 644.598438)scale(0.1 -0.1)">
       <use xlink:href="#DejaVuSans-8722"/>
       <use x="83.789062" xlink:href="#DejaVuSans-48"/>
       <use x="147.412109" xlink:href="#DejaVuSans-46"/>
       <use x="179.199219" xlink:href="#DejaVuSans-48"/>
       <use x="242.822266" xlink:href="#DejaVuSans-48"/>
       <use x="306.445312" xlink:href="#DejaVuSans-52"/>
      </g>
     </g>
    </g>
    <g id="xtick_2">
     <g id="line2d_2">
      <g>
       <use style="stroke:#000000;stroke-width:0.8;" x="312.827537" xlink:href="#m564c59a4bb" y="630"/>
      </g>
     </g>
     <g id="text_2">
      <!-- −0.002 -->
      <defs>
       <path d="M 19.1875 8.296875 
L 53.609375 8.296875 
L 53.609375 0 
L 7.328125 0 
L 7.328125 8.296875 
Q 12.9375 14.109375 22.625 23.890625 
Q 32.328125 33.6875 34.8125 36.53125 
Q 39.546875 41.84375 41.421875 45.53125 
Q 43.3125 49.21875 43.3125 52.78125 
Q 43.3125 58.59375 39.234375 62.25 
Q 35.15625 65.921875 28.609375 65.921875 
Q 23.96875 65.921875 18.8125 64.3125 
Q 13.671875 62.703125 7.8125 59.421875 
L 7.8125 69.390625 
Q 13.765625 71.78125 18.9375 73 
Q 24.125 74.21875 28.421875 74.21875 
Q 39.75 74.21875 46.484375 68.546875 
Q 53.21875 62.890625 53.21875 53.421875 
Q 53.21875 48.921875 51.53125 44.890625 
Q 49.859375 40.875 45.40625 35.40625 
Q 44.1875 33.984375 37.640625 27.21875 
Q 31.109375 20.453125 19.1875 8.296875 
z
" id="DejaVuSans-50"/>
      </defs>
      <g transform="translate(294.323631 644.598438)scale(0.1 -0.1)">
       <use xlink:href="#DejaVuSans-8722"/>
       <use x="83.789062" xlink:href="#DejaVuSans-48"/>
       <use x="147.412109" xlink:href="#DejaVuSans-46"/>
       <use x="179.199219" xlink:href="#DejaVuSans-48"/>
       <use x="242.822266" xlink:href="#DejaVuSans-48"/>
       <use x="306.445312" xlink:href="#DejaVuSans-50"/>
      </g>
     </g>
    </g>
    <g id="xtick_3">
     <g id="line2d_3">
      <g>
       <use style="stroke:#000000;stroke-width:0.8;" x="444.647684" xlink:href="#m564c59a4bb" y="630"/>
      </g>
     </g>
     <g id="text_3">
      <!-- 0.000 -->
      <g transform="translate(430.333622 644.598438)scale(0.1 -0.1)">
       <use xlink:href="#DejaVuSans-48"/>
       <use x="63.623047" xlink:href="#DejaVuSans-46"/>
       <use x="95.410156" xlink:href="#DejaVuSans-48"/>
       <use x="159.033203" xlink:href="#DejaVuSans-48"/>
       <use x="222.65625" xlink:href="#DejaVuSans-48"/>
      </g>
     </g>
    </g>
    <g id="xtick_4">
     <g id="line2d_4">
      <g>
       <use style="stroke:#000000;stroke-width:0.8;" x="576.467831" xlink:href="#m564c59a4bb" y="630"/>
      </g>
     </g>
     <g id="text_4">
      <!-- 0.002 -->
      <g transform="translate(562.153769 644.598438)scale(0.1 -0.1)">
       <use xlink:href="#DejaVuSans-48"/>
       <use x="63.623047" xlink:href="#DejaVuSans-46"/>
       <use x="95.410156" xlink:href="#DejaVuSans-48"/>
       <use x="159.033203" xlink:href="#DejaVuSans-48"/>
       <use x="222.65625" xlink:href="#DejaVuSans-50"/>
      </g>
     </g>
    </g>
    <g id="xtick_5">
     <g id="line2d_5">
      <g>
       <use style="stroke:#000000;stroke-width:0.8;" x="708.287978" xlink:href="#m564c59a4bb" y="630"/>
      </g>
     </g>
     <g id="text_5">
      <!-- 0.004 -->
      <g transform="translate(693.973916 644.598438)scale(0.1 -0.1)">
       <use xlink:href="#DejaVuSans-48"/>
       <use x="63.623047" xlink:href="#DejaVuSans-46"/>
       <use x="95.410156" xlink:href="#DejaVuSans-48"/>
       <use x="159.033203" xlink:href="#DejaVuSans-48"/>
       <use x="222.65625" xlink:href="#DejaVuSans-52"/>
      </g>
     </g>
    </g>
    <g id="text_6">
     <!-- Parameters values -->
     <defs>
      <path d="M 19.671875 64.796875 
L 19.671875 37.40625 
L 32.078125 37.40625 
Q 38.96875 37.40625 42.71875 40.96875 
Q 46.484375 44.53125 46.484375 51.125 
Q 46.484375 57.671875 42.71875 61.234375 
Q 38.96875 64.796875 32.078125 64.796875 
z
M 9.8125 72.90625 
L 32.078125 72.90625 
Q 44.34375 72.90625 50.609375 67.359375 
Q 56.890625 61.8125 56.890625 51.125 
Q 56.890625 40.328125 50.609375 34.8125 
Q 44.34375 29.296875 32.078125 29.296875 
L 19.671875 29.296875 
L 19.671875 0 
L 9.8125 0 
z
" id="DejaVuSans-80"/>
      <path d="M 34.28125 27.484375 
Q 23.390625 27.484375 19.1875 25 
Q 14.984375 22.515625 14.984375 16.5 
Q 14.984375 11.71875 18.140625 8.90625 
Q 21.296875 6.109375 26.703125 6.109375 
Q 34.1875 6.109375 38.703125 11.40625 
Q 43.21875 16.703125 43.21875 25.484375 
L 43.21875 27.484375 
z
M 52.203125 31.203125 
L 52.203125 0 
L 43.21875 0 
L 43.21875 8.296875 
Q 40.140625 3.328125 35.546875 0.953125 
Q 30.953125 -1.421875 24.3125 -1.421875 
Q 15.921875 -1.421875 10.953125 3.296875 
Q 6 8.015625 6 15.921875 
Q 6 25.140625 12.171875 29.828125 
Q 18.359375 34.515625 30.609375 34.515625 
L 43.21875 34.515625 
L 43.21875 35.40625 
Q 43.21875 41.609375 39.140625 45 
Q 35.0625 48.390625 27.6875 48.390625 
Q 23 48.390625 18.546875 47.265625 
Q 14.109375 46.140625 10.015625 43.890625 
L 10.015625 52.203125 
Q 14.9375 54.109375 19.578125 55.046875 
Q 24.21875 56 28.609375 56 
Q 40.484375 56 46.34375 49.84375 
Q 52.203125 43.703125 52.203125 31.203125 
z
" id="DejaVuSans-97"/>
      <path d="M 41.109375 46.296875 
Q 39.59375 47.171875 37.8125 47.578125 
Q 36.03125 48 33.890625 48 
Q 26.265625 48 22.1875 43.046875 
Q 18.109375 38.09375 18.109375 28.8125 
L 18.109375 0 
L 9.078125 0 
L 9.078125 54.6875 
L 18.109375 54.6875 
L 18.109375 46.1875 
Q 20.953125 51.171875 25.484375 53.578125 
Q 30.03125 56 36.53125 56 
Q 37.453125 56 38.578125 55.875 
Q 39.703125 55.765625 41.0625 55.515625 
z
" id="DejaVuSans-114"/>
      <path d="M 52 44.1875 
Q 55.375 50.25 60.0625 53.125 
Q 64.75 56 71.09375 56 
Q 79.640625 56 84.28125 50.015625 
Q 88.921875 44.046875 88.921875 33.015625 
L 88.921875 0 
L 79.890625 0 
L 79.890625 32.71875 
Q 79.890625 40.578125 77.09375 44.375 
Q 74.3125 48.1875 68.609375 48.1875 
Q 61.625 48.1875 57.5625 43.546875 
Q 53.515625 38.921875 53.515625 30.90625 
L 53.515625 0 
L 44.484375 0 
L 44.484375 32.71875 
Q 44.484375 40.625 41.703125 44.40625 
Q 38.921875 48.1875 33.109375 48.1875 
Q 26.21875 48.1875 22.15625 43.53125 
Q 18.109375 38.875 18.109375 30.90625 
L 18.109375 0 
L 9.078125 0 
L 9.078125 54.6875 
L 18.109375 54.6875 
L 18.109375 46.1875 
Q 21.1875 51.21875 25.484375 53.609375 
Q 29.78125 56 35.6875 56 
Q 41.65625 56 45.828125 52.96875 
Q 50 49.953125 52 44.1875 
z
" id="DejaVuSans-109"/>
      <path d="M 56.203125 29.59375 
L 56.203125 25.203125 
L 14.890625 25.203125 
Q 15.484375 15.921875 20.484375 11.0625 
Q 25.484375 6.203125 34.421875 6.203125 
Q 39.59375 6.203125 44.453125 7.46875 
Q 49.3125 8.734375 54.109375 11.28125 
L 54.109375 2.78125 
Q 49.265625 0.734375 44.1875 -0.34375 
Q 39.109375 -1.421875 33.890625 -1.421875 
Q 20.796875 -1.421875 13.15625 6.1875 
Q 5.515625 13.8125 5.515625 26.8125 
Q 5.515625 40.234375 12.765625 48.109375 
Q 20.015625 56 32.328125 56 
Q 43.359375 56 49.78125 48.890625 
Q 56.203125 41.796875 56.203125 29.59375 
z
M 47.21875 32.234375 
Q 47.125 39.59375 43.09375 43.984375 
Q 39.0625 48.390625 32.421875 48.390625 
Q 24.90625 48.390625 20.390625 44.140625 
Q 15.875 39.890625 15.1875 32.171875 
z
" id="DejaVuSans-101"/>
      <path d="M 18.3125 70.21875 
L 18.3125 54.6875 
L 36.8125 54.6875 
L 36.8125 47.703125 
L 18.3125 47.703125 
L 18.3125 18.015625 
Q 18.3125 11.328125 20.140625 9.421875 
Q 21.96875 7.515625 27.59375 7.515625 
L 36.8125 7.515625 
L 36.8125 0 
L 27.59375 0 
Q 17.1875 0 13.234375 3.875 
Q 9.28125 7.765625 9.28125 18.015625 
L 9.28125 47.703125 
L 2.6875 47.703125 
L 2.6875 54.6875 
L 9.28125 54.6875 
L 9.28125 70.21875 
z
" id="DejaVuSans-116"/>
      <path d="M 44.28125 53.078125 
L 44.28125 44.578125 
Q 40.484375 46.53125 36.375 47.5 
Q 32.28125 48.484375 27.875 48.484375 
Q 21.1875 48.484375 17.84375 46.4375 
Q 14.5 44.390625 14.5 40.28125 
Q 14.5 37.15625 16.890625 35.375 
Q 19.28125 33.59375 26.515625 31.984375 
L 29.59375 31.296875 
Q 39.15625 29.25 43.1875 25.515625 
Q 47.21875 21.78125 47.21875 15.09375 
Q 47.21875 7.46875 41.1875 3.015625 
Q 35.15625 -1.421875 24.609375 -1.421875 
Q 20.21875 -1.421875 15.453125 -0.5625 
Q 10.6875 0.296875 5.421875 2 
L 5.421875 11.28125 
Q 10.40625 8.6875 15.234375 7.390625 
Q 20.0625 6.109375 24.8125 6.109375 
Q 31.15625 6.109375 34.5625 8.28125 
Q 37.984375 10.453125 37.984375 14.40625 
Q 37.984375 18.0625 35.515625 20.015625 
Q 33.0625 21.96875 24.703125 23.78125 
L 21.578125 24.515625 
Q 13.234375 26.265625 9.515625 29.90625 
Q 5.8125 33.546875 5.8125 39.890625 
Q 5.8125 47.609375 11.28125 51.796875 
Q 16.75 56 26.8125 56 
Q 31.78125 56 36.171875 55.265625 
Q 40.578125 54.546875 44.28125 53.078125 
z
" id="DejaVuSans-115"/>
      <path id="DejaVuSans-32"/>
      <path d="M 2.984375 54.6875 
L 12.5 54.6875 
L 29.59375 8.796875 
L 46.6875 54.6875 
L 56.203125 54.6875 
L 35.6875 0 
L 23.484375 0 
z
" id="DejaVuSans-118"/>
      <path d="M 9.421875 75.984375 
L 18.40625 75.984375 
L 18.40625 0 
L 9.421875 0 
z
" id="DejaVuSans-108"/>
      <path d="M 8.5 21.578125 
L 8.5 54.6875 
L 17.484375 54.6875 
L 17.484375 21.921875 
Q 17.484375 14.15625 20.5 10.265625 
Q 23.53125 6.390625 29.59375 6.390625 
Q 36.859375 6.390625 41.078125 11.03125 
Q 45.3125 15.671875 45.3125 23.6875 
L 45.3125 54.6875 
L 54.296875 54.6875 
L 54.296875 0 
L 45.3125 0 
L 45.3125 8.40625 
Q 42.046875 3.421875 37.71875 1 
Q 33.40625 -1.421875 27.6875 -1.421875 
Q 18.265625 -1.421875 13.375 4.4375 
Q 8.5 10.296875 8.5 21.578125 
z
M 31.109375 56 
z
" id="DejaVuSans-117"/>
     </defs>
     <g transform="translate(396.109375 658.276562)scale(0.1 -0.1)">
      <use xlink:href="#DejaVuSans-80"/>
      <use x="60.240234" xlink:href="#DejaVuSans-97"/>
      <use x="121.519531" xlink:href="#DejaVuSans-114"/>
      <use x="162.632812" xlink:href="#DejaVuSans-97"/>
      <use x="223.912109" xlink:href="#DejaVuSans-109"/>
      <use x="321.324219" xlink:href="#DejaVuSans-101"/>
      <use x="382.847656" xlink:href="#DejaVuSans-116"/>
      <use x="422.056641" xlink:href="#DejaVuSans-101"/>
      <use x="483.580078" xlink:href="#DejaVuSans-114"/>
      <use x="524.693359" xlink:href="#DejaVuSans-115"/>
      <use x="576.792969" xlink:href="#DejaVuSans-32"/>
      <use x="608.580078" xlink:href="#DejaVuSans-118"/>
      <use x="667.759766" xlink:href="#DejaVuSans-97"/>
      <use x="729.039062" xlink:href="#DejaVuSans-108"/>
      <use x="756.822266" xlink:href="#DejaVuSans-117"/>
      <use x="820.201172" xlink:href="#DejaVuSans-101"/>
      <use x="881.724609" xlink:href="#DejaVuSans-115"/>
     </g>
    </g>
   </g>
   <g id="matplotlib.axis_2">
    <g id="ytick_1">
     <g id="line2d_6">
      <defs>
       <path d="M 0 0 
L -3.5 0 
" id="m40700f1df5" style="stroke:#000000;stroke-width:0.8;"/>
      </defs>
      <g>
       <use style="stroke:#000000;stroke-width:0.8;" x="108" xlink:href="#m40700f1df5" y="630"/>
      </g>
     </g>
     <g id="text_7">
      <!-- 0 -->
      <g transform="translate(94.6375 633.799219)scale(0.1 -0.1)">
       <use xlink:href="#DejaVuSans-48"/>
      </g>
     </g>
    </g>
    <g id="ytick_2">
     <g id="line2d_7">
      <g>
       <use style="stroke:#000000;stroke-width:0.8;" x="108" xlink:href="#m40700f1df5" y="510.017811"/>
      </g>
     </g>
     <g id="text_8">
      <!-- 200 -->
      <g transform="translate(81.9125 513.81703)scale(0.1 -0.1)">
       <use xlink:href="#DejaVuSans-50"/>
       <use x="63.623047" xlink:href="#DejaVuSans-48"/>
       <use x="127.246094" xlink:href="#DejaVuSans-48"/>
      </g>
     </g>
    </g>
    <g id="ytick_3">
     <g id="line2d_8">
      <g>
       <use style="stroke:#000000;stroke-width:0.8;" x="108" xlink:href="#m40700f1df5" y="390.035623"/>
      </g>
     </g>
     <g id="text_9">
      <!-- 400 -->
      <g transform="translate(81.9125 393.834841)scale(0.1 -0.1)">
       <use xlink:href="#DejaVuSans-52"/>
       <use x="63.623047" xlink:href="#DejaVuSans-48"/>
       <use x="127.246094" xlink:href="#DejaVuSans-48"/>
      </g>
     </g>
    </g>
    <g id="ytick_4">
     <g id="line2d_9">
      <g>
       <use style="stroke:#000000;stroke-width:0.8;" x="108" xlink:href="#m40700f1df5" y="270.053434"/>
      </g>
     </g>
     <g id="text_10">
      <!-- 600 -->
      <defs>
       <path d="M 33.015625 40.375 
Q 26.375 40.375 22.484375 35.828125 
Q 18.609375 31.296875 18.609375 23.390625 
Q 18.609375 15.53125 22.484375 10.953125 
Q 26.375 6.390625 33.015625 6.390625 
Q 39.65625 6.390625 43.53125 10.953125 
Q 47.40625 15.53125 47.40625 23.390625 
Q 47.40625 31.296875 43.53125 35.828125 
Q 39.65625 40.375 33.015625 40.375 
z
M 52.59375 71.296875 
L 52.59375 62.3125 
Q 48.875 64.0625 45.09375 64.984375 
Q 41.3125 65.921875 37.59375 65.921875 
Q 27.828125 65.921875 22.671875 59.328125 
Q 17.53125 52.734375 16.796875 39.40625 
Q 19.671875 43.65625 24.015625 45.921875 
Q 28.375 48.1875 33.59375 48.1875 
Q 44.578125 48.1875 50.953125 41.515625 
Q 57.328125 34.859375 57.328125 23.390625 
Q 57.328125 12.15625 50.6875 5.359375 
Q 44.046875 -1.421875 33.015625 -1.421875 
Q 20.359375 -1.421875 13.671875 8.265625 
Q 6.984375 17.96875 6.984375 36.375 
Q 6.984375 53.65625 15.1875 63.9375 
Q 23.390625 74.21875 37.203125 74.21875 
Q 40.921875 74.21875 44.703125 73.484375 
Q 48.484375 72.75 52.59375 71.296875 
z
" id="DejaVuSans-54"/>
      </defs>
      <g transform="translate(81.9125 273.852653)scale(0.1 -0.1)">
       <use xlink:href="#DejaVuSans-54"/>
       <use x="63.623047" xlink:href="#DejaVuSans-48"/>
       <use x="127.246094" xlink:href="#DejaVuSans-48"/>
      </g>
     </g>
    </g>
    <g id="ytick_5">
     <g id="line2d_10">
      <g>
       <use style="stroke:#000000;stroke-width:0.8;" x="108" xlink:href="#m40700f1df5" y="150.071245"/>
      </g>
     </g>
     <g id="text_11">
      <!-- 800 -->
      <defs>
       <path d="M 31.78125 34.625 
Q 24.75 34.625 20.71875 30.859375 
Q 16.703125 27.09375 16.703125 20.515625 
Q 16.703125 13.921875 20.71875 10.15625 
Q 24.75 6.390625 31.78125 6.390625 
Q 38.8125 6.390625 42.859375 10.171875 
Q 46.921875 13.96875 46.921875 20.515625 
Q 46.921875 27.09375 42.890625 30.859375 
Q 38.875 34.625 31.78125 34.625 
z
M 21.921875 38.8125 
Q 15.578125 40.375 12.03125 44.71875 
Q 8.5 49.078125 8.5 55.328125 
Q 8.5 64.0625 14.71875 69.140625 
Q 20.953125 74.21875 31.78125 74.21875 
Q 42.671875 74.21875 48.875 69.140625 
Q 55.078125 64.0625 55.078125 55.328125 
Q 55.078125 49.078125 51.53125 44.71875 
Q 48 40.375 41.703125 38.8125 
Q 48.828125 37.15625 52.796875 32.3125 
Q 56.78125 27.484375 56.78125 20.515625 
Q 56.78125 9.90625 50.3125 4.234375 
Q 43.84375 -1.421875 31.78125 -1.421875 
Q 19.734375 -1.421875 13.25 4.234375 
Q 6.78125 9.90625 6.78125 20.515625 
Q 6.78125 27.484375 10.78125 32.3125 
Q 14.796875 37.15625 21.921875 38.8125 
z
M 18.3125 54.390625 
Q 18.3125 48.734375 21.84375 45.5625 
Q 25.390625 42.390625 31.78125 42.390625 
Q 38.140625 42.390625 41.71875 45.5625 
Q 45.3125 48.734375 45.3125 54.390625 
Q 45.3125 60.0625 41.71875 63.234375 
Q 38.140625 66.40625 31.78125 66.40625 
Q 25.390625 66.40625 21.84375 63.234375 
Q 18.3125 60.0625 18.3125 54.390625 
z
" id="DejaVuSans-56"/>
      </defs>
      <g transform="translate(81.9125 153.870464)scale(0.1 -0.1)">
       <use xlink:href="#DejaVuSans-56"/>
       <use x="63.623047" xlink:href="#DejaVuSans-48"/>
       <use x="127.246094" xlink:href="#DejaVuSans-48"/>
      </g>
     </g>
    </g>
    <g id="text_12">
     <!-- Frequency -->
     <defs>
      <path d="M 9.8125 72.90625 
L 51.703125 72.90625 
L 51.703125 64.59375 
L 19.671875 64.59375 
L 19.671875 43.109375 
L 48.578125 43.109375 
L 48.578125 34.8125 
L 19.671875 34.8125 
L 19.671875 0 
L 9.8125 0 
z
" id="DejaVuSans-70"/>
      <path d="M 14.796875 27.296875 
Q 14.796875 17.390625 18.875 11.75 
Q 22.953125 6.109375 30.078125 6.109375 
Q 37.203125 6.109375 41.296875 11.75 
Q 45.40625 17.390625 45.40625 27.296875 
Q 45.40625 37.203125 41.296875 42.84375 
Q 37.203125 48.484375 30.078125 48.484375 
Q 22.953125 48.484375 18.875 42.84375 
Q 14.796875 37.203125 14.796875 27.296875 
z
M 45.40625 8.203125 
Q 42.578125 3.328125 38.25 0.953125 
Q 33.9375 -1.421875 27.875 -1.421875 
Q 17.96875 -1.421875 11.734375 6.484375 
Q 5.515625 14.40625 5.515625 27.296875 
Q 5.515625 40.1875 11.734375 48.09375 
Q 17.96875 56 27.875 56 
Q 33.9375 56 38.25 53.625 
Q 42.578125 51.265625 45.40625 46.390625 
L 45.40625 54.6875 
L 54.390625 54.6875 
L 54.390625 -20.796875 
L 45.40625 -20.796875 
z
" id="DejaVuSans-113"/>
      <path d="M 54.890625 33.015625 
L 54.890625 0 
L 45.90625 0 
L 45.90625 32.71875 
Q 45.90625 40.484375 42.875 44.328125 
Q 39.84375 48.1875 33.796875 48.1875 
Q 26.515625 48.1875 22.3125 43.546875 
Q 18.109375 38.921875 18.109375 30.90625 
L 18.109375 0 
L 9.078125 0 
L 9.078125 54.6875 
L 18.109375 54.6875 
L 18.109375 46.1875 
Q 21.34375 51.125 25.703125 53.5625 
Q 30.078125 56 35.796875 56 
Q 45.21875 56 50.046875 50.171875 
Q 54.890625 44.34375 54.890625 33.015625 
z
" id="DejaVuSans-110"/>
      <path d="M 48.78125 52.59375 
L 48.78125 44.1875 
Q 44.96875 46.296875 41.140625 47.34375 
Q 37.3125 48.390625 33.40625 48.390625 
Q 24.65625 48.390625 19.8125 42.84375 
Q 14.984375 37.3125 14.984375 27.296875 
Q 14.984375 17.28125 19.8125 11.734375 
Q 24.65625 6.203125 33.40625 6.203125 
Q 37.3125 6.203125 41.140625 7.25 
Q 44.96875 8.296875 48.78125 10.40625 
L 48.78125 2.09375 
Q 45.015625 0.34375 40.984375 -0.53125 
Q 36.96875 -1.421875 32.421875 -1.421875 
Q 20.0625 -1.421875 12.78125 6.34375 
Q 5.515625 14.109375 5.515625 27.296875 
Q 5.515625 40.671875 12.859375 48.328125 
Q 20.21875 56 33.015625 56 
Q 37.15625 56 41.109375 55.140625 
Q 45.0625 54.296875 48.78125 52.59375 
z
" id="DejaVuSans-99"/>
      <path d="M 32.171875 -5.078125 
Q 28.375 -14.84375 24.75 -17.8125 
Q 21.140625 -20.796875 15.09375 -20.796875 
L 7.90625 -20.796875 
L 7.90625 -13.28125 
L 13.1875 -13.28125 
Q 16.890625 -13.28125 18.9375 -11.515625 
Q 21 -9.765625 23.484375 -3.21875 
L 25.09375 0.875 
L 2.984375 54.6875 
L 12.5 54.6875 
L 29.59375 11.921875 
L 46.6875 54.6875 
L 56.203125 54.6875 
z
" id="DejaVuSans-121"/>
     </defs>
     <g transform="translate(75.832812 384.497656)rotate(-90)scale(0.1 -0.1)">
      <use xlink:href="#DejaVuSans-70"/>
      <use x="57.410156" xlink:href="#DejaVuSans-114"/>
      <use x="98.492188" xlink:href="#DejaVuSans-101"/>
      <use x="160.015625" xlink:href="#DejaVuSans-113"/>
      <use x="223.492188" xlink:href="#DejaVuSans-117"/>
      <use x="286.871094" xlink:href="#DejaVuSans-101"/>
      <use x="348.394531" xlink:href="#DejaVuSans-110"/>
      <use x="411.773438" xlink:href="#DejaVuSans-99"/>
      <use x="466.753906" xlink:href="#DejaVuSans-121"/>
     </g>
    </g>
   </g>
   <g id="patch_103">
    <path d="M 108 630 
L 108 86.4 
" style="fill:none;stroke:#000000;stroke-linecap:square;stroke-linejoin:miter;stroke-width:0.8;"/>
   </g>
   <g id="patch_104">
    <path d="M 777.6 630 
L 777.6 86.4 
" style="fill:none;stroke:#000000;stroke-linecap:square;stroke-linejoin:miter;stroke-width:0.8;"/>
   </g>
   <g id="patch_105">
    <path d="M 108 630 
L 777.6 630 
" style="fill:none;stroke:#000000;stroke-linecap:square;stroke-linejoin:miter;stroke-width:0.8;"/>
   </g>
   <g id="patch_106">
    <path d="M 108 86.4 
L 777.6 86.4 
" style="fill:none;stroke:#000000;stroke-linecap:square;stroke-linejoin:miter;stroke-width:0.8;"/>
   </g>
   <g id="text_13">
    <!-- Layer dense1 , generation number 4 -->
    <defs>
     <path d="M 9.8125 72.90625 
L 19.671875 72.90625 
L 19.671875 8.296875 
L 55.171875 8.296875 
L 55.171875 0 
L 9.8125 0 
z
" id="DejaVuSans-76"/>
     <path d="M 45.40625 46.390625 
L 45.40625 75.984375 
L 54.390625 75.984375 
L 54.390625 0 
L 45.40625 0 
L 45.40625 8.203125 
Q 42.578125 3.328125 38.25 0.953125 
Q 33.9375 -1.421875 27.875 -1.421875 
Q 17.96875 -1.421875 11.734375 6.484375 
Q 5.515625 14.40625 5.515625 27.296875 
Q 5.515625 40.1875 11.734375 48.09375 
Q 17.96875 56 27.875 56 
Q 33.9375 56 38.25 53.625 
Q 42.578125 51.265625 45.40625 46.390625 
z
M 14.796875 27.296875 
Q 14.796875 17.390625 18.875 11.75 
Q 22.953125 6.109375 30.078125 6.109375 
Q 37.203125 6.109375 41.296875 11.75 
Q 45.40625 17.390625 45.40625 27.296875 
Q 45.40625 37.203125 41.296875 42.84375 
Q 37.203125 48.484375 30.078125 48.484375 
Q 22.953125 48.484375 18.875 42.84375 
Q 14.796875 37.203125 14.796875 27.296875 
z
" id="DejaVuSans-100"/>
     <path d="M 12.40625 8.296875 
L 28.515625 8.296875 
L 28.515625 63.921875 
L 10.984375 60.40625 
L 10.984375 69.390625 
L 28.421875 72.90625 
L 38.28125 72.90625 
L 38.28125 8.296875 
L 54.390625 8.296875 
L 54.390625 0 
L 12.40625 0 
z
" id="DejaVuSans-49"/>
     <path d="M 11.71875 12.40625 
L 22.015625 12.40625 
L 22.015625 4 
L 14.015625 -11.625 
L 7.71875 -11.625 
L 11.71875 4 
z
" id="DejaVuSans-44"/>
     <path d="M 45.40625 27.984375 
Q 45.40625 37.75 41.375 43.109375 
Q 37.359375 48.484375 30.078125 48.484375 
Q 22.859375 48.484375 18.828125 43.109375 
Q 14.796875 37.75 14.796875 27.984375 
Q 14.796875 18.265625 18.828125 12.890625 
Q 22.859375 7.515625 30.078125 7.515625 
Q 37.359375 7.515625 41.375 12.890625 
Q 45.40625 18.265625 45.40625 27.984375 
z
M 54.390625 6.78125 
Q 54.390625 -7.171875 48.1875 -13.984375 
Q 42 -20.796875 29.203125 -20.796875 
Q 24.46875 -20.796875 20.265625 -20.09375 
Q 16.0625 -19.390625 12.109375 -17.921875 
L 12.109375 -9.1875 
Q 16.0625 -11.328125 19.921875 -12.34375 
Q 23.78125 -13.375 27.78125 -13.375 
Q 36.625 -13.375 41.015625 -8.765625 
Q 45.40625 -4.15625 45.40625 5.171875 
L 45.40625 9.625 
Q 42.625 4.78125 38.28125 2.390625 
Q 33.9375 0 27.875 0 
Q 17.828125 0 11.671875 7.65625 
Q 5.515625 15.328125 5.515625 27.984375 
Q 5.515625 40.671875 11.671875 48.328125 
Q 17.828125 56 27.875 56 
Q 33.9375 56 38.28125 53.609375 
Q 42.625 51.21875 45.40625 46.390625 
L 45.40625 54.6875 
L 54.390625 54.6875 
z
" id="DejaVuSans-103"/>
     <path d="M 9.421875 54.6875 
L 18.40625 54.6875 
L 18.40625 0 
L 9.421875 0 
z
M 9.421875 75.984375 
L 18.40625 75.984375 
L 18.40625 64.59375 
L 9.421875 64.59375 
z
" id="DejaVuSans-105"/>
     <path d="M 30.609375 48.390625 
Q 23.390625 48.390625 19.1875 42.75 
Q 14.984375 37.109375 14.984375 27.296875 
Q 14.984375 17.484375 19.15625 11.84375 
Q 23.34375 6.203125 30.609375 6.203125 
Q 37.796875 6.203125 41.984375 11.859375 
Q 46.1875 17.53125 46.1875 27.296875 
Q 46.1875 37.015625 41.984375 42.703125 
Q 37.796875 48.390625 30.609375 48.390625 
z
M 30.609375 56 
Q 42.328125 56 49.015625 48.375 
Q 55.71875 40.765625 55.71875 27.296875 
Q 55.71875 13.875 49.015625 6.21875 
Q 42.328125 -1.421875 30.609375 -1.421875 
Q 18.84375 -1.421875 12.171875 6.21875 
Q 5.515625 13.875 5.515625 27.296875 
Q 5.515625 40.765625 12.171875 48.375 
Q 18.84375 56 30.609375 56 
z
" id="DejaVuSans-111"/>
     <path d="M 48.6875 27.296875 
Q 48.6875 37.203125 44.609375 42.84375 
Q 40.53125 48.484375 33.40625 48.484375 
Q 26.265625 48.484375 22.1875 42.84375 
Q 18.109375 37.203125 18.109375 27.296875 
Q 18.109375 17.390625 22.1875 11.75 
Q 26.265625 6.109375 33.40625 6.109375 
Q 40.53125 6.109375 44.609375 11.75 
Q 48.6875 17.390625 48.6875 27.296875 
z
M 18.109375 46.390625 
Q 20.953125 51.265625 25.265625 53.625 
Q 29.59375 56 35.59375 56 
Q 45.5625 56 51.78125 48.09375 
Q 58.015625 40.1875 58.015625 27.296875 
Q 58.015625 14.40625 51.78125 6.484375 
Q 45.5625 -1.421875 35.59375 -1.421875 
Q 29.59375 -1.421875 25.265625 0.953125 
Q 20.953125 3.328125 18.109375 8.203125 
L 18.109375 0 
L 9.078125 0 
L 9.078125 75.984375 
L 18.109375 75.984375 
z
" id="DejaVuSans-98"/>
    </defs>
    <g transform="translate(332.824687 80.4)scale(0.12 -0.12)">
     <use xlink:href="#DejaVuSans-76"/>
     <use x="55.712891" xlink:href="#DejaVuSans-97"/>
     <use x="116.992188" xlink:href="#DejaVuSans-121"/>
     <use x="176.171875" xlink:href="#DejaVuSans-101"/>
     <use x="237.695312" xlink:href="#DejaVuSans-114"/>
     <use x="278.808594" xlink:href="#DejaVuSans-32"/>
     <use x="310.595703" xlink:href="#DejaVuSans-100"/>
     <use x="374.072266" xlink:href="#DejaVuSans-101"/>
     <use x="435.595703" xlink:href="#DejaVuSans-110"/>
     <use x="498.974609" xlink:href="#DejaVuSans-115"/>
     <use x="551.074219" xlink:href="#DejaVuSans-101"/>
     <use x="612.597656" xlink:href="#DejaVuSans-49"/>
     <use x="676.220703" xlink:href="#DejaVuSans-32"/>
     <use x="708.007812" xlink:href="#DejaVuSans-44"/>
     <use x="739.794922" xlink:href="#DejaVuSans-32"/>
     <use x="771.582031" xlink:href="#DejaVuSans-103"/>
     <use x="835.058594" xlink:href="#DejaVuSans-101"/>
     <use x="896.582031" xlink:href="#DejaVuSans-110"/>
     <use x="959.960938" xlink:href="#DejaVuSans-101"/>
     <use x="1021.484375" xlink:href="#DejaVuSans-114"/>
     <use x="1062.597656" xlink:href="#DejaVuSans-97"/>
     <use x="1123.876953" xlink:href="#DejaVuSans-116"/>
     <use x="1163.085938" xlink:href="#DejaVuSans-105"/>
     <use x="1190.869141" xlink:href="#DejaVuSans-111"/>
     <use x="1252.050781" xlink:href="#DejaVuSans-110"/>
     <use x="1315.429688" xlink:href="#DejaVuSans-32"/>
     <use x="1347.216797" xlink:href="#DejaVuSans-110"/>
     <use x="1410.595703" xlink:href="#DejaVuSans-117"/>
     <use x="1473.974609" xlink:href="#DejaVuSans-109"/>
     <use x="1571.386719" xlink:href="#DejaVuSans-98"/>
     <use x="1634.863281" xlink:href="#DejaVuSans-101"/>
     <use x="1696.386719" xlink:href="#DejaVuSans-114"/>
     <use x="1737.5" xlink:href="#DejaVuSans-32"/>
     <use x="1769.287109" xlink:href="#DejaVuSans-52"/>
    </g>
   </g>
   <g id="legend_1">
    <g id="patch_107">
     <path d="M 657.876563 123.75625 
L 770.6 123.75625 
Q 772.6 123.75625 772.6 121.75625 
L 772.6 93.4 
Q 772.6 91.4 770.6 91.4 
L 657.876563 91.4 
Q 655.876563 91.4 655.876563 93.4 
L 655.876563 121.75625 
Q 655.876563 123.75625 657.876563 123.75625 
z
" style="fill:#ffffff;opacity:0.8;stroke:#cccccc;stroke-linejoin:miter;"/>
    </g>
    <g id="patch_108">
     <path d="M 659.876563 102.998437 
L 679.876563 102.998437 
L 679.876563 95.998437 
L 659.876563 95.998437 
z
" style="fill:#ff0000;opacity:0.5;"/>
    </g>
    <g id="text_14">
     <!-- First Generation -->
     <defs>
      <path d="M 59.515625 10.40625 
L 59.515625 29.984375 
L 43.40625 29.984375 
L 43.40625 38.09375 
L 69.28125 38.09375 
L 69.28125 6.78125 
Q 63.578125 2.734375 56.6875 0.65625 
Q 49.8125 -1.421875 42 -1.421875 
Q 24.90625 -1.421875 15.25 8.5625 
Q 5.609375 18.5625 5.609375 36.375 
Q 5.609375 54.25 15.25 64.234375 
Q 24.90625 74.21875 42 74.21875 
Q 49.125 74.21875 55.546875 72.453125 
Q 61.96875 70.703125 67.390625 67.28125 
L 67.390625 56.78125 
Q 61.921875 61.421875 55.765625 63.765625 
Q 49.609375 66.109375 42.828125 66.109375 
Q 29.4375 66.109375 22.71875 58.640625 
Q 16.015625 51.171875 16.015625 36.375 
Q 16.015625 21.625 22.71875 14.15625 
Q 29.4375 6.6875 42.828125 6.6875 
Q 48.046875 6.6875 52.140625 7.59375 
Q 56.25 8.5 59.515625 10.40625 
z
" id="DejaVuSans-71"/>
     </defs>
     <g transform="translate(687.876563 102.998437)scale(0.1 -0.1)">
      <use xlink:href="#DejaVuSans-70"/>
      <use x="57.410156" xlink:href="#DejaVuSans-105"/>
      <use x="85.193359" xlink:href="#DejaVuSans-114"/>
      <use x="126.306641" xlink:href="#DejaVuSans-115"/>
      <use x="178.40625" xlink:href="#DejaVuSans-116"/>
      <use x="217.615234" xlink:href="#DejaVuSans-32"/>
      <use x="249.402344" xlink:href="#DejaVuSans-71"/>
      <use x="326.892578" xlink:href="#DejaVuSans-101"/>
      <use x="388.416016" xlink:href="#DejaVuSans-110"/>
      <use x="451.794922" xlink:href="#DejaVuSans-101"/>
      <use x="513.318359" xlink:href="#DejaVuSans-114"/>
      <use x="554.431641" xlink:href="#DejaVuSans-97"/>
      <use x="615.710938" xlink:href="#DejaVuSans-116"/>
      <use x="654.919922" xlink:href="#DejaVuSans-105"/>
      <use x="682.703125" xlink:href="#DejaVuSans-111"/>
      <use x="743.884766" xlink:href="#DejaVuSans-110"/>
     </g>
    </g>
    <g id="patch_109">
     <path d="M 659.876563 117.676562 
L 679.876563 117.676562 
L 679.876563 110.676562 
L 659.876563 110.676562 
z
" style="fill:#0000ff;opacity:0.5;"/>
    </g>
    <g id="text_15">
     <!-- Last Generation -->
     <g transform="translate(687.876563 117.676562)scale(0.1 -0.1)">
      <use xlink:href="#DejaVuSans-76"/>
      <use x="55.712891" xlink:href="#DejaVuSans-97"/>
      <use x="116.992188" xlink:href="#DejaVuSans-115"/>
      <use x="169.091797" xlink:href="#DejaVuSans-116"/>
      <use x="208.300781" xlink:href="#DejaVuSans-32"/>
      <use x="240.087891" xlink:href="#DejaVuSans-71"/>
      <use x="317.578125" xlink:href="#DejaVuSans-101"/>
      <use x="379.101562" xlink:href="#DejaVuSans-110"/>
      <use x="442.480469" xlink:href="#DejaVuSans-101"/>
      <use x="504.003906" xlink:href="#DejaVuSans-114"/>
      <use x="545.117188" xlink:href="#DejaVuSans-97"/>
      <use x="606.396484" xlink:href="#DejaVuSans-116"/>
      <use x="645.605469" xlink:href="#DejaVuSans-105"/>
      <use x="673.388672" xlink:href="#DejaVuSans-111"/>
      <use x="734.570312" xlink:href="#DejaVuSans-110"/>
     </g>
    </g>
   </g>
  </g>
 </g>
 <defs>
  <clipPath id="p594d15cd8d">
   <rect height="543.6" width="669.6" x="108" y="86.4"/>
  </clipPath>
 </defs>
</svg>
