<?xml version="1.0" encoding="utf-8" standalone="no"?>
<!DOCTYPE svg PUBLIC "-//W3C//DTD SVG 1.1//EN"
  "http://www.w3.org/Graphics/SVG/1.1/DTD/svg11.dtd">
<!-- Created with matplotlib (https://matplotlib.org/) -->
<svg height="589.79625pt" version="1.1" viewBox="0 0 703.725 589.79625" width="703.725pt" xmlns="http://www.w3.org/2000/svg" xmlns:xlink="http://www.w3.org/1999/xlink">
 <defs>
  <style type="text/css">
*{stroke-linecap:butt;stroke-linejoin:round;white-space:pre;}
  </style>
 </defs>
 <g id="figure_1">
  <g id="patch_1">
   <path d="M 0 589.79625 
L 703.725 589.79625 
L 703.725 0 
L 0 0 
z
" style="fill:#ffffff;"/>
  </g>
  <g id="axes_1">
   <g id="patch_2">
    <path d="M 26.925 565.918125 
L 696.525 565.918125 
L 696.525 22.318125 
L 26.925 22.318125 
z
" style="fill:#ffffff;"/>
   </g>
   <g id="patch_3">
    <path clip-path="url(#p43bac14f74)" d="M 230.003771 565.918125 
L 235.757608 565.918125 
L 235.757608 565.863911 
L 230.003771 565.863911 
z
" style="fill:#ff0000;opacity:0.5;"/>
   </g>
   <g id="patch_4">
    <path clip-path="url(#p43bac14f74)" d="M 235.757608 565.918125 
L 241.511445 565.918125 
L 241.511445 565.884241 
L 235.757608 565.884241 
z
" style="fill:#ff0000;opacity:0.5;"/>
   </g>
   <g id="patch_5">
    <path clip-path="url(#p43bac14f74)" d="M 241.511445 565.918125 
L 247.265282 565.918125 
L 247.265282 565.728377 
L 241.511445 565.728377 
z
" style="fill:#ff0000;opacity:0.5;"/>
   </g>
   <g id="patch_6">
    <path clip-path="url(#p43bac14f74)" d="M 247.265282 565.918125 
L 253.019119 565.918125 
L 253.019119 565.599619 
L 247.265282 565.599619 
z
" style="fill:#ff0000;opacity:0.5;"/>
   </g>
   <g id="patch_7">
    <path clip-path="url(#p43bac14f74)" d="M 253.019119 565.918125 
L 258.772956 565.918125 
L 258.772956 565.2269 
L 253.019119 565.2269 
z
" style="fill:#ff0000;opacity:0.5;"/>
   </g>
   <g id="patch_8">
    <path clip-path="url(#p43bac14f74)" d="M 258.772956 565.918125 
L 264.526793 565.918125 
L 264.526793 564.684762 
L 258.772956 564.684762 
z
" style="fill:#ff0000;opacity:0.5;"/>
   </g>
   <g id="patch_9">
    <path clip-path="url(#p43bac14f74)" d="M 264.526793 565.918125 
L 270.28063 565.918125 
L 270.28063 563.241321 
L 264.526793 563.241321 
z
" style="fill:#ff0000;opacity:0.5;"/>
   </g>
   <g id="patch_10">
    <path clip-path="url(#p43bac14f74)" d="M 270.28063 565.918125 
L 276.034468 565.918125 
L 276.034468 560.828808 
L 270.28063 560.828808 
z
" style="fill:#ff0000;opacity:0.5;"/>
   </g>
   <g id="patch_11">
    <path clip-path="url(#p43bac14f74)" d="M 276.034468 565.918125 
L 281.788305 565.918125 
L 281.788305 557.359128 
L 276.034468 557.359128 
z
" style="fill:#ff0000;opacity:0.5;"/>
   </g>
   <g id="patch_12">
    <path clip-path="url(#p43bac14f74)" d="M 281.788305 565.918125 
L 287.542142 565.918125 
L 287.542142 550.76538 
L 281.788305 550.76538 
z
" style="fill:#ff0000;opacity:0.5;"/>
   </g>
   <g id="patch_13">
    <path clip-path="url(#p43bac14f74)" d="M 287.542142 565.918125 
L 293.295979 565.918125 
L 293.295979 540.871369 
L 287.542142 540.871369 
z
" style="fill:#ff0000;opacity:0.5;"/>
   </g>
   <g id="patch_14">
    <path clip-path="url(#p43bac14f74)" d="M 293.295979 565.918125 
L 299.049816 565.918125 
L 299.049816 527.114627 
L 293.295979 527.114627 
z
" style="fill:#ff0000;opacity:0.5;"/>
   </g>
   <g id="patch_15">
    <path clip-path="url(#p43bac14f74)" d="M 299.049816 565.918125 
L 304.803653 565.918125 
L 304.803653 506.147456 
L 299.049816 506.147456 
z
" style="fill:#ff0000;opacity:0.5;"/>
   </g>
   <g id="patch_16">
    <path clip-path="url(#p43bac14f74)" d="M 304.803653 565.918125 
L 310.55749 565.918125 
L 310.55749 478.789839 
L 304.803653 478.789839 
z
" style="fill:#ff0000;opacity:0.5;"/>
   </g>
   <g id="patch_17">
    <path clip-path="url(#p43bac14f74)" d="M 310.55749 565.918125 
L 316.311327 565.918125 
L 316.311327 442.44629 
L 310.55749 442.44629 
z
" style="fill:#ff0000;opacity:0.5;"/>
   </g>
   <g id="patch_18">
    <path clip-path="url(#p43bac14f74)" d="M 316.311327 565.918125 
L 322.065165 565.918125 
L 322.065165 397.211686 
L 316.311327 397.211686 
z
" style="fill:#ff0000;opacity:0.5;"/>
   </g>
   <g id="patch_19">
    <path clip-path="url(#p43bac14f74)" d="M 322.065165 565.918125 
L 327.819002 565.918125 
L 327.819002 342.747189 
L 322.065165 342.747189 
z
" style="fill:#ff0000;opacity:0.5;"/>
   </g>
   <g id="patch_20">
    <path clip-path="url(#p43bac14f74)" d="M 327.819002 565.918125 
L 333.572839 565.918125 
L 333.572839 283.918484 
L 327.819002 283.918484 
z
" style="fill:#ff0000;opacity:0.5;"/>
   </g>
   <g id="patch_21">
    <path clip-path="url(#p43bac14f74)" d="M 333.572839 565.918125 
L 339.326676 565.918125 
L 339.326676 224.771274 
L 333.572839 224.771274 
z
" style="fill:#ff0000;opacity:0.5;"/>
   </g>
   <g id="patch_22">
    <path clip-path="url(#p43bac14f74)" d="M 339.326676 565.918125 
L 345.080513 565.918125 
L 345.080513 165.779928 
L 339.326676 165.779928 
z
" style="fill:#ff0000;opacity:0.5;"/>
   </g>
   <g id="patch_23">
    <path clip-path="url(#p43bac14f74)" d="M 345.080513 565.918125 
L 350.83435 565.918125 
L 350.83435 112.243841 
L 345.080513 112.243841 
z
" style="fill:#ff0000;opacity:0.5;"/>
   </g>
   <g id="patch_24">
    <path clip-path="url(#p43bac14f74)" d="M 350.83435 565.918125 
L 356.588187 565.918125 
L 356.588187 74.578833 
L 350.83435 74.578833 
z
" style="fill:#ff0000;opacity:0.5;"/>
   </g>
   <g id="patch_25">
    <path clip-path="url(#p43bac14f74)" d="M 356.588187 565.918125 
L 362.342024 565.918125 
L 362.342024 49.11192 
L 356.588187 49.11192 
z
" style="fill:#ff0000;opacity:0.5;"/>
   </g>
   <g id="patch_26">
    <path clip-path="url(#p43bac14f74)" d="M 362.342024 565.918125 
L 368.095862 565.918125 
L 368.095862 48.203839 
L 362.342024 48.203839 
z
" style="fill:#ff0000;opacity:0.5;"/>
   </g>
   <g id="patch_27">
    <path clip-path="url(#p43bac14f74)" d="M 368.095862 565.918125 
L 373.849699 565.918125 
L 373.849699 60.483256 
L 368.095862 60.483256 
z
" style="fill:#ff0000;opacity:0.5;"/>
   </g>
   <g id="patch_28">
    <path clip-path="url(#p43bac14f74)" d="M 373.849699 565.918125 
L 379.603536 565.918125 
L 379.603536 93.926368 
L 373.849699 93.926368 
z
" style="fill:#ff0000;opacity:0.5;"/>
   </g>
   <g id="patch_29">
    <path clip-path="url(#p43bac14f74)" d="M 379.603536 565.918125 
L 385.357373 565.918125 
L 385.357373 143.552287 
L 379.603536 143.552287 
z
" style="fill:#ff0000;opacity:0.5;"/>
   </g>
   <g id="patch_30">
    <path clip-path="url(#p43bac14f74)" d="M 385.357373 565.918125 
L 391.11121 565.918125 
L 391.11121 199.629643 
L 385.357373 199.629643 
z
" style="fill:#ff0000;opacity:0.5;"/>
   </g>
   <g id="patch_31">
    <path clip-path="url(#p43bac14f74)" d="M 391.11121 565.918125 
L 396.865047 565.918125 
L 396.865047 256.784498 
L 391.11121 256.784498 
z
" style="fill:#ff0000;opacity:0.5;"/>
   </g>
   <g id="patch_32">
    <path clip-path="url(#p43bac14f74)" d="M 396.865047 565.918125 
L 402.618884 565.918125 
L 402.618884 319.475933 
L 396.865047 319.475933 
z
" style="fill:#ff0000;opacity:0.5;"/>
   </g>
   <g id="patch_33">
    <path clip-path="url(#p43bac14f74)" d="M 402.618884 565.918125 
L 408.372721 565.918125 
L 408.372721 374.02175 
L 402.618884 374.02175 
z
" style="fill:#ff0000;opacity:0.5;"/>
   </g>
   <g id="patch_34">
    <path clip-path="url(#p43bac14f74)" d="M 408.372721 565.918125 
L 414.126559 565.918125 
L 414.126559 422.01448 
L 408.372721 422.01448 
z
" style="fill:#ff0000;opacity:0.5;"/>
   </g>
   <g id="patch_35">
    <path clip-path="url(#p43bac14f74)" d="M 414.126559 565.918125 
L 419.880396 565.918125 
L 419.880396 463.088179 
L 414.126559 463.088179 
z
" style="fill:#ff0000;opacity:0.5;"/>
   </g>
   <g id="patch_36">
    <path clip-path="url(#p43bac14f74)" d="M 419.880396 565.918125 
L 425.634233 565.918125 
L 425.634233 494.532159 
L 419.880396 494.532159 
z
" style="fill:#ff0000;opacity:0.5;"/>
   </g>
   <g id="patch_37">
    <path clip-path="url(#p43bac14f74)" d="M 425.634233 565.918125 
L 431.38807 565.918125 
L 431.38807 518.230348 
L 425.634233 518.230348 
z
" style="fill:#ff0000;opacity:0.5;"/>
   </g>
   <g id="patch_38">
    <path clip-path="url(#p43bac14f74)" d="M 431.38807 565.918125 
L 437.141907 565.918125 
L 437.141907 535.233138 
L 431.38807 535.233138 
z
" style="fill:#ff0000;opacity:0.5;"/>
   </g>
   <g id="patch_39">
    <path clip-path="url(#p43bac14f74)" d="M 437.141907 565.918125 
L 442.895744 565.918125 
L 442.895744 547.180495 
L 437.141907 547.180495 
z
" style="fill:#ff0000;opacity:0.5;"/>
   </g>
   <g id="patch_40">
    <path clip-path="url(#p43bac14f74)" d="M 442.895744 565.918125 
L 448.649581 565.918125 
L 448.649581 554.404478 
L 442.895744 554.404478 
z
" style="fill:#ff0000;opacity:0.5;"/>
   </g>
   <g id="patch_41">
    <path clip-path="url(#p43bac14f74)" d="M 448.649581 565.918125 
L 454.403418 565.918125 
L 454.403418 559.182066 
L 448.649581 559.182066 
z
" style="fill:#ff0000;opacity:0.5;"/>
   </g>
   <g id="patch_42">
    <path clip-path="url(#p43bac14f74)" d="M 454.403418 565.918125 
L 460.157256 565.918125 
L 460.157256 562.489105 
L 454.403418 562.489105 
z
" style="fill:#ff0000;opacity:0.5;"/>
   </g>
   <g id="patch_43">
    <path clip-path="url(#p43bac14f74)" d="M 460.157256 565.918125 
L 465.911093 565.918125 
L 465.911093 564.040974 
L 460.157256 564.040974 
z
" style="fill:#ff0000;opacity:0.5;"/>
   </g>
   <g id="patch_44">
    <path clip-path="url(#p43bac14f74)" d="M 465.911093 565.918125 
L 471.66493 565.918125 
L 471.66493 564.806743 
L 465.911093 564.806743 
z
" style="fill:#ff0000;opacity:0.5;"/>
   </g>
   <g id="patch_45">
    <path clip-path="url(#p43bac14f74)" d="M 471.66493 565.918125 
L 477.418767 565.918125 
L 477.418767 565.450531 
L 471.66493 565.450531 
z
" style="fill:#ff0000;opacity:0.5;"/>
   </g>
   <g id="patch_46">
    <path clip-path="url(#p43bac14f74)" d="M 477.418767 565.918125 
L 483.172604 565.918125 
L 483.172604 565.647056 
L 477.418767 565.647056 
z
" style="fill:#ff0000;opacity:0.5;"/>
   </g>
   <g id="patch_47">
    <path clip-path="url(#p43bac14f74)" d="M 483.172604 565.918125 
L 488.926441 565.918125 
L 488.926441 565.796144 
L 483.172604 565.796144 
z
" style="fill:#ff0000;opacity:0.5;"/>
   </g>
   <g id="patch_48">
    <path clip-path="url(#p43bac14f74)" d="M 488.926441 565.918125 
L 494.680278 565.918125 
L 494.680278 565.884241 
L 488.926441 565.884241 
z
" style="fill:#ff0000;opacity:0.5;"/>
   </g>
   <g id="patch_49">
    <path clip-path="url(#p43bac14f74)" d="M 494.680278 565.918125 
L 500.434115 565.918125 
L 500.434115 565.904572 
L 494.680278 565.904572 
z
" style="fill:#ff0000;opacity:0.5;"/>
   </g>
   <g id="patch_50">
    <path clip-path="url(#p43bac14f74)" d="M 500.434115 565.918125 
L 506.187953 565.918125 
L 506.187953 565.897795 
L 500.434115 565.897795 
z
" style="fill:#ff0000;opacity:0.5;"/>
   </g>
   <g id="patch_51">
    <path clip-path="url(#p43bac14f74)" d="M 506.187953 565.918125 
L 511.94179 565.918125 
L 511.94179 565.918125 
L 506.187953 565.918125 
z
" style="fill:#ff0000;opacity:0.5;"/>
   </g>
   <g id="patch_52">
    <path clip-path="url(#p43bac14f74)" d="M 511.94179 565.918125 
L 517.695627 565.918125 
L 517.695627 565.911348 
L 511.94179 565.911348 
z
" style="fill:#ff0000;opacity:0.5;"/>
   </g>
   <g id="patch_53">
    <path clip-path="url(#p43bac14f74)" d="M 57.361364 565.918125 
L 69.535909 565.918125 
L 69.535909 565.914922 
L 57.361364 565.914922 
z
" style="fill:#0000ff;opacity:0.5;"/>
   </g>
   <g id="patch_54">
    <path clip-path="url(#p43bac14f74)" d="M 69.535909 565.918125 
L 81.710455 565.918125 
L 81.710455 565.914922 
L 69.535909 565.914922 
z
" style="fill:#0000ff;opacity:0.5;"/>
   </g>
   <g id="patch_55">
    <path clip-path="url(#p43bac14f74)" d="M 81.710455 565.918125 
L 93.885 565.918125 
L 93.885 565.911719 
L 81.710455 565.911719 
z
" style="fill:#0000ff;opacity:0.5;"/>
   </g>
   <g id="patch_56">
    <path clip-path="url(#p43bac14f74)" d="M 93.885 565.918125 
L 106.059545 565.918125 
L 106.059545 565.911719 
L 93.885 565.911719 
z
" style="fill:#0000ff;opacity:0.5;"/>
   </g>
   <g id="patch_57">
    <path clip-path="url(#p43bac14f74)" d="M 106.059545 565.918125 
L 118.234091 565.918125 
L 118.234091 565.898908 
L 106.059545 565.898908 
z
" style="fill:#0000ff;opacity:0.5;"/>
   </g>
   <g id="patch_58">
    <path clip-path="url(#p43bac14f74)" d="M 118.234091 565.918125 
L 130.408636 565.918125 
L 130.408636 565.876489 
L 118.234091 565.876489 
z
" style="fill:#0000ff;opacity:0.5;"/>
   </g>
   <g id="patch_59">
    <path clip-path="url(#p43bac14f74)" d="M 130.408636 565.918125 
L 142.583182 565.918125 
L 142.583182 565.818839 
L 130.408636 565.818839 
z
" style="fill:#0000ff;opacity:0.5;"/>
   </g>
   <g id="patch_60">
    <path clip-path="url(#p43bac14f74)" d="M 142.583182 565.918125 
L 154.757727 565.918125 
L 154.757727 565.700337 
L 142.583182 565.700337 
z
" style="fill:#0000ff;opacity:0.5;"/>
   </g>
   <g id="patch_61">
    <path clip-path="url(#p43bac14f74)" d="M 154.757727 565.918125 
L 166.932273 565.918125 
L 166.932273 565.383264 
L 154.757727 565.383264 
z
" style="fill:#0000ff;opacity:0.5;"/>
   </g>
   <g id="patch_62">
    <path clip-path="url(#p43bac14f74)" d="M 166.932273 565.918125 
L 179.106818 565.918125 
L 179.106818 564.77474 
L 166.932273 564.77474 
z
" style="fill:#0000ff;opacity:0.5;"/>
   </g>
   <g id="patch_63">
    <path clip-path="url(#p43bac14f74)" d="M 179.106818 565.918125 
L 191.281364 565.918125 
L 191.281364 563.849142 
L 179.106818 563.849142 
z
" style="fill:#0000ff;opacity:0.5;"/>
   </g>
   <g id="patch_64">
    <path clip-path="url(#p43bac14f74)" d="M 191.281364 565.918125 
L 203.455909 565.918125 
L 203.455909 561.802579 
L 191.281364 561.802579 
z
" style="fill:#0000ff;opacity:0.5;"/>
   </g>
   <g id="patch_65">
    <path clip-path="url(#p43bac14f74)" d="M 203.455909 565.918125 
L 215.630455 565.918125 
L 215.630455 558.529359 
L 203.455909 558.529359 
z
" style="fill:#0000ff;opacity:0.5;"/>
   </g>
   <g id="patch_66">
    <path clip-path="url(#p43bac14f74)" d="M 215.630455 565.918125 
L 227.805 565.918125 
L 227.805 553.228792 
L 215.630455 553.228792 
z
" style="fill:#0000ff;opacity:0.5;"/>
   </g>
   <g id="patch_67">
    <path clip-path="url(#p43bac14f74)" d="M 227.805 565.918125 
L 239.979545 565.918125 
L 239.979545 545.31157 
L 227.805 545.31157 
z
" style="fill:#0000ff;opacity:0.5;"/>
   </g>
   <g id="patch_68">
    <path clip-path="url(#p43bac14f74)" d="M 239.979545 565.918125 
L 252.154091 565.918125 
L 252.154091 533.083434 
L 239.979545 533.083434 
z
" style="fill:#0000ff;opacity:0.5;"/>
   </g>
   <g id="patch_69">
    <path clip-path="url(#p43bac14f74)" d="M 252.154091 565.918125 
L 264.328636 565.918125 
L 264.328636 515.663625 
L 252.154091 515.663625 
z
" style="fill:#0000ff;opacity:0.5;"/>
   </g>
   <g id="patch_70">
    <path clip-path="url(#p43bac14f74)" d="M 264.328636 565.918125 
L 276.503182 565.918125 
L 276.503182 494.166702 
L 264.328636 494.166702 
z
" style="fill:#0000ff;opacity:0.5;"/>
   </g>
   <g id="patch_71">
    <path clip-path="url(#p43bac14f74)" d="M 276.503182 565.918125 
L 288.677727 565.918125 
L 288.677727 466.840758 
L 276.503182 466.840758 
z
" style="fill:#0000ff;opacity:0.5;"/>
   </g>
   <g id="patch_72">
    <path clip-path="url(#p43bac14f74)" d="M 288.677727 565.918125 
L 300.852273 565.918125 
L 300.852273 435.607446 
L 288.677727 435.607446 
z
" style="fill:#0000ff;opacity:0.5;"/>
   </g>
   <g id="patch_73">
    <path clip-path="url(#p43bac14f74)" d="M 300.852273 565.918125 
L 313.026818 565.918125 
L 313.026818 399.845433 
L 300.852273 399.845433 
z
" style="fill:#0000ff;opacity:0.5;"/>
   </g>
   <g id="patch_74">
    <path clip-path="url(#p43bac14f74)" d="M 313.026818 565.918125 
L 325.201364 565.918125 
L 325.201364 367.865879 
L 313.026818 367.865879 
z
" style="fill:#0000ff;opacity:0.5;"/>
   </g>
   <g id="patch_75">
    <path clip-path="url(#p43bac14f74)" d="M 325.201364 565.918125 
L 337.375909 565.918125 
L 337.375909 336.744664 
L 325.201364 336.744664 
z
" style="fill:#0000ff;opacity:0.5;"/>
   </g>
   <g id="patch_76">
    <path clip-path="url(#p43bac14f74)" d="M 337.375909 565.918125 
L 349.550455 565.918125 
L 349.550455 314.837789 
L 337.375909 314.837789 
z
" style="fill:#0000ff;opacity:0.5;"/>
   </g>
   <g id="patch_77">
    <path clip-path="url(#p43bac14f74)" d="M 349.550455 565.918125 
L 361.725 565.918125 
L 361.725 301.751313 
L 349.550455 301.751313 
z
" style="fill:#0000ff;opacity:0.5;"/>
   </g>
   <g id="patch_78">
    <path clip-path="url(#p43bac14f74)" d="M 361.725 565.918125 
L 373.899545 565.918125 
L 373.899545 298.759936 
L 361.725 298.759936 
z
" style="fill:#0000ff;opacity:0.5;"/>
   </g>
   <g id="patch_79">
    <path clip-path="url(#p43bac14f74)" d="M 373.899545 565.918125 
L 386.074091 565.918125 
L 386.074091 306.052619 
L 373.899545 306.052619 
z
" style="fill:#0000ff;opacity:0.5;"/>
   </g>
   <g id="patch_80">
    <path clip-path="url(#p43bac14f74)" d="M 386.074091 565.918125 
L 398.248636 565.918125 
L 398.248636 328.045969 
L 386.074091 328.045969 
z
" style="fill:#0000ff;opacity:0.5;"/>
   </g>
   <g id="patch_81">
    <path clip-path="url(#p43bac14f74)" d="M 398.248636 565.918125 
L 410.423182 565.918125 
L 410.423182 356.425622 
L 398.248636 356.425622 
z
" style="fill:#0000ff;opacity:0.5;"/>
   </g>
   <g id="patch_82">
    <path clip-path="url(#p43bac14f74)" d="M 410.423182 565.918125 
L 422.597727 565.918125 
L 422.597727 390.320426 
L 410.423182 390.320426 
z
" style="fill:#0000ff;opacity:0.5;"/>
   </g>
   <g id="patch_83">
    <path clip-path="url(#p43bac14f74)" d="M 422.597727 565.918125 
L 434.772273 565.918125 
L 434.772273 424.461843 
L 422.597727 424.461843 
z
" style="fill:#0000ff;opacity:0.5;"/>
   </g>
   <g id="patch_84">
    <path clip-path="url(#p43bac14f74)" d="M 434.772273 565.918125 
L 446.946818 565.918125 
L 446.946818 457.821787 
L 434.772273 457.821787 
z
" style="fill:#0000ff;opacity:0.5;"/>
   </g>
   <g id="patch_85">
    <path clip-path="url(#p43bac14f74)" d="M 446.946818 565.918125 
L 459.121364 565.918125 
L 459.121364 484.945958 
L 446.946818 484.945958 
z
" style="fill:#0000ff;opacity:0.5;"/>
   </g>
   <g id="patch_86">
    <path clip-path="url(#p43bac14f74)" d="M 459.121364 565.918125 
L 471.295909 565.918125 
L 471.295909 510.055593 
L 459.121364 510.055593 
z
" style="fill:#0000ff;opacity:0.5;"/>
   </g>
   <g id="patch_87">
    <path clip-path="url(#p43bac14f74)" d="M 471.295909 565.918125 
L 483.470455 565.918125 
L 483.470455 527.850125 
L 471.295909 527.850125 
z
" style="fill:#0000ff;opacity:0.5;"/>
   </g>
   <g id="patch_88">
    <path clip-path="url(#p43bac14f74)" d="M 483.470455 565.918125 
L 495.645 565.918125 
L 495.645 541.436231 
L 483.470455 541.436231 
z
" style="fill:#0000ff;opacity:0.5;"/>
   </g>
   <g id="patch_89">
    <path clip-path="url(#p43bac14f74)" d="M 495.645 565.918125 
L 507.819545 565.918125 
L 507.819545 550.788289 
L 495.645 550.788289 
z
" style="fill:#0000ff;opacity:0.5;"/>
   </g>
   <g id="patch_90">
    <path clip-path="url(#p43bac14f74)" d="M 507.819545 565.918125 
L 519.994091 565.918125 
L 519.994091 557.081711 
L 507.819545 557.081711 
z
" style="fill:#0000ff;opacity:0.5;"/>
   </g>
   <g id="patch_91">
    <path clip-path="url(#p43bac14f74)" d="M 519.994091 565.918125 
L 532.168636 565.918125 
L 532.168636 560.963456 
L 519.994091 560.963456 
z
" style="fill:#0000ff;opacity:0.5;"/>
   </g>
   <g id="patch_92">
    <path clip-path="url(#p43bac14f74)" d="M 532.168636 565.918125 
L 544.343182 565.918125 
L 544.343182 563.317484 
L 532.168636 563.317484 
z
" style="fill:#0000ff;opacity:0.5;"/>
   </g>
   <g id="patch_93">
    <path clip-path="url(#p43bac14f74)" d="M 544.343182 565.918125 
L 556.517727 565.918125 
L 556.517727 564.627413 
L 544.343182 564.627413 
z
" style="fill:#0000ff;opacity:0.5;"/>
   </g>
   <g id="patch_94">
    <path clip-path="url(#p43bac14f74)" d="M 556.517727 565.918125 
L 568.692273 565.918125 
L 568.692273 565.235937 
L 556.517727 565.235937 
z
" style="fill:#0000ff;opacity:0.5;"/>
   </g>
   <g id="patch_95">
    <path clip-path="url(#p43bac14f74)" d="M 568.692273 565.918125 
L 580.866818 565.918125 
L 580.866818 565.597849 
L 568.692273 565.597849 
z
" style="fill:#0000ff;opacity:0.5;"/>
   </g>
   <g id="patch_96">
    <path clip-path="url(#p43bac14f74)" d="M 580.866818 565.918125 
L 593.041364 565.918125 
L 593.041364 565.79642 
L 580.866818 565.79642 
z
" style="fill:#0000ff;opacity:0.5;"/>
   </g>
   <g id="patch_97">
    <path clip-path="url(#p43bac14f74)" d="M 593.041364 565.918125 
L 605.215909 565.918125 
L 605.215909 565.873286 
L 593.041364 565.873286 
z
" style="fill:#0000ff;opacity:0.5;"/>
   </g>
   <g id="patch_98">
    <path clip-path="url(#p43bac14f74)" d="M 605.215909 565.918125 
L 617.390455 565.918125 
L 617.390455 565.895706 
L 605.215909 565.895706 
z
" style="fill:#0000ff;opacity:0.5;"/>
   </g>
   <g id="patch_99">
    <path clip-path="url(#p43bac14f74)" d="M 617.390455 565.918125 
L 629.565 565.918125 
L 629.565 565.895706 
L 617.390455 565.895706 
z
" style="fill:#0000ff;opacity:0.5;"/>
   </g>
   <g id="patch_100">
    <path clip-path="url(#p43bac14f74)" d="M 629.565 565.918125 
L 641.739545 565.918125 
L 641.739545 565.911719 
L 629.565 565.911719 
z
" style="fill:#0000ff;opacity:0.5;"/>
   </g>
   <g id="patch_101">
    <path clip-path="url(#p43bac14f74)" d="M 641.739545 565.918125 
L 653.914091 565.918125 
L 653.914091 565.918125 
L 641.739545 565.918125 
z
" style="fill:#0000ff;opacity:0.5;"/>
   </g>
   <g id="patch_102">
    <path clip-path="url(#p43bac14f74)" d="M 653.914091 565.918125 
L 666.088636 565.918125 
L 666.088636 565.914922 
L 653.914091 565.914922 
z
" style="fill:#0000ff;opacity:0.5;"/>
   </g>
   <g id="matplotlib.axis_1">
    <g id="xtick_1">
     <g id="line2d_1">
      <defs>
       <path d="M 0 0 
L 0 3.5 
" id="m1275331569" style="stroke:#000000;stroke-width:0.8;"/>
      </defs>
      <g>
       <use style="stroke:#000000;stroke-width:0.8;" x="87.243821" xlink:href="#m1275331569" y="565.918125"/>
      </g>
     </g>
     <g id="text_1">
      <!-- −0.15 -->
      <defs>
       <path d="M 10.59375 35.5 
L 73.1875 35.5 
L 73.1875 27.203125 
L 10.59375 27.203125 
z
" id="DejaVuSans-8722"/>
       <path d="M 31.78125 66.40625 
Q 24.171875 66.40625 20.328125 58.90625 
Q 16.5 51.421875 16.5 36.375 
Q 16.5 21.390625 20.328125 13.890625 
Q 24.171875 6.390625 31.78125 6.390625 
Q 39.453125 6.390625 43.28125 13.890625 
Q 47.125 21.390625 47.125 36.375 
Q 47.125 51.421875 43.28125 58.90625 
Q 39.453125 66.40625 31.78125 66.40625 
z
M 31.78125 74.21875 
Q 44.046875 74.21875 50.515625 64.515625 
Q 56.984375 54.828125 56.984375 36.375 
Q 56.984375 17.96875 50.515625 8.265625 
Q 44.046875 -1.421875 31.78125 -1.421875 
Q 19.53125 -1.421875 13.0625 8.265625 
Q 6.59375 17.96875 6.59375 36.375 
Q 6.59375 54.828125 13.0625 64.515625 
Q 19.53125 74.21875 31.78125 74.21875 
z
" id="DejaVuSans-48"/>
       <path d="M 10.6875 12.40625 
L 21 12.40625 
L 21 0 
L 10.6875 0 
z
" id="DejaVuSans-46"/>
       <path d="M 12.40625 8.296875 
L 28.515625 8.296875 
L 28.515625 63.921875 
L 10.984375 60.40625 
L 10.984375 69.390625 
L 28.421875 72.90625 
L 38.28125 72.90625 
L 38.28125 8.296875 
L 54.390625 8.296875 
L 54.390625 0 
L 12.40625 0 
z
" id="DejaVuSans-49"/>
       <path d="M 10.796875 72.90625 
L 49.515625 72.90625 
L 49.515625 64.59375 
L 19.828125 64.59375 
L 19.828125 46.734375 
Q 21.96875 47.46875 24.109375 47.828125 
Q 26.265625 48.1875 28.421875 48.1875 
Q 40.625 48.1875 47.75 41.5 
Q 54.890625 34.8125 54.890625 23.390625 
Q 54.890625 11.625 47.5625 5.09375 
Q 40.234375 -1.421875 26.90625 -1.421875 
Q 22.3125 -1.421875 17.546875 -0.640625 
Q 12.796875 0.140625 7.71875 1.703125 
L 7.71875 11.625 
Q 12.109375 9.234375 16.796875 8.0625 
Q 21.484375 6.890625 26.703125 6.890625 
Q 35.15625 6.890625 40.078125 11.328125 
Q 45.015625 15.765625 45.015625 23.390625 
Q 45.015625 31 40.078125 35.4375 
Q 35.15625 39.890625 26.703125 39.890625 
Q 22.75 39.890625 18.8125 39.015625 
Q 14.890625 38.140625 10.796875 36.28125 
z
" id="DejaVuSans-53"/>
      </defs>
      <g transform="translate(71.921165 580.516562)scale(0.1 -0.1)">
       <use xlink:href="#DejaVuSans-8722"/>
       <use x="83.789062" xlink:href="#DejaVuSans-48"/>
       <use x="147.412109" xlink:href="#DejaVuSans-46"/>
       <use x="179.199219" xlink:href="#DejaVuSans-49"/>
       <use x="242.822266" xlink:href="#DejaVuSans-53"/>
      </g>
     </g>
    </g>
    <g id="xtick_2">
     <g id="line2d_2">
      <g>
       <use style="stroke:#000000;stroke-width:0.8;" x="179.383702" xlink:href="#m1275331569" y="565.918125"/>
      </g>
     </g>
     <g id="text_2">
      <!-- −0.10 -->
      <g transform="translate(164.061045 580.516562)scale(0.1 -0.1)">
       <use xlink:href="#DejaVuSans-8722"/>
       <use x="83.789062" xlink:href="#DejaVuSans-48"/>
       <use x="147.412109" xlink:href="#DejaVuSans-46"/>
       <use x="179.199219" xlink:href="#DejaVuSans-49"/>
       <use x="242.822266" xlink:href="#DejaVuSans-48"/>
      </g>
     </g>
    </g>
    <g id="xtick_3">
     <g id="line2d_3">
      <g>
       <use style="stroke:#000000;stroke-width:0.8;" x="271.523582" xlink:href="#m1275331569" y="565.918125"/>
      </g>
     </g>
     <g id="text_3">
      <!-- −0.05 -->
      <g transform="translate(256.200926 580.516562)scale(0.1 -0.1)">
       <use xlink:href="#DejaVuSans-8722"/>
       <use x="83.789062" xlink:href="#DejaVuSans-48"/>
       <use x="147.412109" xlink:href="#DejaVuSans-46"/>
       <use x="179.199219" xlink:href="#DejaVuSans-48"/>
       <use x="242.822266" xlink:href="#DejaVuSans-53"/>
      </g>
     </g>
    </g>
    <g id="xtick_4">
     <g id="line2d_4">
      <g>
       <use style="stroke:#000000;stroke-width:0.8;" x="363.663463" xlink:href="#m1275331569" y="565.918125"/>
      </g>
     </g>
     <g id="text_4">
      <!-- 0.00 -->
      <g transform="translate(352.530651 580.516562)scale(0.1 -0.1)">
       <use xlink:href="#DejaVuSans-48"/>
       <use x="63.623047" xlink:href="#DejaVuSans-46"/>
       <use x="95.410156" xlink:href="#DejaVuSans-48"/>
       <use x="159.033203" xlink:href="#DejaVuSans-48"/>
      </g>
     </g>
    </g>
    <g id="xtick_5">
     <g id="line2d_5">
      <g>
       <use style="stroke:#000000;stroke-width:0.8;" x="455.803344" xlink:href="#m1275331569" y="565.918125"/>
      </g>
     </g>
     <g id="text_5">
      <!-- 0.05 -->
      <g transform="translate(444.670531 580.516562)scale(0.1 -0.1)">
       <use xlink:href="#DejaVuSans-48"/>
       <use x="63.623047" xlink:href="#DejaVuSans-46"/>
       <use x="95.410156" xlink:href="#DejaVuSans-48"/>
       <use x="159.033203" xlink:href="#DejaVuSans-53"/>
      </g>
     </g>
    </g>
    <g id="xtick_6">
     <g id="line2d_6">
      <g>
       <use style="stroke:#000000;stroke-width:0.8;" x="547.943225" xlink:href="#m1275331569" y="565.918125"/>
      </g>
     </g>
     <g id="text_6">
      <!-- 0.10 -->
      <g transform="translate(536.810412 580.516562)scale(0.1 -0.1)">
       <use xlink:href="#DejaVuSans-48"/>
       <use x="63.623047" xlink:href="#DejaVuSans-46"/>
       <use x="95.410156" xlink:href="#DejaVuSans-49"/>
       <use x="159.033203" xlink:href="#DejaVuSans-48"/>
      </g>
     </g>
    </g>
    <g id="xtick_7">
     <g id="line2d_7">
      <g>
       <use style="stroke:#000000;stroke-width:0.8;" x="640.083105" xlink:href="#m1275331569" y="565.918125"/>
      </g>
     </g>
     <g id="text_7">
      <!-- 0.15 -->
      <g transform="translate(628.950293 580.516562)scale(0.1 -0.1)">
       <use xlink:href="#DejaVuSans-48"/>
       <use x="63.623047" xlink:href="#DejaVuSans-46"/>
       <use x="95.410156" xlink:href="#DejaVuSans-49"/>
       <use x="159.033203" xlink:href="#DejaVuSans-53"/>
      </g>
     </g>
    </g>
   </g>
   <g id="matplotlib.axis_2">
    <g id="ytick_1">
     <g id="line2d_8">
      <defs>
       <path d="M 0 0 
L -3.5 0 
" id="m29f484dd6a" style="stroke:#000000;stroke-width:0.8;"/>
      </defs>
      <g>
       <use style="stroke:#000000;stroke-width:0.8;" x="26.925" xlink:href="#m29f484dd6a" y="565.918125"/>
      </g>
     </g>
     <g id="text_8">
      <!-- 0 -->
      <g transform="translate(13.5625 569.717344)scale(0.1 -0.1)">
       <use xlink:href="#DejaVuSans-48"/>
      </g>
     </g>
    </g>
    <g id="ytick_2">
     <g id="line2d_9">
      <g>
       <use style="stroke:#000000;stroke-width:0.8;" x="26.925" xlink:href="#m29f484dd6a" y="461.049694"/>
      </g>
     </g>
     <g id="text_9">
      <!-- 5 -->
      <g transform="translate(13.5625 464.848913)scale(0.1 -0.1)">
       <use xlink:href="#DejaVuSans-53"/>
      </g>
     </g>
    </g>
    <g id="ytick_3">
     <g id="line2d_10">
      <g>
       <use style="stroke:#000000;stroke-width:0.8;" x="26.925" xlink:href="#m29f484dd6a" y="356.181263"/>
      </g>
     </g>
     <g id="text_10">
      <!-- 10 -->
      <g transform="translate(7.2 359.980482)scale(0.1 -0.1)">
       <use xlink:href="#DejaVuSans-49"/>
       <use x="63.623047" xlink:href="#DejaVuSans-48"/>
      </g>
     </g>
    </g>
    <g id="ytick_4">
     <g id="line2d_11">
      <g>
       <use style="stroke:#000000;stroke-width:0.8;" x="26.925" xlink:href="#m29f484dd6a" y="251.312832"/>
      </g>
     </g>
     <g id="text_11">
      <!-- 15 -->
      <g transform="translate(7.2 255.112051)scale(0.1 -0.1)">
       <use xlink:href="#DejaVuSans-49"/>
       <use x="63.623047" xlink:href="#DejaVuSans-53"/>
      </g>
     </g>
    </g>
    <g id="ytick_5">
     <g id="line2d_12">
      <g>
       <use style="stroke:#000000;stroke-width:0.8;" x="26.925" xlink:href="#m29f484dd6a" y="146.444402"/>
      </g>
     </g>
     <g id="text_12">
      <!-- 20 -->
      <defs>
       <path d="M 19.1875 8.296875 
L 53.609375 8.296875 
L 53.609375 0 
L 7.328125 0 
L 7.328125 8.296875 
Q 12.9375 14.109375 22.625 23.890625 
Q 32.328125 33.6875 34.8125 36.53125 
Q 39.546875 41.84375 41.421875 45.53125 
Q 43.3125 49.21875 43.3125 52.78125 
Q 43.3125 58.59375 39.234375 62.25 
Q 35.15625 65.921875 28.609375 65.921875 
Q 23.96875 65.921875 18.8125 64.3125 
Q 13.671875 62.703125 7.8125 59.421875 
L 7.8125 69.390625 
Q 13.765625 71.78125 18.9375 73 
Q 24.125 74.21875 28.421875 74.21875 
Q 39.75 74.21875 46.484375 68.546875 
Q 53.21875 62.890625 53.21875 53.421875 
Q 53.21875 48.921875 51.53125 44.890625 
Q 49.859375 40.875 45.40625 35.40625 
Q 44.1875 33.984375 37.640625 27.21875 
Q 31.109375 20.453125 19.1875 8.296875 
z
" id="DejaVuSans-50"/>
      </defs>
      <g transform="translate(7.2 150.24362)scale(0.1 -0.1)">
       <use xlink:href="#DejaVuSans-50"/>
       <use x="63.623047" xlink:href="#DejaVuSans-48"/>
      </g>
     </g>
    </g>
    <g id="ytick_6">
     <g id="line2d_13">
      <g>
       <use style="stroke:#000000;stroke-width:0.8;" x="26.925" xlink:href="#m29f484dd6a" y="41.575971"/>
      </g>
     </g>
     <g id="text_13">
      <!-- 25 -->
      <g transform="translate(7.2 45.375189)scale(0.1 -0.1)">
       <use xlink:href="#DejaVuSans-50"/>
       <use x="63.623047" xlink:href="#DejaVuSans-53"/>
      </g>
     </g>
    </g>
   </g>
   <g id="patch_103">
    <path d="M 26.925 565.918125 
L 26.925 22.318125 
" style="fill:none;stroke:#000000;stroke-linecap:square;stroke-linejoin:miter;stroke-width:0.8;"/>
   </g>
   <g id="patch_104">
    <path d="M 696.525 565.918125 
L 696.525 22.318125 
" style="fill:none;stroke:#000000;stroke-linecap:square;stroke-linejoin:miter;stroke-width:0.8;"/>
   </g>
   <g id="patch_105">
    <path d="M 26.925 565.918125 
L 696.525 565.918125 
" style="fill:none;stroke:#000000;stroke-linecap:square;stroke-linejoin:miter;stroke-width:0.8;"/>
   </g>
   <g id="patch_106">
    <path d="M 26.925 22.318125 
L 696.525 22.318125 
" style="fill:none;stroke:#000000;stroke-linecap:square;stroke-linejoin:miter;stroke-width:0.8;"/>
   </g>
   <g id="text_14">
    <!-- Initial and final distributions for weights dense1 -->
    <defs>
     <path d="M 9.8125 72.90625 
L 19.671875 72.90625 
L 19.671875 0 
L 9.8125 0 
z
" id="DejaVuSans-73"/>
     <path d="M 54.890625 33.015625 
L 54.890625 0 
L 45.90625 0 
L 45.90625 32.71875 
Q 45.90625 40.484375 42.875 44.328125 
Q 39.84375 48.1875 33.796875 48.1875 
Q 26.515625 48.1875 22.3125 43.546875 
Q 18.109375 38.921875 18.109375 30.90625 
L 18.109375 0 
L 9.078125 0 
L 9.078125 54.6875 
L 18.109375 54.6875 
L 18.109375 46.1875 
Q 21.34375 51.125 25.703125 53.5625 
Q 30.078125 56 35.796875 56 
Q 45.21875 56 50.046875 50.171875 
Q 54.890625 44.34375 54.890625 33.015625 
z
" id="DejaVuSans-110"/>
     <path d="M 9.421875 54.6875 
L 18.40625 54.6875 
L 18.40625 0 
L 9.421875 0 
z
M 9.421875 75.984375 
L 18.40625 75.984375 
L 18.40625 64.59375 
L 9.421875 64.59375 
z
" id="DejaVuSans-105"/>
     <path d="M 18.3125 70.21875 
L 18.3125 54.6875 
L 36.8125 54.6875 
L 36.8125 47.703125 
L 18.3125 47.703125 
L 18.3125 18.015625 
Q 18.3125 11.328125 20.140625 9.421875 
Q 21.96875 7.515625 27.59375 7.515625 
L 36.8125 7.515625 
L 36.8125 0 
L 27.59375 0 
Q 17.1875 0 13.234375 3.875 
Q 9.28125 7.765625 9.28125 18.015625 
L 9.28125 47.703125 
L 2.6875 47.703125 
L 2.6875 54.6875 
L 9.28125 54.6875 
L 9.28125 70.21875 
z
" id="DejaVuSans-116"/>
     <path d="M 34.28125 27.484375 
Q 23.390625 27.484375 19.1875 25 
Q 14.984375 22.515625 14.984375 16.5 
Q 14.984375 11.71875 18.140625 8.90625 
Q 21.296875 6.109375 26.703125 6.109375 
Q 34.1875 6.109375 38.703125 11.40625 
Q 43.21875 16.703125 43.21875 25.484375 
L 43.21875 27.484375 
z
M 52.203125 31.203125 
L 52.203125 0 
L 43.21875 0 
L 43.21875 8.296875 
Q 40.140625 3.328125 35.546875 0.953125 
Q 30.953125 -1.421875 24.3125 -1.421875 
Q 15.921875 -1.421875 10.953125 3.296875 
Q 6 8.015625 6 15.921875 
Q 6 25.140625 12.171875 29.828125 
Q 18.359375 34.515625 30.609375 34.515625 
L 43.21875 34.515625 
L 43.21875 35.40625 
Q 43.21875 41.609375 39.140625 45 
Q 35.0625 48.390625 27.6875 48.390625 
Q 23 48.390625 18.546875 47.265625 
Q 14.109375 46.140625 10.015625 43.890625 
L 10.015625 52.203125 
Q 14.9375 54.109375 19.578125 55.046875 
Q 24.21875 56 28.609375 56 
Q 40.484375 56 46.34375 49.84375 
Q 52.203125 43.703125 52.203125 31.203125 
z
" id="DejaVuSans-97"/>
     <path d="M 9.421875 75.984375 
L 18.40625 75.984375 
L 18.40625 0 
L 9.421875 0 
z
" id="DejaVuSans-108"/>
     <path id="DejaVuSans-32"/>
     <path d="M 45.40625 46.390625 
L 45.40625 75.984375 
L 54.390625 75.984375 
L 54.390625 0 
L 45.40625 0 
L 45.40625 8.203125 
Q 42.578125 3.328125 38.25 0.953125 
Q 33.9375 -1.421875 27.875 -1.421875 
Q 17.96875 -1.421875 11.734375 6.484375 
Q 5.515625 14.40625 5.515625 27.296875 
Q 5.515625 40.1875 11.734375 48.09375 
Q 17.96875 56 27.875 56 
Q 33.9375 56 38.25 53.625 
Q 42.578125 51.265625 45.40625 46.390625 
z
M 14.796875 27.296875 
Q 14.796875 17.390625 18.875 11.75 
Q 22.953125 6.109375 30.078125 6.109375 
Q 37.203125 6.109375 41.296875 11.75 
Q 45.40625 17.390625 45.40625 27.296875 
Q 45.40625 37.203125 41.296875 42.84375 
Q 37.203125 48.484375 30.078125 48.484375 
Q 22.953125 48.484375 18.875 42.84375 
Q 14.796875 37.203125 14.796875 27.296875 
z
" id="DejaVuSans-100"/>
     <path d="M 37.109375 75.984375 
L 37.109375 68.5 
L 28.515625 68.5 
Q 23.6875 68.5 21.796875 66.546875 
Q 19.921875 64.59375 19.921875 59.515625 
L 19.921875 54.6875 
L 34.71875 54.6875 
L 34.71875 47.703125 
L 19.921875 47.703125 
L 19.921875 0 
L 10.890625 0 
L 10.890625 47.703125 
L 2.296875 47.703125 
L 2.296875 54.6875 
L 10.890625 54.6875 
L 10.890625 58.5 
Q 10.890625 67.625 15.140625 71.796875 
Q 19.390625 75.984375 28.609375 75.984375 
z
" id="DejaVuSans-102"/>
     <path d="M 44.28125 53.078125 
L 44.28125 44.578125 
Q 40.484375 46.53125 36.375 47.5 
Q 32.28125 48.484375 27.875 48.484375 
Q 21.1875 48.484375 17.84375 46.4375 
Q 14.5 44.390625 14.5 40.28125 
Q 14.5 37.15625 16.890625 35.375 
Q 19.28125 33.59375 26.515625 31.984375 
L 29.59375 31.296875 
Q 39.15625 29.25 43.1875 25.515625 
Q 47.21875 21.78125 47.21875 15.09375 
Q 47.21875 7.46875 41.1875 3.015625 
Q 35.15625 -1.421875 24.609375 -1.421875 
Q 20.21875 -1.421875 15.453125 -0.5625 
Q 10.6875 0.296875 5.421875 2 
L 5.421875 11.28125 
Q 10.40625 8.6875 15.234375 7.390625 
Q 20.0625 6.109375 24.8125 6.109375 
Q 31.15625 6.109375 34.5625 8.28125 
Q 37.984375 10.453125 37.984375 14.40625 
Q 37.984375 18.0625 35.515625 20.015625 
Q 33.0625 21.96875 24.703125 23.78125 
L 21.578125 24.515625 
Q 13.234375 26.265625 9.515625 29.90625 
Q 5.8125 33.546875 5.8125 39.890625 
Q 5.8125 47.609375 11.28125 51.796875 
Q 16.75 56 26.8125 56 
Q 31.78125 56 36.171875 55.265625 
Q 40.578125 54.546875 44.28125 53.078125 
z
" id="DejaVuSans-115"/>
     <path d="M 41.109375 46.296875 
Q 39.59375 47.171875 37.8125 47.578125 
Q 36.03125 48 33.890625 48 
Q 26.265625 48 22.1875 43.046875 
Q 18.109375 38.09375 18.109375 28.8125 
L 18.109375 0 
L 9.078125 0 
L 9.078125 54.6875 
L 18.109375 54.6875 
L 18.109375 46.1875 
Q 20.953125 51.171875 25.484375 53.578125 
Q 30.03125 56 36.53125 56 
Q 37.453125 56 38.578125 55.875 
Q 39.703125 55.765625 41.0625 55.515625 
z
" id="DejaVuSans-114"/>
     <path d="M 48.6875 27.296875 
Q 48.6875 37.203125 44.609375 42.84375 
Q 40.53125 48.484375 33.40625 48.484375 
Q 26.265625 48.484375 22.1875 42.84375 
Q 18.109375 37.203125 18.109375 27.296875 
Q 18.109375 17.390625 22.1875 11.75 
Q 26.265625 6.109375 33.40625 6.109375 
Q 40.53125 6.109375 44.609375 11.75 
Q 48.6875 17.390625 48.6875 27.296875 
z
M 18.109375 46.390625 
Q 20.953125 51.265625 25.265625 53.625 
Q 29.59375 56 35.59375 56 
Q 45.5625 56 51.78125 48.09375 
Q 58.015625 40.1875 58.015625 27.296875 
Q 58.015625 14.40625 51.78125 6.484375 
Q 45.5625 -1.421875 35.59375 -1.421875 
Q 29.59375 -1.421875 25.265625 0.953125 
Q 20.953125 3.328125 18.109375 8.203125 
L 18.109375 0 
L 9.078125 0 
L 9.078125 75.984375 
L 18.109375 75.984375 
z
" id="DejaVuSans-98"/>
     <path d="M 8.5 21.578125 
L 8.5 54.6875 
L 17.484375 54.6875 
L 17.484375 21.921875 
Q 17.484375 14.15625 20.5 10.265625 
Q 23.53125 6.390625 29.59375 6.390625 
Q 36.859375 6.390625 41.078125 11.03125 
Q 45.3125 15.671875 45.3125 23.6875 
L 45.3125 54.6875 
L 54.296875 54.6875 
L 54.296875 0 
L 45.3125 0 
L 45.3125 8.40625 
Q 42.046875 3.421875 37.71875 1 
Q 33.40625 -1.421875 27.6875 -1.421875 
Q 18.265625 -1.421875 13.375 4.4375 
Q 8.5 10.296875 8.5 21.578125 
z
M 31.109375 56 
z
" id="DejaVuSans-117"/>
     <path d="M 30.609375 48.390625 
Q 23.390625 48.390625 19.1875 42.75 
Q 14.984375 37.109375 14.984375 27.296875 
Q 14.984375 17.484375 19.15625 11.84375 
Q 23.34375 6.203125 30.609375 6.203125 
Q 37.796875 6.203125 41.984375 11.859375 
Q 46.1875 17.53125 46.1875 27.296875 
Q 46.1875 37.015625 41.984375 42.703125 
Q 37.796875 48.390625 30.609375 48.390625 
z
M 30.609375 56 
Q 42.328125 56 49.015625 48.375 
Q 55.71875 40.765625 55.71875 27.296875 
Q 55.71875 13.875 49.015625 6.21875 
Q 42.328125 -1.421875 30.609375 -1.421875 
Q 18.84375 -1.421875 12.171875 6.21875 
Q 5.515625 13.875 5.515625 27.296875 
Q 5.515625 40.765625 12.171875 48.375 
Q 18.84375 56 30.609375 56 
z
" id="DejaVuSans-111"/>
     <path d="M 4.203125 54.6875 
L 13.1875 54.6875 
L 24.421875 12.015625 
L 35.59375 54.6875 
L 46.1875 54.6875 
L 57.421875 12.015625 
L 68.609375 54.6875 
L 77.59375 54.6875 
L 63.28125 0 
L 52.6875 0 
L 40.921875 44.828125 
L 29.109375 0 
L 18.5 0 
z
" id="DejaVuSans-119"/>
     <path d="M 56.203125 29.59375 
L 56.203125 25.203125 
L 14.890625 25.203125 
Q 15.484375 15.921875 20.484375 11.0625 
Q 25.484375 6.203125 34.421875 6.203125 
Q 39.59375 6.203125 44.453125 7.46875 
Q 49.3125 8.734375 54.109375 11.28125 
L 54.109375 2.78125 
Q 49.265625 0.734375 44.1875 -0.34375 
Q 39.109375 -1.421875 33.890625 -1.421875 
Q 20.796875 -1.421875 13.15625 6.1875 
Q 5.515625 13.8125 5.515625 26.8125 
Q 5.515625 40.234375 12.765625 48.109375 
Q 20.015625 56 32.328125 56 
Q 43.359375 56 49.78125 48.890625 
Q 56.203125 41.796875 56.203125 29.59375 
z
M 47.21875 32.234375 
Q 47.125 39.59375 43.09375 43.984375 
Q 39.0625 48.390625 32.421875 48.390625 
Q 24.90625 48.390625 20.390625 44.140625 
Q 15.875 39.890625 15.1875 32.171875 
z
" id="DejaVuSans-101"/>
     <path d="M 45.40625 27.984375 
Q 45.40625 37.75 41.375 43.109375 
Q 37.359375 48.484375 30.078125 48.484375 
Q 22.859375 48.484375 18.828125 43.109375 
Q 14.796875 37.75 14.796875 27.984375 
Q 14.796875 18.265625 18.828125 12.890625 
Q 22.859375 7.515625 30.078125 7.515625 
Q 37.359375 7.515625 41.375 12.890625 
Q 45.40625 18.265625 45.40625 27.984375 
z
M 54.390625 6.78125 
Q 54.390625 -7.171875 48.1875 -13.984375 
Q 42 -20.796875 29.203125 -20.796875 
Q 24.46875 -20.796875 20.265625 -20.09375 
Q 16.0625 -19.390625 12.109375 -17.921875 
L 12.109375 -9.1875 
Q 16.0625 -11.328125 19.921875 -12.34375 
Q 23.78125 -13.375 27.78125 -13.375 
Q 36.625 -13.375 41.015625 -8.765625 
Q 45.40625 -4.15625 45.40625 5.171875 
L 45.40625 9.625 
Q 42.625 4.78125 38.28125 2.390625 
Q 33.9375 0 27.875 0 
Q 17.828125 0 11.671875 7.65625 
Q 5.515625 15.328125 5.515625 27.984375 
Q 5.515625 40.671875 11.671875 48.328125 
Q 17.828125 56 27.875 56 
Q 33.9375 56 38.28125 53.609375 
Q 42.625 51.21875 45.40625 46.390625 
L 45.40625 54.6875 
L 54.390625 54.6875 
z
" id="DejaVuSans-103"/>
     <path d="M 54.890625 33.015625 
L 54.890625 0 
L 45.90625 0 
L 45.90625 32.71875 
Q 45.90625 40.484375 42.875 44.328125 
Q 39.84375 48.1875 33.796875 48.1875 
Q 26.515625 48.1875 22.3125 43.546875 
Q 18.109375 38.921875 18.109375 30.90625 
L 18.109375 0 
L 9.078125 0 
L 9.078125 75.984375 
L 18.109375 75.984375 
L 18.109375 46.1875 
Q 21.34375 51.125 25.703125 53.5625 
Q 30.078125 56 35.796875 56 
Q 45.21875 56 50.046875 50.171875 
Q 54.890625 44.34375 54.890625 33.015625 
z
" id="DejaVuSans-104"/>
    </defs>
    <g transform="translate(218.607188 16.318125)scale(0.12 -0.12)">
     <use xlink:href="#DejaVuSans-73"/>
     <use x="29.492188" xlink:href="#DejaVuSans-110"/>
     <use x="92.871094" xlink:href="#DejaVuSans-105"/>
     <use x="120.654297" xlink:href="#DejaVuSans-116"/>
     <use x="159.863281" xlink:href="#DejaVuSans-105"/>
     <use x="187.646484" xlink:href="#DejaVuSans-97"/>
     <use x="248.925781" xlink:href="#DejaVuSans-108"/>
     <use x="276.708984" xlink:href="#DejaVuSans-32"/>
     <use x="308.496094" xlink:href="#DejaVuSans-97"/>
     <use x="369.775391" xlink:href="#DejaVuSans-110"/>
     <use x="433.154297" xlink:href="#DejaVuSans-100"/>
     <use x="496.630859" xlink:href="#DejaVuSans-32"/>
     <use x="528.417969" xlink:href="#DejaVuSans-102"/>
     <use x="563.623047" xlink:href="#DejaVuSans-105"/>
     <use x="591.40625" xlink:href="#DejaVuSans-110"/>
     <use x="654.785156" xlink:href="#DejaVuSans-97"/>
     <use x="716.064453" xlink:href="#DejaVuSans-108"/>
     <use x="743.847656" xlink:href="#DejaVuSans-32"/>
     <use x="775.634766" xlink:href="#DejaVuSans-100"/>
     <use x="839.111328" xlink:href="#DejaVuSans-105"/>
     <use x="866.894531" xlink:href="#DejaVuSans-115"/>
     <use x="918.994141" xlink:href="#DejaVuSans-116"/>
     <use x="958.203125" xlink:href="#DejaVuSans-114"/>
     <use x="999.316406" xlink:href="#DejaVuSans-105"/>
     <use x="1027.099609" xlink:href="#DejaVuSans-98"/>
     <use x="1090.576172" xlink:href="#DejaVuSans-117"/>
     <use x="1153.955078" xlink:href="#DejaVuSans-116"/>
     <use x="1193.164062" xlink:href="#DejaVuSans-105"/>
     <use x="1220.947266" xlink:href="#DejaVuSans-111"/>
     <use x="1282.128906" xlink:href="#DejaVuSans-110"/>
     <use x="1345.507812" xlink:href="#DejaVuSans-115"/>
     <use x="1397.607422" xlink:href="#DejaVuSans-32"/>
     <use x="1429.394531" xlink:href="#DejaVuSans-102"/>
     <use x="1464.599609" xlink:href="#DejaVuSans-111"/>
     <use x="1525.78125" xlink:href="#DejaVuSans-114"/>
     <use x="1566.894531" xlink:href="#DejaVuSans-32"/>
     <use x="1598.681641" xlink:href="#DejaVuSans-119"/>
     <use x="1680.46875" xlink:href="#DejaVuSans-101"/>
     <use x="1741.992188" xlink:href="#DejaVuSans-105"/>
     <use x="1769.775391" xlink:href="#DejaVuSans-103"/>
     <use x="1833.251953" xlink:href="#DejaVuSans-104"/>
     <use x="1896.630859" xlink:href="#DejaVuSans-116"/>
     <use x="1935.839844" xlink:href="#DejaVuSans-115"/>
     <use x="1987.939453" xlink:href="#DejaVuSans-32"/>
     <use x="2019.726562" xlink:href="#DejaVuSans-100"/>
     <use x="2083.203125" xlink:href="#DejaVuSans-101"/>
     <use x="2144.726562" xlink:href="#DejaVuSans-110"/>
     <use x="2208.105469" xlink:href="#DejaVuSans-115"/>
     <use x="2260.205078" xlink:href="#DejaVuSans-101"/>
     <use x="2321.728516" xlink:href="#DejaVuSans-49"/>
    </g>
   </g>
   <g id="legend_1">
    <g id="patch_107">
     <path d="M 629.854688 59.674375 
L 689.525 59.674375 
Q 691.525 59.674375 691.525 57.674375 
L 691.525 29.318125 
Q 691.525 27.318125 689.525 27.318125 
L 629.854688 27.318125 
Q 627.854688 27.318125 627.854688 29.318125 
L 627.854688 57.674375 
Q 627.854688 59.674375 629.854688 59.674375 
z
" style="fill:#ffffff;opacity:0.8;stroke:#cccccc;stroke-linejoin:miter;"/>
    </g>
    <g id="patch_108">
     <path d="M 631.854688 38.916562 
L 651.854688 38.916562 
L 651.854688 31.916562 
L 631.854688 31.916562 
z
" style="fill:#ff0000;opacity:0.5;"/>
    </g>
    <g id="text_15">
     <!-- Initial -->
     <g transform="translate(659.854688 38.916562)scale(0.1 -0.1)">
      <use xlink:href="#DejaVuSans-73"/>
      <use x="29.492188" xlink:href="#DejaVuSans-110"/>
      <use x="92.871094" xlink:href="#DejaVuSans-105"/>
      <use x="120.654297" xlink:href="#DejaVuSans-116"/>
      <use x="159.863281" xlink:href="#DejaVuSans-105"/>
      <use x="187.646484" xlink:href="#DejaVuSans-97"/>
      <use x="248.925781" xlink:href="#DejaVuSans-108"/>
     </g>
    </g>
    <g id="patch_109">
     <path d="M 631.854688 53.594687 
L 651.854688 53.594687 
L 651.854688 46.594687 
L 631.854688 46.594687 
z
" style="fill:#0000ff;opacity:0.5;"/>
    </g>
    <g id="text_16">
     <!-- Final -->
     <defs>
      <path d="M 9.8125 72.90625 
L 51.703125 72.90625 
L 51.703125 64.59375 
L 19.671875 64.59375 
L 19.671875 43.109375 
L 48.578125 43.109375 
L 48.578125 34.8125 
L 19.671875 34.8125 
L 19.671875 0 
L 9.8125 0 
z
" id="DejaVuSans-70"/>
     </defs>
     <g transform="translate(659.854688 53.594687)scale(0.1 -0.1)">
      <use xlink:href="#DejaVuSans-70"/>
      <use x="57.410156" xlink:href="#DejaVuSans-105"/>
      <use x="85.193359" xlink:href="#DejaVuSans-110"/>
      <use x="148.572266" xlink:href="#DejaVuSans-97"/>
      <use x="209.851562" xlink:href="#DejaVuSans-108"/>
     </g>
    </g>
   </g>
  </g>
 </g>
 <defs>
  <clipPath id="p43bac14f74">
   <rect height="543.6" width="669.6" x="26.925" y="22.318125"/>
  </clipPath>
 </defs>
</svg>
