<?xml version="1.0" encoding="utf-8" standalone="no"?>
<!DOCTYPE svg PUBLIC "-//W3C//DTD SVG 1.1//EN"
  "http://www.w3.org/Graphics/SVG/1.1/DTD/svg11.dtd">
<!-- Created with matplotlib (https://matplotlib.org/) -->
<svg height="720pt" version="1.1" viewBox="0 0 864 720" width="864pt" xmlns="http://www.w3.org/2000/svg" xmlns:xlink="http://www.w3.org/1999/xlink">
 <defs>
  <style type="text/css">
*{stroke-linecap:butt;stroke-linejoin:round;white-space:pre;}
  </style>
 </defs>
 <g id="figure_1">
  <g id="patch_1">
   <path d="M 0 720 
L 864 720 
L 864 0 
L 0 0 
z
" style="fill:#ffffff;"/>
  </g>
  <g id="axes_1">
   <g id="patch_2">
    <path d="M 108 630 
L 777.6 630 
L 777.6 86.4 
L 108 86.4 
z
" style="fill:#ffffff;"/>
   </g>
   <g id="patch_3">
    <path clip-path="url(#p21c95bd2b0)" d="M 511.02997 630 
L 511.227975 630 
L 511.227975 572.47619 
L 511.02997 572.47619 
z
" style="fill:#ff0000;opacity:0.5;"/>
   </g>
   <g id="patch_4">
    <path clip-path="url(#p21c95bd2b0)" d="M 511.227975 630 
L 511.42598 630 
L 511.42598 630 
L 511.227975 630 
z
" style="fill:#ff0000;opacity:0.5;"/>
   </g>
   <g id="patch_5">
    <path clip-path="url(#p21c95bd2b0)" d="M 511.42598 630 
L 511.623986 630 
L 511.623986 630 
L 511.42598 630 
z
" style="fill:#ff0000;opacity:0.5;"/>
   </g>
   <g id="patch_6">
    <path clip-path="url(#p21c95bd2b0)" d="M 511.623986 630 
L 511.821991 630 
L 511.821991 630 
L 511.623986 630 
z
" style="fill:#ff0000;opacity:0.5;"/>
   </g>
   <g id="patch_7">
    <path clip-path="url(#p21c95bd2b0)" d="M 511.821991 630 
L 512.019996 630 
L 512.019996 572.47619 
L 511.821991 572.47619 
z
" style="fill:#ff0000;opacity:0.5;"/>
   </g>
   <g id="patch_8">
    <path clip-path="url(#p21c95bd2b0)" d="M 512.019996 630 
L 512.218001 630 
L 512.218001 630 
L 512.019996 630 
z
" style="fill:#ff0000;opacity:0.5;"/>
   </g>
   <g id="patch_9">
    <path clip-path="url(#p21c95bd2b0)" d="M 512.218001 630 
L 512.416006 630 
L 512.416006 630 
L 512.218001 630 
z
" style="fill:#ff0000;opacity:0.5;"/>
   </g>
   <g id="patch_10">
    <path clip-path="url(#p21c95bd2b0)" d="M 512.416006 630 
L 512.614011 630 
L 512.614011 630 
L 512.416006 630 
z
" style="fill:#ff0000;opacity:0.5;"/>
   </g>
   <g id="patch_11">
    <path clip-path="url(#p21c95bd2b0)" d="M 512.614011 630 
L 512.812016 630 
L 512.812016 630 
L 512.614011 630 
z
" style="fill:#ff0000;opacity:0.5;"/>
   </g>
   <g id="patch_12">
    <path clip-path="url(#p21c95bd2b0)" d="M 512.812016 630 
L 513.010022 630 
L 513.010022 457.428571 
L 512.812016 457.428571 
z
" style="fill:#ff0000;opacity:0.5;"/>
   </g>
   <g id="patch_13">
    <path clip-path="url(#p21c95bd2b0)" d="M 513.010022 630 
L 513.208027 630 
L 513.208027 399.904762 
L 513.010022 399.904762 
z
" style="fill:#ff0000;opacity:0.5;"/>
   </g>
   <g id="patch_14">
    <path clip-path="url(#p21c95bd2b0)" d="M 513.208027 630 
L 513.406032 630 
L 513.406032 399.904762 
L 513.208027 399.904762 
z
" style="fill:#ff0000;opacity:0.5;"/>
   </g>
   <g id="patch_15">
    <path clip-path="url(#p21c95bd2b0)" d="M 513.406032 630 
L 513.604037 630 
L 513.604037 457.428571 
L 513.406032 457.428571 
z
" style="fill:#ff0000;opacity:0.5;"/>
   </g>
   <g id="patch_16">
    <path clip-path="url(#p21c95bd2b0)" d="M 513.604037 630 
L 513.802042 630 
L 513.802042 457.428571 
L 513.604037 457.428571 
z
" style="fill:#ff0000;opacity:0.5;"/>
   </g>
   <g id="patch_17">
    <path clip-path="url(#p21c95bd2b0)" d="M 513.802042 630 
L 514.000047 630 
L 514.000047 457.428571 
L 513.802042 457.428571 
z
" style="fill:#ff0000;opacity:0.5;"/>
   </g>
   <g id="patch_18">
    <path clip-path="url(#p21c95bd2b0)" d="M 514.000047 630 
L 514.198052 630 
L 514.198052 399.904762 
L 514.000047 399.904762 
z
" style="fill:#ff0000;opacity:0.5;"/>
   </g>
   <g id="patch_19">
    <path clip-path="url(#p21c95bd2b0)" d="M 514.198052 630 
L 514.396057 630 
L 514.396057 457.428571 
L 514.198052 457.428571 
z
" style="fill:#ff0000;opacity:0.5;"/>
   </g>
   <g id="patch_20">
    <path clip-path="url(#p21c95bd2b0)" d="M 514.396057 630 
L 514.594063 630 
L 514.594063 399.904762 
L 514.396057 399.904762 
z
" style="fill:#ff0000;opacity:0.5;"/>
   </g>
   <g id="patch_21">
    <path clip-path="url(#p21c95bd2b0)" d="M 514.594063 630 
L 514.792068 630 
L 514.792068 342.380952 
L 514.594063 342.380952 
z
" style="fill:#ff0000;opacity:0.5;"/>
   </g>
   <g id="patch_22">
    <path clip-path="url(#p21c95bd2b0)" d="M 514.792068 630 
L 514.990073 630 
L 514.990073 399.904762 
L 514.792068 399.904762 
z
" style="fill:#ff0000;opacity:0.5;"/>
   </g>
   <g id="patch_23">
    <path clip-path="url(#p21c95bd2b0)" d="M 514.990073 630 
L 515.188078 630 
L 515.188078 112.285714 
L 514.990073 112.285714 
z
" style="fill:#ff0000;opacity:0.5;"/>
   </g>
   <g id="patch_24">
    <path clip-path="url(#p21c95bd2b0)" d="M 515.188078 630 
L 515.386083 630 
L 515.386083 284.857143 
L 515.188078 284.857143 
z
" style="fill:#ff0000;opacity:0.5;"/>
   </g>
   <g id="patch_25">
    <path clip-path="url(#p21c95bd2b0)" d="M 515.386083 630 
L 515.584088 630 
L 515.584088 399.904762 
L 515.386083 399.904762 
z
" style="fill:#ff0000;opacity:0.5;"/>
   </g>
   <g id="patch_26">
    <path clip-path="url(#p21c95bd2b0)" d="M 515.584088 630 
L 515.782093 630 
L 515.782093 227.333333 
L 515.584088 227.333333 
z
" style="fill:#ff0000;opacity:0.5;"/>
   </g>
   <g id="patch_27">
    <path clip-path="url(#p21c95bd2b0)" d="M 515.782093 630 
L 515.980099 630 
L 515.980099 457.428571 
L 515.782093 457.428571 
z
" style="fill:#ff0000;opacity:0.5;"/>
   </g>
   <g id="patch_28">
    <path clip-path="url(#p21c95bd2b0)" d="M 515.980099 630 
L 516.178104 630 
L 516.178104 227.333333 
L 515.980099 227.333333 
z
" style="fill:#ff0000;opacity:0.5;"/>
   </g>
   <g id="patch_29">
    <path clip-path="url(#p21c95bd2b0)" d="M 516.178104 630 
L 516.376109 630 
L 516.376109 169.809524 
L 516.178104 169.809524 
z
" style="fill:#ff0000;opacity:0.5;"/>
   </g>
   <g id="patch_30">
    <path clip-path="url(#p21c95bd2b0)" d="M 516.376109 630 
L 516.574114 630 
L 516.574114 284.857143 
L 516.376109 284.857143 
z
" style="fill:#ff0000;opacity:0.5;"/>
   </g>
   <g id="patch_31">
    <path clip-path="url(#p21c95bd2b0)" d="M 516.574114 630 
L 516.772119 630 
L 516.772119 284.857143 
L 516.574114 284.857143 
z
" style="fill:#ff0000;opacity:0.5;"/>
   </g>
   <g id="patch_32">
    <path clip-path="url(#p21c95bd2b0)" d="M 516.772119 630 
L 516.970124 630 
L 516.970124 284.857143 
L 516.772119 284.857143 
z
" style="fill:#ff0000;opacity:0.5;"/>
   </g>
   <g id="patch_33">
    <path clip-path="url(#p21c95bd2b0)" d="M 516.970124 630 
L 517.168129 630 
L 517.168129 514.952381 
L 516.970124 514.952381 
z
" style="fill:#ff0000;opacity:0.5;"/>
   </g>
   <g id="patch_34">
    <path clip-path="url(#p21c95bd2b0)" d="M 517.168129 630 
L 517.366135 630 
L 517.366135 342.380952 
L 517.168129 342.380952 
z
" style="fill:#ff0000;opacity:0.5;"/>
   </g>
   <g id="patch_35">
    <path clip-path="url(#p21c95bd2b0)" d="M 517.366135 630 
L 517.56414 630 
L 517.56414 514.952381 
L 517.366135 514.952381 
z
" style="fill:#ff0000;opacity:0.5;"/>
   </g>
   <g id="patch_36">
    <path clip-path="url(#p21c95bd2b0)" d="M 517.56414 630 
L 517.762145 630 
L 517.762145 457.428571 
L 517.56414 457.428571 
z
" style="fill:#ff0000;opacity:0.5;"/>
   </g>
   <g id="patch_37">
    <path clip-path="url(#p21c95bd2b0)" d="M 517.762145 630 
L 517.96015 630 
L 517.96015 514.952381 
L 517.762145 514.952381 
z
" style="fill:#ff0000;opacity:0.5;"/>
   </g>
   <g id="patch_38">
    <path clip-path="url(#p21c95bd2b0)" d="M 517.96015 630 
L 518.158155 630 
L 518.158155 630 
L 517.96015 630 
z
" style="fill:#ff0000;opacity:0.5;"/>
   </g>
   <g id="patch_39">
    <path clip-path="url(#p21c95bd2b0)" d="M 518.158155 630 
L 518.35616 630 
L 518.35616 457.428571 
L 518.158155 457.428571 
z
" style="fill:#ff0000;opacity:0.5;"/>
   </g>
   <g id="patch_40">
    <path clip-path="url(#p21c95bd2b0)" d="M 518.35616 630 
L 518.554165 630 
L 518.554165 572.47619 
L 518.35616 572.47619 
z
" style="fill:#ff0000;opacity:0.5;"/>
   </g>
   <g id="patch_41">
    <path clip-path="url(#p21c95bd2b0)" d="M 518.554165 630 
L 518.752171 630 
L 518.752171 572.47619 
L 518.554165 572.47619 
z
" style="fill:#ff0000;opacity:0.5;"/>
   </g>
   <g id="patch_42">
    <path clip-path="url(#p21c95bd2b0)" d="M 518.752171 630 
L 518.950176 630 
L 518.950176 572.47619 
L 518.752171 572.47619 
z
" style="fill:#ff0000;opacity:0.5;"/>
   </g>
   <g id="patch_43">
    <path clip-path="url(#p21c95bd2b0)" d="M 518.950176 630 
L 519.148181 630 
L 519.148181 572.47619 
L 518.950176 572.47619 
z
" style="fill:#ff0000;opacity:0.5;"/>
   </g>
   <g id="patch_44">
    <path clip-path="url(#p21c95bd2b0)" d="M 519.148181 630 
L 519.346186 630 
L 519.346186 572.47619 
L 519.148181 572.47619 
z
" style="fill:#ff0000;opacity:0.5;"/>
   </g>
   <g id="patch_45">
    <path clip-path="url(#p21c95bd2b0)" d="M 519.346186 630 
L 519.544191 630 
L 519.544191 630 
L 519.346186 630 
z
" style="fill:#ff0000;opacity:0.5;"/>
   </g>
   <g id="patch_46">
    <path clip-path="url(#p21c95bd2b0)" d="M 519.544191 630 
L 519.742196 630 
L 519.742196 572.47619 
L 519.544191 572.47619 
z
" style="fill:#ff0000;opacity:0.5;"/>
   </g>
   <g id="patch_47">
    <path clip-path="url(#p21c95bd2b0)" d="M 519.742196 630 
L 519.940201 630 
L 519.940201 630 
L 519.742196 630 
z
" style="fill:#ff0000;opacity:0.5;"/>
   </g>
   <g id="patch_48">
    <path clip-path="url(#p21c95bd2b0)" d="M 519.940201 630 
L 520.138206 630 
L 520.138206 630 
L 519.940201 630 
z
" style="fill:#ff0000;opacity:0.5;"/>
   </g>
   <g id="patch_49">
    <path clip-path="url(#p21c95bd2b0)" d="M 520.138206 630 
L 520.336212 630 
L 520.336212 630 
L 520.138206 630 
z
" style="fill:#ff0000;opacity:0.5;"/>
   </g>
   <g id="patch_50">
    <path clip-path="url(#p21c95bd2b0)" d="M 520.336212 630 
L 520.534217 630 
L 520.534217 630 
L 520.336212 630 
z
" style="fill:#ff0000;opacity:0.5;"/>
   </g>
   <g id="patch_51">
    <path clip-path="url(#p21c95bd2b0)" d="M 520.534217 630 
L 520.732222 630 
L 520.732222 630 
L 520.534217 630 
z
" style="fill:#ff0000;opacity:0.5;"/>
   </g>
   <g id="patch_52">
    <path clip-path="url(#p21c95bd2b0)" d="M 520.732222 630 
L 520.930227 630 
L 520.930227 572.47619 
L 520.732222 572.47619 
z
" style="fill:#ff0000;opacity:0.5;"/>
   </g>
   <g id="patch_53">
    <path clip-path="url(#p21c95bd2b0)" d="M 508.453627 630 
L 508.705824 630 
L 508.705824 539.673775 
L 508.453627 539.673775 
z
" style="fill:#ffff00;opacity:0.5;"/>
   </g>
   <g id="patch_54">
    <path clip-path="url(#p21c95bd2b0)" d="M 508.705824 630 
L 508.958021 630 
L 508.958021 539.673775 
L 508.705824 539.673775 
z
" style="fill:#ffff00;opacity:0.5;"/>
   </g>
   <g id="patch_55">
    <path clip-path="url(#p21c95bd2b0)" d="M 508.958021 630 
L 509.210218 630 
L 509.210218 630 
L 508.958021 630 
z
" style="fill:#ffff00;opacity:0.5;"/>
   </g>
   <g id="patch_56">
    <path clip-path="url(#p21c95bd2b0)" d="M 509.210218 630 
L 509.462416 630 
L 509.462416 630 
L 509.210218 630 
z
" style="fill:#ffff00;opacity:0.5;"/>
   </g>
   <g id="patch_57">
    <path clip-path="url(#p21c95bd2b0)" d="M 509.462416 630 
L 509.714613 630 
L 509.714613 584.836887 
L 509.462416 584.836887 
z
" style="fill:#ffff00;opacity:0.5;"/>
   </g>
   <g id="patch_58">
    <path clip-path="url(#p21c95bd2b0)" d="M 509.714613 630 
L 509.96681 630 
L 509.96681 584.836887 
L 509.714613 584.836887 
z
" style="fill:#ffff00;opacity:0.5;"/>
   </g>
   <g id="patch_59">
    <path clip-path="url(#p21c95bd2b0)" d="M 509.96681 630 
L 510.219007 630 
L 510.219007 494.510662 
L 509.96681 494.510662 
z
" style="fill:#ffff00;opacity:0.5;"/>
   </g>
   <g id="patch_60">
    <path clip-path="url(#p21c95bd2b0)" d="M 510.219007 630 
L 510.471204 630 
L 510.471204 584.836887 
L 510.219007 584.836887 
z
" style="fill:#ffff00;opacity:0.5;"/>
   </g>
   <g id="patch_61">
    <path clip-path="url(#p21c95bd2b0)" d="M 510.471204 630 
L 510.723402 630 
L 510.723402 539.673775 
L 510.471204 539.673775 
z
" style="fill:#ffff00;opacity:0.5;"/>
   </g>
   <g id="patch_62">
    <path clip-path="url(#p21c95bd2b0)" d="M 510.723402 630 
L 510.975599 630 
L 510.975599 584.836887 
L 510.723402 584.836887 
z
" style="fill:#ffff00;opacity:0.5;"/>
   </g>
   <g id="patch_63">
    <path clip-path="url(#p21c95bd2b0)" d="M 510.975599 630 
L 511.227796 630 
L 511.227796 539.673775 
L 510.975599 539.673775 
z
" style="fill:#ffff00;opacity:0.5;"/>
   </g>
   <g id="patch_64">
    <path clip-path="url(#p21c95bd2b0)" d="M 511.227796 630 
L 511.479993 630 
L 511.479993 494.510662 
L 511.227796 494.510662 
z
" style="fill:#ffff00;opacity:0.5;"/>
   </g>
   <g id="patch_65">
    <path clip-path="url(#p21c95bd2b0)" d="M 511.479993 630 
L 511.73219 630 
L 511.73219 584.836887 
L 511.479993 584.836887 
z
" style="fill:#ffff00;opacity:0.5;"/>
   </g>
   <g id="patch_66">
    <path clip-path="url(#p21c95bd2b0)" d="M 511.73219 630 
L 511.984387 630 
L 511.984387 539.673775 
L 511.73219 539.673775 
z
" style="fill:#ffff00;opacity:0.5;"/>
   </g>
   <g id="patch_67">
    <path clip-path="url(#p21c95bd2b0)" d="M 511.984387 630 
L 512.236585 630 
L 512.236585 494.510662 
L 511.984387 494.510662 
z
" style="fill:#ffff00;opacity:0.5;"/>
   </g>
   <g id="patch_68">
    <path clip-path="url(#p21c95bd2b0)" d="M 512.236585 630 
L 512.488782 630 
L 512.488782 494.510662 
L 512.236585 494.510662 
z
" style="fill:#ffff00;opacity:0.5;"/>
   </g>
   <g id="patch_69">
    <path clip-path="url(#p21c95bd2b0)" d="M 512.488782 630 
L 512.740979 630 
L 512.740979 449.34755 
L 512.488782 449.34755 
z
" style="fill:#ffff00;opacity:0.5;"/>
   </g>
   <g id="patch_70">
    <path clip-path="url(#p21c95bd2b0)" d="M 512.740979 630 
L 512.993176 630 
L 512.993176 313.858212 
L 512.740979 313.858212 
z
" style="fill:#ffff00;opacity:0.5;"/>
   </g>
   <g id="patch_71">
    <path clip-path="url(#p21c95bd2b0)" d="M 512.993176 630 
L 513.245373 630 
L 513.245373 359.021325 
L 512.993176 359.021325 
z
" style="fill:#ffff00;opacity:0.5;"/>
   </g>
   <g id="patch_72">
    <path clip-path="url(#p21c95bd2b0)" d="M 513.245373 630 
L 513.497571 630 
L 513.497571 359.021325 
L 513.245373 359.021325 
z
" style="fill:#ffff00;opacity:0.5;"/>
   </g>
   <g id="patch_73">
    <path clip-path="url(#p21c95bd2b0)" d="M 513.497571 630 
L 513.749768 630 
L 513.749768 313.858212 
L 513.497571 313.858212 
z
" style="fill:#ffff00;opacity:0.5;"/>
   </g>
   <g id="patch_74">
    <path clip-path="url(#p21c95bd2b0)" d="M 513.749768 630 
L 514.001965 630 
L 514.001965 449.34755 
L 513.749768 449.34755 
z
" style="fill:#ffff00;opacity:0.5;"/>
   </g>
   <g id="patch_75">
    <path clip-path="url(#p21c95bd2b0)" d="M 514.001965 630 
L 514.254162 630 
L 514.254162 359.021325 
L 514.001965 359.021325 
z
" style="fill:#ffff00;opacity:0.5;"/>
   </g>
   <g id="patch_76">
    <path clip-path="url(#p21c95bd2b0)" d="M 514.254162 630 
L 514.506359 630 
L 514.506359 494.510662 
L 514.254162 494.510662 
z
" style="fill:#ffff00;opacity:0.5;"/>
   </g>
   <g id="patch_77">
    <path clip-path="url(#p21c95bd2b0)" d="M 514.506359 630 
L 514.758556 630 
L 514.758556 539.673775 
L 514.506359 539.673775 
z
" style="fill:#ffff00;opacity:0.5;"/>
   </g>
   <g id="patch_78">
    <path clip-path="url(#p21c95bd2b0)" d="M 514.758556 630 
L 515.010754 630 
L 515.010754 494.510662 
L 514.758556 494.510662 
z
" style="fill:#ffff00;opacity:0.5;"/>
   </g>
   <g id="patch_79">
    <path clip-path="url(#p21c95bd2b0)" d="M 515.010754 630 
L 515.262951 630 
L 515.262951 449.34755 
L 515.010754 449.34755 
z
" style="fill:#ffff00;opacity:0.5;"/>
   </g>
   <g id="patch_80">
    <path clip-path="url(#p21c95bd2b0)" d="M 515.262951 630 
L 515.515148 630 
L 515.515148 404.184437 
L 515.262951 404.184437 
z
" style="fill:#ffff00;opacity:0.5;"/>
   </g>
   <g id="patch_81">
    <path clip-path="url(#p21c95bd2b0)" d="M 515.515148 630 
L 515.767345 630 
L 515.767345 494.510662 
L 515.515148 494.510662 
z
" style="fill:#ffff00;opacity:0.5;"/>
   </g>
   <g id="patch_82">
    <path clip-path="url(#p21c95bd2b0)" d="M 515.767345 630 
L 516.019542 630 
L 516.019542 449.34755 
L 515.767345 449.34755 
z
" style="fill:#ffff00;opacity:0.5;"/>
   </g>
   <g id="patch_83">
    <path clip-path="url(#p21c95bd2b0)" d="M 516.019542 630 
L 516.27174 630 
L 516.27174 404.184437 
L 516.019542 404.184437 
z
" style="fill:#ffff00;opacity:0.5;"/>
   </g>
   <g id="patch_84">
    <path clip-path="url(#p21c95bd2b0)" d="M 516.27174 630 
L 516.523937 630 
L 516.523937 449.34755 
L 516.27174 449.34755 
z
" style="fill:#ffff00;opacity:0.5;"/>
   </g>
   <g id="patch_85">
    <path clip-path="url(#p21c95bd2b0)" d="M 516.523937 630 
L 516.776134 630 
L 516.776134 494.510662 
L 516.523937 494.510662 
z
" style="fill:#ffff00;opacity:0.5;"/>
   </g>
   <g id="patch_86">
    <path clip-path="url(#p21c95bd2b0)" d="M 516.776134 630 
L 517.028331 630 
L 517.028331 449.34755 
L 516.776134 449.34755 
z
" style="fill:#ffff00;opacity:0.5;"/>
   </g>
   <g id="patch_87">
    <path clip-path="url(#p21c95bd2b0)" d="M 517.028331 630 
L 517.280528 630 
L 517.280528 449.34755 
L 517.028331 449.34755 
z
" style="fill:#ffff00;opacity:0.5;"/>
   </g>
   <g id="patch_88">
    <path clip-path="url(#p21c95bd2b0)" d="M 517.280528 630 
L 517.532725 630 
L 517.532725 494.510662 
L 517.280528 494.510662 
z
" style="fill:#ffff00;opacity:0.5;"/>
   </g>
   <g id="patch_89">
    <path clip-path="url(#p21c95bd2b0)" d="M 517.532725 630 
L 517.784923 630 
L 517.784923 494.510662 
L 517.532725 494.510662 
z
" style="fill:#ffff00;opacity:0.5;"/>
   </g>
   <g id="patch_90">
    <path clip-path="url(#p21c95bd2b0)" d="M 517.784923 630 
L 518.03712 630 
L 518.03712 539.673775 
L 517.784923 539.673775 
z
" style="fill:#ffff00;opacity:0.5;"/>
   </g>
   <g id="patch_91">
    <path clip-path="url(#p21c95bd2b0)" d="M 518.03712 630 
L 518.289317 630 
L 518.289317 539.673775 
L 518.03712 539.673775 
z
" style="fill:#ffff00;opacity:0.5;"/>
   </g>
   <g id="patch_92">
    <path clip-path="url(#p21c95bd2b0)" d="M 518.289317 630 
L 518.541514 630 
L 518.541514 630 
L 518.289317 630 
z
" style="fill:#ffff00;opacity:0.5;"/>
   </g>
   <g id="patch_93">
    <path clip-path="url(#p21c95bd2b0)" d="M 518.541514 630 
L 518.793711 630 
L 518.793711 539.673775 
L 518.541514 539.673775 
z
" style="fill:#ffff00;opacity:0.5;"/>
   </g>
   <g id="patch_94">
    <path clip-path="url(#p21c95bd2b0)" d="M 518.793711 630 
L 519.045909 630 
L 519.045909 584.836887 
L 518.793711 584.836887 
z
" style="fill:#ffff00;opacity:0.5;"/>
   </g>
   <g id="patch_95">
    <path clip-path="url(#p21c95bd2b0)" d="M 519.045909 630 
L 519.298106 630 
L 519.298106 630 
L 519.045909 630 
z
" style="fill:#ffff00;opacity:0.5;"/>
   </g>
   <g id="patch_96">
    <path clip-path="url(#p21c95bd2b0)" d="M 519.298106 630 
L 519.550303 630 
L 519.550303 539.673775 
L 519.298106 539.673775 
z
" style="fill:#ffff00;opacity:0.5;"/>
   </g>
   <g id="patch_97">
    <path clip-path="url(#p21c95bd2b0)" d="M 519.550303 630 
L 519.8025 630 
L 519.8025 630 
L 519.550303 630 
z
" style="fill:#ffff00;opacity:0.5;"/>
   </g>
   <g id="patch_98">
    <path clip-path="url(#p21c95bd2b0)" d="M 519.8025 630 
L 520.054697 630 
L 520.054697 584.836887 
L 519.8025 584.836887 
z
" style="fill:#ffff00;opacity:0.5;"/>
   </g>
   <g id="patch_99">
    <path clip-path="url(#p21c95bd2b0)" d="M 520.054697 630 
L 520.306895 630 
L 520.306895 630 
L 520.054697 630 
z
" style="fill:#ffff00;opacity:0.5;"/>
   </g>
   <g id="patch_100">
    <path clip-path="url(#p21c95bd2b0)" d="M 520.306895 630 
L 520.559092 630 
L 520.559092 630 
L 520.306895 630 
z
" style="fill:#ffff00;opacity:0.5;"/>
   </g>
   <g id="patch_101">
    <path clip-path="url(#p21c95bd2b0)" d="M 520.559092 630 
L 520.811289 630 
L 520.811289 630 
L 520.559092 630 
z
" style="fill:#ffff00;opacity:0.5;"/>
   </g>
   <g id="patch_102">
    <path clip-path="url(#p21c95bd2b0)" d="M 520.811289 630 
L 521.063486 630 
L 521.063486 584.836887 
L 520.811289 584.836887 
z
" style="fill:#ffff00;opacity:0.5;"/>
   </g>
   <g id="patch_103">
    <path clip-path="url(#p21c95bd2b0)" d="M 234.955424 630 
L 243.481781 630 
L 243.481781 612.901006 
L 234.955424 612.901006 
z
" style="fill:#0000ff;opacity:0.5;"/>
   </g>
   <g id="patch_104">
    <path clip-path="url(#p21c95bd2b0)" d="M 243.481781 630 
L 252.008138 630 
L 252.008138 630 
L 243.481781 630 
z
" style="fill:#0000ff;opacity:0.5;"/>
   </g>
   <g id="patch_105">
    <path clip-path="url(#p21c95bd2b0)" d="M 252.008138 630 
L 260.534495 630 
L 260.534495 630 
L 252.008138 630 
z
" style="fill:#0000ff;opacity:0.5;"/>
   </g>
   <g id="patch_106">
    <path clip-path="url(#p21c95bd2b0)" d="M 260.534495 630 
L 269.060852 630 
L 269.060852 630 
L 260.534495 630 
z
" style="fill:#0000ff;opacity:0.5;"/>
   </g>
   <g id="patch_107">
    <path clip-path="url(#p21c95bd2b0)" d="M 269.060852 630 
L 277.587209 630 
L 277.587209 630 
L 269.060852 630 
z
" style="fill:#0000ff;opacity:0.5;"/>
   </g>
   <g id="patch_108">
    <path clip-path="url(#p21c95bd2b0)" d="M 277.587209 630 
L 286.113566 630 
L 286.113566 630 
L 277.587209 630 
z
" style="fill:#0000ff;opacity:0.5;"/>
   </g>
   <g id="patch_109">
    <path clip-path="url(#p21c95bd2b0)" d="M 286.113566 630 
L 294.639923 630 
L 294.639923 630 
L 286.113566 630 
z
" style="fill:#0000ff;opacity:0.5;"/>
   </g>
   <g id="patch_110">
    <path clip-path="url(#p21c95bd2b0)" d="M 294.639923 630 
L 303.16628 630 
L 303.16628 630 
L 294.639923 630 
z
" style="fill:#0000ff;opacity:0.5;"/>
   </g>
   <g id="patch_111">
    <path clip-path="url(#p21c95bd2b0)" d="M 303.16628 630 
L 311.692637 630 
L 311.692637 630 
L 303.16628 630 
z
" style="fill:#0000ff;opacity:0.5;"/>
   </g>
   <g id="patch_112">
    <path clip-path="url(#p21c95bd2b0)" d="M 311.692637 630 
L 320.218995 630 
L 320.218995 630 
L 311.692637 630 
z
" style="fill:#0000ff;opacity:0.5;"/>
   </g>
   <g id="patch_113">
    <path clip-path="url(#p21c95bd2b0)" d="M 320.218995 630 
L 328.745352 630 
L 328.745352 630 
L 320.218995 630 
z
" style="fill:#0000ff;opacity:0.5;"/>
   </g>
   <g id="patch_114">
    <path clip-path="url(#p21c95bd2b0)" d="M 328.745352 630 
L 337.271709 630 
L 337.271709 630 
L 328.745352 630 
z
" style="fill:#0000ff;opacity:0.5;"/>
   </g>
   <g id="patch_115">
    <path clip-path="url(#p21c95bd2b0)" d="M 337.271709 630 
L 345.798066 630 
L 345.798066 612.901006 
L 337.271709 612.901006 
z
" style="fill:#0000ff;opacity:0.5;"/>
   </g>
   <g id="patch_116">
    <path clip-path="url(#p21c95bd2b0)" d="M 345.798066 630 
L 354.324423 630 
L 354.324423 630 
L 345.798066 630 
z
" style="fill:#0000ff;opacity:0.5;"/>
   </g>
   <g id="patch_117">
    <path clip-path="url(#p21c95bd2b0)" d="M 354.324423 630 
L 362.85078 630 
L 362.85078 612.901006 
L 354.324423 612.901006 
z
" style="fill:#0000ff;opacity:0.5;"/>
   </g>
   <g id="patch_118">
    <path clip-path="url(#p21c95bd2b0)" d="M 362.85078 630 
L 371.377137 630 
L 371.377137 630 
L 362.85078 630 
z
" style="fill:#0000ff;opacity:0.5;"/>
   </g>
   <g id="patch_119">
    <path clip-path="url(#p21c95bd2b0)" d="M 371.377137 630 
L 379.903494 630 
L 379.903494 630 
L 371.377137 630 
z
" style="fill:#0000ff;opacity:0.5;"/>
   </g>
   <g id="patch_120">
    <path clip-path="url(#p21c95bd2b0)" d="M 379.903494 630 
L 388.429851 630 
L 388.429851 630 
L 379.903494 630 
z
" style="fill:#0000ff;opacity:0.5;"/>
   </g>
   <g id="patch_121">
    <path clip-path="url(#p21c95bd2b0)" d="M 388.429851 630 
L 396.956208 630 
L 396.956208 612.901006 
L 388.429851 612.901006 
z
" style="fill:#0000ff;opacity:0.5;"/>
   </g>
   <g id="patch_122">
    <path clip-path="url(#p21c95bd2b0)" d="M 396.956208 630 
L 405.482565 630 
L 405.482565 630 
L 396.956208 630 
z
" style="fill:#0000ff;opacity:0.5;"/>
   </g>
   <g id="patch_123">
    <path clip-path="url(#p21c95bd2b0)" d="M 405.482565 630 
L 414.008922 630 
L 414.008922 630 
L 405.482565 630 
z
" style="fill:#0000ff;opacity:0.5;"/>
   </g>
   <g id="patch_124">
    <path clip-path="url(#p21c95bd2b0)" d="M 414.008922 630 
L 422.53528 630 
L 422.53528 630 
L 414.008922 630 
z
" style="fill:#0000ff;opacity:0.5;"/>
   </g>
   <g id="patch_125">
    <path clip-path="url(#p21c95bd2b0)" d="M 422.53528 630 
L 431.061637 630 
L 431.061637 630 
L 422.53528 630 
z
" style="fill:#0000ff;opacity:0.5;"/>
   </g>
   <g id="patch_126">
    <path clip-path="url(#p21c95bd2b0)" d="M 431.061637 630 
L 439.587994 630 
L 439.587994 612.901006 
L 431.061637 612.901006 
z
" style="fill:#0000ff;opacity:0.5;"/>
   </g>
   <g id="patch_127">
    <path clip-path="url(#p21c95bd2b0)" d="M 439.587994 630 
L 448.114351 630 
L 448.114351 630 
L 439.587994 630 
z
" style="fill:#0000ff;opacity:0.5;"/>
   </g>
   <g id="patch_128">
    <path clip-path="url(#p21c95bd2b0)" d="M 448.114351 630 
L 456.640708 630 
L 456.640708 630 
L 448.114351 630 
z
" style="fill:#0000ff;opacity:0.5;"/>
   </g>
   <g id="patch_129">
    <path clip-path="url(#p21c95bd2b0)" d="M 456.640708 630 
L 465.167065 630 
L 465.167065 630 
L 456.640708 630 
z
" style="fill:#0000ff;opacity:0.5;"/>
   </g>
   <g id="patch_130">
    <path clip-path="url(#p21c95bd2b0)" d="M 465.167065 630 
L 473.693422 630 
L 473.693422 630 
L 465.167065 630 
z
" style="fill:#0000ff;opacity:0.5;"/>
   </g>
   <g id="patch_131">
    <path clip-path="url(#p21c95bd2b0)" d="M 473.693422 630 
L 482.219779 630 
L 482.219779 630 
L 473.693422 630 
z
" style="fill:#0000ff;opacity:0.5;"/>
   </g>
   <g id="patch_132">
    <path clip-path="url(#p21c95bd2b0)" d="M 482.219779 630 
L 490.746136 630 
L 490.746136 595.802013 
L 482.219779 595.802013 
z
" style="fill:#0000ff;opacity:0.5;"/>
   </g>
   <g id="patch_133">
    <path clip-path="url(#p21c95bd2b0)" d="M 490.746136 630 
L 499.272493 630 
L 499.272493 630 
L 490.746136 630 
z
" style="fill:#0000ff;opacity:0.5;"/>
   </g>
   <g id="patch_134">
    <path clip-path="url(#p21c95bd2b0)" d="M 499.272493 630 
L 507.79885 630 
L 507.79885 630 
L 499.272493 630 
z
" style="fill:#0000ff;opacity:0.5;"/>
   </g>
   <g id="patch_135">
    <path clip-path="url(#p21c95bd2b0)" d="M 507.79885 630 
L 516.325207 630 
L 516.325207 630 
L 507.79885 630 
z
" style="fill:#0000ff;opacity:0.5;"/>
   </g>
   <g id="patch_136">
    <path clip-path="url(#p21c95bd2b0)" d="M 516.325207 630 
L 524.851565 630 
L 524.851565 630 
L 516.325207 630 
z
" style="fill:#0000ff;opacity:0.5;"/>
   </g>
   <g id="patch_137">
    <path clip-path="url(#p21c95bd2b0)" d="M 524.851565 630 
L 533.377922 630 
L 533.377922 630 
L 524.851565 630 
z
" style="fill:#0000ff;opacity:0.5;"/>
   </g>
   <g id="patch_138">
    <path clip-path="url(#p21c95bd2b0)" d="M 533.377922 630 
L 541.904279 630 
L 541.904279 595.802013 
L 533.377922 595.802013 
z
" style="fill:#0000ff;opacity:0.5;"/>
   </g>
   <g id="patch_139">
    <path clip-path="url(#p21c95bd2b0)" d="M 541.904279 630 
L 550.430636 630 
L 550.430636 630 
L 541.904279 630 
z
" style="fill:#0000ff;opacity:0.5;"/>
   </g>
   <g id="patch_140">
    <path clip-path="url(#p21c95bd2b0)" d="M 550.430636 630 
L 558.956993 630 
L 558.956993 630 
L 550.430636 630 
z
" style="fill:#0000ff;opacity:0.5;"/>
   </g>
   <g id="patch_141">
    <path clip-path="url(#p21c95bd2b0)" d="M 558.956993 630 
L 567.48335 630 
L 567.48335 630 
L 558.956993 630 
z
" style="fill:#0000ff;opacity:0.5;"/>
   </g>
   <g id="patch_142">
    <path clip-path="url(#p21c95bd2b0)" d="M 567.48335 630 
L 576.009707 630 
L 576.009707 630 
L 567.48335 630 
z
" style="fill:#0000ff;opacity:0.5;"/>
   </g>
   <g id="patch_143">
    <path clip-path="url(#p21c95bd2b0)" d="M 576.009707 630 
L 584.536064 630 
L 584.536064 630 
L 576.009707 630 
z
" style="fill:#0000ff;opacity:0.5;"/>
   </g>
   <g id="patch_144">
    <path clip-path="url(#p21c95bd2b0)" d="M 584.536064 630 
L 593.062421 630 
L 593.062421 630 
L 584.536064 630 
z
" style="fill:#0000ff;opacity:0.5;"/>
   </g>
   <g id="patch_145">
    <path clip-path="url(#p21c95bd2b0)" d="M 593.062421 630 
L 601.588778 630 
L 601.588778 630 
L 593.062421 630 
z
" style="fill:#0000ff;opacity:0.5;"/>
   </g>
   <g id="patch_146">
    <path clip-path="url(#p21c95bd2b0)" d="M 601.588778 630 
L 610.115135 630 
L 610.115135 630 
L 601.588778 630 
z
" style="fill:#0000ff;opacity:0.5;"/>
   </g>
   <g id="patch_147">
    <path clip-path="url(#p21c95bd2b0)" d="M 610.115135 630 
L 618.641492 630 
L 618.641492 630 
L 610.115135 630 
z
" style="fill:#0000ff;opacity:0.5;"/>
   </g>
   <g id="patch_148">
    <path clip-path="url(#p21c95bd2b0)" d="M 618.641492 630 
L 627.167849 630 
L 627.167849 630 
L 618.641492 630 
z
" style="fill:#0000ff;opacity:0.5;"/>
   </g>
   <g id="patch_149">
    <path clip-path="url(#p21c95bd2b0)" d="M 627.167849 630 
L 635.694207 630 
L 635.694207 630 
L 627.167849 630 
z
" style="fill:#0000ff;opacity:0.5;"/>
   </g>
   <g id="patch_150">
    <path clip-path="url(#p21c95bd2b0)" d="M 635.694207 630 
L 644.220564 630 
L 644.220564 630 
L 635.694207 630 
z
" style="fill:#0000ff;opacity:0.5;"/>
   </g>
   <g id="patch_151">
    <path clip-path="url(#p21c95bd2b0)" d="M 644.220564 630 
L 652.746921 630 
L 652.746921 630 
L 644.220564 630 
z
" style="fill:#0000ff;opacity:0.5;"/>
   </g>
   <g id="patch_152">
    <path clip-path="url(#p21c95bd2b0)" d="M 652.746921 630 
L 661.273278 630 
L 661.273278 612.901006 
L 652.746921 612.901006 
z
" style="fill:#0000ff;opacity:0.5;"/>
   </g>
   <g id="patch_153">
    <path clip-path="url(#p21c95bd2b0)" d="M 138.436364 630 
L 150.610909 630 
L 150.610909 618.02484 
L 138.436364 618.02484 
z
" style="fill:#008000;opacity:0.5;"/>
   </g>
   <g id="patch_154">
    <path clip-path="url(#p21c95bd2b0)" d="M 150.610909 630 
L 162.785455 630 
L 162.785455 630 
L 150.610909 630 
z
" style="fill:#008000;opacity:0.5;"/>
   </g>
   <g id="patch_155">
    <path clip-path="url(#p21c95bd2b0)" d="M 162.785455 630 
L 174.96 630 
L 174.96 630 
L 162.785455 630 
z
" style="fill:#008000;opacity:0.5;"/>
   </g>
   <g id="patch_156">
    <path clip-path="url(#p21c95bd2b0)" d="M 174.96 630 
L 187.134545 630 
L 187.134545 630 
L 174.96 630 
z
" style="fill:#008000;opacity:0.5;"/>
   </g>
   <g id="patch_157">
    <path clip-path="url(#p21c95bd2b0)" d="M 187.134545 630 
L 199.309091 630 
L 199.309091 630 
L 187.134545 630 
z
" style="fill:#008000;opacity:0.5;"/>
   </g>
   <g id="patch_158">
    <path clip-path="url(#p21c95bd2b0)" d="M 199.309091 630 
L 211.483636 630 
L 211.483636 630 
L 199.309091 630 
z
" style="fill:#008000;opacity:0.5;"/>
   </g>
   <g id="patch_159">
    <path clip-path="url(#p21c95bd2b0)" d="M 211.483636 630 
L 223.658182 630 
L 223.658182 630 
L 211.483636 630 
z
" style="fill:#008000;opacity:0.5;"/>
   </g>
   <g id="patch_160">
    <path clip-path="url(#p21c95bd2b0)" d="M 223.658182 630 
L 235.832727 630 
L 235.832727 630 
L 223.658182 630 
z
" style="fill:#008000;opacity:0.5;"/>
   </g>
   <g id="patch_161">
    <path clip-path="url(#p21c95bd2b0)" d="M 235.832727 630 
L 248.007273 630 
L 248.007273 630 
L 235.832727 630 
z
" style="fill:#008000;opacity:0.5;"/>
   </g>
   <g id="patch_162">
    <path clip-path="url(#p21c95bd2b0)" d="M 248.007273 630 
L 260.181818 630 
L 260.181818 618.02484 
L 248.007273 618.02484 
z
" style="fill:#008000;opacity:0.5;"/>
   </g>
   <g id="patch_163">
    <path clip-path="url(#p21c95bd2b0)" d="M 260.181818 630 
L 272.356364 630 
L 272.356364 630 
L 260.181818 630 
z
" style="fill:#008000;opacity:0.5;"/>
   </g>
   <g id="patch_164">
    <path clip-path="url(#p21c95bd2b0)" d="M 272.356364 630 
L 284.530909 630 
L 284.530909 630 
L 272.356364 630 
z
" style="fill:#008000;opacity:0.5;"/>
   </g>
   <g id="patch_165">
    <path clip-path="url(#p21c95bd2b0)" d="M 284.530909 630 
L 296.705455 630 
L 296.705455 630 
L 284.530909 630 
z
" style="fill:#008000;opacity:0.5;"/>
   </g>
   <g id="patch_166">
    <path clip-path="url(#p21c95bd2b0)" d="M 296.705455 630 
L 308.88 630 
L 308.88 630 
L 296.705455 630 
z
" style="fill:#008000;opacity:0.5;"/>
   </g>
   <g id="patch_167">
    <path clip-path="url(#p21c95bd2b0)" d="M 308.88 630 
L 321.054545 630 
L 321.054545 630 
L 308.88 630 
z
" style="fill:#008000;opacity:0.5;"/>
   </g>
   <g id="patch_168">
    <path clip-path="url(#p21c95bd2b0)" d="M 321.054545 630 
L 333.229091 630 
L 333.229091 630 
L 321.054545 630 
z
" style="fill:#008000;opacity:0.5;"/>
   </g>
   <g id="patch_169">
    <path clip-path="url(#p21c95bd2b0)" d="M 333.229091 630 
L 345.403636 630 
L 345.403636 630 
L 333.229091 630 
z
" style="fill:#008000;opacity:0.5;"/>
   </g>
   <g id="patch_170">
    <path clip-path="url(#p21c95bd2b0)" d="M 345.403636 630 
L 357.578182 630 
L 357.578182 630 
L 345.403636 630 
z
" style="fill:#008000;opacity:0.5;"/>
   </g>
   <g id="patch_171">
    <path clip-path="url(#p21c95bd2b0)" d="M 357.578182 630 
L 369.752727 630 
L 369.752727 606.049681 
L 357.578182 606.049681 
z
" style="fill:#008000;opacity:0.5;"/>
   </g>
   <g id="patch_172">
    <path clip-path="url(#p21c95bd2b0)" d="M 369.752727 630 
L 381.927273 630 
L 381.927273 618.02484 
L 369.752727 618.02484 
z
" style="fill:#008000;opacity:0.5;"/>
   </g>
   <g id="patch_173">
    <path clip-path="url(#p21c95bd2b0)" d="M 381.927273 630 
L 394.101818 630 
L 394.101818 630 
L 381.927273 630 
z
" style="fill:#008000;opacity:0.5;"/>
   </g>
   <g id="patch_174">
    <path clip-path="url(#p21c95bd2b0)" d="M 394.101818 630 
L 406.276364 630 
L 406.276364 630 
L 394.101818 630 
z
" style="fill:#008000;opacity:0.5;"/>
   </g>
   <g id="patch_175">
    <path clip-path="url(#p21c95bd2b0)" d="M 406.276364 630 
L 418.450909 630 
L 418.450909 630 
L 406.276364 630 
z
" style="fill:#008000;opacity:0.5;"/>
   </g>
   <g id="patch_176">
    <path clip-path="url(#p21c95bd2b0)" d="M 418.450909 630 
L 430.625455 630 
L 430.625455 630 
L 418.450909 630 
z
" style="fill:#008000;opacity:0.5;"/>
   </g>
   <g id="patch_177">
    <path clip-path="url(#p21c95bd2b0)" d="M 430.625455 630 
L 442.8 630 
L 442.8 630 
L 430.625455 630 
z
" style="fill:#008000;opacity:0.5;"/>
   </g>
   <g id="patch_178">
    <path clip-path="url(#p21c95bd2b0)" d="M 442.8 630 
L 454.974545 630 
L 454.974545 630 
L 442.8 630 
z
" style="fill:#008000;opacity:0.5;"/>
   </g>
   <g id="patch_179">
    <path clip-path="url(#p21c95bd2b0)" d="M 454.974545 630 
L 467.149091 630 
L 467.149091 618.02484 
L 454.974545 618.02484 
z
" style="fill:#008000;opacity:0.5;"/>
   </g>
   <g id="patch_180">
    <path clip-path="url(#p21c95bd2b0)" d="M 467.149091 630 
L 479.323636 630 
L 479.323636 630 
L 467.149091 630 
z
" style="fill:#008000;opacity:0.5;"/>
   </g>
   <g id="patch_181">
    <path clip-path="url(#p21c95bd2b0)" d="M 479.323636 630 
L 491.498182 630 
L 491.498182 618.02484 
L 479.323636 618.02484 
z
" style="fill:#008000;opacity:0.5;"/>
   </g>
   <g id="patch_182">
    <path clip-path="url(#p21c95bd2b0)" d="M 491.498182 630 
L 503.672727 630 
L 503.672727 630 
L 491.498182 630 
z
" style="fill:#008000;opacity:0.5;"/>
   </g>
   <g id="patch_183">
    <path clip-path="url(#p21c95bd2b0)" d="M 503.672727 630 
L 515.847273 630 
L 515.847273 630 
L 503.672727 630 
z
" style="fill:#008000;opacity:0.5;"/>
   </g>
   <g id="patch_184">
    <path clip-path="url(#p21c95bd2b0)" d="M 515.847273 630 
L 528.021818 630 
L 528.021818 630 
L 515.847273 630 
z
" style="fill:#008000;opacity:0.5;"/>
   </g>
   <g id="patch_185">
    <path clip-path="url(#p21c95bd2b0)" d="M 528.021818 630 
L 540.196364 630 
L 540.196364 630 
L 528.021818 630 
z
" style="fill:#008000;opacity:0.5;"/>
   </g>
   <g id="patch_186">
    <path clip-path="url(#p21c95bd2b0)" d="M 540.196364 630 
L 552.370909 630 
L 552.370909 618.02484 
L 540.196364 618.02484 
z
" style="fill:#008000;opacity:0.5;"/>
   </g>
   <g id="patch_187">
    <path clip-path="url(#p21c95bd2b0)" d="M 552.370909 630 
L 564.545455 630 
L 564.545455 618.02484 
L 552.370909 618.02484 
z
" style="fill:#008000;opacity:0.5;"/>
   </g>
   <g id="patch_188">
    <path clip-path="url(#p21c95bd2b0)" d="M 564.545455 630 
L 576.72 630 
L 576.72 630 
L 564.545455 630 
z
" style="fill:#008000;opacity:0.5;"/>
   </g>
   <g id="patch_189">
    <path clip-path="url(#p21c95bd2b0)" d="M 576.72 630 
L 588.894545 630 
L 588.894545 630 
L 576.72 630 
z
" style="fill:#008000;opacity:0.5;"/>
   </g>
   <g id="patch_190">
    <path clip-path="url(#p21c95bd2b0)" d="M 588.894545 630 
L 601.069091 630 
L 601.069091 630 
L 588.894545 630 
z
" style="fill:#008000;opacity:0.5;"/>
   </g>
   <g id="patch_191">
    <path clip-path="url(#p21c95bd2b0)" d="M 601.069091 630 
L 613.243636 630 
L 613.243636 630 
L 601.069091 630 
z
" style="fill:#008000;opacity:0.5;"/>
   </g>
   <g id="patch_192">
    <path clip-path="url(#p21c95bd2b0)" d="M 613.243636 630 
L 625.418182 630 
L 625.418182 630 
L 613.243636 630 
z
" style="fill:#008000;opacity:0.5;"/>
   </g>
   <g id="patch_193">
    <path clip-path="url(#p21c95bd2b0)" d="M 625.418182 630 
L 637.592727 630 
L 637.592727 630 
L 625.418182 630 
z
" style="fill:#008000;opacity:0.5;"/>
   </g>
   <g id="patch_194">
    <path clip-path="url(#p21c95bd2b0)" d="M 637.592727 630 
L 649.767273 630 
L 649.767273 630 
L 637.592727 630 
z
" style="fill:#008000;opacity:0.5;"/>
   </g>
   <g id="patch_195">
    <path clip-path="url(#p21c95bd2b0)" d="M 649.767273 630 
L 661.941818 630 
L 661.941818 630 
L 649.767273 630 
z
" style="fill:#008000;opacity:0.5;"/>
   </g>
   <g id="patch_196">
    <path clip-path="url(#p21c95bd2b0)" d="M 661.941818 630 
L 674.116364 630 
L 674.116364 630 
L 661.941818 630 
z
" style="fill:#008000;opacity:0.5;"/>
   </g>
   <g id="patch_197">
    <path clip-path="url(#p21c95bd2b0)" d="M 674.116364 630 
L 686.290909 630 
L 686.290909 630 
L 674.116364 630 
z
" style="fill:#008000;opacity:0.5;"/>
   </g>
   <g id="patch_198">
    <path clip-path="url(#p21c95bd2b0)" d="M 686.290909 630 
L 698.465455 630 
L 698.465455 630 
L 686.290909 630 
z
" style="fill:#008000;opacity:0.5;"/>
   </g>
   <g id="patch_199">
    <path clip-path="url(#p21c95bd2b0)" d="M 698.465455 630 
L 710.64 630 
L 710.64 630 
L 698.465455 630 
z
" style="fill:#008000;opacity:0.5;"/>
   </g>
   <g id="patch_200">
    <path clip-path="url(#p21c95bd2b0)" d="M 710.64 630 
L 722.814545 630 
L 722.814545 630 
L 710.64 630 
z
" style="fill:#008000;opacity:0.5;"/>
   </g>
   <g id="patch_201">
    <path clip-path="url(#p21c95bd2b0)" d="M 722.814545 630 
L 734.989091 630 
L 734.989091 630 
L 722.814545 630 
z
" style="fill:#008000;opacity:0.5;"/>
   </g>
   <g id="patch_202">
    <path clip-path="url(#p21c95bd2b0)" d="M 734.989091 630 
L 747.163636 630 
L 747.163636 618.02484 
L 734.989091 618.02484 
z
" style="fill:#008000;opacity:0.5;"/>
   </g>
   <g id="matplotlib.axis_1">
    <g id="xtick_1">
     <g id="line2d_1">
      <defs>
       <path d="M 0 0 
L 0 3.5 
" id="m9d9175c538" style="stroke:#000000;stroke-width:0.8;"/>
      </defs>
      <g>
       <use style="stroke:#000000;stroke-width:0.8;" x="210.95437" xlink:href="#m9d9175c538" y="630"/>
      </g>
     </g>
     <g id="text_1">
      <!-- −3 -->
      <defs>
       <path d="M 10.59375 35.5 
L 73.1875 35.5 
L 73.1875 27.203125 
L 10.59375 27.203125 
z
" id="DejaVuSans-8722"/>
       <path d="M 40.578125 39.3125 
Q 47.65625 37.796875 51.625 33 
Q 55.609375 28.21875 55.609375 21.1875 
Q 55.609375 10.40625 48.1875 4.484375 
Q 40.765625 -1.421875 27.09375 -1.421875 
Q 22.515625 -1.421875 17.65625 -0.515625 
Q 12.796875 0.390625 7.625 2.203125 
L 7.625 11.71875 
Q 11.71875 9.328125 16.59375 8.109375 
Q 21.484375 6.890625 26.8125 6.890625 
Q 36.078125 6.890625 40.9375 10.546875 
Q 45.796875 14.203125 45.796875 21.1875 
Q 45.796875 27.640625 41.28125 31.265625 
Q 36.765625 34.90625 28.71875 34.90625 
L 20.21875 34.90625 
L 20.21875 43.015625 
L 29.109375 43.015625 
Q 36.375 43.015625 40.234375 45.921875 
Q 44.09375 48.828125 44.09375 54.296875 
Q 44.09375 59.90625 40.109375 62.90625 
Q 36.140625 65.921875 28.71875 65.921875 
Q 24.65625 65.921875 20.015625 65.03125 
Q 15.375 64.15625 9.8125 62.3125 
L 9.8125 71.09375 
Q 15.4375 72.65625 20.34375 73.4375 
Q 25.25 74.21875 29.59375 74.21875 
Q 40.828125 74.21875 47.359375 69.109375 
Q 53.90625 64.015625 53.90625 55.328125 
Q 53.90625 49.265625 50.4375 45.09375 
Q 46.96875 40.921875 40.578125 39.3125 
z
" id="DejaVuSans-51"/>
      </defs>
      <g transform="translate(203.583276 644.598438)scale(0.1 -0.1)">
       <use xlink:href="#DejaVuSans-8722"/>
       <use x="83.789062" xlink:href="#DejaVuSans-51"/>
      </g>
     </g>
    </g>
    <g id="xtick_2">
     <g id="line2d_2">
      <g>
       <use style="stroke:#000000;stroke-width:0.8;" x="314.484459" xlink:href="#m9d9175c538" y="630"/>
      </g>
     </g>
     <g id="text_2">
      <!-- −2 -->
      <defs>
       <path d="M 19.1875 8.296875 
L 53.609375 8.296875 
L 53.609375 0 
L 7.328125 0 
L 7.328125 8.296875 
Q 12.9375 14.109375 22.625 23.890625 
Q 32.328125 33.6875 34.8125 36.53125 
Q 39.546875 41.84375 41.421875 45.53125 
Q 43.3125 49.21875 43.3125 52.78125 
Q 43.3125 58.59375 39.234375 62.25 
Q 35.15625 65.921875 28.609375 65.921875 
Q 23.96875 65.921875 18.8125 64.3125 
Q 13.671875 62.703125 7.8125 59.421875 
L 7.8125 69.390625 
Q 13.765625 71.78125 18.9375 73 
Q 24.125 74.21875 28.421875 74.21875 
Q 39.75 74.21875 46.484375 68.546875 
Q 53.21875 62.890625 53.21875 53.421875 
Q 53.21875 48.921875 51.53125 44.890625 
Q 49.859375 40.875 45.40625 35.40625 
Q 44.1875 33.984375 37.640625 27.21875 
Q 31.109375 20.453125 19.1875 8.296875 
z
" id="DejaVuSans-50"/>
      </defs>
      <g transform="translate(307.113366 644.598438)scale(0.1 -0.1)">
       <use xlink:href="#DejaVuSans-8722"/>
       <use x="83.789062" xlink:href="#DejaVuSans-50"/>
      </g>
     </g>
    </g>
    <g id="xtick_3">
     <g id="line2d_3">
      <g>
       <use style="stroke:#000000;stroke-width:0.8;" x="418.014549" xlink:href="#m9d9175c538" y="630"/>
      </g>
     </g>
     <g id="text_3">
      <!-- −1 -->
      <defs>
       <path d="M 12.40625 8.296875 
L 28.515625 8.296875 
L 28.515625 63.921875 
L 10.984375 60.40625 
L 10.984375 69.390625 
L 28.421875 72.90625 
L 38.28125 72.90625 
L 38.28125 8.296875 
L 54.390625 8.296875 
L 54.390625 0 
L 12.40625 0 
z
" id="DejaVuSans-49"/>
      </defs>
      <g transform="translate(410.643455 644.598438)scale(0.1 -0.1)">
       <use xlink:href="#DejaVuSans-8722"/>
       <use x="83.789062" xlink:href="#DejaVuSans-49"/>
      </g>
     </g>
    </g>
    <g id="xtick_4">
     <g id="line2d_4">
      <g>
       <use style="stroke:#000000;stroke-width:0.8;" x="521.544638" xlink:href="#m9d9175c538" y="630"/>
      </g>
     </g>
     <g id="text_4">
      <!-- 0 -->
      <defs>
       <path d="M 31.78125 66.40625 
Q 24.171875 66.40625 20.328125 58.90625 
Q 16.5 51.421875 16.5 36.375 
Q 16.5 21.390625 20.328125 13.890625 
Q 24.171875 6.390625 31.78125 6.390625 
Q 39.453125 6.390625 43.28125 13.890625 
Q 47.125 21.390625 47.125 36.375 
Q 47.125 51.421875 43.28125 58.90625 
Q 39.453125 66.40625 31.78125 66.40625 
z
M 31.78125 74.21875 
Q 44.046875 74.21875 50.515625 64.515625 
Q 56.984375 54.828125 56.984375 36.375 
Q 56.984375 17.96875 50.515625 8.265625 
Q 44.046875 -1.421875 31.78125 -1.421875 
Q 19.53125 -1.421875 13.0625 8.265625 
Q 6.59375 17.96875 6.59375 36.375 
Q 6.59375 54.828125 13.0625 64.515625 
Q 19.53125 74.21875 31.78125 74.21875 
z
" id="DejaVuSans-48"/>
      </defs>
      <g transform="translate(518.363388 644.598438)scale(0.1 -0.1)">
       <use xlink:href="#DejaVuSans-48"/>
      </g>
     </g>
    </g>
    <g id="xtick_5">
     <g id="line2d_5">
      <g>
       <use style="stroke:#000000;stroke-width:0.8;" x="625.074728" xlink:href="#m9d9175c538" y="630"/>
      </g>
     </g>
     <g id="text_5">
      <!-- 1 -->
      <g transform="translate(621.893478 644.598438)scale(0.1 -0.1)">
       <use xlink:href="#DejaVuSans-49"/>
      </g>
     </g>
    </g>
    <g id="xtick_6">
     <g id="line2d_6">
      <g>
       <use style="stroke:#000000;stroke-width:0.8;" x="728.604817" xlink:href="#m9d9175c538" y="630"/>
      </g>
     </g>
     <g id="text_6">
      <!-- 2 -->
      <g transform="translate(725.423567 644.598438)scale(0.1 -0.1)">
       <use xlink:href="#DejaVuSans-50"/>
      </g>
     </g>
    </g>
   </g>
   <g id="matplotlib.axis_2">
    <g id="ytick_1">
     <g id="line2d_7">
      <defs>
       <path d="M 0 0 
L -3.5 0 
" id="mbc0b0d3dc6" style="stroke:#000000;stroke-width:0.8;"/>
      </defs>
      <g>
       <use style="stroke:#000000;stroke-width:0.8;" x="108" xlink:href="#mbc0b0d3dc6" y="630"/>
      </g>
     </g>
     <g id="text_7">
      <!-- 0 -->
      <g transform="translate(94.6375 633.799219)scale(0.1 -0.1)">
       <use xlink:href="#DejaVuSans-48"/>
      </g>
     </g>
    </g>
    <g id="ytick_2">
     <g id="line2d_8">
      <g>
       <use style="stroke:#000000;stroke-width:0.8;" x="108" xlink:href="#mbc0b0d3dc6" y="559.589491"/>
      </g>
     </g>
     <g id="text_8">
      <!-- 5 -->
      <defs>
       <path d="M 10.796875 72.90625 
L 49.515625 72.90625 
L 49.515625 64.59375 
L 19.828125 64.59375 
L 19.828125 46.734375 
Q 21.96875 47.46875 24.109375 47.828125 
Q 26.265625 48.1875 28.421875 48.1875 
Q 40.625 48.1875 47.75 41.5 
Q 54.890625 34.8125 54.890625 23.390625 
Q 54.890625 11.625 47.5625 5.09375 
Q 40.234375 -1.421875 26.90625 -1.421875 
Q 22.3125 -1.421875 17.546875 -0.640625 
Q 12.796875 0.140625 7.71875 1.703125 
L 7.71875 11.625 
Q 12.109375 9.234375 16.796875 8.0625 
Q 21.484375 6.890625 26.703125 6.890625 
Q 35.15625 6.890625 40.078125 11.328125 
Q 45.015625 15.765625 45.015625 23.390625 
Q 45.015625 31 40.078125 35.4375 
Q 35.15625 39.890625 26.703125 39.890625 
Q 22.75 39.890625 18.8125 39.015625 
Q 14.890625 38.140625 10.796875 36.28125 
z
" id="DejaVuSans-53"/>
      </defs>
      <g transform="translate(94.6375 563.38871)scale(0.1 -0.1)">
       <use xlink:href="#DejaVuSans-53"/>
      </g>
     </g>
    </g>
    <g id="ytick_3">
     <g id="line2d_9">
      <g>
       <use style="stroke:#000000;stroke-width:0.8;" x="108" xlink:href="#mbc0b0d3dc6" y="489.178982"/>
      </g>
     </g>
     <g id="text_9">
      <!-- 10 -->
      <g transform="translate(88.275 492.978201)scale(0.1 -0.1)">
       <use xlink:href="#DejaVuSans-49"/>
       <use x="63.623047" xlink:href="#DejaVuSans-48"/>
      </g>
     </g>
    </g>
    <g id="ytick_4">
     <g id="line2d_10">
      <g>
       <use style="stroke:#000000;stroke-width:0.8;" x="108" xlink:href="#mbc0b0d3dc6" y="418.768473"/>
      </g>
     </g>
     <g id="text_10">
      <!-- 15 -->
      <g transform="translate(88.275 422.567692)scale(0.1 -0.1)">
       <use xlink:href="#DejaVuSans-49"/>
       <use x="63.623047" xlink:href="#DejaVuSans-53"/>
      </g>
     </g>
    </g>
    <g id="ytick_5">
     <g id="line2d_11">
      <g>
       <use style="stroke:#000000;stroke-width:0.8;" x="108" xlink:href="#mbc0b0d3dc6" y="348.357964"/>
      </g>
     </g>
     <g id="text_11">
      <!-- 20 -->
      <g transform="translate(88.275 352.157182)scale(0.1 -0.1)">
       <use xlink:href="#DejaVuSans-50"/>
       <use x="63.623047" xlink:href="#DejaVuSans-48"/>
      </g>
     </g>
    </g>
    <g id="ytick_6">
     <g id="line2d_12">
      <g>
       <use style="stroke:#000000;stroke-width:0.8;" x="108" xlink:href="#mbc0b0d3dc6" y="277.947455"/>
      </g>
     </g>
     <g id="text_12">
      <!-- 25 -->
      <g transform="translate(88.275 281.746673)scale(0.1 -0.1)">
       <use xlink:href="#DejaVuSans-50"/>
       <use x="63.623047" xlink:href="#DejaVuSans-53"/>
      </g>
     </g>
    </g>
    <g id="ytick_7">
     <g id="line2d_13">
      <g>
       <use style="stroke:#000000;stroke-width:0.8;" x="108" xlink:href="#mbc0b0d3dc6" y="207.536946"/>
      </g>
     </g>
     <g id="text_13">
      <!-- 30 -->
      <g transform="translate(88.275 211.336164)scale(0.1 -0.1)">
       <use xlink:href="#DejaVuSans-51"/>
       <use x="63.623047" xlink:href="#DejaVuSans-48"/>
      </g>
     </g>
    </g>
    <g id="ytick_8">
     <g id="line2d_14">
      <g>
       <use style="stroke:#000000;stroke-width:0.8;" x="108" xlink:href="#mbc0b0d3dc6" y="137.126437"/>
      </g>
     </g>
     <g id="text_14">
      <!-- 35 -->
      <g transform="translate(88.275 140.925655)scale(0.1 -0.1)">
       <use xlink:href="#DejaVuSans-51"/>
       <use x="63.623047" xlink:href="#DejaVuSans-53"/>
      </g>
     </g>
    </g>
   </g>
   <g id="patch_203">
    <path d="M 108 630 
L 108 86.4 
" style="fill:none;stroke:#000000;stroke-linecap:square;stroke-linejoin:miter;stroke-width:0.8;"/>
   </g>
   <g id="patch_204">
    <path d="M 777.6 630 
L 777.6 86.4 
" style="fill:none;stroke:#000000;stroke-linecap:square;stroke-linejoin:miter;stroke-width:0.8;"/>
   </g>
   <g id="patch_205">
    <path d="M 108 630 
L 777.6 630 
" style="fill:none;stroke:#000000;stroke-linecap:square;stroke-linejoin:miter;stroke-width:0.8;"/>
   </g>
   <g id="patch_206">
    <path d="M 108 86.4 
L 777.6 86.4 
" style="fill:none;stroke:#000000;stroke-linecap:square;stroke-linejoin:miter;stroke-width:0.8;"/>
   </g>
   <g id="text_15">
    <!-- In-Out Nodes strength last layer -->
    <defs>
     <path d="M 9.8125 72.90625 
L 19.671875 72.90625 
L 19.671875 0 
L 9.8125 0 
z
" id="DejaVuSans-73"/>
     <path d="M 54.890625 33.015625 
L 54.890625 0 
L 45.90625 0 
L 45.90625 32.71875 
Q 45.90625 40.484375 42.875 44.328125 
Q 39.84375 48.1875 33.796875 48.1875 
Q 26.515625 48.1875 22.3125 43.546875 
Q 18.109375 38.921875 18.109375 30.90625 
L 18.109375 0 
L 9.078125 0 
L 9.078125 54.6875 
L 18.109375 54.6875 
L 18.109375 46.1875 
Q 21.34375 51.125 25.703125 53.5625 
Q 30.078125 56 35.796875 56 
Q 45.21875 56 50.046875 50.171875 
Q 54.890625 44.34375 54.890625 33.015625 
z
" id="DejaVuSans-110"/>
     <path d="M 4.890625 31.390625 
L 31.203125 31.390625 
L 31.203125 23.390625 
L 4.890625 23.390625 
z
" id="DejaVuSans-45"/>
     <path d="M 39.40625 66.21875 
Q 28.65625 66.21875 22.328125 58.203125 
Q 16.015625 50.203125 16.015625 36.375 
Q 16.015625 22.609375 22.328125 14.59375 
Q 28.65625 6.59375 39.40625 6.59375 
Q 50.140625 6.59375 56.421875 14.59375 
Q 62.703125 22.609375 62.703125 36.375 
Q 62.703125 50.203125 56.421875 58.203125 
Q 50.140625 66.21875 39.40625 66.21875 
z
M 39.40625 74.21875 
Q 54.734375 74.21875 63.90625 63.9375 
Q 73.09375 53.65625 73.09375 36.375 
Q 73.09375 19.140625 63.90625 8.859375 
Q 54.734375 -1.421875 39.40625 -1.421875 
Q 24.03125 -1.421875 14.8125 8.828125 
Q 5.609375 19.09375 5.609375 36.375 
Q 5.609375 53.65625 14.8125 63.9375 
Q 24.03125 74.21875 39.40625 74.21875 
z
" id="DejaVuSans-79"/>
     <path d="M 8.5 21.578125 
L 8.5 54.6875 
L 17.484375 54.6875 
L 17.484375 21.921875 
Q 17.484375 14.15625 20.5 10.265625 
Q 23.53125 6.390625 29.59375 6.390625 
Q 36.859375 6.390625 41.078125 11.03125 
Q 45.3125 15.671875 45.3125 23.6875 
L 45.3125 54.6875 
L 54.296875 54.6875 
L 54.296875 0 
L 45.3125 0 
L 45.3125 8.40625 
Q 42.046875 3.421875 37.71875 1 
Q 33.40625 -1.421875 27.6875 -1.421875 
Q 18.265625 -1.421875 13.375 4.4375 
Q 8.5 10.296875 8.5 21.578125 
z
M 31.109375 56 
z
" id="DejaVuSans-117"/>
     <path d="M 18.3125 70.21875 
L 18.3125 54.6875 
L 36.8125 54.6875 
L 36.8125 47.703125 
L 18.3125 47.703125 
L 18.3125 18.015625 
Q 18.3125 11.328125 20.140625 9.421875 
Q 21.96875 7.515625 27.59375 7.515625 
L 36.8125 7.515625 
L 36.8125 0 
L 27.59375 0 
Q 17.1875 0 13.234375 3.875 
Q 9.28125 7.765625 9.28125 18.015625 
L 9.28125 47.703125 
L 2.6875 47.703125 
L 2.6875 54.6875 
L 9.28125 54.6875 
L 9.28125 70.21875 
z
" id="DejaVuSans-116"/>
     <path id="DejaVuSans-32"/>
     <path d="M 9.8125 72.90625 
L 23.09375 72.90625 
L 55.421875 11.921875 
L 55.421875 72.90625 
L 64.984375 72.90625 
L 64.984375 0 
L 51.703125 0 
L 19.390625 60.984375 
L 19.390625 0 
L 9.8125 0 
z
" id="DejaVuSans-78"/>
     <path d="M 30.609375 48.390625 
Q 23.390625 48.390625 19.1875 42.75 
Q 14.984375 37.109375 14.984375 27.296875 
Q 14.984375 17.484375 19.15625 11.84375 
Q 23.34375 6.203125 30.609375 6.203125 
Q 37.796875 6.203125 41.984375 11.859375 
Q 46.1875 17.53125 46.1875 27.296875 
Q 46.1875 37.015625 41.984375 42.703125 
Q 37.796875 48.390625 30.609375 48.390625 
z
M 30.609375 56 
Q 42.328125 56 49.015625 48.375 
Q 55.71875 40.765625 55.71875 27.296875 
Q 55.71875 13.875 49.015625 6.21875 
Q 42.328125 -1.421875 30.609375 -1.421875 
Q 18.84375 -1.421875 12.171875 6.21875 
Q 5.515625 13.875 5.515625 27.296875 
Q 5.515625 40.765625 12.171875 48.375 
Q 18.84375 56 30.609375 56 
z
" id="DejaVuSans-111"/>
     <path d="M 45.40625 46.390625 
L 45.40625 75.984375 
L 54.390625 75.984375 
L 54.390625 0 
L 45.40625 0 
L 45.40625 8.203125 
Q 42.578125 3.328125 38.25 0.953125 
Q 33.9375 -1.421875 27.875 -1.421875 
Q 17.96875 -1.421875 11.734375 6.484375 
Q 5.515625 14.40625 5.515625 27.296875 
Q 5.515625 40.1875 11.734375 48.09375 
Q 17.96875 56 27.875 56 
Q 33.9375 56 38.25 53.625 
Q 42.578125 51.265625 45.40625 46.390625 
z
M 14.796875 27.296875 
Q 14.796875 17.390625 18.875 11.75 
Q 22.953125 6.109375 30.078125 6.109375 
Q 37.203125 6.109375 41.296875 11.75 
Q 45.40625 17.390625 45.40625 27.296875 
Q 45.40625 37.203125 41.296875 42.84375 
Q 37.203125 48.484375 30.078125 48.484375 
Q 22.953125 48.484375 18.875 42.84375 
Q 14.796875 37.203125 14.796875 27.296875 
z
" id="DejaVuSans-100"/>
     <path d="M 56.203125 29.59375 
L 56.203125 25.203125 
L 14.890625 25.203125 
Q 15.484375 15.921875 20.484375 11.0625 
Q 25.484375 6.203125 34.421875 6.203125 
Q 39.59375 6.203125 44.453125 7.46875 
Q 49.3125 8.734375 54.109375 11.28125 
L 54.109375 2.78125 
Q 49.265625 0.734375 44.1875 -0.34375 
Q 39.109375 -1.421875 33.890625 -1.421875 
Q 20.796875 -1.421875 13.15625 6.1875 
Q 5.515625 13.8125 5.515625 26.8125 
Q 5.515625 40.234375 12.765625 48.109375 
Q 20.015625 56 32.328125 56 
Q 43.359375 56 49.78125 48.890625 
Q 56.203125 41.796875 56.203125 29.59375 
z
M 47.21875 32.234375 
Q 47.125 39.59375 43.09375 43.984375 
Q 39.0625 48.390625 32.421875 48.390625 
Q 24.90625 48.390625 20.390625 44.140625 
Q 15.875 39.890625 15.1875 32.171875 
z
" id="DejaVuSans-101"/>
     <path d="M 44.28125 53.078125 
L 44.28125 44.578125 
Q 40.484375 46.53125 36.375 47.5 
Q 32.28125 48.484375 27.875 48.484375 
Q 21.1875 48.484375 17.84375 46.4375 
Q 14.5 44.390625 14.5 40.28125 
Q 14.5 37.15625 16.890625 35.375 
Q 19.28125 33.59375 26.515625 31.984375 
L 29.59375 31.296875 
Q 39.15625 29.25 43.1875 25.515625 
Q 47.21875 21.78125 47.21875 15.09375 
Q 47.21875 7.46875 41.1875 3.015625 
Q 35.15625 -1.421875 24.609375 -1.421875 
Q 20.21875 -1.421875 15.453125 -0.5625 
Q 10.6875 0.296875 5.421875 2 
L 5.421875 11.28125 
Q 10.40625 8.6875 15.234375 7.390625 
Q 20.0625 6.109375 24.8125 6.109375 
Q 31.15625 6.109375 34.5625 8.28125 
Q 37.984375 10.453125 37.984375 14.40625 
Q 37.984375 18.0625 35.515625 20.015625 
Q 33.0625 21.96875 24.703125 23.78125 
L 21.578125 24.515625 
Q 13.234375 26.265625 9.515625 29.90625 
Q 5.8125 33.546875 5.8125 39.890625 
Q 5.8125 47.609375 11.28125 51.796875 
Q 16.75 56 26.8125 56 
Q 31.78125 56 36.171875 55.265625 
Q 40.578125 54.546875 44.28125 53.078125 
z
" id="DejaVuSans-115"/>
     <path d="M 41.109375 46.296875 
Q 39.59375 47.171875 37.8125 47.578125 
Q 36.03125 48 33.890625 48 
Q 26.265625 48 22.1875 43.046875 
Q 18.109375 38.09375 18.109375 28.8125 
L 18.109375 0 
L 9.078125 0 
L 9.078125 54.6875 
L 18.109375 54.6875 
L 18.109375 46.1875 
Q 20.953125 51.171875 25.484375 53.578125 
Q 30.03125 56 36.53125 56 
Q 37.453125 56 38.578125 55.875 
Q 39.703125 55.765625 41.0625 55.515625 
z
" id="DejaVuSans-114"/>
     <path d="M 45.40625 27.984375 
Q 45.40625 37.75 41.375 43.109375 
Q 37.359375 48.484375 30.078125 48.484375 
Q 22.859375 48.484375 18.828125 43.109375 
Q 14.796875 37.75 14.796875 27.984375 
Q 14.796875 18.265625 18.828125 12.890625 
Q 22.859375 7.515625 30.078125 7.515625 
Q 37.359375 7.515625 41.375 12.890625 
Q 45.40625 18.265625 45.40625 27.984375 
z
M 54.390625 6.78125 
Q 54.390625 -7.171875 48.1875 -13.984375 
Q 42 -20.796875 29.203125 -20.796875 
Q 24.46875 -20.796875 20.265625 -20.09375 
Q 16.0625 -19.390625 12.109375 -17.921875 
L 12.109375 -9.1875 
Q 16.0625 -11.328125 19.921875 -12.34375 
Q 23.78125 -13.375 27.78125 -13.375 
Q 36.625 -13.375 41.015625 -8.765625 
Q 45.40625 -4.15625 45.40625 5.171875 
L 45.40625 9.625 
Q 42.625 4.78125 38.28125 2.390625 
Q 33.9375 0 27.875 0 
Q 17.828125 0 11.671875 7.65625 
Q 5.515625 15.328125 5.515625 27.984375 
Q 5.515625 40.671875 11.671875 48.328125 
Q 17.828125 56 27.875 56 
Q 33.9375 56 38.28125 53.609375 
Q 42.625 51.21875 45.40625 46.390625 
L 45.40625 54.6875 
L 54.390625 54.6875 
z
" id="DejaVuSans-103"/>
     <path d="M 54.890625 33.015625 
L 54.890625 0 
L 45.90625 0 
L 45.90625 32.71875 
Q 45.90625 40.484375 42.875 44.328125 
Q 39.84375 48.1875 33.796875 48.1875 
Q 26.515625 48.1875 22.3125 43.546875 
Q 18.109375 38.921875 18.109375 30.90625 
L 18.109375 0 
L 9.078125 0 
L 9.078125 75.984375 
L 18.109375 75.984375 
L 18.109375 46.1875 
Q 21.34375 51.125 25.703125 53.5625 
Q 30.078125 56 35.796875 56 
Q 45.21875 56 50.046875 50.171875 
Q 54.890625 44.34375 54.890625 33.015625 
z
" id="DejaVuSans-104"/>
     <path d="M 9.421875 75.984375 
L 18.40625 75.984375 
L 18.40625 0 
L 9.421875 0 
z
" id="DejaVuSans-108"/>
     <path d="M 34.28125 27.484375 
Q 23.390625 27.484375 19.1875 25 
Q 14.984375 22.515625 14.984375 16.5 
Q 14.984375 11.71875 18.140625 8.90625 
Q 21.296875 6.109375 26.703125 6.109375 
Q 34.1875 6.109375 38.703125 11.40625 
Q 43.21875 16.703125 43.21875 25.484375 
L 43.21875 27.484375 
z
M 52.203125 31.203125 
L 52.203125 0 
L 43.21875 0 
L 43.21875 8.296875 
Q 40.140625 3.328125 35.546875 0.953125 
Q 30.953125 -1.421875 24.3125 -1.421875 
Q 15.921875 -1.421875 10.953125 3.296875 
Q 6 8.015625 6 15.921875 
Q 6 25.140625 12.171875 29.828125 
Q 18.359375 34.515625 30.609375 34.515625 
L 43.21875 34.515625 
L 43.21875 35.40625 
Q 43.21875 41.609375 39.140625 45 
Q 35.0625 48.390625 27.6875 48.390625 
Q 23 48.390625 18.546875 47.265625 
Q 14.109375 46.140625 10.015625 43.890625 
L 10.015625 52.203125 
Q 14.9375 54.109375 19.578125 55.046875 
Q 24.21875 56 28.609375 56 
Q 40.484375 56 46.34375 49.84375 
Q 52.203125 43.703125 52.203125 31.203125 
z
" id="DejaVuSans-97"/>
     <path d="M 32.171875 -5.078125 
Q 28.375 -14.84375 24.75 -17.8125 
Q 21.140625 -20.796875 15.09375 -20.796875 
L 7.90625 -20.796875 
L 7.90625 -13.28125 
L 13.1875 -13.28125 
Q 16.890625 -13.28125 18.9375 -11.515625 
Q 21 -9.765625 23.484375 -3.21875 
L 25.09375 0.875 
L 2.984375 54.6875 
L 12.5 54.6875 
L 29.59375 11.921875 
L 46.6875 54.6875 
L 56.203125 54.6875 
z
" id="DejaVuSans-121"/>
    </defs>
    <g transform="translate(346.493438 80.4)scale(0.12 -0.12)">
     <use xlink:href="#DejaVuSans-73"/>
     <use x="29.492188" xlink:href="#DejaVuSans-110"/>
     <use x="92.871094" xlink:href="#DejaVuSans-45"/>
     <use x="128.986328" xlink:href="#DejaVuSans-79"/>
     <use x="207.697266" xlink:href="#DejaVuSans-117"/>
     <use x="271.076172" xlink:href="#DejaVuSans-116"/>
     <use x="310.285156" xlink:href="#DejaVuSans-32"/>
     <use x="342.072266" xlink:href="#DejaVuSans-78"/>
     <use x="416.876953" xlink:href="#DejaVuSans-111"/>
     <use x="478.058594" xlink:href="#DejaVuSans-100"/>
     <use x="541.535156" xlink:href="#DejaVuSans-101"/>
     <use x="603.058594" xlink:href="#DejaVuSans-115"/>
     <use x="655.158203" xlink:href="#DejaVuSans-32"/>
     <use x="686.945312" xlink:href="#DejaVuSans-115"/>
     <use x="739.044922" xlink:href="#DejaVuSans-116"/>
     <use x="778.253906" xlink:href="#DejaVuSans-114"/>
     <use x="819.335938" xlink:href="#DejaVuSans-101"/>
     <use x="880.859375" xlink:href="#DejaVuSans-110"/>
     <use x="944.238281" xlink:href="#DejaVuSans-103"/>
     <use x="1007.714844" xlink:href="#DejaVuSans-116"/>
     <use x="1046.923828" xlink:href="#DejaVuSans-104"/>
     <use x="1110.302734" xlink:href="#DejaVuSans-32"/>
     <use x="1142.089844" xlink:href="#DejaVuSans-108"/>
     <use x="1169.873047" xlink:href="#DejaVuSans-97"/>
     <use x="1231.152344" xlink:href="#DejaVuSans-115"/>
     <use x="1283.251953" xlink:href="#DejaVuSans-116"/>
     <use x="1322.460938" xlink:href="#DejaVuSans-32"/>
     <use x="1354.248047" xlink:href="#DejaVuSans-108"/>
     <use x="1382.03125" xlink:href="#DejaVuSans-97"/>
     <use x="1443.310547" xlink:href="#DejaVuSans-121"/>
     <use x="1502.490234" xlink:href="#DejaVuSans-101"/>
     <use x="1564.013672" xlink:href="#DejaVuSans-114"/>
    </g>
   </g>
   <g id="legend_1">
    <g id="patch_207">
     <path d="M 664.101562 154.225 
L 770.6 154.225 
Q 772.6 154.225 772.6 152.225 
L 772.6 93.4 
Q 772.6 91.4 770.6 91.4 
L 664.101562 91.4 
Q 662.101562 91.4 662.101562 93.4 
L 662.101562 152.225 
Q 662.101562 154.225 664.101562 154.225 
z
" style="fill:#ffffff;opacity:0.8;stroke:#cccccc;stroke-linejoin:miter;"/>
    </g>
    <g id="patch_208">
     <path d="M 666.101562 102.998437 
L 686.101562 102.998437 
L 686.101562 95.998437 
L 666.101562 95.998437 
z
" style="fill:#ff0000;opacity:0.5;"/>
    </g>
    <g id="text_16">
     <!-- s_in first gen. -->
     <defs>
      <path d="M 50.984375 -16.609375 
L 50.984375 -23.578125 
L -0.984375 -23.578125 
L -0.984375 -16.609375 
z
" id="DejaVuSans-95"/>
      <path d="M 9.421875 54.6875 
L 18.40625 54.6875 
L 18.40625 0 
L 9.421875 0 
z
M 9.421875 75.984375 
L 18.40625 75.984375 
L 18.40625 64.59375 
L 9.421875 64.59375 
z
" id="DejaVuSans-105"/>
      <path d="M 37.109375 75.984375 
L 37.109375 68.5 
L 28.515625 68.5 
Q 23.6875 68.5 21.796875 66.546875 
Q 19.921875 64.59375 19.921875 59.515625 
L 19.921875 54.6875 
L 34.71875 54.6875 
L 34.71875 47.703125 
L 19.921875 47.703125 
L 19.921875 0 
L 10.890625 0 
L 10.890625 47.703125 
L 2.296875 47.703125 
L 2.296875 54.6875 
L 10.890625 54.6875 
L 10.890625 58.5 
Q 10.890625 67.625 15.140625 71.796875 
Q 19.390625 75.984375 28.609375 75.984375 
z
" id="DejaVuSans-102"/>
      <path d="M 10.6875 12.40625 
L 21 12.40625 
L 21 0 
L 10.6875 0 
z
" id="DejaVuSans-46"/>
     </defs>
     <g transform="translate(694.101562 102.998437)scale(0.1 -0.1)">
      <use xlink:href="#DejaVuSans-115"/>
      <use x="52.099609" xlink:href="#DejaVuSans-95"/>
      <use x="102.099609" xlink:href="#DejaVuSans-105"/>
      <use x="129.882812" xlink:href="#DejaVuSans-110"/>
      <use x="193.261719" xlink:href="#DejaVuSans-32"/>
      <use x="225.048828" xlink:href="#DejaVuSans-102"/>
      <use x="260.253906" xlink:href="#DejaVuSans-105"/>
      <use x="288.037109" xlink:href="#DejaVuSans-114"/>
      <use x="329.150391" xlink:href="#DejaVuSans-115"/>
      <use x="381.25" xlink:href="#DejaVuSans-116"/>
      <use x="420.458984" xlink:href="#DejaVuSans-32"/>
      <use x="452.246094" xlink:href="#DejaVuSans-103"/>
      <use x="515.722656" xlink:href="#DejaVuSans-101"/>
      <use x="577.246094" xlink:href="#DejaVuSans-110"/>
      <use x="640.625" xlink:href="#DejaVuSans-46"/>
     </g>
    </g>
    <g id="patch_209">
     <path d="M 666.101562 117.954687 
L 686.101562 117.954687 
L 686.101562 110.954687 
L 666.101562 110.954687 
z
" style="fill:#ffff00;opacity:0.5;"/>
    </g>
    <g id="text_17">
     <!-- s_in last gen. -->
     <g transform="translate(694.101562 117.954687)scale(0.1 -0.1)">
      <use xlink:href="#DejaVuSans-115"/>
      <use x="52.099609" xlink:href="#DejaVuSans-95"/>
      <use x="102.099609" xlink:href="#DejaVuSans-105"/>
      <use x="129.882812" xlink:href="#DejaVuSans-110"/>
      <use x="193.261719" xlink:href="#DejaVuSans-32"/>
      <use x="225.048828" xlink:href="#DejaVuSans-108"/>
      <use x="252.832031" xlink:href="#DejaVuSans-97"/>
      <use x="314.111328" xlink:href="#DejaVuSans-115"/>
      <use x="366.210938" xlink:href="#DejaVuSans-116"/>
      <use x="405.419922" xlink:href="#DejaVuSans-32"/>
      <use x="437.207031" xlink:href="#DejaVuSans-103"/>
      <use x="500.683594" xlink:href="#DejaVuSans-101"/>
      <use x="562.207031" xlink:href="#DejaVuSans-110"/>
      <use x="625.585938" xlink:href="#DejaVuSans-46"/>
     </g>
    </g>
    <g id="patch_210">
     <path d="M 666.101562 132.910937 
L 686.101562 132.910937 
L 686.101562 125.910937 
L 666.101562 125.910937 
z
" style="fill:#0000ff;opacity:0.5;"/>
    </g>
    <g id="text_18">
     <!-- s_out first gen. -->
     <g transform="translate(694.101562 132.910937)scale(0.1 -0.1)">
      <use xlink:href="#DejaVuSans-115"/>
      <use x="52.099609" xlink:href="#DejaVuSans-95"/>
      <use x="102.099609" xlink:href="#DejaVuSans-111"/>
      <use x="163.28125" xlink:href="#DejaVuSans-117"/>
      <use x="226.660156" xlink:href="#DejaVuSans-116"/>
      <use x="265.869141" xlink:href="#DejaVuSans-32"/>
      <use x="297.65625" xlink:href="#DejaVuSans-102"/>
      <use x="332.861328" xlink:href="#DejaVuSans-105"/>
      <use x="360.644531" xlink:href="#DejaVuSans-114"/>
      <use x="401.757812" xlink:href="#DejaVuSans-115"/>
      <use x="453.857422" xlink:href="#DejaVuSans-116"/>
      <use x="493.066406" xlink:href="#DejaVuSans-32"/>
      <use x="524.853516" xlink:href="#DejaVuSans-103"/>
      <use x="588.330078" xlink:href="#DejaVuSans-101"/>
      <use x="649.853516" xlink:href="#DejaVuSans-110"/>
      <use x="713.232422" xlink:href="#DejaVuSans-46"/>
     </g>
    </g>
    <g id="patch_211">
     <path d="M 666.101562 147.867187 
L 686.101562 147.867187 
L 686.101562 140.867187 
L 666.101562 140.867187 
z
" style="fill:#008000;opacity:0.5;"/>
    </g>
    <g id="text_19">
     <!-- s_out last gen. -->
     <g transform="translate(694.101562 147.867187)scale(0.1 -0.1)">
      <use xlink:href="#DejaVuSans-115"/>
      <use x="52.099609" xlink:href="#DejaVuSans-95"/>
      <use x="102.099609" xlink:href="#DejaVuSans-111"/>
      <use x="163.28125" xlink:href="#DejaVuSans-117"/>
      <use x="226.660156" xlink:href="#DejaVuSans-116"/>
      <use x="265.869141" xlink:href="#DejaVuSans-32"/>
      <use x="297.65625" xlink:href="#DejaVuSans-108"/>
      <use x="325.439453" xlink:href="#DejaVuSans-97"/>
      <use x="386.71875" xlink:href="#DejaVuSans-115"/>
      <use x="438.818359" xlink:href="#DejaVuSans-116"/>
      <use x="478.027344" xlink:href="#DejaVuSans-32"/>
      <use x="509.814453" xlink:href="#DejaVuSans-103"/>
      <use x="573.291016" xlink:href="#DejaVuSans-101"/>
      <use x="634.814453" xlink:href="#DejaVuSans-110"/>
      <use x="698.193359" xlink:href="#DejaVuSans-46"/>
     </g>
    </g>
   </g>
  </g>
 </g>
 <defs>
  <clipPath id="p21c95bd2b0">
   <rect height="543.6" width="669.6" x="108" y="86.4"/>
  </clipPath>
 </defs>
</svg>
