<?xml version="1.0" encoding="utf-8" standalone="no"?>
<!DOCTYPE svg PUBLIC "-//W3C//DTD SVG 1.1//EN"
  "http://www.w3.org/Graphics/SVG/1.1/DTD/svg11.dtd">
<!-- Created with matplotlib (https://matplotlib.org/) -->
<svg height="720pt" version="1.1" viewBox="0 0 864 720" width="864pt" xmlns="http://www.w3.org/2000/svg" xmlns:xlink="http://www.w3.org/1999/xlink">
 <defs>
  <style type="text/css">
*{stroke-linecap:butt;stroke-linejoin:round;white-space:pre;}
  </style>
 </defs>
 <g id="figure_1">
  <g id="patch_1">
   <path d="M 0 720 
L 864 720 
L 864 0 
L 0 0 
z
" style="fill:#ffffff;"/>
  </g>
  <g id="axes_1">
   <g id="patch_2">
    <path d="M 108 630 
L 777.6 630 
L 777.6 86.4 
L 108 86.4 
z
" style="fill:#ffffff;"/>
   </g>
   <g id="patch_3">
    <path clip-path="url(#p82c7cf87d9)" d="M 244.027718 630 
L 254.090437 630 
L 254.090437 514.952381 
L 244.027718 514.952381 
z
" style="fill:#0000ff;opacity:0.5;"/>
   </g>
   <g id="patch_4">
    <path clip-path="url(#p82c7cf87d9)" d="M 254.090437 630 
L 264.153155 630 
L 264.153155 630 
L 254.090437 630 
z
" style="fill:#0000ff;opacity:0.5;"/>
   </g>
   <g id="patch_5">
    <path clip-path="url(#p82c7cf87d9)" d="M 264.153155 630 
L 274.215873 630 
L 274.215873 514.952381 
L 264.153155 514.952381 
z
" style="fill:#0000ff;opacity:0.5;"/>
   </g>
   <g id="patch_6">
    <path clip-path="url(#p82c7cf87d9)" d="M 274.215873 630 
L 284.278592 630 
L 284.278592 572.47619 
L 274.215873 572.47619 
z
" style="fill:#0000ff;opacity:0.5;"/>
   </g>
   <g id="patch_7">
    <path clip-path="url(#p82c7cf87d9)" d="M 284.278592 630 
L 294.34131 630 
L 294.34131 514.952381 
L 284.278592 514.952381 
z
" style="fill:#0000ff;opacity:0.5;"/>
   </g>
   <g id="patch_8">
    <path clip-path="url(#p82c7cf87d9)" d="M 294.34131 630 
L 304.404028 630 
L 304.404028 514.952381 
L 294.34131 514.952381 
z
" style="fill:#0000ff;opacity:0.5;"/>
   </g>
   <g id="patch_9">
    <path clip-path="url(#p82c7cf87d9)" d="M 304.404028 630 
L 314.466747 630 
L 314.466747 572.47619 
L 304.404028 572.47619 
z
" style="fill:#0000ff;opacity:0.5;"/>
   </g>
   <g id="patch_10">
    <path clip-path="url(#p82c7cf87d9)" d="M 314.466747 630 
L 324.529465 630 
L 324.529465 514.952381 
L 314.466747 514.952381 
z
" style="fill:#0000ff;opacity:0.5;"/>
   </g>
   <g id="patch_11">
    <path clip-path="url(#p82c7cf87d9)" d="M 324.529465 630 
L 334.592184 630 
L 334.592184 514.952381 
L 324.529465 514.952381 
z
" style="fill:#0000ff;opacity:0.5;"/>
   </g>
   <g id="patch_12">
    <path clip-path="url(#p82c7cf87d9)" d="M 334.592184 630 
L 344.654902 630 
L 344.654902 399.904762 
L 334.592184 399.904762 
z
" style="fill:#0000ff;opacity:0.5;"/>
   </g>
   <g id="patch_13">
    <path clip-path="url(#p82c7cf87d9)" d="M 344.654902 630 
L 354.71762 630 
L 354.71762 514.952381 
L 344.654902 514.952381 
z
" style="fill:#0000ff;opacity:0.5;"/>
   </g>
   <g id="patch_14">
    <path clip-path="url(#p82c7cf87d9)" d="M 354.71762 630 
L 364.780339 630 
L 364.780339 457.428571 
L 354.71762 457.428571 
z
" style="fill:#0000ff;opacity:0.5;"/>
   </g>
   <g id="patch_15">
    <path clip-path="url(#p82c7cf87d9)" d="M 364.780339 630 
L 374.843057 630 
L 374.843057 399.904762 
L 364.780339 399.904762 
z
" style="fill:#0000ff;opacity:0.5;"/>
   </g>
   <g id="patch_16">
    <path clip-path="url(#p82c7cf87d9)" d="M 374.843057 630 
L 384.905775 630 
L 384.905775 342.380952 
L 374.843057 342.380952 
z
" style="fill:#0000ff;opacity:0.5;"/>
   </g>
   <g id="patch_17">
    <path clip-path="url(#p82c7cf87d9)" d="M 384.905775 630 
L 394.968494 630 
L 394.968494 572.47619 
L 384.905775 572.47619 
z
" style="fill:#0000ff;opacity:0.5;"/>
   </g>
   <g id="patch_18">
    <path clip-path="url(#p82c7cf87d9)" d="M 394.968494 630 
L 405.031212 630 
L 405.031212 227.333333 
L 394.968494 227.333333 
z
" style="fill:#0000ff;opacity:0.5;"/>
   </g>
   <g id="patch_19">
    <path clip-path="url(#p82c7cf87d9)" d="M 405.031212 630 
L 415.09393 630 
L 415.09393 227.333333 
L 405.031212 227.333333 
z
" style="fill:#0000ff;opacity:0.5;"/>
   </g>
   <g id="patch_20">
    <path clip-path="url(#p82c7cf87d9)" d="M 415.09393 630 
L 425.156649 630 
L 425.156649 227.333333 
L 415.09393 227.333333 
z
" style="fill:#0000ff;opacity:0.5;"/>
   </g>
   <g id="patch_21">
    <path clip-path="url(#p82c7cf87d9)" d="M 425.156649 630 
L 435.219367 630 
L 435.219367 457.428571 
L 425.156649 457.428571 
z
" style="fill:#0000ff;opacity:0.5;"/>
   </g>
   <g id="patch_22">
    <path clip-path="url(#p82c7cf87d9)" d="M 435.219367 630 
L 445.282085 630 
L 445.282085 342.380952 
L 435.219367 342.380952 
z
" style="fill:#0000ff;opacity:0.5;"/>
   </g>
   <g id="patch_23">
    <path clip-path="url(#p82c7cf87d9)" d="M 445.282085 630 
L 455.344804 630 
L 455.344804 227.333333 
L 445.282085 227.333333 
z
" style="fill:#0000ff;opacity:0.5;"/>
   </g>
   <g id="patch_24">
    <path clip-path="url(#p82c7cf87d9)" d="M 455.344804 630 
L 465.407522 630 
L 465.407522 112.285714 
L 455.344804 112.285714 
z
" style="fill:#0000ff;opacity:0.5;"/>
   </g>
   <g id="patch_25">
    <path clip-path="url(#p82c7cf87d9)" d="M 465.407522 630 
L 475.470241 630 
L 475.470241 399.904762 
L 465.407522 399.904762 
z
" style="fill:#0000ff;opacity:0.5;"/>
   </g>
   <g id="patch_26">
    <path clip-path="url(#p82c7cf87d9)" d="M 475.470241 630 
L 485.532959 630 
L 485.532959 342.380952 
L 475.470241 342.380952 
z
" style="fill:#0000ff;opacity:0.5;"/>
   </g>
   <g id="patch_27">
    <path clip-path="url(#p82c7cf87d9)" d="M 485.532959 630 
L 495.595677 630 
L 495.595677 227.333333 
L 485.532959 227.333333 
z
" style="fill:#0000ff;opacity:0.5;"/>
   </g>
   <g id="patch_28">
    <path clip-path="url(#p82c7cf87d9)" d="M 495.595677 630 
L 505.658396 630 
L 505.658396 457.428571 
L 495.595677 457.428571 
z
" style="fill:#0000ff;opacity:0.5;"/>
   </g>
   <g id="patch_29">
    <path clip-path="url(#p82c7cf87d9)" d="M 505.658396 630 
L 515.721114 630 
L 515.721114 572.47619 
L 505.658396 572.47619 
z
" style="fill:#0000ff;opacity:0.5;"/>
   </g>
   <g id="patch_30">
    <path clip-path="url(#p82c7cf87d9)" d="M 515.721114 630 
L 525.783832 630 
L 525.783832 342.380952 
L 515.721114 342.380952 
z
" style="fill:#0000ff;opacity:0.5;"/>
   </g>
   <g id="patch_31">
    <path clip-path="url(#p82c7cf87d9)" d="M 525.783832 630 
L 535.846551 630 
L 535.846551 514.952381 
L 525.783832 514.952381 
z
" style="fill:#0000ff;opacity:0.5;"/>
   </g>
   <g id="patch_32">
    <path clip-path="url(#p82c7cf87d9)" d="M 535.846551 630 
L 545.909269 630 
L 545.909269 399.904762 
L 535.846551 399.904762 
z
" style="fill:#0000ff;opacity:0.5;"/>
   </g>
   <g id="patch_33">
    <path clip-path="url(#p82c7cf87d9)" d="M 545.909269 630 
L 555.971987 630 
L 555.971987 572.47619 
L 545.909269 572.47619 
z
" style="fill:#0000ff;opacity:0.5;"/>
   </g>
   <g id="patch_34">
    <path clip-path="url(#p82c7cf87d9)" d="M 555.971987 630 
L 566.034706 630 
L 566.034706 514.952381 
L 555.971987 514.952381 
z
" style="fill:#0000ff;opacity:0.5;"/>
   </g>
   <g id="patch_35">
    <path clip-path="url(#p82c7cf87d9)" d="M 566.034706 630 
L 576.097424 630 
L 576.097424 457.428571 
L 566.034706 457.428571 
z
" style="fill:#0000ff;opacity:0.5;"/>
   </g>
   <g id="patch_36">
    <path clip-path="url(#p82c7cf87d9)" d="M 576.097424 630 
L 586.160143 630 
L 586.160143 514.952381 
L 576.097424 514.952381 
z
" style="fill:#0000ff;opacity:0.5;"/>
   </g>
   <g id="patch_37">
    <path clip-path="url(#p82c7cf87d9)" d="M 586.160143 630 
L 596.222861 630 
L 596.222861 572.47619 
L 586.160143 572.47619 
z
" style="fill:#0000ff;opacity:0.5;"/>
   </g>
   <g id="patch_38">
    <path clip-path="url(#p82c7cf87d9)" d="M 596.222861 630 
L 606.285579 630 
L 606.285579 572.47619 
L 596.222861 572.47619 
z
" style="fill:#0000ff;opacity:0.5;"/>
   </g>
   <g id="patch_39">
    <path clip-path="url(#p82c7cf87d9)" d="M 606.285579 630 
L 616.348298 630 
L 616.348298 572.47619 
L 606.285579 572.47619 
z
" style="fill:#0000ff;opacity:0.5;"/>
   </g>
   <g id="patch_40">
    <path clip-path="url(#p82c7cf87d9)" d="M 616.348298 630 
L 626.411016 630 
L 626.411016 630 
L 616.348298 630 
z
" style="fill:#0000ff;opacity:0.5;"/>
   </g>
   <g id="patch_41">
    <path clip-path="url(#p82c7cf87d9)" d="M 626.411016 630 
L 636.473734 630 
L 636.473734 572.47619 
L 626.411016 572.47619 
z
" style="fill:#0000ff;opacity:0.5;"/>
   </g>
   <g id="patch_42">
    <path clip-path="url(#p82c7cf87d9)" d="M 636.473734 630 
L 646.536453 630 
L 646.536453 630 
L 636.473734 630 
z
" style="fill:#0000ff;opacity:0.5;"/>
   </g>
   <g id="patch_43">
    <path clip-path="url(#p82c7cf87d9)" d="M 646.536453 630 
L 656.599171 630 
L 656.599171 630 
L 646.536453 630 
z
" style="fill:#0000ff;opacity:0.5;"/>
   </g>
   <g id="patch_44">
    <path clip-path="url(#p82c7cf87d9)" d="M 656.599171 630 
L 666.661889 630 
L 666.661889 514.952381 
L 656.599171 514.952381 
z
" style="fill:#0000ff;opacity:0.5;"/>
   </g>
   <g id="patch_45">
    <path clip-path="url(#p82c7cf87d9)" d="M 666.661889 630 
L 676.724608 630 
L 676.724608 572.47619 
L 666.661889 572.47619 
z
" style="fill:#0000ff;opacity:0.5;"/>
   </g>
   <g id="patch_46">
    <path clip-path="url(#p82c7cf87d9)" d="M 676.724608 630 
L 686.787326 630 
L 686.787326 572.47619 
L 676.724608 572.47619 
z
" style="fill:#0000ff;opacity:0.5;"/>
   </g>
   <g id="patch_47">
    <path clip-path="url(#p82c7cf87d9)" d="M 686.787326 630 
L 696.850045 630 
L 696.850045 514.952381 
L 686.787326 514.952381 
z
" style="fill:#0000ff;opacity:0.5;"/>
   </g>
   <g id="patch_48">
    <path clip-path="url(#p82c7cf87d9)" d="M 696.850045 630 
L 706.912763 630 
L 706.912763 630 
L 696.850045 630 
z
" style="fill:#0000ff;opacity:0.5;"/>
   </g>
   <g id="patch_49">
    <path clip-path="url(#p82c7cf87d9)" d="M 706.912763 630 
L 716.975481 630 
L 716.975481 630 
L 706.912763 630 
z
" style="fill:#0000ff;opacity:0.5;"/>
   </g>
   <g id="patch_50">
    <path clip-path="url(#p82c7cf87d9)" d="M 716.975481 630 
L 727.0382 630 
L 727.0382 630 
L 716.975481 630 
z
" style="fill:#0000ff;opacity:0.5;"/>
   </g>
   <g id="patch_51">
    <path clip-path="url(#p82c7cf87d9)" d="M 727.0382 630 
L 737.100918 630 
L 737.100918 630 
L 727.0382 630 
z
" style="fill:#0000ff;opacity:0.5;"/>
   </g>
   <g id="patch_52">
    <path clip-path="url(#p82c7cf87d9)" d="M 737.100918 630 
L 747.163636 630 
L 747.163636 572.47619 
L 737.100918 572.47619 
z
" style="fill:#0000ff;opacity:0.5;"/>
   </g>
   <g id="patch_53">
    <path clip-path="url(#p82c7cf87d9)" d="M 138.436364 630 
L 148.600529 630 
L 148.600529 573.050326 
L 138.436364 573.050326 
z
" style="fill:#008000;opacity:0.5;"/>
   </g>
   <g id="patch_54">
    <path clip-path="url(#p82c7cf87d9)" d="M 148.600529 630 
L 158.764694 630 
L 158.764694 630 
L 148.600529 630 
z
" style="fill:#008000;opacity:0.5;"/>
   </g>
   <g id="patch_55">
    <path clip-path="url(#p82c7cf87d9)" d="M 158.764694 630 
L 168.928859 630 
L 168.928859 573.050326 
L 158.764694 573.050326 
z
" style="fill:#008000;opacity:0.5;"/>
   </g>
   <g id="patch_56">
    <path clip-path="url(#p82c7cf87d9)" d="M 168.928859 630 
L 179.093025 630 
L 179.093025 630 
L 168.928859 630 
z
" style="fill:#008000;opacity:0.5;"/>
   </g>
   <g id="patch_57">
    <path clip-path="url(#p82c7cf87d9)" d="M 179.093025 630 
L 189.25719 630 
L 189.25719 573.050326 
L 179.093025 573.050326 
z
" style="fill:#008000;opacity:0.5;"/>
   </g>
   <g id="patch_58">
    <path clip-path="url(#p82c7cf87d9)" d="M 189.25719 630 
L 199.421355 630 
L 199.421355 573.050326 
L 189.25719 573.050326 
z
" style="fill:#008000;opacity:0.5;"/>
   </g>
   <g id="patch_59">
    <path clip-path="url(#p82c7cf87d9)" d="M 199.421355 630 
L 209.58552 630 
L 209.58552 630 
L 199.421355 630 
z
" style="fill:#008000;opacity:0.5;"/>
   </g>
   <g id="patch_60">
    <path clip-path="url(#p82c7cf87d9)" d="M 209.58552 630 
L 219.749686 630 
L 219.749686 630 
L 209.58552 630 
z
" style="fill:#008000;opacity:0.5;"/>
   </g>
   <g id="patch_61">
    <path clip-path="url(#p82c7cf87d9)" d="M 219.749686 630 
L 229.913851 630 
L 229.913851 630 
L 219.749686 630 
z
" style="fill:#008000;opacity:0.5;"/>
   </g>
   <g id="patch_62">
    <path clip-path="url(#p82c7cf87d9)" d="M 229.913851 630 
L 240.078016 630 
L 240.078016 630 
L 229.913851 630 
z
" style="fill:#008000;opacity:0.5;"/>
   </g>
   <g id="patch_63">
    <path clip-path="url(#p82c7cf87d9)" d="M 240.078016 630 
L 250.242182 630 
L 250.242182 630 
L 240.078016 630 
z
" style="fill:#008000;opacity:0.5;"/>
   </g>
   <g id="patch_64">
    <path clip-path="url(#p82c7cf87d9)" d="M 250.242182 630 
L 260.406347 630 
L 260.406347 630 
L 250.242182 630 
z
" style="fill:#008000;opacity:0.5;"/>
   </g>
   <g id="patch_65">
    <path clip-path="url(#p82c7cf87d9)" d="M 260.406347 630 
L 270.570512 630 
L 270.570512 516.100653 
L 260.406347 516.100653 
z
" style="fill:#008000;opacity:0.5;"/>
   </g>
   <g id="patch_66">
    <path clip-path="url(#p82c7cf87d9)" d="M 270.570512 630 
L 280.734677 630 
L 280.734677 516.100653 
L 270.570512 516.100653 
z
" style="fill:#008000;opacity:0.5;"/>
   </g>
   <g id="patch_67">
    <path clip-path="url(#p82c7cf87d9)" d="M 280.734677 630 
L 290.898843 630 
L 290.898843 516.100653 
L 280.734677 516.100653 
z
" style="fill:#008000;opacity:0.5;"/>
   </g>
   <g id="patch_68">
    <path clip-path="url(#p82c7cf87d9)" d="M 290.898843 630 
L 301.063008 630 
L 301.063008 573.050326 
L 290.898843 573.050326 
z
" style="fill:#008000;opacity:0.5;"/>
   </g>
   <g id="patch_69">
    <path clip-path="url(#p82c7cf87d9)" d="M 301.063008 630 
L 311.227173 630 
L 311.227173 573.050326 
L 301.063008 573.050326 
z
" style="fill:#008000;opacity:0.5;"/>
   </g>
   <g id="patch_70">
    <path clip-path="url(#p82c7cf87d9)" d="M 311.227173 630 
L 321.391338 630 
L 321.391338 288.301958 
L 311.227173 288.301958 
z
" style="fill:#008000;opacity:0.5;"/>
   </g>
   <g id="patch_71">
    <path clip-path="url(#p82c7cf87d9)" d="M 321.391338 630 
L 331.555504 630 
L 331.555504 288.301958 
L 321.391338 288.301958 
z
" style="fill:#008000;opacity:0.5;"/>
   </g>
   <g id="patch_72">
    <path clip-path="url(#p82c7cf87d9)" d="M 331.555504 630 
L 341.719669 630 
L 341.719669 573.050326 
L 331.555504 573.050326 
z
" style="fill:#008000;opacity:0.5;"/>
   </g>
   <g id="patch_73">
    <path clip-path="url(#p82c7cf87d9)" d="M 341.719669 630 
L 351.883834 630 
L 351.883834 516.100653 
L 341.719669 516.100653 
z
" style="fill:#008000;opacity:0.5;"/>
   </g>
   <g id="patch_74">
    <path clip-path="url(#p82c7cf87d9)" d="M 351.883834 630 
L 362.047999 630 
L 362.047999 288.301958 
L 351.883834 288.301958 
z
" style="fill:#008000;opacity:0.5;"/>
   </g>
   <g id="patch_75">
    <path clip-path="url(#p82c7cf87d9)" d="M 362.047999 630 
L 372.212165 630 
L 372.212165 516.100653 
L 362.047999 516.100653 
z
" style="fill:#008000;opacity:0.5;"/>
   </g>
   <g id="patch_76">
    <path clip-path="url(#p82c7cf87d9)" d="M 372.212165 630 
L 382.37633 630 
L 382.37633 345.251632 
L 372.212165 345.251632 
z
" style="fill:#008000;opacity:0.5;"/>
   </g>
   <g id="patch_77">
    <path clip-path="url(#p82c7cf87d9)" d="M 382.37633 630 
L 392.540495 630 
L 392.540495 516.100653 
L 382.37633 516.100653 
z
" style="fill:#008000;opacity:0.5;"/>
   </g>
   <g id="patch_78">
    <path clip-path="url(#p82c7cf87d9)" d="M 392.540495 630 
L 402.704661 630 
L 402.704661 117.452938 
L 392.540495 117.452938 
z
" style="fill:#008000;opacity:0.5;"/>
   </g>
   <g id="patch_79">
    <path clip-path="url(#p82c7cf87d9)" d="M 402.704661 630 
L 412.868826 630 
L 412.868826 516.100653 
L 402.704661 516.100653 
z
" style="fill:#008000;opacity:0.5;"/>
   </g>
   <g id="patch_80">
    <path clip-path="url(#p82c7cf87d9)" d="M 412.868826 630 
L 423.032991 630 
L 423.032991 345.251632 
L 412.868826 345.251632 
z
" style="fill:#008000;opacity:0.5;"/>
   </g>
   <g id="patch_81">
    <path clip-path="url(#p82c7cf87d9)" d="M 423.032991 630 
L 433.197156 630 
L 433.197156 288.301958 
L 423.032991 288.301958 
z
" style="fill:#008000;opacity:0.5;"/>
   </g>
   <g id="patch_82">
    <path clip-path="url(#p82c7cf87d9)" d="M 433.197156 630 
L 443.361322 630 
L 443.361322 174.402611 
L 433.197156 174.402611 
z
" style="fill:#008000;opacity:0.5;"/>
   </g>
   <g id="patch_83">
    <path clip-path="url(#p82c7cf87d9)" d="M 443.361322 630 
L 453.525487 630 
L 453.525487 459.150979 
L 443.361322 459.150979 
z
" style="fill:#008000;opacity:0.5;"/>
   </g>
   <g id="patch_84">
    <path clip-path="url(#p82c7cf87d9)" d="M 453.525487 630 
L 463.689652 630 
L 463.689652 345.251632 
L 453.525487 345.251632 
z
" style="fill:#008000;opacity:0.5;"/>
   </g>
   <g id="patch_85">
    <path clip-path="url(#p82c7cf87d9)" d="M 463.689652 630 
L 473.853817 630 
L 473.853817 516.100653 
L 463.689652 516.100653 
z
" style="fill:#008000;opacity:0.5;"/>
   </g>
   <g id="patch_86">
    <path clip-path="url(#p82c7cf87d9)" d="M 473.853817 630 
L 484.017983 630 
L 484.017983 231.352285 
L 473.853817 231.352285 
z
" style="fill:#008000;opacity:0.5;"/>
   </g>
   <g id="patch_87">
    <path clip-path="url(#p82c7cf87d9)" d="M 484.017983 630 
L 494.182148 630 
L 494.182148 459.150979 
L 484.017983 459.150979 
z
" style="fill:#008000;opacity:0.5;"/>
   </g>
   <g id="patch_88">
    <path clip-path="url(#p82c7cf87d9)" d="M 494.182148 630 
L 504.346313 630 
L 504.346313 345.251632 
L 494.182148 345.251632 
z
" style="fill:#008000;opacity:0.5;"/>
   </g>
   <g id="patch_89">
    <path clip-path="url(#p82c7cf87d9)" d="M 504.346313 630 
L 514.510478 630 
L 514.510478 402.201306 
L 504.346313 402.201306 
z
" style="fill:#008000;opacity:0.5;"/>
   </g>
   <g id="patch_90">
    <path clip-path="url(#p82c7cf87d9)" d="M 514.510478 630 
L 524.674644 630 
L 524.674644 516.100653 
L 514.510478 516.100653 
z
" style="fill:#008000;opacity:0.5;"/>
   </g>
   <g id="patch_91">
    <path clip-path="url(#p82c7cf87d9)" d="M 524.674644 630 
L 534.838809 630 
L 534.838809 573.050326 
L 524.674644 573.050326 
z
" style="fill:#008000;opacity:0.5;"/>
   </g>
   <g id="patch_92">
    <path clip-path="url(#p82c7cf87d9)" d="M 534.838809 630 
L 545.002974 630 
L 545.002974 174.402611 
L 534.838809 174.402611 
z
" style="fill:#008000;opacity:0.5;"/>
   </g>
   <g id="patch_93">
    <path clip-path="url(#p82c7cf87d9)" d="M 545.002974 630 
L 555.16714 630 
L 555.16714 459.150979 
L 545.002974 459.150979 
z
" style="fill:#008000;opacity:0.5;"/>
   </g>
   <g id="patch_94">
    <path clip-path="url(#p82c7cf87d9)" d="M 555.16714 630 
L 565.331305 630 
L 565.331305 459.150979 
L 555.16714 459.150979 
z
" style="fill:#008000;opacity:0.5;"/>
   </g>
   <g id="patch_95">
    <path clip-path="url(#p82c7cf87d9)" d="M 565.331305 630 
L 575.49547 630 
L 575.49547 516.100653 
L 565.331305 516.100653 
z
" style="fill:#008000;opacity:0.5;"/>
   </g>
   <g id="patch_96">
    <path clip-path="url(#p82c7cf87d9)" d="M 575.49547 630 
L 585.659635 630 
L 585.659635 516.100653 
L 575.49547 516.100653 
z
" style="fill:#008000;opacity:0.5;"/>
   </g>
   <g id="patch_97">
    <path clip-path="url(#p82c7cf87d9)" d="M 585.659635 630 
L 595.823801 630 
L 595.823801 573.050326 
L 585.659635 573.050326 
z
" style="fill:#008000;opacity:0.5;"/>
   </g>
   <g id="patch_98">
    <path clip-path="url(#p82c7cf87d9)" d="M 595.823801 630 
L 605.987966 630 
L 605.987966 573.050326 
L 595.823801 573.050326 
z
" style="fill:#008000;opacity:0.5;"/>
   </g>
   <g id="patch_99">
    <path clip-path="url(#p82c7cf87d9)" d="M 605.987966 630 
L 616.152131 630 
L 616.152131 573.050326 
L 605.987966 573.050326 
z
" style="fill:#008000;opacity:0.5;"/>
   </g>
   <g id="patch_100">
    <path clip-path="url(#p82c7cf87d9)" d="M 616.152131 630 
L 626.316296 630 
L 626.316296 516.100653 
L 616.152131 516.100653 
z
" style="fill:#008000;opacity:0.5;"/>
   </g>
   <g id="patch_101">
    <path clip-path="url(#p82c7cf87d9)" d="M 626.316296 630 
L 636.480462 630 
L 636.480462 630 
L 626.316296 630 
z
" style="fill:#008000;opacity:0.5;"/>
   </g>
   <g id="patch_102">
    <path clip-path="url(#p82c7cf87d9)" d="M 636.480462 630 
L 646.644627 630 
L 646.644627 573.050326 
L 636.480462 573.050326 
z
" style="fill:#008000;opacity:0.5;"/>
   </g>
   <g id="matplotlib.axis_1">
    <g id="xtick_1">
     <g id="line2d_1">
      <defs>
       <path d="M 0 0 
L 0 3.5 
" id="m993c3d4d4d" style="stroke:#000000;stroke-width:0.8;"/>
      </defs>
      <g>
       <use style="stroke:#000000;stroke-width:0.8;" x="144.519801" xlink:href="#m993c3d4d4d" y="630"/>
      </g>
     </g>
     <g id="text_1">
      <!-- −0.06 -->
      <defs>
       <path d="M 10.59375 35.5 
L 73.1875 35.5 
L 73.1875 27.203125 
L 10.59375 27.203125 
z
" id="DejaVuSans-8722"/>
       <path d="M 31.78125 66.40625 
Q 24.171875 66.40625 20.328125 58.90625 
Q 16.5 51.421875 16.5 36.375 
Q 16.5 21.390625 20.328125 13.890625 
Q 24.171875 6.390625 31.78125 6.390625 
Q 39.453125 6.390625 43.28125 13.890625 
Q 47.125 21.390625 47.125 36.375 
Q 47.125 51.421875 43.28125 58.90625 
Q 39.453125 66.40625 31.78125 66.40625 
z
M 31.78125 74.21875 
Q 44.046875 74.21875 50.515625 64.515625 
Q 56.984375 54.828125 56.984375 36.375 
Q 56.984375 17.96875 50.515625 8.265625 
Q 44.046875 -1.421875 31.78125 -1.421875 
Q 19.53125 -1.421875 13.0625 8.265625 
Q 6.59375 17.96875 6.59375 36.375 
Q 6.59375 54.828125 13.0625 64.515625 
Q 19.53125 74.21875 31.78125 74.21875 
z
" id="DejaVuSans-48"/>
       <path d="M 10.6875 12.40625 
L 21 12.40625 
L 21 0 
L 10.6875 0 
z
" id="DejaVuSans-46"/>
       <path d="M 33.015625 40.375 
Q 26.375 40.375 22.484375 35.828125 
Q 18.609375 31.296875 18.609375 23.390625 
Q 18.609375 15.53125 22.484375 10.953125 
Q 26.375 6.390625 33.015625 6.390625 
Q 39.65625 6.390625 43.53125 10.953125 
Q 47.40625 15.53125 47.40625 23.390625 
Q 47.40625 31.296875 43.53125 35.828125 
Q 39.65625 40.375 33.015625 40.375 
z
M 52.59375 71.296875 
L 52.59375 62.3125 
Q 48.875 64.0625 45.09375 64.984375 
Q 41.3125 65.921875 37.59375 65.921875 
Q 27.828125 65.921875 22.671875 59.328125 
Q 17.53125 52.734375 16.796875 39.40625 
Q 19.671875 43.65625 24.015625 45.921875 
Q 28.375 48.1875 33.59375 48.1875 
Q 44.578125 48.1875 50.953125 41.515625 
Q 57.328125 34.859375 57.328125 23.390625 
Q 57.328125 12.15625 50.6875 5.359375 
Q 44.046875 -1.421875 33.015625 -1.421875 
Q 20.359375 -1.421875 13.671875 8.265625 
Q 6.984375 17.96875 6.984375 36.375 
Q 6.984375 53.65625 15.1875 63.9375 
Q 23.390625 74.21875 37.203125 74.21875 
Q 40.921875 74.21875 44.703125 73.484375 
Q 48.484375 72.75 52.59375 71.296875 
z
" id="DejaVuSans-54"/>
      </defs>
      <g transform="translate(129.197145 644.598438)scale(0.1 -0.1)">
       <use xlink:href="#DejaVuSans-8722"/>
       <use x="83.789062" xlink:href="#DejaVuSans-48"/>
       <use x="147.412109" xlink:href="#DejaVuSans-46"/>
       <use x="179.199219" xlink:href="#DejaVuSans-48"/>
       <use x="242.822266" xlink:href="#DejaVuSans-54"/>
      </g>
     </g>
    </g>
    <g id="xtick_2">
     <g id="line2d_2">
      <g>
       <use style="stroke:#000000;stroke-width:0.8;" x="257.388194" xlink:href="#m993c3d4d4d" y="630"/>
      </g>
     </g>
     <g id="text_2">
      <!-- −0.04 -->
      <defs>
       <path d="M 37.796875 64.3125 
L 12.890625 25.390625 
L 37.796875 25.390625 
z
M 35.203125 72.90625 
L 47.609375 72.90625 
L 47.609375 25.390625 
L 58.015625 25.390625 
L 58.015625 17.1875 
L 47.609375 17.1875 
L 47.609375 0 
L 37.796875 0 
L 37.796875 17.1875 
L 4.890625 17.1875 
L 4.890625 26.703125 
z
" id="DejaVuSans-52"/>
      </defs>
      <g transform="translate(242.065538 644.598438)scale(0.1 -0.1)">
       <use xlink:href="#DejaVuSans-8722"/>
       <use x="83.789062" xlink:href="#DejaVuSans-48"/>
       <use x="147.412109" xlink:href="#DejaVuSans-46"/>
       <use x="179.199219" xlink:href="#DejaVuSans-48"/>
       <use x="242.822266" xlink:href="#DejaVuSans-52"/>
      </g>
     </g>
    </g>
    <g id="xtick_3">
     <g id="line2d_3">
      <g>
       <use style="stroke:#000000;stroke-width:0.8;" x="370.256587" xlink:href="#m993c3d4d4d" y="630"/>
      </g>
     </g>
     <g id="text_3">
      <!-- −0.02 -->
      <defs>
       <path d="M 19.1875 8.296875 
L 53.609375 8.296875 
L 53.609375 0 
L 7.328125 0 
L 7.328125 8.296875 
Q 12.9375 14.109375 22.625 23.890625 
Q 32.328125 33.6875 34.8125 36.53125 
Q 39.546875 41.84375 41.421875 45.53125 
Q 43.3125 49.21875 43.3125 52.78125 
Q 43.3125 58.59375 39.234375 62.25 
Q 35.15625 65.921875 28.609375 65.921875 
Q 23.96875 65.921875 18.8125 64.3125 
Q 13.671875 62.703125 7.8125 59.421875 
L 7.8125 69.390625 
Q 13.765625 71.78125 18.9375 73 
Q 24.125 74.21875 28.421875 74.21875 
Q 39.75 74.21875 46.484375 68.546875 
Q 53.21875 62.890625 53.21875 53.421875 
Q 53.21875 48.921875 51.53125 44.890625 
Q 49.859375 40.875 45.40625 35.40625 
Q 44.1875 33.984375 37.640625 27.21875 
Q 31.109375 20.453125 19.1875 8.296875 
z
" id="DejaVuSans-50"/>
      </defs>
      <g transform="translate(354.93393 644.598438)scale(0.1 -0.1)">
       <use xlink:href="#DejaVuSans-8722"/>
       <use x="83.789062" xlink:href="#DejaVuSans-48"/>
       <use x="147.412109" xlink:href="#DejaVuSans-46"/>
       <use x="179.199219" xlink:href="#DejaVuSans-48"/>
       <use x="242.822266" xlink:href="#DejaVuSans-50"/>
      </g>
     </g>
    </g>
    <g id="xtick_4">
     <g id="line2d_4">
      <g>
       <use style="stroke:#000000;stroke-width:0.8;" x="483.124979" xlink:href="#m993c3d4d4d" y="630"/>
      </g>
     </g>
     <g id="text_4">
      <!-- 0.00 -->
      <g transform="translate(471.992167 644.598438)scale(0.1 -0.1)">
       <use xlink:href="#DejaVuSans-48"/>
       <use x="63.623047" xlink:href="#DejaVuSans-46"/>
       <use x="95.410156" xlink:href="#DejaVuSans-48"/>
       <use x="159.033203" xlink:href="#DejaVuSans-48"/>
      </g>
     </g>
    </g>
    <g id="xtick_5">
     <g id="line2d_5">
      <g>
       <use style="stroke:#000000;stroke-width:0.8;" x="595.993372" xlink:href="#m993c3d4d4d" y="630"/>
      </g>
     </g>
     <g id="text_5">
      <!-- 0.02 -->
      <g transform="translate(584.86056 644.598438)scale(0.1 -0.1)">
       <use xlink:href="#DejaVuSans-48"/>
       <use x="63.623047" xlink:href="#DejaVuSans-46"/>
       <use x="95.410156" xlink:href="#DejaVuSans-48"/>
       <use x="159.033203" xlink:href="#DejaVuSans-50"/>
      </g>
     </g>
    </g>
    <g id="xtick_6">
     <g id="line2d_6">
      <g>
       <use style="stroke:#000000;stroke-width:0.8;" x="708.861765" xlink:href="#m993c3d4d4d" y="630"/>
      </g>
     </g>
     <g id="text_6">
      <!-- 0.04 -->
      <g transform="translate(697.728952 644.598438)scale(0.1 -0.1)">
       <use xlink:href="#DejaVuSans-48"/>
       <use x="63.623047" xlink:href="#DejaVuSans-46"/>
       <use x="95.410156" xlink:href="#DejaVuSans-48"/>
       <use x="159.033203" xlink:href="#DejaVuSans-52"/>
      </g>
     </g>
    </g>
   </g>
   <g id="matplotlib.axis_2">
    <g id="ytick_1">
     <g id="line2d_7">
      <defs>
       <path d="M 0 0 
L -3.5 0 
" id="m05f8d67c78" style="stroke:#000000;stroke-width:0.8;"/>
      </defs>
      <g>
       <use style="stroke:#000000;stroke-width:0.8;" x="108" xlink:href="#m05f8d67c78" y="630"/>
      </g>
     </g>
     <g id="text_7">
      <!-- 0 -->
      <g transform="translate(94.6375 633.799219)scale(0.1 -0.1)">
       <use xlink:href="#DejaVuSans-48"/>
      </g>
     </g>
    </g>
    <g id="ytick_2">
     <g id="line2d_8">
      <g>
       <use style="stroke:#000000;stroke-width:0.8;" x="108" xlink:href="#m05f8d67c78" y="564.355161"/>
      </g>
     </g>
     <g id="text_8">
      <!-- 5 -->
      <defs>
       <path d="M 10.796875 72.90625 
L 49.515625 72.90625 
L 49.515625 64.59375 
L 19.828125 64.59375 
L 19.828125 46.734375 
Q 21.96875 47.46875 24.109375 47.828125 
Q 26.265625 48.1875 28.421875 48.1875 
Q 40.625 48.1875 47.75 41.5 
Q 54.890625 34.8125 54.890625 23.390625 
Q 54.890625 11.625 47.5625 5.09375 
Q 40.234375 -1.421875 26.90625 -1.421875 
Q 22.3125 -1.421875 17.546875 -0.640625 
Q 12.796875 0.140625 7.71875 1.703125 
L 7.71875 11.625 
Q 12.109375 9.234375 16.796875 8.0625 
Q 21.484375 6.890625 26.703125 6.890625 
Q 35.15625 6.890625 40.078125 11.328125 
Q 45.015625 15.765625 45.015625 23.390625 
Q 45.015625 31 40.078125 35.4375 
Q 35.15625 39.890625 26.703125 39.890625 
Q 22.75 39.890625 18.8125 39.015625 
Q 14.890625 38.140625 10.796875 36.28125 
z
" id="DejaVuSans-53"/>
      </defs>
      <g transform="translate(94.6375 568.15438)scale(0.1 -0.1)">
       <use xlink:href="#DejaVuSans-53"/>
      </g>
     </g>
    </g>
    <g id="ytick_3">
     <g id="line2d_9">
      <g>
       <use style="stroke:#000000;stroke-width:0.8;" x="108" xlink:href="#m05f8d67c78" y="498.710322"/>
      </g>
     </g>
     <g id="text_9">
      <!-- 10 -->
      <defs>
       <path d="M 12.40625 8.296875 
L 28.515625 8.296875 
L 28.515625 63.921875 
L 10.984375 60.40625 
L 10.984375 69.390625 
L 28.421875 72.90625 
L 38.28125 72.90625 
L 38.28125 8.296875 
L 54.390625 8.296875 
L 54.390625 0 
L 12.40625 0 
z
" id="DejaVuSans-49"/>
      </defs>
      <g transform="translate(88.275 502.509541)scale(0.1 -0.1)">
       <use xlink:href="#DejaVuSans-49"/>
       <use x="63.623047" xlink:href="#DejaVuSans-48"/>
      </g>
     </g>
    </g>
    <g id="ytick_4">
     <g id="line2d_10">
      <g>
       <use style="stroke:#000000;stroke-width:0.8;" x="108" xlink:href="#m05f8d67c78" y="433.065484"/>
      </g>
     </g>
     <g id="text_10">
      <!-- 15 -->
      <g transform="translate(88.275 436.864702)scale(0.1 -0.1)">
       <use xlink:href="#DejaVuSans-49"/>
       <use x="63.623047" xlink:href="#DejaVuSans-53"/>
      </g>
     </g>
    </g>
    <g id="ytick_5">
     <g id="line2d_11">
      <g>
       <use style="stroke:#000000;stroke-width:0.8;" x="108" xlink:href="#m05f8d67c78" y="367.420645"/>
      </g>
     </g>
     <g id="text_11">
      <!-- 20 -->
      <g transform="translate(88.275 371.219864)scale(0.1 -0.1)">
       <use xlink:href="#DejaVuSans-50"/>
       <use x="63.623047" xlink:href="#DejaVuSans-48"/>
      </g>
     </g>
    </g>
    <g id="ytick_6">
     <g id="line2d_12">
      <g>
       <use style="stroke:#000000;stroke-width:0.8;" x="108" xlink:href="#m05f8d67c78" y="301.775806"/>
      </g>
     </g>
     <g id="text_12">
      <!-- 25 -->
      <g transform="translate(88.275 305.575025)scale(0.1 -0.1)">
       <use xlink:href="#DejaVuSans-50"/>
       <use x="63.623047" xlink:href="#DejaVuSans-53"/>
      </g>
     </g>
    </g>
    <g id="ytick_7">
     <g id="line2d_13">
      <g>
       <use style="stroke:#000000;stroke-width:0.8;" x="108" xlink:href="#m05f8d67c78" y="236.130967"/>
      </g>
     </g>
     <g id="text_13">
      <!-- 30 -->
      <defs>
       <path d="M 40.578125 39.3125 
Q 47.65625 37.796875 51.625 33 
Q 55.609375 28.21875 55.609375 21.1875 
Q 55.609375 10.40625 48.1875 4.484375 
Q 40.765625 -1.421875 27.09375 -1.421875 
Q 22.515625 -1.421875 17.65625 -0.515625 
Q 12.796875 0.390625 7.625 2.203125 
L 7.625 11.71875 
Q 11.71875 9.328125 16.59375 8.109375 
Q 21.484375 6.890625 26.8125 6.890625 
Q 36.078125 6.890625 40.9375 10.546875 
Q 45.796875 14.203125 45.796875 21.1875 
Q 45.796875 27.640625 41.28125 31.265625 
Q 36.765625 34.90625 28.71875 34.90625 
L 20.21875 34.90625 
L 20.21875 43.015625 
L 29.109375 43.015625 
Q 36.375 43.015625 40.234375 45.921875 
Q 44.09375 48.828125 44.09375 54.296875 
Q 44.09375 59.90625 40.109375 62.90625 
Q 36.140625 65.921875 28.71875 65.921875 
Q 24.65625 65.921875 20.015625 65.03125 
Q 15.375 64.15625 9.8125 62.3125 
L 9.8125 71.09375 
Q 15.4375 72.65625 20.34375 73.4375 
Q 25.25 74.21875 29.59375 74.21875 
Q 40.828125 74.21875 47.359375 69.109375 
Q 53.90625 64.015625 53.90625 55.328125 
Q 53.90625 49.265625 50.4375 45.09375 
Q 46.96875 40.921875 40.578125 39.3125 
z
" id="DejaVuSans-51"/>
      </defs>
      <g transform="translate(88.275 239.930186)scale(0.1 -0.1)">
       <use xlink:href="#DejaVuSans-51"/>
       <use x="63.623047" xlink:href="#DejaVuSans-48"/>
      </g>
     </g>
    </g>
    <g id="ytick_8">
     <g id="line2d_14">
      <g>
       <use style="stroke:#000000;stroke-width:0.8;" x="108" xlink:href="#m05f8d67c78" y="170.486128"/>
      </g>
     </g>
     <g id="text_14">
      <!-- 35 -->
      <g transform="translate(88.275 174.285347)scale(0.1 -0.1)">
       <use xlink:href="#DejaVuSans-51"/>
       <use x="63.623047" xlink:href="#DejaVuSans-53"/>
      </g>
     </g>
    </g>
    <g id="ytick_9">
     <g id="line2d_15">
      <g>
       <use style="stroke:#000000;stroke-width:0.8;" x="108" xlink:href="#m05f8d67c78" y="104.84129"/>
      </g>
     </g>
     <g id="text_15">
      <!-- 40 -->
      <g transform="translate(88.275 108.640508)scale(0.1 -0.1)">
       <use xlink:href="#DejaVuSans-52"/>
       <use x="63.623047" xlink:href="#DejaVuSans-48"/>
      </g>
     </g>
    </g>
   </g>
   <g id="patch_103">
    <path d="M 108 630 
L 108 86.4 
" style="fill:none;stroke:#000000;stroke-linecap:square;stroke-linejoin:miter;stroke-width:0.8;"/>
   </g>
   <g id="patch_104">
    <path d="M 777.6 630 
L 777.6 86.4 
" style="fill:none;stroke:#000000;stroke-linecap:square;stroke-linejoin:miter;stroke-width:0.8;"/>
   </g>
   <g id="patch_105">
    <path d="M 108 630 
L 777.6 630 
" style="fill:none;stroke:#000000;stroke-linecap:square;stroke-linejoin:miter;stroke-width:0.8;"/>
   </g>
   <g id="patch_106">
    <path d="M 108 86.4 
L 777.6 86.4 
" style="fill:none;stroke:#000000;stroke-linecap:square;stroke-linejoin:miter;stroke-width:0.8;"/>
   </g>
   <g id="text_16">
    <!-- Nodes strength last layer -->
    <defs>
     <path d="M 9.8125 72.90625 
L 23.09375 72.90625 
L 55.421875 11.921875 
L 55.421875 72.90625 
L 64.984375 72.90625 
L 64.984375 0 
L 51.703125 0 
L 19.390625 60.984375 
L 19.390625 0 
L 9.8125 0 
z
" id="DejaVuSans-78"/>
     <path d="M 30.609375 48.390625 
Q 23.390625 48.390625 19.1875 42.75 
Q 14.984375 37.109375 14.984375 27.296875 
Q 14.984375 17.484375 19.15625 11.84375 
Q 23.34375 6.203125 30.609375 6.203125 
Q 37.796875 6.203125 41.984375 11.859375 
Q 46.1875 17.53125 46.1875 27.296875 
Q 46.1875 37.015625 41.984375 42.703125 
Q 37.796875 48.390625 30.609375 48.390625 
z
M 30.609375 56 
Q 42.328125 56 49.015625 48.375 
Q 55.71875 40.765625 55.71875 27.296875 
Q 55.71875 13.875 49.015625 6.21875 
Q 42.328125 -1.421875 30.609375 -1.421875 
Q 18.84375 -1.421875 12.171875 6.21875 
Q 5.515625 13.875 5.515625 27.296875 
Q 5.515625 40.765625 12.171875 48.375 
Q 18.84375 56 30.609375 56 
z
" id="DejaVuSans-111"/>
     <path d="M 45.40625 46.390625 
L 45.40625 75.984375 
L 54.390625 75.984375 
L 54.390625 0 
L 45.40625 0 
L 45.40625 8.203125 
Q 42.578125 3.328125 38.25 0.953125 
Q 33.9375 -1.421875 27.875 -1.421875 
Q 17.96875 -1.421875 11.734375 6.484375 
Q 5.515625 14.40625 5.515625 27.296875 
Q 5.515625 40.1875 11.734375 48.09375 
Q 17.96875 56 27.875 56 
Q 33.9375 56 38.25 53.625 
Q 42.578125 51.265625 45.40625 46.390625 
z
M 14.796875 27.296875 
Q 14.796875 17.390625 18.875 11.75 
Q 22.953125 6.109375 30.078125 6.109375 
Q 37.203125 6.109375 41.296875 11.75 
Q 45.40625 17.390625 45.40625 27.296875 
Q 45.40625 37.203125 41.296875 42.84375 
Q 37.203125 48.484375 30.078125 48.484375 
Q 22.953125 48.484375 18.875 42.84375 
Q 14.796875 37.203125 14.796875 27.296875 
z
" id="DejaVuSans-100"/>
     <path d="M 56.203125 29.59375 
L 56.203125 25.203125 
L 14.890625 25.203125 
Q 15.484375 15.921875 20.484375 11.0625 
Q 25.484375 6.203125 34.421875 6.203125 
Q 39.59375 6.203125 44.453125 7.46875 
Q 49.3125 8.734375 54.109375 11.28125 
L 54.109375 2.78125 
Q 49.265625 0.734375 44.1875 -0.34375 
Q 39.109375 -1.421875 33.890625 -1.421875 
Q 20.796875 -1.421875 13.15625 6.1875 
Q 5.515625 13.8125 5.515625 26.8125 
Q 5.515625 40.234375 12.765625 48.109375 
Q 20.015625 56 32.328125 56 
Q 43.359375 56 49.78125 48.890625 
Q 56.203125 41.796875 56.203125 29.59375 
z
M 47.21875 32.234375 
Q 47.125 39.59375 43.09375 43.984375 
Q 39.0625 48.390625 32.421875 48.390625 
Q 24.90625 48.390625 20.390625 44.140625 
Q 15.875 39.890625 15.1875 32.171875 
z
" id="DejaVuSans-101"/>
     <path d="M 44.28125 53.078125 
L 44.28125 44.578125 
Q 40.484375 46.53125 36.375 47.5 
Q 32.28125 48.484375 27.875 48.484375 
Q 21.1875 48.484375 17.84375 46.4375 
Q 14.5 44.390625 14.5 40.28125 
Q 14.5 37.15625 16.890625 35.375 
Q 19.28125 33.59375 26.515625 31.984375 
L 29.59375 31.296875 
Q 39.15625 29.25 43.1875 25.515625 
Q 47.21875 21.78125 47.21875 15.09375 
Q 47.21875 7.46875 41.1875 3.015625 
Q 35.15625 -1.421875 24.609375 -1.421875 
Q 20.21875 -1.421875 15.453125 -0.5625 
Q 10.6875 0.296875 5.421875 2 
L 5.421875 11.28125 
Q 10.40625 8.6875 15.234375 7.390625 
Q 20.0625 6.109375 24.8125 6.109375 
Q 31.15625 6.109375 34.5625 8.28125 
Q 37.984375 10.453125 37.984375 14.40625 
Q 37.984375 18.0625 35.515625 20.015625 
Q 33.0625 21.96875 24.703125 23.78125 
L 21.578125 24.515625 
Q 13.234375 26.265625 9.515625 29.90625 
Q 5.8125 33.546875 5.8125 39.890625 
Q 5.8125 47.609375 11.28125 51.796875 
Q 16.75 56 26.8125 56 
Q 31.78125 56 36.171875 55.265625 
Q 40.578125 54.546875 44.28125 53.078125 
z
" id="DejaVuSans-115"/>
     <path id="DejaVuSans-32"/>
     <path d="M 18.3125 70.21875 
L 18.3125 54.6875 
L 36.8125 54.6875 
L 36.8125 47.703125 
L 18.3125 47.703125 
L 18.3125 18.015625 
Q 18.3125 11.328125 20.140625 9.421875 
Q 21.96875 7.515625 27.59375 7.515625 
L 36.8125 7.515625 
L 36.8125 0 
L 27.59375 0 
Q 17.1875 0 13.234375 3.875 
Q 9.28125 7.765625 9.28125 18.015625 
L 9.28125 47.703125 
L 2.6875 47.703125 
L 2.6875 54.6875 
L 9.28125 54.6875 
L 9.28125 70.21875 
z
" id="DejaVuSans-116"/>
     <path d="M 41.109375 46.296875 
Q 39.59375 47.171875 37.8125 47.578125 
Q 36.03125 48 33.890625 48 
Q 26.265625 48 22.1875 43.046875 
Q 18.109375 38.09375 18.109375 28.8125 
L 18.109375 0 
L 9.078125 0 
L 9.078125 54.6875 
L 18.109375 54.6875 
L 18.109375 46.1875 
Q 20.953125 51.171875 25.484375 53.578125 
Q 30.03125 56 36.53125 56 
Q 37.453125 56 38.578125 55.875 
Q 39.703125 55.765625 41.0625 55.515625 
z
" id="DejaVuSans-114"/>
     <path d="M 54.890625 33.015625 
L 54.890625 0 
L 45.90625 0 
L 45.90625 32.71875 
Q 45.90625 40.484375 42.875 44.328125 
Q 39.84375 48.1875 33.796875 48.1875 
Q 26.515625 48.1875 22.3125 43.546875 
Q 18.109375 38.921875 18.109375 30.90625 
L 18.109375 0 
L 9.078125 0 
L 9.078125 54.6875 
L 18.109375 54.6875 
L 18.109375 46.1875 
Q 21.34375 51.125 25.703125 53.5625 
Q 30.078125 56 35.796875 56 
Q 45.21875 56 50.046875 50.171875 
Q 54.890625 44.34375 54.890625 33.015625 
z
" id="DejaVuSans-110"/>
     <path d="M 45.40625 27.984375 
Q 45.40625 37.75 41.375 43.109375 
Q 37.359375 48.484375 30.078125 48.484375 
Q 22.859375 48.484375 18.828125 43.109375 
Q 14.796875 37.75 14.796875 27.984375 
Q 14.796875 18.265625 18.828125 12.890625 
Q 22.859375 7.515625 30.078125 7.515625 
Q 37.359375 7.515625 41.375 12.890625 
Q 45.40625 18.265625 45.40625 27.984375 
z
M 54.390625 6.78125 
Q 54.390625 -7.171875 48.1875 -13.984375 
Q 42 -20.796875 29.203125 -20.796875 
Q 24.46875 -20.796875 20.265625 -20.09375 
Q 16.0625 -19.390625 12.109375 -17.921875 
L 12.109375 -9.1875 
Q 16.0625 -11.328125 19.921875 -12.34375 
Q 23.78125 -13.375 27.78125 -13.375 
Q 36.625 -13.375 41.015625 -8.765625 
Q 45.40625 -4.15625 45.40625 5.171875 
L 45.40625 9.625 
Q 42.625 4.78125 38.28125 2.390625 
Q 33.9375 0 27.875 0 
Q 17.828125 0 11.671875 7.65625 
Q 5.515625 15.328125 5.515625 27.984375 
Q 5.515625 40.671875 11.671875 48.328125 
Q 17.828125 56 27.875 56 
Q 33.9375 56 38.28125 53.609375 
Q 42.625 51.21875 45.40625 46.390625 
L 45.40625 54.6875 
L 54.390625 54.6875 
z
" id="DejaVuSans-103"/>
     <path d="M 54.890625 33.015625 
L 54.890625 0 
L 45.90625 0 
L 45.90625 32.71875 
Q 45.90625 40.484375 42.875 44.328125 
Q 39.84375 48.1875 33.796875 48.1875 
Q 26.515625 48.1875 22.3125 43.546875 
Q 18.109375 38.921875 18.109375 30.90625 
L 18.109375 0 
L 9.078125 0 
L 9.078125 75.984375 
L 18.109375 75.984375 
L 18.109375 46.1875 
Q 21.34375 51.125 25.703125 53.5625 
Q 30.078125 56 35.796875 56 
Q 45.21875 56 50.046875 50.171875 
Q 54.890625 44.34375 54.890625 33.015625 
z
" id="DejaVuSans-104"/>
     <path d="M 9.421875 75.984375 
L 18.40625 75.984375 
L 18.40625 0 
L 9.421875 0 
z
" id="DejaVuSans-108"/>
     <path d="M 34.28125 27.484375 
Q 23.390625 27.484375 19.1875 25 
Q 14.984375 22.515625 14.984375 16.5 
Q 14.984375 11.71875 18.140625 8.90625 
Q 21.296875 6.109375 26.703125 6.109375 
Q 34.1875 6.109375 38.703125 11.40625 
Q 43.21875 16.703125 43.21875 25.484375 
L 43.21875 27.484375 
z
M 52.203125 31.203125 
L 52.203125 0 
L 43.21875 0 
L 43.21875 8.296875 
Q 40.140625 3.328125 35.546875 0.953125 
Q 30.953125 -1.421875 24.3125 -1.421875 
Q 15.921875 -1.421875 10.953125 3.296875 
Q 6 8.015625 6 15.921875 
Q 6 25.140625 12.171875 29.828125 
Q 18.359375 34.515625 30.609375 34.515625 
L 43.21875 34.515625 
L 43.21875 35.40625 
Q 43.21875 41.609375 39.140625 45 
Q 35.0625 48.390625 27.6875 48.390625 
Q 23 48.390625 18.546875 47.265625 
Q 14.109375 46.140625 10.015625 43.890625 
L 10.015625 52.203125 
Q 14.9375 54.109375 19.578125 55.046875 
Q 24.21875 56 28.609375 56 
Q 40.484375 56 46.34375 49.84375 
Q 52.203125 43.703125 52.203125 31.203125 
z
" id="DejaVuSans-97"/>
     <path d="M 32.171875 -5.078125 
Q 28.375 -14.84375 24.75 -17.8125 
Q 21.140625 -20.796875 15.09375 -20.796875 
L 7.90625 -20.796875 
L 7.90625 -13.28125 
L 13.1875 -13.28125 
Q 16.890625 -13.28125 18.9375 -11.515625 
Q 21 -9.765625 23.484375 -3.21875 
L 25.09375 0.875 
L 2.984375 54.6875 
L 12.5 54.6875 
L 29.59375 11.921875 
L 46.6875 54.6875 
L 56.203125 54.6875 
z
" id="DejaVuSans-121"/>
    </defs>
    <g transform="translate(367.017188 80.4)scale(0.12 -0.12)">
     <use xlink:href="#DejaVuSans-78"/>
     <use x="74.804688" xlink:href="#DejaVuSans-111"/>
     <use x="135.986328" xlink:href="#DejaVuSans-100"/>
     <use x="199.462891" xlink:href="#DejaVuSans-101"/>
     <use x="260.986328" xlink:href="#DejaVuSans-115"/>
     <use x="313.085938" xlink:href="#DejaVuSans-32"/>
     <use x="344.873047" xlink:href="#DejaVuSans-115"/>
     <use x="396.972656" xlink:href="#DejaVuSans-116"/>
     <use x="436.181641" xlink:href="#DejaVuSans-114"/>
     <use x="477.263672" xlink:href="#DejaVuSans-101"/>
     <use x="538.787109" xlink:href="#DejaVuSans-110"/>
     <use x="602.166016" xlink:href="#DejaVuSans-103"/>
     <use x="665.642578" xlink:href="#DejaVuSans-116"/>
     <use x="704.851562" xlink:href="#DejaVuSans-104"/>
     <use x="768.230469" xlink:href="#DejaVuSans-32"/>
     <use x="800.017578" xlink:href="#DejaVuSans-108"/>
     <use x="827.800781" xlink:href="#DejaVuSans-97"/>
     <use x="889.080078" xlink:href="#DejaVuSans-115"/>
     <use x="941.179688" xlink:href="#DejaVuSans-116"/>
     <use x="980.388672" xlink:href="#DejaVuSans-32"/>
     <use x="1012.175781" xlink:href="#DejaVuSans-108"/>
     <use x="1039.958984" xlink:href="#DejaVuSans-97"/>
     <use x="1101.238281" xlink:href="#DejaVuSans-121"/>
     <use x="1160.417969" xlink:href="#DejaVuSans-101"/>
     <use x="1221.941406" xlink:href="#DejaVuSans-114"/>
    </g>
   </g>
   <g id="legend_1">
    <g id="patch_107">
     <path d="M 685.478125 123.75625 
L 770.6 123.75625 
Q 772.6 123.75625 772.6 121.75625 
L 772.6 93.4 
Q 772.6 91.4 770.6 91.4 
L 685.478125 91.4 
Q 683.478125 91.4 683.478125 93.4 
L 683.478125 121.75625 
Q 683.478125 123.75625 685.478125 123.75625 
z
" style="fill:#ffffff;opacity:0.8;stroke:#cccccc;stroke-linejoin:miter;"/>
    </g>
    <g id="patch_108">
     <path d="M 687.478125 102.998437 
L 707.478125 102.998437 
L 707.478125 95.998437 
L 687.478125 95.998437 
z
" style="fill:#0000ff;opacity:0.5;"/>
    </g>
    <g id="text_17">
     <!-- s first gen. -->
     <defs>
      <path d="M 37.109375 75.984375 
L 37.109375 68.5 
L 28.515625 68.5 
Q 23.6875 68.5 21.796875 66.546875 
Q 19.921875 64.59375 19.921875 59.515625 
L 19.921875 54.6875 
L 34.71875 54.6875 
L 34.71875 47.703125 
L 19.921875 47.703125 
L 19.921875 0 
L 10.890625 0 
L 10.890625 47.703125 
L 2.296875 47.703125 
L 2.296875 54.6875 
L 10.890625 54.6875 
L 10.890625 58.5 
Q 10.890625 67.625 15.140625 71.796875 
Q 19.390625 75.984375 28.609375 75.984375 
z
" id="DejaVuSans-102"/>
      <path d="M 9.421875 54.6875 
L 18.40625 54.6875 
L 18.40625 0 
L 9.421875 0 
z
M 9.421875 75.984375 
L 18.40625 75.984375 
L 18.40625 64.59375 
L 9.421875 64.59375 
z
" id="DejaVuSans-105"/>
     </defs>
     <g transform="translate(715.478125 102.998437)scale(0.1 -0.1)">
      <use xlink:href="#DejaVuSans-115"/>
      <use x="52.099609" xlink:href="#DejaVuSans-32"/>
      <use x="83.886719" xlink:href="#DejaVuSans-102"/>
      <use x="119.091797" xlink:href="#DejaVuSans-105"/>
      <use x="146.875" xlink:href="#DejaVuSans-114"/>
      <use x="187.988281" xlink:href="#DejaVuSans-115"/>
      <use x="240.087891" xlink:href="#DejaVuSans-116"/>
      <use x="279.296875" xlink:href="#DejaVuSans-32"/>
      <use x="311.083984" xlink:href="#DejaVuSans-103"/>
      <use x="374.560547" xlink:href="#DejaVuSans-101"/>
      <use x="436.083984" xlink:href="#DejaVuSans-110"/>
      <use x="499.462891" xlink:href="#DejaVuSans-46"/>
     </g>
    </g>
    <g id="patch_109">
     <path d="M 687.478125 117.676562 
L 707.478125 117.676562 
L 707.478125 110.676562 
L 687.478125 110.676562 
z
" style="fill:#008000;opacity:0.5;"/>
    </g>
    <g id="text_18">
     <!-- s last gen. -->
     <g transform="translate(715.478125 117.676562)scale(0.1 -0.1)">
      <use xlink:href="#DejaVuSans-115"/>
      <use x="52.099609" xlink:href="#DejaVuSans-32"/>
      <use x="83.886719" xlink:href="#DejaVuSans-108"/>
      <use x="111.669922" xlink:href="#DejaVuSans-97"/>
      <use x="172.949219" xlink:href="#DejaVuSans-115"/>
      <use x="225.048828" xlink:href="#DejaVuSans-116"/>
      <use x="264.257812" xlink:href="#DejaVuSans-32"/>
      <use x="296.044922" xlink:href="#DejaVuSans-103"/>
      <use x="359.521484" xlink:href="#DejaVuSans-101"/>
      <use x="421.044922" xlink:href="#DejaVuSans-110"/>
      <use x="484.423828" xlink:href="#DejaVuSans-46"/>
     </g>
    </g>
   </g>
  </g>
 </g>
 <defs>
  <clipPath id="p82c7cf87d9">
   <rect height="543.6" width="669.6" x="108" y="86.4"/>
  </clipPath>
 </defs>
</svg>
