<?xml version="1.0" encoding="utf-8" standalone="no"?>
<!DOCTYPE svg PUBLIC "-//W3C//DTD SVG 1.1//EN"
  "http://www.w3.org/Graphics/SVG/1.1/DTD/svg11.dtd">
<!-- Created with matplotlib (https://matplotlib.org/) -->
<svg height="720pt" version="1.1" viewBox="0 0 864 720" width="864pt" xmlns="http://www.w3.org/2000/svg" xmlns:xlink="http://www.w3.org/1999/xlink">
 <defs>
  <style type="text/css">
*{stroke-linecap:butt;stroke-linejoin:round;white-space:pre;}
  </style>
 </defs>
 <g id="figure_1">
  <g id="patch_1">
   <path d="M 0 720 
L 864 720 
L 864 0 
L 0 0 
z
" style="fill:#ffffff;"/>
  </g>
  <g id="axes_1">
   <g id="patch_2">
    <path d="M 108 630 
L 777.6 630 
L 777.6 86.4 
L 108 86.4 
z
" style="fill:#ffffff;"/>
   </g>
   <g id="patch_3">
    <path clip-path="url(#p08fdac63b2)" d="M 138.436364 630 
L 150.393932 630 
L 150.393932 628.986904 
L 138.436364 628.986904 
z
" style="fill:#ff0000;opacity:0.5;"/>
   </g>
   <g id="patch_4">
    <path clip-path="url(#p08fdac63b2)" d="M 150.393932 630 
L 162.351501 630 
L 162.351501 630 
L 150.393932 630 
z
" style="fill:#ff0000;opacity:0.5;"/>
   </g>
   <g id="patch_5">
    <path clip-path="url(#p08fdac63b2)" d="M 162.351501 630 
L 174.30907 630 
L 174.30907 630 
L 162.351501 630 
z
" style="fill:#ff0000;opacity:0.5;"/>
   </g>
   <g id="patch_6">
    <path clip-path="url(#p08fdac63b2)" d="M 174.30907 630 
L 186.266639 630 
L 186.266639 628.986904 
L 174.30907 628.986904 
z
" style="fill:#ff0000;opacity:0.5;"/>
   </g>
   <g id="patch_7">
    <path clip-path="url(#p08fdac63b2)" d="M 186.266639 630 
L 198.224207 630 
L 198.224207 630 
L 186.266639 630 
z
" style="fill:#ff0000;opacity:0.5;"/>
   </g>
   <g id="patch_8">
    <path clip-path="url(#p08fdac63b2)" d="M 198.224207 630 
L 210.181776 630 
L 210.181776 630 
L 198.224207 630 
z
" style="fill:#ff0000;opacity:0.5;"/>
   </g>
   <g id="patch_9">
    <path clip-path="url(#p08fdac63b2)" d="M 210.181776 630 
L 222.139345 630 
L 222.139345 625.947614 
L 210.181776 625.947614 
z
" style="fill:#ff0000;opacity:0.5;"/>
   </g>
   <g id="patch_10">
    <path clip-path="url(#p08fdac63b2)" d="M 222.139345 630 
L 234.096913 630 
L 234.096913 621.895228 
L 222.139345 621.895228 
z
" style="fill:#ff0000;opacity:0.5;"/>
   </g>
   <g id="patch_11">
    <path clip-path="url(#p08fdac63b2)" d="M 234.096913 630 
L 246.054482 630 
L 246.054482 618.855939 
L 234.096913 618.855939 
z
" style="fill:#ff0000;opacity:0.5;"/>
   </g>
   <g id="patch_12">
    <path clip-path="url(#p08fdac63b2)" d="M 246.054482 630 
L 258.012051 630 
L 258.012051 618.855939 
L 246.054482 618.855939 
z
" style="fill:#ff0000;opacity:0.5;"/>
   </g>
   <g id="patch_13">
    <path clip-path="url(#p08fdac63b2)" d="M 258.012051 630 
L 269.96962 630 
L 269.96962 611.764264 
L 258.012051 611.764264 
z
" style="fill:#ff0000;opacity:0.5;"/>
   </g>
   <g id="patch_14">
    <path clip-path="url(#p08fdac63b2)" d="M 269.96962 630 
L 281.927188 630 
L 281.927188 604.672589 
L 269.96962 604.672589 
z
" style="fill:#ff0000;opacity:0.5;"/>
   </g>
   <g id="patch_15">
    <path clip-path="url(#p08fdac63b2)" d="M 281.927188 630 
L 293.884757 630 
L 293.884757 589.476142 
L 281.927188 589.476142 
z
" style="fill:#ff0000;opacity:0.5;"/>
   </g>
   <g id="patch_16">
    <path clip-path="url(#p08fdac63b2)" d="M 293.884757 630 
L 305.842326 630 
L 305.842326 573.266599 
L 293.884757 573.266599 
z
" style="fill:#ff0000;opacity:0.5;"/>
   </g>
   <g id="patch_17">
    <path clip-path="url(#p08fdac63b2)" d="M 305.842326 630 
L 317.799895 630 
L 317.799895 558.070152 
L 305.842326 558.070152 
z
" style="fill:#ff0000;opacity:0.5;"/>
   </g>
   <g id="patch_18">
    <path clip-path="url(#p08fdac63b2)" d="M 317.799895 630 
L 329.757463 630 
L 329.757463 539.834416 
L 317.799895 539.834416 
z
" style="fill:#ff0000;opacity:0.5;"/>
   </g>
   <g id="patch_19">
    <path clip-path="url(#p08fdac63b2)" d="M 329.757463 630 
L 341.715032 630 
L 341.715032 524.637969 
L 329.757463 524.637969 
z
" style="fill:#ff0000;opacity:0.5;"/>
   </g>
   <g id="patch_20">
    <path clip-path="url(#p08fdac63b2)" d="M 341.715032 630 
L 353.672601 630 
L 353.672601 469.93076 
L 341.715032 469.93076 
z
" style="fill:#ff0000;opacity:0.5;"/>
   </g>
   <g id="patch_21">
    <path clip-path="url(#p08fdac63b2)" d="M 353.672601 630 
L 365.63017 630 
L 365.63017 433.459288 
L 353.672601 433.459288 
z
" style="fill:#ff0000;opacity:0.5;"/>
   </g>
   <g id="patch_22">
    <path clip-path="url(#p08fdac63b2)" d="M 365.63017 630 
L 377.587738 630 
L 377.587738 362.542536 
L 365.63017 362.542536 
z
" style="fill:#ff0000;opacity:0.5;"/>
   </g>
   <g id="patch_23">
    <path clip-path="url(#p08fdac63b2)" d="M 377.587738 630 
L 389.545307 630 
L 389.545307 357.477054 
L 377.587738 357.477054 
z
" style="fill:#ff0000;opacity:0.5;"/>
   </g>
   <g id="patch_24">
    <path clip-path="url(#p08fdac63b2)" d="M 389.545307 630 
L 401.502876 630 
L 401.502876 317.966292 
L 389.545307 317.966292 
z
" style="fill:#ff0000;opacity:0.5;"/>
   </g>
   <g id="patch_25">
    <path clip-path="url(#p08fdac63b2)" d="M 401.502876 630 
L 413.460444 630 
L 413.460444 258.193601 
L 401.502876 258.193601 
z
" style="fill:#ff0000;opacity:0.5;"/>
   </g>
   <g id="patch_26">
    <path clip-path="url(#p08fdac63b2)" d="M 413.460444 630 
L 425.418013 630 
L 425.418013 235.905479 
L 413.460444 235.905479 
z
" style="fill:#ff0000;opacity:0.5;"/>
   </g>
   <g id="patch_27">
    <path clip-path="url(#p08fdac63b2)" d="M 425.418013 630 
L 437.375582 630 
L 437.375582 175.119692 
L 425.418013 175.119692 
z
" style="fill:#ff0000;opacity:0.5;"/>
   </g>
   <g id="patch_28">
    <path clip-path="url(#p08fdac63b2)" d="M 437.375582 630 
L 449.333151 630 
L 449.333151 171.067306 
L 437.375582 171.067306 
z
" style="fill:#ff0000;opacity:0.5;"/>
   </g>
   <g id="patch_29">
    <path clip-path="url(#p08fdac63b2)" d="M 449.333151 630 
L 461.290719 630 
L 461.290719 130.543448 
L 449.333151 130.543448 
z
" style="fill:#ff0000;opacity:0.5;"/>
   </g>
   <g id="patch_30">
    <path clip-path="url(#p08fdac63b2)" d="M 461.290719 630 
L 473.248288 630 
L 473.248288 144.726798 
L 461.290719 144.726798 
z
" style="fill:#ff0000;opacity:0.5;"/>
   </g>
   <g id="patch_31">
    <path clip-path="url(#p08fdac63b2)" d="M 473.248288 630 
L 485.205857 630 
L 485.205857 122.438676 
L 473.248288 122.438676 
z
" style="fill:#ff0000;opacity:0.5;"/>
   </g>
   <g id="patch_32">
    <path clip-path="url(#p08fdac63b2)" d="M 485.205857 630 
L 497.163426 630 
L 497.163426 170.054209 
L 485.205857 170.054209 
z
" style="fill:#ff0000;opacity:0.5;"/>
   </g>
   <g id="patch_33">
    <path clip-path="url(#p08fdac63b2)" d="M 497.163426 630 
L 509.120994 630 
L 509.120994 181.19827 
L 497.163426 181.19827 
z
" style="fill:#ff0000;opacity:0.5;"/>
   </g>
   <g id="patch_34">
    <path clip-path="url(#p08fdac63b2)" d="M 509.120994 630 
L 521.078563 630 
L 521.078563 219.695936 
L 509.120994 219.695936 
z
" style="fill:#ff0000;opacity:0.5;"/>
   </g>
   <g id="patch_35">
    <path clip-path="url(#p08fdac63b2)" d="M 521.078563 630 
L 533.036132 630 
L 533.036132 242.997154 
L 521.078563 242.997154 
z
" style="fill:#ff0000;opacity:0.5;"/>
   </g>
   <g id="patch_36">
    <path clip-path="url(#p08fdac63b2)" d="M 533.036132 630 
L 544.993701 630 
L 544.993701 287.573398 
L 533.036132 287.573398 
z
" style="fill:#ff0000;opacity:0.5;"/>
   </g>
   <g id="patch_37">
    <path clip-path="url(#p08fdac63b2)" d="M 544.993701 630 
L 556.951269 630 
L 556.951269 294.665073 
L 544.993701 294.665073 
z
" style="fill:#ff0000;opacity:0.5;"/>
   </g>
   <g id="patch_38">
    <path clip-path="url(#p08fdac63b2)" d="M 556.951269 630 
L 568.908838 630 
L 568.908838 368.621115 
L 556.951269 368.621115 
z
" style="fill:#ff0000;opacity:0.5;"/>
   </g>
   <g id="patch_39">
    <path clip-path="url(#p08fdac63b2)" d="M 568.908838 630 
L 580.866407 630 
L 580.866407 435.485481 
L 568.908838 435.485481 
z
" style="fill:#ff0000;opacity:0.5;"/>
   </g>
   <g id="patch_40">
    <path clip-path="url(#p08fdac63b2)" d="M 580.866407 630 
L 592.823975 630 
L 592.823975 466.891471 
L 580.866407 466.891471 
z
" style="fill:#ff0000;opacity:0.5;"/>
   </g>
   <g id="patch_41">
    <path clip-path="url(#p08fdac63b2)" d="M 592.823975 630 
L 604.781544 630 
L 604.781544 510.454618 
L 592.823975 510.454618 
z
" style="fill:#ff0000;opacity:0.5;"/>
   </g>
   <g id="patch_42">
    <path clip-path="url(#p08fdac63b2)" d="M 604.781544 630 
L 616.739113 630 
L 616.739113 536.795126 
L 604.781544 536.795126 
z
" style="fill:#ff0000;opacity:0.5;"/>
   </g>
   <g id="patch_43">
    <path clip-path="url(#p08fdac63b2)" d="M 616.739113 630 
L 628.696682 630 
L 628.696682 543.886801 
L 616.739113 543.886801 
z
" style="fill:#ff0000;opacity:0.5;"/>
   </g>
   <g id="patch_44">
    <path clip-path="url(#p08fdac63b2)" d="M 628.696682 630 
L 640.65425 630 
L 640.65425 584.41066 
L 628.696682 584.41066 
z
" style="fill:#ff0000;opacity:0.5;"/>
   </g>
   <g id="patch_45">
    <path clip-path="url(#p08fdac63b2)" d="M 640.65425 630 
L 652.611819 630 
L 652.611819 584.41066 
L 640.65425 584.41066 
z
" style="fill:#ff0000;opacity:0.5;"/>
   </g>
   <g id="patch_46">
    <path clip-path="url(#p08fdac63b2)" d="M 652.611819 630 
L 664.569388 630 
L 664.569388 597.580913 
L 652.611819 597.580913 
z
" style="fill:#ff0000;opacity:0.5;"/>
   </g>
   <g id="patch_47">
    <path clip-path="url(#p08fdac63b2)" d="M 664.569388 630 
L 676.526957 630 
L 676.526957 611.764264 
L 664.569388 611.764264 
z
" style="fill:#ff0000;opacity:0.5;"/>
   </g>
   <g id="patch_48">
    <path clip-path="url(#p08fdac63b2)" d="M 676.526957 630 
L 688.484525 630 
L 688.484525 612.77736 
L 676.526957 612.77736 
z
" style="fill:#ff0000;opacity:0.5;"/>
   </g>
   <g id="patch_49">
    <path clip-path="url(#p08fdac63b2)" d="M 688.484525 630 
L 700.442094 630 
L 700.442094 625.947614 
L 688.484525 625.947614 
z
" style="fill:#ff0000;opacity:0.5;"/>
   </g>
   <g id="patch_50">
    <path clip-path="url(#p08fdac63b2)" d="M 700.442094 630 
L 712.399663 630 
L 712.399663 624.934518 
L 700.442094 624.934518 
z
" style="fill:#ff0000;opacity:0.5;"/>
   </g>
   <g id="patch_51">
    <path clip-path="url(#p08fdac63b2)" d="M 712.399663 630 
L 724.357231 630 
L 724.357231 626.960711 
L 712.399663 626.960711 
z
" style="fill:#ff0000;opacity:0.5;"/>
   </g>
   <g id="patch_52">
    <path clip-path="url(#p08fdac63b2)" d="M 724.357231 630 
L 736.3148 630 
L 736.3148 628.986904 
L 724.357231 628.986904 
z
" style="fill:#ff0000;opacity:0.5;"/>
   </g>
   <g id="patch_53">
    <path clip-path="url(#p08fdac63b2)" d="M 150.48057 630 
L 162.414231 630 
L 162.414231 628.984874 
L 150.48057 628.984874 
z
" style="fill:#0000ff;opacity:0.5;"/>
   </g>
   <g id="patch_54">
    <path clip-path="url(#p08fdac63b2)" d="M 162.414231 630 
L 174.347893 630 
L 174.347893 628.984874 
L 162.414231 628.984874 
z
" style="fill:#0000ff;opacity:0.5;"/>
   </g>
   <g id="patch_55">
    <path clip-path="url(#p08fdac63b2)" d="M 174.347893 630 
L 186.281554 630 
L 186.281554 630 
L 174.347893 630 
z
" style="fill:#0000ff;opacity:0.5;"/>
   </g>
   <g id="patch_56">
    <path clip-path="url(#p08fdac63b2)" d="M 186.281554 630 
L 198.215215 630 
L 198.215215 630 
L 186.281554 630 
z
" style="fill:#0000ff;opacity:0.5;"/>
   </g>
   <g id="patch_57">
    <path clip-path="url(#p08fdac63b2)" d="M 198.215215 630 
L 210.148877 630 
L 210.148877 628.984874 
L 198.215215 628.984874 
z
" style="fill:#0000ff;opacity:0.5;"/>
   </g>
   <g id="patch_58">
    <path clip-path="url(#p08fdac63b2)" d="M 210.148877 630 
L 222.082538 630 
L 222.082538 623.909244 
L 210.148877 623.909244 
z
" style="fill:#0000ff;opacity:0.5;"/>
   </g>
   <g id="patch_59">
    <path clip-path="url(#p08fdac63b2)" d="M 222.082538 630 
L 234.016199 630 
L 234.016199 620.863866 
L 222.082538 620.863866 
z
" style="fill:#0000ff;opacity:0.5;"/>
   </g>
   <g id="patch_60">
    <path clip-path="url(#p08fdac63b2)" d="M 234.016199 630 
L 245.949861 630 
L 245.949861 622.894118 
L 234.016199 622.894118 
z
" style="fill:#0000ff;opacity:0.5;"/>
   </g>
   <g id="patch_61">
    <path clip-path="url(#p08fdac63b2)" d="M 245.949861 630 
L 257.883522 630 
L 257.883522 614.773109 
L 245.949861 614.773109 
z
" style="fill:#0000ff;opacity:0.5;"/>
   </g>
   <g id="patch_62">
    <path clip-path="url(#p08fdac63b2)" d="M 257.883522 630 
L 269.817183 630 
L 269.817183 609.697479 
L 257.883522 609.697479 
z
" style="fill:#0000ff;opacity:0.5;"/>
   </g>
   <g id="patch_63">
    <path clip-path="url(#p08fdac63b2)" d="M 269.817183 630 
L 281.750845 630 
L 281.750845 600.561345 
L 269.817183 600.561345 
z
" style="fill:#0000ff;opacity:0.5;"/>
   </g>
   <g id="patch_64">
    <path clip-path="url(#p08fdac63b2)" d="M 281.750845 630 
L 293.684506 630 
L 293.684506 591.42521 
L 281.750845 591.42521 
z
" style="fill:#0000ff;opacity:0.5;"/>
   </g>
   <g id="patch_65">
    <path clip-path="url(#p08fdac63b2)" d="M 293.684506 630 
L 305.618167 630 
L 305.618167 572.137815 
L 293.684506 572.137815 
z
" style="fill:#0000ff;opacity:0.5;"/>
   </g>
   <g id="patch_66">
    <path clip-path="url(#p08fdac63b2)" d="M 305.618167 630 
L 317.551829 630 
L 317.551829 571.122689 
L 305.618167 571.122689 
z
" style="fill:#0000ff;opacity:0.5;"/>
   </g>
   <g id="patch_67">
    <path clip-path="url(#p08fdac63b2)" d="M 317.551829 630 
L 329.48549 630 
L 329.48549 537.623529 
L 317.551829 537.623529 
z
" style="fill:#0000ff;opacity:0.5;"/>
   </g>
   <g id="patch_68">
    <path clip-path="url(#p08fdac63b2)" d="M 329.48549 630 
L 341.419151 630 
L 341.419151 507.169748 
L 329.48549 507.169748 
z
" style="fill:#0000ff;opacity:0.5;"/>
   </g>
   <g id="patch_69">
    <path clip-path="url(#p08fdac63b2)" d="M 341.419151 630 
L 353.352813 630 
L 353.352813 476.715966 
L 341.419151 476.715966 
z
" style="fill:#0000ff;opacity:0.5;"/>
   </g>
   <g id="patch_70">
    <path clip-path="url(#p08fdac63b2)" d="M 353.352813 630 
L 365.286474 630 
L 365.286474 433.065546 
L 353.352813 433.065546 
z
" style="fill:#0000ff;opacity:0.5;"/>
   </g>
   <g id="patch_71">
    <path clip-path="url(#p08fdac63b2)" d="M 365.286474 630 
L 377.220135 630 
L 377.220135 370.127731 
L 365.286474 370.127731 
z
" style="fill:#0000ff;opacity:0.5;"/>
   </g>
   <g id="patch_72">
    <path clip-path="url(#p08fdac63b2)" d="M 377.220135 630 
L 389.153797 630 
L 389.153797 353.885714 
L 377.220135 353.885714 
z
" style="fill:#0000ff;opacity:0.5;"/>
   </g>
   <g id="patch_73">
    <path clip-path="url(#p08fdac63b2)" d="M 389.153797 630 
L 401.087458 630 
L 401.087458 288.917647 
L 389.153797 288.917647 
z
" style="fill:#0000ff;opacity:0.5;"/>
   </g>
   <g id="patch_74">
    <path clip-path="url(#p08fdac63b2)" d="M 401.087458 630 
L 413.021119 630 
L 413.021119 292.978151 
L 401.087458 292.978151 
z
" style="fill:#0000ff;opacity:0.5;"/>
   </g>
   <g id="patch_75">
    <path clip-path="url(#p08fdac63b2)" d="M 413.021119 630 
L 424.954781 630 
L 424.954781 218.87395 
L 413.021119 218.87395 
z
" style="fill:#0000ff;opacity:0.5;"/>
   </g>
   <g id="patch_76">
    <path clip-path="url(#p08fdac63b2)" d="M 424.954781 630 
L 436.888442 630 
L 436.888442 177.253782 
L 424.954781 177.253782 
z
" style="fill:#0000ff;opacity:0.5;"/>
   </g>
   <g id="patch_77">
    <path clip-path="url(#p08fdac63b2)" d="M 436.888442 630 
L 448.822103 630 
L 448.822103 162.026891 
L 436.888442 162.026891 
z
" style="fill:#0000ff;opacity:0.5;"/>
   </g>
   <g id="patch_78">
    <path clip-path="url(#p08fdac63b2)" d="M 448.822103 630 
L 460.755765 630 
L 460.755765 178.268908 
L 448.822103 178.268908 
z
" style="fill:#0000ff;opacity:0.5;"/>
   </g>
   <g id="patch_79">
    <path clip-path="url(#p08fdac63b2)" d="M 460.755765 630 
L 472.689426 630 
L 472.689426 112.285714 
L 460.755765 112.285714 
z
" style="fill:#0000ff;opacity:0.5;"/>
   </g>
   <g id="patch_80">
    <path clip-path="url(#p08fdac63b2)" d="M 472.689426 630 
L 484.623087 630 
L 484.623087 185.37479 
L 472.689426 185.37479 
z
" style="fill:#0000ff;opacity:0.5;"/>
   </g>
   <g id="patch_81">
    <path clip-path="url(#p08fdac63b2)" d="M 484.623087 630 
L 496.556748 630 
L 496.556748 149.845378 
L 484.623087 149.845378 
z
" style="fill:#0000ff;opacity:0.5;"/>
   </g>
   <g id="patch_82">
    <path clip-path="url(#p08fdac63b2)" d="M 496.556748 630 
L 508.49041 630 
L 508.49041 192.480672 
L 496.556748 192.480672 
z
" style="fill:#0000ff;opacity:0.5;"/>
   </g>
   <g id="patch_83">
    <path clip-path="url(#p08fdac63b2)" d="M 508.49041 630 
L 520.424071 630 
L 520.424071 194.510924 
L 508.49041 194.510924 
z
" style="fill:#0000ff;opacity:0.5;"/>
   </g>
   <g id="patch_84">
    <path clip-path="url(#p08fdac63b2)" d="M 520.424071 630 
L 532.357732 630 
L 532.357732 263.539496 
L 520.424071 263.539496 
z
" style="fill:#0000ff;opacity:0.5;"/>
   </g>
   <g id="patch_85">
    <path clip-path="url(#p08fdac63b2)" d="M 532.357732 630 
L 544.291394 630 
L 544.291394 254.403361 
L 532.357732 254.403361 
z
" style="fill:#0000ff;opacity:0.5;"/>
   </g>
   <g id="patch_86">
    <path clip-path="url(#p08fdac63b2)" d="M 544.291394 630 
L 556.225055 630 
L 556.225055 327.492437 
L 544.291394 327.492437 
z
" style="fill:#0000ff;opacity:0.5;"/>
   </g>
   <g id="patch_87">
    <path clip-path="url(#p08fdac63b2)" d="M 556.225055 630 
L 568.158716 630 
L 568.158716 352.870588 
L 556.225055 352.870588 
z
" style="fill:#0000ff;opacity:0.5;"/>
   </g>
   <g id="patch_88">
    <path clip-path="url(#p08fdac63b2)" d="M 568.158716 630 
L 580.092378 630 
L 580.092378 427.989916 
L 568.158716 427.989916 
z
" style="fill:#0000ff;opacity:0.5;"/>
   </g>
   <g id="patch_89">
    <path clip-path="url(#p08fdac63b2)" d="M 580.092378 630 
L 592.026039 630 
L 592.026039 477.731092 
L 580.092378 477.731092 
z
" style="fill:#0000ff;opacity:0.5;"/>
   </g>
   <g id="patch_90">
    <path clip-path="url(#p08fdac63b2)" d="M 592.026039 630 
L 603.9597 630 
L 603.9597 497.018487 
L 592.026039 497.018487 
z
" style="fill:#0000ff;opacity:0.5;"/>
   </g>
   <g id="patch_91">
    <path clip-path="url(#p08fdac63b2)" d="M 603.9597 630 
L 615.893362 630 
L 615.893362 531.532773 
L 603.9597 531.532773 
z
" style="fill:#0000ff;opacity:0.5;"/>
   </g>
   <g id="patch_92">
    <path clip-path="url(#p08fdac63b2)" d="M 615.893362 630 
L 627.827023 630 
L 627.827023 550.820168 
L 615.893362 550.820168 
z
" style="fill:#0000ff;opacity:0.5;"/>
   </g>
   <g id="patch_93">
    <path clip-path="url(#p08fdac63b2)" d="M 627.827023 630 
L 639.760684 630 
L 639.760684 555.895798 
L 627.827023 555.895798 
z
" style="fill:#0000ff;opacity:0.5;"/>
   </g>
   <g id="patch_94">
    <path clip-path="url(#p08fdac63b2)" d="M 639.760684 630 
L 651.694346 630 
L 651.694346 581.27395 
L 639.760684 581.27395 
z
" style="fill:#0000ff;opacity:0.5;"/>
   </g>
   <g id="patch_95">
    <path clip-path="url(#p08fdac63b2)" d="M 651.694346 630 
L 663.628007 630 
L 663.628007 601.576471 
L 651.694346 601.576471 
z
" style="fill:#0000ff;opacity:0.5;"/>
   </g>
   <g id="patch_96">
    <path clip-path="url(#p08fdac63b2)" d="M 663.628007 630 
L 675.561668 630 
L 675.561668 599.546218 
L 663.628007 599.546218 
z
" style="fill:#0000ff;opacity:0.5;"/>
   </g>
   <g id="patch_97">
    <path clip-path="url(#p08fdac63b2)" d="M 675.561668 630 
L 687.49533 630 
L 687.49533 621.878992 
L 675.561668 621.878992 
z
" style="fill:#0000ff;opacity:0.5;"/>
   </g>
   <g id="patch_98">
    <path clip-path="url(#p08fdac63b2)" d="M 687.49533 630 
L 699.428991 630 
L 699.428991 624.92437 
L 687.49533 624.92437 
z
" style="fill:#0000ff;opacity:0.5;"/>
   </g>
   <g id="patch_99">
    <path clip-path="url(#p08fdac63b2)" d="M 699.428991 630 
L 711.362652 630 
L 711.362652 625.939496 
L 699.428991 625.939496 
z
" style="fill:#0000ff;opacity:0.5;"/>
   </g>
   <g id="patch_100">
    <path clip-path="url(#p08fdac63b2)" d="M 711.362652 630 
L 723.296314 630 
L 723.296314 626.954622 
L 711.362652 626.954622 
z
" style="fill:#0000ff;opacity:0.5;"/>
   </g>
   <g id="patch_101">
    <path clip-path="url(#p08fdac63b2)" d="M 723.296314 630 
L 735.229975 630 
L 735.229975 630 
L 723.296314 630 
z
" style="fill:#0000ff;opacity:0.5;"/>
   </g>
   <g id="patch_102">
    <path clip-path="url(#p08fdac63b2)" d="M 735.229975 630 
L 747.163636 630 
L 747.163636 626.954622 
L 735.229975 626.954622 
z
" style="fill:#0000ff;opacity:0.5;"/>
   </g>
   <g id="matplotlib.axis_1">
    <g id="xtick_1">
     <g id="line2d_1">
      <defs>
       <path d="M 0 0 
L 0 3.5 
" id="m14784a8ee4" style="stroke:#000000;stroke-width:0.8;"/>
      </defs>
      <g>
       <use style="stroke:#000000;stroke-width:0.8;" x="138.436364" xlink:href="#m14784a8ee4" y="630"/>
      </g>
     </g>
     <g id="text_1">
      <!-- 0.0 -->
      <defs>
       <path d="M 31.78125 66.40625 
Q 24.171875 66.40625 20.328125 58.90625 
Q 16.5 51.421875 16.5 36.375 
Q 16.5 21.390625 20.328125 13.890625 
Q 24.171875 6.390625 31.78125 6.390625 
Q 39.453125 6.390625 43.28125 13.890625 
Q 47.125 21.390625 47.125 36.375 
Q 47.125 51.421875 43.28125 58.90625 
Q 39.453125 66.40625 31.78125 66.40625 
z
M 31.78125 74.21875 
Q 44.046875 74.21875 50.515625 64.515625 
Q 56.984375 54.828125 56.984375 36.375 
Q 56.984375 17.96875 50.515625 8.265625 
Q 44.046875 -1.421875 31.78125 -1.421875 
Q 19.53125 -1.421875 13.0625 8.265625 
Q 6.59375 17.96875 6.59375 36.375 
Q 6.59375 54.828125 13.0625 64.515625 
Q 19.53125 74.21875 31.78125 74.21875 
z
" id="DejaVuSans-48"/>
       <path d="M 10.6875 12.40625 
L 21 12.40625 
L 21 0 
L 10.6875 0 
z
" id="DejaVuSans-46"/>
      </defs>
      <g transform="translate(130.484801 644.598438)scale(0.1 -0.1)">
       <use xlink:href="#DejaVuSans-48"/>
       <use x="63.623047" xlink:href="#DejaVuSans-46"/>
       <use x="95.410156" xlink:href="#DejaVuSans-48"/>
      </g>
     </g>
    </g>
    <g id="xtick_2">
     <g id="line2d_2">
      <g>
       <use style="stroke:#000000;stroke-width:0.8;" x="265.547489" xlink:href="#m14784a8ee4" y="630"/>
      </g>
     </g>
     <g id="text_2">
      <!-- 0.2 -->
      <defs>
       <path d="M 19.1875 8.296875 
L 53.609375 8.296875 
L 53.609375 0 
L 7.328125 0 
L 7.328125 8.296875 
Q 12.9375 14.109375 22.625 23.890625 
Q 32.328125 33.6875 34.8125 36.53125 
Q 39.546875 41.84375 41.421875 45.53125 
Q 43.3125 49.21875 43.3125 52.78125 
Q 43.3125 58.59375 39.234375 62.25 
Q 35.15625 65.921875 28.609375 65.921875 
Q 23.96875 65.921875 18.8125 64.3125 
Q 13.671875 62.703125 7.8125 59.421875 
L 7.8125 69.390625 
Q 13.765625 71.78125 18.9375 73 
Q 24.125 74.21875 28.421875 74.21875 
Q 39.75 74.21875 46.484375 68.546875 
Q 53.21875 62.890625 53.21875 53.421875 
Q 53.21875 48.921875 51.53125 44.890625 
Q 49.859375 40.875 45.40625 35.40625 
Q 44.1875 33.984375 37.640625 27.21875 
Q 31.109375 20.453125 19.1875 8.296875 
z
" id="DejaVuSans-50"/>
      </defs>
      <g transform="translate(257.595927 644.598438)scale(0.1 -0.1)">
       <use xlink:href="#DejaVuSans-48"/>
       <use x="63.623047" xlink:href="#DejaVuSans-46"/>
       <use x="95.410156" xlink:href="#DejaVuSans-50"/>
      </g>
     </g>
    </g>
    <g id="xtick_3">
     <g id="line2d_3">
      <g>
       <use style="stroke:#000000;stroke-width:0.8;" x="392.658615" xlink:href="#m14784a8ee4" y="630"/>
      </g>
     </g>
     <g id="text_3">
      <!-- 0.4 -->
      <defs>
       <path d="M 37.796875 64.3125 
L 12.890625 25.390625 
L 37.796875 25.390625 
z
M 35.203125 72.90625 
L 47.609375 72.90625 
L 47.609375 25.390625 
L 58.015625 25.390625 
L 58.015625 17.1875 
L 47.609375 17.1875 
L 47.609375 0 
L 37.796875 0 
L 37.796875 17.1875 
L 4.890625 17.1875 
L 4.890625 26.703125 
z
" id="DejaVuSans-52"/>
      </defs>
      <g transform="translate(384.707053 644.598438)scale(0.1 -0.1)">
       <use xlink:href="#DejaVuSans-48"/>
       <use x="63.623047" xlink:href="#DejaVuSans-46"/>
       <use x="95.410156" xlink:href="#DejaVuSans-52"/>
      </g>
     </g>
    </g>
    <g id="xtick_4">
     <g id="line2d_4">
      <g>
       <use style="stroke:#000000;stroke-width:0.8;" x="519.769741" xlink:href="#m14784a8ee4" y="630"/>
      </g>
     </g>
     <g id="text_4">
      <!-- 0.6 -->
      <defs>
       <path d="M 33.015625 40.375 
Q 26.375 40.375 22.484375 35.828125 
Q 18.609375 31.296875 18.609375 23.390625 
Q 18.609375 15.53125 22.484375 10.953125 
Q 26.375 6.390625 33.015625 6.390625 
Q 39.65625 6.390625 43.53125 10.953125 
Q 47.40625 15.53125 47.40625 23.390625 
Q 47.40625 31.296875 43.53125 35.828125 
Q 39.65625 40.375 33.015625 40.375 
z
M 52.59375 71.296875 
L 52.59375 62.3125 
Q 48.875 64.0625 45.09375 64.984375 
Q 41.3125 65.921875 37.59375 65.921875 
Q 27.828125 65.921875 22.671875 59.328125 
Q 17.53125 52.734375 16.796875 39.40625 
Q 19.671875 43.65625 24.015625 45.921875 
Q 28.375 48.1875 33.59375 48.1875 
Q 44.578125 48.1875 50.953125 41.515625 
Q 57.328125 34.859375 57.328125 23.390625 
Q 57.328125 12.15625 50.6875 5.359375 
Q 44.046875 -1.421875 33.015625 -1.421875 
Q 20.359375 -1.421875 13.671875 8.265625 
Q 6.984375 17.96875 6.984375 36.375 
Q 6.984375 53.65625 15.1875 63.9375 
Q 23.390625 74.21875 37.203125 74.21875 
Q 40.921875 74.21875 44.703125 73.484375 
Q 48.484375 72.75 52.59375 71.296875 
z
" id="DejaVuSans-54"/>
      </defs>
      <g transform="translate(511.818179 644.598438)scale(0.1 -0.1)">
       <use xlink:href="#DejaVuSans-48"/>
       <use x="63.623047" xlink:href="#DejaVuSans-46"/>
       <use x="95.410156" xlink:href="#DejaVuSans-54"/>
      </g>
     </g>
    </g>
    <g id="xtick_5">
     <g id="line2d_5">
      <g>
       <use style="stroke:#000000;stroke-width:0.8;" x="646.880867" xlink:href="#m14784a8ee4" y="630"/>
      </g>
     </g>
     <g id="text_5">
      <!-- 0.8 -->
      <defs>
       <path d="M 31.78125 34.625 
Q 24.75 34.625 20.71875 30.859375 
Q 16.703125 27.09375 16.703125 20.515625 
Q 16.703125 13.921875 20.71875 10.15625 
Q 24.75 6.390625 31.78125 6.390625 
Q 38.8125 6.390625 42.859375 10.171875 
Q 46.921875 13.96875 46.921875 20.515625 
Q 46.921875 27.09375 42.890625 30.859375 
Q 38.875 34.625 31.78125 34.625 
z
M 21.921875 38.8125 
Q 15.578125 40.375 12.03125 44.71875 
Q 8.5 49.078125 8.5 55.328125 
Q 8.5 64.0625 14.71875 69.140625 
Q 20.953125 74.21875 31.78125 74.21875 
Q 42.671875 74.21875 48.875 69.140625 
Q 55.078125 64.0625 55.078125 55.328125 
Q 55.078125 49.078125 51.53125 44.71875 
Q 48 40.375 41.703125 38.8125 
Q 48.828125 37.15625 52.796875 32.3125 
Q 56.78125 27.484375 56.78125 20.515625 
Q 56.78125 9.90625 50.3125 4.234375 
Q 43.84375 -1.421875 31.78125 -1.421875 
Q 19.734375 -1.421875 13.25 4.234375 
Q 6.78125 9.90625 6.78125 20.515625 
Q 6.78125 27.484375 10.78125 32.3125 
Q 14.796875 37.15625 21.921875 38.8125 
z
M 18.3125 54.390625 
Q 18.3125 48.734375 21.84375 45.5625 
Q 25.390625 42.390625 31.78125 42.390625 
Q 38.140625 42.390625 41.71875 45.5625 
Q 45.3125 48.734375 45.3125 54.390625 
Q 45.3125 60.0625 41.71875 63.234375 
Q 38.140625 66.40625 31.78125 66.40625 
Q 25.390625 66.40625 21.84375 63.234375 
Q 18.3125 60.0625 18.3125 54.390625 
z
" id="DejaVuSans-56"/>
      </defs>
      <g transform="translate(638.929304 644.598438)scale(0.1 -0.1)">
       <use xlink:href="#DejaVuSans-48"/>
       <use x="63.623047" xlink:href="#DejaVuSans-46"/>
       <use x="95.410156" xlink:href="#DejaVuSans-56"/>
      </g>
     </g>
    </g>
    <g id="xtick_6">
     <g id="line2d_6">
      <g>
       <use style="stroke:#000000;stroke-width:0.8;" x="773.991993" xlink:href="#m14784a8ee4" y="630"/>
      </g>
     </g>
     <g id="text_6">
      <!-- 1.0 -->
      <defs>
       <path d="M 12.40625 8.296875 
L 28.515625 8.296875 
L 28.515625 63.921875 
L 10.984375 60.40625 
L 10.984375 69.390625 
L 28.421875 72.90625 
L 38.28125 72.90625 
L 38.28125 8.296875 
L 54.390625 8.296875 
L 54.390625 0 
L 12.40625 0 
z
" id="DejaVuSans-49"/>
      </defs>
      <g transform="translate(766.04043 644.598438)scale(0.1 -0.1)">
       <use xlink:href="#DejaVuSans-49"/>
       <use x="63.623047" xlink:href="#DejaVuSans-46"/>
       <use x="95.410156" xlink:href="#DejaVuSans-48"/>
      </g>
     </g>
    </g>
    <g id="text_7">
     <!-- Value -->
     <defs>
      <path d="M 28.609375 0 
L 0.78125 72.90625 
L 11.078125 72.90625 
L 34.1875 11.53125 
L 57.328125 72.90625 
L 67.578125 72.90625 
L 39.796875 0 
z
" id="DejaVuSans-86"/>
      <path d="M 34.28125 27.484375 
Q 23.390625 27.484375 19.1875 25 
Q 14.984375 22.515625 14.984375 16.5 
Q 14.984375 11.71875 18.140625 8.90625 
Q 21.296875 6.109375 26.703125 6.109375 
Q 34.1875 6.109375 38.703125 11.40625 
Q 43.21875 16.703125 43.21875 25.484375 
L 43.21875 27.484375 
z
M 52.203125 31.203125 
L 52.203125 0 
L 43.21875 0 
L 43.21875 8.296875 
Q 40.140625 3.328125 35.546875 0.953125 
Q 30.953125 -1.421875 24.3125 -1.421875 
Q 15.921875 -1.421875 10.953125 3.296875 
Q 6 8.015625 6 15.921875 
Q 6 25.140625 12.171875 29.828125 
Q 18.359375 34.515625 30.609375 34.515625 
L 43.21875 34.515625 
L 43.21875 35.40625 
Q 43.21875 41.609375 39.140625 45 
Q 35.0625 48.390625 27.6875 48.390625 
Q 23 48.390625 18.546875 47.265625 
Q 14.109375 46.140625 10.015625 43.890625 
L 10.015625 52.203125 
Q 14.9375 54.109375 19.578125 55.046875 
Q 24.21875 56 28.609375 56 
Q 40.484375 56 46.34375 49.84375 
Q 52.203125 43.703125 52.203125 31.203125 
z
" id="DejaVuSans-97"/>
      <path d="M 9.421875 75.984375 
L 18.40625 75.984375 
L 18.40625 0 
L 9.421875 0 
z
" id="DejaVuSans-108"/>
      <path d="M 8.5 21.578125 
L 8.5 54.6875 
L 17.484375 54.6875 
L 17.484375 21.921875 
Q 17.484375 14.15625 20.5 10.265625 
Q 23.53125 6.390625 29.59375 6.390625 
Q 36.859375 6.390625 41.078125 11.03125 
Q 45.3125 15.671875 45.3125 23.6875 
L 45.3125 54.6875 
L 54.296875 54.6875 
L 54.296875 0 
L 45.3125 0 
L 45.3125 8.40625 
Q 42.046875 3.421875 37.71875 1 
Q 33.40625 -1.421875 27.6875 -1.421875 
Q 18.265625 -1.421875 13.375 4.4375 
Q 8.5 10.296875 8.5 21.578125 
z
M 31.109375 56 
z
" id="DejaVuSans-117"/>
      <path d="M 56.203125 29.59375 
L 56.203125 25.203125 
L 14.890625 25.203125 
Q 15.484375 15.921875 20.484375 11.0625 
Q 25.484375 6.203125 34.421875 6.203125 
Q 39.59375 6.203125 44.453125 7.46875 
Q 49.3125 8.734375 54.109375 11.28125 
L 54.109375 2.78125 
Q 49.265625 0.734375 44.1875 -0.34375 
Q 39.109375 -1.421875 33.890625 -1.421875 
Q 20.796875 -1.421875 13.15625 6.1875 
Q 5.515625 13.8125 5.515625 26.8125 
Q 5.515625 40.234375 12.765625 48.109375 
Q 20.015625 56 32.328125 56 
Q 43.359375 56 49.78125 48.890625 
Q 56.203125 41.796875 56.203125 29.59375 
z
M 47.21875 32.234375 
Q 47.125 39.59375 43.09375 43.984375 
Q 39.0625 48.390625 32.421875 48.390625 
Q 24.90625 48.390625 20.390625 44.140625 
Q 15.875 39.890625 15.1875 32.171875 
z
" id="DejaVuSans-101"/>
     </defs>
     <g transform="translate(428.686719 658.276562)scale(0.1 -0.1)">
      <use xlink:href="#DejaVuSans-86"/>
      <use x="68.298828" xlink:href="#DejaVuSans-97"/>
      <use x="129.578125" xlink:href="#DejaVuSans-108"/>
      <use x="157.361328" xlink:href="#DejaVuSans-117"/>
      <use x="220.740234" xlink:href="#DejaVuSans-101"/>
     </g>
    </g>
   </g>
   <g id="matplotlib.axis_2">
    <g id="ytick_1">
     <g id="line2d_7">
      <defs>
       <path d="M 0 0 
L -3.5 0 
" id="me025bd4f71" style="stroke:#000000;stroke-width:0.8;"/>
      </defs>
      <g>
       <use style="stroke:#000000;stroke-width:0.8;" x="108" xlink:href="#me025bd4f71" y="630"/>
      </g>
     </g>
     <g id="text_8">
      <!-- 0.0 -->
      <g transform="translate(85.096875 633.799219)scale(0.1 -0.1)">
       <use xlink:href="#DejaVuSans-48"/>
       <use x="63.623047" xlink:href="#DejaVuSans-46"/>
       <use x="95.410156" xlink:href="#DejaVuSans-48"/>
      </g>
     </g>
    </g>
    <g id="ytick_2">
     <g id="line2d_8">
      <g>
       <use style="stroke:#000000;stroke-width:0.8;" x="108" xlink:href="#me025bd4f71" y="551.927145"/>
      </g>
     </g>
     <g id="text_9">
      <!-- 0.5 -->
      <defs>
       <path d="M 10.796875 72.90625 
L 49.515625 72.90625 
L 49.515625 64.59375 
L 19.828125 64.59375 
L 19.828125 46.734375 
Q 21.96875 47.46875 24.109375 47.828125 
Q 26.265625 48.1875 28.421875 48.1875 
Q 40.625 48.1875 47.75 41.5 
Q 54.890625 34.8125 54.890625 23.390625 
Q 54.890625 11.625 47.5625 5.09375 
Q 40.234375 -1.421875 26.90625 -1.421875 
Q 22.3125 -1.421875 17.546875 -0.640625 
Q 12.796875 0.140625 7.71875 1.703125 
L 7.71875 11.625 
Q 12.109375 9.234375 16.796875 8.0625 
Q 21.484375 6.890625 26.703125 6.890625 
Q 35.15625 6.890625 40.078125 11.328125 
Q 45.015625 15.765625 45.015625 23.390625 
Q 45.015625 31 40.078125 35.4375 
Q 35.15625 39.890625 26.703125 39.890625 
Q 22.75 39.890625 18.8125 39.015625 
Q 14.890625 38.140625 10.796875 36.28125 
z
" id="DejaVuSans-53"/>
      </defs>
      <g transform="translate(85.096875 555.726364)scale(0.1 -0.1)">
       <use xlink:href="#DejaVuSans-48"/>
       <use x="63.623047" xlink:href="#DejaVuSans-46"/>
       <use x="95.410156" xlink:href="#DejaVuSans-53"/>
      </g>
     </g>
    </g>
    <g id="ytick_3">
     <g id="line2d_9">
      <g>
       <use style="stroke:#000000;stroke-width:0.8;" x="108" xlink:href="#me025bd4f71" y="473.85429"/>
      </g>
     </g>
     <g id="text_10">
      <!-- 1.0 -->
      <g transform="translate(85.096875 477.653509)scale(0.1 -0.1)">
       <use xlink:href="#DejaVuSans-49"/>
       <use x="63.623047" xlink:href="#DejaVuSans-46"/>
       <use x="95.410156" xlink:href="#DejaVuSans-48"/>
      </g>
     </g>
    </g>
    <g id="ytick_4">
     <g id="line2d_10">
      <g>
       <use style="stroke:#000000;stroke-width:0.8;" x="108" xlink:href="#me025bd4f71" y="395.781436"/>
      </g>
     </g>
     <g id="text_11">
      <!-- 1.5 -->
      <g transform="translate(85.096875 399.580654)scale(0.1 -0.1)">
       <use xlink:href="#DejaVuSans-49"/>
       <use x="63.623047" xlink:href="#DejaVuSans-46"/>
       <use x="95.410156" xlink:href="#DejaVuSans-53"/>
      </g>
     </g>
    </g>
    <g id="ytick_5">
     <g id="line2d_11">
      <g>
       <use style="stroke:#000000;stroke-width:0.8;" x="108" xlink:href="#me025bd4f71" y="317.708581"/>
      </g>
     </g>
     <g id="text_12">
      <!-- 2.0 -->
      <g transform="translate(85.096875 321.5078)scale(0.1 -0.1)">
       <use xlink:href="#DejaVuSans-50"/>
       <use x="63.623047" xlink:href="#DejaVuSans-46"/>
       <use x="95.410156" xlink:href="#DejaVuSans-48"/>
      </g>
     </g>
    </g>
    <g id="ytick_6">
     <g id="line2d_12">
      <g>
       <use style="stroke:#000000;stroke-width:0.8;" x="108" xlink:href="#me025bd4f71" y="239.635726"/>
      </g>
     </g>
     <g id="text_13">
      <!-- 2.5 -->
      <g transform="translate(85.096875 243.434945)scale(0.1 -0.1)">
       <use xlink:href="#DejaVuSans-50"/>
       <use x="63.623047" xlink:href="#DejaVuSans-46"/>
       <use x="95.410156" xlink:href="#DejaVuSans-53"/>
      </g>
     </g>
    </g>
    <g id="ytick_7">
     <g id="line2d_13">
      <g>
       <use style="stroke:#000000;stroke-width:0.8;" x="108" xlink:href="#me025bd4f71" y="161.562871"/>
      </g>
     </g>
     <g id="text_14">
      <!-- 3.0 -->
      <defs>
       <path d="M 40.578125 39.3125 
Q 47.65625 37.796875 51.625 33 
Q 55.609375 28.21875 55.609375 21.1875 
Q 55.609375 10.40625 48.1875 4.484375 
Q 40.765625 -1.421875 27.09375 -1.421875 
Q 22.515625 -1.421875 17.65625 -0.515625 
Q 12.796875 0.390625 7.625 2.203125 
L 7.625 11.71875 
Q 11.71875 9.328125 16.59375 8.109375 
Q 21.484375 6.890625 26.8125 6.890625 
Q 36.078125 6.890625 40.9375 10.546875 
Q 45.796875 14.203125 45.796875 21.1875 
Q 45.796875 27.640625 41.28125 31.265625 
Q 36.765625 34.90625 28.71875 34.90625 
L 20.21875 34.90625 
L 20.21875 43.015625 
L 29.109375 43.015625 
Q 36.375 43.015625 40.234375 45.921875 
Q 44.09375 48.828125 44.09375 54.296875 
Q 44.09375 59.90625 40.109375 62.90625 
Q 36.140625 65.921875 28.71875 65.921875 
Q 24.65625 65.921875 20.015625 65.03125 
Q 15.375 64.15625 9.8125 62.3125 
L 9.8125 71.09375 
Q 15.4375 72.65625 20.34375 73.4375 
Q 25.25 74.21875 29.59375 74.21875 
Q 40.828125 74.21875 47.359375 69.109375 
Q 53.90625 64.015625 53.90625 55.328125 
Q 53.90625 49.265625 50.4375 45.09375 
Q 46.96875 40.921875 40.578125 39.3125 
z
" id="DejaVuSans-51"/>
      </defs>
      <g transform="translate(85.096875 165.36209)scale(0.1 -0.1)">
       <use xlink:href="#DejaVuSans-51"/>
       <use x="63.623047" xlink:href="#DejaVuSans-46"/>
       <use x="95.410156" xlink:href="#DejaVuSans-48"/>
      </g>
     </g>
    </g>
    <g id="text_15">
     <!-- Frequency -->
     <defs>
      <path d="M 9.8125 72.90625 
L 51.703125 72.90625 
L 51.703125 64.59375 
L 19.671875 64.59375 
L 19.671875 43.109375 
L 48.578125 43.109375 
L 48.578125 34.8125 
L 19.671875 34.8125 
L 19.671875 0 
L 9.8125 0 
z
" id="DejaVuSans-70"/>
      <path d="M 41.109375 46.296875 
Q 39.59375 47.171875 37.8125 47.578125 
Q 36.03125 48 33.890625 48 
Q 26.265625 48 22.1875 43.046875 
Q 18.109375 38.09375 18.109375 28.8125 
L 18.109375 0 
L 9.078125 0 
L 9.078125 54.6875 
L 18.109375 54.6875 
L 18.109375 46.1875 
Q 20.953125 51.171875 25.484375 53.578125 
Q 30.03125 56 36.53125 56 
Q 37.453125 56 38.578125 55.875 
Q 39.703125 55.765625 41.0625 55.515625 
z
" id="DejaVuSans-114"/>
      <path d="M 14.796875 27.296875 
Q 14.796875 17.390625 18.875 11.75 
Q 22.953125 6.109375 30.078125 6.109375 
Q 37.203125 6.109375 41.296875 11.75 
Q 45.40625 17.390625 45.40625 27.296875 
Q 45.40625 37.203125 41.296875 42.84375 
Q 37.203125 48.484375 30.078125 48.484375 
Q 22.953125 48.484375 18.875 42.84375 
Q 14.796875 37.203125 14.796875 27.296875 
z
M 45.40625 8.203125 
Q 42.578125 3.328125 38.25 0.953125 
Q 33.9375 -1.421875 27.875 -1.421875 
Q 17.96875 -1.421875 11.734375 6.484375 
Q 5.515625 14.40625 5.515625 27.296875 
Q 5.515625 40.1875 11.734375 48.09375 
Q 17.96875 56 27.875 56 
Q 33.9375 56 38.25 53.625 
Q 42.578125 51.265625 45.40625 46.390625 
L 45.40625 54.6875 
L 54.390625 54.6875 
L 54.390625 -20.796875 
L 45.40625 -20.796875 
z
" id="DejaVuSans-113"/>
      <path d="M 54.890625 33.015625 
L 54.890625 0 
L 45.90625 0 
L 45.90625 32.71875 
Q 45.90625 40.484375 42.875 44.328125 
Q 39.84375 48.1875 33.796875 48.1875 
Q 26.515625 48.1875 22.3125 43.546875 
Q 18.109375 38.921875 18.109375 30.90625 
L 18.109375 0 
L 9.078125 0 
L 9.078125 54.6875 
L 18.109375 54.6875 
L 18.109375 46.1875 
Q 21.34375 51.125 25.703125 53.5625 
Q 30.078125 56 35.796875 56 
Q 45.21875 56 50.046875 50.171875 
Q 54.890625 44.34375 54.890625 33.015625 
z
" id="DejaVuSans-110"/>
      <path d="M 48.78125 52.59375 
L 48.78125 44.1875 
Q 44.96875 46.296875 41.140625 47.34375 
Q 37.3125 48.390625 33.40625 48.390625 
Q 24.65625 48.390625 19.8125 42.84375 
Q 14.984375 37.3125 14.984375 27.296875 
Q 14.984375 17.28125 19.8125 11.734375 
Q 24.65625 6.203125 33.40625 6.203125 
Q 37.3125 6.203125 41.140625 7.25 
Q 44.96875 8.296875 48.78125 10.40625 
L 48.78125 2.09375 
Q 45.015625 0.34375 40.984375 -0.53125 
Q 36.96875 -1.421875 32.421875 -1.421875 
Q 20.0625 -1.421875 12.78125 6.34375 
Q 5.515625 14.109375 5.515625 27.296875 
Q 5.515625 40.671875 12.859375 48.328125 
Q 20.21875 56 33.015625 56 
Q 37.15625 56 41.109375 55.140625 
Q 45.0625 54.296875 48.78125 52.59375 
z
" id="DejaVuSans-99"/>
      <path d="M 32.171875 -5.078125 
Q 28.375 -14.84375 24.75 -17.8125 
Q 21.140625 -20.796875 15.09375 -20.796875 
L 7.90625 -20.796875 
L 7.90625 -13.28125 
L 13.1875 -13.28125 
Q 16.890625 -13.28125 18.9375 -11.515625 
Q 21 -9.765625 23.484375 -3.21875 
L 25.09375 0.875 
L 2.984375 54.6875 
L 12.5 54.6875 
L 29.59375 11.921875 
L 46.6875 54.6875 
L 56.203125 54.6875 
z
" id="DejaVuSans-121"/>
     </defs>
     <g transform="translate(79.017187 384.497656)rotate(-90)scale(0.1 -0.1)">
      <use xlink:href="#DejaVuSans-70"/>
      <use x="57.410156" xlink:href="#DejaVuSans-114"/>
      <use x="98.492188" xlink:href="#DejaVuSans-101"/>
      <use x="160.015625" xlink:href="#DejaVuSans-113"/>
      <use x="223.492188" xlink:href="#DejaVuSans-117"/>
      <use x="286.871094" xlink:href="#DejaVuSans-101"/>
      <use x="348.394531" xlink:href="#DejaVuSans-110"/>
      <use x="411.773438" xlink:href="#DejaVuSans-99"/>
      <use x="466.753906" xlink:href="#DejaVuSans-121"/>
     </g>
    </g>
   </g>
   <g id="patch_103">
    <path d="M 108 630 
L 108 86.4 
" style="fill:none;stroke:#000000;stroke-linecap:square;stroke-linejoin:miter;stroke-width:0.8;"/>
   </g>
   <g id="patch_104">
    <path d="M 777.6 630 
L 777.6 86.4 
" style="fill:none;stroke:#000000;stroke-linecap:square;stroke-linejoin:miter;stroke-width:0.8;"/>
   </g>
   <g id="patch_105">
    <path d="M 108 630 
L 777.6 630 
" style="fill:none;stroke:#000000;stroke-linecap:square;stroke-linejoin:miter;stroke-width:0.8;"/>
   </g>
   <g id="patch_106">
    <path d="M 108 86.4 
L 777.6 86.4 
" style="fill:none;stroke:#000000;stroke-linecap:square;stroke-linejoin:miter;stroke-width:0.8;"/>
   </g>
   <g id="text_16">
    <!-- Layer: conv2 -->
    <defs>
     <path d="M 9.8125 72.90625 
L 19.671875 72.90625 
L 19.671875 8.296875 
L 55.171875 8.296875 
L 55.171875 0 
L 9.8125 0 
z
" id="DejaVuSans-76"/>
     <path d="M 11.71875 12.40625 
L 22.015625 12.40625 
L 22.015625 0 
L 11.71875 0 
z
M 11.71875 51.703125 
L 22.015625 51.703125 
L 22.015625 39.3125 
L 11.71875 39.3125 
z
" id="DejaVuSans-58"/>
     <path id="DejaVuSans-32"/>
     <path d="M 30.609375 48.390625 
Q 23.390625 48.390625 19.1875 42.75 
Q 14.984375 37.109375 14.984375 27.296875 
Q 14.984375 17.484375 19.15625 11.84375 
Q 23.34375 6.203125 30.609375 6.203125 
Q 37.796875 6.203125 41.984375 11.859375 
Q 46.1875 17.53125 46.1875 27.296875 
Q 46.1875 37.015625 41.984375 42.703125 
Q 37.796875 48.390625 30.609375 48.390625 
z
M 30.609375 56 
Q 42.328125 56 49.015625 48.375 
Q 55.71875 40.765625 55.71875 27.296875 
Q 55.71875 13.875 49.015625 6.21875 
Q 42.328125 -1.421875 30.609375 -1.421875 
Q 18.84375 -1.421875 12.171875 6.21875 
Q 5.515625 13.875 5.515625 27.296875 
Q 5.515625 40.765625 12.171875 48.375 
Q 18.84375 56 30.609375 56 
z
" id="DejaVuSans-111"/>
     <path d="M 2.984375 54.6875 
L 12.5 54.6875 
L 29.59375 8.796875 
L 46.6875 54.6875 
L 56.203125 54.6875 
L 35.6875 0 
L 23.484375 0 
z
" id="DejaVuSans-118"/>
    </defs>
    <g transform="translate(404.001563 80.4)scale(0.12 -0.12)">
     <use xlink:href="#DejaVuSans-76"/>
     <use x="55.712891" xlink:href="#DejaVuSans-97"/>
     <use x="116.992188" xlink:href="#DejaVuSans-121"/>
     <use x="176.171875" xlink:href="#DejaVuSans-101"/>
     <use x="237.695312" xlink:href="#DejaVuSans-114"/>
     <use x="278.792969" xlink:href="#DejaVuSans-58"/>
     <use x="312.484375" xlink:href="#DejaVuSans-32"/>
     <use x="344.271484" xlink:href="#DejaVuSans-99"/>
     <use x="399.251953" xlink:href="#DejaVuSans-111"/>
     <use x="460.433594" xlink:href="#DejaVuSans-110"/>
     <use x="523.8125" xlink:href="#DejaVuSans-118"/>
     <use x="582.992188" xlink:href="#DejaVuSans-50"/>
    </g>
   </g>
   <g id="legend_1">
    <g id="patch_107">
     <path d="M 657.876563 123.75625 
L 770.6 123.75625 
Q 772.6 123.75625 772.6 121.75625 
L 772.6 93.4 
Q 772.6 91.4 770.6 91.4 
L 657.876563 91.4 
Q 655.876563 91.4 655.876563 93.4 
L 655.876563 121.75625 
Q 655.876563 123.75625 657.876563 123.75625 
z
" style="fill:#ffffff;opacity:0.8;stroke:#cccccc;stroke-linejoin:miter;"/>
    </g>
    <g id="patch_108">
     <path d="M 659.876563 102.998437 
L 679.876563 102.998437 
L 679.876563 95.998437 
L 659.876563 95.998437 
z
" style="fill:#ff0000;opacity:0.5;"/>
    </g>
    <g id="text_17">
     <!-- First Generation -->
     <defs>
      <path d="M 9.421875 54.6875 
L 18.40625 54.6875 
L 18.40625 0 
L 9.421875 0 
z
M 9.421875 75.984375 
L 18.40625 75.984375 
L 18.40625 64.59375 
L 9.421875 64.59375 
z
" id="DejaVuSans-105"/>
      <path d="M 44.28125 53.078125 
L 44.28125 44.578125 
Q 40.484375 46.53125 36.375 47.5 
Q 32.28125 48.484375 27.875 48.484375 
Q 21.1875 48.484375 17.84375 46.4375 
Q 14.5 44.390625 14.5 40.28125 
Q 14.5 37.15625 16.890625 35.375 
Q 19.28125 33.59375 26.515625 31.984375 
L 29.59375 31.296875 
Q 39.15625 29.25 43.1875 25.515625 
Q 47.21875 21.78125 47.21875 15.09375 
Q 47.21875 7.46875 41.1875 3.015625 
Q 35.15625 -1.421875 24.609375 -1.421875 
Q 20.21875 -1.421875 15.453125 -0.5625 
Q 10.6875 0.296875 5.421875 2 
L 5.421875 11.28125 
Q 10.40625 8.6875 15.234375 7.390625 
Q 20.0625 6.109375 24.8125 6.109375 
Q 31.15625 6.109375 34.5625 8.28125 
Q 37.984375 10.453125 37.984375 14.40625 
Q 37.984375 18.0625 35.515625 20.015625 
Q 33.0625 21.96875 24.703125 23.78125 
L 21.578125 24.515625 
Q 13.234375 26.265625 9.515625 29.90625 
Q 5.8125 33.546875 5.8125 39.890625 
Q 5.8125 47.609375 11.28125 51.796875 
Q 16.75 56 26.8125 56 
Q 31.78125 56 36.171875 55.265625 
Q 40.578125 54.546875 44.28125 53.078125 
z
" id="DejaVuSans-115"/>
      <path d="M 18.3125 70.21875 
L 18.3125 54.6875 
L 36.8125 54.6875 
L 36.8125 47.703125 
L 18.3125 47.703125 
L 18.3125 18.015625 
Q 18.3125 11.328125 20.140625 9.421875 
Q 21.96875 7.515625 27.59375 7.515625 
L 36.8125 7.515625 
L 36.8125 0 
L 27.59375 0 
Q 17.1875 0 13.234375 3.875 
Q 9.28125 7.765625 9.28125 18.015625 
L 9.28125 47.703125 
L 2.6875 47.703125 
L 2.6875 54.6875 
L 9.28125 54.6875 
L 9.28125 70.21875 
z
" id="DejaVuSans-116"/>
      <path d="M 59.515625 10.40625 
L 59.515625 29.984375 
L 43.40625 29.984375 
L 43.40625 38.09375 
L 69.28125 38.09375 
L 69.28125 6.78125 
Q 63.578125 2.734375 56.6875 0.65625 
Q 49.8125 -1.421875 42 -1.421875 
Q 24.90625 -1.421875 15.25 8.5625 
Q 5.609375 18.5625 5.609375 36.375 
Q 5.609375 54.25 15.25 64.234375 
Q 24.90625 74.21875 42 74.21875 
Q 49.125 74.21875 55.546875 72.453125 
Q 61.96875 70.703125 67.390625 67.28125 
L 67.390625 56.78125 
Q 61.921875 61.421875 55.765625 63.765625 
Q 49.609375 66.109375 42.828125 66.109375 
Q 29.4375 66.109375 22.71875 58.640625 
Q 16.015625 51.171875 16.015625 36.375 
Q 16.015625 21.625 22.71875 14.15625 
Q 29.4375 6.6875 42.828125 6.6875 
Q 48.046875 6.6875 52.140625 7.59375 
Q 56.25 8.5 59.515625 10.40625 
z
" id="DejaVuSans-71"/>
     </defs>
     <g transform="translate(687.876563 102.998437)scale(0.1 -0.1)">
      <use xlink:href="#DejaVuSans-70"/>
      <use x="57.410156" xlink:href="#DejaVuSans-105"/>
      <use x="85.193359" xlink:href="#DejaVuSans-114"/>
      <use x="126.306641" xlink:href="#DejaVuSans-115"/>
      <use x="178.40625" xlink:href="#DejaVuSans-116"/>
      <use x="217.615234" xlink:href="#DejaVuSans-32"/>
      <use x="249.402344" xlink:href="#DejaVuSans-71"/>
      <use x="326.892578" xlink:href="#DejaVuSans-101"/>
      <use x="388.416016" xlink:href="#DejaVuSans-110"/>
      <use x="451.794922" xlink:href="#DejaVuSans-101"/>
      <use x="513.318359" xlink:href="#DejaVuSans-114"/>
      <use x="554.431641" xlink:href="#DejaVuSans-97"/>
      <use x="615.710938" xlink:href="#DejaVuSans-116"/>
      <use x="654.919922" xlink:href="#DejaVuSans-105"/>
      <use x="682.703125" xlink:href="#DejaVuSans-111"/>
      <use x="743.884766" xlink:href="#DejaVuSans-110"/>
     </g>
    </g>
    <g id="patch_109">
     <path d="M 659.876563 117.676562 
L 679.876563 117.676562 
L 679.876563 110.676562 
L 659.876563 110.676562 
z
" style="fill:#0000ff;opacity:0.5;"/>
    </g>
    <g id="text_18">
     <!-- Last Generation -->
     <g transform="translate(687.876563 117.676562)scale(0.1 -0.1)">
      <use xlink:href="#DejaVuSans-76"/>
      <use x="55.712891" xlink:href="#DejaVuSans-97"/>
      <use x="116.992188" xlink:href="#DejaVuSans-115"/>
      <use x="169.091797" xlink:href="#DejaVuSans-116"/>
      <use x="208.300781" xlink:href="#DejaVuSans-32"/>
      <use x="240.087891" xlink:href="#DejaVuSans-71"/>
      <use x="317.578125" xlink:href="#DejaVuSans-101"/>
      <use x="379.101562" xlink:href="#DejaVuSans-110"/>
      <use x="442.480469" xlink:href="#DejaVuSans-101"/>
      <use x="504.003906" xlink:href="#DejaVuSans-114"/>
      <use x="545.117188" xlink:href="#DejaVuSans-97"/>
      <use x="606.396484" xlink:href="#DejaVuSans-116"/>
      <use x="645.605469" xlink:href="#DejaVuSans-105"/>
      <use x="673.388672" xlink:href="#DejaVuSans-111"/>
      <use x="734.570312" xlink:href="#DejaVuSans-110"/>
     </g>
    </g>
   </g>
  </g>
 </g>
 <defs>
  <clipPath id="p08fdac63b2">
   <rect height="543.6" width="669.6" x="108" y="86.4"/>
  </clipPath>
 </defs>
</svg>
