<?xml version="1.0" encoding="utf-8" standalone="no"?>
<!DOCTYPE svg PUBLIC "-//W3C//DTD SVG 1.1//EN"
  "http://www.w3.org/Graphics/SVG/1.1/DTD/svg11.dtd">
<!-- Created with matplotlib (https://matplotlib.org/) -->
<svg height="720pt" version="1.1" viewBox="0 0 864 720" width="864pt" xmlns="http://www.w3.org/2000/svg" xmlns:xlink="http://www.w3.org/1999/xlink">
 <defs>
  <style type="text/css">
*{stroke-linecap:butt;stroke-linejoin:round;white-space:pre;}
  </style>
 </defs>
 <g id="figure_1">
  <g id="patch_1">
   <path d="M 0 720 
L 864 720 
L 864 0 
L 0 0 
z
" style="fill:#ffffff;"/>
  </g>
  <g id="axes_1">
   <g id="patch_2">
    <path d="M 108 630 
L 777.6 630 
L 777.6 86.4 
L 108 86.4 
z
" style="fill:#ffffff;"/>
   </g>
   <g id="patch_3">
    <path clip-path="url(#p6bb91a0ae9)" d="M 138.436364 630 
L 148.508323 630 
L 148.508323 457.428571 
L 138.436364 457.428571 
z
" style="fill:#0000ff;opacity:0.5;"/>
   </g>
   <g id="patch_4">
    <path clip-path="url(#p6bb91a0ae9)" d="M 148.508323 630 
L 158.580283 630 
L 158.580283 630 
L 148.508323 630 
z
" style="fill:#0000ff;opacity:0.5;"/>
   </g>
   <g id="patch_5">
    <path clip-path="url(#p6bb91a0ae9)" d="M 158.580283 630 
L 168.652243 630 
L 168.652243 630 
L 158.580283 630 
z
" style="fill:#0000ff;opacity:0.5;"/>
   </g>
   <g id="patch_6">
    <path clip-path="url(#p6bb91a0ae9)" d="M 168.652243 630 
L 178.724202 630 
L 178.724202 630 
L 168.652243 630 
z
" style="fill:#0000ff;opacity:0.5;"/>
   </g>
   <g id="patch_7">
    <path clip-path="url(#p6bb91a0ae9)" d="M 178.724202 630 
L 188.796162 630 
L 188.796162 630 
L 178.724202 630 
z
" style="fill:#0000ff;opacity:0.5;"/>
   </g>
   <g id="patch_8">
    <path clip-path="url(#p6bb91a0ae9)" d="M 188.796162 630 
L 198.868122 630 
L 198.868122 630 
L 188.796162 630 
z
" style="fill:#0000ff;opacity:0.5;"/>
   </g>
   <g id="patch_9">
    <path clip-path="url(#p6bb91a0ae9)" d="M 198.868122 630 
L 208.940082 630 
L 208.940082 630 
L 198.868122 630 
z
" style="fill:#0000ff;opacity:0.5;"/>
   </g>
   <g id="patch_10">
    <path clip-path="url(#p6bb91a0ae9)" d="M 208.940082 630 
L 219.012041 630 
L 219.012041 457.428571 
L 208.940082 457.428571 
z
" style="fill:#0000ff;opacity:0.5;"/>
   </g>
   <g id="patch_11">
    <path clip-path="url(#p6bb91a0ae9)" d="M 219.012041 630 
L 229.084001 630 
L 229.084001 630 
L 219.012041 630 
z
" style="fill:#0000ff;opacity:0.5;"/>
   </g>
   <g id="patch_12">
    <path clip-path="url(#p6bb91a0ae9)" d="M 229.084001 630 
L 239.155961 630 
L 239.155961 457.428571 
L 229.084001 457.428571 
z
" style="fill:#0000ff;opacity:0.5;"/>
   </g>
   <g id="patch_13">
    <path clip-path="url(#p6bb91a0ae9)" d="M 239.155961 630 
L 249.227921 630 
L 249.227921 630 
L 239.155961 630 
z
" style="fill:#0000ff;opacity:0.5;"/>
   </g>
   <g id="patch_14">
    <path clip-path="url(#p6bb91a0ae9)" d="M 249.227921 630 
L 259.29988 630 
L 259.29988 630 
L 249.227921 630 
z
" style="fill:#0000ff;opacity:0.5;"/>
   </g>
   <g id="patch_15">
    <path clip-path="url(#p6bb91a0ae9)" d="M 259.29988 630 
L 269.37184 630 
L 269.37184 284.857143 
L 259.29988 284.857143 
z
" style="fill:#0000ff;opacity:0.5;"/>
   </g>
   <g id="patch_16">
    <path clip-path="url(#p6bb91a0ae9)" d="M 269.37184 630 
L 279.4438 630 
L 279.4438 457.428571 
L 269.37184 457.428571 
z
" style="fill:#0000ff;opacity:0.5;"/>
   </g>
   <g id="patch_17">
    <path clip-path="url(#p6bb91a0ae9)" d="M 279.4438 630 
L 289.515759 630 
L 289.515759 284.857143 
L 279.4438 284.857143 
z
" style="fill:#0000ff;opacity:0.5;"/>
   </g>
   <g id="patch_18">
    <path clip-path="url(#p6bb91a0ae9)" d="M 289.515759 630 
L 299.587719 630 
L 299.587719 630 
L 289.515759 630 
z
" style="fill:#0000ff;opacity:0.5;"/>
   </g>
   <g id="patch_19">
    <path clip-path="url(#p6bb91a0ae9)" d="M 299.587719 630 
L 309.659679 630 
L 309.659679 457.428571 
L 299.587719 457.428571 
z
" style="fill:#0000ff;opacity:0.5;"/>
   </g>
   <g id="patch_20">
    <path clip-path="url(#p6bb91a0ae9)" d="M 309.659679 630 
L 319.731639 630 
L 319.731639 457.428571 
L 309.659679 457.428571 
z
" style="fill:#0000ff;opacity:0.5;"/>
   </g>
   <g id="patch_21">
    <path clip-path="url(#p6bb91a0ae9)" d="M 319.731639 630 
L 329.803598 630 
L 329.803598 630 
L 319.731639 630 
z
" style="fill:#0000ff;opacity:0.5;"/>
   </g>
   <g id="patch_22">
    <path clip-path="url(#p6bb91a0ae9)" d="M 329.803598 630 
L 339.875558 630 
L 339.875558 630 
L 329.803598 630 
z
" style="fill:#0000ff;opacity:0.5;"/>
   </g>
   <g id="patch_23">
    <path clip-path="url(#p6bb91a0ae9)" d="M 339.875558 630 
L 349.947518 630 
L 349.947518 457.428571 
L 339.875558 457.428571 
z
" style="fill:#0000ff;opacity:0.5;"/>
   </g>
   <g id="patch_24">
    <path clip-path="url(#p6bb91a0ae9)" d="M 349.947518 630 
L 360.019477 630 
L 360.019477 457.428571 
L 349.947518 457.428571 
z
" style="fill:#0000ff;opacity:0.5;"/>
   </g>
   <g id="patch_25">
    <path clip-path="url(#p6bb91a0ae9)" d="M 360.019477 630 
L 370.091437 630 
L 370.091437 457.428571 
L 360.019477 457.428571 
z
" style="fill:#0000ff;opacity:0.5;"/>
   </g>
   <g id="patch_26">
    <path clip-path="url(#p6bb91a0ae9)" d="M 370.091437 630 
L 380.163397 630 
L 380.163397 284.857143 
L 370.091437 284.857143 
z
" style="fill:#0000ff;opacity:0.5;"/>
   </g>
   <g id="patch_27">
    <path clip-path="url(#p6bb91a0ae9)" d="M 380.163397 630 
L 390.235357 630 
L 390.235357 457.428571 
L 380.163397 457.428571 
z
" style="fill:#0000ff;opacity:0.5;"/>
   </g>
   <g id="patch_28">
    <path clip-path="url(#p6bb91a0ae9)" d="M 390.235357 630 
L 400.307316 630 
L 400.307316 457.428571 
L 390.235357 457.428571 
z
" style="fill:#0000ff;opacity:0.5;"/>
   </g>
   <g id="patch_29">
    <path clip-path="url(#p6bb91a0ae9)" d="M 400.307316 630 
L 410.379276 630 
L 410.379276 630 
L 400.307316 630 
z
" style="fill:#0000ff;opacity:0.5;"/>
   </g>
   <g id="patch_30">
    <path clip-path="url(#p6bb91a0ae9)" d="M 410.379276 630 
L 420.451236 630 
L 420.451236 457.428571 
L 410.379276 457.428571 
z
" style="fill:#0000ff;opacity:0.5;"/>
   </g>
   <g id="patch_31">
    <path clip-path="url(#p6bb91a0ae9)" d="M 420.451236 630 
L 430.523195 630 
L 430.523195 630 
L 420.451236 630 
z
" style="fill:#0000ff;opacity:0.5;"/>
   </g>
   <g id="patch_32">
    <path clip-path="url(#p6bb91a0ae9)" d="M 430.523195 630 
L 440.595155 630 
L 440.595155 457.428571 
L 430.523195 457.428571 
z
" style="fill:#0000ff;opacity:0.5;"/>
   </g>
   <g id="patch_33">
    <path clip-path="url(#p6bb91a0ae9)" d="M 440.595155 630 
L 450.667115 630 
L 450.667115 630 
L 440.595155 630 
z
" style="fill:#0000ff;opacity:0.5;"/>
   </g>
   <g id="patch_34">
    <path clip-path="url(#p6bb91a0ae9)" d="M 450.667115 630 
L 460.739075 630 
L 460.739075 630 
L 450.667115 630 
z
" style="fill:#0000ff;opacity:0.5;"/>
   </g>
   <g id="patch_35">
    <path clip-path="url(#p6bb91a0ae9)" d="M 460.739075 630 
L 470.811034 630 
L 470.811034 630 
L 460.739075 630 
z
" style="fill:#0000ff;opacity:0.5;"/>
   </g>
   <g id="patch_36">
    <path clip-path="url(#p6bb91a0ae9)" d="M 470.811034 630 
L 480.882994 630 
L 480.882994 630 
L 470.811034 630 
z
" style="fill:#0000ff;opacity:0.5;"/>
   </g>
   <g id="patch_37">
    <path clip-path="url(#p6bb91a0ae9)" d="M 480.882994 630 
L 490.954954 630 
L 490.954954 112.285714 
L 480.882994 112.285714 
z
" style="fill:#0000ff;opacity:0.5;"/>
   </g>
   <g id="patch_38">
    <path clip-path="url(#p6bb91a0ae9)" d="M 490.954954 630 
L 501.026913 630 
L 501.026913 630 
L 490.954954 630 
z
" style="fill:#0000ff;opacity:0.5;"/>
   </g>
   <g id="patch_39">
    <path clip-path="url(#p6bb91a0ae9)" d="M 501.026913 630 
L 511.098873 630 
L 511.098873 457.428571 
L 501.026913 457.428571 
z
" style="fill:#0000ff;opacity:0.5;"/>
   </g>
   <g id="patch_40">
    <path clip-path="url(#p6bb91a0ae9)" d="M 511.098873 630 
L 521.170833 630 
L 521.170833 457.428571 
L 511.098873 457.428571 
z
" style="fill:#0000ff;opacity:0.5;"/>
   </g>
   <g id="patch_41">
    <path clip-path="url(#p6bb91a0ae9)" d="M 521.170833 630 
L 531.242793 630 
L 531.242793 457.428571 
L 521.170833 457.428571 
z
" style="fill:#0000ff;opacity:0.5;"/>
   </g>
   <g id="patch_42">
    <path clip-path="url(#p6bb91a0ae9)" d="M 531.242793 630 
L 541.314752 630 
L 541.314752 457.428571 
L 531.242793 457.428571 
z
" style="fill:#0000ff;opacity:0.5;"/>
   </g>
   <g id="patch_43">
    <path clip-path="url(#p6bb91a0ae9)" d="M 541.314752 630 
L 551.386712 630 
L 551.386712 457.428571 
L 541.314752 457.428571 
z
" style="fill:#0000ff;opacity:0.5;"/>
   </g>
   <g id="patch_44">
    <path clip-path="url(#p6bb91a0ae9)" d="M 551.386712 630 
L 561.458672 630 
L 561.458672 630 
L 551.386712 630 
z
" style="fill:#0000ff;opacity:0.5;"/>
   </g>
   <g id="patch_45">
    <path clip-path="url(#p6bb91a0ae9)" d="M 561.458672 630 
L 571.530631 630 
L 571.530631 630 
L 561.458672 630 
z
" style="fill:#0000ff;opacity:0.5;"/>
   </g>
   <g id="patch_46">
    <path clip-path="url(#p6bb91a0ae9)" d="M 571.530631 630 
L 581.602591 630 
L 581.602591 457.428571 
L 571.530631 457.428571 
z
" style="fill:#0000ff;opacity:0.5;"/>
   </g>
   <g id="patch_47">
    <path clip-path="url(#p6bb91a0ae9)" d="M 581.602591 630 
L 591.674551 630 
L 591.674551 457.428571 
L 581.602591 457.428571 
z
" style="fill:#0000ff;opacity:0.5;"/>
   </g>
   <g id="patch_48">
    <path clip-path="url(#p6bb91a0ae9)" d="M 591.674551 630 
L 601.746511 630 
L 601.746511 457.428571 
L 591.674551 457.428571 
z
" style="fill:#0000ff;opacity:0.5;"/>
   </g>
   <g id="patch_49">
    <path clip-path="url(#p6bb91a0ae9)" d="M 601.746511 630 
L 611.81847 630 
L 611.81847 630 
L 601.746511 630 
z
" style="fill:#0000ff;opacity:0.5;"/>
   </g>
   <g id="patch_50">
    <path clip-path="url(#p6bb91a0ae9)" d="M 611.81847 630 
L 621.89043 630 
L 621.89043 630 
L 611.81847 630 
z
" style="fill:#0000ff;opacity:0.5;"/>
   </g>
   <g id="patch_51">
    <path clip-path="url(#p6bb91a0ae9)" d="M 621.89043 630 
L 631.96239 630 
L 631.96239 457.428571 
L 621.89043 457.428571 
z
" style="fill:#0000ff;opacity:0.5;"/>
   </g>
   <g id="patch_52">
    <path clip-path="url(#p6bb91a0ae9)" d="M 631.96239 630 
L 642.034349 630 
L 642.034349 457.428571 
L 631.96239 457.428571 
z
" style="fill:#0000ff;opacity:0.5;"/>
   </g>
   <g id="patch_53">
    <path clip-path="url(#p6bb91a0ae9)" d="M 184.013165 630 
L 195.276174 630 
L 195.276174 475.677793 
L 184.013165 475.677793 
z
" style="fill:#008000;opacity:0.5;"/>
   </g>
   <g id="patch_54">
    <path clip-path="url(#p6bb91a0ae9)" d="M 195.276174 630 
L 206.539183 630 
L 206.539183 475.677793 
L 195.276174 475.677793 
z
" style="fill:#008000;opacity:0.5;"/>
   </g>
   <g id="patch_55">
    <path clip-path="url(#p6bb91a0ae9)" d="M 206.539183 630 
L 217.802193 630 
L 217.802193 630 
L 206.539183 630 
z
" style="fill:#008000;opacity:0.5;"/>
   </g>
   <g id="patch_56">
    <path clip-path="url(#p6bb91a0ae9)" d="M 217.802193 630 
L 229.065202 630 
L 229.065202 630 
L 217.802193 630 
z
" style="fill:#008000;opacity:0.5;"/>
   </g>
   <g id="patch_57">
    <path clip-path="url(#p6bb91a0ae9)" d="M 229.065202 630 
L 240.328212 630 
L 240.328212 630 
L 229.065202 630 
z
" style="fill:#008000;opacity:0.5;"/>
   </g>
   <g id="patch_58">
    <path clip-path="url(#p6bb91a0ae9)" d="M 240.328212 630 
L 251.591221 630 
L 251.591221 630 
L 240.328212 630 
z
" style="fill:#008000;opacity:0.5;"/>
   </g>
   <g id="patch_59">
    <path clip-path="url(#p6bb91a0ae9)" d="M 251.591221 630 
L 262.854231 630 
L 262.854231 630 
L 251.591221 630 
z
" style="fill:#008000;opacity:0.5;"/>
   </g>
   <g id="patch_60">
    <path clip-path="url(#p6bb91a0ae9)" d="M 262.854231 630 
L 274.11724 630 
L 274.11724 321.355585 
L 262.854231 321.355585 
z
" style="fill:#008000;opacity:0.5;"/>
   </g>
   <g id="patch_61">
    <path clip-path="url(#p6bb91a0ae9)" d="M 274.11724 630 
L 285.380249 630 
L 285.380249 630 
L 274.11724 630 
z
" style="fill:#008000;opacity:0.5;"/>
   </g>
   <g id="patch_62">
    <path clip-path="url(#p6bb91a0ae9)" d="M 285.380249 630 
L 296.643259 630 
L 296.643259 321.355585 
L 285.380249 321.355585 
z
" style="fill:#008000;opacity:0.5;"/>
   </g>
   <g id="patch_63">
    <path clip-path="url(#p6bb91a0ae9)" d="M 296.643259 630 
L 307.906268 630 
L 307.906268 321.355585 
L 296.643259 321.355585 
z
" style="fill:#008000;opacity:0.5;"/>
   </g>
   <g id="patch_64">
    <path clip-path="url(#p6bb91a0ae9)" d="M 307.906268 630 
L 319.169278 630 
L 319.169278 630 
L 307.906268 630 
z
" style="fill:#008000;opacity:0.5;"/>
   </g>
   <g id="patch_65">
    <path clip-path="url(#p6bb91a0ae9)" d="M 319.169278 630 
L 330.432287 630 
L 330.432287 630 
L 319.169278 630 
z
" style="fill:#008000;opacity:0.5;"/>
   </g>
   <g id="patch_66">
    <path clip-path="url(#p6bb91a0ae9)" d="M 330.432287 630 
L 341.695297 630 
L 341.695297 475.677793 
L 330.432287 475.677793 
z
" style="fill:#008000;opacity:0.5;"/>
   </g>
   <g id="patch_67">
    <path clip-path="url(#p6bb91a0ae9)" d="M 341.695297 630 
L 352.958306 630 
L 352.958306 630 
L 341.695297 630 
z
" style="fill:#008000;opacity:0.5;"/>
   </g>
   <g id="patch_68">
    <path clip-path="url(#p6bb91a0ae9)" d="M 352.958306 630 
L 364.221315 630 
L 364.221315 321.355585 
L 352.958306 321.355585 
z
" style="fill:#008000;opacity:0.5;"/>
   </g>
   <g id="patch_69">
    <path clip-path="url(#p6bb91a0ae9)" d="M 364.221315 630 
L 375.484325 630 
L 375.484325 321.355585 
L 364.221315 321.355585 
z
" style="fill:#008000;opacity:0.5;"/>
   </g>
   <g id="patch_70">
    <path clip-path="url(#p6bb91a0ae9)" d="M 375.484325 630 
L 386.747334 630 
L 386.747334 475.677793 
L 375.484325 475.677793 
z
" style="fill:#008000;opacity:0.5;"/>
   </g>
   <g id="patch_71">
    <path clip-path="url(#p6bb91a0ae9)" d="M 386.747334 630 
L 398.010344 630 
L 398.010344 475.677793 
L 386.747334 475.677793 
z
" style="fill:#008000;opacity:0.5;"/>
   </g>
   <g id="patch_72">
    <path clip-path="url(#p6bb91a0ae9)" d="M 398.010344 630 
L 409.273353 630 
L 409.273353 475.677793 
L 398.010344 475.677793 
z
" style="fill:#008000;opacity:0.5;"/>
   </g>
   <g id="patch_73">
    <path clip-path="url(#p6bb91a0ae9)" d="M 409.273353 630 
L 420.536363 630 
L 420.536363 475.677793 
L 409.273353 475.677793 
z
" style="fill:#008000;opacity:0.5;"/>
   </g>
   <g id="patch_74">
    <path clip-path="url(#p6bb91a0ae9)" d="M 420.536363 630 
L 431.799372 630 
L 431.799372 630 
L 420.536363 630 
z
" style="fill:#008000;opacity:0.5;"/>
   </g>
   <g id="patch_75">
    <path clip-path="url(#p6bb91a0ae9)" d="M 431.799372 630 
L 443.062382 630 
L 443.062382 630 
L 431.799372 630 
z
" style="fill:#008000;opacity:0.5;"/>
   </g>
   <g id="patch_76">
    <path clip-path="url(#p6bb91a0ae9)" d="M 443.062382 630 
L 454.325391 630 
L 454.325391 630 
L 443.062382 630 
z
" style="fill:#008000;opacity:0.5;"/>
   </g>
   <g id="patch_77">
    <path clip-path="url(#p6bb91a0ae9)" d="M 454.325391 630 
L 465.5884 630 
L 465.5884 630 
L 454.325391 630 
z
" style="fill:#008000;opacity:0.5;"/>
   </g>
   <g id="patch_78">
    <path clip-path="url(#p6bb91a0ae9)" d="M 465.5884 630 
L 476.85141 630 
L 476.85141 630 
L 465.5884 630 
z
" style="fill:#008000;opacity:0.5;"/>
   </g>
   <g id="patch_79">
    <path clip-path="url(#p6bb91a0ae9)" d="M 476.85141 630 
L 488.114419 630 
L 488.114419 321.355585 
L 476.85141 321.355585 
z
" style="fill:#008000;opacity:0.5;"/>
   </g>
   <g id="patch_80">
    <path clip-path="url(#p6bb91a0ae9)" d="M 488.114419 630 
L 499.377429 630 
L 499.377429 630 
L 488.114419 630 
z
" style="fill:#008000;opacity:0.5;"/>
   </g>
   <g id="patch_81">
    <path clip-path="url(#p6bb91a0ae9)" d="M 499.377429 630 
L 510.640438 630 
L 510.640438 167.033378 
L 499.377429 167.033378 
z
" style="fill:#008000;opacity:0.5;"/>
   </g>
   <g id="patch_82">
    <path clip-path="url(#p6bb91a0ae9)" d="M 510.640438 630 
L 521.903448 630 
L 521.903448 475.677793 
L 510.640438 475.677793 
z
" style="fill:#008000;opacity:0.5;"/>
   </g>
   <g id="patch_83">
    <path clip-path="url(#p6bb91a0ae9)" d="M 521.903448 630 
L 533.166457 630 
L 533.166457 321.355585 
L 521.903448 321.355585 
z
" style="fill:#008000;opacity:0.5;"/>
   </g>
   <g id="patch_84">
    <path clip-path="url(#p6bb91a0ae9)" d="M 533.166457 630 
L 544.429466 630 
L 544.429466 630 
L 533.166457 630 
z
" style="fill:#008000;opacity:0.5;"/>
   </g>
   <g id="patch_85">
    <path clip-path="url(#p6bb91a0ae9)" d="M 544.429466 630 
L 555.692476 630 
L 555.692476 630 
L 544.429466 630 
z
" style="fill:#008000;opacity:0.5;"/>
   </g>
   <g id="patch_86">
    <path clip-path="url(#p6bb91a0ae9)" d="M 555.692476 630 
L 566.955485 630 
L 566.955485 630 
L 555.692476 630 
z
" style="fill:#008000;opacity:0.5;"/>
   </g>
   <g id="patch_87">
    <path clip-path="url(#p6bb91a0ae9)" d="M 566.955485 630 
L 578.218495 630 
L 578.218495 475.677793 
L 566.955485 475.677793 
z
" style="fill:#008000;opacity:0.5;"/>
   </g>
   <g id="patch_88">
    <path clip-path="url(#p6bb91a0ae9)" d="M 578.218495 630 
L 589.481504 630 
L 589.481504 630 
L 578.218495 630 
z
" style="fill:#008000;opacity:0.5;"/>
   </g>
   <g id="patch_89">
    <path clip-path="url(#p6bb91a0ae9)" d="M 589.481504 630 
L 600.744514 630 
L 600.744514 475.677793 
L 589.481504 475.677793 
z
" style="fill:#008000;opacity:0.5;"/>
   </g>
   <g id="patch_90">
    <path clip-path="url(#p6bb91a0ae9)" d="M 600.744514 630 
L 612.007523 630 
L 612.007523 475.677793 
L 600.744514 475.677793 
z
" style="fill:#008000;opacity:0.5;"/>
   </g>
   <g id="patch_91">
    <path clip-path="url(#p6bb91a0ae9)" d="M 612.007523 630 
L 623.270533 630 
L 623.270533 475.677793 
L 612.007523 475.677793 
z
" style="fill:#008000;opacity:0.5;"/>
   </g>
   <g id="patch_92">
    <path clip-path="url(#p6bb91a0ae9)" d="M 623.270533 630 
L 634.533542 630 
L 634.533542 630 
L 623.270533 630 
z
" style="fill:#008000;opacity:0.5;"/>
   </g>
   <g id="patch_93">
    <path clip-path="url(#p6bb91a0ae9)" d="M 634.533542 630 
L 645.796551 630 
L 645.796551 630 
L 634.533542 630 
z
" style="fill:#008000;opacity:0.5;"/>
   </g>
   <g id="patch_94">
    <path clip-path="url(#p6bb91a0ae9)" d="M 645.796551 630 
L 657.059561 630 
L 657.059561 630 
L 645.796551 630 
z
" style="fill:#008000;opacity:0.5;"/>
   </g>
   <g id="patch_95">
    <path clip-path="url(#p6bb91a0ae9)" d="M 657.059561 630 
L 668.32257 630 
L 668.32257 630 
L 657.059561 630 
z
" style="fill:#008000;opacity:0.5;"/>
   </g>
   <g id="patch_96">
    <path clip-path="url(#p6bb91a0ae9)" d="M 668.32257 630 
L 679.58558 630 
L 679.58558 630 
L 668.32257 630 
z
" style="fill:#008000;opacity:0.5;"/>
   </g>
   <g id="patch_97">
    <path clip-path="url(#p6bb91a0ae9)" d="M 679.58558 630 
L 690.848589 630 
L 690.848589 630 
L 679.58558 630 
z
" style="fill:#008000;opacity:0.5;"/>
   </g>
   <g id="patch_98">
    <path clip-path="url(#p6bb91a0ae9)" d="M 690.848589 630 
L 702.111599 630 
L 702.111599 630 
L 690.848589 630 
z
" style="fill:#008000;opacity:0.5;"/>
   </g>
   <g id="patch_99">
    <path clip-path="url(#p6bb91a0ae9)" d="M 702.111599 630 
L 713.374608 630 
L 713.374608 475.677793 
L 702.111599 475.677793 
z
" style="fill:#008000;opacity:0.5;"/>
   </g>
   <g id="patch_100">
    <path clip-path="url(#p6bb91a0ae9)" d="M 713.374608 630 
L 724.637617 630 
L 724.637617 475.677793 
L 713.374608 475.677793 
z
" style="fill:#008000;opacity:0.5;"/>
   </g>
   <g id="patch_101">
    <path clip-path="url(#p6bb91a0ae9)" d="M 724.637617 630 
L 735.900627 630 
L 735.900627 630 
L 724.637617 630 
z
" style="fill:#008000;opacity:0.5;"/>
   </g>
   <g id="patch_102">
    <path clip-path="url(#p6bb91a0ae9)" d="M 735.900627 630 
L 747.163636 630 
L 747.163636 475.677793 
L 735.900627 475.677793 
z
" style="fill:#008000;opacity:0.5;"/>
   </g>
   <g id="matplotlib.axis_1">
    <g id="xtick_1">
     <g id="line2d_1">
      <defs>
       <path d="M 0 0 
L 0 3.5 
" id="m536ca7eea6" style="stroke:#000000;stroke-width:0.8;"/>
      </defs>
      <g>
       <use style="stroke:#000000;stroke-width:0.8;" x="136.405183" xlink:href="#m536ca7eea6" y="630"/>
      </g>
     </g>
     <g id="text_1">
      <!-- −0.22 -->
      <defs>
       <path d="M 10.59375 35.5 
L 73.1875 35.5 
L 73.1875 27.203125 
L 10.59375 27.203125 
z
" id="DejaVuSans-8722"/>
       <path d="M 31.78125 66.40625 
Q 24.171875 66.40625 20.328125 58.90625 
Q 16.5 51.421875 16.5 36.375 
Q 16.5 21.390625 20.328125 13.890625 
Q 24.171875 6.390625 31.78125 6.390625 
Q 39.453125 6.390625 43.28125 13.890625 
Q 47.125 21.390625 47.125 36.375 
Q 47.125 51.421875 43.28125 58.90625 
Q 39.453125 66.40625 31.78125 66.40625 
z
M 31.78125 74.21875 
Q 44.046875 74.21875 50.515625 64.515625 
Q 56.984375 54.828125 56.984375 36.375 
Q 56.984375 17.96875 50.515625 8.265625 
Q 44.046875 -1.421875 31.78125 -1.421875 
Q 19.53125 -1.421875 13.0625 8.265625 
Q 6.59375 17.96875 6.59375 36.375 
Q 6.59375 54.828125 13.0625 64.515625 
Q 19.53125 74.21875 31.78125 74.21875 
z
" id="DejaVuSans-48"/>
       <path d="M 10.6875 12.40625 
L 21 12.40625 
L 21 0 
L 10.6875 0 
z
" id="DejaVuSans-46"/>
       <path d="M 19.1875 8.296875 
L 53.609375 8.296875 
L 53.609375 0 
L 7.328125 0 
L 7.328125 8.296875 
Q 12.9375 14.109375 22.625 23.890625 
Q 32.328125 33.6875 34.8125 36.53125 
Q 39.546875 41.84375 41.421875 45.53125 
Q 43.3125 49.21875 43.3125 52.78125 
Q 43.3125 58.59375 39.234375 62.25 
Q 35.15625 65.921875 28.609375 65.921875 
Q 23.96875 65.921875 18.8125 64.3125 
Q 13.671875 62.703125 7.8125 59.421875 
L 7.8125 69.390625 
Q 13.765625 71.78125 18.9375 73 
Q 24.125 74.21875 28.421875 74.21875 
Q 39.75 74.21875 46.484375 68.546875 
Q 53.21875 62.890625 53.21875 53.421875 
Q 53.21875 48.921875 51.53125 44.890625 
Q 49.859375 40.875 45.40625 35.40625 
Q 44.1875 33.984375 37.640625 27.21875 
Q 31.109375 20.453125 19.1875 8.296875 
z
" id="DejaVuSans-50"/>
      </defs>
      <g transform="translate(121.082527 644.598438)scale(0.1 -0.1)">
       <use xlink:href="#DejaVuSans-8722"/>
       <use x="83.789062" xlink:href="#DejaVuSans-48"/>
       <use x="147.412109" xlink:href="#DejaVuSans-46"/>
       <use x="179.199219" xlink:href="#DejaVuSans-50"/>
       <use x="242.822266" xlink:href="#DejaVuSans-50"/>
      </g>
     </g>
    </g>
    <g id="xtick_2">
     <g id="line2d_2">
      <g>
       <use style="stroke:#000000;stroke-width:0.8;" x="226.502319" xlink:href="#m536ca7eea6" y="630"/>
      </g>
     </g>
     <g id="text_2">
      <!-- −0.20 -->
      <g transform="translate(211.179663 644.598438)scale(0.1 -0.1)">
       <use xlink:href="#DejaVuSans-8722"/>
       <use x="83.789062" xlink:href="#DejaVuSans-48"/>
       <use x="147.412109" xlink:href="#DejaVuSans-46"/>
       <use x="179.199219" xlink:href="#DejaVuSans-50"/>
       <use x="242.822266" xlink:href="#DejaVuSans-48"/>
      </g>
     </g>
    </g>
    <g id="xtick_3">
     <g id="line2d_3">
      <g>
       <use style="stroke:#000000;stroke-width:0.8;" x="316.599455" xlink:href="#m536ca7eea6" y="630"/>
      </g>
     </g>
     <g id="text_3">
      <!-- −0.18 -->
      <defs>
       <path d="M 12.40625 8.296875 
L 28.515625 8.296875 
L 28.515625 63.921875 
L 10.984375 60.40625 
L 10.984375 69.390625 
L 28.421875 72.90625 
L 38.28125 72.90625 
L 38.28125 8.296875 
L 54.390625 8.296875 
L 54.390625 0 
L 12.40625 0 
z
" id="DejaVuSans-49"/>
       <path d="M 31.78125 34.625 
Q 24.75 34.625 20.71875 30.859375 
Q 16.703125 27.09375 16.703125 20.515625 
Q 16.703125 13.921875 20.71875 10.15625 
Q 24.75 6.390625 31.78125 6.390625 
Q 38.8125 6.390625 42.859375 10.171875 
Q 46.921875 13.96875 46.921875 20.515625 
Q 46.921875 27.09375 42.890625 30.859375 
Q 38.875 34.625 31.78125 34.625 
z
M 21.921875 38.8125 
Q 15.578125 40.375 12.03125 44.71875 
Q 8.5 49.078125 8.5 55.328125 
Q 8.5 64.0625 14.71875 69.140625 
Q 20.953125 74.21875 31.78125 74.21875 
Q 42.671875 74.21875 48.875 69.140625 
Q 55.078125 64.0625 55.078125 55.328125 
Q 55.078125 49.078125 51.53125 44.71875 
Q 48 40.375 41.703125 38.8125 
Q 48.828125 37.15625 52.796875 32.3125 
Q 56.78125 27.484375 56.78125 20.515625 
Q 56.78125 9.90625 50.3125 4.234375 
Q 43.84375 -1.421875 31.78125 -1.421875 
Q 19.734375 -1.421875 13.25 4.234375 
Q 6.78125 9.90625 6.78125 20.515625 
Q 6.78125 27.484375 10.78125 32.3125 
Q 14.796875 37.15625 21.921875 38.8125 
z
M 18.3125 54.390625 
Q 18.3125 48.734375 21.84375 45.5625 
Q 25.390625 42.390625 31.78125 42.390625 
Q 38.140625 42.390625 41.71875 45.5625 
Q 45.3125 48.734375 45.3125 54.390625 
Q 45.3125 60.0625 41.71875 63.234375 
Q 38.140625 66.40625 31.78125 66.40625 
Q 25.390625 66.40625 21.84375 63.234375 
Q 18.3125 60.0625 18.3125 54.390625 
z
" id="DejaVuSans-56"/>
      </defs>
      <g transform="translate(301.276799 644.598438)scale(0.1 -0.1)">
       <use xlink:href="#DejaVuSans-8722"/>
       <use x="83.789062" xlink:href="#DejaVuSans-48"/>
       <use x="147.412109" xlink:href="#DejaVuSans-46"/>
       <use x="179.199219" xlink:href="#DejaVuSans-49"/>
       <use x="242.822266" xlink:href="#DejaVuSans-56"/>
      </g>
     </g>
    </g>
    <g id="xtick_4">
     <g id="line2d_4">
      <g>
       <use style="stroke:#000000;stroke-width:0.8;" x="406.696591" xlink:href="#m536ca7eea6" y="630"/>
      </g>
     </g>
     <g id="text_4">
      <!-- −0.16 -->
      <defs>
       <path d="M 33.015625 40.375 
Q 26.375 40.375 22.484375 35.828125 
Q 18.609375 31.296875 18.609375 23.390625 
Q 18.609375 15.53125 22.484375 10.953125 
Q 26.375 6.390625 33.015625 6.390625 
Q 39.65625 6.390625 43.53125 10.953125 
Q 47.40625 15.53125 47.40625 23.390625 
Q 47.40625 31.296875 43.53125 35.828125 
Q 39.65625 40.375 33.015625 40.375 
z
M 52.59375 71.296875 
L 52.59375 62.3125 
Q 48.875 64.0625 45.09375 64.984375 
Q 41.3125 65.921875 37.59375 65.921875 
Q 27.828125 65.921875 22.671875 59.328125 
Q 17.53125 52.734375 16.796875 39.40625 
Q 19.671875 43.65625 24.015625 45.921875 
Q 28.375 48.1875 33.59375 48.1875 
Q 44.578125 48.1875 50.953125 41.515625 
Q 57.328125 34.859375 57.328125 23.390625 
Q 57.328125 12.15625 50.6875 5.359375 
Q 44.046875 -1.421875 33.015625 -1.421875 
Q 20.359375 -1.421875 13.671875 8.265625 
Q 6.984375 17.96875 6.984375 36.375 
Q 6.984375 53.65625 15.1875 63.9375 
Q 23.390625 74.21875 37.203125 74.21875 
Q 40.921875 74.21875 44.703125 73.484375 
Q 48.484375 72.75 52.59375 71.296875 
z
" id="DejaVuSans-54"/>
      </defs>
      <g transform="translate(391.373935 644.598438)scale(0.1 -0.1)">
       <use xlink:href="#DejaVuSans-8722"/>
       <use x="83.789062" xlink:href="#DejaVuSans-48"/>
       <use x="147.412109" xlink:href="#DejaVuSans-46"/>
       <use x="179.199219" xlink:href="#DejaVuSans-49"/>
       <use x="242.822266" xlink:href="#DejaVuSans-54"/>
      </g>
     </g>
    </g>
    <g id="xtick_5">
     <g id="line2d_5">
      <g>
       <use style="stroke:#000000;stroke-width:0.8;" x="496.793727" xlink:href="#m536ca7eea6" y="630"/>
      </g>
     </g>
     <g id="text_5">
      <!-- −0.14 -->
      <defs>
       <path d="M 37.796875 64.3125 
L 12.890625 25.390625 
L 37.796875 25.390625 
z
M 35.203125 72.90625 
L 47.609375 72.90625 
L 47.609375 25.390625 
L 58.015625 25.390625 
L 58.015625 17.1875 
L 47.609375 17.1875 
L 47.609375 0 
L 37.796875 0 
L 37.796875 17.1875 
L 4.890625 17.1875 
L 4.890625 26.703125 
z
" id="DejaVuSans-52"/>
      </defs>
      <g transform="translate(481.471071 644.598438)scale(0.1 -0.1)">
       <use xlink:href="#DejaVuSans-8722"/>
       <use x="83.789062" xlink:href="#DejaVuSans-48"/>
       <use x="147.412109" xlink:href="#DejaVuSans-46"/>
       <use x="179.199219" xlink:href="#DejaVuSans-49"/>
       <use x="242.822266" xlink:href="#DejaVuSans-52"/>
      </g>
     </g>
    </g>
    <g id="xtick_6">
     <g id="line2d_6">
      <g>
       <use style="stroke:#000000;stroke-width:0.8;" x="586.890863" xlink:href="#m536ca7eea6" y="630"/>
      </g>
     </g>
     <g id="text_6">
      <!-- −0.12 -->
      <g transform="translate(571.568207 644.598438)scale(0.1 -0.1)">
       <use xlink:href="#DejaVuSans-8722"/>
       <use x="83.789062" xlink:href="#DejaVuSans-48"/>
       <use x="147.412109" xlink:href="#DejaVuSans-46"/>
       <use x="179.199219" xlink:href="#DejaVuSans-49"/>
       <use x="242.822266" xlink:href="#DejaVuSans-50"/>
      </g>
     </g>
    </g>
    <g id="xtick_7">
     <g id="line2d_7">
      <g>
       <use style="stroke:#000000;stroke-width:0.8;" x="676.987999" xlink:href="#m536ca7eea6" y="630"/>
      </g>
     </g>
     <g id="text_7">
      <!-- −0.10 -->
      <g transform="translate(661.665343 644.598438)scale(0.1 -0.1)">
       <use xlink:href="#DejaVuSans-8722"/>
       <use x="83.789062" xlink:href="#DejaVuSans-48"/>
       <use x="147.412109" xlink:href="#DejaVuSans-46"/>
       <use x="179.199219" xlink:href="#DejaVuSans-49"/>
       <use x="242.822266" xlink:href="#DejaVuSans-48"/>
      </g>
     </g>
    </g>
    <g id="xtick_8">
     <g id="line2d_8">
      <g>
       <use style="stroke:#000000;stroke-width:0.8;" x="767.085135" xlink:href="#m536ca7eea6" y="630"/>
      </g>
     </g>
     <g id="text_8">
      <!-- −0.08 -->
      <g transform="translate(751.762479 644.598438)scale(0.1 -0.1)">
       <use xlink:href="#DejaVuSans-8722"/>
       <use x="83.789062" xlink:href="#DejaVuSans-48"/>
       <use x="147.412109" xlink:href="#DejaVuSans-46"/>
       <use x="179.199219" xlink:href="#DejaVuSans-48"/>
       <use x="242.822266" xlink:href="#DejaVuSans-56"/>
      </g>
     </g>
    </g>
   </g>
   <g id="matplotlib.axis_2">
    <g id="ytick_1">
     <g id="line2d_9">
      <defs>
       <path d="M 0 0 
L -3.5 0 
" id="m8a58b21a67" style="stroke:#000000;stroke-width:0.8;"/>
      </defs>
      <g>
       <use style="stroke:#000000;stroke-width:0.8;" x="108" xlink:href="#m8a58b21a67" y="630"/>
      </g>
     </g>
     <g id="text_9">
      <!-- 0 -->
      <g transform="translate(94.6375 633.799219)scale(0.1 -0.1)">
       <use xlink:href="#DejaVuSans-48"/>
      </g>
     </g>
    </g>
    <g id="ytick_2">
     <g id="line2d_10">
      <g>
       <use style="stroke:#000000;stroke-width:0.8;" x="108" xlink:href="#m8a58b21a67" y="568.266363"/>
      </g>
     </g>
     <g id="text_10">
      <!-- 5 -->
      <defs>
       <path d="M 10.796875 72.90625 
L 49.515625 72.90625 
L 49.515625 64.59375 
L 19.828125 64.59375 
L 19.828125 46.734375 
Q 21.96875 47.46875 24.109375 47.828125 
Q 26.265625 48.1875 28.421875 48.1875 
Q 40.625 48.1875 47.75 41.5 
Q 54.890625 34.8125 54.890625 23.390625 
Q 54.890625 11.625 47.5625 5.09375 
Q 40.234375 -1.421875 26.90625 -1.421875 
Q 22.3125 -1.421875 17.546875 -0.640625 
Q 12.796875 0.140625 7.71875 1.703125 
L 7.71875 11.625 
Q 12.109375 9.234375 16.796875 8.0625 
Q 21.484375 6.890625 26.703125 6.890625 
Q 35.15625 6.890625 40.078125 11.328125 
Q 45.015625 15.765625 45.015625 23.390625 
Q 45.015625 31 40.078125 35.4375 
Q 35.15625 39.890625 26.703125 39.890625 
Q 22.75 39.890625 18.8125 39.015625 
Q 14.890625 38.140625 10.796875 36.28125 
z
" id="DejaVuSans-53"/>
      </defs>
      <g transform="translate(94.6375 572.065581)scale(0.1 -0.1)">
       <use xlink:href="#DejaVuSans-53"/>
      </g>
     </g>
    </g>
    <g id="ytick_3">
     <g id="line2d_11">
      <g>
       <use style="stroke:#000000;stroke-width:0.8;" x="108" xlink:href="#m8a58b21a67" y="506.532725"/>
      </g>
     </g>
     <g id="text_11">
      <!-- 10 -->
      <g transform="translate(88.275 510.331944)scale(0.1 -0.1)">
       <use xlink:href="#DejaVuSans-49"/>
       <use x="63.623047" xlink:href="#DejaVuSans-48"/>
      </g>
     </g>
    </g>
    <g id="ytick_4">
     <g id="line2d_12">
      <g>
       <use style="stroke:#000000;stroke-width:0.8;" x="108" xlink:href="#m8a58b21a67" y="444.799088"/>
      </g>
     </g>
     <g id="text_12">
      <!-- 15 -->
      <g transform="translate(88.275 448.598307)scale(0.1 -0.1)">
       <use xlink:href="#DejaVuSans-49"/>
       <use x="63.623047" xlink:href="#DejaVuSans-53"/>
      </g>
     </g>
    </g>
    <g id="ytick_5">
     <g id="line2d_13">
      <g>
       <use style="stroke:#000000;stroke-width:0.8;" x="108" xlink:href="#m8a58b21a67" y="383.06545"/>
      </g>
     </g>
     <g id="text_13">
      <!-- 20 -->
      <g transform="translate(88.275 386.864669)scale(0.1 -0.1)">
       <use xlink:href="#DejaVuSans-50"/>
       <use x="63.623047" xlink:href="#DejaVuSans-48"/>
      </g>
     </g>
    </g>
    <g id="ytick_6">
     <g id="line2d_14">
      <g>
       <use style="stroke:#000000;stroke-width:0.8;" x="108" xlink:href="#m8a58b21a67" y="321.331813"/>
      </g>
     </g>
     <g id="text_14">
      <!-- 25 -->
      <g transform="translate(88.275 325.131032)scale(0.1 -0.1)">
       <use xlink:href="#DejaVuSans-50"/>
       <use x="63.623047" xlink:href="#DejaVuSans-53"/>
      </g>
     </g>
    </g>
    <g id="ytick_7">
     <g id="line2d_15">
      <g>
       <use style="stroke:#000000;stroke-width:0.8;" x="108" xlink:href="#m8a58b21a67" y="259.598176"/>
      </g>
     </g>
     <g id="text_15">
      <!-- 30 -->
      <defs>
       <path d="M 40.578125 39.3125 
Q 47.65625 37.796875 51.625 33 
Q 55.609375 28.21875 55.609375 21.1875 
Q 55.609375 10.40625 48.1875 4.484375 
Q 40.765625 -1.421875 27.09375 -1.421875 
Q 22.515625 -1.421875 17.65625 -0.515625 
Q 12.796875 0.390625 7.625 2.203125 
L 7.625 11.71875 
Q 11.71875 9.328125 16.59375 8.109375 
Q 21.484375 6.890625 26.8125 6.890625 
Q 36.078125 6.890625 40.9375 10.546875 
Q 45.796875 14.203125 45.796875 21.1875 
Q 45.796875 27.640625 41.28125 31.265625 
Q 36.765625 34.90625 28.71875 34.90625 
L 20.21875 34.90625 
L 20.21875 43.015625 
L 29.109375 43.015625 
Q 36.375 43.015625 40.234375 45.921875 
Q 44.09375 48.828125 44.09375 54.296875 
Q 44.09375 59.90625 40.109375 62.90625 
Q 36.140625 65.921875 28.71875 65.921875 
Q 24.65625 65.921875 20.015625 65.03125 
Q 15.375 64.15625 9.8125 62.3125 
L 9.8125 71.09375 
Q 15.4375 72.65625 20.34375 73.4375 
Q 25.25 74.21875 29.59375 74.21875 
Q 40.828125 74.21875 47.359375 69.109375 
Q 53.90625 64.015625 53.90625 55.328125 
Q 53.90625 49.265625 50.4375 45.09375 
Q 46.96875 40.921875 40.578125 39.3125 
z
" id="DejaVuSans-51"/>
      </defs>
      <g transform="translate(88.275 263.397394)scale(0.1 -0.1)">
       <use xlink:href="#DejaVuSans-51"/>
       <use x="63.623047" xlink:href="#DejaVuSans-48"/>
      </g>
     </g>
    </g>
    <g id="ytick_8">
     <g id="line2d_16">
      <g>
       <use style="stroke:#000000;stroke-width:0.8;" x="108" xlink:href="#m8a58b21a67" y="197.864538"/>
      </g>
     </g>
     <g id="text_16">
      <!-- 35 -->
      <g transform="translate(88.275 201.663757)scale(0.1 -0.1)">
       <use xlink:href="#DejaVuSans-51"/>
       <use x="63.623047" xlink:href="#DejaVuSans-53"/>
      </g>
     </g>
    </g>
    <g id="ytick_9">
     <g id="line2d_17">
      <g>
       <use style="stroke:#000000;stroke-width:0.8;" x="108" xlink:href="#m8a58b21a67" y="136.130901"/>
      </g>
     </g>
     <g id="text_17">
      <!-- 40 -->
      <g transform="translate(88.275 139.93012)scale(0.1 -0.1)">
       <use xlink:href="#DejaVuSans-52"/>
       <use x="63.623047" xlink:href="#DejaVuSans-48"/>
      </g>
     </g>
    </g>
   </g>
   <g id="patch_103">
    <path d="M 108 630 
L 108 86.4 
" style="fill:none;stroke:#000000;stroke-linecap:square;stroke-linejoin:miter;stroke-width:0.8;"/>
   </g>
   <g id="patch_104">
    <path d="M 777.6 630 
L 777.6 86.4 
" style="fill:none;stroke:#000000;stroke-linecap:square;stroke-linejoin:miter;stroke-width:0.8;"/>
   </g>
   <g id="patch_105">
    <path d="M 108 630 
L 777.6 630 
" style="fill:none;stroke:#000000;stroke-linecap:square;stroke-linejoin:miter;stroke-width:0.8;"/>
   </g>
   <g id="patch_106">
    <path d="M 108 86.4 
L 777.6 86.4 
" style="fill:none;stroke:#000000;stroke-linecap:square;stroke-linejoin:miter;stroke-width:0.8;"/>
   </g>
   <g id="text_18">
    <!-- Nodes strength last layer -->
    <defs>
     <path d="M 9.8125 72.90625 
L 23.09375 72.90625 
L 55.421875 11.921875 
L 55.421875 72.90625 
L 64.984375 72.90625 
L 64.984375 0 
L 51.703125 0 
L 19.390625 60.984375 
L 19.390625 0 
L 9.8125 0 
z
" id="DejaVuSans-78"/>
     <path d="M 30.609375 48.390625 
Q 23.390625 48.390625 19.1875 42.75 
Q 14.984375 37.109375 14.984375 27.296875 
Q 14.984375 17.484375 19.15625 11.84375 
Q 23.34375 6.203125 30.609375 6.203125 
Q 37.796875 6.203125 41.984375 11.859375 
Q 46.1875 17.53125 46.1875 27.296875 
Q 46.1875 37.015625 41.984375 42.703125 
Q 37.796875 48.390625 30.609375 48.390625 
z
M 30.609375 56 
Q 42.328125 56 49.015625 48.375 
Q 55.71875 40.765625 55.71875 27.296875 
Q 55.71875 13.875 49.015625 6.21875 
Q 42.328125 -1.421875 30.609375 -1.421875 
Q 18.84375 -1.421875 12.171875 6.21875 
Q 5.515625 13.875 5.515625 27.296875 
Q 5.515625 40.765625 12.171875 48.375 
Q 18.84375 56 30.609375 56 
z
" id="DejaVuSans-111"/>
     <path d="M 45.40625 46.390625 
L 45.40625 75.984375 
L 54.390625 75.984375 
L 54.390625 0 
L 45.40625 0 
L 45.40625 8.203125 
Q 42.578125 3.328125 38.25 0.953125 
Q 33.9375 -1.421875 27.875 -1.421875 
Q 17.96875 -1.421875 11.734375 6.484375 
Q 5.515625 14.40625 5.515625 27.296875 
Q 5.515625 40.1875 11.734375 48.09375 
Q 17.96875 56 27.875 56 
Q 33.9375 56 38.25 53.625 
Q 42.578125 51.265625 45.40625 46.390625 
z
M 14.796875 27.296875 
Q 14.796875 17.390625 18.875 11.75 
Q 22.953125 6.109375 30.078125 6.109375 
Q 37.203125 6.109375 41.296875 11.75 
Q 45.40625 17.390625 45.40625 27.296875 
Q 45.40625 37.203125 41.296875 42.84375 
Q 37.203125 48.484375 30.078125 48.484375 
Q 22.953125 48.484375 18.875 42.84375 
Q 14.796875 37.203125 14.796875 27.296875 
z
" id="DejaVuSans-100"/>
     <path d="M 56.203125 29.59375 
L 56.203125 25.203125 
L 14.890625 25.203125 
Q 15.484375 15.921875 20.484375 11.0625 
Q 25.484375 6.203125 34.421875 6.203125 
Q 39.59375 6.203125 44.453125 7.46875 
Q 49.3125 8.734375 54.109375 11.28125 
L 54.109375 2.78125 
Q 49.265625 0.734375 44.1875 -0.34375 
Q 39.109375 -1.421875 33.890625 -1.421875 
Q 20.796875 -1.421875 13.15625 6.1875 
Q 5.515625 13.8125 5.515625 26.8125 
Q 5.515625 40.234375 12.765625 48.109375 
Q 20.015625 56 32.328125 56 
Q 43.359375 56 49.78125 48.890625 
Q 56.203125 41.796875 56.203125 29.59375 
z
M 47.21875 32.234375 
Q 47.125 39.59375 43.09375 43.984375 
Q 39.0625 48.390625 32.421875 48.390625 
Q 24.90625 48.390625 20.390625 44.140625 
Q 15.875 39.890625 15.1875 32.171875 
z
" id="DejaVuSans-101"/>
     <path d="M 44.28125 53.078125 
L 44.28125 44.578125 
Q 40.484375 46.53125 36.375 47.5 
Q 32.28125 48.484375 27.875 48.484375 
Q 21.1875 48.484375 17.84375 46.4375 
Q 14.5 44.390625 14.5 40.28125 
Q 14.5 37.15625 16.890625 35.375 
Q 19.28125 33.59375 26.515625 31.984375 
L 29.59375 31.296875 
Q 39.15625 29.25 43.1875 25.515625 
Q 47.21875 21.78125 47.21875 15.09375 
Q 47.21875 7.46875 41.1875 3.015625 
Q 35.15625 -1.421875 24.609375 -1.421875 
Q 20.21875 -1.421875 15.453125 -0.5625 
Q 10.6875 0.296875 5.421875 2 
L 5.421875 11.28125 
Q 10.40625 8.6875 15.234375 7.390625 
Q 20.0625 6.109375 24.8125 6.109375 
Q 31.15625 6.109375 34.5625 8.28125 
Q 37.984375 10.453125 37.984375 14.40625 
Q 37.984375 18.0625 35.515625 20.015625 
Q 33.0625 21.96875 24.703125 23.78125 
L 21.578125 24.515625 
Q 13.234375 26.265625 9.515625 29.90625 
Q 5.8125 33.546875 5.8125 39.890625 
Q 5.8125 47.609375 11.28125 51.796875 
Q 16.75 56 26.8125 56 
Q 31.78125 56 36.171875 55.265625 
Q 40.578125 54.546875 44.28125 53.078125 
z
" id="DejaVuSans-115"/>
     <path id="DejaVuSans-32"/>
     <path d="M 18.3125 70.21875 
L 18.3125 54.6875 
L 36.8125 54.6875 
L 36.8125 47.703125 
L 18.3125 47.703125 
L 18.3125 18.015625 
Q 18.3125 11.328125 20.140625 9.421875 
Q 21.96875 7.515625 27.59375 7.515625 
L 36.8125 7.515625 
L 36.8125 0 
L 27.59375 0 
Q 17.1875 0 13.234375 3.875 
Q 9.28125 7.765625 9.28125 18.015625 
L 9.28125 47.703125 
L 2.6875 47.703125 
L 2.6875 54.6875 
L 9.28125 54.6875 
L 9.28125 70.21875 
z
" id="DejaVuSans-116"/>
     <path d="M 41.109375 46.296875 
Q 39.59375 47.171875 37.8125 47.578125 
Q 36.03125 48 33.890625 48 
Q 26.265625 48 22.1875 43.046875 
Q 18.109375 38.09375 18.109375 28.8125 
L 18.109375 0 
L 9.078125 0 
L 9.078125 54.6875 
L 18.109375 54.6875 
L 18.109375 46.1875 
Q 20.953125 51.171875 25.484375 53.578125 
Q 30.03125 56 36.53125 56 
Q 37.453125 56 38.578125 55.875 
Q 39.703125 55.765625 41.0625 55.515625 
z
" id="DejaVuSans-114"/>
     <path d="M 54.890625 33.015625 
L 54.890625 0 
L 45.90625 0 
L 45.90625 32.71875 
Q 45.90625 40.484375 42.875 44.328125 
Q 39.84375 48.1875 33.796875 48.1875 
Q 26.515625 48.1875 22.3125 43.546875 
Q 18.109375 38.921875 18.109375 30.90625 
L 18.109375 0 
L 9.078125 0 
L 9.078125 54.6875 
L 18.109375 54.6875 
L 18.109375 46.1875 
Q 21.34375 51.125 25.703125 53.5625 
Q 30.078125 56 35.796875 56 
Q 45.21875 56 50.046875 50.171875 
Q 54.890625 44.34375 54.890625 33.015625 
z
" id="DejaVuSans-110"/>
     <path d="M 45.40625 27.984375 
Q 45.40625 37.75 41.375 43.109375 
Q 37.359375 48.484375 30.078125 48.484375 
Q 22.859375 48.484375 18.828125 43.109375 
Q 14.796875 37.75 14.796875 27.984375 
Q 14.796875 18.265625 18.828125 12.890625 
Q 22.859375 7.515625 30.078125 7.515625 
Q 37.359375 7.515625 41.375 12.890625 
Q 45.40625 18.265625 45.40625 27.984375 
z
M 54.390625 6.78125 
Q 54.390625 -7.171875 48.1875 -13.984375 
Q 42 -20.796875 29.203125 -20.796875 
Q 24.46875 -20.796875 20.265625 -20.09375 
Q 16.0625 -19.390625 12.109375 -17.921875 
L 12.109375 -9.1875 
Q 16.0625 -11.328125 19.921875 -12.34375 
Q 23.78125 -13.375 27.78125 -13.375 
Q 36.625 -13.375 41.015625 -8.765625 
Q 45.40625 -4.15625 45.40625 5.171875 
L 45.40625 9.625 
Q 42.625 4.78125 38.28125 2.390625 
Q 33.9375 0 27.875 0 
Q 17.828125 0 11.671875 7.65625 
Q 5.515625 15.328125 5.515625 27.984375 
Q 5.515625 40.671875 11.671875 48.328125 
Q 17.828125 56 27.875 56 
Q 33.9375 56 38.28125 53.609375 
Q 42.625 51.21875 45.40625 46.390625 
L 45.40625 54.6875 
L 54.390625 54.6875 
z
" id="DejaVuSans-103"/>
     <path d="M 54.890625 33.015625 
L 54.890625 0 
L 45.90625 0 
L 45.90625 32.71875 
Q 45.90625 40.484375 42.875 44.328125 
Q 39.84375 48.1875 33.796875 48.1875 
Q 26.515625 48.1875 22.3125 43.546875 
Q 18.109375 38.921875 18.109375 30.90625 
L 18.109375 0 
L 9.078125 0 
L 9.078125 75.984375 
L 18.109375 75.984375 
L 18.109375 46.1875 
Q 21.34375 51.125 25.703125 53.5625 
Q 30.078125 56 35.796875 56 
Q 45.21875 56 50.046875 50.171875 
Q 54.890625 44.34375 54.890625 33.015625 
z
" id="DejaVuSans-104"/>
     <path d="M 9.421875 75.984375 
L 18.40625 75.984375 
L 18.40625 0 
L 9.421875 0 
z
" id="DejaVuSans-108"/>
     <path d="M 34.28125 27.484375 
Q 23.390625 27.484375 19.1875 25 
Q 14.984375 22.515625 14.984375 16.5 
Q 14.984375 11.71875 18.140625 8.90625 
Q 21.296875 6.109375 26.703125 6.109375 
Q 34.1875 6.109375 38.703125 11.40625 
Q 43.21875 16.703125 43.21875 25.484375 
L 43.21875 27.484375 
z
M 52.203125 31.203125 
L 52.203125 0 
L 43.21875 0 
L 43.21875 8.296875 
Q 40.140625 3.328125 35.546875 0.953125 
Q 30.953125 -1.421875 24.3125 -1.421875 
Q 15.921875 -1.421875 10.953125 3.296875 
Q 6 8.015625 6 15.921875 
Q 6 25.140625 12.171875 29.828125 
Q 18.359375 34.515625 30.609375 34.515625 
L 43.21875 34.515625 
L 43.21875 35.40625 
Q 43.21875 41.609375 39.140625 45 
Q 35.0625 48.390625 27.6875 48.390625 
Q 23 48.390625 18.546875 47.265625 
Q 14.109375 46.140625 10.015625 43.890625 
L 10.015625 52.203125 
Q 14.9375 54.109375 19.578125 55.046875 
Q 24.21875 56 28.609375 56 
Q 40.484375 56 46.34375 49.84375 
Q 52.203125 43.703125 52.203125 31.203125 
z
" id="DejaVuSans-97"/>
     <path d="M 32.171875 -5.078125 
Q 28.375 -14.84375 24.75 -17.8125 
Q 21.140625 -20.796875 15.09375 -20.796875 
L 7.90625 -20.796875 
L 7.90625 -13.28125 
L 13.1875 -13.28125 
Q 16.890625 -13.28125 18.9375 -11.515625 
Q 21 -9.765625 23.484375 -3.21875 
L 25.09375 0.875 
L 2.984375 54.6875 
L 12.5 54.6875 
L 29.59375 11.921875 
L 46.6875 54.6875 
L 56.203125 54.6875 
z
" id="DejaVuSans-121"/>
    </defs>
    <g transform="translate(367.017188 80.4)scale(0.12 -0.12)">
     <use xlink:href="#DejaVuSans-78"/>
     <use x="74.804688" xlink:href="#DejaVuSans-111"/>
     <use x="135.986328" xlink:href="#DejaVuSans-100"/>
     <use x="199.462891" xlink:href="#DejaVuSans-101"/>
     <use x="260.986328" xlink:href="#DejaVuSans-115"/>
     <use x="313.085938" xlink:href="#DejaVuSans-32"/>
     <use x="344.873047" xlink:href="#DejaVuSans-115"/>
     <use x="396.972656" xlink:href="#DejaVuSans-116"/>
     <use x="436.181641" xlink:href="#DejaVuSans-114"/>
     <use x="477.263672" xlink:href="#DejaVuSans-101"/>
     <use x="538.787109" xlink:href="#DejaVuSans-110"/>
     <use x="602.166016" xlink:href="#DejaVuSans-103"/>
     <use x="665.642578" xlink:href="#DejaVuSans-116"/>
     <use x="704.851562" xlink:href="#DejaVuSans-104"/>
     <use x="768.230469" xlink:href="#DejaVuSans-32"/>
     <use x="800.017578" xlink:href="#DejaVuSans-108"/>
     <use x="827.800781" xlink:href="#DejaVuSans-97"/>
     <use x="889.080078" xlink:href="#DejaVuSans-115"/>
     <use x="941.179688" xlink:href="#DejaVuSans-116"/>
     <use x="980.388672" xlink:href="#DejaVuSans-32"/>
     <use x="1012.175781" xlink:href="#DejaVuSans-108"/>
     <use x="1039.958984" xlink:href="#DejaVuSans-97"/>
     <use x="1101.238281" xlink:href="#DejaVuSans-121"/>
     <use x="1160.417969" xlink:href="#DejaVuSans-101"/>
     <use x="1221.941406" xlink:href="#DejaVuSans-114"/>
    </g>
   </g>
   <g id="legend_1">
    <g id="patch_107">
     <path d="M 685.478125 123.75625 
L 770.6 123.75625 
Q 772.6 123.75625 772.6 121.75625 
L 772.6 93.4 
Q 772.6 91.4 770.6 91.4 
L 685.478125 91.4 
Q 683.478125 91.4 683.478125 93.4 
L 683.478125 121.75625 
Q 683.478125 123.75625 685.478125 123.75625 
z
" style="fill:#ffffff;opacity:0.8;stroke:#cccccc;stroke-linejoin:miter;"/>
    </g>
    <g id="patch_108">
     <path d="M 687.478125 102.998437 
L 707.478125 102.998437 
L 707.478125 95.998437 
L 687.478125 95.998437 
z
" style="fill:#0000ff;opacity:0.5;"/>
    </g>
    <g id="text_19">
     <!-- s first gen. -->
     <defs>
      <path d="M 37.109375 75.984375 
L 37.109375 68.5 
L 28.515625 68.5 
Q 23.6875 68.5 21.796875 66.546875 
Q 19.921875 64.59375 19.921875 59.515625 
L 19.921875 54.6875 
L 34.71875 54.6875 
L 34.71875 47.703125 
L 19.921875 47.703125 
L 19.921875 0 
L 10.890625 0 
L 10.890625 47.703125 
L 2.296875 47.703125 
L 2.296875 54.6875 
L 10.890625 54.6875 
L 10.890625 58.5 
Q 10.890625 67.625 15.140625 71.796875 
Q 19.390625 75.984375 28.609375 75.984375 
z
" id="DejaVuSans-102"/>
      <path d="M 9.421875 54.6875 
L 18.40625 54.6875 
L 18.40625 0 
L 9.421875 0 
z
M 9.421875 75.984375 
L 18.40625 75.984375 
L 18.40625 64.59375 
L 9.421875 64.59375 
z
" id="DejaVuSans-105"/>
     </defs>
     <g transform="translate(715.478125 102.998437)scale(0.1 -0.1)">
      <use xlink:href="#DejaVuSans-115"/>
      <use x="52.099609" xlink:href="#DejaVuSans-32"/>
      <use x="83.886719" xlink:href="#DejaVuSans-102"/>
      <use x="119.091797" xlink:href="#DejaVuSans-105"/>
      <use x="146.875" xlink:href="#DejaVuSans-114"/>
      <use x="187.988281" xlink:href="#DejaVuSans-115"/>
      <use x="240.087891" xlink:href="#DejaVuSans-116"/>
      <use x="279.296875" xlink:href="#DejaVuSans-32"/>
      <use x="311.083984" xlink:href="#DejaVuSans-103"/>
      <use x="374.560547" xlink:href="#DejaVuSans-101"/>
      <use x="436.083984" xlink:href="#DejaVuSans-110"/>
      <use x="499.462891" xlink:href="#DejaVuSans-46"/>
     </g>
    </g>
    <g id="patch_109">
     <path d="M 687.478125 117.676562 
L 707.478125 117.676562 
L 707.478125 110.676562 
L 687.478125 110.676562 
z
" style="fill:#008000;opacity:0.5;"/>
    </g>
    <g id="text_20">
     <!-- s last gen. -->
     <g transform="translate(715.478125 117.676562)scale(0.1 -0.1)">
      <use xlink:href="#DejaVuSans-115"/>
      <use x="52.099609" xlink:href="#DejaVuSans-32"/>
      <use x="83.886719" xlink:href="#DejaVuSans-108"/>
      <use x="111.669922" xlink:href="#DejaVuSans-97"/>
      <use x="172.949219" xlink:href="#DejaVuSans-115"/>
      <use x="225.048828" xlink:href="#DejaVuSans-116"/>
      <use x="264.257812" xlink:href="#DejaVuSans-32"/>
      <use x="296.044922" xlink:href="#DejaVuSans-103"/>
      <use x="359.521484" xlink:href="#DejaVuSans-101"/>
      <use x="421.044922" xlink:href="#DejaVuSans-110"/>
      <use x="484.423828" xlink:href="#DejaVuSans-46"/>
     </g>
    </g>
   </g>
  </g>
 </g>
 <defs>
  <clipPath id="p6bb91a0ae9">
   <rect height="543.6" width="669.6" x="108" y="86.4"/>
  </clipPath>
 </defs>
</svg>
