<?xml version="1.0" encoding="utf-8" standalone="no"?>
<!DOCTYPE svg PUBLIC "-//W3C//DTD SVG 1.1//EN"
  "http://www.w3.org/Graphics/SVG/1.1/DTD/svg11.dtd">
<!-- Created with matplotlib (https://matplotlib.org/) -->
<svg height="720pt" version="1.1" viewBox="0 0 864 720" width="864pt" xmlns="http://www.w3.org/2000/svg" xmlns:xlink="http://www.w3.org/1999/xlink">
 <defs>
  <style type="text/css">
*{stroke-linecap:butt;stroke-linejoin:round;white-space:pre;}
  </style>
 </defs>
 <g id="figure_1">
  <g id="patch_1">
   <path d="M 0 720 
L 864 720 
L 864 0 
L 0 0 
z
" style="fill:#ffffff;"/>
  </g>
  <g id="axes_1">
   <g id="patch_2">
    <path d="M 108 630 
L 777.6 630 
L 777.6 86.4 
L 108 86.4 
z
" style="fill:#ffffff;"/>
   </g>
   <g id="patch_3">
    <path clip-path="url(#pb9973839d9)" d="M 475.572663 630 
L 481.004483 630 
L 481.004483 590.175824 
L 475.572663 590.175824 
z
" style="fill:#0000ff;opacity:0.5;"/>
   </g>
   <g id="patch_4">
    <path clip-path="url(#pb9973839d9)" d="M 481.004483 630 
L 486.436302 630 
L 486.436302 630 
L 481.004483 630 
z
" style="fill:#0000ff;opacity:0.5;"/>
   </g>
   <g id="patch_5">
    <path clip-path="url(#pb9973839d9)" d="M 486.436302 630 
L 491.868122 630 
L 491.868122 550.351648 
L 486.436302 550.351648 
z
" style="fill:#0000ff;opacity:0.5;"/>
   </g>
   <g id="patch_6">
    <path clip-path="url(#pb9973839d9)" d="M 491.868122 630 
L 497.299941 630 
L 497.299941 550.351648 
L 491.868122 550.351648 
z
" style="fill:#0000ff;opacity:0.5;"/>
   </g>
   <g id="patch_7">
    <path clip-path="url(#pb9973839d9)" d="M 497.299941 630 
L 502.731761 630 
L 502.731761 630 
L 497.299941 630 
z
" style="fill:#0000ff;opacity:0.5;"/>
   </g>
   <g id="patch_8">
    <path clip-path="url(#pb9973839d9)" d="M 502.731761 630 
L 508.16358 630 
L 508.16358 590.175824 
L 502.731761 590.175824 
z
" style="fill:#0000ff;opacity:0.5;"/>
   </g>
   <g id="patch_9">
    <path clip-path="url(#pb9973839d9)" d="M 508.16358 630 
L 513.595399 630 
L 513.595399 630 
L 508.16358 630 
z
" style="fill:#0000ff;opacity:0.5;"/>
   </g>
   <g id="patch_10">
    <path clip-path="url(#pb9973839d9)" d="M 513.595399 630 
L 519.027219 630 
L 519.027219 550.351648 
L 513.595399 550.351648 
z
" style="fill:#0000ff;opacity:0.5;"/>
   </g>
   <g id="patch_11">
    <path clip-path="url(#pb9973839d9)" d="M 519.027219 630 
L 524.459038 630 
L 524.459038 430.879121 
L 519.027219 430.879121 
z
" style="fill:#0000ff;opacity:0.5;"/>
   </g>
   <g id="patch_12">
    <path clip-path="url(#pb9973839d9)" d="M 524.459038 630 
L 529.890858 630 
L 529.890858 510.527473 
L 524.459038 510.527473 
z
" style="fill:#0000ff;opacity:0.5;"/>
   </g>
   <g id="patch_13">
    <path clip-path="url(#pb9973839d9)" d="M 529.890858 630 
L 535.322677 630 
L 535.322677 470.703297 
L 529.890858 470.703297 
z
" style="fill:#0000ff;opacity:0.5;"/>
   </g>
   <g id="patch_14">
    <path clip-path="url(#pb9973839d9)" d="M 535.322677 630 
L 540.754497 630 
L 540.754497 590.175824 
L 535.322677 590.175824 
z
" style="fill:#0000ff;opacity:0.5;"/>
   </g>
   <g id="patch_15">
    <path clip-path="url(#pb9973839d9)" d="M 540.754497 630 
L 546.186316 630 
L 546.186316 351.230769 
L 540.754497 351.230769 
z
" style="fill:#0000ff;opacity:0.5;"/>
   </g>
   <g id="patch_16">
    <path clip-path="url(#pb9973839d9)" d="M 546.186316 630 
L 551.618136 630 
L 551.618136 630 
L 546.186316 630 
z
" style="fill:#0000ff;opacity:0.5;"/>
   </g>
   <g id="patch_17">
    <path clip-path="url(#pb9973839d9)" d="M 551.618136 630 
L 557.049955 630 
L 557.049955 351.230769 
L 551.618136 351.230769 
z
" style="fill:#0000ff;opacity:0.5;"/>
   </g>
   <g id="patch_18">
    <path clip-path="url(#pb9973839d9)" d="M 557.049955 630 
L 562.481775 630 
L 562.481775 630 
L 557.049955 630 
z
" style="fill:#0000ff;opacity:0.5;"/>
   </g>
   <g id="patch_19">
    <path clip-path="url(#pb9973839d9)" d="M 562.481775 630 
L 567.913594 630 
L 567.913594 510.527473 
L 562.481775 510.527473 
z
" style="fill:#0000ff;opacity:0.5;"/>
   </g>
   <g id="patch_20">
    <path clip-path="url(#pb9973839d9)" d="M 567.913594 630 
L 573.345414 630 
L 573.345414 391.054945 
L 567.913594 391.054945 
z
" style="fill:#0000ff;opacity:0.5;"/>
   </g>
   <g id="patch_21">
    <path clip-path="url(#pb9973839d9)" d="M 573.345414 630 
L 578.777233 630 
L 578.777233 391.054945 
L 573.345414 391.054945 
z
" style="fill:#0000ff;opacity:0.5;"/>
   </g>
   <g id="patch_22">
    <path clip-path="url(#pb9973839d9)" d="M 578.777233 630 
L 584.209052 630 
L 584.209052 510.527473 
L 578.777233 510.527473 
z
" style="fill:#0000ff;opacity:0.5;"/>
   </g>
   <g id="patch_23">
    <path clip-path="url(#pb9973839d9)" d="M 584.209052 630 
L 589.640872 630 
L 589.640872 112.285714 
L 584.209052 112.285714 
z
" style="fill:#0000ff;opacity:0.5;"/>
   </g>
   <g id="patch_24">
    <path clip-path="url(#pb9973839d9)" d="M 589.640872 630 
L 595.072691 630 
L 595.072691 590.175824 
L 589.640872 590.175824 
z
" style="fill:#0000ff;opacity:0.5;"/>
   </g>
   <g id="patch_25">
    <path clip-path="url(#pb9973839d9)" d="M 595.072691 630 
L 600.504511 630 
L 600.504511 391.054945 
L 595.072691 391.054945 
z
" style="fill:#0000ff;opacity:0.5;"/>
   </g>
   <g id="patch_26">
    <path clip-path="url(#pb9973839d9)" d="M 600.504511 630 
L 605.93633 630 
L 605.93633 430.879121 
L 600.504511 430.879121 
z
" style="fill:#0000ff;opacity:0.5;"/>
   </g>
   <g id="patch_27">
    <path clip-path="url(#pb9973839d9)" d="M 605.93633 630 
L 611.36815 630 
L 611.36815 430.879121 
L 605.93633 430.879121 
z
" style="fill:#0000ff;opacity:0.5;"/>
   </g>
   <g id="patch_28">
    <path clip-path="url(#pb9973839d9)" d="M 611.36815 630 
L 616.799969 630 
L 616.799969 470.703297 
L 611.36815 470.703297 
z
" style="fill:#0000ff;opacity:0.5;"/>
   </g>
   <g id="patch_29">
    <path clip-path="url(#pb9973839d9)" d="M 616.799969 630 
L 622.231789 630 
L 622.231789 391.054945 
L 616.799969 391.054945 
z
" style="fill:#0000ff;opacity:0.5;"/>
   </g>
   <g id="patch_30">
    <path clip-path="url(#pb9973839d9)" d="M 622.231789 630 
L 627.663608 630 
L 627.663608 430.879121 
L 622.231789 430.879121 
z
" style="fill:#0000ff;opacity:0.5;"/>
   </g>
   <g id="patch_31">
    <path clip-path="url(#pb9973839d9)" d="M 627.663608 630 
L 633.095428 630 
L 633.095428 510.527473 
L 627.663608 510.527473 
z
" style="fill:#0000ff;opacity:0.5;"/>
   </g>
   <g id="patch_32">
    <path clip-path="url(#pb9973839d9)" d="M 633.095428 630 
L 638.527247 630 
L 638.527247 391.054945 
L 633.095428 391.054945 
z
" style="fill:#0000ff;opacity:0.5;"/>
   </g>
   <g id="patch_33">
    <path clip-path="url(#pb9973839d9)" d="M 638.527247 630 
L 643.959067 630 
L 643.959067 510.527473 
L 638.527247 510.527473 
z
" style="fill:#0000ff;opacity:0.5;"/>
   </g>
   <g id="patch_34">
    <path clip-path="url(#pb9973839d9)" d="M 643.959067 630 
L 649.390886 630 
L 649.390886 510.527473 
L 643.959067 510.527473 
z
" style="fill:#0000ff;opacity:0.5;"/>
   </g>
   <g id="patch_35">
    <path clip-path="url(#pb9973839d9)" d="M 649.390886 630 
L 654.822706 630 
L 654.822706 470.703297 
L 649.390886 470.703297 
z
" style="fill:#0000ff;opacity:0.5;"/>
   </g>
   <g id="patch_36">
    <path clip-path="url(#pb9973839d9)" d="M 654.822706 630 
L 660.254525 630 
L 660.254525 590.175824 
L 654.822706 590.175824 
z
" style="fill:#0000ff;opacity:0.5;"/>
   </g>
   <g id="patch_37">
    <path clip-path="url(#pb9973839d9)" d="M 660.254525 630 
L 665.686344 630 
L 665.686344 590.175824 
L 660.254525 590.175824 
z
" style="fill:#0000ff;opacity:0.5;"/>
   </g>
   <g id="patch_38">
    <path clip-path="url(#pb9973839d9)" d="M 665.686344 630 
L 671.118164 630 
L 671.118164 510.527473 
L 665.686344 510.527473 
z
" style="fill:#0000ff;opacity:0.5;"/>
   </g>
   <g id="patch_39">
    <path clip-path="url(#pb9973839d9)" d="M 671.118164 630 
L 676.549983 630 
L 676.549983 630 
L 671.118164 630 
z
" style="fill:#0000ff;opacity:0.5;"/>
   </g>
   <g id="patch_40">
    <path clip-path="url(#pb9973839d9)" d="M 676.549983 630 
L 681.981803 630 
L 681.981803 630 
L 676.549983 630 
z
" style="fill:#0000ff;opacity:0.5;"/>
   </g>
   <g id="patch_41">
    <path clip-path="url(#pb9973839d9)" d="M 681.981803 630 
L 687.413622 630 
L 687.413622 590.175824 
L 681.981803 590.175824 
z
" style="fill:#0000ff;opacity:0.5;"/>
   </g>
   <g id="patch_42">
    <path clip-path="url(#pb9973839d9)" d="M 687.413622 630 
L 692.845442 630 
L 692.845442 590.175824 
L 687.413622 590.175824 
z
" style="fill:#0000ff;opacity:0.5;"/>
   </g>
   <g id="patch_43">
    <path clip-path="url(#pb9973839d9)" d="M 692.845442 630 
L 698.277261 630 
L 698.277261 550.351648 
L 692.845442 550.351648 
z
" style="fill:#0000ff;opacity:0.5;"/>
   </g>
   <g id="patch_44">
    <path clip-path="url(#pb9973839d9)" d="M 698.277261 630 
L 703.709081 630 
L 703.709081 630 
L 698.277261 630 
z
" style="fill:#0000ff;opacity:0.5;"/>
   </g>
   <g id="patch_45">
    <path clip-path="url(#pb9973839d9)" d="M 703.709081 630 
L 709.1409 630 
L 709.1409 590.175824 
L 703.709081 590.175824 
z
" style="fill:#0000ff;opacity:0.5;"/>
   </g>
   <g id="patch_46">
    <path clip-path="url(#pb9973839d9)" d="M 709.1409 630 
L 714.57272 630 
L 714.57272 630 
L 709.1409 630 
z
" style="fill:#0000ff;opacity:0.5;"/>
   </g>
   <g id="patch_47">
    <path clip-path="url(#pb9973839d9)" d="M 714.57272 630 
L 720.004539 630 
L 720.004539 630 
L 714.57272 630 
z
" style="fill:#0000ff;opacity:0.5;"/>
   </g>
   <g id="patch_48">
    <path clip-path="url(#pb9973839d9)" d="M 720.004539 630 
L 725.436359 630 
L 725.436359 630 
L 720.004539 630 
z
" style="fill:#0000ff;opacity:0.5;"/>
   </g>
   <g id="patch_49">
    <path clip-path="url(#pb9973839d9)" d="M 725.436359 630 
L 730.868178 630 
L 730.868178 630 
L 725.436359 630 
z
" style="fill:#0000ff;opacity:0.5;"/>
   </g>
   <g id="patch_50">
    <path clip-path="url(#pb9973839d9)" d="M 730.868178 630 
L 736.299997 630 
L 736.299997 630 
L 730.868178 630 
z
" style="fill:#0000ff;opacity:0.5;"/>
   </g>
   <g id="patch_51">
    <path clip-path="url(#pb9973839d9)" d="M 736.299997 630 
L 741.731817 630 
L 741.731817 630 
L 736.299997 630 
z
" style="fill:#0000ff;opacity:0.5;"/>
   </g>
   <g id="patch_52">
    <path clip-path="url(#pb9973839d9)" d="M 741.731817 630 
L 747.163636 630 
L 747.163636 590.175824 
L 741.731817 590.175824 
z
" style="fill:#0000ff;opacity:0.5;"/>
   </g>
   <g id="patch_53">
    <path clip-path="url(#pb9973839d9)" d="M 138.436364 630 
L 144.470232 630 
L 144.470232 594.14941 
L 138.436364 594.14941 
z
" style="fill:#008000;opacity:0.5;"/>
   </g>
   <g id="patch_54">
    <path clip-path="url(#pb9973839d9)" d="M 144.470232 630 
L 150.5041 630 
L 150.5041 630 
L 144.470232 630 
z
" style="fill:#008000;opacity:0.5;"/>
   </g>
   <g id="patch_55">
    <path clip-path="url(#pb9973839d9)" d="M 150.5041 630 
L 156.537968 630 
L 156.537968 558.298821 
L 150.5041 558.298821 
z
" style="fill:#008000;opacity:0.5;"/>
   </g>
   <g id="patch_56">
    <path clip-path="url(#pb9973839d9)" d="M 156.537968 630 
L 162.571836 630 
L 162.571836 630 
L 156.537968 630 
z
" style="fill:#008000;opacity:0.5;"/>
   </g>
   <g id="patch_57">
    <path clip-path="url(#pb9973839d9)" d="M 162.571836 630 
L 168.605705 630 
L 168.605705 594.14941 
L 162.571836 594.14941 
z
" style="fill:#008000;opacity:0.5;"/>
   </g>
   <g id="patch_58">
    <path clip-path="url(#pb9973839d9)" d="M 168.605705 630 
L 174.639573 630 
L 174.639573 486.597641 
L 168.605705 486.597641 
z
" style="fill:#008000;opacity:0.5;"/>
   </g>
   <g id="patch_59">
    <path clip-path="url(#pb9973839d9)" d="M 174.639573 630 
L 180.673441 630 
L 180.673441 630 
L 174.639573 630 
z
" style="fill:#008000;opacity:0.5;"/>
   </g>
   <g id="patch_60">
    <path clip-path="url(#pb9973839d9)" d="M 180.673441 630 
L 186.707309 630 
L 186.707309 450.747051 
L 180.673441 450.747051 
z
" style="fill:#008000;opacity:0.5;"/>
   </g>
   <g id="patch_61">
    <path clip-path="url(#pb9973839d9)" d="M 186.707309 630 
L 192.741177 630 
L 192.741177 450.747051 
L 186.707309 450.747051 
z
" style="fill:#008000;opacity:0.5;"/>
   </g>
   <g id="patch_62">
    <path clip-path="url(#pb9973839d9)" d="M 192.741177 630 
L 198.775046 630 
L 198.775046 558.298821 
L 192.741177 558.298821 
z
" style="fill:#008000;opacity:0.5;"/>
   </g>
   <g id="patch_63">
    <path clip-path="url(#pb9973839d9)" d="M 198.775046 630 
L 204.808914 630 
L 204.808914 486.597641 
L 198.775046 486.597641 
z
" style="fill:#008000;opacity:0.5;"/>
   </g>
   <g id="patch_64">
    <path clip-path="url(#pb9973839d9)" d="M 204.808914 630 
L 210.842782 630 
L 210.842782 486.597641 
L 204.808914 486.597641 
z
" style="fill:#008000;opacity:0.5;"/>
   </g>
   <g id="patch_65">
    <path clip-path="url(#pb9973839d9)" d="M 210.842782 630 
L 216.87665 630 
L 216.87665 522.448231 
L 210.842782 522.448231 
z
" style="fill:#008000;opacity:0.5;"/>
   </g>
   <g id="patch_66">
    <path clip-path="url(#pb9973839d9)" d="M 216.87665 630 
L 222.910518 630 
L 222.910518 558.298821 
L 216.87665 558.298821 
z
" style="fill:#008000;opacity:0.5;"/>
   </g>
   <g id="patch_67">
    <path clip-path="url(#pb9973839d9)" d="M 222.910518 630 
L 228.944387 630 
L 228.944387 450.747051 
L 222.910518 450.747051 
z
" style="fill:#008000;opacity:0.5;"/>
   </g>
   <g id="patch_68">
    <path clip-path="url(#pb9973839d9)" d="M 228.944387 630 
L 234.978255 630 
L 234.978255 379.045872 
L 228.944387 379.045872 
z
" style="fill:#008000;opacity:0.5;"/>
   </g>
   <g id="patch_69">
    <path clip-path="url(#pb9973839d9)" d="M 234.978255 630 
L 241.012123 630 
L 241.012123 486.597641 
L 234.978255 486.597641 
z
" style="fill:#008000;opacity:0.5;"/>
   </g>
   <g id="patch_70">
    <path clip-path="url(#pb9973839d9)" d="M 241.012123 630 
L 247.045991 630 
L 247.045991 594.14941 
L 241.012123 594.14941 
z
" style="fill:#008000;opacity:0.5;"/>
   </g>
   <g id="patch_71">
    <path clip-path="url(#pb9973839d9)" d="M 247.045991 630 
L 253.07986 630 
L 253.07986 379.045872 
L 247.045991 379.045872 
z
" style="fill:#008000;opacity:0.5;"/>
   </g>
   <g id="patch_72">
    <path clip-path="url(#pb9973839d9)" d="M 253.07986 630 
L 259.113728 630 
L 259.113728 343.195282 
L 253.07986 343.195282 
z
" style="fill:#008000;opacity:0.5;"/>
   </g>
   <g id="patch_73">
    <path clip-path="url(#pb9973839d9)" d="M 259.113728 630 
L 265.147596 630 
L 265.147596 235.643513 
L 259.113728 235.643513 
z
" style="fill:#008000;opacity:0.5;"/>
   </g>
   <g id="patch_74">
    <path clip-path="url(#pb9973839d9)" d="M 265.147596 630 
L 271.181464 630 
L 271.181464 450.747051 
L 265.147596 450.747051 
z
" style="fill:#008000;opacity:0.5;"/>
   </g>
   <g id="patch_75">
    <path clip-path="url(#pb9973839d9)" d="M 271.181464 630 
L 277.215332 630 
L 277.215332 199.792924 
L 271.181464 199.792924 
z
" style="fill:#008000;opacity:0.5;"/>
   </g>
   <g id="patch_76">
    <path clip-path="url(#pb9973839d9)" d="M 277.215332 630 
L 283.249201 630 
L 283.249201 522.448231 
L 277.215332 522.448231 
z
" style="fill:#008000;opacity:0.5;"/>
   </g>
   <g id="patch_77">
    <path clip-path="url(#pb9973839d9)" d="M 283.249201 630 
L 289.283069 630 
L 289.283069 594.14941 
L 283.249201 594.14941 
z
" style="fill:#008000;opacity:0.5;"/>
   </g>
   <g id="patch_78">
    <path clip-path="url(#pb9973839d9)" d="M 289.283069 630 
L 295.316937 630 
L 295.316937 594.14941 
L 289.283069 594.14941 
z
" style="fill:#008000;opacity:0.5;"/>
   </g>
   <g id="patch_79">
    <path clip-path="url(#pb9973839d9)" d="M 295.316937 630 
L 301.350805 630 
L 301.350805 486.597641 
L 295.316937 486.597641 
z
" style="fill:#008000;opacity:0.5;"/>
   </g>
   <g id="patch_80">
    <path clip-path="url(#pb9973839d9)" d="M 301.350805 630 
L 307.384673 630 
L 307.384673 414.896462 
L 301.350805 414.896462 
z
" style="fill:#008000;opacity:0.5;"/>
   </g>
   <g id="patch_81">
    <path clip-path="url(#pb9973839d9)" d="M 307.384673 630 
L 313.418542 630 
L 313.418542 450.747051 
L 307.384673 450.747051 
z
" style="fill:#008000;opacity:0.5;"/>
   </g>
   <g id="patch_82">
    <path clip-path="url(#pb9973839d9)" d="M 313.418542 630 
L 319.45241 630 
L 319.45241 558.298821 
L 313.418542 558.298821 
z
" style="fill:#008000;opacity:0.5;"/>
   </g>
   <g id="patch_83">
    <path clip-path="url(#pb9973839d9)" d="M 319.45241 630 
L 325.486278 630 
L 325.486278 450.747051 
L 319.45241 450.747051 
z
" style="fill:#008000;opacity:0.5;"/>
   </g>
   <g id="patch_84">
    <path clip-path="url(#pb9973839d9)" d="M 325.486278 630 
L 331.520146 630 
L 331.520146 594.14941 
L 325.486278 594.14941 
z
" style="fill:#008000;opacity:0.5;"/>
   </g>
   <g id="patch_85">
    <path clip-path="url(#pb9973839d9)" d="M 331.520146 630 
L 337.554014 630 
L 337.554014 594.14941 
L 331.520146 594.14941 
z
" style="fill:#008000;opacity:0.5;"/>
   </g>
   <g id="patch_86">
    <path clip-path="url(#pb9973839d9)" d="M 337.554014 630 
L 343.587883 630 
L 343.587883 630 
L 337.554014 630 
z
" style="fill:#008000;opacity:0.5;"/>
   </g>
   <g id="patch_87">
    <path clip-path="url(#pb9973839d9)" d="M 343.587883 630 
L 349.621751 630 
L 349.621751 594.14941 
L 343.587883 594.14941 
z
" style="fill:#008000;opacity:0.5;"/>
   </g>
   <g id="patch_88">
    <path clip-path="url(#pb9973839d9)" d="M 349.621751 630 
L 355.655619 630 
L 355.655619 630 
L 349.621751 630 
z
" style="fill:#008000;opacity:0.5;"/>
   </g>
   <g id="patch_89">
    <path clip-path="url(#pb9973839d9)" d="M 355.655619 630 
L 361.689487 630 
L 361.689487 522.448231 
L 355.655619 522.448231 
z
" style="fill:#008000;opacity:0.5;"/>
   </g>
   <g id="patch_90">
    <path clip-path="url(#pb9973839d9)" d="M 361.689487 630 
L 367.723355 630 
L 367.723355 630 
L 361.689487 630 
z
" style="fill:#008000;opacity:0.5;"/>
   </g>
   <g id="patch_91">
    <path clip-path="url(#pb9973839d9)" d="M 367.723355 630 
L 373.757224 630 
L 373.757224 630 
L 367.723355 630 
z
" style="fill:#008000;opacity:0.5;"/>
   </g>
   <g id="patch_92">
    <path clip-path="url(#pb9973839d9)" d="M 373.757224 630 
L 379.791092 630 
L 379.791092 594.14941 
L 373.757224 594.14941 
z
" style="fill:#008000;opacity:0.5;"/>
   </g>
   <g id="patch_93">
    <path clip-path="url(#pb9973839d9)" d="M 379.791092 630 
L 385.82496 630 
L 385.82496 630 
L 379.791092 630 
z
" style="fill:#008000;opacity:0.5;"/>
   </g>
   <g id="patch_94">
    <path clip-path="url(#pb9973839d9)" d="M 385.82496 630 
L 391.858828 630 
L 391.858828 630 
L 385.82496 630 
z
" style="fill:#008000;opacity:0.5;"/>
   </g>
   <g id="patch_95">
    <path clip-path="url(#pb9973839d9)" d="M 391.858828 630 
L 397.892696 630 
L 397.892696 630 
L 391.858828 630 
z
" style="fill:#008000;opacity:0.5;"/>
   </g>
   <g id="patch_96">
    <path clip-path="url(#pb9973839d9)" d="M 397.892696 630 
L 403.926565 630 
L 403.926565 630 
L 397.892696 630 
z
" style="fill:#008000;opacity:0.5;"/>
   </g>
   <g id="patch_97">
    <path clip-path="url(#pb9973839d9)" d="M 403.926565 630 
L 409.960433 630 
L 409.960433 630 
L 403.926565 630 
z
" style="fill:#008000;opacity:0.5;"/>
   </g>
   <g id="patch_98">
    <path clip-path="url(#pb9973839d9)" d="M 409.960433 630 
L 415.994301 630 
L 415.994301 630 
L 409.960433 630 
z
" style="fill:#008000;opacity:0.5;"/>
   </g>
   <g id="patch_99">
    <path clip-path="url(#pb9973839d9)" d="M 415.994301 630 
L 422.028169 630 
L 422.028169 630 
L 415.994301 630 
z
" style="fill:#008000;opacity:0.5;"/>
   </g>
   <g id="patch_100">
    <path clip-path="url(#pb9973839d9)" d="M 422.028169 630 
L 428.062037 630 
L 428.062037 630 
L 422.028169 630 
z
" style="fill:#008000;opacity:0.5;"/>
   </g>
   <g id="patch_101">
    <path clip-path="url(#pb9973839d9)" d="M 428.062037 630 
L 434.095906 630 
L 434.095906 630 
L 428.062037 630 
z
" style="fill:#008000;opacity:0.5;"/>
   </g>
   <g id="patch_102">
    <path clip-path="url(#pb9973839d9)" d="M 434.095906 630 
L 440.129774 630 
L 440.129774 594.14941 
L 434.095906 594.14941 
z
" style="fill:#008000;opacity:0.5;"/>
   </g>
   <g id="matplotlib.axis_1">
    <g id="xtick_1">
     <g id="line2d_1">
      <defs>
       <path d="M 0 0 
L 0 3.5 
" id="m7e7f46a436" style="stroke:#000000;stroke-width:0.8;"/>
      </defs>
      <g>
       <use style="stroke:#000000;stroke-width:0.8;" x="158.645735" xlink:href="#m7e7f46a436" y="630"/>
      </g>
     </g>
     <g id="text_1">
      <!-- −0.10 -->
      <defs>
       <path d="M 10.59375 35.5 
L 73.1875 35.5 
L 73.1875 27.203125 
L 10.59375 27.203125 
z
" id="DejaVuSans-8722"/>
       <path d="M 31.78125 66.40625 
Q 24.171875 66.40625 20.328125 58.90625 
Q 16.5 51.421875 16.5 36.375 
Q 16.5 21.390625 20.328125 13.890625 
Q 24.171875 6.390625 31.78125 6.390625 
Q 39.453125 6.390625 43.28125 13.890625 
Q 47.125 21.390625 47.125 36.375 
Q 47.125 51.421875 43.28125 58.90625 
Q 39.453125 66.40625 31.78125 66.40625 
z
M 31.78125 74.21875 
Q 44.046875 74.21875 50.515625 64.515625 
Q 56.984375 54.828125 56.984375 36.375 
Q 56.984375 17.96875 50.515625 8.265625 
Q 44.046875 -1.421875 31.78125 -1.421875 
Q 19.53125 -1.421875 13.0625 8.265625 
Q 6.59375 17.96875 6.59375 36.375 
Q 6.59375 54.828125 13.0625 64.515625 
Q 19.53125 74.21875 31.78125 74.21875 
z
" id="DejaVuSans-48"/>
       <path d="M 10.6875 12.40625 
L 21 12.40625 
L 21 0 
L 10.6875 0 
z
" id="DejaVuSans-46"/>
       <path d="M 12.40625 8.296875 
L 28.515625 8.296875 
L 28.515625 63.921875 
L 10.984375 60.40625 
L 10.984375 69.390625 
L 28.421875 72.90625 
L 38.28125 72.90625 
L 38.28125 8.296875 
L 54.390625 8.296875 
L 54.390625 0 
L 12.40625 0 
z
" id="DejaVuSans-49"/>
      </defs>
      <g transform="translate(143.323079 644.598438)scale(0.1 -0.1)">
       <use xlink:href="#DejaVuSans-8722"/>
       <use x="83.789062" xlink:href="#DejaVuSans-48"/>
       <use x="147.412109" xlink:href="#DejaVuSans-46"/>
       <use x="179.199219" xlink:href="#DejaVuSans-49"/>
       <use x="242.822266" xlink:href="#DejaVuSans-48"/>
      </g>
     </g>
    </g>
    <g id="xtick_2">
     <g id="line2d_2">
      <g>
       <use style="stroke:#000000;stroke-width:0.8;" x="245.488671" xlink:href="#m7e7f46a436" y="630"/>
      </g>
     </g>
     <g id="text_2">
      <!-- −0.08 -->
      <defs>
       <path d="M 31.78125 34.625 
Q 24.75 34.625 20.71875 30.859375 
Q 16.703125 27.09375 16.703125 20.515625 
Q 16.703125 13.921875 20.71875 10.15625 
Q 24.75 6.390625 31.78125 6.390625 
Q 38.8125 6.390625 42.859375 10.171875 
Q 46.921875 13.96875 46.921875 20.515625 
Q 46.921875 27.09375 42.890625 30.859375 
Q 38.875 34.625 31.78125 34.625 
z
M 21.921875 38.8125 
Q 15.578125 40.375 12.03125 44.71875 
Q 8.5 49.078125 8.5 55.328125 
Q 8.5 64.0625 14.71875 69.140625 
Q 20.953125 74.21875 31.78125 74.21875 
Q 42.671875 74.21875 48.875 69.140625 
Q 55.078125 64.0625 55.078125 55.328125 
Q 55.078125 49.078125 51.53125 44.71875 
Q 48 40.375 41.703125 38.8125 
Q 48.828125 37.15625 52.796875 32.3125 
Q 56.78125 27.484375 56.78125 20.515625 
Q 56.78125 9.90625 50.3125 4.234375 
Q 43.84375 -1.421875 31.78125 -1.421875 
Q 19.734375 -1.421875 13.25 4.234375 
Q 6.78125 9.90625 6.78125 20.515625 
Q 6.78125 27.484375 10.78125 32.3125 
Q 14.796875 37.15625 21.921875 38.8125 
z
M 18.3125 54.390625 
Q 18.3125 48.734375 21.84375 45.5625 
Q 25.390625 42.390625 31.78125 42.390625 
Q 38.140625 42.390625 41.71875 45.5625 
Q 45.3125 48.734375 45.3125 54.390625 
Q 45.3125 60.0625 41.71875 63.234375 
Q 38.140625 66.40625 31.78125 66.40625 
Q 25.390625 66.40625 21.84375 63.234375 
Q 18.3125 60.0625 18.3125 54.390625 
z
" id="DejaVuSans-56"/>
      </defs>
      <g transform="translate(230.166015 644.598438)scale(0.1 -0.1)">
       <use xlink:href="#DejaVuSans-8722"/>
       <use x="83.789062" xlink:href="#DejaVuSans-48"/>
       <use x="147.412109" xlink:href="#DejaVuSans-46"/>
       <use x="179.199219" xlink:href="#DejaVuSans-48"/>
       <use x="242.822266" xlink:href="#DejaVuSans-56"/>
      </g>
     </g>
    </g>
    <g id="xtick_3">
     <g id="line2d_3">
      <g>
       <use style="stroke:#000000;stroke-width:0.8;" x="332.331608" xlink:href="#m7e7f46a436" y="630"/>
      </g>
     </g>
     <g id="text_3">
      <!-- −0.06 -->
      <defs>
       <path d="M 33.015625 40.375 
Q 26.375 40.375 22.484375 35.828125 
Q 18.609375 31.296875 18.609375 23.390625 
Q 18.609375 15.53125 22.484375 10.953125 
Q 26.375 6.390625 33.015625 6.390625 
Q 39.65625 6.390625 43.53125 10.953125 
Q 47.40625 15.53125 47.40625 23.390625 
Q 47.40625 31.296875 43.53125 35.828125 
Q 39.65625 40.375 33.015625 40.375 
z
M 52.59375 71.296875 
L 52.59375 62.3125 
Q 48.875 64.0625 45.09375 64.984375 
Q 41.3125 65.921875 37.59375 65.921875 
Q 27.828125 65.921875 22.671875 59.328125 
Q 17.53125 52.734375 16.796875 39.40625 
Q 19.671875 43.65625 24.015625 45.921875 
Q 28.375 48.1875 33.59375 48.1875 
Q 44.578125 48.1875 50.953125 41.515625 
Q 57.328125 34.859375 57.328125 23.390625 
Q 57.328125 12.15625 50.6875 5.359375 
Q 44.046875 -1.421875 33.015625 -1.421875 
Q 20.359375 -1.421875 13.671875 8.265625 
Q 6.984375 17.96875 6.984375 36.375 
Q 6.984375 53.65625 15.1875 63.9375 
Q 23.390625 74.21875 37.203125 74.21875 
Q 40.921875 74.21875 44.703125 73.484375 
Q 48.484375 72.75 52.59375 71.296875 
z
" id="DejaVuSans-54"/>
      </defs>
      <g transform="translate(317.008951 644.598438)scale(0.1 -0.1)">
       <use xlink:href="#DejaVuSans-8722"/>
       <use x="83.789062" xlink:href="#DejaVuSans-48"/>
       <use x="147.412109" xlink:href="#DejaVuSans-46"/>
       <use x="179.199219" xlink:href="#DejaVuSans-48"/>
       <use x="242.822266" xlink:href="#DejaVuSans-54"/>
      </g>
     </g>
    </g>
    <g id="xtick_4">
     <g id="line2d_4">
      <g>
       <use style="stroke:#000000;stroke-width:0.8;" x="419.174544" xlink:href="#m7e7f46a436" y="630"/>
      </g>
     </g>
     <g id="text_4">
      <!-- −0.04 -->
      <defs>
       <path d="M 37.796875 64.3125 
L 12.890625 25.390625 
L 37.796875 25.390625 
z
M 35.203125 72.90625 
L 47.609375 72.90625 
L 47.609375 25.390625 
L 58.015625 25.390625 
L 58.015625 17.1875 
L 47.609375 17.1875 
L 47.609375 0 
L 37.796875 0 
L 37.796875 17.1875 
L 4.890625 17.1875 
L 4.890625 26.703125 
z
" id="DejaVuSans-52"/>
      </defs>
      <g transform="translate(403.851888 644.598438)scale(0.1 -0.1)">
       <use xlink:href="#DejaVuSans-8722"/>
       <use x="83.789062" xlink:href="#DejaVuSans-48"/>
       <use x="147.412109" xlink:href="#DejaVuSans-46"/>
       <use x="179.199219" xlink:href="#DejaVuSans-48"/>
       <use x="242.822266" xlink:href="#DejaVuSans-52"/>
      </g>
     </g>
    </g>
    <g id="xtick_5">
     <g id="line2d_5">
      <g>
       <use style="stroke:#000000;stroke-width:0.8;" x="506.01748" xlink:href="#m7e7f46a436" y="630"/>
      </g>
     </g>
     <g id="text_5">
      <!-- −0.02 -->
      <defs>
       <path d="M 19.1875 8.296875 
L 53.609375 8.296875 
L 53.609375 0 
L 7.328125 0 
L 7.328125 8.296875 
Q 12.9375 14.109375 22.625 23.890625 
Q 32.328125 33.6875 34.8125 36.53125 
Q 39.546875 41.84375 41.421875 45.53125 
Q 43.3125 49.21875 43.3125 52.78125 
Q 43.3125 58.59375 39.234375 62.25 
Q 35.15625 65.921875 28.609375 65.921875 
Q 23.96875 65.921875 18.8125 64.3125 
Q 13.671875 62.703125 7.8125 59.421875 
L 7.8125 69.390625 
Q 13.765625 71.78125 18.9375 73 
Q 24.125 74.21875 28.421875 74.21875 
Q 39.75 74.21875 46.484375 68.546875 
Q 53.21875 62.890625 53.21875 53.421875 
Q 53.21875 48.921875 51.53125 44.890625 
Q 49.859375 40.875 45.40625 35.40625 
Q 44.1875 33.984375 37.640625 27.21875 
Q 31.109375 20.453125 19.1875 8.296875 
z
" id="DejaVuSans-50"/>
      </defs>
      <g transform="translate(490.694824 644.598438)scale(0.1 -0.1)">
       <use xlink:href="#DejaVuSans-8722"/>
       <use x="83.789062" xlink:href="#DejaVuSans-48"/>
       <use x="147.412109" xlink:href="#DejaVuSans-46"/>
       <use x="179.199219" xlink:href="#DejaVuSans-48"/>
       <use x="242.822266" xlink:href="#DejaVuSans-50"/>
      </g>
     </g>
    </g>
    <g id="xtick_6">
     <g id="line2d_6">
      <g>
       <use style="stroke:#000000;stroke-width:0.8;" x="592.860416" xlink:href="#m7e7f46a436" y="630"/>
      </g>
     </g>
     <g id="text_6">
      <!-- 0.00 -->
      <g transform="translate(581.727604 644.598438)scale(0.1 -0.1)">
       <use xlink:href="#DejaVuSans-48"/>
       <use x="63.623047" xlink:href="#DejaVuSans-46"/>
       <use x="95.410156" xlink:href="#DejaVuSans-48"/>
       <use x="159.033203" xlink:href="#DejaVuSans-48"/>
      </g>
     </g>
    </g>
    <g id="xtick_7">
     <g id="line2d_7">
      <g>
       <use style="stroke:#000000;stroke-width:0.8;" x="679.703353" xlink:href="#m7e7f46a436" y="630"/>
      </g>
     </g>
     <g id="text_7">
      <!-- 0.02 -->
      <g transform="translate(668.57054 644.598438)scale(0.1 -0.1)">
       <use xlink:href="#DejaVuSans-48"/>
       <use x="63.623047" xlink:href="#DejaVuSans-46"/>
       <use x="95.410156" xlink:href="#DejaVuSans-48"/>
       <use x="159.033203" xlink:href="#DejaVuSans-50"/>
      </g>
     </g>
    </g>
    <g id="xtick_8">
     <g id="line2d_8">
      <g>
       <use style="stroke:#000000;stroke-width:0.8;" x="766.546289" xlink:href="#m7e7f46a436" y="630"/>
      </g>
     </g>
     <g id="text_8">
      <!-- 0.04 -->
      <g transform="translate(755.413476 644.598438)scale(0.1 -0.1)">
       <use xlink:href="#DejaVuSans-48"/>
       <use x="63.623047" xlink:href="#DejaVuSans-46"/>
       <use x="95.410156" xlink:href="#DejaVuSans-48"/>
       <use x="159.033203" xlink:href="#DejaVuSans-52"/>
      </g>
     </g>
    </g>
   </g>
   <g id="matplotlib.axis_2">
    <g id="ytick_1">
     <g id="line2d_9">
      <defs>
       <path d="M 0 0 
L -3.5 0 
" id="m413b5eba77" style="stroke:#000000;stroke-width:0.8;"/>
      </defs>
      <g>
       <use style="stroke:#000000;stroke-width:0.8;" x="108" xlink:href="#m413b5eba77" y="630"/>
      </g>
     </g>
     <g id="text_9">
      <!-- 0 -->
      <g transform="translate(94.6375 633.799219)scale(0.1 -0.1)">
       <use xlink:href="#DejaVuSans-48"/>
      </g>
     </g>
    </g>
    <g id="ytick_2">
     <g id="line2d_10">
      <g>
       <use style="stroke:#000000;stroke-width:0.8;" x="108" xlink:href="#m413b5eba77" y="566.232764"/>
      </g>
     </g>
     <g id="text_10">
      <!-- 10 -->
      <g transform="translate(88.275 570.031983)scale(0.1 -0.1)">
       <use xlink:href="#DejaVuSans-49"/>
       <use x="63.623047" xlink:href="#DejaVuSans-48"/>
      </g>
     </g>
    </g>
    <g id="ytick_3">
     <g id="line2d_11">
      <g>
       <use style="stroke:#000000;stroke-width:0.8;" x="108" xlink:href="#m413b5eba77" y="502.465529"/>
      </g>
     </g>
     <g id="text_11">
      <!-- 20 -->
      <g transform="translate(88.275 506.264748)scale(0.1 -0.1)">
       <use xlink:href="#DejaVuSans-50"/>
       <use x="63.623047" xlink:href="#DejaVuSans-48"/>
      </g>
     </g>
    </g>
    <g id="ytick_4">
     <g id="line2d_12">
      <g>
       <use style="stroke:#000000;stroke-width:0.8;" x="108" xlink:href="#m413b5eba77" y="438.698293"/>
      </g>
     </g>
     <g id="text_12">
      <!-- 30 -->
      <defs>
       <path d="M 40.578125 39.3125 
Q 47.65625 37.796875 51.625 33 
Q 55.609375 28.21875 55.609375 21.1875 
Q 55.609375 10.40625 48.1875 4.484375 
Q 40.765625 -1.421875 27.09375 -1.421875 
Q 22.515625 -1.421875 17.65625 -0.515625 
Q 12.796875 0.390625 7.625 2.203125 
L 7.625 11.71875 
Q 11.71875 9.328125 16.59375 8.109375 
Q 21.484375 6.890625 26.8125 6.890625 
Q 36.078125 6.890625 40.9375 10.546875 
Q 45.796875 14.203125 45.796875 21.1875 
Q 45.796875 27.640625 41.28125 31.265625 
Q 36.765625 34.90625 28.71875 34.90625 
L 20.21875 34.90625 
L 20.21875 43.015625 
L 29.109375 43.015625 
Q 36.375 43.015625 40.234375 45.921875 
Q 44.09375 48.828125 44.09375 54.296875 
Q 44.09375 59.90625 40.109375 62.90625 
Q 36.140625 65.921875 28.71875 65.921875 
Q 24.65625 65.921875 20.015625 65.03125 
Q 15.375 64.15625 9.8125 62.3125 
L 9.8125 71.09375 
Q 15.4375 72.65625 20.34375 73.4375 
Q 25.25 74.21875 29.59375 74.21875 
Q 40.828125 74.21875 47.359375 69.109375 
Q 53.90625 64.015625 53.90625 55.328125 
Q 53.90625 49.265625 50.4375 45.09375 
Q 46.96875 40.921875 40.578125 39.3125 
z
" id="DejaVuSans-51"/>
      </defs>
      <g transform="translate(88.275 442.497512)scale(0.1 -0.1)">
       <use xlink:href="#DejaVuSans-51"/>
       <use x="63.623047" xlink:href="#DejaVuSans-48"/>
      </g>
     </g>
    </g>
    <g id="ytick_5">
     <g id="line2d_13">
      <g>
       <use style="stroke:#000000;stroke-width:0.8;" x="108" xlink:href="#m413b5eba77" y="374.931058"/>
      </g>
     </g>
     <g id="text_13">
      <!-- 40 -->
      <g transform="translate(88.275 378.730276)scale(0.1 -0.1)">
       <use xlink:href="#DejaVuSans-52"/>
       <use x="63.623047" xlink:href="#DejaVuSans-48"/>
      </g>
     </g>
    </g>
    <g id="ytick_6">
     <g id="line2d_14">
      <g>
       <use style="stroke:#000000;stroke-width:0.8;" x="108" xlink:href="#m413b5eba77" y="311.163822"/>
      </g>
     </g>
     <g id="text_14">
      <!-- 50 -->
      <defs>
       <path d="M 10.796875 72.90625 
L 49.515625 72.90625 
L 49.515625 64.59375 
L 19.828125 64.59375 
L 19.828125 46.734375 
Q 21.96875 47.46875 24.109375 47.828125 
Q 26.265625 48.1875 28.421875 48.1875 
Q 40.625 48.1875 47.75 41.5 
Q 54.890625 34.8125 54.890625 23.390625 
Q 54.890625 11.625 47.5625 5.09375 
Q 40.234375 -1.421875 26.90625 -1.421875 
Q 22.3125 -1.421875 17.546875 -0.640625 
Q 12.796875 0.140625 7.71875 1.703125 
L 7.71875 11.625 
Q 12.109375 9.234375 16.796875 8.0625 
Q 21.484375 6.890625 26.703125 6.890625 
Q 35.15625 6.890625 40.078125 11.328125 
Q 45.015625 15.765625 45.015625 23.390625 
Q 45.015625 31 40.078125 35.4375 
Q 35.15625 39.890625 26.703125 39.890625 
Q 22.75 39.890625 18.8125 39.015625 
Q 14.890625 38.140625 10.796875 36.28125 
z
" id="DejaVuSans-53"/>
      </defs>
      <g transform="translate(88.275 314.963041)scale(0.1 -0.1)">
       <use xlink:href="#DejaVuSans-53"/>
       <use x="63.623047" xlink:href="#DejaVuSans-48"/>
      </g>
     </g>
    </g>
    <g id="ytick_7">
     <g id="line2d_15">
      <g>
       <use style="stroke:#000000;stroke-width:0.8;" x="108" xlink:href="#m413b5eba77" y="247.396587"/>
      </g>
     </g>
     <g id="text_15">
      <!-- 60 -->
      <g transform="translate(88.275 251.195805)scale(0.1 -0.1)">
       <use xlink:href="#DejaVuSans-54"/>
       <use x="63.623047" xlink:href="#DejaVuSans-48"/>
      </g>
     </g>
    </g>
    <g id="ytick_8">
     <g id="line2d_16">
      <g>
       <use style="stroke:#000000;stroke-width:0.8;" x="108" xlink:href="#m413b5eba77" y="183.629351"/>
      </g>
     </g>
     <g id="text_16">
      <!-- 70 -->
      <defs>
       <path d="M 8.203125 72.90625 
L 55.078125 72.90625 
L 55.078125 68.703125 
L 28.609375 0 
L 18.3125 0 
L 43.21875 64.59375 
L 8.203125 64.59375 
z
" id="DejaVuSans-55"/>
      </defs>
      <g transform="translate(88.275 187.42857)scale(0.1 -0.1)">
       <use xlink:href="#DejaVuSans-55"/>
       <use x="63.623047" xlink:href="#DejaVuSans-48"/>
      </g>
     </g>
    </g>
    <g id="ytick_9">
     <g id="line2d_17">
      <g>
       <use style="stroke:#000000;stroke-width:0.8;" x="108" xlink:href="#m413b5eba77" y="119.862115"/>
      </g>
     </g>
     <g id="text_17">
      <!-- 80 -->
      <g transform="translate(88.275 123.661334)scale(0.1 -0.1)">
       <use xlink:href="#DejaVuSans-56"/>
       <use x="63.623047" xlink:href="#DejaVuSans-48"/>
      </g>
     </g>
    </g>
   </g>
   <g id="patch_103">
    <path d="M 108 630 
L 108 86.4 
" style="fill:none;stroke:#000000;stroke-linecap:square;stroke-linejoin:miter;stroke-width:0.8;"/>
   </g>
   <g id="patch_104">
    <path d="M 777.6 630 
L 777.6 86.4 
" style="fill:none;stroke:#000000;stroke-linecap:square;stroke-linejoin:miter;stroke-width:0.8;"/>
   </g>
   <g id="patch_105">
    <path d="M 108 630 
L 777.6 630 
" style="fill:none;stroke:#000000;stroke-linecap:square;stroke-linejoin:miter;stroke-width:0.8;"/>
   </g>
   <g id="patch_106">
    <path d="M 108 86.4 
L 777.6 86.4 
" style="fill:none;stroke:#000000;stroke-linecap:square;stroke-linejoin:miter;stroke-width:0.8;"/>
   </g>
   <g id="text_18">
    <!-- Nodes strength last layer -->
    <defs>
     <path d="M 9.8125 72.90625 
L 23.09375 72.90625 
L 55.421875 11.921875 
L 55.421875 72.90625 
L 64.984375 72.90625 
L 64.984375 0 
L 51.703125 0 
L 19.390625 60.984375 
L 19.390625 0 
L 9.8125 0 
z
" id="DejaVuSans-78"/>
     <path d="M 30.609375 48.390625 
Q 23.390625 48.390625 19.1875 42.75 
Q 14.984375 37.109375 14.984375 27.296875 
Q 14.984375 17.484375 19.15625 11.84375 
Q 23.34375 6.203125 30.609375 6.203125 
Q 37.796875 6.203125 41.984375 11.859375 
Q 46.1875 17.53125 46.1875 27.296875 
Q 46.1875 37.015625 41.984375 42.703125 
Q 37.796875 48.390625 30.609375 48.390625 
z
M 30.609375 56 
Q 42.328125 56 49.015625 48.375 
Q 55.71875 40.765625 55.71875 27.296875 
Q 55.71875 13.875 49.015625 6.21875 
Q 42.328125 -1.421875 30.609375 -1.421875 
Q 18.84375 -1.421875 12.171875 6.21875 
Q 5.515625 13.875 5.515625 27.296875 
Q 5.515625 40.765625 12.171875 48.375 
Q 18.84375 56 30.609375 56 
z
" id="DejaVuSans-111"/>
     <path d="M 45.40625 46.390625 
L 45.40625 75.984375 
L 54.390625 75.984375 
L 54.390625 0 
L 45.40625 0 
L 45.40625 8.203125 
Q 42.578125 3.328125 38.25 0.953125 
Q 33.9375 -1.421875 27.875 -1.421875 
Q 17.96875 -1.421875 11.734375 6.484375 
Q 5.515625 14.40625 5.515625 27.296875 
Q 5.515625 40.1875 11.734375 48.09375 
Q 17.96875 56 27.875 56 
Q 33.9375 56 38.25 53.625 
Q 42.578125 51.265625 45.40625 46.390625 
z
M 14.796875 27.296875 
Q 14.796875 17.390625 18.875 11.75 
Q 22.953125 6.109375 30.078125 6.109375 
Q 37.203125 6.109375 41.296875 11.75 
Q 45.40625 17.390625 45.40625 27.296875 
Q 45.40625 37.203125 41.296875 42.84375 
Q 37.203125 48.484375 30.078125 48.484375 
Q 22.953125 48.484375 18.875 42.84375 
Q 14.796875 37.203125 14.796875 27.296875 
z
" id="DejaVuSans-100"/>
     <path d="M 56.203125 29.59375 
L 56.203125 25.203125 
L 14.890625 25.203125 
Q 15.484375 15.921875 20.484375 11.0625 
Q 25.484375 6.203125 34.421875 6.203125 
Q 39.59375 6.203125 44.453125 7.46875 
Q 49.3125 8.734375 54.109375 11.28125 
L 54.109375 2.78125 
Q 49.265625 0.734375 44.1875 -0.34375 
Q 39.109375 -1.421875 33.890625 -1.421875 
Q 20.796875 -1.421875 13.15625 6.1875 
Q 5.515625 13.8125 5.515625 26.8125 
Q 5.515625 40.234375 12.765625 48.109375 
Q 20.015625 56 32.328125 56 
Q 43.359375 56 49.78125 48.890625 
Q 56.203125 41.796875 56.203125 29.59375 
z
M 47.21875 32.234375 
Q 47.125 39.59375 43.09375 43.984375 
Q 39.0625 48.390625 32.421875 48.390625 
Q 24.90625 48.390625 20.390625 44.140625 
Q 15.875 39.890625 15.1875 32.171875 
z
" id="DejaVuSans-101"/>
     <path d="M 44.28125 53.078125 
L 44.28125 44.578125 
Q 40.484375 46.53125 36.375 47.5 
Q 32.28125 48.484375 27.875 48.484375 
Q 21.1875 48.484375 17.84375 46.4375 
Q 14.5 44.390625 14.5 40.28125 
Q 14.5 37.15625 16.890625 35.375 
Q 19.28125 33.59375 26.515625 31.984375 
L 29.59375 31.296875 
Q 39.15625 29.25 43.1875 25.515625 
Q 47.21875 21.78125 47.21875 15.09375 
Q 47.21875 7.46875 41.1875 3.015625 
Q 35.15625 -1.421875 24.609375 -1.421875 
Q 20.21875 -1.421875 15.453125 -0.5625 
Q 10.6875 0.296875 5.421875 2 
L 5.421875 11.28125 
Q 10.40625 8.6875 15.234375 7.390625 
Q 20.0625 6.109375 24.8125 6.109375 
Q 31.15625 6.109375 34.5625 8.28125 
Q 37.984375 10.453125 37.984375 14.40625 
Q 37.984375 18.0625 35.515625 20.015625 
Q 33.0625 21.96875 24.703125 23.78125 
L 21.578125 24.515625 
Q 13.234375 26.265625 9.515625 29.90625 
Q 5.8125 33.546875 5.8125 39.890625 
Q 5.8125 47.609375 11.28125 51.796875 
Q 16.75 56 26.8125 56 
Q 31.78125 56 36.171875 55.265625 
Q 40.578125 54.546875 44.28125 53.078125 
z
" id="DejaVuSans-115"/>
     <path id="DejaVuSans-32"/>
     <path d="M 18.3125 70.21875 
L 18.3125 54.6875 
L 36.8125 54.6875 
L 36.8125 47.703125 
L 18.3125 47.703125 
L 18.3125 18.015625 
Q 18.3125 11.328125 20.140625 9.421875 
Q 21.96875 7.515625 27.59375 7.515625 
L 36.8125 7.515625 
L 36.8125 0 
L 27.59375 0 
Q 17.1875 0 13.234375 3.875 
Q 9.28125 7.765625 9.28125 18.015625 
L 9.28125 47.703125 
L 2.6875 47.703125 
L 2.6875 54.6875 
L 9.28125 54.6875 
L 9.28125 70.21875 
z
" id="DejaVuSans-116"/>
     <path d="M 41.109375 46.296875 
Q 39.59375 47.171875 37.8125 47.578125 
Q 36.03125 48 33.890625 48 
Q 26.265625 48 22.1875 43.046875 
Q 18.109375 38.09375 18.109375 28.8125 
L 18.109375 0 
L 9.078125 0 
L 9.078125 54.6875 
L 18.109375 54.6875 
L 18.109375 46.1875 
Q 20.953125 51.171875 25.484375 53.578125 
Q 30.03125 56 36.53125 56 
Q 37.453125 56 38.578125 55.875 
Q 39.703125 55.765625 41.0625 55.515625 
z
" id="DejaVuSans-114"/>
     <path d="M 54.890625 33.015625 
L 54.890625 0 
L 45.90625 0 
L 45.90625 32.71875 
Q 45.90625 40.484375 42.875 44.328125 
Q 39.84375 48.1875 33.796875 48.1875 
Q 26.515625 48.1875 22.3125 43.546875 
Q 18.109375 38.921875 18.109375 30.90625 
L 18.109375 0 
L 9.078125 0 
L 9.078125 54.6875 
L 18.109375 54.6875 
L 18.109375 46.1875 
Q 21.34375 51.125 25.703125 53.5625 
Q 30.078125 56 35.796875 56 
Q 45.21875 56 50.046875 50.171875 
Q 54.890625 44.34375 54.890625 33.015625 
z
" id="DejaVuSans-110"/>
     <path d="M 45.40625 27.984375 
Q 45.40625 37.75 41.375 43.109375 
Q 37.359375 48.484375 30.078125 48.484375 
Q 22.859375 48.484375 18.828125 43.109375 
Q 14.796875 37.75 14.796875 27.984375 
Q 14.796875 18.265625 18.828125 12.890625 
Q 22.859375 7.515625 30.078125 7.515625 
Q 37.359375 7.515625 41.375 12.890625 
Q 45.40625 18.265625 45.40625 27.984375 
z
M 54.390625 6.78125 
Q 54.390625 -7.171875 48.1875 -13.984375 
Q 42 -20.796875 29.203125 -20.796875 
Q 24.46875 -20.796875 20.265625 -20.09375 
Q 16.0625 -19.390625 12.109375 -17.921875 
L 12.109375 -9.1875 
Q 16.0625 -11.328125 19.921875 -12.34375 
Q 23.78125 -13.375 27.78125 -13.375 
Q 36.625 -13.375 41.015625 -8.765625 
Q 45.40625 -4.15625 45.40625 5.171875 
L 45.40625 9.625 
Q 42.625 4.78125 38.28125 2.390625 
Q 33.9375 0 27.875 0 
Q 17.828125 0 11.671875 7.65625 
Q 5.515625 15.328125 5.515625 27.984375 
Q 5.515625 40.671875 11.671875 48.328125 
Q 17.828125 56 27.875 56 
Q 33.9375 56 38.28125 53.609375 
Q 42.625 51.21875 45.40625 46.390625 
L 45.40625 54.6875 
L 54.390625 54.6875 
z
" id="DejaVuSans-103"/>
     <path d="M 54.890625 33.015625 
L 54.890625 0 
L 45.90625 0 
L 45.90625 32.71875 
Q 45.90625 40.484375 42.875 44.328125 
Q 39.84375 48.1875 33.796875 48.1875 
Q 26.515625 48.1875 22.3125 43.546875 
Q 18.109375 38.921875 18.109375 30.90625 
L 18.109375 0 
L 9.078125 0 
L 9.078125 75.984375 
L 18.109375 75.984375 
L 18.109375 46.1875 
Q 21.34375 51.125 25.703125 53.5625 
Q 30.078125 56 35.796875 56 
Q 45.21875 56 50.046875 50.171875 
Q 54.890625 44.34375 54.890625 33.015625 
z
" id="DejaVuSans-104"/>
     <path d="M 9.421875 75.984375 
L 18.40625 75.984375 
L 18.40625 0 
L 9.421875 0 
z
" id="DejaVuSans-108"/>
     <path d="M 34.28125 27.484375 
Q 23.390625 27.484375 19.1875 25 
Q 14.984375 22.515625 14.984375 16.5 
Q 14.984375 11.71875 18.140625 8.90625 
Q 21.296875 6.109375 26.703125 6.109375 
Q 34.1875 6.109375 38.703125 11.40625 
Q 43.21875 16.703125 43.21875 25.484375 
L 43.21875 27.484375 
z
M 52.203125 31.203125 
L 52.203125 0 
L 43.21875 0 
L 43.21875 8.296875 
Q 40.140625 3.328125 35.546875 0.953125 
Q 30.953125 -1.421875 24.3125 -1.421875 
Q 15.921875 -1.421875 10.953125 3.296875 
Q 6 8.015625 6 15.921875 
Q 6 25.140625 12.171875 29.828125 
Q 18.359375 34.515625 30.609375 34.515625 
L 43.21875 34.515625 
L 43.21875 35.40625 
Q 43.21875 41.609375 39.140625 45 
Q 35.0625 48.390625 27.6875 48.390625 
Q 23 48.390625 18.546875 47.265625 
Q 14.109375 46.140625 10.015625 43.890625 
L 10.015625 52.203125 
Q 14.9375 54.109375 19.578125 55.046875 
Q 24.21875 56 28.609375 56 
Q 40.484375 56 46.34375 49.84375 
Q 52.203125 43.703125 52.203125 31.203125 
z
" id="DejaVuSans-97"/>
     <path d="M 32.171875 -5.078125 
Q 28.375 -14.84375 24.75 -17.8125 
Q 21.140625 -20.796875 15.09375 -20.796875 
L 7.90625 -20.796875 
L 7.90625 -13.28125 
L 13.1875 -13.28125 
Q 16.890625 -13.28125 18.9375 -11.515625 
Q 21 -9.765625 23.484375 -3.21875 
L 25.09375 0.875 
L 2.984375 54.6875 
L 12.5 54.6875 
L 29.59375 11.921875 
L 46.6875 54.6875 
L 56.203125 54.6875 
z
" id="DejaVuSans-121"/>
    </defs>
    <g transform="translate(367.017188 80.4)scale(0.12 -0.12)">
     <use xlink:href="#DejaVuSans-78"/>
     <use x="74.804688" xlink:href="#DejaVuSans-111"/>
     <use x="135.986328" xlink:href="#DejaVuSans-100"/>
     <use x="199.462891" xlink:href="#DejaVuSans-101"/>
     <use x="260.986328" xlink:href="#DejaVuSans-115"/>
     <use x="313.085938" xlink:href="#DejaVuSans-32"/>
     <use x="344.873047" xlink:href="#DejaVuSans-115"/>
     <use x="396.972656" xlink:href="#DejaVuSans-116"/>
     <use x="436.181641" xlink:href="#DejaVuSans-114"/>
     <use x="477.263672" xlink:href="#DejaVuSans-101"/>
     <use x="538.787109" xlink:href="#DejaVuSans-110"/>
     <use x="602.166016" xlink:href="#DejaVuSans-103"/>
     <use x="665.642578" xlink:href="#DejaVuSans-116"/>
     <use x="704.851562" xlink:href="#DejaVuSans-104"/>
     <use x="768.230469" xlink:href="#DejaVuSans-32"/>
     <use x="800.017578" xlink:href="#DejaVuSans-108"/>
     <use x="827.800781" xlink:href="#DejaVuSans-97"/>
     <use x="889.080078" xlink:href="#DejaVuSans-115"/>
     <use x="941.179688" xlink:href="#DejaVuSans-116"/>
     <use x="980.388672" xlink:href="#DejaVuSans-32"/>
     <use x="1012.175781" xlink:href="#DejaVuSans-108"/>
     <use x="1039.958984" xlink:href="#DejaVuSans-97"/>
     <use x="1101.238281" xlink:href="#DejaVuSans-121"/>
     <use x="1160.417969" xlink:href="#DejaVuSans-101"/>
     <use x="1221.941406" xlink:href="#DejaVuSans-114"/>
    </g>
   </g>
   <g id="legend_1">
    <g id="patch_107">
     <path d="M 685.478125 123.75625 
L 770.6 123.75625 
Q 772.6 123.75625 772.6 121.75625 
L 772.6 93.4 
Q 772.6 91.4 770.6 91.4 
L 685.478125 91.4 
Q 683.478125 91.4 683.478125 93.4 
L 683.478125 121.75625 
Q 683.478125 123.75625 685.478125 123.75625 
z
" style="fill:#ffffff;opacity:0.8;stroke:#cccccc;stroke-linejoin:miter;"/>
    </g>
    <g id="patch_108">
     <path d="M 687.478125 102.998437 
L 707.478125 102.998437 
L 707.478125 95.998437 
L 687.478125 95.998437 
z
" style="fill:#0000ff;opacity:0.5;"/>
    </g>
    <g id="text_19">
     <!-- s first gen. -->
     <defs>
      <path d="M 37.109375 75.984375 
L 37.109375 68.5 
L 28.515625 68.5 
Q 23.6875 68.5 21.796875 66.546875 
Q 19.921875 64.59375 19.921875 59.515625 
L 19.921875 54.6875 
L 34.71875 54.6875 
L 34.71875 47.703125 
L 19.921875 47.703125 
L 19.921875 0 
L 10.890625 0 
L 10.890625 47.703125 
L 2.296875 47.703125 
L 2.296875 54.6875 
L 10.890625 54.6875 
L 10.890625 58.5 
Q 10.890625 67.625 15.140625 71.796875 
Q 19.390625 75.984375 28.609375 75.984375 
z
" id="DejaVuSans-102"/>
      <path d="M 9.421875 54.6875 
L 18.40625 54.6875 
L 18.40625 0 
L 9.421875 0 
z
M 9.421875 75.984375 
L 18.40625 75.984375 
L 18.40625 64.59375 
L 9.421875 64.59375 
z
" id="DejaVuSans-105"/>
     </defs>
     <g transform="translate(715.478125 102.998437)scale(0.1 -0.1)">
      <use xlink:href="#DejaVuSans-115"/>
      <use x="52.099609" xlink:href="#DejaVuSans-32"/>
      <use x="83.886719" xlink:href="#DejaVuSans-102"/>
      <use x="119.091797" xlink:href="#DejaVuSans-105"/>
      <use x="146.875" xlink:href="#DejaVuSans-114"/>
      <use x="187.988281" xlink:href="#DejaVuSans-115"/>
      <use x="240.087891" xlink:href="#DejaVuSans-116"/>
      <use x="279.296875" xlink:href="#DejaVuSans-32"/>
      <use x="311.083984" xlink:href="#DejaVuSans-103"/>
      <use x="374.560547" xlink:href="#DejaVuSans-101"/>
      <use x="436.083984" xlink:href="#DejaVuSans-110"/>
      <use x="499.462891" xlink:href="#DejaVuSans-46"/>
     </g>
    </g>
    <g id="patch_109">
     <path d="M 687.478125 117.676562 
L 707.478125 117.676562 
L 707.478125 110.676562 
L 687.478125 110.676562 
z
" style="fill:#008000;opacity:0.5;"/>
    </g>
    <g id="text_20">
     <!-- s first gen. -->
     <g transform="translate(715.478125 117.676562)scale(0.1 -0.1)">
      <use xlink:href="#DejaVuSans-115"/>
      <use x="52.099609" xlink:href="#DejaVuSans-32"/>
      <use x="83.886719" xlink:href="#DejaVuSans-102"/>
      <use x="119.091797" xlink:href="#DejaVuSans-105"/>
      <use x="146.875" xlink:href="#DejaVuSans-114"/>
      <use x="187.988281" xlink:href="#DejaVuSans-115"/>
      <use x="240.087891" xlink:href="#DejaVuSans-116"/>
      <use x="279.296875" xlink:href="#DejaVuSans-32"/>
      <use x="311.083984" xlink:href="#DejaVuSans-103"/>
      <use x="374.560547" xlink:href="#DejaVuSans-101"/>
      <use x="436.083984" xlink:href="#DejaVuSans-110"/>
      <use x="499.462891" xlink:href="#DejaVuSans-46"/>
     </g>
    </g>
   </g>
  </g>
 </g>
 <defs>
  <clipPath id="pb9973839d9">
   <rect height="543.6" width="669.6" x="108" y="86.4"/>
  </clipPath>
 </defs>
</svg>
