<?xml version="1.0" encoding="utf-8" standalone="no"?>
<!DOCTYPE svg PUBLIC "-//W3C//DTD SVG 1.1//EN"
  "http://www.w3.org/Graphics/SVG/1.1/DTD/svg11.dtd">
<!-- Created with matplotlib (https://matplotlib.org/) -->
<svg height="720pt" version="1.1" viewBox="0 0 864 720" width="864pt" xmlns="http://www.w3.org/2000/svg" xmlns:xlink="http://www.w3.org/1999/xlink">
 <defs>
  <style type="text/css">
*{stroke-linecap:butt;stroke-linejoin:round;white-space:pre;}
  </style>
 </defs>
 <g id="figure_1">
  <g id="patch_1">
   <path d="M 0 720 
L 864 720 
L 864 0 
L 0 0 
z
" style="fill:#ffffff;"/>
  </g>
  <g id="axes_1">
   <g id="patch_2">
    <path d="M 108 630 
L 777.6 630 
L 777.6 86.4 
L 108 86.4 
z
" style="fill:#ffffff;"/>
   </g>
   <g id="patch_3">
    <path clip-path="url(#p844640f076)" d="M 578.70769 630 
L 579.011934 630 
L 579.011934 600.219602 
L 578.70769 600.219602 
z
" style="fill:#ff0000;opacity:0.5;"/>
   </g>
   <g id="patch_4">
    <path clip-path="url(#p844640f076)" d="M 579.011934 630 
L 579.316178 630 
L 579.316178 615.109801 
L 579.011934 615.109801 
z
" style="fill:#ff0000;opacity:0.5;"/>
   </g>
   <g id="patch_5">
    <path clip-path="url(#p844640f076)" d="M 579.316178 630 
L 579.620422 630 
L 579.620422 630 
L 579.316178 630 
z
" style="fill:#ff0000;opacity:0.5;"/>
   </g>
   <g id="patch_6">
    <path clip-path="url(#p844640f076)" d="M 579.620422 630 
L 579.924666 630 
L 579.924666 615.109801 
L 579.620422 615.109801 
z
" style="fill:#ff0000;opacity:0.5;"/>
   </g>
   <g id="patch_7">
    <path clip-path="url(#p844640f076)" d="M 579.924666 630 
L 580.22891 630 
L 580.22891 630 
L 579.924666 630 
z
" style="fill:#ff0000;opacity:0.5;"/>
   </g>
   <g id="patch_8">
    <path clip-path="url(#p844640f076)" d="M 580.22891 630 
L 580.533154 630 
L 580.533154 615.109801 
L 580.22891 615.109801 
z
" style="fill:#ff0000;opacity:0.5;"/>
   </g>
   <g id="patch_9">
    <path clip-path="url(#p844640f076)" d="M 580.533154 630 
L 580.837398 630 
L 580.837398 630 
L 580.533154 630 
z
" style="fill:#ff0000;opacity:0.5;"/>
   </g>
   <g id="patch_10">
    <path clip-path="url(#p844640f076)" d="M 580.837398 630 
L 581.141642 630 
L 581.141642 630 
L 580.837398 630 
z
" style="fill:#ff0000;opacity:0.5;"/>
   </g>
   <g id="patch_11">
    <path clip-path="url(#p844640f076)" d="M 581.141642 630 
L 581.445885 630 
L 581.445885 615.109801 
L 581.141642 615.109801 
z
" style="fill:#ff0000;opacity:0.5;"/>
   </g>
   <g id="patch_12">
    <path clip-path="url(#p844640f076)" d="M 581.445885 630 
L 581.750129 630 
L 581.750129 600.219602 
L 581.445885 600.219602 
z
" style="fill:#ff0000;opacity:0.5;"/>
   </g>
   <g id="patch_13">
    <path clip-path="url(#p844640f076)" d="M 581.750129 630 
L 582.054373 630 
L 582.054373 630 
L 581.750129 630 
z
" style="fill:#ff0000;opacity:0.5;"/>
   </g>
   <g id="patch_14">
    <path clip-path="url(#p844640f076)" d="M 582.054373 630 
L 582.358617 630 
L 582.358617 585.329403 
L 582.054373 585.329403 
z
" style="fill:#ff0000;opacity:0.5;"/>
   </g>
   <g id="patch_15">
    <path clip-path="url(#p844640f076)" d="M 582.358617 630 
L 582.662861 630 
L 582.662861 570.439204 
L 582.358617 570.439204 
z
" style="fill:#ff0000;opacity:0.5;"/>
   </g>
   <g id="patch_16">
    <path clip-path="url(#p844640f076)" d="M 582.662861 630 
L 582.967105 630 
L 582.967105 600.219602 
L 582.662861 600.219602 
z
" style="fill:#ff0000;opacity:0.5;"/>
   </g>
   <g id="patch_17">
    <path clip-path="url(#p844640f076)" d="M 582.967105 630 
L 583.271349 630 
L 583.271349 525.768608 
L 582.967105 525.768608 
z
" style="fill:#ff0000;opacity:0.5;"/>
   </g>
   <g id="patch_18">
    <path clip-path="url(#p844640f076)" d="M 583.271349 630 
L 583.575593 630 
L 583.575593 615.109801 
L 583.271349 615.109801 
z
" style="fill:#ff0000;opacity:0.5;"/>
   </g>
   <g id="patch_19">
    <path clip-path="url(#p844640f076)" d="M 583.575593 630 
L 583.879837 630 
L 583.879837 555.549006 
L 583.575593 555.549006 
z
" style="fill:#ff0000;opacity:0.5;"/>
   </g>
   <g id="patch_20">
    <path clip-path="url(#p844640f076)" d="M 583.879837 630 
L 584.18408 630 
L 584.18408 555.549006 
L 583.879837 555.549006 
z
" style="fill:#ff0000;opacity:0.5;"/>
   </g>
   <g id="patch_21">
    <path clip-path="url(#p844640f076)" d="M 584.18408 630 
L 584.488324 630 
L 584.488324 570.439204 
L 584.18408 570.439204 
z
" style="fill:#ff0000;opacity:0.5;"/>
   </g>
   <g id="patch_22">
    <path clip-path="url(#p844640f076)" d="M 584.488324 630 
L 584.792568 630 
L 584.792568 600.219602 
L 584.488324 600.219602 
z
" style="fill:#ff0000;opacity:0.5;"/>
   </g>
   <g id="patch_23">
    <path clip-path="url(#p844640f076)" d="M 584.792568 630 
L 585.096812 630 
L 585.096812 600.219602 
L 584.792568 600.219602 
z
" style="fill:#ff0000;opacity:0.5;"/>
   </g>
   <g id="patch_24">
    <path clip-path="url(#p844640f076)" d="M 585.096812 630 
L 585.401056 630 
L 585.401056 570.439204 
L 585.096812 570.439204 
z
" style="fill:#ff0000;opacity:0.5;"/>
   </g>
   <g id="patch_25">
    <path clip-path="url(#p844640f076)" d="M 585.401056 630 
L 585.7053 630 
L 585.7053 570.439204 
L 585.401056 570.439204 
z
" style="fill:#ff0000;opacity:0.5;"/>
   </g>
   <g id="patch_26">
    <path clip-path="url(#p844640f076)" d="M 585.7053 630 
L 586.009544 630 
L 586.009544 540.658807 
L 585.7053 540.658807 
z
" style="fill:#ff0000;opacity:0.5;"/>
   </g>
   <g id="patch_27">
    <path clip-path="url(#p844640f076)" d="M 586.009544 630 
L 586.313788 630 
L 586.313788 585.329403 
L 586.009544 585.329403 
z
" style="fill:#ff0000;opacity:0.5;"/>
   </g>
   <g id="patch_28">
    <path clip-path="url(#p844640f076)" d="M 586.313788 630 
L 586.618032 630 
L 586.618032 570.439204 
L 586.313788 570.439204 
z
" style="fill:#ff0000;opacity:0.5;"/>
   </g>
   <g id="patch_29">
    <path clip-path="url(#p844640f076)" d="M 586.618032 630 
L 586.922276 630 
L 586.922276 451.317613 
L 586.618032 451.317613 
z
" style="fill:#ff0000;opacity:0.5;"/>
   </g>
   <g id="patch_30">
    <path clip-path="url(#p844640f076)" d="M 586.922276 630 
L 587.226519 630 
L 587.226519 540.658807 
L 586.922276 540.658807 
z
" style="fill:#ff0000;opacity:0.5;"/>
   </g>
   <g id="patch_31">
    <path clip-path="url(#p844640f076)" d="M 587.226519 630 
L 587.530763 630 
L 587.530763 525.768608 
L 587.226519 525.768608 
z
" style="fill:#ff0000;opacity:0.5;"/>
   </g>
   <g id="patch_32">
    <path clip-path="url(#p844640f076)" d="M 587.530763 630 
L 587.835007 630 
L 587.835007 570.439204 
L 587.530763 570.439204 
z
" style="fill:#ff0000;opacity:0.5;"/>
   </g>
   <g id="patch_33">
    <path clip-path="url(#p844640f076)" d="M 587.835007 630 
L 588.139251 630 
L 588.139251 540.658807 
L 587.835007 540.658807 
z
" style="fill:#ff0000;opacity:0.5;"/>
   </g>
   <g id="patch_34">
    <path clip-path="url(#p844640f076)" d="M 588.139251 630 
L 588.443495 630 
L 588.443495 570.439204 
L 588.139251 570.439204 
z
" style="fill:#ff0000;opacity:0.5;"/>
   </g>
   <g id="patch_35">
    <path clip-path="url(#p844640f076)" d="M 588.443495 630 
L 588.747739 630 
L 588.747739 570.439204 
L 588.443495 570.439204 
z
" style="fill:#ff0000;opacity:0.5;"/>
   </g>
   <g id="patch_36">
    <path clip-path="url(#p844640f076)" d="M 588.747739 630 
L 589.051983 630 
L 589.051983 600.219602 
L 588.747739 600.219602 
z
" style="fill:#ff0000;opacity:0.5;"/>
   </g>
   <g id="patch_37">
    <path clip-path="url(#p844640f076)" d="M 589.051983 630 
L 589.356227 630 
L 589.356227 600.219602 
L 589.051983 600.219602 
z
" style="fill:#ff0000;opacity:0.5;"/>
   </g>
   <g id="patch_38">
    <path clip-path="url(#p844640f076)" d="M 589.356227 630 
L 589.660471 630 
L 589.660471 585.329403 
L 589.356227 585.329403 
z
" style="fill:#ff0000;opacity:0.5;"/>
   </g>
   <g id="patch_39">
    <path clip-path="url(#p844640f076)" d="M 589.660471 630 
L 589.964714 630 
L 589.964714 585.329403 
L 589.660471 585.329403 
z
" style="fill:#ff0000;opacity:0.5;"/>
   </g>
   <g id="patch_40">
    <path clip-path="url(#p844640f076)" d="M 589.964714 630 
L 590.268958 630 
L 590.268958 615.109801 
L 589.964714 615.109801 
z
" style="fill:#ff0000;opacity:0.5;"/>
   </g>
   <g id="patch_41">
    <path clip-path="url(#p844640f076)" d="M 590.268958 630 
L 590.573202 630 
L 590.573202 585.329403 
L 590.268958 585.329403 
z
" style="fill:#ff0000;opacity:0.5;"/>
   </g>
   <g id="patch_42">
    <path clip-path="url(#p844640f076)" d="M 590.573202 630 
L 590.877446 630 
L 590.877446 615.109801 
L 590.573202 615.109801 
z
" style="fill:#ff0000;opacity:0.5;"/>
   </g>
   <g id="patch_43">
    <path clip-path="url(#p844640f076)" d="M 590.877446 630 
L 591.18169 630 
L 591.18169 585.329403 
L 590.877446 585.329403 
z
" style="fill:#ff0000;opacity:0.5;"/>
   </g>
   <g id="patch_44">
    <path clip-path="url(#p844640f076)" d="M 591.18169 630 
L 591.485934 630 
L 591.485934 630 
L 591.18169 630 
z
" style="fill:#ff0000;opacity:0.5;"/>
   </g>
   <g id="patch_45">
    <path clip-path="url(#p844640f076)" d="M 591.485934 630 
L 591.790178 630 
L 591.790178 630 
L 591.485934 630 
z
" style="fill:#ff0000;opacity:0.5;"/>
   </g>
   <g id="patch_46">
    <path clip-path="url(#p844640f076)" d="M 591.790178 630 
L 592.094422 630 
L 592.094422 630 
L 591.790178 630 
z
" style="fill:#ff0000;opacity:0.5;"/>
   </g>
   <g id="patch_47">
    <path clip-path="url(#p844640f076)" d="M 592.094422 630 
L 592.398666 630 
L 592.398666 630 
L 592.094422 630 
z
" style="fill:#ff0000;opacity:0.5;"/>
   </g>
   <g id="patch_48">
    <path clip-path="url(#p844640f076)" d="M 592.398666 630 
L 592.702909 630 
L 592.702909 615.109801 
L 592.398666 615.109801 
z
" style="fill:#ff0000;opacity:0.5;"/>
   </g>
   <g id="patch_49">
    <path clip-path="url(#p844640f076)" d="M 592.702909 630 
L 593.007153 630 
L 593.007153 630 
L 592.702909 630 
z
" style="fill:#ff0000;opacity:0.5;"/>
   </g>
   <g id="patch_50">
    <path clip-path="url(#p844640f076)" d="M 593.007153 630 
L 593.311397 630 
L 593.311397 630 
L 593.007153 630 
z
" style="fill:#ff0000;opacity:0.5;"/>
   </g>
   <g id="patch_51">
    <path clip-path="url(#p844640f076)" d="M 593.311397 630 
L 593.615641 630 
L 593.615641 615.109801 
L 593.311397 615.109801 
z
" style="fill:#ff0000;opacity:0.5;"/>
   </g>
   <g id="patch_52">
    <path clip-path="url(#p844640f076)" d="M 593.615641 630 
L 593.919885 630 
L 593.919885 615.109801 
L 593.615641 615.109801 
z
" style="fill:#ff0000;opacity:0.5;"/>
   </g>
   <g id="patch_53">
    <path clip-path="url(#p844640f076)" d="M 578.114144 630 
L 578.21915 630 
L 578.21915 586.857143 
L 578.114144 586.857143 
z
" style="fill:#ffff00;opacity:0.5;"/>
   </g>
   <g id="patch_54">
    <path clip-path="url(#p844640f076)" d="M 578.21915 630 
L 578.324156 630 
L 578.324156 630 
L 578.21915 630 
z
" style="fill:#ffff00;opacity:0.5;"/>
   </g>
   <g id="patch_55">
    <path clip-path="url(#p844640f076)" d="M 578.324156 630 
L 578.429161 630 
L 578.429161 630 
L 578.324156 630 
z
" style="fill:#ffff00;opacity:0.5;"/>
   </g>
   <g id="patch_56">
    <path clip-path="url(#p844640f076)" d="M 578.429161 630 
L 578.534167 630 
L 578.534167 630 
L 578.429161 630 
z
" style="fill:#ffff00;opacity:0.5;"/>
   </g>
   <g id="patch_57">
    <path clip-path="url(#p844640f076)" d="M 578.534167 630 
L 578.639173 630 
L 578.639173 630 
L 578.534167 630 
z
" style="fill:#ffff00;opacity:0.5;"/>
   </g>
   <g id="patch_58">
    <path clip-path="url(#p844640f076)" d="M 578.639173 630 
L 578.744179 630 
L 578.744179 630 
L 578.639173 630 
z
" style="fill:#ffff00;opacity:0.5;"/>
   </g>
   <g id="patch_59">
    <path clip-path="url(#p844640f076)" d="M 578.744179 630 
L 578.849185 630 
L 578.849185 630 
L 578.744179 630 
z
" style="fill:#ffff00;opacity:0.5;"/>
   </g>
   <g id="patch_60">
    <path clip-path="url(#p844640f076)" d="M 578.849185 630 
L 578.954191 630 
L 578.954191 586.857143 
L 578.849185 586.857143 
z
" style="fill:#ffff00;opacity:0.5;"/>
   </g>
   <g id="patch_61">
    <path clip-path="url(#p844640f076)" d="M 578.954191 630 
L 579.059196 630 
L 579.059196 630 
L 578.954191 630 
z
" style="fill:#ffff00;opacity:0.5;"/>
   </g>
   <g id="patch_62">
    <path clip-path="url(#p844640f076)" d="M 579.059196 630 
L 579.164202 630 
L 579.164202 586.857143 
L 579.059196 586.857143 
z
" style="fill:#ffff00;opacity:0.5;"/>
   </g>
   <g id="patch_63">
    <path clip-path="url(#p844640f076)" d="M 579.164202 630 
L 579.269208 630 
L 579.269208 630 
L 579.164202 630 
z
" style="fill:#ffff00;opacity:0.5;"/>
   </g>
   <g id="patch_64">
    <path clip-path="url(#p844640f076)" d="M 579.269208 630 
L 579.374214 630 
L 579.374214 630 
L 579.269208 630 
z
" style="fill:#ffff00;opacity:0.5;"/>
   </g>
   <g id="patch_65">
    <path clip-path="url(#p844640f076)" d="M 579.374214 630 
L 579.47922 630 
L 579.47922 586.857143 
L 579.374214 586.857143 
z
" style="fill:#ffff00;opacity:0.5;"/>
   </g>
   <g id="patch_66">
    <path clip-path="url(#p844640f076)" d="M 579.47922 630 
L 579.584226 630 
L 579.584226 630 
L 579.47922 630 
z
" style="fill:#ffff00;opacity:0.5;"/>
   </g>
   <g id="patch_67">
    <path clip-path="url(#p844640f076)" d="M 579.584226 630 
L 579.689231 630 
L 579.689231 586.857143 
L 579.584226 586.857143 
z
" style="fill:#ffff00;opacity:0.5;"/>
   </g>
   <g id="patch_68">
    <path clip-path="url(#p844640f076)" d="M 579.689231 630 
L 579.794237 630 
L 579.794237 630 
L 579.689231 630 
z
" style="fill:#ffff00;opacity:0.5;"/>
   </g>
   <g id="patch_69">
    <path clip-path="url(#p844640f076)" d="M 579.794237 630 
L 579.899243 630 
L 579.899243 586.857143 
L 579.794237 586.857143 
z
" style="fill:#ffff00;opacity:0.5;"/>
   </g>
   <g id="patch_70">
    <path clip-path="url(#p844640f076)" d="M 579.899243 630 
L 580.004249 630 
L 580.004249 630 
L 579.899243 630 
z
" style="fill:#ffff00;opacity:0.5;"/>
   </g>
   <g id="patch_71">
    <path clip-path="url(#p844640f076)" d="M 580.004249 630 
L 580.109255 630 
L 580.109255 500.571429 
L 580.004249 500.571429 
z
" style="fill:#ffff00;opacity:0.5;"/>
   </g>
   <g id="patch_72">
    <path clip-path="url(#p844640f076)" d="M 580.109255 630 
L 580.214261 630 
L 580.214261 500.571429 
L 580.109255 500.571429 
z
" style="fill:#ffff00;opacity:0.5;"/>
   </g>
   <g id="patch_73">
    <path clip-path="url(#p844640f076)" d="M 580.214261 630 
L 580.319267 630 
L 580.319267 500.571429 
L 580.214261 500.571429 
z
" style="fill:#ffff00;opacity:0.5;"/>
   </g>
   <g id="patch_74">
    <path clip-path="url(#p844640f076)" d="M 580.319267 630 
L 580.424272 630 
L 580.424272 457.428571 
L 580.319267 457.428571 
z
" style="fill:#ffff00;opacity:0.5;"/>
   </g>
   <g id="patch_75">
    <path clip-path="url(#p844640f076)" d="M 580.424272 630 
L 580.529278 630 
L 580.529278 500.571429 
L 580.424272 500.571429 
z
" style="fill:#ffff00;opacity:0.5;"/>
   </g>
   <g id="patch_76">
    <path clip-path="url(#p844640f076)" d="M 580.529278 630 
L 580.634284 630 
L 580.634284 500.571429 
L 580.529278 500.571429 
z
" style="fill:#ffff00;opacity:0.5;"/>
   </g>
   <g id="patch_77">
    <path clip-path="url(#p844640f076)" d="M 580.634284 630 
L 580.73929 630 
L 580.73929 586.857143 
L 580.634284 586.857143 
z
" style="fill:#ffff00;opacity:0.5;"/>
   </g>
   <g id="patch_78">
    <path clip-path="url(#p844640f076)" d="M 580.73929 630 
L 580.844296 630 
L 580.844296 155.428571 
L 580.73929 155.428571 
z
" style="fill:#ffff00;opacity:0.5;"/>
   </g>
   <g id="patch_79">
    <path clip-path="url(#p844640f076)" d="M 580.844296 630 
L 580.949302 630 
L 580.949302 500.571429 
L 580.844296 500.571429 
z
" style="fill:#ffff00;opacity:0.5;"/>
   </g>
   <g id="patch_80">
    <path clip-path="url(#p844640f076)" d="M 580.949302 630 
L 581.054307 630 
L 581.054307 414.285714 
L 580.949302 414.285714 
z
" style="fill:#ffff00;opacity:0.5;"/>
   </g>
   <g id="patch_81">
    <path clip-path="url(#p844640f076)" d="M 581.054307 630 
L 581.159313 630 
L 581.159313 112.285714 
L 581.054307 112.285714 
z
" style="fill:#ffff00;opacity:0.5;"/>
   </g>
   <g id="patch_82">
    <path clip-path="url(#p844640f076)" d="M 581.159313 630 
L 581.264319 630 
L 581.264319 112.285714 
L 581.159313 112.285714 
z
" style="fill:#ffff00;opacity:0.5;"/>
   </g>
   <g id="patch_83">
    <path clip-path="url(#p844640f076)" d="M 581.264319 630 
L 581.369325 630 
L 581.369325 457.428571 
L 581.264319 457.428571 
z
" style="fill:#ffff00;opacity:0.5;"/>
   </g>
   <g id="patch_84">
    <path clip-path="url(#p844640f076)" d="M 581.369325 630 
L 581.474331 630 
L 581.474331 500.571429 
L 581.369325 500.571429 
z
" style="fill:#ffff00;opacity:0.5;"/>
   </g>
   <g id="patch_85">
    <path clip-path="url(#p844640f076)" d="M 581.474331 630 
L 581.579337 630 
L 581.579337 371.142857 
L 581.474331 371.142857 
z
" style="fill:#ffff00;opacity:0.5;"/>
   </g>
   <g id="patch_86">
    <path clip-path="url(#p844640f076)" d="M 581.579337 630 
L 581.684342 630 
L 581.684342 414.285714 
L 581.579337 414.285714 
z
" style="fill:#ffff00;opacity:0.5;"/>
   </g>
   <g id="patch_87">
    <path clip-path="url(#p844640f076)" d="M 581.684342 630 
L 581.789348 630 
L 581.789348 328 
L 581.684342 328 
z
" style="fill:#ffff00;opacity:0.5;"/>
   </g>
   <g id="patch_88">
    <path clip-path="url(#p844640f076)" d="M 581.789348 630 
L 581.894354 630 
L 581.894354 371.142857 
L 581.789348 371.142857 
z
" style="fill:#ffff00;opacity:0.5;"/>
   </g>
   <g id="patch_89">
    <path clip-path="url(#p844640f076)" d="M 581.894354 630 
L 581.99936 630 
L 581.99936 543.714286 
L 581.894354 543.714286 
z
" style="fill:#ffff00;opacity:0.5;"/>
   </g>
   <g id="patch_90">
    <path clip-path="url(#p844640f076)" d="M 581.99936 630 
L 582.104366 630 
L 582.104366 457.428571 
L 581.99936 457.428571 
z
" style="fill:#ffff00;opacity:0.5;"/>
   </g>
   <g id="patch_91">
    <path clip-path="url(#p844640f076)" d="M 582.104366 630 
L 582.209372 630 
L 582.209372 586.857143 
L 582.104366 586.857143 
z
" style="fill:#ffff00;opacity:0.5;"/>
   </g>
   <g id="patch_92">
    <path clip-path="url(#p844640f076)" d="M 582.209372 630 
L 582.314378 630 
L 582.314378 414.285714 
L 582.209372 414.285714 
z
" style="fill:#ffff00;opacity:0.5;"/>
   </g>
   <g id="patch_93">
    <path clip-path="url(#p844640f076)" d="M 582.314378 630 
L 582.419383 630 
L 582.419383 543.714286 
L 582.314378 543.714286 
z
" style="fill:#ffff00;opacity:0.5;"/>
   </g>
   <g id="patch_94">
    <path clip-path="url(#p844640f076)" d="M 582.419383 630 
L 582.524389 630 
L 582.524389 586.857143 
L 582.419383 586.857143 
z
" style="fill:#ffff00;opacity:0.5;"/>
   </g>
   <g id="patch_95">
    <path clip-path="url(#p844640f076)" d="M 582.524389 630 
L 582.629395 630 
L 582.629395 630 
L 582.524389 630 
z
" style="fill:#ffff00;opacity:0.5;"/>
   </g>
   <g id="patch_96">
    <path clip-path="url(#p844640f076)" d="M 582.629395 630 
L 582.734401 630 
L 582.734401 500.571429 
L 582.629395 500.571429 
z
" style="fill:#ffff00;opacity:0.5;"/>
   </g>
   <g id="patch_97">
    <path clip-path="url(#p844640f076)" d="M 582.734401 630 
L 582.839407 630 
L 582.839407 500.571429 
L 582.734401 500.571429 
z
" style="fill:#ffff00;opacity:0.5;"/>
   </g>
   <g id="patch_98">
    <path clip-path="url(#p844640f076)" d="M 582.839407 630 
L 582.944413 630 
L 582.944413 543.714286 
L 582.839407 543.714286 
z
" style="fill:#ffff00;opacity:0.5;"/>
   </g>
   <g id="patch_99">
    <path clip-path="url(#p844640f076)" d="M 582.944413 630 
L 583.049418 630 
L 583.049418 543.714286 
L 582.944413 543.714286 
z
" style="fill:#ffff00;opacity:0.5;"/>
   </g>
   <g id="patch_100">
    <path clip-path="url(#p844640f076)" d="M 583.049418 630 
L 583.154424 630 
L 583.154424 630 
L 583.049418 630 
z
" style="fill:#ffff00;opacity:0.5;"/>
   </g>
   <g id="patch_101">
    <path clip-path="url(#p844640f076)" d="M 583.154424 630 
L 583.25943 630 
L 583.25943 586.857143 
L 583.154424 586.857143 
z
" style="fill:#ffff00;opacity:0.5;"/>
   </g>
   <g id="patch_102">
    <path clip-path="url(#p844640f076)" d="M 583.25943 630 
L 583.364436 630 
L 583.364436 543.714286 
L 583.25943 543.714286 
z
" style="fill:#ffff00;opacity:0.5;"/>
   </g>
   <g id="patch_103">
    <path clip-path="url(#p844640f076)" d="M 576.541073 630 
L 577.157845 630 
L 577.157845 535.982782 
L 576.541073 535.982782 
z
" style="fill:#0000ff;opacity:0.5;"/>
   </g>
   <g id="patch_104">
    <path clip-path="url(#p844640f076)" d="M 577.157845 630 
L 577.774618 630 
L 577.774618 535.982782 
L 577.157845 535.982782 
z
" style="fill:#0000ff;opacity:0.5;"/>
   </g>
   <g id="patch_105">
    <path clip-path="url(#p844640f076)" d="M 577.774618 630 
L 578.39139 630 
L 578.39139 535.982782 
L 577.774618 535.982782 
z
" style="fill:#0000ff;opacity:0.5;"/>
   </g>
   <g id="patch_106">
    <path clip-path="url(#p844640f076)" d="M 578.39139 630 
L 579.008162 630 
L 579.008162 630 
L 578.39139 630 
z
" style="fill:#0000ff;opacity:0.5;"/>
   </g>
   <g id="patch_107">
    <path clip-path="url(#p844640f076)" d="M 579.008162 630 
L 579.624935 630 
L 579.624935 630 
L 579.008162 630 
z
" style="fill:#0000ff;opacity:0.5;"/>
   </g>
   <g id="patch_108">
    <path clip-path="url(#p844640f076)" d="M 579.624935 630 
L 580.241707 630 
L 580.241707 630 
L 579.624935 630 
z
" style="fill:#0000ff;opacity:0.5;"/>
   </g>
   <g id="patch_109">
    <path clip-path="url(#p844640f076)" d="M 580.241707 630 
L 580.85848 630 
L 580.85848 535.982782 
L 580.241707 535.982782 
z
" style="fill:#0000ff;opacity:0.5;"/>
   </g>
   <g id="patch_110">
    <path clip-path="url(#p844640f076)" d="M 580.85848 630 
L 581.475252 630 
L 581.475252 630 
L 580.85848 630 
z
" style="fill:#0000ff;opacity:0.5;"/>
   </g>
   <g id="patch_111">
    <path clip-path="url(#p844640f076)" d="M 581.475252 630 
L 582.092024 630 
L 582.092024 630 
L 581.475252 630 
z
" style="fill:#0000ff;opacity:0.5;"/>
   </g>
   <g id="patch_112">
    <path clip-path="url(#p844640f076)" d="M 582.092024 630 
L 582.708797 630 
L 582.708797 630 
L 582.092024 630 
z
" style="fill:#0000ff;opacity:0.5;"/>
   </g>
   <g id="patch_113">
    <path clip-path="url(#p844640f076)" d="M 582.708797 630 
L 583.325569 630 
L 583.325569 630 
L 582.708797 630 
z
" style="fill:#0000ff;opacity:0.5;"/>
   </g>
   <g id="patch_114">
    <path clip-path="url(#p844640f076)" d="M 583.325569 630 
L 583.942342 630 
L 583.942342 535.982782 
L 583.325569 535.982782 
z
" style="fill:#0000ff;opacity:0.5;"/>
   </g>
   <g id="patch_115">
    <path clip-path="url(#p844640f076)" d="M 583.942342 630 
L 584.559114 630 
L 584.559114 630 
L 583.942342 630 
z
" style="fill:#0000ff;opacity:0.5;"/>
   </g>
   <g id="patch_116">
    <path clip-path="url(#p844640f076)" d="M 584.559114 630 
L 585.175886 630 
L 585.175886 630 
L 584.559114 630 
z
" style="fill:#0000ff;opacity:0.5;"/>
   </g>
   <g id="patch_117">
    <path clip-path="url(#p844640f076)" d="M 585.175886 630 
L 585.792659 630 
L 585.792659 630 
L 585.175886 630 
z
" style="fill:#0000ff;opacity:0.5;"/>
   </g>
   <g id="patch_118">
    <path clip-path="url(#p844640f076)" d="M 585.792659 630 
L 586.409431 630 
L 586.409431 535.982782 
L 585.792659 535.982782 
z
" style="fill:#0000ff;opacity:0.5;"/>
   </g>
   <g id="patch_119">
    <path clip-path="url(#p844640f076)" d="M 586.409431 630 
L 587.026204 630 
L 587.026204 630 
L 586.409431 630 
z
" style="fill:#0000ff;opacity:0.5;"/>
   </g>
   <g id="patch_120">
    <path clip-path="url(#p844640f076)" d="M 587.026204 630 
L 587.642976 630 
L 587.642976 630 
L 587.026204 630 
z
" style="fill:#0000ff;opacity:0.5;"/>
   </g>
   <g id="patch_121">
    <path clip-path="url(#p844640f076)" d="M 587.642976 630 
L 588.259749 630 
L 588.259749 630 
L 587.642976 630 
z
" style="fill:#0000ff;opacity:0.5;"/>
   </g>
   <g id="patch_122">
    <path clip-path="url(#p844640f076)" d="M 588.259749 630 
L 588.876521 630 
L 588.876521 630 
L 588.259749 630 
z
" style="fill:#0000ff;opacity:0.5;"/>
   </g>
   <g id="patch_123">
    <path clip-path="url(#p844640f076)" d="M 588.876521 630 
L 589.493293 630 
L 589.493293 630 
L 588.876521 630 
z
" style="fill:#0000ff;opacity:0.5;"/>
   </g>
   <g id="patch_124">
    <path clip-path="url(#p844640f076)" d="M 589.493293 630 
L 590.110066 630 
L 590.110066 630 
L 589.493293 630 
z
" style="fill:#0000ff;opacity:0.5;"/>
   </g>
   <g id="patch_125">
    <path clip-path="url(#p844640f076)" d="M 590.110066 630 
L 590.726838 630 
L 590.726838 630 
L 590.110066 630 
z
" style="fill:#0000ff;opacity:0.5;"/>
   </g>
   <g id="patch_126">
    <path clip-path="url(#p844640f076)" d="M 590.726838 630 
L 591.343611 630 
L 591.343611 535.982782 
L 590.726838 535.982782 
z
" style="fill:#0000ff;opacity:0.5;"/>
   </g>
   <g id="patch_127">
    <path clip-path="url(#p844640f076)" d="M 591.343611 630 
L 591.960383 630 
L 591.960383 630 
L 591.343611 630 
z
" style="fill:#0000ff;opacity:0.5;"/>
   </g>
   <g id="patch_128">
    <path clip-path="url(#p844640f076)" d="M 591.960383 630 
L 592.577155 630 
L 592.577155 630 
L 591.960383 630 
z
" style="fill:#0000ff;opacity:0.5;"/>
   </g>
   <g id="patch_129">
    <path clip-path="url(#p844640f076)" d="M 592.577155 630 
L 593.193928 630 
L 593.193928 630 
L 592.577155 630 
z
" style="fill:#0000ff;opacity:0.5;"/>
   </g>
   <g id="patch_130">
    <path clip-path="url(#p844640f076)" d="M 593.193928 630 
L 593.8107 630 
L 593.8107 535.982782 
L 593.193928 535.982782 
z
" style="fill:#0000ff;opacity:0.5;"/>
   </g>
   <g id="patch_131">
    <path clip-path="url(#p844640f076)" d="M 593.8107 630 
L 594.427473 630 
L 594.427473 630 
L 593.8107 630 
z
" style="fill:#0000ff;opacity:0.5;"/>
   </g>
   <g id="patch_132">
    <path clip-path="url(#p844640f076)" d="M 594.427473 630 
L 595.044245 630 
L 595.044245 630 
L 594.427473 630 
z
" style="fill:#0000ff;opacity:0.5;"/>
   </g>
   <g id="patch_133">
    <path clip-path="url(#p844640f076)" d="M 595.044245 630 
L 595.661017 630 
L 595.661017 630 
L 595.044245 630 
z
" style="fill:#0000ff;opacity:0.5;"/>
   </g>
   <g id="patch_134">
    <path clip-path="url(#p844640f076)" d="M 595.661017 630 
L 596.27779 630 
L 596.27779 630 
L 595.661017 630 
z
" style="fill:#0000ff;opacity:0.5;"/>
   </g>
   <g id="patch_135">
    <path clip-path="url(#p844640f076)" d="M 596.27779 630 
L 596.894562 630 
L 596.894562 630 
L 596.27779 630 
z
" style="fill:#0000ff;opacity:0.5;"/>
   </g>
   <g id="patch_136">
    <path clip-path="url(#p844640f076)" d="M 596.894562 630 
L 597.511335 630 
L 597.511335 630 
L 596.894562 630 
z
" style="fill:#0000ff;opacity:0.5;"/>
   </g>
   <g id="patch_137">
    <path clip-path="url(#p844640f076)" d="M 597.511335 630 
L 598.128107 630 
L 598.128107 630 
L 597.511335 630 
z
" style="fill:#0000ff;opacity:0.5;"/>
   </g>
   <g id="patch_138">
    <path clip-path="url(#p844640f076)" d="M 598.128107 630 
L 598.74488 630 
L 598.74488 535.982782 
L 598.128107 535.982782 
z
" style="fill:#0000ff;opacity:0.5;"/>
   </g>
   <g id="patch_139">
    <path clip-path="url(#p844640f076)" d="M 598.74488 630 
L 599.361652 630 
L 599.361652 630 
L 598.74488 630 
z
" style="fill:#0000ff;opacity:0.5;"/>
   </g>
   <g id="patch_140">
    <path clip-path="url(#p844640f076)" d="M 599.361652 630 
L 599.978424 630 
L 599.978424 630 
L 599.361652 630 
z
" style="fill:#0000ff;opacity:0.5;"/>
   </g>
   <g id="patch_141">
    <path clip-path="url(#p844640f076)" d="M 599.978424 630 
L 600.595197 630 
L 600.595197 630 
L 599.978424 630 
z
" style="fill:#0000ff;opacity:0.5;"/>
   </g>
   <g id="patch_142">
    <path clip-path="url(#p844640f076)" d="M 600.595197 630 
L 601.211969 630 
L 601.211969 630 
L 600.595197 630 
z
" style="fill:#0000ff;opacity:0.5;"/>
   </g>
   <g id="patch_143">
    <path clip-path="url(#p844640f076)" d="M 601.211969 630 
L 601.828742 630 
L 601.828742 630 
L 601.211969 630 
z
" style="fill:#0000ff;opacity:0.5;"/>
   </g>
   <g id="patch_144">
    <path clip-path="url(#p844640f076)" d="M 601.828742 630 
L 602.445514 630 
L 602.445514 630 
L 601.828742 630 
z
" style="fill:#0000ff;opacity:0.5;"/>
   </g>
   <g id="patch_145">
    <path clip-path="url(#p844640f076)" d="M 602.445514 630 
L 603.062286 630 
L 603.062286 630 
L 602.445514 630 
z
" style="fill:#0000ff;opacity:0.5;"/>
   </g>
   <g id="patch_146">
    <path clip-path="url(#p844640f076)" d="M 603.062286 630 
L 603.679059 630 
L 603.679059 630 
L 603.062286 630 
z
" style="fill:#0000ff;opacity:0.5;"/>
   </g>
   <g id="patch_147">
    <path clip-path="url(#p844640f076)" d="M 603.679059 630 
L 604.295831 630 
L 604.295831 630 
L 603.679059 630 
z
" style="fill:#0000ff;opacity:0.5;"/>
   </g>
   <g id="patch_148">
    <path clip-path="url(#p844640f076)" d="M 604.295831 630 
L 604.912604 630 
L 604.912604 630 
L 604.295831 630 
z
" style="fill:#0000ff;opacity:0.5;"/>
   </g>
   <g id="patch_149">
    <path clip-path="url(#p844640f076)" d="M 604.912604 630 
L 605.529376 630 
L 605.529376 630 
L 604.912604 630 
z
" style="fill:#0000ff;opacity:0.5;"/>
   </g>
   <g id="patch_150">
    <path clip-path="url(#p844640f076)" d="M 605.529376 630 
L 606.146148 630 
L 606.146148 630 
L 605.529376 630 
z
" style="fill:#0000ff;opacity:0.5;"/>
   </g>
   <g id="patch_151">
    <path clip-path="url(#p844640f076)" d="M 606.146148 630 
L 606.762921 630 
L 606.762921 630 
L 606.146148 630 
z
" style="fill:#0000ff;opacity:0.5;"/>
   </g>
   <g id="patch_152">
    <path clip-path="url(#p844640f076)" d="M 606.762921 630 
L 607.379693 630 
L 607.379693 535.982782 
L 606.762921 535.982782 
z
" style="fill:#0000ff;opacity:0.5;"/>
   </g>
   <g id="patch_153">
    <path clip-path="url(#p844640f076)" d="M 138.436364 630 
L 150.610909 630 
L 150.610909 625.237011 
L 138.436364 625.237011 
z
" style="fill:#008000;opacity:0.5;"/>
   </g>
   <g id="patch_154">
    <path clip-path="url(#p844640f076)" d="M 150.610909 630 
L 162.785455 630 
L 162.785455 630 
L 150.610909 630 
z
" style="fill:#008000;opacity:0.5;"/>
   </g>
   <g id="patch_155">
    <path clip-path="url(#p844640f076)" d="M 162.785455 630 
L 174.96 630 
L 174.96 630 
L 162.785455 630 
z
" style="fill:#008000;opacity:0.5;"/>
   </g>
   <g id="patch_156">
    <path clip-path="url(#p844640f076)" d="M 174.96 630 
L 187.134545 630 
L 187.134545 630 
L 174.96 630 
z
" style="fill:#008000;opacity:0.5;"/>
   </g>
   <g id="patch_157">
    <path clip-path="url(#p844640f076)" d="M 187.134545 630 
L 199.309091 630 
L 199.309091 630 
L 187.134545 630 
z
" style="fill:#008000;opacity:0.5;"/>
   </g>
   <g id="patch_158">
    <path clip-path="url(#p844640f076)" d="M 199.309091 630 
L 211.483636 630 
L 211.483636 630 
L 199.309091 630 
z
" style="fill:#008000;opacity:0.5;"/>
   </g>
   <g id="patch_159">
    <path clip-path="url(#p844640f076)" d="M 211.483636 630 
L 223.658182 630 
L 223.658182 630 
L 211.483636 630 
z
" style="fill:#008000;opacity:0.5;"/>
   </g>
   <g id="patch_160">
    <path clip-path="url(#p844640f076)" d="M 223.658182 630 
L 235.832727 630 
L 235.832727 630 
L 223.658182 630 
z
" style="fill:#008000;opacity:0.5;"/>
   </g>
   <g id="patch_161">
    <path clip-path="url(#p844640f076)" d="M 235.832727 630 
L 248.007273 630 
L 248.007273 630 
L 235.832727 630 
z
" style="fill:#008000;opacity:0.5;"/>
   </g>
   <g id="patch_162">
    <path clip-path="url(#p844640f076)" d="M 248.007273 630 
L 260.181818 630 
L 260.181818 630 
L 248.007273 630 
z
" style="fill:#008000;opacity:0.5;"/>
   </g>
   <g id="patch_163">
    <path clip-path="url(#p844640f076)" d="M 260.181818 630 
L 272.356364 630 
L 272.356364 630 
L 260.181818 630 
z
" style="fill:#008000;opacity:0.5;"/>
   </g>
   <g id="patch_164">
    <path clip-path="url(#p844640f076)" d="M 272.356364 630 
L 284.530909 630 
L 284.530909 630 
L 272.356364 630 
z
" style="fill:#008000;opacity:0.5;"/>
   </g>
   <g id="patch_165">
    <path clip-path="url(#p844640f076)" d="M 284.530909 630 
L 296.705455 630 
L 296.705455 630 
L 284.530909 630 
z
" style="fill:#008000;opacity:0.5;"/>
   </g>
   <g id="patch_166">
    <path clip-path="url(#p844640f076)" d="M 296.705455 630 
L 308.88 630 
L 308.88 630 
L 296.705455 630 
z
" style="fill:#008000;opacity:0.5;"/>
   </g>
   <g id="patch_167">
    <path clip-path="url(#p844640f076)" d="M 308.88 630 
L 321.054545 630 
L 321.054545 630 
L 308.88 630 
z
" style="fill:#008000;opacity:0.5;"/>
   </g>
   <g id="patch_168">
    <path clip-path="url(#p844640f076)" d="M 321.054545 630 
L 333.229091 630 
L 333.229091 630 
L 321.054545 630 
z
" style="fill:#008000;opacity:0.5;"/>
   </g>
   <g id="patch_169">
    <path clip-path="url(#p844640f076)" d="M 333.229091 630 
L 345.403636 630 
L 345.403636 630 
L 333.229091 630 
z
" style="fill:#008000;opacity:0.5;"/>
   </g>
   <g id="patch_170">
    <path clip-path="url(#p844640f076)" d="M 345.403636 630 
L 357.578182 630 
L 357.578182 630 
L 345.403636 630 
z
" style="fill:#008000;opacity:0.5;"/>
   </g>
   <g id="patch_171">
    <path clip-path="url(#p844640f076)" d="M 357.578182 630 
L 369.752727 630 
L 369.752727 630 
L 357.578182 630 
z
" style="fill:#008000;opacity:0.5;"/>
   </g>
   <g id="patch_172">
    <path clip-path="url(#p844640f076)" d="M 369.752727 630 
L 381.927273 630 
L 381.927273 630 
L 369.752727 630 
z
" style="fill:#008000;opacity:0.5;"/>
   </g>
   <g id="patch_173">
    <path clip-path="url(#p844640f076)" d="M 381.927273 630 
L 394.101818 630 
L 394.101818 630 
L 381.927273 630 
z
" style="fill:#008000;opacity:0.5;"/>
   </g>
   <g id="patch_174">
    <path clip-path="url(#p844640f076)" d="M 394.101818 630 
L 406.276364 630 
L 406.276364 625.237011 
L 394.101818 625.237011 
z
" style="fill:#008000;opacity:0.5;"/>
   </g>
   <g id="patch_175">
    <path clip-path="url(#p844640f076)" d="M 406.276364 630 
L 418.450909 630 
L 418.450909 630 
L 406.276364 630 
z
" style="fill:#008000;opacity:0.5;"/>
   </g>
   <g id="patch_176">
    <path clip-path="url(#p844640f076)" d="M 418.450909 630 
L 430.625455 630 
L 430.625455 625.237011 
L 418.450909 625.237011 
z
" style="fill:#008000;opacity:0.5;"/>
   </g>
   <g id="patch_177">
    <path clip-path="url(#p844640f076)" d="M 430.625455 630 
L 442.8 630 
L 442.8 630 
L 430.625455 630 
z
" style="fill:#008000;opacity:0.5;"/>
   </g>
   <g id="patch_178">
    <path clip-path="url(#p844640f076)" d="M 442.8 630 
L 454.974545 630 
L 454.974545 630 
L 442.8 630 
z
" style="fill:#008000;opacity:0.5;"/>
   </g>
   <g id="patch_179">
    <path clip-path="url(#p844640f076)" d="M 454.974545 630 
L 467.149091 630 
L 467.149091 630 
L 454.974545 630 
z
" style="fill:#008000;opacity:0.5;"/>
   </g>
   <g id="patch_180">
    <path clip-path="url(#p844640f076)" d="M 467.149091 630 
L 479.323636 630 
L 479.323636 630 
L 467.149091 630 
z
" style="fill:#008000;opacity:0.5;"/>
   </g>
   <g id="patch_181">
    <path clip-path="url(#p844640f076)" d="M 479.323636 630 
L 491.498182 630 
L 491.498182 625.237011 
L 479.323636 625.237011 
z
" style="fill:#008000;opacity:0.5;"/>
   </g>
   <g id="patch_182">
    <path clip-path="url(#p844640f076)" d="M 491.498182 630 
L 503.672727 630 
L 503.672727 630 
L 491.498182 630 
z
" style="fill:#008000;opacity:0.5;"/>
   </g>
   <g id="patch_183">
    <path clip-path="url(#p844640f076)" d="M 503.672727 630 
L 515.847273 630 
L 515.847273 630 
L 503.672727 630 
z
" style="fill:#008000;opacity:0.5;"/>
   </g>
   <g id="patch_184">
    <path clip-path="url(#p844640f076)" d="M 515.847273 630 
L 528.021818 630 
L 528.021818 630 
L 515.847273 630 
z
" style="fill:#008000;opacity:0.5;"/>
   </g>
   <g id="patch_185">
    <path clip-path="url(#p844640f076)" d="M 528.021818 630 
L 540.196364 630 
L 540.196364 630 
L 528.021818 630 
z
" style="fill:#008000;opacity:0.5;"/>
   </g>
   <g id="patch_186">
    <path clip-path="url(#p844640f076)" d="M 540.196364 630 
L 552.370909 630 
L 552.370909 630 
L 540.196364 630 
z
" style="fill:#008000;opacity:0.5;"/>
   </g>
   <g id="patch_187">
    <path clip-path="url(#p844640f076)" d="M 552.370909 630 
L 564.545455 630 
L 564.545455 630 
L 552.370909 630 
z
" style="fill:#008000;opacity:0.5;"/>
   </g>
   <g id="patch_188">
    <path clip-path="url(#p844640f076)" d="M 564.545455 630 
L 576.72 630 
L 576.72 630 
L 564.545455 630 
z
" style="fill:#008000;opacity:0.5;"/>
   </g>
   <g id="patch_189">
    <path clip-path="url(#p844640f076)" d="M 576.72 630 
L 588.894545 630 
L 588.894545 625.237011 
L 576.72 625.237011 
z
" style="fill:#008000;opacity:0.5;"/>
   </g>
   <g id="patch_190">
    <path clip-path="url(#p844640f076)" d="M 588.894545 630 
L 601.069091 630 
L 601.069091 625.237011 
L 588.894545 625.237011 
z
" style="fill:#008000;opacity:0.5;"/>
   </g>
   <g id="patch_191">
    <path clip-path="url(#p844640f076)" d="M 601.069091 630 
L 613.243636 630 
L 613.243636 620.474022 
L 601.069091 620.474022 
z
" style="fill:#008000;opacity:0.5;"/>
   </g>
   <g id="patch_192">
    <path clip-path="url(#p844640f076)" d="M 613.243636 630 
L 625.418182 630 
L 625.418182 630 
L 613.243636 630 
z
" style="fill:#008000;opacity:0.5;"/>
   </g>
   <g id="patch_193">
    <path clip-path="url(#p844640f076)" d="M 625.418182 630 
L 637.592727 630 
L 637.592727 630 
L 625.418182 630 
z
" style="fill:#008000;opacity:0.5;"/>
   </g>
   <g id="patch_194">
    <path clip-path="url(#p844640f076)" d="M 637.592727 630 
L 649.767273 630 
L 649.767273 630 
L 637.592727 630 
z
" style="fill:#008000;opacity:0.5;"/>
   </g>
   <g id="patch_195">
    <path clip-path="url(#p844640f076)" d="M 649.767273 630 
L 661.941818 630 
L 661.941818 625.237011 
L 649.767273 625.237011 
z
" style="fill:#008000;opacity:0.5;"/>
   </g>
   <g id="patch_196">
    <path clip-path="url(#p844640f076)" d="M 661.941818 630 
L 674.116364 630 
L 674.116364 630 
L 661.941818 630 
z
" style="fill:#008000;opacity:0.5;"/>
   </g>
   <g id="patch_197">
    <path clip-path="url(#p844640f076)" d="M 674.116364 630 
L 686.290909 630 
L 686.290909 630 
L 674.116364 630 
z
" style="fill:#008000;opacity:0.5;"/>
   </g>
   <g id="patch_198">
    <path clip-path="url(#p844640f076)" d="M 686.290909 630 
L 698.465455 630 
L 698.465455 630 
L 686.290909 630 
z
" style="fill:#008000;opacity:0.5;"/>
   </g>
   <g id="patch_199">
    <path clip-path="url(#p844640f076)" d="M 698.465455 630 
L 710.64 630 
L 710.64 630 
L 698.465455 630 
z
" style="fill:#008000;opacity:0.5;"/>
   </g>
   <g id="patch_200">
    <path clip-path="url(#p844640f076)" d="M 710.64 630 
L 722.814545 630 
L 722.814545 630 
L 710.64 630 
z
" style="fill:#008000;opacity:0.5;"/>
   </g>
   <g id="patch_201">
    <path clip-path="url(#p844640f076)" d="M 722.814545 630 
L 734.989091 630 
L 734.989091 630 
L 722.814545 630 
z
" style="fill:#008000;opacity:0.5;"/>
   </g>
   <g id="patch_202">
    <path clip-path="url(#p844640f076)" d="M 734.989091 630 
L 747.163636 630 
L 747.163636 625.237011 
L 734.989091 625.237011 
z
" style="fill:#008000;opacity:0.5;"/>
   </g>
   <g id="matplotlib.axis_1">
    <g id="xtick_1">
     <g id="line2d_1">
      <defs>
       <path d="M 0 0 
L 0 3.5 
" id="md32e1a976c" style="stroke:#000000;stroke-width:0.8;"/>
      </defs>
      <g>
       <use style="stroke:#000000;stroke-width:0.8;" x="108.307964" xlink:href="#md32e1a976c" y="630"/>
      </g>
     </g>
     <g id="text_1">
      <!-- −15.0 -->
      <defs>
       <path d="M 10.59375 35.5 
L 73.1875 35.5 
L 73.1875 27.203125 
L 10.59375 27.203125 
z
" id="DejaVuSans-8722"/>
       <path d="M 12.40625 8.296875 
L 28.515625 8.296875 
L 28.515625 63.921875 
L 10.984375 60.40625 
L 10.984375 69.390625 
L 28.421875 72.90625 
L 38.28125 72.90625 
L 38.28125 8.296875 
L 54.390625 8.296875 
L 54.390625 0 
L 12.40625 0 
z
" id="DejaVuSans-49"/>
       <path d="M 10.796875 72.90625 
L 49.515625 72.90625 
L 49.515625 64.59375 
L 19.828125 64.59375 
L 19.828125 46.734375 
Q 21.96875 47.46875 24.109375 47.828125 
Q 26.265625 48.1875 28.421875 48.1875 
Q 40.625 48.1875 47.75 41.5 
Q 54.890625 34.8125 54.890625 23.390625 
Q 54.890625 11.625 47.5625 5.09375 
Q 40.234375 -1.421875 26.90625 -1.421875 
Q 22.3125 -1.421875 17.546875 -0.640625 
Q 12.796875 0.140625 7.71875 1.703125 
L 7.71875 11.625 
Q 12.109375 9.234375 16.796875 8.0625 
Q 21.484375 6.890625 26.703125 6.890625 
Q 35.15625 6.890625 40.078125 11.328125 
Q 45.015625 15.765625 45.015625 23.390625 
Q 45.015625 31 40.078125 35.4375 
Q 35.15625 39.890625 26.703125 39.890625 
Q 22.75 39.890625 18.8125 39.015625 
Q 14.890625 38.140625 10.796875 36.28125 
z
" id="DejaVuSans-53"/>
       <path d="M 10.6875 12.40625 
L 21 12.40625 
L 21 0 
L 10.6875 0 
z
" id="DejaVuSans-46"/>
       <path d="M 31.78125 66.40625 
Q 24.171875 66.40625 20.328125 58.90625 
Q 16.5 51.421875 16.5 36.375 
Q 16.5 21.390625 20.328125 13.890625 
Q 24.171875 6.390625 31.78125 6.390625 
Q 39.453125 6.390625 43.28125 13.890625 
Q 47.125 21.390625 47.125 36.375 
Q 47.125 51.421875 43.28125 58.90625 
Q 39.453125 66.40625 31.78125 66.40625 
z
M 31.78125 74.21875 
Q 44.046875 74.21875 50.515625 64.515625 
Q 56.984375 54.828125 56.984375 36.375 
Q 56.984375 17.96875 50.515625 8.265625 
Q 44.046875 -1.421875 31.78125 -1.421875 
Q 19.53125 -1.421875 13.0625 8.265625 
Q 6.59375 17.96875 6.59375 36.375 
Q 6.59375 54.828125 13.0625 64.515625 
Q 19.53125 74.21875 31.78125 74.21875 
z
" id="DejaVuSans-48"/>
      </defs>
      <g transform="translate(92.985308 644.598438)scale(0.1 -0.1)">
       <use xlink:href="#DejaVuSans-8722"/>
       <use x="83.789062" xlink:href="#DejaVuSans-49"/>
       <use x="147.412109" xlink:href="#DejaVuSans-53"/>
       <use x="211.035156" xlink:href="#DejaVuSans-46"/>
       <use x="242.822266" xlink:href="#DejaVuSans-48"/>
      </g>
     </g>
    </g>
    <g id="xtick_2">
     <g id="line2d_2">
      <g>
       <use style="stroke:#000000;stroke-width:0.8;" x="187.931842" xlink:href="#md32e1a976c" y="630"/>
      </g>
     </g>
     <g id="text_2">
      <!-- −12.5 -->
      <defs>
       <path d="M 19.1875 8.296875 
L 53.609375 8.296875 
L 53.609375 0 
L 7.328125 0 
L 7.328125 8.296875 
Q 12.9375 14.109375 22.625 23.890625 
Q 32.328125 33.6875 34.8125 36.53125 
Q 39.546875 41.84375 41.421875 45.53125 
Q 43.3125 49.21875 43.3125 52.78125 
Q 43.3125 58.59375 39.234375 62.25 
Q 35.15625 65.921875 28.609375 65.921875 
Q 23.96875 65.921875 18.8125 64.3125 
Q 13.671875 62.703125 7.8125 59.421875 
L 7.8125 69.390625 
Q 13.765625 71.78125 18.9375 73 
Q 24.125 74.21875 28.421875 74.21875 
Q 39.75 74.21875 46.484375 68.546875 
Q 53.21875 62.890625 53.21875 53.421875 
Q 53.21875 48.921875 51.53125 44.890625 
Q 49.859375 40.875 45.40625 35.40625 
Q 44.1875 33.984375 37.640625 27.21875 
Q 31.109375 20.453125 19.1875 8.296875 
z
" id="DejaVuSans-50"/>
      </defs>
      <g transform="translate(172.609186 644.598438)scale(0.1 -0.1)">
       <use xlink:href="#DejaVuSans-8722"/>
       <use x="83.789062" xlink:href="#DejaVuSans-49"/>
       <use x="147.412109" xlink:href="#DejaVuSans-50"/>
       <use x="211.035156" xlink:href="#DejaVuSans-46"/>
       <use x="242.822266" xlink:href="#DejaVuSans-53"/>
      </g>
     </g>
    </g>
    <g id="xtick_3">
     <g id="line2d_3">
      <g>
       <use style="stroke:#000000;stroke-width:0.8;" x="267.55572" xlink:href="#md32e1a976c" y="630"/>
      </g>
     </g>
     <g id="text_3">
      <!-- −10.0 -->
      <g transform="translate(252.233064 644.598438)scale(0.1 -0.1)">
       <use xlink:href="#DejaVuSans-8722"/>
       <use x="83.789062" xlink:href="#DejaVuSans-49"/>
       <use x="147.412109" xlink:href="#DejaVuSans-48"/>
       <use x="211.035156" xlink:href="#DejaVuSans-46"/>
       <use x="242.822266" xlink:href="#DejaVuSans-48"/>
      </g>
     </g>
    </g>
    <g id="xtick_4">
     <g id="line2d_4">
      <g>
       <use style="stroke:#000000;stroke-width:0.8;" x="347.179598" xlink:href="#md32e1a976c" y="630"/>
      </g>
     </g>
     <g id="text_4">
      <!-- −7.5 -->
      <defs>
       <path d="M 8.203125 72.90625 
L 55.078125 72.90625 
L 55.078125 68.703125 
L 28.609375 0 
L 18.3125 0 
L 43.21875 64.59375 
L 8.203125 64.59375 
z
" id="DejaVuSans-55"/>
      </defs>
      <g transform="translate(335.038192 644.598438)scale(0.1 -0.1)">
       <use xlink:href="#DejaVuSans-8722"/>
       <use x="83.789062" xlink:href="#DejaVuSans-55"/>
       <use x="147.412109" xlink:href="#DejaVuSans-46"/>
       <use x="179.199219" xlink:href="#DejaVuSans-53"/>
      </g>
     </g>
    </g>
    <g id="xtick_5">
     <g id="line2d_5">
      <g>
       <use style="stroke:#000000;stroke-width:0.8;" x="426.803476" xlink:href="#md32e1a976c" y="630"/>
      </g>
     </g>
     <g id="text_5">
      <!-- −5.0 -->
      <g transform="translate(414.66207 644.598438)scale(0.1 -0.1)">
       <use xlink:href="#DejaVuSans-8722"/>
       <use x="83.789062" xlink:href="#DejaVuSans-53"/>
       <use x="147.412109" xlink:href="#DejaVuSans-46"/>
       <use x="179.199219" xlink:href="#DejaVuSans-48"/>
      </g>
     </g>
    </g>
    <g id="xtick_6">
     <g id="line2d_6">
      <g>
       <use style="stroke:#000000;stroke-width:0.8;" x="506.427354" xlink:href="#md32e1a976c" y="630"/>
      </g>
     </g>
     <g id="text_6">
      <!-- −2.5 -->
      <g transform="translate(494.285948 644.598438)scale(0.1 -0.1)">
       <use xlink:href="#DejaVuSans-8722"/>
       <use x="83.789062" xlink:href="#DejaVuSans-50"/>
       <use x="147.412109" xlink:href="#DejaVuSans-46"/>
       <use x="179.199219" xlink:href="#DejaVuSans-53"/>
      </g>
     </g>
    </g>
    <g id="xtick_7">
     <g id="line2d_7">
      <g>
       <use style="stroke:#000000;stroke-width:0.8;" x="586.051232" xlink:href="#md32e1a976c" y="630"/>
      </g>
     </g>
     <g id="text_7">
      <!-- 0.0 -->
      <g transform="translate(578.09967 644.598438)scale(0.1 -0.1)">
       <use xlink:href="#DejaVuSans-48"/>
       <use x="63.623047" xlink:href="#DejaVuSans-46"/>
       <use x="95.410156" xlink:href="#DejaVuSans-48"/>
      </g>
     </g>
    </g>
    <g id="xtick_8">
     <g id="line2d_8">
      <g>
       <use style="stroke:#000000;stroke-width:0.8;" x="665.67511" xlink:href="#md32e1a976c" y="630"/>
      </g>
     </g>
     <g id="text_8">
      <!-- 2.5 -->
      <g transform="translate(657.723548 644.598438)scale(0.1 -0.1)">
       <use xlink:href="#DejaVuSans-50"/>
       <use x="63.623047" xlink:href="#DejaVuSans-46"/>
       <use x="95.410156" xlink:href="#DejaVuSans-53"/>
      </g>
     </g>
    </g>
    <g id="xtick_9">
     <g id="line2d_9">
      <g>
       <use style="stroke:#000000;stroke-width:0.8;" x="745.298988" xlink:href="#md32e1a976c" y="630"/>
      </g>
     </g>
     <g id="text_9">
      <!-- 5.0 -->
      <g transform="translate(737.347426 644.598438)scale(0.1 -0.1)">
       <use xlink:href="#DejaVuSans-53"/>
       <use x="63.623047" xlink:href="#DejaVuSans-46"/>
       <use x="95.410156" xlink:href="#DejaVuSans-48"/>
      </g>
     </g>
    </g>
   </g>
   <g id="matplotlib.axis_2">
    <g id="ytick_1">
     <g id="line2d_10">
      <defs>
       <path d="M 0 0 
L -3.5 0 
" id="mbc9e6dfd0b" style="stroke:#000000;stroke-width:0.8;"/>
      </defs>
      <g>
       <use style="stroke:#000000;stroke-width:0.8;" x="108" xlink:href="#mbc9e6dfd0b" y="630"/>
      </g>
     </g>
     <g id="text_10">
      <!-- 0 -->
      <g transform="translate(94.6375 633.799219)scale(0.1 -0.1)">
       <use xlink:href="#DejaVuSans-48"/>
      </g>
     </g>
    </g>
    <g id="ytick_2">
     <g id="line2d_11">
      <g>
       <use style="stroke:#000000;stroke-width:0.8;" x="108" xlink:href="#mbc9e6dfd0b" y="538.966965"/>
      </g>
     </g>
     <g id="text_11">
      <!-- 5 -->
      <g transform="translate(94.6375 542.766184)scale(0.1 -0.1)">
       <use xlink:href="#DejaVuSans-53"/>
      </g>
     </g>
    </g>
    <g id="ytick_3">
     <g id="line2d_12">
      <g>
       <use style="stroke:#000000;stroke-width:0.8;" x="108" xlink:href="#mbc9e6dfd0b" y="447.93393"/>
      </g>
     </g>
     <g id="text_12">
      <!-- 10 -->
      <g transform="translate(88.275 451.733148)scale(0.1 -0.1)">
       <use xlink:href="#DejaVuSans-49"/>
       <use x="63.623047" xlink:href="#DejaVuSans-48"/>
      </g>
     </g>
    </g>
    <g id="ytick_4">
     <g id="line2d_13">
      <g>
       <use style="stroke:#000000;stroke-width:0.8;" x="108" xlink:href="#mbc9e6dfd0b" y="356.900895"/>
      </g>
     </g>
     <g id="text_13">
      <!-- 15 -->
      <g transform="translate(88.275 360.700113)scale(0.1 -0.1)">
       <use xlink:href="#DejaVuSans-49"/>
       <use x="63.623047" xlink:href="#DejaVuSans-53"/>
      </g>
     </g>
    </g>
    <g id="ytick_5">
     <g id="line2d_14">
      <g>
       <use style="stroke:#000000;stroke-width:0.8;" x="108" xlink:href="#mbc9e6dfd0b" y="265.867859"/>
      </g>
     </g>
     <g id="text_14">
      <!-- 20 -->
      <g transform="translate(88.275 269.667078)scale(0.1 -0.1)">
       <use xlink:href="#DejaVuSans-50"/>
       <use x="63.623047" xlink:href="#DejaVuSans-48"/>
      </g>
     </g>
    </g>
    <g id="ytick_6">
     <g id="line2d_15">
      <g>
       <use style="stroke:#000000;stroke-width:0.8;" x="108" xlink:href="#mbc9e6dfd0b" y="174.834824"/>
      </g>
     </g>
     <g id="text_15">
      <!-- 25 -->
      <g transform="translate(88.275 178.634043)scale(0.1 -0.1)">
       <use xlink:href="#DejaVuSans-50"/>
       <use x="63.623047" xlink:href="#DejaVuSans-53"/>
      </g>
     </g>
    </g>
   </g>
   <g id="patch_203">
    <path d="M 108 630 
L 108 86.4 
" style="fill:none;stroke:#000000;stroke-linecap:square;stroke-linejoin:miter;stroke-width:0.8;"/>
   </g>
   <g id="patch_204">
    <path d="M 777.6 630 
L 777.6 86.4 
" style="fill:none;stroke:#000000;stroke-linecap:square;stroke-linejoin:miter;stroke-width:0.8;"/>
   </g>
   <g id="patch_205">
    <path d="M 108 630 
L 777.6 630 
" style="fill:none;stroke:#000000;stroke-linecap:square;stroke-linejoin:miter;stroke-width:0.8;"/>
   </g>
   <g id="patch_206">
    <path d="M 108 86.4 
L 777.6 86.4 
" style="fill:none;stroke:#000000;stroke-linecap:square;stroke-linejoin:miter;stroke-width:0.8;"/>
   </g>
   <g id="text_16">
    <!-- In-Out Nodes strength last layer -->
    <defs>
     <path d="M 9.8125 72.90625 
L 19.671875 72.90625 
L 19.671875 0 
L 9.8125 0 
z
" id="DejaVuSans-73"/>
     <path d="M 54.890625 33.015625 
L 54.890625 0 
L 45.90625 0 
L 45.90625 32.71875 
Q 45.90625 40.484375 42.875 44.328125 
Q 39.84375 48.1875 33.796875 48.1875 
Q 26.515625 48.1875 22.3125 43.546875 
Q 18.109375 38.921875 18.109375 30.90625 
L 18.109375 0 
L 9.078125 0 
L 9.078125 54.6875 
L 18.109375 54.6875 
L 18.109375 46.1875 
Q 21.34375 51.125 25.703125 53.5625 
Q 30.078125 56 35.796875 56 
Q 45.21875 56 50.046875 50.171875 
Q 54.890625 44.34375 54.890625 33.015625 
z
" id="DejaVuSans-110"/>
     <path d="M 4.890625 31.390625 
L 31.203125 31.390625 
L 31.203125 23.390625 
L 4.890625 23.390625 
z
" id="DejaVuSans-45"/>
     <path d="M 39.40625 66.21875 
Q 28.65625 66.21875 22.328125 58.203125 
Q 16.015625 50.203125 16.015625 36.375 
Q 16.015625 22.609375 22.328125 14.59375 
Q 28.65625 6.59375 39.40625 6.59375 
Q 50.140625 6.59375 56.421875 14.59375 
Q 62.703125 22.609375 62.703125 36.375 
Q 62.703125 50.203125 56.421875 58.203125 
Q 50.140625 66.21875 39.40625 66.21875 
z
M 39.40625 74.21875 
Q 54.734375 74.21875 63.90625 63.9375 
Q 73.09375 53.65625 73.09375 36.375 
Q 73.09375 19.140625 63.90625 8.859375 
Q 54.734375 -1.421875 39.40625 -1.421875 
Q 24.03125 -1.421875 14.8125 8.828125 
Q 5.609375 19.09375 5.609375 36.375 
Q 5.609375 53.65625 14.8125 63.9375 
Q 24.03125 74.21875 39.40625 74.21875 
z
" id="DejaVuSans-79"/>
     <path d="M 8.5 21.578125 
L 8.5 54.6875 
L 17.484375 54.6875 
L 17.484375 21.921875 
Q 17.484375 14.15625 20.5 10.265625 
Q 23.53125 6.390625 29.59375 6.390625 
Q 36.859375 6.390625 41.078125 11.03125 
Q 45.3125 15.671875 45.3125 23.6875 
L 45.3125 54.6875 
L 54.296875 54.6875 
L 54.296875 0 
L 45.3125 0 
L 45.3125 8.40625 
Q 42.046875 3.421875 37.71875 1 
Q 33.40625 -1.421875 27.6875 -1.421875 
Q 18.265625 -1.421875 13.375 4.4375 
Q 8.5 10.296875 8.5 21.578125 
z
M 31.109375 56 
z
" id="DejaVuSans-117"/>
     <path d="M 18.3125 70.21875 
L 18.3125 54.6875 
L 36.8125 54.6875 
L 36.8125 47.703125 
L 18.3125 47.703125 
L 18.3125 18.015625 
Q 18.3125 11.328125 20.140625 9.421875 
Q 21.96875 7.515625 27.59375 7.515625 
L 36.8125 7.515625 
L 36.8125 0 
L 27.59375 0 
Q 17.1875 0 13.234375 3.875 
Q 9.28125 7.765625 9.28125 18.015625 
L 9.28125 47.703125 
L 2.6875 47.703125 
L 2.6875 54.6875 
L 9.28125 54.6875 
L 9.28125 70.21875 
z
" id="DejaVuSans-116"/>
     <path id="DejaVuSans-32"/>
     <path d="M 9.8125 72.90625 
L 23.09375 72.90625 
L 55.421875 11.921875 
L 55.421875 72.90625 
L 64.984375 72.90625 
L 64.984375 0 
L 51.703125 0 
L 19.390625 60.984375 
L 19.390625 0 
L 9.8125 0 
z
" id="DejaVuSans-78"/>
     <path d="M 30.609375 48.390625 
Q 23.390625 48.390625 19.1875 42.75 
Q 14.984375 37.109375 14.984375 27.296875 
Q 14.984375 17.484375 19.15625 11.84375 
Q 23.34375 6.203125 30.609375 6.203125 
Q 37.796875 6.203125 41.984375 11.859375 
Q 46.1875 17.53125 46.1875 27.296875 
Q 46.1875 37.015625 41.984375 42.703125 
Q 37.796875 48.390625 30.609375 48.390625 
z
M 30.609375 56 
Q 42.328125 56 49.015625 48.375 
Q 55.71875 40.765625 55.71875 27.296875 
Q 55.71875 13.875 49.015625 6.21875 
Q 42.328125 -1.421875 30.609375 -1.421875 
Q 18.84375 -1.421875 12.171875 6.21875 
Q 5.515625 13.875 5.515625 27.296875 
Q 5.515625 40.765625 12.171875 48.375 
Q 18.84375 56 30.609375 56 
z
" id="DejaVuSans-111"/>
     <path d="M 45.40625 46.390625 
L 45.40625 75.984375 
L 54.390625 75.984375 
L 54.390625 0 
L 45.40625 0 
L 45.40625 8.203125 
Q 42.578125 3.328125 38.25 0.953125 
Q 33.9375 -1.421875 27.875 -1.421875 
Q 17.96875 -1.421875 11.734375 6.484375 
Q 5.515625 14.40625 5.515625 27.296875 
Q 5.515625 40.1875 11.734375 48.09375 
Q 17.96875 56 27.875 56 
Q 33.9375 56 38.25 53.625 
Q 42.578125 51.265625 45.40625 46.390625 
z
M 14.796875 27.296875 
Q 14.796875 17.390625 18.875 11.75 
Q 22.953125 6.109375 30.078125 6.109375 
Q 37.203125 6.109375 41.296875 11.75 
Q 45.40625 17.390625 45.40625 27.296875 
Q 45.40625 37.203125 41.296875 42.84375 
Q 37.203125 48.484375 30.078125 48.484375 
Q 22.953125 48.484375 18.875 42.84375 
Q 14.796875 37.203125 14.796875 27.296875 
z
" id="DejaVuSans-100"/>
     <path d="M 56.203125 29.59375 
L 56.203125 25.203125 
L 14.890625 25.203125 
Q 15.484375 15.921875 20.484375 11.0625 
Q 25.484375 6.203125 34.421875 6.203125 
Q 39.59375 6.203125 44.453125 7.46875 
Q 49.3125 8.734375 54.109375 11.28125 
L 54.109375 2.78125 
Q 49.265625 0.734375 44.1875 -0.34375 
Q 39.109375 -1.421875 33.890625 -1.421875 
Q 20.796875 -1.421875 13.15625 6.1875 
Q 5.515625 13.8125 5.515625 26.8125 
Q 5.515625 40.234375 12.765625 48.109375 
Q 20.015625 56 32.328125 56 
Q 43.359375 56 49.78125 48.890625 
Q 56.203125 41.796875 56.203125 29.59375 
z
M 47.21875 32.234375 
Q 47.125 39.59375 43.09375 43.984375 
Q 39.0625 48.390625 32.421875 48.390625 
Q 24.90625 48.390625 20.390625 44.140625 
Q 15.875 39.890625 15.1875 32.171875 
z
" id="DejaVuSans-101"/>
     <path d="M 44.28125 53.078125 
L 44.28125 44.578125 
Q 40.484375 46.53125 36.375 47.5 
Q 32.28125 48.484375 27.875 48.484375 
Q 21.1875 48.484375 17.84375 46.4375 
Q 14.5 44.390625 14.5 40.28125 
Q 14.5 37.15625 16.890625 35.375 
Q 19.28125 33.59375 26.515625 31.984375 
L 29.59375 31.296875 
Q 39.15625 29.25 43.1875 25.515625 
Q 47.21875 21.78125 47.21875 15.09375 
Q 47.21875 7.46875 41.1875 3.015625 
Q 35.15625 -1.421875 24.609375 -1.421875 
Q 20.21875 -1.421875 15.453125 -0.5625 
Q 10.6875 0.296875 5.421875 2 
L 5.421875 11.28125 
Q 10.40625 8.6875 15.234375 7.390625 
Q 20.0625 6.109375 24.8125 6.109375 
Q 31.15625 6.109375 34.5625 8.28125 
Q 37.984375 10.453125 37.984375 14.40625 
Q 37.984375 18.0625 35.515625 20.015625 
Q 33.0625 21.96875 24.703125 23.78125 
L 21.578125 24.515625 
Q 13.234375 26.265625 9.515625 29.90625 
Q 5.8125 33.546875 5.8125 39.890625 
Q 5.8125 47.609375 11.28125 51.796875 
Q 16.75 56 26.8125 56 
Q 31.78125 56 36.171875 55.265625 
Q 40.578125 54.546875 44.28125 53.078125 
z
" id="DejaVuSans-115"/>
     <path d="M 41.109375 46.296875 
Q 39.59375 47.171875 37.8125 47.578125 
Q 36.03125 48 33.890625 48 
Q 26.265625 48 22.1875 43.046875 
Q 18.109375 38.09375 18.109375 28.8125 
L 18.109375 0 
L 9.078125 0 
L 9.078125 54.6875 
L 18.109375 54.6875 
L 18.109375 46.1875 
Q 20.953125 51.171875 25.484375 53.578125 
Q 30.03125 56 36.53125 56 
Q 37.453125 56 38.578125 55.875 
Q 39.703125 55.765625 41.0625 55.515625 
z
" id="DejaVuSans-114"/>
     <path d="M 45.40625 27.984375 
Q 45.40625 37.75 41.375 43.109375 
Q 37.359375 48.484375 30.078125 48.484375 
Q 22.859375 48.484375 18.828125 43.109375 
Q 14.796875 37.75 14.796875 27.984375 
Q 14.796875 18.265625 18.828125 12.890625 
Q 22.859375 7.515625 30.078125 7.515625 
Q 37.359375 7.515625 41.375 12.890625 
Q 45.40625 18.265625 45.40625 27.984375 
z
M 54.390625 6.78125 
Q 54.390625 -7.171875 48.1875 -13.984375 
Q 42 -20.796875 29.203125 -20.796875 
Q 24.46875 -20.796875 20.265625 -20.09375 
Q 16.0625 -19.390625 12.109375 -17.921875 
L 12.109375 -9.1875 
Q 16.0625 -11.328125 19.921875 -12.34375 
Q 23.78125 -13.375 27.78125 -13.375 
Q 36.625 -13.375 41.015625 -8.765625 
Q 45.40625 -4.15625 45.40625 5.171875 
L 45.40625 9.625 
Q 42.625 4.78125 38.28125 2.390625 
Q 33.9375 0 27.875 0 
Q 17.828125 0 11.671875 7.65625 
Q 5.515625 15.328125 5.515625 27.984375 
Q 5.515625 40.671875 11.671875 48.328125 
Q 17.828125 56 27.875 56 
Q 33.9375 56 38.28125 53.609375 
Q 42.625 51.21875 45.40625 46.390625 
L 45.40625 54.6875 
L 54.390625 54.6875 
z
" id="DejaVuSans-103"/>
     <path d="M 54.890625 33.015625 
L 54.890625 0 
L 45.90625 0 
L 45.90625 32.71875 
Q 45.90625 40.484375 42.875 44.328125 
Q 39.84375 48.1875 33.796875 48.1875 
Q 26.515625 48.1875 22.3125 43.546875 
Q 18.109375 38.921875 18.109375 30.90625 
L 18.109375 0 
L 9.078125 0 
L 9.078125 75.984375 
L 18.109375 75.984375 
L 18.109375 46.1875 
Q 21.34375 51.125 25.703125 53.5625 
Q 30.078125 56 35.796875 56 
Q 45.21875 56 50.046875 50.171875 
Q 54.890625 44.34375 54.890625 33.015625 
z
" id="DejaVuSans-104"/>
     <path d="M 9.421875 75.984375 
L 18.40625 75.984375 
L 18.40625 0 
L 9.421875 0 
z
" id="DejaVuSans-108"/>
     <path d="M 34.28125 27.484375 
Q 23.390625 27.484375 19.1875 25 
Q 14.984375 22.515625 14.984375 16.5 
Q 14.984375 11.71875 18.140625 8.90625 
Q 21.296875 6.109375 26.703125 6.109375 
Q 34.1875 6.109375 38.703125 11.40625 
Q 43.21875 16.703125 43.21875 25.484375 
L 43.21875 27.484375 
z
M 52.203125 31.203125 
L 52.203125 0 
L 43.21875 0 
L 43.21875 8.296875 
Q 40.140625 3.328125 35.546875 0.953125 
Q 30.953125 -1.421875 24.3125 -1.421875 
Q 15.921875 -1.421875 10.953125 3.296875 
Q 6 8.015625 6 15.921875 
Q 6 25.140625 12.171875 29.828125 
Q 18.359375 34.515625 30.609375 34.515625 
L 43.21875 34.515625 
L 43.21875 35.40625 
Q 43.21875 41.609375 39.140625 45 
Q 35.0625 48.390625 27.6875 48.390625 
Q 23 48.390625 18.546875 47.265625 
Q 14.109375 46.140625 10.015625 43.890625 
L 10.015625 52.203125 
Q 14.9375 54.109375 19.578125 55.046875 
Q 24.21875 56 28.609375 56 
Q 40.484375 56 46.34375 49.84375 
Q 52.203125 43.703125 52.203125 31.203125 
z
" id="DejaVuSans-97"/>
     <path d="M 32.171875 -5.078125 
Q 28.375 -14.84375 24.75 -17.8125 
Q 21.140625 -20.796875 15.09375 -20.796875 
L 7.90625 -20.796875 
L 7.90625 -13.28125 
L 13.1875 -13.28125 
Q 16.890625 -13.28125 18.9375 -11.515625 
Q 21 -9.765625 23.484375 -3.21875 
L 25.09375 0.875 
L 2.984375 54.6875 
L 12.5 54.6875 
L 29.59375 11.921875 
L 46.6875 54.6875 
L 56.203125 54.6875 
z
" id="DejaVuSans-121"/>
    </defs>
    <g transform="translate(346.493438 80.4)scale(0.12 -0.12)">
     <use xlink:href="#DejaVuSans-73"/>
     <use x="29.492188" xlink:href="#DejaVuSans-110"/>
     <use x="92.871094" xlink:href="#DejaVuSans-45"/>
     <use x="128.986328" xlink:href="#DejaVuSans-79"/>
     <use x="207.697266" xlink:href="#DejaVuSans-117"/>
     <use x="271.076172" xlink:href="#DejaVuSans-116"/>
     <use x="310.285156" xlink:href="#DejaVuSans-32"/>
     <use x="342.072266" xlink:href="#DejaVuSans-78"/>
     <use x="416.876953" xlink:href="#DejaVuSans-111"/>
     <use x="478.058594" xlink:href="#DejaVuSans-100"/>
     <use x="541.535156" xlink:href="#DejaVuSans-101"/>
     <use x="603.058594" xlink:href="#DejaVuSans-115"/>
     <use x="655.158203" xlink:href="#DejaVuSans-32"/>
     <use x="686.945312" xlink:href="#DejaVuSans-115"/>
     <use x="739.044922" xlink:href="#DejaVuSans-116"/>
     <use x="778.253906" xlink:href="#DejaVuSans-114"/>
     <use x="819.335938" xlink:href="#DejaVuSans-101"/>
     <use x="880.859375" xlink:href="#DejaVuSans-110"/>
     <use x="944.238281" xlink:href="#DejaVuSans-103"/>
     <use x="1007.714844" xlink:href="#DejaVuSans-116"/>
     <use x="1046.923828" xlink:href="#DejaVuSans-104"/>
     <use x="1110.302734" xlink:href="#DejaVuSans-32"/>
     <use x="1142.089844" xlink:href="#DejaVuSans-108"/>
     <use x="1169.873047" xlink:href="#DejaVuSans-97"/>
     <use x="1231.152344" xlink:href="#DejaVuSans-115"/>
     <use x="1283.251953" xlink:href="#DejaVuSans-116"/>
     <use x="1322.460938" xlink:href="#DejaVuSans-32"/>
     <use x="1354.248047" xlink:href="#DejaVuSans-108"/>
     <use x="1382.03125" xlink:href="#DejaVuSans-97"/>
     <use x="1443.310547" xlink:href="#DejaVuSans-121"/>
     <use x="1502.490234" xlink:href="#DejaVuSans-101"/>
     <use x="1564.013672" xlink:href="#DejaVuSans-114"/>
    </g>
   </g>
   <g id="legend_1">
    <g id="patch_207">
     <path d="M 664.101562 154.225 
L 770.6 154.225 
Q 772.6 154.225 772.6 152.225 
L 772.6 93.4 
Q 772.6 91.4 770.6 91.4 
L 664.101562 91.4 
Q 662.101562 91.4 662.101562 93.4 
L 662.101562 152.225 
Q 662.101562 154.225 664.101562 154.225 
z
" style="fill:#ffffff;opacity:0.8;stroke:#cccccc;stroke-linejoin:miter;"/>
    </g>
    <g id="patch_208">
     <path d="M 666.101562 102.998437 
L 686.101562 102.998437 
L 686.101562 95.998437 
L 666.101562 95.998437 
z
" style="fill:#ff0000;opacity:0.5;"/>
    </g>
    <g id="text_17">
     <!-- s_in first gen. -->
     <defs>
      <path d="M 50.984375 -16.609375 
L 50.984375 -23.578125 
L -0.984375 -23.578125 
L -0.984375 -16.609375 
z
" id="DejaVuSans-95"/>
      <path d="M 9.421875 54.6875 
L 18.40625 54.6875 
L 18.40625 0 
L 9.421875 0 
z
M 9.421875 75.984375 
L 18.40625 75.984375 
L 18.40625 64.59375 
L 9.421875 64.59375 
z
" id="DejaVuSans-105"/>
      <path d="M 37.109375 75.984375 
L 37.109375 68.5 
L 28.515625 68.5 
Q 23.6875 68.5 21.796875 66.546875 
Q 19.921875 64.59375 19.921875 59.515625 
L 19.921875 54.6875 
L 34.71875 54.6875 
L 34.71875 47.703125 
L 19.921875 47.703125 
L 19.921875 0 
L 10.890625 0 
L 10.890625 47.703125 
L 2.296875 47.703125 
L 2.296875 54.6875 
L 10.890625 54.6875 
L 10.890625 58.5 
Q 10.890625 67.625 15.140625 71.796875 
Q 19.390625 75.984375 28.609375 75.984375 
z
" id="DejaVuSans-102"/>
     </defs>
     <g transform="translate(694.101562 102.998437)scale(0.1 -0.1)">
      <use xlink:href="#DejaVuSans-115"/>
      <use x="52.099609" xlink:href="#DejaVuSans-95"/>
      <use x="102.099609" xlink:href="#DejaVuSans-105"/>
      <use x="129.882812" xlink:href="#DejaVuSans-110"/>
      <use x="193.261719" xlink:href="#DejaVuSans-32"/>
      <use x="225.048828" xlink:href="#DejaVuSans-102"/>
      <use x="260.253906" xlink:href="#DejaVuSans-105"/>
      <use x="288.037109" xlink:href="#DejaVuSans-114"/>
      <use x="329.150391" xlink:href="#DejaVuSans-115"/>
      <use x="381.25" xlink:href="#DejaVuSans-116"/>
      <use x="420.458984" xlink:href="#DejaVuSans-32"/>
      <use x="452.246094" xlink:href="#DejaVuSans-103"/>
      <use x="515.722656" xlink:href="#DejaVuSans-101"/>
      <use x="577.246094" xlink:href="#DejaVuSans-110"/>
      <use x="640.625" xlink:href="#DejaVuSans-46"/>
     </g>
    </g>
    <g id="patch_209">
     <path d="M 666.101562 117.954687 
L 686.101562 117.954687 
L 686.101562 110.954687 
L 666.101562 110.954687 
z
" style="fill:#ffff00;opacity:0.5;"/>
    </g>
    <g id="text_18">
     <!-- s_in last gen. -->
     <g transform="translate(694.101562 117.954687)scale(0.1 -0.1)">
      <use xlink:href="#DejaVuSans-115"/>
      <use x="52.099609" xlink:href="#DejaVuSans-95"/>
      <use x="102.099609" xlink:href="#DejaVuSans-105"/>
      <use x="129.882812" xlink:href="#DejaVuSans-110"/>
      <use x="193.261719" xlink:href="#DejaVuSans-32"/>
      <use x="225.048828" xlink:href="#DejaVuSans-108"/>
      <use x="252.832031" xlink:href="#DejaVuSans-97"/>
      <use x="314.111328" xlink:href="#DejaVuSans-115"/>
      <use x="366.210938" xlink:href="#DejaVuSans-116"/>
      <use x="405.419922" xlink:href="#DejaVuSans-32"/>
      <use x="437.207031" xlink:href="#DejaVuSans-103"/>
      <use x="500.683594" xlink:href="#DejaVuSans-101"/>
      <use x="562.207031" xlink:href="#DejaVuSans-110"/>
      <use x="625.585938" xlink:href="#DejaVuSans-46"/>
     </g>
    </g>
    <g id="patch_210">
     <path d="M 666.101562 132.910937 
L 686.101562 132.910937 
L 686.101562 125.910937 
L 666.101562 125.910937 
z
" style="fill:#0000ff;opacity:0.5;"/>
    </g>
    <g id="text_19">
     <!-- s_out first gen. -->
     <g transform="translate(694.101562 132.910937)scale(0.1 -0.1)">
      <use xlink:href="#DejaVuSans-115"/>
      <use x="52.099609" xlink:href="#DejaVuSans-95"/>
      <use x="102.099609" xlink:href="#DejaVuSans-111"/>
      <use x="163.28125" xlink:href="#DejaVuSans-117"/>
      <use x="226.660156" xlink:href="#DejaVuSans-116"/>
      <use x="265.869141" xlink:href="#DejaVuSans-32"/>
      <use x="297.65625" xlink:href="#DejaVuSans-102"/>
      <use x="332.861328" xlink:href="#DejaVuSans-105"/>
      <use x="360.644531" xlink:href="#DejaVuSans-114"/>
      <use x="401.757812" xlink:href="#DejaVuSans-115"/>
      <use x="453.857422" xlink:href="#DejaVuSans-116"/>
      <use x="493.066406" xlink:href="#DejaVuSans-32"/>
      <use x="524.853516" xlink:href="#DejaVuSans-103"/>
      <use x="588.330078" xlink:href="#DejaVuSans-101"/>
      <use x="649.853516" xlink:href="#DejaVuSans-110"/>
      <use x="713.232422" xlink:href="#DejaVuSans-46"/>
     </g>
    </g>
    <g id="patch_211">
     <path d="M 666.101562 147.867187 
L 686.101562 147.867187 
L 686.101562 140.867187 
L 666.101562 140.867187 
z
" style="fill:#008000;opacity:0.5;"/>
    </g>
    <g id="text_20">
     <!-- s_out last gen. -->
     <g transform="translate(694.101562 147.867187)scale(0.1 -0.1)">
      <use xlink:href="#DejaVuSans-115"/>
      <use x="52.099609" xlink:href="#DejaVuSans-95"/>
      <use x="102.099609" xlink:href="#DejaVuSans-111"/>
      <use x="163.28125" xlink:href="#DejaVuSans-117"/>
      <use x="226.660156" xlink:href="#DejaVuSans-116"/>
      <use x="265.869141" xlink:href="#DejaVuSans-32"/>
      <use x="297.65625" xlink:href="#DejaVuSans-108"/>
      <use x="325.439453" xlink:href="#DejaVuSans-97"/>
      <use x="386.71875" xlink:href="#DejaVuSans-115"/>
      <use x="438.818359" xlink:href="#DejaVuSans-116"/>
      <use x="478.027344" xlink:href="#DejaVuSans-32"/>
      <use x="509.814453" xlink:href="#DejaVuSans-103"/>
      <use x="573.291016" xlink:href="#DejaVuSans-101"/>
      <use x="634.814453" xlink:href="#DejaVuSans-110"/>
      <use x="698.193359" xlink:href="#DejaVuSans-46"/>
     </g>
    </g>
   </g>
  </g>
 </g>
 <defs>
  <clipPath id="p844640f076">
   <rect height="543.6" width="669.6" x="108" y="86.4"/>
  </clipPath>
 </defs>
</svg>
