<?xml version="1.0" encoding="utf-8" standalone="no"?>
<!DOCTYPE svg PUBLIC "-//W3C//DTD SVG 1.1//EN"
  "http://www.w3.org/Graphics/SVG/1.1/DTD/svg11.dtd">
<!-- Created with matplotlib (https://matplotlib.org/) -->
<svg height="720pt" version="1.1" viewBox="0 0 864 720" width="864pt" xmlns="http://www.w3.org/2000/svg" xmlns:xlink="http://www.w3.org/1999/xlink">
 <defs>
  <style type="text/css">
*{stroke-linecap:butt;stroke-linejoin:round;white-space:pre;}
  </style>
 </defs>
 <g id="figure_1">
  <g id="patch_1">
   <path d="M 0 720 
L 864 720 
L 864 0 
L 0 0 
z
" style="fill:#ffffff;"/>
  </g>
  <g id="axes_1">
   <g id="patch_2">
    <path d="M 108 630 
L 777.6 630 
L 777.6 86.4 
L 108 86.4 
z
" style="fill:#ffffff;"/>
   </g>
   <g id="patch_3">
    <path clip-path="url(#pbb3c6a3380)" d="M 138.436364 630 
L 150.610909 630 
L 150.610909 628.973474 
L 138.436364 628.973474 
z
" style="fill:#ff0000;opacity:0.5;"/>
   </g>
   <g id="patch_4">
    <path clip-path="url(#pbb3c6a3380)" d="M 150.610909 630 
L 162.785455 630 
L 162.785455 630 
L 150.610909 630 
z
" style="fill:#ff0000;opacity:0.5;"/>
   </g>
   <g id="patch_5">
    <path clip-path="url(#pbb3c6a3380)" d="M 162.785455 630 
L 174.96 630 
L 174.96 630 
L 162.785455 630 
z
" style="fill:#ff0000;opacity:0.5;"/>
   </g>
   <g id="patch_6">
    <path clip-path="url(#pbb3c6a3380)" d="M 174.96 630 
L 187.134545 630 
L 187.134545 628.973474 
L 174.96 628.973474 
z
" style="fill:#ff0000;opacity:0.5;"/>
   </g>
   <g id="patch_7">
    <path clip-path="url(#pbb3c6a3380)" d="M 187.134545 630 
L 199.309091 630 
L 199.309091 630 
L 187.134545 630 
z
" style="fill:#ff0000;opacity:0.5;"/>
   </g>
   <g id="patch_8">
    <path clip-path="url(#pbb3c6a3380)" d="M 199.309091 630 
L 211.483636 630 
L 211.483636 630 
L 199.309091 630 
z
" style="fill:#ff0000;opacity:0.5;"/>
   </g>
   <g id="patch_9">
    <path clip-path="url(#pbb3c6a3380)" d="M 211.483636 630 
L 223.658182 630 
L 223.658182 625.893896 
L 211.483636 625.893896 
z
" style="fill:#ff0000;opacity:0.5;"/>
   </g>
   <g id="patch_10">
    <path clip-path="url(#pbb3c6a3380)" d="M 223.658182 630 
L 235.832727 630 
L 235.832727 621.787792 
L 223.658182 621.787792 
z
" style="fill:#ff0000;opacity:0.5;"/>
   </g>
   <g id="patch_11">
    <path clip-path="url(#pbb3c6a3380)" d="M 235.832727 630 
L 248.007273 630 
L 248.007273 618.708215 
L 235.832727 618.708215 
z
" style="fill:#ff0000;opacity:0.5;"/>
   </g>
   <g id="patch_12">
    <path clip-path="url(#pbb3c6a3380)" d="M 248.007273 630 
L 260.181818 630 
L 260.181818 618.708215 
L 248.007273 618.708215 
z
" style="fill:#ff0000;opacity:0.5;"/>
   </g>
   <g id="patch_13">
    <path clip-path="url(#pbb3c6a3380)" d="M 260.181818 630 
L 272.356364 630 
L 272.356364 611.522533 
L 260.181818 611.522533 
z
" style="fill:#ff0000;opacity:0.5;"/>
   </g>
   <g id="patch_14">
    <path clip-path="url(#pbb3c6a3380)" d="M 272.356364 630 
L 284.530909 630 
L 284.530909 604.336851 
L 272.356364 604.336851 
z
" style="fill:#ff0000;opacity:0.5;"/>
   </g>
   <g id="patch_15">
    <path clip-path="url(#pbb3c6a3380)" d="M 284.530909 630 
L 296.705455 630 
L 296.705455 588.938962 
L 284.530909 588.938962 
z
" style="fill:#ff0000;opacity:0.5;"/>
   </g>
   <g id="patch_16">
    <path clip-path="url(#pbb3c6a3380)" d="M 296.705455 630 
L 308.88 630 
L 308.88 572.514547 
L 296.705455 572.514547 
z
" style="fill:#ff0000;opacity:0.5;"/>
   </g>
   <g id="patch_17">
    <path clip-path="url(#pbb3c6a3380)" d="M 308.88 630 
L 321.054545 630 
L 321.054545 557.116658 
L 308.88 557.116658 
z
" style="fill:#ff0000;opacity:0.5;"/>
   </g>
   <g id="patch_18">
    <path clip-path="url(#pbb3c6a3380)" d="M 321.054545 630 
L 333.229091 630 
L 333.229091 538.639191 
L 321.054545 538.639191 
z
" style="fill:#ff0000;opacity:0.5;"/>
   </g>
   <g id="patch_19">
    <path clip-path="url(#pbb3c6a3380)" d="M 333.229091 630 
L 345.403636 630 
L 345.403636 523.241301 
L 333.229091 523.241301 
z
" style="fill:#ff0000;opacity:0.5;"/>
   </g>
   <g id="patch_20">
    <path clip-path="url(#pbb3c6a3380)" d="M 345.403636 630 
L 357.578182 630 
L 357.578182 467.8089 
L 345.403636 467.8089 
z
" style="fill:#ff0000;opacity:0.5;"/>
   </g>
   <g id="patch_21">
    <path clip-path="url(#pbb3c6a3380)" d="M 357.578182 630 
L 369.752727 630 
L 369.752727 430.853966 
L 357.578182 430.853966 
z
" style="fill:#ff0000;opacity:0.5;"/>
   </g>
   <g id="patch_22">
    <path clip-path="url(#pbb3c6a3380)" d="M 369.752727 630 
L 381.927273 630 
L 381.927273 358.99715 
L 369.752727 358.99715 
z
" style="fill:#ff0000;opacity:0.5;"/>
   </g>
   <g id="patch_23">
    <path clip-path="url(#pbb3c6a3380)" d="M 381.927273 630 
L 394.101818 630 
L 394.101818 353.86452 
L 381.927273 353.86452 
z
" style="fill:#ff0000;opacity:0.5;"/>
   </g>
   <g id="patch_24">
    <path clip-path="url(#pbb3c6a3380)" d="M 394.101818 630 
L 406.276364 630 
L 406.276364 313.830008 
L 394.101818 313.830008 
z
" style="fill:#ff0000;opacity:0.5;"/>
   </g>
   <g id="patch_25">
    <path clip-path="url(#pbb3c6a3380)" d="M 406.276364 630 
L 418.450909 630 
L 418.450909 253.264977 
L 406.276364 253.264977 
z
" style="fill:#ff0000;opacity:0.5;"/>
   </g>
   <g id="patch_26">
    <path clip-path="url(#pbb3c6a3380)" d="M 418.450909 630 
L 430.625455 630 
L 430.625455 230.681406 
L 418.450909 230.681406 
z
" style="fill:#ff0000;opacity:0.5;"/>
   </g>
   <g id="patch_27">
    <path clip-path="url(#pbb3c6a3380)" d="M 430.625455 630 
L 442.8 630 
L 442.8 169.089849 
L 430.625455 169.089849 
z
" style="fill:#ff0000;opacity:0.5;"/>
   </g>
   <g id="patch_28">
    <path clip-path="url(#pbb3c6a3380)" d="M 442.8 630 
L 454.974545 630 
L 454.974545 164.983746 
L 442.8 164.983746 
z
" style="fill:#ff0000;opacity:0.5;"/>
   </g>
   <g id="patch_29">
    <path clip-path="url(#pbb3c6a3380)" d="M 454.974545 630 
L 467.149091 630 
L 467.149091 123.922708 
L 454.974545 123.922708 
z
" style="fill:#ff0000;opacity:0.5;"/>
   </g>
   <g id="patch_30">
    <path clip-path="url(#pbb3c6a3380)" d="M 467.149091 630 
L 479.323636 630 
L 479.323636 138.294071 
L 467.149091 138.294071 
z
" style="fill:#ff0000;opacity:0.5;"/>
   </g>
   <g id="patch_31">
    <path clip-path="url(#pbb3c6a3380)" d="M 479.323636 630 
L 491.498182 630 
L 491.498182 115.7105 
L 479.323636 115.7105 
z
" style="fill:#ff0000;opacity:0.5;"/>
   </g>
   <g id="patch_32">
    <path clip-path="url(#pbb3c6a3380)" d="M 491.498182 630 
L 503.672727 630 
L 503.672727 163.95722 
L 491.498182 163.95722 
z
" style="fill:#ff0000;opacity:0.5;"/>
   </g>
   <g id="patch_33">
    <path clip-path="url(#pbb3c6a3380)" d="M 503.672727 630 
L 515.847273 630 
L 515.847273 175.249005 
L 503.672727 175.249005 
z
" style="fill:#ff0000;opacity:0.5;"/>
   </g>
   <g id="patch_34">
    <path clip-path="url(#pbb3c6a3380)" d="M 515.847273 630 
L 528.021818 630 
L 528.021818 214.256991 
L 515.847273 214.256991 
z
" style="fill:#ff0000;opacity:0.5;"/>
   </g>
   <g id="patch_35">
    <path clip-path="url(#pbb3c6a3380)" d="M 528.021818 630 
L 540.196364 630 
L 540.196364 237.867088 
L 528.021818 237.867088 
z
" style="fill:#ff0000;opacity:0.5;"/>
   </g>
   <g id="patch_36">
    <path clip-path="url(#pbb3c6a3380)" d="M 540.196364 630 
L 552.370909 630 
L 552.370909 283.03423 
L 540.196364 283.03423 
z
" style="fill:#ff0000;opacity:0.5;"/>
   </g>
   <g id="patch_37">
    <path clip-path="url(#pbb3c6a3380)" d="M 552.370909 630 
L 564.545455 630 
L 564.545455 290.219911 
L 552.370909 290.219911 
z
" style="fill:#ff0000;opacity:0.5;"/>
   </g>
   <g id="patch_38">
    <path clip-path="url(#pbb3c6a3380)" d="M 564.545455 630 
L 576.72 630 
L 576.72 365.156306 
L 564.545455 365.156306 
z
" style="fill:#ff0000;opacity:0.5;"/>
   </g>
   <g id="patch_39">
    <path clip-path="url(#pbb3c6a3380)" d="M 576.72 630 
L 588.894545 630 
L 588.894545 432.907018 
L 576.72 432.907018 
z
" style="fill:#ff0000;opacity:0.5;"/>
   </g>
   <g id="patch_40">
    <path clip-path="url(#pbb3c6a3380)" d="M 588.894545 630 
L 601.069091 630 
L 601.069091 464.729322 
L 588.894545 464.729322 
z
" style="fill:#ff0000;opacity:0.5;"/>
   </g>
   <g id="patch_41">
    <path clip-path="url(#pbb3c6a3380)" d="M 601.069091 630 
L 613.243636 630 
L 613.243636 508.869938 
L 601.069091 508.869938 
z
" style="fill:#ff0000;opacity:0.5;"/>
   </g>
   <g id="patch_42">
    <path clip-path="url(#pbb3c6a3380)" d="M 613.243636 630 
L 625.418182 630 
L 625.418182 535.559613 
L 613.243636 535.559613 
z
" style="fill:#ff0000;opacity:0.5;"/>
   </g>
   <g id="patch_43">
    <path clip-path="url(#pbb3c6a3380)" d="M 625.418182 630 
L 637.592727 630 
L 637.592727 542.745294 
L 625.418182 542.745294 
z
" style="fill:#ff0000;opacity:0.5;"/>
   </g>
   <g id="patch_44">
    <path clip-path="url(#pbb3c6a3380)" d="M 637.592727 630 
L 649.767273 630 
L 649.767273 583.806332 
L 637.592727 583.806332 
z
" style="fill:#ff0000;opacity:0.5;"/>
   </g>
   <g id="patch_45">
    <path clip-path="url(#pbb3c6a3380)" d="M 649.767273 630 
L 661.941818 630 
L 661.941818 583.806332 
L 649.767273 583.806332 
z
" style="fill:#ff0000;opacity:0.5;"/>
   </g>
   <g id="patch_46">
    <path clip-path="url(#pbb3c6a3380)" d="M 661.941818 630 
L 674.116364 630 
L 674.116364 597.15117 
L 661.941818 597.15117 
z
" style="fill:#ff0000;opacity:0.5;"/>
   </g>
   <g id="patch_47">
    <path clip-path="url(#pbb3c6a3380)" d="M 674.116364 630 
L 686.290909 630 
L 686.290909 611.522533 
L 674.116364 611.522533 
z
" style="fill:#ff0000;opacity:0.5;"/>
   </g>
   <g id="patch_48">
    <path clip-path="url(#pbb3c6a3380)" d="M 686.290909 630 
L 698.465455 630 
L 698.465455 612.549059 
L 686.290909 612.549059 
z
" style="fill:#ff0000;opacity:0.5;"/>
   </g>
   <g id="patch_49">
    <path clip-path="url(#pbb3c6a3380)" d="M 698.465455 630 
L 710.64 630 
L 710.64 625.893896 
L 698.465455 625.893896 
z
" style="fill:#ff0000;opacity:0.5;"/>
   </g>
   <g id="patch_50">
    <path clip-path="url(#pbb3c6a3380)" d="M 710.64 630 
L 722.814545 630 
L 722.814545 624.86737 
L 710.64 624.86737 
z
" style="fill:#ff0000;opacity:0.5;"/>
   </g>
   <g id="patch_51">
    <path clip-path="url(#pbb3c6a3380)" d="M 722.814545 630 
L 734.989091 630 
L 734.989091 626.920422 
L 722.814545 626.920422 
z
" style="fill:#ff0000;opacity:0.5;"/>
   </g>
   <g id="patch_52">
    <path clip-path="url(#pbb3c6a3380)" d="M 734.989091 630 
L 747.163636 630 
L 747.163636 628.973474 
L 734.989091 628.973474 
z
" style="fill:#ff0000;opacity:0.5;"/>
   </g>
   <g id="patch_53">
    <path clip-path="url(#pbb3c6a3380)" d="M 148.050834 630 
L 159.903445 630 
L 159.903445 628.945592 
L 148.050834 628.945592 
z
" style="fill:#0000ff;opacity:0.5;"/>
   </g>
   <g id="patch_54">
    <path clip-path="url(#pbb3c6a3380)" d="M 159.903445 630 
L 171.756056 630 
L 171.756056 630 
L 159.903445 630 
z
" style="fill:#0000ff;opacity:0.5;"/>
   </g>
   <g id="patch_55">
    <path clip-path="url(#pbb3c6a3380)" d="M 171.756056 630 
L 183.608667 630 
L 183.608667 630 
L 171.756056 630 
z
" style="fill:#0000ff;opacity:0.5;"/>
   </g>
   <g id="patch_56">
    <path clip-path="url(#pbb3c6a3380)" d="M 183.608667 630 
L 195.461278 630 
L 195.461278 628.945592 
L 183.608667 628.945592 
z
" style="fill:#0000ff;opacity:0.5;"/>
   </g>
   <g id="patch_57">
    <path clip-path="url(#pbb3c6a3380)" d="M 195.461278 630 
L 207.313889 630 
L 207.313889 627.891184 
L 195.461278 627.891184 
z
" style="fill:#0000ff;opacity:0.5;"/>
   </g>
   <g id="patch_58">
    <path clip-path="url(#pbb3c6a3380)" d="M 207.313889 630 
L 219.1665 630 
L 219.1665 627.891184 
L 207.313889 627.891184 
z
" style="fill:#0000ff;opacity:0.5;"/>
   </g>
   <g id="patch_59">
    <path clip-path="url(#pbb3c6a3380)" d="M 219.1665 630 
L 231.019111 630 
L 231.019111 624.72796 
L 219.1665 624.72796 
z
" style="fill:#0000ff;opacity:0.5;"/>
   </g>
   <g id="patch_60">
    <path clip-path="url(#pbb3c6a3380)" d="M 231.019111 630 
L 242.871722 630 
L 242.871722 619.455921 
L 231.019111 619.455921 
z
" style="fill:#0000ff;opacity:0.5;"/>
   </g>
   <g id="patch_61">
    <path clip-path="url(#pbb3c6a3380)" d="M 242.871722 630 
L 254.724333 630 
L 254.724333 622.619145 
L 242.871722 622.619145 
z
" style="fill:#0000ff;opacity:0.5;"/>
   </g>
   <g id="patch_62">
    <path clip-path="url(#pbb3c6a3380)" d="M 254.724333 630 
L 266.576944 630 
L 266.576944 606.803026 
L 254.724333 606.803026 
z
" style="fill:#0000ff;opacity:0.5;"/>
   </g>
   <g id="patch_63">
    <path clip-path="url(#pbb3c6a3380)" d="M 266.576944 630 
L 278.429555 630 
L 278.429555 605.748618 
L 266.576944 605.748618 
z
" style="fill:#0000ff;opacity:0.5;"/>
   </g>
   <g id="patch_64">
    <path clip-path="url(#pbb3c6a3380)" d="M 278.429555 630 
L 290.282166 630 
L 290.282166 603.639802 
L 278.429555 603.639802 
z
" style="fill:#0000ff;opacity:0.5;"/>
   </g>
   <g id="patch_65">
    <path clip-path="url(#pbb3c6a3380)" d="M 290.282166 630 
L 302.134777 630 
L 302.134777 575.170788 
L 290.282166 575.170788 
z
" style="fill:#0000ff;opacity:0.5;"/>
   </g>
   <g id="patch_66">
    <path clip-path="url(#pbb3c6a3380)" d="M 302.134777 630 
L 313.987388 630 
L 313.987388 568.844341 
L 302.134777 568.844341 
z
" style="fill:#0000ff;opacity:0.5;"/>
   </g>
   <g id="patch_67">
    <path clip-path="url(#pbb3c6a3380)" d="M 313.987388 630 
L 325.839999 630 
L 325.839999 555.137038 
L 313.987388 555.137038 
z
" style="fill:#0000ff;opacity:0.5;"/>
   </g>
   <g id="patch_68">
    <path clip-path="url(#pbb3c6a3380)" d="M 325.839999 630 
L 337.69261 630 
L 337.69261 515.069537 
L 325.839999 515.069537 
z
" style="fill:#0000ff;opacity:0.5;"/>
   </g>
   <g id="patch_69">
    <path clip-path="url(#pbb3c6a3380)" d="M 337.69261 630 
L 349.545221 630 
L 349.545221 522.450393 
L 337.69261 522.450393 
z
" style="fill:#0000ff;opacity:0.5;"/>
   </g>
   <g id="patch_70">
    <path clip-path="url(#pbb3c6a3380)" d="M 349.545221 630 
L 361.397832 630 
L 361.397832 434.934536 
L 349.545221 434.934536 
z
" style="fill:#0000ff;opacity:0.5;"/>
   </g>
   <g id="patch_71">
    <path clip-path="url(#pbb3c6a3380)" d="M 361.397832 630 
L 373.250443 630 
L 373.250443 413.846378 
L 361.397832 413.846378 
z
" style="fill:#0000ff;opacity:0.5;"/>
   </g>
   <g id="patch_72">
    <path clip-path="url(#pbb3c6a3380)" d="M 373.250443 630 
L 385.103054 630 
L 385.103054 361.125982 
L 373.250443 361.125982 
z
" style="fill:#0000ff;opacity:0.5;"/>
   </g>
   <g id="patch_73">
    <path clip-path="url(#pbb3c6a3380)" d="M 385.103054 630 
L 396.955665 630 
L 396.955665 346.364271 
L 385.103054 346.364271 
z
" style="fill:#0000ff;opacity:0.5;"/>
   </g>
   <g id="patch_74">
    <path clip-path="url(#pbb3c6a3380)" d="M 396.955665 630 
L 408.808276 630 
L 408.808276 289.426244 
L 396.955665 289.426244 
z
" style="fill:#0000ff;opacity:0.5;"/>
   </g>
   <g id="patch_75">
    <path clip-path="url(#pbb3c6a3380)" d="M 408.808276 630 
L 420.660887 630 
L 420.660887 234.597032 
L 408.808276 234.597032 
z
" style="fill:#0000ff;opacity:0.5;"/>
   </g>
   <g id="patch_76">
    <path clip-path="url(#pbb3c6a3380)" d="M 420.660887 630 
L 432.513498 630 
L 432.513498 246.195519 
L 420.660887 246.195519 
z
" style="fill:#0000ff;opacity:0.5;"/>
   </g>
   <g id="patch_77">
    <path clip-path="url(#pbb3c6a3380)" d="M 432.513498 630 
L 444.366109 630 
L 444.366109 178.713413 
L 432.513498 178.713413 
z
" style="fill:#0000ff;opacity:0.5;"/>
   </g>
   <g id="patch_78">
    <path clip-path="url(#pbb3c6a3380)" d="M 444.366109 630 
L 456.21872 630 
L 456.21872 153.407623 
L 444.366109 153.407623 
z
" style="fill:#0000ff;opacity:0.5;"/>
   </g>
   <g id="patch_79">
    <path clip-path="url(#pbb3c6a3380)" d="M 456.21872 630 
L 468.071331 630 
L 468.071331 112.285714 
L 456.21872 112.285714 
z
" style="fill:#0000ff;opacity:0.5;"/>
   </g>
   <g id="patch_80">
    <path clip-path="url(#pbb3c6a3380)" d="M 468.071331 630 
L 479.923942 630 
L 479.923942 152.353215 
L 468.071331 152.353215 
z
" style="fill:#0000ff;opacity:0.5;"/>
   </g>
   <g id="patch_81">
    <path clip-path="url(#pbb3c6a3380)" d="M 479.923942 630 
L 491.776553 630 
L 491.776553 122.829793 
L 479.923942 122.829793 
z
" style="fill:#0000ff;opacity:0.5;"/>
   </g>
   <g id="patch_82">
    <path clip-path="url(#pbb3c6a3380)" d="M 491.776553 630 
L 503.629164 630 
L 503.629164 158.679662 
L 491.776553 158.679662 
z
" style="fill:#0000ff;opacity:0.5;"/>
   </g>
   <g id="patch_83">
    <path clip-path="url(#pbb3c6a3380)" d="M 503.629164 630 
L 515.481775 630 
L 515.481775 179.767821 
L 503.629164 179.767821 
z
" style="fill:#0000ff;opacity:0.5;"/>
   </g>
   <g id="patch_84">
    <path clip-path="url(#pbb3c6a3380)" d="M 515.481775 630 
L 527.334386 630 
L 527.334386 228.270585 
L 515.481775 228.270585 
z
" style="fill:#0000ff;opacity:0.5;"/>
   </g>
   <g id="patch_85">
    <path clip-path="url(#pbb3c6a3380)" d="M 527.334386 630 
L 539.186997 630 
L 539.186997 241.977888 
L 527.334386 241.977888 
z
" style="fill:#0000ff;opacity:0.5;"/>
   </g>
   <g id="patch_86">
    <path clip-path="url(#pbb3c6a3380)" d="M 539.186997 630 
L 551.039608 630 
L 551.039608 268.338086 
L 539.186997 268.338086 
z
" style="fill:#0000ff;opacity:0.5;"/>
   </g>
   <g id="patch_87">
    <path clip-path="url(#pbb3c6a3380)" d="M 551.039608 630 
L 562.892219 630 
L 562.892219 285.208612 
L 551.039608 285.208612 
z
" style="fill:#0000ff;opacity:0.5;"/>
   </g>
   <g id="patch_88">
    <path clip-path="url(#pbb3c6a3380)" d="M 562.892219 630 
L 574.744829 630 
L 574.744829 359.017166 
L 562.892219 359.017166 
z
" style="fill:#0000ff;opacity:0.5;"/>
   </g>
   <g id="patch_89">
    <path clip-path="url(#pbb3c6a3380)" d="M 574.744829 630 
L 586.59744 630 
L 586.59744 412.79197 
L 574.744829 412.79197 
z
" style="fill:#0000ff;opacity:0.5;"/>
   </g>
   <g id="patch_90">
    <path clip-path="url(#pbb3c6a3380)" d="M 586.59744 630 
L 598.450051 630 
L 598.450051 465.512365 
L 586.59744 465.512365 
z
" style="fill:#0000ff;opacity:0.5;"/>
   </g>
   <g id="patch_91">
    <path clip-path="url(#pbb3c6a3380)" d="M 598.450051 630 
L 610.302662 630 
L 610.302662 508.74309 
L 598.450051 508.74309 
z
" style="fill:#0000ff;opacity:0.5;"/>
   </g>
   <g id="patch_92">
    <path clip-path="url(#pbb3c6a3380)" d="M 610.302662 630 
L 622.155273 630 
L 622.155273 539.320919 
L 610.302662 539.320919 
z
" style="fill:#0000ff;opacity:0.5;"/>
   </g>
   <g id="patch_93">
    <path clip-path="url(#pbb3c6a3380)" d="M 622.155273 630 
L 634.007884 630 
L 634.007884 536.157696 
L 622.155273 536.157696 
z
" style="fill:#0000ff;opacity:0.5;"/>
   </g>
   <g id="patch_94">
    <path clip-path="url(#pbb3c6a3380)" d="M 634.007884 630 
L 645.860495 630 
L 645.860495 553.028222 
L 634.007884 553.028222 
z
" style="fill:#0000ff;opacity:0.5;"/>
   </g>
   <g id="patch_95">
    <path clip-path="url(#pbb3c6a3380)" d="M 645.860495 630 
L 657.713106 630 
L 657.713106 582.551644 
L 645.860495 582.551644 
z
" style="fill:#0000ff;opacity:0.5;"/>
   </g>
   <g id="patch_96">
    <path clip-path="url(#pbb3c6a3380)" d="M 657.713106 630 
L 669.565717 630 
L 669.565717 589.932499 
L 657.713106 589.932499 
z
" style="fill:#0000ff;opacity:0.5;"/>
   </g>
   <g id="patch_97">
    <path clip-path="url(#pbb3c6a3380)" d="M 669.565717 630 
L 681.418328 630 
L 681.418328 613.129473 
L 669.565717 613.129473 
z
" style="fill:#0000ff;opacity:0.5;"/>
   </g>
   <g id="patch_98">
    <path clip-path="url(#pbb3c6a3380)" d="M 681.418328 630 
L 693.270939 630 
L 693.270939 606.803026 
L 681.418328 606.803026 
z
" style="fill:#0000ff;opacity:0.5;"/>
   </g>
   <g id="patch_99">
    <path clip-path="url(#pbb3c6a3380)" d="M 693.270939 630 
L 705.12355 630 
L 705.12355 617.347105 
L 693.270939 617.347105 
z
" style="fill:#0000ff;opacity:0.5;"/>
   </g>
   <g id="patch_100">
    <path clip-path="url(#pbb3c6a3380)" d="M 705.12355 630 
L 716.976161 630 
L 716.976161 623.673553 
L 705.12355 623.673553 
z
" style="fill:#0000ff;opacity:0.5;"/>
   </g>
   <g id="patch_101">
    <path clip-path="url(#pbb3c6a3380)" d="M 716.976161 630 
L 728.828772 630 
L 728.828772 625.782368 
L 716.976161 625.782368 
z
" style="fill:#0000ff;opacity:0.5;"/>
   </g>
   <g id="patch_102">
    <path clip-path="url(#pbb3c6a3380)" d="M 728.828772 630 
L 740.681383 630 
L 740.681383 626.836776 
L 728.828772 626.836776 
z
" style="fill:#0000ff;opacity:0.5;"/>
   </g>
   <g id="matplotlib.axis_1">
    <g id="xtick_1">
     <g id="line2d_1">
      <defs>
       <path d="M 0 0 
L 0 3.5 
" id="mb7e44d7eea" style="stroke:#000000;stroke-width:0.8;"/>
      </defs>
      <g>
       <use style="stroke:#000000;stroke-width:0.8;" x="138.436364" xlink:href="#mb7e44d7eea" y="630"/>
      </g>
     </g>
     <g id="text_1">
      <!-- 0.0 -->
      <defs>
       <path d="M 31.78125 66.40625 
Q 24.171875 66.40625 20.328125 58.90625 
Q 16.5 51.421875 16.5 36.375 
Q 16.5 21.390625 20.328125 13.890625 
Q 24.171875 6.390625 31.78125 6.390625 
Q 39.453125 6.390625 43.28125 13.890625 
Q 47.125 21.390625 47.125 36.375 
Q 47.125 51.421875 43.28125 58.90625 
Q 39.453125 66.40625 31.78125 66.40625 
z
M 31.78125 74.21875 
Q 44.046875 74.21875 50.515625 64.515625 
Q 56.984375 54.828125 56.984375 36.375 
Q 56.984375 17.96875 50.515625 8.265625 
Q 44.046875 -1.421875 31.78125 -1.421875 
Q 19.53125 -1.421875 13.0625 8.265625 
Q 6.59375 17.96875 6.59375 36.375 
Q 6.59375 54.828125 13.0625 64.515625 
Q 19.53125 74.21875 31.78125 74.21875 
z
" id="DejaVuSans-48"/>
       <path d="M 10.6875 12.40625 
L 21 12.40625 
L 21 0 
L 10.6875 0 
z
" id="DejaVuSans-46"/>
      </defs>
      <g transform="translate(130.484801 644.598438)scale(0.1 -0.1)">
       <use xlink:href="#DejaVuSans-48"/>
       <use x="63.623047" xlink:href="#DejaVuSans-46"/>
       <use x="95.410156" xlink:href="#DejaVuSans-48"/>
      </g>
     </g>
    </g>
    <g id="xtick_2">
     <g id="line2d_2">
      <g>
       <use style="stroke:#000000;stroke-width:0.8;" x="264.438359" xlink:href="#mb7e44d7eea" y="630"/>
      </g>
     </g>
     <g id="text_2">
      <!-- 0.2 -->
      <defs>
       <path d="M 19.1875 8.296875 
L 53.609375 8.296875 
L 53.609375 0 
L 7.328125 0 
L 7.328125 8.296875 
Q 12.9375 14.109375 22.625 23.890625 
Q 32.328125 33.6875 34.8125 36.53125 
Q 39.546875 41.84375 41.421875 45.53125 
Q 43.3125 49.21875 43.3125 52.78125 
Q 43.3125 58.59375 39.234375 62.25 
Q 35.15625 65.921875 28.609375 65.921875 
Q 23.96875 65.921875 18.8125 64.3125 
Q 13.671875 62.703125 7.8125 59.421875 
L 7.8125 69.390625 
Q 13.765625 71.78125 18.9375 73 
Q 24.125 74.21875 28.421875 74.21875 
Q 39.75 74.21875 46.484375 68.546875 
Q 53.21875 62.890625 53.21875 53.421875 
Q 53.21875 48.921875 51.53125 44.890625 
Q 49.859375 40.875 45.40625 35.40625 
Q 44.1875 33.984375 37.640625 27.21875 
Q 31.109375 20.453125 19.1875 8.296875 
z
" id="DejaVuSans-50"/>
      </defs>
      <g transform="translate(256.486797 644.598438)scale(0.1 -0.1)">
       <use xlink:href="#DejaVuSans-48"/>
       <use x="63.623047" xlink:href="#DejaVuSans-46"/>
       <use x="95.410156" xlink:href="#DejaVuSans-50"/>
      </g>
     </g>
    </g>
    <g id="xtick_3">
     <g id="line2d_3">
      <g>
       <use style="stroke:#000000;stroke-width:0.8;" x="390.440355" xlink:href="#mb7e44d7eea" y="630"/>
      </g>
     </g>
     <g id="text_3">
      <!-- 0.4 -->
      <defs>
       <path d="M 37.796875 64.3125 
L 12.890625 25.390625 
L 37.796875 25.390625 
z
M 35.203125 72.90625 
L 47.609375 72.90625 
L 47.609375 25.390625 
L 58.015625 25.390625 
L 58.015625 17.1875 
L 47.609375 17.1875 
L 47.609375 0 
L 37.796875 0 
L 37.796875 17.1875 
L 4.890625 17.1875 
L 4.890625 26.703125 
z
" id="DejaVuSans-52"/>
      </defs>
      <g transform="translate(382.488793 644.598438)scale(0.1 -0.1)">
       <use xlink:href="#DejaVuSans-48"/>
       <use x="63.623047" xlink:href="#DejaVuSans-46"/>
       <use x="95.410156" xlink:href="#DejaVuSans-52"/>
      </g>
     </g>
    </g>
    <g id="xtick_4">
     <g id="line2d_4">
      <g>
       <use style="stroke:#000000;stroke-width:0.8;" x="516.442351" xlink:href="#mb7e44d7eea" y="630"/>
      </g>
     </g>
     <g id="text_4">
      <!-- 0.6 -->
      <defs>
       <path d="M 33.015625 40.375 
Q 26.375 40.375 22.484375 35.828125 
Q 18.609375 31.296875 18.609375 23.390625 
Q 18.609375 15.53125 22.484375 10.953125 
Q 26.375 6.390625 33.015625 6.390625 
Q 39.65625 6.390625 43.53125 10.953125 
Q 47.40625 15.53125 47.40625 23.390625 
Q 47.40625 31.296875 43.53125 35.828125 
Q 39.65625 40.375 33.015625 40.375 
z
M 52.59375 71.296875 
L 52.59375 62.3125 
Q 48.875 64.0625 45.09375 64.984375 
Q 41.3125 65.921875 37.59375 65.921875 
Q 27.828125 65.921875 22.671875 59.328125 
Q 17.53125 52.734375 16.796875 39.40625 
Q 19.671875 43.65625 24.015625 45.921875 
Q 28.375 48.1875 33.59375 48.1875 
Q 44.578125 48.1875 50.953125 41.515625 
Q 57.328125 34.859375 57.328125 23.390625 
Q 57.328125 12.15625 50.6875 5.359375 
Q 44.046875 -1.421875 33.015625 -1.421875 
Q 20.359375 -1.421875 13.671875 8.265625 
Q 6.984375 17.96875 6.984375 36.375 
Q 6.984375 53.65625 15.1875 63.9375 
Q 23.390625 74.21875 37.203125 74.21875 
Q 40.921875 74.21875 44.703125 73.484375 
Q 48.484375 72.75 52.59375 71.296875 
z
" id="DejaVuSans-54"/>
      </defs>
      <g transform="translate(508.490789 644.598438)scale(0.1 -0.1)">
       <use xlink:href="#DejaVuSans-48"/>
       <use x="63.623047" xlink:href="#DejaVuSans-46"/>
       <use x="95.410156" xlink:href="#DejaVuSans-54"/>
      </g>
     </g>
    </g>
    <g id="xtick_5">
     <g id="line2d_5">
      <g>
       <use style="stroke:#000000;stroke-width:0.8;" x="642.444347" xlink:href="#mb7e44d7eea" y="630"/>
      </g>
     </g>
     <g id="text_5">
      <!-- 0.8 -->
      <defs>
       <path d="M 31.78125 34.625 
Q 24.75 34.625 20.71875 30.859375 
Q 16.703125 27.09375 16.703125 20.515625 
Q 16.703125 13.921875 20.71875 10.15625 
Q 24.75 6.390625 31.78125 6.390625 
Q 38.8125 6.390625 42.859375 10.171875 
Q 46.921875 13.96875 46.921875 20.515625 
Q 46.921875 27.09375 42.890625 30.859375 
Q 38.875 34.625 31.78125 34.625 
z
M 21.921875 38.8125 
Q 15.578125 40.375 12.03125 44.71875 
Q 8.5 49.078125 8.5 55.328125 
Q 8.5 64.0625 14.71875 69.140625 
Q 20.953125 74.21875 31.78125 74.21875 
Q 42.671875 74.21875 48.875 69.140625 
Q 55.078125 64.0625 55.078125 55.328125 
Q 55.078125 49.078125 51.53125 44.71875 
Q 48 40.375 41.703125 38.8125 
Q 48.828125 37.15625 52.796875 32.3125 
Q 56.78125 27.484375 56.78125 20.515625 
Q 56.78125 9.90625 50.3125 4.234375 
Q 43.84375 -1.421875 31.78125 -1.421875 
Q 19.734375 -1.421875 13.25 4.234375 
Q 6.78125 9.90625 6.78125 20.515625 
Q 6.78125 27.484375 10.78125 32.3125 
Q 14.796875 37.15625 21.921875 38.8125 
z
M 18.3125 54.390625 
Q 18.3125 48.734375 21.84375 45.5625 
Q 25.390625 42.390625 31.78125 42.390625 
Q 38.140625 42.390625 41.71875 45.5625 
Q 45.3125 48.734375 45.3125 54.390625 
Q 45.3125 60.0625 41.71875 63.234375 
Q 38.140625 66.40625 31.78125 66.40625 
Q 25.390625 66.40625 21.84375 63.234375 
Q 18.3125 60.0625 18.3125 54.390625 
z
" id="DejaVuSans-56"/>
      </defs>
      <g transform="translate(634.492785 644.598438)scale(0.1 -0.1)">
       <use xlink:href="#DejaVuSans-48"/>
       <use x="63.623047" xlink:href="#DejaVuSans-46"/>
       <use x="95.410156" xlink:href="#DejaVuSans-56"/>
      </g>
     </g>
    </g>
    <g id="xtick_6">
     <g id="line2d_6">
      <g>
       <use style="stroke:#000000;stroke-width:0.8;" x="768.446343" xlink:href="#mb7e44d7eea" y="630"/>
      </g>
     </g>
     <g id="text_6">
      <!-- 1.0 -->
      <defs>
       <path d="M 12.40625 8.296875 
L 28.515625 8.296875 
L 28.515625 63.921875 
L 10.984375 60.40625 
L 10.984375 69.390625 
L 28.421875 72.90625 
L 38.28125 72.90625 
L 38.28125 8.296875 
L 54.390625 8.296875 
L 54.390625 0 
L 12.40625 0 
z
" id="DejaVuSans-49"/>
      </defs>
      <g transform="translate(760.49478 644.598438)scale(0.1 -0.1)">
       <use xlink:href="#DejaVuSans-49"/>
       <use x="63.623047" xlink:href="#DejaVuSans-46"/>
       <use x="95.410156" xlink:href="#DejaVuSans-48"/>
      </g>
     </g>
    </g>
    <g id="text_7">
     <!-- Value -->
     <defs>
      <path d="M 28.609375 0 
L 0.78125 72.90625 
L 11.078125 72.90625 
L 34.1875 11.53125 
L 57.328125 72.90625 
L 67.578125 72.90625 
L 39.796875 0 
z
" id="DejaVuSans-86"/>
      <path d="M 34.28125 27.484375 
Q 23.390625 27.484375 19.1875 25 
Q 14.984375 22.515625 14.984375 16.5 
Q 14.984375 11.71875 18.140625 8.90625 
Q 21.296875 6.109375 26.703125 6.109375 
Q 34.1875 6.109375 38.703125 11.40625 
Q 43.21875 16.703125 43.21875 25.484375 
L 43.21875 27.484375 
z
M 52.203125 31.203125 
L 52.203125 0 
L 43.21875 0 
L 43.21875 8.296875 
Q 40.140625 3.328125 35.546875 0.953125 
Q 30.953125 -1.421875 24.3125 -1.421875 
Q 15.921875 -1.421875 10.953125 3.296875 
Q 6 8.015625 6 15.921875 
Q 6 25.140625 12.171875 29.828125 
Q 18.359375 34.515625 30.609375 34.515625 
L 43.21875 34.515625 
L 43.21875 35.40625 
Q 43.21875 41.609375 39.140625 45 
Q 35.0625 48.390625 27.6875 48.390625 
Q 23 48.390625 18.546875 47.265625 
Q 14.109375 46.140625 10.015625 43.890625 
L 10.015625 52.203125 
Q 14.9375 54.109375 19.578125 55.046875 
Q 24.21875 56 28.609375 56 
Q 40.484375 56 46.34375 49.84375 
Q 52.203125 43.703125 52.203125 31.203125 
z
" id="DejaVuSans-97"/>
      <path d="M 9.421875 75.984375 
L 18.40625 75.984375 
L 18.40625 0 
L 9.421875 0 
z
" id="DejaVuSans-108"/>
      <path d="M 8.5 21.578125 
L 8.5 54.6875 
L 17.484375 54.6875 
L 17.484375 21.921875 
Q 17.484375 14.15625 20.5 10.265625 
Q 23.53125 6.390625 29.59375 6.390625 
Q 36.859375 6.390625 41.078125 11.03125 
Q 45.3125 15.671875 45.3125 23.6875 
L 45.3125 54.6875 
L 54.296875 54.6875 
L 54.296875 0 
L 45.3125 0 
L 45.3125 8.40625 
Q 42.046875 3.421875 37.71875 1 
Q 33.40625 -1.421875 27.6875 -1.421875 
Q 18.265625 -1.421875 13.375 4.4375 
Q 8.5 10.296875 8.5 21.578125 
z
M 31.109375 56 
z
" id="DejaVuSans-117"/>
      <path d="M 56.203125 29.59375 
L 56.203125 25.203125 
L 14.890625 25.203125 
Q 15.484375 15.921875 20.484375 11.0625 
Q 25.484375 6.203125 34.421875 6.203125 
Q 39.59375 6.203125 44.453125 7.46875 
Q 49.3125 8.734375 54.109375 11.28125 
L 54.109375 2.78125 
Q 49.265625 0.734375 44.1875 -0.34375 
Q 39.109375 -1.421875 33.890625 -1.421875 
Q 20.796875 -1.421875 13.15625 6.1875 
Q 5.515625 13.8125 5.515625 26.8125 
Q 5.515625 40.234375 12.765625 48.109375 
Q 20.015625 56 32.328125 56 
Q 43.359375 56 49.78125 48.890625 
Q 56.203125 41.796875 56.203125 29.59375 
z
M 47.21875 32.234375 
Q 47.125 39.59375 43.09375 43.984375 
Q 39.0625 48.390625 32.421875 48.390625 
Q 24.90625 48.390625 20.390625 44.140625 
Q 15.875 39.890625 15.1875 32.171875 
z
" id="DejaVuSans-101"/>
     </defs>
     <g transform="translate(428.686719 658.276562)scale(0.1 -0.1)">
      <use xlink:href="#DejaVuSans-86"/>
      <use x="68.298828" xlink:href="#DejaVuSans-97"/>
      <use x="129.578125" xlink:href="#DejaVuSans-108"/>
      <use x="157.361328" xlink:href="#DejaVuSans-117"/>
      <use x="220.740234" xlink:href="#DejaVuSans-101"/>
     </g>
    </g>
   </g>
   <g id="matplotlib.axis_2">
    <g id="ytick_1">
     <g id="line2d_7">
      <defs>
       <path d="M 0 0 
L -3.5 0 
" id="mbbbbf70f11" style="stroke:#000000;stroke-width:0.8;"/>
      </defs>
      <g>
       <use style="stroke:#000000;stroke-width:0.8;" x="108" xlink:href="#mbbbbf70f11" y="630"/>
      </g>
     </g>
     <g id="text_8">
      <!-- 0.0 -->
      <g transform="translate(85.096875 633.799219)scale(0.1 -0.1)">
       <use xlink:href="#DejaVuSans-48"/>
       <use x="63.623047" xlink:href="#DejaVuSans-46"/>
       <use x="95.410156" xlink:href="#DejaVuSans-48"/>
      </g>
     </g>
    </g>
    <g id="ytick_2">
     <g id="line2d_8">
      <g>
       <use style="stroke:#000000;stroke-width:0.8;" x="108" xlink:href="#mbbbbf70f11" y="548.747786"/>
      </g>
     </g>
     <g id="text_9">
      <!-- 0.5 -->
      <defs>
       <path d="M 10.796875 72.90625 
L 49.515625 72.90625 
L 49.515625 64.59375 
L 19.828125 64.59375 
L 19.828125 46.734375 
Q 21.96875 47.46875 24.109375 47.828125 
Q 26.265625 48.1875 28.421875 48.1875 
Q 40.625 48.1875 47.75 41.5 
Q 54.890625 34.8125 54.890625 23.390625 
Q 54.890625 11.625 47.5625 5.09375 
Q 40.234375 -1.421875 26.90625 -1.421875 
Q 22.3125 -1.421875 17.546875 -0.640625 
Q 12.796875 0.140625 7.71875 1.703125 
L 7.71875 11.625 
Q 12.109375 9.234375 16.796875 8.0625 
Q 21.484375 6.890625 26.703125 6.890625 
Q 35.15625 6.890625 40.078125 11.328125 
Q 45.015625 15.765625 45.015625 23.390625 
Q 45.015625 31 40.078125 35.4375 
Q 35.15625 39.890625 26.703125 39.890625 
Q 22.75 39.890625 18.8125 39.015625 
Q 14.890625 38.140625 10.796875 36.28125 
z
" id="DejaVuSans-53"/>
      </defs>
      <g transform="translate(85.096875 552.547004)scale(0.1 -0.1)">
       <use xlink:href="#DejaVuSans-48"/>
       <use x="63.623047" xlink:href="#DejaVuSans-46"/>
       <use x="95.410156" xlink:href="#DejaVuSans-53"/>
      </g>
     </g>
    </g>
    <g id="ytick_3">
     <g id="line2d_9">
      <g>
       <use style="stroke:#000000;stroke-width:0.8;" x="108" xlink:href="#mbbbbf70f11" y="467.495571"/>
      </g>
     </g>
     <g id="text_10">
      <!-- 1.0 -->
      <g transform="translate(85.096875 471.29479)scale(0.1 -0.1)">
       <use xlink:href="#DejaVuSans-49"/>
       <use x="63.623047" xlink:href="#DejaVuSans-46"/>
       <use x="95.410156" xlink:href="#DejaVuSans-48"/>
      </g>
     </g>
    </g>
    <g id="ytick_4">
     <g id="line2d_10">
      <g>
       <use style="stroke:#000000;stroke-width:0.8;" x="108" xlink:href="#mbbbbf70f11" y="386.243357"/>
      </g>
     </g>
     <g id="text_11">
      <!-- 1.5 -->
      <g transform="translate(85.096875 390.042575)scale(0.1 -0.1)">
       <use xlink:href="#DejaVuSans-49"/>
       <use x="63.623047" xlink:href="#DejaVuSans-46"/>
       <use x="95.410156" xlink:href="#DejaVuSans-53"/>
      </g>
     </g>
    </g>
    <g id="ytick_5">
     <g id="line2d_11">
      <g>
       <use style="stroke:#000000;stroke-width:0.8;" x="108" xlink:href="#mbbbbf70f11" y="304.991142"/>
      </g>
     </g>
     <g id="text_12">
      <!-- 2.0 -->
      <g transform="translate(85.096875 308.790361)scale(0.1 -0.1)">
       <use xlink:href="#DejaVuSans-50"/>
       <use x="63.623047" xlink:href="#DejaVuSans-46"/>
       <use x="95.410156" xlink:href="#DejaVuSans-48"/>
      </g>
     </g>
    </g>
    <g id="ytick_6">
     <g id="line2d_12">
      <g>
       <use style="stroke:#000000;stroke-width:0.8;" x="108" xlink:href="#mbbbbf70f11" y="223.738928"/>
      </g>
     </g>
     <g id="text_13">
      <!-- 2.5 -->
      <g transform="translate(85.096875 227.538146)scale(0.1 -0.1)">
       <use xlink:href="#DejaVuSans-50"/>
       <use x="63.623047" xlink:href="#DejaVuSans-46"/>
       <use x="95.410156" xlink:href="#DejaVuSans-53"/>
      </g>
     </g>
    </g>
    <g id="ytick_7">
     <g id="line2d_13">
      <g>
       <use style="stroke:#000000;stroke-width:0.8;" x="108" xlink:href="#mbbbbf70f11" y="142.486713"/>
      </g>
     </g>
     <g id="text_14">
      <!-- 3.0 -->
      <defs>
       <path d="M 40.578125 39.3125 
Q 47.65625 37.796875 51.625 33 
Q 55.609375 28.21875 55.609375 21.1875 
Q 55.609375 10.40625 48.1875 4.484375 
Q 40.765625 -1.421875 27.09375 -1.421875 
Q 22.515625 -1.421875 17.65625 -0.515625 
Q 12.796875 0.390625 7.625 2.203125 
L 7.625 11.71875 
Q 11.71875 9.328125 16.59375 8.109375 
Q 21.484375 6.890625 26.8125 6.890625 
Q 36.078125 6.890625 40.9375 10.546875 
Q 45.796875 14.203125 45.796875 21.1875 
Q 45.796875 27.640625 41.28125 31.265625 
Q 36.765625 34.90625 28.71875 34.90625 
L 20.21875 34.90625 
L 20.21875 43.015625 
L 29.109375 43.015625 
Q 36.375 43.015625 40.234375 45.921875 
Q 44.09375 48.828125 44.09375 54.296875 
Q 44.09375 59.90625 40.109375 62.90625 
Q 36.140625 65.921875 28.71875 65.921875 
Q 24.65625 65.921875 20.015625 65.03125 
Q 15.375 64.15625 9.8125 62.3125 
L 9.8125 71.09375 
Q 15.4375 72.65625 20.34375 73.4375 
Q 25.25 74.21875 29.59375 74.21875 
Q 40.828125 74.21875 47.359375 69.109375 
Q 53.90625 64.015625 53.90625 55.328125 
Q 53.90625 49.265625 50.4375 45.09375 
Q 46.96875 40.921875 40.578125 39.3125 
z
" id="DejaVuSans-51"/>
      </defs>
      <g transform="translate(85.096875 146.285932)scale(0.1 -0.1)">
       <use xlink:href="#DejaVuSans-51"/>
       <use x="63.623047" xlink:href="#DejaVuSans-46"/>
       <use x="95.410156" xlink:href="#DejaVuSans-48"/>
      </g>
     </g>
    </g>
    <g id="text_15">
     <!-- Frequency -->
     <defs>
      <path d="M 9.8125 72.90625 
L 51.703125 72.90625 
L 51.703125 64.59375 
L 19.671875 64.59375 
L 19.671875 43.109375 
L 48.578125 43.109375 
L 48.578125 34.8125 
L 19.671875 34.8125 
L 19.671875 0 
L 9.8125 0 
z
" id="DejaVuSans-70"/>
      <path d="M 41.109375 46.296875 
Q 39.59375 47.171875 37.8125 47.578125 
Q 36.03125 48 33.890625 48 
Q 26.265625 48 22.1875 43.046875 
Q 18.109375 38.09375 18.109375 28.8125 
L 18.109375 0 
L 9.078125 0 
L 9.078125 54.6875 
L 18.109375 54.6875 
L 18.109375 46.1875 
Q 20.953125 51.171875 25.484375 53.578125 
Q 30.03125 56 36.53125 56 
Q 37.453125 56 38.578125 55.875 
Q 39.703125 55.765625 41.0625 55.515625 
z
" id="DejaVuSans-114"/>
      <path d="M 14.796875 27.296875 
Q 14.796875 17.390625 18.875 11.75 
Q 22.953125 6.109375 30.078125 6.109375 
Q 37.203125 6.109375 41.296875 11.75 
Q 45.40625 17.390625 45.40625 27.296875 
Q 45.40625 37.203125 41.296875 42.84375 
Q 37.203125 48.484375 30.078125 48.484375 
Q 22.953125 48.484375 18.875 42.84375 
Q 14.796875 37.203125 14.796875 27.296875 
z
M 45.40625 8.203125 
Q 42.578125 3.328125 38.25 0.953125 
Q 33.9375 -1.421875 27.875 -1.421875 
Q 17.96875 -1.421875 11.734375 6.484375 
Q 5.515625 14.40625 5.515625 27.296875 
Q 5.515625 40.1875 11.734375 48.09375 
Q 17.96875 56 27.875 56 
Q 33.9375 56 38.25 53.625 
Q 42.578125 51.265625 45.40625 46.390625 
L 45.40625 54.6875 
L 54.390625 54.6875 
L 54.390625 -20.796875 
L 45.40625 -20.796875 
z
" id="DejaVuSans-113"/>
      <path d="M 54.890625 33.015625 
L 54.890625 0 
L 45.90625 0 
L 45.90625 32.71875 
Q 45.90625 40.484375 42.875 44.328125 
Q 39.84375 48.1875 33.796875 48.1875 
Q 26.515625 48.1875 22.3125 43.546875 
Q 18.109375 38.921875 18.109375 30.90625 
L 18.109375 0 
L 9.078125 0 
L 9.078125 54.6875 
L 18.109375 54.6875 
L 18.109375 46.1875 
Q 21.34375 51.125 25.703125 53.5625 
Q 30.078125 56 35.796875 56 
Q 45.21875 56 50.046875 50.171875 
Q 54.890625 44.34375 54.890625 33.015625 
z
" id="DejaVuSans-110"/>
      <path d="M 48.78125 52.59375 
L 48.78125 44.1875 
Q 44.96875 46.296875 41.140625 47.34375 
Q 37.3125 48.390625 33.40625 48.390625 
Q 24.65625 48.390625 19.8125 42.84375 
Q 14.984375 37.3125 14.984375 27.296875 
Q 14.984375 17.28125 19.8125 11.734375 
Q 24.65625 6.203125 33.40625 6.203125 
Q 37.3125 6.203125 41.140625 7.25 
Q 44.96875 8.296875 48.78125 10.40625 
L 48.78125 2.09375 
Q 45.015625 0.34375 40.984375 -0.53125 
Q 36.96875 -1.421875 32.421875 -1.421875 
Q 20.0625 -1.421875 12.78125 6.34375 
Q 5.515625 14.109375 5.515625 27.296875 
Q 5.515625 40.671875 12.859375 48.328125 
Q 20.21875 56 33.015625 56 
Q 37.15625 56 41.109375 55.140625 
Q 45.0625 54.296875 48.78125 52.59375 
z
" id="DejaVuSans-99"/>
      <path d="M 32.171875 -5.078125 
Q 28.375 -14.84375 24.75 -17.8125 
Q 21.140625 -20.796875 15.09375 -20.796875 
L 7.90625 -20.796875 
L 7.90625 -13.28125 
L 13.1875 -13.28125 
Q 16.890625 -13.28125 18.9375 -11.515625 
Q 21 -9.765625 23.484375 -3.21875 
L 25.09375 0.875 
L 2.984375 54.6875 
L 12.5 54.6875 
L 29.59375 11.921875 
L 46.6875 54.6875 
L 56.203125 54.6875 
z
" id="DejaVuSans-121"/>
     </defs>
     <g transform="translate(79.017187 384.497656)rotate(-90)scale(0.1 -0.1)">
      <use xlink:href="#DejaVuSans-70"/>
      <use x="57.410156" xlink:href="#DejaVuSans-114"/>
      <use x="98.492188" xlink:href="#DejaVuSans-101"/>
      <use x="160.015625" xlink:href="#DejaVuSans-113"/>
      <use x="223.492188" xlink:href="#DejaVuSans-117"/>
      <use x="286.871094" xlink:href="#DejaVuSans-101"/>
      <use x="348.394531" xlink:href="#DejaVuSans-110"/>
      <use x="411.773438" xlink:href="#DejaVuSans-99"/>
      <use x="466.753906" xlink:href="#DejaVuSans-121"/>
     </g>
    </g>
   </g>
   <g id="patch_103">
    <path d="M 108 630 
L 108 86.4 
" style="fill:none;stroke:#000000;stroke-linecap:square;stroke-linejoin:miter;stroke-width:0.8;"/>
   </g>
   <g id="patch_104">
    <path d="M 777.6 630 
L 777.6 86.4 
" style="fill:none;stroke:#000000;stroke-linecap:square;stroke-linejoin:miter;stroke-width:0.8;"/>
   </g>
   <g id="patch_105">
    <path d="M 108 630 
L 777.6 630 
" style="fill:none;stroke:#000000;stroke-linecap:square;stroke-linejoin:miter;stroke-width:0.8;"/>
   </g>
   <g id="patch_106">
    <path d="M 108 86.4 
L 777.6 86.4 
" style="fill:none;stroke:#000000;stroke-linecap:square;stroke-linejoin:miter;stroke-width:0.8;"/>
   </g>
   <g id="text_16">
    <!-- Layer: conv2 -->
    <defs>
     <path d="M 9.8125 72.90625 
L 19.671875 72.90625 
L 19.671875 8.296875 
L 55.171875 8.296875 
L 55.171875 0 
L 9.8125 0 
z
" id="DejaVuSans-76"/>
     <path d="M 11.71875 12.40625 
L 22.015625 12.40625 
L 22.015625 0 
L 11.71875 0 
z
M 11.71875 51.703125 
L 22.015625 51.703125 
L 22.015625 39.3125 
L 11.71875 39.3125 
z
" id="DejaVuSans-58"/>
     <path id="DejaVuSans-32"/>
     <path d="M 30.609375 48.390625 
Q 23.390625 48.390625 19.1875 42.75 
Q 14.984375 37.109375 14.984375 27.296875 
Q 14.984375 17.484375 19.15625 11.84375 
Q 23.34375 6.203125 30.609375 6.203125 
Q 37.796875 6.203125 41.984375 11.859375 
Q 46.1875 17.53125 46.1875 27.296875 
Q 46.1875 37.015625 41.984375 42.703125 
Q 37.796875 48.390625 30.609375 48.390625 
z
M 30.609375 56 
Q 42.328125 56 49.015625 48.375 
Q 55.71875 40.765625 55.71875 27.296875 
Q 55.71875 13.875 49.015625 6.21875 
Q 42.328125 -1.421875 30.609375 -1.421875 
Q 18.84375 -1.421875 12.171875 6.21875 
Q 5.515625 13.875 5.515625 27.296875 
Q 5.515625 40.765625 12.171875 48.375 
Q 18.84375 56 30.609375 56 
z
" id="DejaVuSans-111"/>
     <path d="M 2.984375 54.6875 
L 12.5 54.6875 
L 29.59375 8.796875 
L 46.6875 54.6875 
L 56.203125 54.6875 
L 35.6875 0 
L 23.484375 0 
z
" id="DejaVuSans-118"/>
    </defs>
    <g transform="translate(404.001563 80.4)scale(0.12 -0.12)">
     <use xlink:href="#DejaVuSans-76"/>
     <use x="55.712891" xlink:href="#DejaVuSans-97"/>
     <use x="116.992188" xlink:href="#DejaVuSans-121"/>
     <use x="176.171875" xlink:href="#DejaVuSans-101"/>
     <use x="237.695312" xlink:href="#DejaVuSans-114"/>
     <use x="278.792969" xlink:href="#DejaVuSans-58"/>
     <use x="312.484375" xlink:href="#DejaVuSans-32"/>
     <use x="344.271484" xlink:href="#DejaVuSans-99"/>
     <use x="399.251953" xlink:href="#DejaVuSans-111"/>
     <use x="460.433594" xlink:href="#DejaVuSans-110"/>
     <use x="523.8125" xlink:href="#DejaVuSans-118"/>
     <use x="582.992188" xlink:href="#DejaVuSans-50"/>
    </g>
   </g>
   <g id="legend_1">
    <g id="patch_107">
     <path d="M 657.876563 123.75625 
L 770.6 123.75625 
Q 772.6 123.75625 772.6 121.75625 
L 772.6 93.4 
Q 772.6 91.4 770.6 91.4 
L 657.876563 91.4 
Q 655.876563 91.4 655.876563 93.4 
L 655.876563 121.75625 
Q 655.876563 123.75625 657.876563 123.75625 
z
" style="fill:#ffffff;opacity:0.8;stroke:#cccccc;stroke-linejoin:miter;"/>
    </g>
    <g id="patch_108">
     <path d="M 659.876563 102.998437 
L 679.876563 102.998437 
L 679.876563 95.998437 
L 659.876563 95.998437 
z
" style="fill:#ff0000;opacity:0.5;"/>
    </g>
    <g id="text_17">
     <!-- First Generation -->
     <defs>
      <path d="M 9.421875 54.6875 
L 18.40625 54.6875 
L 18.40625 0 
L 9.421875 0 
z
M 9.421875 75.984375 
L 18.40625 75.984375 
L 18.40625 64.59375 
L 9.421875 64.59375 
z
" id="DejaVuSans-105"/>
      <path d="M 44.28125 53.078125 
L 44.28125 44.578125 
Q 40.484375 46.53125 36.375 47.5 
Q 32.28125 48.484375 27.875 48.484375 
Q 21.1875 48.484375 17.84375 46.4375 
Q 14.5 44.390625 14.5 40.28125 
Q 14.5 37.15625 16.890625 35.375 
Q 19.28125 33.59375 26.515625 31.984375 
L 29.59375 31.296875 
Q 39.15625 29.25 43.1875 25.515625 
Q 47.21875 21.78125 47.21875 15.09375 
Q 47.21875 7.46875 41.1875 3.015625 
Q 35.15625 -1.421875 24.609375 -1.421875 
Q 20.21875 -1.421875 15.453125 -0.5625 
Q 10.6875 0.296875 5.421875 2 
L 5.421875 11.28125 
Q 10.40625 8.6875 15.234375 7.390625 
Q 20.0625 6.109375 24.8125 6.109375 
Q 31.15625 6.109375 34.5625 8.28125 
Q 37.984375 10.453125 37.984375 14.40625 
Q 37.984375 18.0625 35.515625 20.015625 
Q 33.0625 21.96875 24.703125 23.78125 
L 21.578125 24.515625 
Q 13.234375 26.265625 9.515625 29.90625 
Q 5.8125 33.546875 5.8125 39.890625 
Q 5.8125 47.609375 11.28125 51.796875 
Q 16.75 56 26.8125 56 
Q 31.78125 56 36.171875 55.265625 
Q 40.578125 54.546875 44.28125 53.078125 
z
" id="DejaVuSans-115"/>
      <path d="M 18.3125 70.21875 
L 18.3125 54.6875 
L 36.8125 54.6875 
L 36.8125 47.703125 
L 18.3125 47.703125 
L 18.3125 18.015625 
Q 18.3125 11.328125 20.140625 9.421875 
Q 21.96875 7.515625 27.59375 7.515625 
L 36.8125 7.515625 
L 36.8125 0 
L 27.59375 0 
Q 17.1875 0 13.234375 3.875 
Q 9.28125 7.765625 9.28125 18.015625 
L 9.28125 47.703125 
L 2.6875 47.703125 
L 2.6875 54.6875 
L 9.28125 54.6875 
L 9.28125 70.21875 
z
" id="DejaVuSans-116"/>
      <path d="M 59.515625 10.40625 
L 59.515625 29.984375 
L 43.40625 29.984375 
L 43.40625 38.09375 
L 69.28125 38.09375 
L 69.28125 6.78125 
Q 63.578125 2.734375 56.6875 0.65625 
Q 49.8125 -1.421875 42 -1.421875 
Q 24.90625 -1.421875 15.25 8.5625 
Q 5.609375 18.5625 5.609375 36.375 
Q 5.609375 54.25 15.25 64.234375 
Q 24.90625 74.21875 42 74.21875 
Q 49.125 74.21875 55.546875 72.453125 
Q 61.96875 70.703125 67.390625 67.28125 
L 67.390625 56.78125 
Q 61.921875 61.421875 55.765625 63.765625 
Q 49.609375 66.109375 42.828125 66.109375 
Q 29.4375 66.109375 22.71875 58.640625 
Q 16.015625 51.171875 16.015625 36.375 
Q 16.015625 21.625 22.71875 14.15625 
Q 29.4375 6.6875 42.828125 6.6875 
Q 48.046875 6.6875 52.140625 7.59375 
Q 56.25 8.5 59.515625 10.40625 
z
" id="DejaVuSans-71"/>
     </defs>
     <g transform="translate(687.876563 102.998437)scale(0.1 -0.1)">
      <use xlink:href="#DejaVuSans-70"/>
      <use x="57.410156" xlink:href="#DejaVuSans-105"/>
      <use x="85.193359" xlink:href="#DejaVuSans-114"/>
      <use x="126.306641" xlink:href="#DejaVuSans-115"/>
      <use x="178.40625" xlink:href="#DejaVuSans-116"/>
      <use x="217.615234" xlink:href="#DejaVuSans-32"/>
      <use x="249.402344" xlink:href="#DejaVuSans-71"/>
      <use x="326.892578" xlink:href="#DejaVuSans-101"/>
      <use x="388.416016" xlink:href="#DejaVuSans-110"/>
      <use x="451.794922" xlink:href="#DejaVuSans-101"/>
      <use x="513.318359" xlink:href="#DejaVuSans-114"/>
      <use x="554.431641" xlink:href="#DejaVuSans-97"/>
      <use x="615.710938" xlink:href="#DejaVuSans-116"/>
      <use x="654.919922" xlink:href="#DejaVuSans-105"/>
      <use x="682.703125" xlink:href="#DejaVuSans-111"/>
      <use x="743.884766" xlink:href="#DejaVuSans-110"/>
     </g>
    </g>
    <g id="patch_109">
     <path d="M 659.876563 117.676562 
L 679.876563 117.676562 
L 679.876563 110.676562 
L 659.876563 110.676562 
z
" style="fill:#0000ff;opacity:0.5;"/>
    </g>
    <g id="text_18">
     <!-- Last Generation -->
     <g transform="translate(687.876563 117.676562)scale(0.1 -0.1)">
      <use xlink:href="#DejaVuSans-76"/>
      <use x="55.712891" xlink:href="#DejaVuSans-97"/>
      <use x="116.992188" xlink:href="#DejaVuSans-115"/>
      <use x="169.091797" xlink:href="#DejaVuSans-116"/>
      <use x="208.300781" xlink:href="#DejaVuSans-32"/>
      <use x="240.087891" xlink:href="#DejaVuSans-71"/>
      <use x="317.578125" xlink:href="#DejaVuSans-101"/>
      <use x="379.101562" xlink:href="#DejaVuSans-110"/>
      <use x="442.480469" xlink:href="#DejaVuSans-101"/>
      <use x="504.003906" xlink:href="#DejaVuSans-114"/>
      <use x="545.117188" xlink:href="#DejaVuSans-97"/>
      <use x="606.396484" xlink:href="#DejaVuSans-116"/>
      <use x="645.605469" xlink:href="#DejaVuSans-105"/>
      <use x="673.388672" xlink:href="#DejaVuSans-111"/>
      <use x="734.570312" xlink:href="#DejaVuSans-110"/>
     </g>
    </g>
   </g>
  </g>
 </g>
 <defs>
  <clipPath id="pbb3c6a3380">
   <rect height="543.6" width="669.6" x="108" y="86.4"/>
  </clipPath>
 </defs>
</svg>
