<?xml version="1.0" encoding="utf-8" standalone="no"?>
<!DOCTYPE svg PUBLIC "-//W3C//DTD SVG 1.1//EN"
  "http://www.w3.org/Graphics/SVG/1.1/DTD/svg11.dtd">
<!-- Created with matplotlib (https://matplotlib.org/) -->
<svg height="720pt" version="1.1" viewBox="0 0 864 720" width="864pt" xmlns="http://www.w3.org/2000/svg" xmlns:xlink="http://www.w3.org/1999/xlink">
 <defs>
  <style type="text/css">
*{stroke-linecap:butt;stroke-linejoin:round;white-space:pre;}
  </style>
 </defs>
 <g id="figure_1">
  <g id="patch_1">
   <path d="M 0 720 
L 864 720 
L 864 0 
L 0 0 
z
" style="fill:#ffffff;"/>
  </g>
  <g id="axes_1">
   <g id="patch_2">
    <path d="M 108 630 
L 777.6 630 
L 777.6 86.4 
L 108 86.4 
z
" style="fill:#ffffff;"/>
   </g>
   <g id="PathCollection_1">
    <defs>
     <path d="M 0 3 
C 0.795609 3 1.55874 2.683901 2.12132 2.12132 
C 2.683901 1.55874 3 0.795609 3 0 
C 3 -0.795609 2.683901 -1.55874 2.12132 -2.12132 
C 1.55874 -2.683901 0.795609 -3 0 -3 
C -0.795609 -3 -1.55874 -2.683901 -2.12132 -2.12132 
C -2.683901 -1.55874 -3 -0.795609 -3 0 
C -3 0.795609 -2.683901 1.55874 -2.12132 2.12132 
C -1.55874 2.683901 -0.795609 3 0 3 
z
" id="me1745a10af" style="stroke:#0000ff;"/>
    </defs>
    <g clip-path="url(#pcbc99a9d3f)">
     <use style="fill:#0000ff;stroke:#0000ff;" x="326.822531" xlink:href="#me1745a10af" y="277.563682"/>
     <use style="fill:#0000ff;stroke:#0000ff;" x="258.428849" xlink:href="#me1745a10af" y="446.19231"/>
     <use style="fill:#0000ff;stroke:#0000ff;" x="211.437774" xlink:href="#me1745a10af" y="596.584905"/>
     <use style="fill:#0000ff;stroke:#0000ff;" x="262.666571" xlink:href="#me1745a10af" y="527.649382"/>
     <use style="fill:#0000ff;stroke:#0000ff;" x="189.782002" xlink:href="#me1745a10af" y="559.688198"/>
     <use style="fill:#0000ff;stroke:#0000ff;" x="242.596303" xlink:href="#me1745a10af" y="413.27811"/>
     <use style="fill:#0000ff;stroke:#0000ff;" x="331.033372" xlink:href="#me1745a10af" y="559.399395"/>
     <use style="fill:#0000ff;stroke:#0000ff;" x="353.829386" xlink:href="#me1745a10af" y="568.328797"/>
     <use style="fill:#0000ff;stroke:#0000ff;" x="284.224804" xlink:href="#me1745a10af" y="603.592072"/>
     <use style="fill:#0000ff;stroke:#0000ff;" x="450.065364" xlink:href="#me1745a10af" y="556.823272"/>
     <use style="fill:#0000ff;stroke:#0000ff;" x="380.814913" xlink:href="#me1745a10af" y="536.643167"/>
     <use style="fill:#0000ff;stroke:#0000ff;" x="507.752753" xlink:href="#me1745a10af" y="491.57534"/>
     <use style="fill:#0000ff;stroke:#0000ff;" x="255.56817" xlink:href="#me1745a10af" y="542.980101"/>
     <use style="fill:#0000ff;stroke:#0000ff;" x="269.991624" xlink:href="#me1745a10af" y="432.623835"/>
     <use style="fill:#0000ff;stroke:#0000ff;" x="226.930449" xlink:href="#me1745a10af" y="467.554364"/>
     <use style="fill:#0000ff;stroke:#0000ff;" x="240.625254" xlink:href="#me1745a10af" y="502.473592"/>
     <use style="fill:#0000ff;stroke:#0000ff;" x="355.948026" xlink:href="#me1745a10af" y="282.757734"/>
     <use style="fill:#0000ff;stroke:#0000ff;" x="140.567808" xlink:href="#me1745a10af" y="429.821775"/>
     <use style="fill:#0000ff;stroke:#0000ff;" x="399.287928" xlink:href="#me1745a10af" y="405.585186"/>
     <use style="fill:#0000ff;stroke:#0000ff;" x="341.741835" xlink:href="#me1745a10af" y="349.569791"/>
     <use style="fill:#0000ff;stroke:#0000ff;" x="222.509677" xlink:href="#me1745a10af" y="455.524302"/>
     <use style="fill:#0000ff;stroke:#0000ff;" x="196.847623" xlink:href="#me1745a10af" y="393.484725"/>
     <use style="fill:#0000ff;stroke:#0000ff;" x="181.399426" xlink:href="#me1745a10af" y="376.026282"/>
     <use style="fill:#0000ff;stroke:#0000ff;" x="309.651203" xlink:href="#me1745a10af" y="388.133377"/>
     <use style="fill:#0000ff;stroke:#0000ff;" x="215.122055" xlink:href="#me1745a10af" y="352.576617"/>
     <use style="fill:#0000ff;stroke:#0000ff;" x="324.515443" xlink:href="#me1745a10af" y="385.731278"/>
     <use style="fill:#0000ff;stroke:#0000ff;" x="289.116257" xlink:href="#me1745a10af" y="339.65413"/>
     <use style="fill:#0000ff;stroke:#0000ff;" x="276.975026" xlink:href="#me1745a10af" y="344.044541"/>
     <use style="fill:#0000ff;stroke:#0000ff;" x="350.017255" xlink:href="#me1745a10af" y="336.209535"/>
     <use style="fill:#0000ff;stroke:#0000ff;" x="341.694076" xlink:href="#me1745a10af" y="309.833207"/>
     <use style="fill:#0000ff;stroke:#0000ff;" x="467.471252" xlink:href="#me1745a10af" y="371.071756"/>
     <use style="fill:#0000ff;stroke:#0000ff;" x="331.359543" xlink:href="#me1745a10af" y="350.224167"/>
     <use style="fill:#0000ff;stroke:#0000ff;" x="312.793175" xlink:href="#me1745a10af" y="342.185708"/>
     <use style="fill:#0000ff;stroke:#0000ff;" x="394.905152" xlink:href="#me1745a10af" y="270.069307"/>
     <use style="fill:#0000ff;stroke:#0000ff;" x="295.825414" xlink:href="#me1745a10af" y="351.494439"/>
     <use style="fill:#0000ff;stroke:#0000ff;" x="364.713441" xlink:href="#me1745a10af" y="293.997813"/>
     <use style="fill:#0000ff;stroke:#0000ff;" x="426.44324" xlink:href="#me1745a10af" y="288.434192"/>
     <use style="fill:#0000ff;stroke:#0000ff;" x="511.955544" xlink:href="#me1745a10af" y="241.561842"/>
     <use style="fill:#0000ff;stroke:#0000ff;" x="402.689221" xlink:href="#me1745a10af" y="321.281992"/>
     <use style="fill:#0000ff;stroke:#0000ff;" x="369.821947" xlink:href="#me1745a10af" y="112.807928"/>
     <use style="fill:#0000ff;stroke:#0000ff;" x="389.452294" xlink:href="#me1745a10af" y="317.579813"/>
     <use style="fill:#0000ff;stroke:#0000ff;" x="324.114899" xlink:href="#me1745a10af" y="275.330321"/>
     <use style="fill:#0000ff;stroke:#0000ff;" x="358.747051" xlink:href="#me1745a10af" y="354.559025"/>
     <use style="fill:#0000ff;stroke:#0000ff;" x="365.851334" xlink:href="#me1745a10af" y="268.021774"/>
     <use style="fill:#0000ff;stroke:#0000ff;" x="408.270858" xlink:href="#me1745a10af" y="343.721878"/>
     <use style="fill:#0000ff;stroke:#0000ff;" x="369.855918" xlink:href="#me1745a10af" y="291.634127"/>
     <use style="fill:#0000ff;stroke:#0000ff;" x="319.285193" xlink:href="#me1745a10af" y="311.088704"/>
     <use style="fill:#0000ff;stroke:#0000ff;" x="222.277068" xlink:href="#me1745a10af" y="272.757264"/>
     <use style="fill:#0000ff;stroke:#0000ff;" x="298.88662" xlink:href="#me1745a10af" y="299.612299"/>
     <use style="fill:#0000ff;stroke:#0000ff;" x="412.703921" xlink:href="#me1745a10af" y="234.282316"/>
     <use style="fill:#0000ff;stroke:#0000ff;" x="403.809608" xlink:href="#me1745a10af" y="225.822193"/>
     <use style="fill:#0000ff;stroke:#0000ff;" x="404.816066" xlink:href="#me1745a10af" y="263.925602"/>
     <use style="fill:#0000ff;stroke:#0000ff;" x="421.792179" xlink:href="#me1745a10af" y="201.363847"/>
     <use style="fill:#0000ff;stroke:#0000ff;" x="381.257044" xlink:href="#me1745a10af" y="242.288202"/>
     <use style="fill:#0000ff;stroke:#0000ff;" x="409.43239" xlink:href="#me1745a10af" y="324.491768"/>
     <use style="fill:#0000ff;stroke:#0000ff;" x="410.551795" xlink:href="#me1745a10af" y="321.428899"/>
     <use style="fill:#0000ff;stroke:#0000ff;" x="374.220074" xlink:href="#me1745a10af" y="270.118416"/>
     <use style="fill:#0000ff;stroke:#0000ff;" x="326.609108" xlink:href="#me1745a10af" y="201.961444"/>
     <use style="fill:#0000ff;stroke:#0000ff;" x="451.837171" xlink:href="#me1745a10af" y="293.000484"/>
     <use style="fill:#0000ff;stroke:#0000ff;" x="460.598798" xlink:href="#me1745a10af" y="334.529254"/>
    </g>
   </g>
   <g id="PathCollection_2">
    <defs>
     <path d="M 0 3 
C 0.795609 3 1.55874 2.683901 2.12132 2.12132 
C 2.683901 1.55874 3 0.795609 3 0 
C 3 -0.795609 2.683901 -1.55874 2.12132 -2.12132 
C 1.55874 -2.683901 0.795609 -3 0 -3 
C -0.795609 -3 -1.55874 -2.683901 -2.12132 -2.12132 
C -2.683901 -1.55874 -3 -0.795609 -3 0 
C -3 0.795609 -2.683901 1.55874 -2.12132 2.12132 
C -1.55874 2.683901 -0.795609 3 0 3 
z
" id="m0f99b20d47" style="stroke:#008000;"/>
    </defs>
    <g clip-path="url(#pcbc99a9d3f)">
     <use style="fill:#008000;stroke:#008000;" x="440.302313" xlink:href="#m0f99b20d47" y="282.187961"/>
     <use style="fill:#008000;stroke:#008000;" x="370.491355" xlink:href="#m0f99b20d47" y="335.614703"/>
     <use style="fill:#008000;stroke:#008000;" x="385.184811" xlink:href="#m0f99b20d47" y="207.950345"/>
     <use style="fill:#008000;stroke:#008000;" x="468.148478" xlink:href="#m0f99b20d47" y="250.102207"/>
     <use style="fill:#008000;stroke:#008000;" x="407.604291" xlink:href="#m0f99b20d47" y="249.282935"/>
     <use style="fill:#008000;stroke:#008000;" x="468.567167" xlink:href="#m0f99b20d47" y="232.534527"/>
     <use style="fill:#008000;stroke:#008000;" x="461.109584" xlink:href="#m0f99b20d47" y="212.466334"/>
     <use style="fill:#008000;stroke:#008000;" x="416.824335" xlink:href="#m0f99b20d47" y="209.618964"/>
     <use style="fill:#008000;stroke:#008000;" x="416.112851" xlink:href="#m0f99b20d47" y="136.829658"/>
     <use style="fill:#008000;stroke:#008000;" x="388.579357" xlink:href="#m0f99b20d47" y="226.706656"/>
     <use style="fill:#008000;stroke:#008000;" x="439.724159" xlink:href="#m0f99b20d47" y="240.288654"/>
     <use style="fill:#008000;stroke:#008000;" x="423.186647" xlink:href="#m0f99b20d47" y="271.294533"/>
     <use style="fill:#008000;stroke:#008000;" x="275.209822" xlink:href="#m0f99b20d47" y="335.109092"/>
     <use style="fill:#008000;stroke:#008000;" x="444.087745" xlink:href="#m0f99b20d47" y="165.953702"/>
     <use style="fill:#008000;stroke:#008000;" x="420.513869" xlink:href="#m0f99b20d47" y="177.690088"/>
     <use style="fill:#008000;stroke:#008000;" x="401.637334" xlink:href="#m0f99b20d47" y="211.469952"/>
     <use style="fill:#008000;stroke:#008000;" x="414.674344" xlink:href="#m0f99b20d47" y="253.099944"/>
     <use style="fill:#008000;stroke:#008000;" x="418.898092" xlink:href="#m0f99b20d47" y="243.171657"/>
     <use style="fill:#008000;stroke:#008000;" x="377.673062" xlink:href="#m0f99b20d47" y="272.670011"/>
     <use style="fill:#008000;stroke:#008000;" x="382.726712" xlink:href="#m0f99b20d47" y="205.246933"/>
     <use style="fill:#008000;stroke:#008000;" x="569.023852" xlink:href="#m0f99b20d47" y="264.884521"/>
     <use style="fill:#008000;stroke:#008000;" x="457.508157" xlink:href="#m0f99b20d47" y="256.030108"/>
     <use style="fill:#008000;stroke:#008000;" x="503.159546" xlink:href="#m0f99b20d47" y="222.237645"/>
     <use style="fill:#008000;stroke:#008000;" x="363.679611" xlink:href="#m0f99b20d47" y="319.333106"/>
     <use style="fill:#008000;stroke:#008000;" x="529.859578" xlink:href="#m0f99b20d47" y="250.171084"/>
     <use style="fill:#008000;stroke:#008000;" x="435.151161" xlink:href="#m0f99b20d47" y="357.717337"/>
     <use style="fill:#008000;stroke:#008000;" x="414.404393" xlink:href="#m0f99b20d47" y="326.035048"/>
     <use style="fill:#008000;stroke:#008000;" x="513.183344" xlink:href="#m0f99b20d47" y="247.476504"/>
     <use style="fill:#008000;stroke:#008000;" x="541.136156" xlink:href="#m0f99b20d47" y="314.526848"/>
     <use style="fill:#008000;stroke:#008000;" x="437.731137" xlink:href="#m0f99b20d47" y="385.709036"/>
     <use style="fill:#008000;stroke:#008000;" x="557.86504" xlink:href="#m0f99b20d47" y="273.635037"/>
     <use style="fill:#008000;stroke:#008000;" x="456.654059" xlink:href="#m0f99b20d47" y="320.409639"/>
     <use style="fill:#008000;stroke:#008000;" x="437.464388" xlink:href="#m0f99b20d47" y="348.779286"/>
     <use style="fill:#008000;stroke:#008000;" x="393.833415" xlink:href="#m0f99b20d47" y="362.073944"/>
     <use style="fill:#008000;stroke:#008000;" x="386.033535" xlink:href="#m0f99b20d47" y="349.91811"/>
     <use style="fill:#008000;stroke:#008000;" x="464.51876" xlink:href="#m0f99b20d47" y="356.259759"/>
     <use style="fill:#008000;stroke:#008000;" x="376.665263" xlink:href="#m0f99b20d47" y="363.736012"/>
     <use style="fill:#008000;stroke:#008000;" x="424.270389" xlink:href="#m0f99b20d47" y="324.244249"/>
     <use style="fill:#008000;stroke:#008000;" x="436.626504" xlink:href="#m0f99b20d47" y="297.631436"/>
     <use style="fill:#008000;stroke:#008000;" x="404.007605" xlink:href="#m0f99b20d47" y="345.196396"/>
     <use style="fill:#008000;stroke:#008000;" x="455.155091" xlink:href="#m0f99b20d47" y="343.944097"/>
     <use style="fill:#008000;stroke:#008000;" x="459.708473" xlink:href="#m0f99b20d47" y="352.424885"/>
     <use style="fill:#008000;stroke:#008000;" x="453.531568" xlink:href="#m0f99b20d47" y="310.290479"/>
     <use style="fill:#008000;stroke:#008000;" x="653.137192" xlink:href="#m0f99b20d47" y="314.704353"/>
     <use style="fill:#008000;stroke:#008000;" x="584.943867" xlink:href="#m0f99b20d47" y="315.231643"/>
     <use style="fill:#008000;stroke:#008000;" x="523.657957" xlink:href="#m0f99b20d47" y="278.906798"/>
     <use style="fill:#008000;stroke:#008000;" x="597.749611" xlink:href="#m0f99b20d47" y="279.179496"/>
     <use style="fill:#008000;stroke:#008000;" x="470.005989" xlink:href="#m0f99b20d47" y="372.303983"/>
     <use style="fill:#008000;stroke:#008000;" x="533.74153" xlink:href="#m0f99b20d47" y="401.857392"/>
     <use style="fill:#008000;stroke:#008000;" x="541.003965" xlink:href="#m0f99b20d47" y="353.497751"/>
     <use style="fill:#008000;stroke:#008000;" x="538.053196" xlink:href="#m0f99b20d47" y="308.58183"/>
     <use style="fill:#008000;stroke:#008000;" x="473.894868" xlink:href="#m0f99b20d47" y="309.48259"/>
     <use style="fill:#008000;stroke:#008000;" x="629.010093" xlink:href="#m0f99b20d47" y="324.761743"/>
     <use style="fill:#008000;stroke:#008000;" x="451.840268" xlink:href="#m0f99b20d47" y="373.148367"/>
     <use style="fill:#008000;stroke:#008000;" x="426.908659" xlink:href="#m0f99b20d47" y="299.700016"/>
     <use style="fill:#008000;stroke:#008000;" x="521.13779" xlink:href="#m0f99b20d47" y="301.511777"/>
     <use style="fill:#008000;stroke:#008000;" x="477.95343" xlink:href="#m0f99b20d47" y="279.03151"/>
     <use style="fill:#008000;stroke:#008000;" x="538.945316" xlink:href="#m0f99b20d47" y="245.552417"/>
     <use style="fill:#008000;stroke:#008000;" x="459.450587" xlink:href="#m0f99b20d47" y="278.237256"/>
     <use style="fill:#008000;stroke:#008000;" x="444.257201" xlink:href="#m0f99b20d47" y="235.202329"/>
    </g>
   </g>
   <g id="PathCollection_3">
    <defs>
     <path d="M 0 3 
C 0.795609 3 1.55874 2.683901 2.12132 2.12132 
C 2.683901 1.55874 3 0.795609 3 0 
C 3 -0.795609 2.683901 -1.55874 2.12132 -2.12132 
C 1.55874 -2.683901 0.795609 -3 0 -3 
C -0.795609 -3 -1.55874 -2.683901 -2.12132 -2.12132 
C -2.683901 -1.55874 -3 -0.795609 -3 0 
C -3 0.795609 -2.683901 1.55874 -2.12132 2.12132 
C -1.55874 2.683901 -0.795609 3 0 3 
z
" id="m066dc8d342" style="stroke:#ffff00;"/>
    </defs>
    <g clip-path="url(#pcbc99a9d3f)">
     <use style="fill:#ffff00;stroke:#ffff00;" x="386.482902" xlink:href="#m066dc8d342" y="262.332065"/>
     <use style="fill:#ffff00;stroke:#ffff00;" x="519.744004" xlink:href="#m066dc8d342" y="291.921384"/>
     <use style="fill:#ffff00;stroke:#ffff00;" x="498.266229" xlink:href="#m066dc8d342" y="345.235723"/>
     <use style="fill:#ffff00;stroke:#ffff00;" x="524.329754" xlink:href="#m066dc8d342" y="330.059836"/>
     <use style="fill:#ffff00;stroke:#ffff00;" x="441.919369" xlink:href="#m066dc8d342" y="354.347365"/>
     <use style="fill:#ffff00;stroke:#ffff00;" x="551.585465" xlink:href="#m066dc8d342" y="314.544536"/>
     <use style="fill:#ffff00;stroke:#ffff00;" x="491.791" xlink:href="#m066dc8d342" y="307.171015"/>
     <use style="fill:#ffff00;stroke:#ffff00;" x="454.11683" xlink:href="#m066dc8d342" y="361.25332"/>
     <use style="fill:#ffff00;stroke:#ffff00;" x="540.203722" xlink:href="#m066dc8d342" y="322.904682"/>
     <use style="fill:#ffff00;stroke:#ffff00;" x="488.121907" xlink:href="#m066dc8d342" y="324.192885"/>
     <use style="fill:#ffff00;stroke:#ffff00;" x="465.479752" xlink:href="#m066dc8d342" y="278.416957"/>
     <use style="fill:#ffff00;stroke:#ffff00;" x="498.506506" xlink:href="#m066dc8d342" y="318.43561"/>
     <use style="fill:#ffff00;stroke:#ffff00;" x="601.220447" xlink:href="#m066dc8d342" y="321.463162"/>
     <use style="fill:#ffff00;stroke:#ffff00;" x="432.170047" xlink:href="#m066dc8d342" y="314.83537"/>
     <use style="fill:#ffff00;stroke:#ffff00;" x="416.334797" xlink:href="#m066dc8d342" y="328.052397"/>
     <use style="fill:#ffff00;stroke:#ffff00;" x="535.59456" xlink:href="#m066dc8d342" y="288.895421"/>
     <use style="fill:#ffff00;stroke:#ffff00;" x="492.026665" xlink:href="#m066dc8d342" y="286.06392"/>
     <use style="fill:#ffff00;stroke:#ffff00;" x="606.014142" xlink:href="#m066dc8d342" y="214.573679"/>
     <use style="fill:#ffff00;stroke:#ffff00;" x="639.546135" xlink:href="#m066dc8d342" y="221.528732"/>
     <use style="fill:#ffff00;stroke:#ffff00;" x="605.595969" xlink:href="#m066dc8d342" y="294.843081"/>
     <use style="fill:#ffff00;stroke:#ffff00;" x="522.777469" xlink:href="#m066dc8d342" y="264.618454"/>
     <use style="fill:#ffff00;stroke:#ffff00;" x="518.955632" xlink:href="#m066dc8d342" y="312.775264"/>
     <use style="fill:#ffff00;stroke:#ffff00;" x="475.255431" xlink:href="#m066dc8d342" y="255.22484"/>
     <use style="fill:#ffff00;stroke:#ffff00;" x="465.955992" xlink:href="#m066dc8d342" y="314.967265"/>
     <use style="fill:#ffff00;stroke:#ffff00;" x="512.386408" xlink:href="#m066dc8d342" y="327.902518"/>
     <use style="fill:#ffff00;stroke:#ffff00;" x="466.180377" xlink:href="#m066dc8d342" y="276.671436"/>
     <use style="fill:#ffff00;stroke:#ffff00;" x="472.372277" xlink:href="#m066dc8d342" y="222.233967"/>
     <use style="fill:#ffff00;stroke:#ffff00;" x="449.60209" xlink:href="#m066dc8d342" y="339.432724"/>
     <use style="fill:#ffff00;stroke:#ffff00;" x="339.501777" xlink:href="#m066dc8d342" y="352.740635"/>
     <use style="fill:#ffff00;stroke:#ffff00;" x="366.389335" xlink:href="#m066dc8d342" y="393.009786"/>
     <use style="fill:#ffff00;stroke:#ffff00;" x="406.281542" xlink:href="#m066dc8d342" y="316.096299"/>
     <use style="fill:#ffff00;stroke:#ffff00;" x="441.046046" xlink:href="#m066dc8d342" y="233.497982"/>
     <use style="fill:#ffff00;stroke:#ffff00;" x="491.587799" xlink:href="#m066dc8d342" y="297.869332"/>
     <use style="fill:#ffff00;stroke:#ffff00;" x="440.423458" xlink:href="#m066dc8d342" y="317.211823"/>
     <use style="fill:#ffff00;stroke:#ffff00;" x="461.50553" xlink:href="#m066dc8d342" y="322.117718"/>
     <use style="fill:#ffff00;stroke:#ffff00;" x="450.57101" xlink:href="#m066dc8d342" y="271.952639"/>
     <use style="fill:#ffff00;stroke:#ffff00;" x="525.318408" xlink:href="#m066dc8d342" y="281.584753"/>
     <use style="fill:#ffff00;stroke:#ffff00;" x="544.695455" xlink:href="#m066dc8d342" y="226.247805"/>
     <use style="fill:#ffff00;stroke:#ffff00;" x="503.714319" xlink:href="#m066dc8d342" y="301.349533"/>
     <use style="fill:#ffff00;stroke:#ffff00;" x="553.174159" xlink:href="#m066dc8d342" y="316.873673"/>
     <use style="fill:#ffff00;stroke:#ffff00;" x="520.223539" xlink:href="#m066dc8d342" y="348.999283"/>
     <use style="fill:#ffff00;stroke:#ffff00;" x="479.188146" xlink:href="#m066dc8d342" y="311.911328"/>
     <use style="fill:#ffff00;stroke:#ffff00;" x="492.350071" xlink:href="#m066dc8d342" y="315.871559"/>
     <use style="fill:#ffff00;stroke:#ffff00;" x="486.020881" xlink:href="#m066dc8d342" y="345.636484"/>
     <use style="fill:#ffff00;stroke:#ffff00;" x="462.070737" xlink:href="#m066dc8d342" y="313.099829"/>
     <use style="fill:#ffff00;stroke:#ffff00;" x="448.266995" xlink:href="#m066dc8d342" y="336.176282"/>
     <use style="fill:#ffff00;stroke:#ffff00;" x="502.375564" xlink:href="#m066dc8d342" y="331.123529"/>
     <use style="fill:#ffff00;stroke:#ffff00;" x="475.100321" xlink:href="#m066dc8d342" y="252.456182"/>
     <use style="fill:#ffff00;stroke:#ffff00;" x="443.130687" xlink:href="#m066dc8d342" y="245.676831"/>
     <use style="fill:#ffff00;stroke:#ffff00;" x="490.09995" xlink:href="#m066dc8d342" y="178.721923"/>
     <use style="fill:#ffff00;stroke:#ffff00;" x="386.903302" xlink:href="#m066dc8d342" y="319.746629"/>
     <use style="fill:#ffff00;stroke:#ffff00;" x="425.35474" xlink:href="#m066dc8d342" y="244.344774"/>
     <use style="fill:#ffff00;stroke:#ffff00;" x="449.755766" xlink:href="#m066dc8d342" y="252.346971"/>
     <use style="fill:#ffff00;stroke:#ffff00;" x="553.191052" xlink:href="#m066dc8d342" y="230.292988"/>
     <use style="fill:#ffff00;stroke:#ffff00;" x="640.534219" xlink:href="#m066dc8d342" y="211.268427"/>
     <use style="fill:#ffff00;stroke:#ffff00;" x="558.531797" xlink:href="#m066dc8d342" y="285.379159"/>
     <use style="fill:#ffff00;stroke:#ffff00;" x="501.210484" xlink:href="#m066dc8d342" y="170.279544"/>
     <use style="fill:#ffff00;stroke:#ffff00;" x="448.498831" xlink:href="#m066dc8d342" y="222.752467"/>
     <use style="fill:#ffff00;stroke:#ffff00;" x="541.084342" xlink:href="#m066dc8d342" y="211.586228"/>
     <use style="fill:#ffff00;stroke:#ffff00;" x="556.827986" xlink:href="#m066dc8d342" y="250.740594"/>
    </g>
   </g>
   <g id="PathCollection_4">
    <defs>
     <path d="M 0 3 
C 0.795609 3 1.55874 2.683901 2.12132 2.12132 
C 2.683901 1.55874 3 0.795609 3 0 
C 3 -0.795609 2.683901 -1.55874 2.12132 -2.12132 
C 1.55874 -2.683901 0.795609 -3 0 -3 
C -0.795609 -3 -1.55874 -2.683901 -2.12132 -2.12132 
C -2.683901 -1.55874 -3 -0.795609 -3 0 
C -3 0.795609 -2.683901 1.55874 -2.12132 2.12132 
C -1.55874 2.683901 -0.795609 3 0 3 
z
" id="m2cfdc79246" style="stroke:#ffa500;"/>
    </defs>
    <g clip-path="url(#pcbc99a9d3f)">
     <use style="fill:#ffa500;stroke:#ffa500;" x="503.897061" xlink:href="#m2cfdc79246" y="220.192257"/>
     <use style="fill:#ffa500;stroke:#ffa500;" x="481.10734" xlink:href="#m2cfdc79246" y="265.141707"/>
     <use style="fill:#ffa500;stroke:#ffa500;" x="556.550756" xlink:href="#m2cfdc79246" y="234.81023"/>
     <use style="fill:#ffa500;stroke:#ffa500;" x="623.089364" xlink:href="#m2cfdc79246" y="200.921058"/>
     <use style="fill:#ffa500;stroke:#ffa500;" x="605.941953" xlink:href="#m2cfdc79246" y="211.671914"/>
     <use style="fill:#ffa500;stroke:#ffa500;" x="627.678201" xlink:href="#m2cfdc79246" y="233.956983"/>
     <use style="fill:#ffa500;stroke:#ffa500;" x="590.128652" xlink:href="#m2cfdc79246" y="300.555828"/>
     <use style="fill:#ffa500;stroke:#ffa500;" x="596.549346" xlink:href="#m2cfdc79246" y="242.824941"/>
     <use style="fill:#ffa500;stroke:#ffa500;" x="576.79817" xlink:href="#m2cfdc79246" y="313.07943"/>
     <use style="fill:#ffa500;stroke:#ffa500;" x="590.589508" xlink:href="#m2cfdc79246" y="328.55612"/>
     <use style="fill:#ffa500;stroke:#ffa500;" x="624.449183" xlink:href="#m2cfdc79246" y="288.75005"/>
     <use style="fill:#ffa500;stroke:#ffa500;" x="666.771019" xlink:href="#m2cfdc79246" y="214.871235"/>
     <use style="fill:#ffa500;stroke:#ffa500;" x="609.34453" xlink:href="#m2cfdc79246" y="298.33504"/>
     <use style="fill:#ffa500;stroke:#ffa500;" x="575.582516" xlink:href="#m2cfdc79246" y="282.809315"/>
     <use style="fill:#ffa500;stroke:#ffa500;" x="604.603217" xlink:href="#m2cfdc79246" y="243.215885"/>
     <use style="fill:#ffa500;stroke:#ffa500;" x="667.449715" xlink:href="#m2cfdc79246" y="184.915143"/>
     <use style="fill:#ffa500;stroke:#ffa500;" x="668.939575" xlink:href="#m2cfdc79246" y="185.31672"/>
     <use style="fill:#ffa500;stroke:#ffa500;" x="538.162452" xlink:href="#m2cfdc79246" y="260.445134"/>
     <use style="fill:#ffa500;stroke:#ffa500;" x="586.475091" xlink:href="#m2cfdc79246" y="167.62648"/>
     <use style="fill:#ffa500;stroke:#ffa500;" x="627.536509" xlink:href="#m2cfdc79246" y="230.23749"/>
     <use style="fill:#ffa500;stroke:#ffa500;" x="687.054387" xlink:href="#m2cfdc79246" y="221.866751"/>
     <use style="fill:#ffa500;stroke:#ffa500;" x="614.207784" xlink:href="#m2cfdc79246" y="212.6218"/>
     <use style="fill:#ffa500;stroke:#ffa500;" x="622.553066" xlink:href="#m2cfdc79246" y="200.931207"/>
     <use style="fill:#ffa500;stroke:#ffa500;" x="601.655586" xlink:href="#m2cfdc79246" y="264.616638"/>
     <use style="fill:#ffa500;stroke:#ffa500;" x="644.399343" xlink:href="#m2cfdc79246" y="253.605475"/>
     <use style="fill:#ffa500;stroke:#ffa500;" x="634.649773" xlink:href="#m2cfdc79246" y="277.443229"/>
     <use style="fill:#ffa500;stroke:#ffa500;" x="632.082264" xlink:href="#m2cfdc79246" y="286.943478"/>
     <use style="fill:#ffa500;stroke:#ffa500;" x="692.524937" xlink:href="#m2cfdc79246" y="191.709162"/>
     <use style="fill:#ffa500;stroke:#ffa500;" x="644.920222" xlink:href="#m2cfdc79246" y="256.383851"/>
     <use style="fill:#ffa500;stroke:#ffa500;" x="581.414398" xlink:href="#m2cfdc79246" y="246.712416"/>
     <use style="fill:#ffa500;stroke:#ffa500;" x="560.262945" xlink:href="#m2cfdc79246" y="339.920708"/>
     <use style="fill:#ffa500;stroke:#ffa500;" x="536.656028" xlink:href="#m2cfdc79246" y="317.949052"/>
     <use style="fill:#ffa500;stroke:#ffa500;" x="616.435771" xlink:href="#m2cfdc79246" y="318.159403"/>
     <use style="fill:#ffa500;stroke:#ffa500;" x="562.121913" xlink:href="#m2cfdc79246" y="271.862428"/>
     <use style="fill:#ffa500;stroke:#ffa500;" x="564.684176" xlink:href="#m2cfdc79246" y="261.290078"/>
     <use style="fill:#ffa500;stroke:#ffa500;" x="618.8239" xlink:href="#m2cfdc79246" y="265.944746"/>
     <use style="fill:#ffa500;stroke:#ffa500;" x="605.950796" xlink:href="#m2cfdc79246" y="282.005353"/>
     <use style="fill:#ffa500;stroke:#ffa500;" x="744.617904" xlink:href="#m2cfdc79246" y="301.696174"/>
     <use style="fill:#ffa500;stroke:#ffa500;" x="533.915112" xlink:href="#m2cfdc79246" y="293.914607"/>
     <use style="fill:#ffa500;stroke:#ffa500;" x="493.55413" xlink:href="#m2cfdc79246" y="245.270766"/>
     <use style="fill:#ffa500;stroke:#ffa500;" x="581.712955" xlink:href="#m2cfdc79246" y="228.745364"/>
     <use style="fill:#ffa500;stroke:#ffa500;" x="528.24798" xlink:href="#m2cfdc79246" y="278.497292"/>
     <use style="fill:#ffa500;stroke:#ffa500;" x="590.048266" xlink:href="#m2cfdc79246" y="230.701175"/>
     <use style="fill:#ffa500;stroke:#ffa500;" x="690.233772" xlink:href="#m2cfdc79246" y="215.900488"/>
     <use style="fill:#ffa500;stroke:#ffa500;" x="461.263543" xlink:href="#m2cfdc79246" y="215.336816"/>
     <use style="fill:#ffa500;stroke:#ffa500;" x="547.053128" xlink:href="#m2cfdc79246" y="199.988348"/>
     <use style="fill:#ffa500;stroke:#ffa500;" x="523.800232" xlink:href="#m2cfdc79246" y="175.609459"/>
     <use style="fill:#ffa500;stroke:#ffa500;" x="543.002456" xlink:href="#m2cfdc79246" y="196.08341"/>
     <use style="fill:#ffa500;stroke:#ffa500;" x="505.69834" xlink:href="#m2cfdc79246" y="133.576851"/>
     <use style="fill:#ffa500;stroke:#ffa500;" x="461.574939" xlink:href="#m2cfdc79246" y="159.834788"/>
     <use style="fill:#ffa500;stroke:#ffa500;" x="482.389726" xlink:href="#m2cfdc79246" y="229.389216"/>
     <use style="fill:#ffa500;stroke:#ffa500;" x="554.259727" xlink:href="#m2cfdc79246" y="228.985924"/>
     <use style="fill:#ffa500;stroke:#ffa500;" x="438.354321" xlink:href="#m2cfdc79246" y="182.594491"/>
     <use style="fill:#ffa500;stroke:#ffa500;" x="524.713858" xlink:href="#m2cfdc79246" y="145.471363"/>
     <use style="fill:#ffa500;stroke:#ffa500;" x="518.890685" xlink:href="#m2cfdc79246" y="236.606097"/>
     <use style="fill:#ffa500;stroke:#ffa500;" x="554.561986" xlink:href="#m2cfdc79246" y="244.253452"/>
     <use style="fill:#ffa500;stroke:#ffa500;" x="503.07709" xlink:href="#m2cfdc79246" y="176.790675"/>
     <use style="fill:#ffa500;stroke:#ffa500;" x="506.027291" xlink:href="#m2cfdc79246" y="169.104813"/>
     <use style="fill:#ffa500;stroke:#ffa500;" x="443.697579" xlink:href="#m2cfdc79246" y="131.564229"/>
     <use style="fill:#ffa500;stroke:#ffa500;" x="544.680523" xlink:href="#m2cfdc79246" y="135.114373"/>
    </g>
   </g>
   <g id="PathCollection_5">
    <defs>
     <path d="M 0 3 
C 0.795609 3 1.55874 2.683901 2.12132 2.12132 
C 2.683901 1.55874 3 0.795609 3 0 
C 3 -0.795609 2.683901 -1.55874 2.12132 -2.12132 
C 1.55874 -2.683901 0.795609 -3 0 -3 
C -0.795609 -3 -1.55874 -2.683901 -2.12132 -2.12132 
C -2.683901 -1.55874 -3 -0.795609 -3 0 
C -3 0.795609 -2.683901 1.55874 -2.12132 2.12132 
C -1.55874 2.683901 -0.795609 3 0 3 
z
" id="m4f696219ea" style="stroke:#ff0000;"/>
    </defs>
    <g clip-path="url(#pcbc99a9d3f)">
     <use style="fill:#ff0000;stroke:#ff0000;" x="479.72952" xlink:href="#m4f696219ea" y="255.890029"/>
     <use style="fill:#ff0000;stroke:#ff0000;" x="507.199542" xlink:href="#m4f696219ea" y="124.294782"/>
     <use style="fill:#ff0000;stroke:#ff0000;" x="466.606851" xlink:href="#m4f696219ea" y="189.628431"/>
     <use style="fill:#ff0000;stroke:#ff0000;" x="479.172373" xlink:href="#m4f696219ea" y="176.429858"/>
     <use style="fill:#ff0000;stroke:#ff0000;" x="476.662785" xlink:href="#m4f696219ea" y="225.250178"/>
     <use style="fill:#ff0000;stroke:#ff0000;" x="485.080665" xlink:href="#m4f696219ea" y="273.125967"/>
     <use style="fill:#ff0000;stroke:#ff0000;" x="509.035708" xlink:href="#m4f696219ea" y="276.90384"/>
     <use style="fill:#ff0000;stroke:#ff0000;" x="451.46398" xlink:href="#m4f696219ea" y="268.328991"/>
     <use style="fill:#ff0000;stroke:#ff0000;" x="496.784151" xlink:href="#m4f696219ea" y="200.444166"/>
     <use style="fill:#ff0000;stroke:#ff0000;" x="522.522928" xlink:href="#m4f696219ea" y="240.711754"/>
     <use style="fill:#ff0000;stroke:#ff0000;" x="593.525406" xlink:href="#m4f696219ea" y="179.810081"/>
     <use style="fill:#ff0000;stroke:#ff0000;" x="496.695057" xlink:href="#m4f696219ea" y="212.05788"/>
     <use style="fill:#ff0000;stroke:#ff0000;" x="428.9369" xlink:href="#m4f696219ea" y="294.657788"/>
     <use style="fill:#ff0000;stroke:#ff0000;" x="527.850874" xlink:href="#m4f696219ea" y="251.38788"/>
     <use style="fill:#ff0000;stroke:#ff0000;" x="438.598739" xlink:href="#m4f696219ea" y="292.030546"/>
     <use style="fill:#ff0000;stroke:#ff0000;" x="503.791958" xlink:href="#m4f696219ea" y="275.555844"/>
     <use style="fill:#ff0000;stroke:#ff0000;" x="650.942971" xlink:href="#m4f696219ea" y="215.352389"/>
     <use style="fill:#ff0000;stroke:#ff0000;" x="552.259601" xlink:href="#m4f696219ea" y="288.876924"/>
     <use style="fill:#ff0000;stroke:#ff0000;" x="553.944495" xlink:href="#m4f696219ea" y="307.338319"/>
     <use style="fill:#ff0000;stroke:#ff0000;" x="527.456199" xlink:href="#m4f696219ea" y="308.662197"/>
     <use style="fill:#ff0000;stroke:#ff0000;" x="536.138337" xlink:href="#m4f696219ea" y="336.628637"/>
     <use style="fill:#ff0000;stroke:#ff0000;" x="599.041171" xlink:href="#m4f696219ea" y="273.260279"/>
     <use style="fill:#ff0000;stroke:#ff0000;" x="526.075408" xlink:href="#m4f696219ea" y="225.070925"/>
     <use style="fill:#ff0000;stroke:#ff0000;" x="547.352914" xlink:href="#m4f696219ea" y="234.822778"/>
     <use style="fill:#ff0000;stroke:#ff0000;" x="466.653754" xlink:href="#m4f696219ea" y="245.084759"/>
     <use style="fill:#ff0000;stroke:#ff0000;" x="498.566005" xlink:href="#m4f696219ea" y="205.76926"/>
     <use style="fill:#ff0000;stroke:#ff0000;" x="529.193685" xlink:href="#m4f696219ea" y="241.539275"/>
     <use style="fill:#ff0000;stroke:#ff0000;" x="416.562338" xlink:href="#m4f696219ea" y="318.270764"/>
     <use style="fill:#ff0000;stroke:#ff0000;" x="519.579658" xlink:href="#m4f696219ea" y="255.405243"/>
     <use style="fill:#ff0000;stroke:#ff0000;" x="514.280957" xlink:href="#m4f696219ea" y="313.123134"/>
     <use style="fill:#ff0000;stroke:#ff0000;" x="550.922556" xlink:href="#m4f696219ea" y="285.068683"/>
     <use style="fill:#ff0000;stroke:#ff0000;" x="493.449036" xlink:href="#m4f696219ea" y="278.9233"/>
     <use style="fill:#ff0000;stroke:#ff0000;" x="448.055384" xlink:href="#m4f696219ea" y="304.225407"/>
     <use style="fill:#ff0000;stroke:#ff0000;" x="542.479801" xlink:href="#m4f696219ea" y="323.206022"/>
     <use style="fill:#ff0000;stroke:#ff0000;" x="443.375983" xlink:href="#m4f696219ea" y="300.306144"/>
     <use style="fill:#ff0000;stroke:#ff0000;" x="464.066141" xlink:href="#m4f696219ea" y="308.034312"/>
     <use style="fill:#ff0000;stroke:#ff0000;" x="431.738313" xlink:href="#m4f696219ea" y="187.321443"/>
     <use style="fill:#ff0000;stroke:#ff0000;" x="465.650294" xlink:href="#m4f696219ea" y="231.016258"/>
     <use style="fill:#ff0000;stroke:#ff0000;" x="441.558621" xlink:href="#m4f696219ea" y="284.029268"/>
     <use style="fill:#ff0000;stroke:#ff0000;" x="476.323433" xlink:href="#m4f696219ea" y="295.735872"/>
     <use style="fill:#ff0000;stroke:#ff0000;" x="492.936779" xlink:href="#m4f696219ea" y="205.92742"/>
     <use style="fill:#ff0000;stroke:#ff0000;" x="490.353842" xlink:href="#m4f696219ea" y="199.337659"/>
     <use style="fill:#ff0000;stroke:#ff0000;" x="468.629859" xlink:href="#m4f696219ea" y="276.216262"/>
     <use style="fill:#ff0000;stroke:#ff0000;" x="464.290974" xlink:href="#m4f696219ea" y="238.77611"/>
     <use style="fill:#ff0000;stroke:#ff0000;" x="406.680017" xlink:href="#m4f696219ea" y="250.774163"/>
     <use style="fill:#ff0000;stroke:#ff0000;" x="366.795534" xlink:href="#m4f696219ea" y="231.837529"/>
     <use style="fill:#ff0000;stroke:#ff0000;" x="487.680873" xlink:href="#m4f696219ea" y="217.043588"/>
     <use style="fill:#ff0000;stroke:#ff0000;" x="490.435433" xlink:href="#m4f696219ea" y="167.140886"/>
     <use style="fill:#ff0000;stroke:#ff0000;" x="467.564735" xlink:href="#m4f696219ea" y="210.127094"/>
     <use style="fill:#ff0000;stroke:#ff0000;" x="468.23666" xlink:href="#m4f696219ea" y="218.345573"/>
     <use style="fill:#ff0000;stroke:#ff0000;" x="559.825424" xlink:href="#m4f696219ea" y="179.892651"/>
     <use style="fill:#ff0000;stroke:#ff0000;" x="412.930859" xlink:href="#m4f696219ea" y="238.204292"/>
     <use style="fill:#ff0000;stroke:#ff0000;" x="446.912322" xlink:href="#m4f696219ea" y="258.320138"/>
     <use style="fill:#ff0000;stroke:#ff0000;" x="384.634696" xlink:href="#m4f696219ea" y="264.949581"/>
     <use style="fill:#ff0000;stroke:#ff0000;" x="341.918132" xlink:href="#m4f696219ea" y="287.660759"/>
     <use style="fill:#ff0000;stroke:#ff0000;" x="390.859967" xlink:href="#m4f696219ea" y="275.616416"/>
     <use style="fill:#ff0000;stroke:#ff0000;" x="296.11868" xlink:href="#m4f696219ea" y="273.939667"/>
     <use style="fill:#ff0000;stroke:#ff0000;" x="413.055094" xlink:href="#m4f696219ea" y="251.775185"/>
     <use style="fill:#ff0000;stroke:#ff0000;" x="386.515552" xlink:href="#m4f696219ea" y="198.334255"/>
     <use style="fill:#ff0000;stroke:#ff0000;" x="404.198789" xlink:href="#m4f696219ea" y="252.82792"/>
    </g>
   </g>
   <g id="matplotlib.axis_1">
    <g id="xtick_1">
     <g id="line2d_1">
      <defs>
       <path d="M 0 0 
L 0 3.5 
" id="m5e2409ea59" style="stroke:#000000;stroke-width:0.8;"/>
      </defs>
      <g>
       <use style="stroke:#000000;stroke-width:0.8;" x="145.645298" xlink:href="#m5e2409ea59" y="630"/>
      </g>
     </g>
     <g id="text_1">
      <!-- −40.2 -->
      <defs>
       <path d="M 10.59375 35.5 
L 73.1875 35.5 
L 73.1875 27.203125 
L 10.59375 27.203125 
z
" id="DejaVuSans-8722"/>
       <path d="M 37.796875 64.3125 
L 12.890625 25.390625 
L 37.796875 25.390625 
z
M 35.203125 72.90625 
L 47.609375 72.90625 
L 47.609375 25.390625 
L 58.015625 25.390625 
L 58.015625 17.1875 
L 47.609375 17.1875 
L 47.609375 0 
L 37.796875 0 
L 37.796875 17.1875 
L 4.890625 17.1875 
L 4.890625 26.703125 
z
" id="DejaVuSans-52"/>
       <path d="M 31.78125 66.40625 
Q 24.171875 66.40625 20.328125 58.90625 
Q 16.5 51.421875 16.5 36.375 
Q 16.5 21.390625 20.328125 13.890625 
Q 24.171875 6.390625 31.78125 6.390625 
Q 39.453125 6.390625 43.28125 13.890625 
Q 47.125 21.390625 47.125 36.375 
Q 47.125 51.421875 43.28125 58.90625 
Q 39.453125 66.40625 31.78125 66.40625 
z
M 31.78125 74.21875 
Q 44.046875 74.21875 50.515625 64.515625 
Q 56.984375 54.828125 56.984375 36.375 
Q 56.984375 17.96875 50.515625 8.265625 
Q 44.046875 -1.421875 31.78125 -1.421875 
Q 19.53125 -1.421875 13.0625 8.265625 
Q 6.59375 17.96875 6.59375 36.375 
Q 6.59375 54.828125 13.0625 64.515625 
Q 19.53125 74.21875 31.78125 74.21875 
z
" id="DejaVuSans-48"/>
       <path d="M 10.6875 12.40625 
L 21 12.40625 
L 21 0 
L 10.6875 0 
z
" id="DejaVuSans-46"/>
       <path d="M 19.1875 8.296875 
L 53.609375 8.296875 
L 53.609375 0 
L 7.328125 0 
L 7.328125 8.296875 
Q 12.9375 14.109375 22.625 23.890625 
Q 32.328125 33.6875 34.8125 36.53125 
Q 39.546875 41.84375 41.421875 45.53125 
Q 43.3125 49.21875 43.3125 52.78125 
Q 43.3125 58.59375 39.234375 62.25 
Q 35.15625 65.921875 28.609375 65.921875 
Q 23.96875 65.921875 18.8125 64.3125 
Q 13.671875 62.703125 7.8125 59.421875 
L 7.8125 69.390625 
Q 13.765625 71.78125 18.9375 73 
Q 24.125 74.21875 28.421875 74.21875 
Q 39.75 74.21875 46.484375 68.546875 
Q 53.21875 62.890625 53.21875 53.421875 
Q 53.21875 48.921875 51.53125 44.890625 
Q 49.859375 40.875 45.40625 35.40625 
Q 44.1875 33.984375 37.640625 27.21875 
Q 31.109375 20.453125 19.1875 8.296875 
z
" id="DejaVuSans-50"/>
      </defs>
      <g transform="translate(130.322642 644.598438)scale(0.1 -0.1)">
       <use xlink:href="#DejaVuSans-8722"/>
       <use x="83.789062" xlink:href="#DejaVuSans-52"/>
       <use x="147.412109" xlink:href="#DejaVuSans-48"/>
       <use x="211.035156" xlink:href="#DejaVuSans-46"/>
       <use x="242.822266" xlink:href="#DejaVuSans-50"/>
      </g>
     </g>
    </g>
    <g id="xtick_2">
     <g id="line2d_2">
      <g>
       <use style="stroke:#000000;stroke-width:0.8;" x="240.792975" xlink:href="#m5e2409ea59" y="630"/>
      </g>
     </g>
     <g id="text_2">
      <!-- −40.0 -->
      <g transform="translate(225.470318 644.598438)scale(0.1 -0.1)">
       <use xlink:href="#DejaVuSans-8722"/>
       <use x="83.789062" xlink:href="#DejaVuSans-52"/>
       <use x="147.412109" xlink:href="#DejaVuSans-48"/>
       <use x="211.035156" xlink:href="#DejaVuSans-46"/>
       <use x="242.822266" xlink:href="#DejaVuSans-48"/>
      </g>
     </g>
    </g>
    <g id="xtick_3">
     <g id="line2d_3">
      <g>
       <use style="stroke:#000000;stroke-width:0.8;" x="335.940651" xlink:href="#m5e2409ea59" y="630"/>
      </g>
     </g>
     <g id="text_3">
      <!-- −39.8 -->
      <defs>
       <path d="M 40.578125 39.3125 
Q 47.65625 37.796875 51.625 33 
Q 55.609375 28.21875 55.609375 21.1875 
Q 55.609375 10.40625 48.1875 4.484375 
Q 40.765625 -1.421875 27.09375 -1.421875 
Q 22.515625 -1.421875 17.65625 -0.515625 
Q 12.796875 0.390625 7.625 2.203125 
L 7.625 11.71875 
Q 11.71875 9.328125 16.59375 8.109375 
Q 21.484375 6.890625 26.8125 6.890625 
Q 36.078125 6.890625 40.9375 10.546875 
Q 45.796875 14.203125 45.796875 21.1875 
Q 45.796875 27.640625 41.28125 31.265625 
Q 36.765625 34.90625 28.71875 34.90625 
L 20.21875 34.90625 
L 20.21875 43.015625 
L 29.109375 43.015625 
Q 36.375 43.015625 40.234375 45.921875 
Q 44.09375 48.828125 44.09375 54.296875 
Q 44.09375 59.90625 40.109375 62.90625 
Q 36.140625 65.921875 28.71875 65.921875 
Q 24.65625 65.921875 20.015625 65.03125 
Q 15.375 64.15625 9.8125 62.3125 
L 9.8125 71.09375 
Q 15.4375 72.65625 20.34375 73.4375 
Q 25.25 74.21875 29.59375 74.21875 
Q 40.828125 74.21875 47.359375 69.109375 
Q 53.90625 64.015625 53.90625 55.328125 
Q 53.90625 49.265625 50.4375 45.09375 
Q 46.96875 40.921875 40.578125 39.3125 
z
" id="DejaVuSans-51"/>
       <path d="M 10.984375 1.515625 
L 10.984375 10.5 
Q 14.703125 8.734375 18.5 7.8125 
Q 22.3125 6.890625 25.984375 6.890625 
Q 35.75 6.890625 40.890625 13.453125 
Q 46.046875 20.015625 46.78125 33.40625 
Q 43.953125 29.203125 39.59375 26.953125 
Q 35.25 24.703125 29.984375 24.703125 
Q 19.046875 24.703125 12.671875 31.3125 
Q 6.296875 37.9375 6.296875 49.421875 
Q 6.296875 60.640625 12.9375 67.421875 
Q 19.578125 74.21875 30.609375 74.21875 
Q 43.265625 74.21875 49.921875 64.515625 
Q 56.59375 54.828125 56.59375 36.375 
Q 56.59375 19.140625 48.40625 8.859375 
Q 40.234375 -1.421875 26.421875 -1.421875 
Q 22.703125 -1.421875 18.890625 -0.6875 
Q 15.09375 0.046875 10.984375 1.515625 
z
M 30.609375 32.421875 
Q 37.25 32.421875 41.125 36.953125 
Q 45.015625 41.5 45.015625 49.421875 
Q 45.015625 57.28125 41.125 61.84375 
Q 37.25 66.40625 30.609375 66.40625 
Q 23.96875 66.40625 20.09375 61.84375 
Q 16.21875 57.28125 16.21875 49.421875 
Q 16.21875 41.5 20.09375 36.953125 
Q 23.96875 32.421875 30.609375 32.421875 
z
" id="DejaVuSans-57"/>
       <path d="M 31.78125 34.625 
Q 24.75 34.625 20.71875 30.859375 
Q 16.703125 27.09375 16.703125 20.515625 
Q 16.703125 13.921875 20.71875 10.15625 
Q 24.75 6.390625 31.78125 6.390625 
Q 38.8125 6.390625 42.859375 10.171875 
Q 46.921875 13.96875 46.921875 20.515625 
Q 46.921875 27.09375 42.890625 30.859375 
Q 38.875 34.625 31.78125 34.625 
z
M 21.921875 38.8125 
Q 15.578125 40.375 12.03125 44.71875 
Q 8.5 49.078125 8.5 55.328125 
Q 8.5 64.0625 14.71875 69.140625 
Q 20.953125 74.21875 31.78125 74.21875 
Q 42.671875 74.21875 48.875 69.140625 
Q 55.078125 64.0625 55.078125 55.328125 
Q 55.078125 49.078125 51.53125 44.71875 
Q 48 40.375 41.703125 38.8125 
Q 48.828125 37.15625 52.796875 32.3125 
Q 56.78125 27.484375 56.78125 20.515625 
Q 56.78125 9.90625 50.3125 4.234375 
Q 43.84375 -1.421875 31.78125 -1.421875 
Q 19.734375 -1.421875 13.25 4.234375 
Q 6.78125 9.90625 6.78125 20.515625 
Q 6.78125 27.484375 10.78125 32.3125 
Q 14.796875 37.15625 21.921875 38.8125 
z
M 18.3125 54.390625 
Q 18.3125 48.734375 21.84375 45.5625 
Q 25.390625 42.390625 31.78125 42.390625 
Q 38.140625 42.390625 41.71875 45.5625 
Q 45.3125 48.734375 45.3125 54.390625 
Q 45.3125 60.0625 41.71875 63.234375 
Q 38.140625 66.40625 31.78125 66.40625 
Q 25.390625 66.40625 21.84375 63.234375 
Q 18.3125 60.0625 18.3125 54.390625 
z
" id="DejaVuSans-56"/>
      </defs>
      <g transform="translate(320.617995 644.598438)scale(0.1 -0.1)">
       <use xlink:href="#DejaVuSans-8722"/>
       <use x="83.789062" xlink:href="#DejaVuSans-51"/>
       <use x="147.412109" xlink:href="#DejaVuSans-57"/>
       <use x="211.035156" xlink:href="#DejaVuSans-46"/>
       <use x="242.822266" xlink:href="#DejaVuSans-56"/>
      </g>
     </g>
    </g>
    <g id="xtick_4">
     <g id="line2d_4">
      <g>
       <use style="stroke:#000000;stroke-width:0.8;" x="431.088328" xlink:href="#m5e2409ea59" y="630"/>
      </g>
     </g>
     <g id="text_4">
      <!-- −39.6 -->
      <defs>
       <path d="M 33.015625 40.375 
Q 26.375 40.375 22.484375 35.828125 
Q 18.609375 31.296875 18.609375 23.390625 
Q 18.609375 15.53125 22.484375 10.953125 
Q 26.375 6.390625 33.015625 6.390625 
Q 39.65625 6.390625 43.53125 10.953125 
Q 47.40625 15.53125 47.40625 23.390625 
Q 47.40625 31.296875 43.53125 35.828125 
Q 39.65625 40.375 33.015625 40.375 
z
M 52.59375 71.296875 
L 52.59375 62.3125 
Q 48.875 64.0625 45.09375 64.984375 
Q 41.3125 65.921875 37.59375 65.921875 
Q 27.828125 65.921875 22.671875 59.328125 
Q 17.53125 52.734375 16.796875 39.40625 
Q 19.671875 43.65625 24.015625 45.921875 
Q 28.375 48.1875 33.59375 48.1875 
Q 44.578125 48.1875 50.953125 41.515625 
Q 57.328125 34.859375 57.328125 23.390625 
Q 57.328125 12.15625 50.6875 5.359375 
Q 44.046875 -1.421875 33.015625 -1.421875 
Q 20.359375 -1.421875 13.671875 8.265625 
Q 6.984375 17.96875 6.984375 36.375 
Q 6.984375 53.65625 15.1875 63.9375 
Q 23.390625 74.21875 37.203125 74.21875 
Q 40.921875 74.21875 44.703125 73.484375 
Q 48.484375 72.75 52.59375 71.296875 
z
" id="DejaVuSans-54"/>
      </defs>
      <g transform="translate(415.765671 644.598438)scale(0.1 -0.1)">
       <use xlink:href="#DejaVuSans-8722"/>
       <use x="83.789062" xlink:href="#DejaVuSans-51"/>
       <use x="147.412109" xlink:href="#DejaVuSans-57"/>
       <use x="211.035156" xlink:href="#DejaVuSans-46"/>
       <use x="242.822266" xlink:href="#DejaVuSans-54"/>
      </g>
     </g>
    </g>
    <g id="xtick_5">
     <g id="line2d_5">
      <g>
       <use style="stroke:#000000;stroke-width:0.8;" x="526.236004" xlink:href="#m5e2409ea59" y="630"/>
      </g>
     </g>
     <g id="text_5">
      <!-- −39.4 -->
      <g transform="translate(510.913348 644.598438)scale(0.1 -0.1)">
       <use xlink:href="#DejaVuSans-8722"/>
       <use x="83.789062" xlink:href="#DejaVuSans-51"/>
       <use x="147.412109" xlink:href="#DejaVuSans-57"/>
       <use x="211.035156" xlink:href="#DejaVuSans-46"/>
       <use x="242.822266" xlink:href="#DejaVuSans-52"/>
      </g>
     </g>
    </g>
    <g id="xtick_6">
     <g id="line2d_6">
      <g>
       <use style="stroke:#000000;stroke-width:0.8;" x="621.383681" xlink:href="#m5e2409ea59" y="630"/>
      </g>
     </g>
     <g id="text_6">
      <!-- −39.2 -->
      <g transform="translate(606.061025 644.598438)scale(0.1 -0.1)">
       <use xlink:href="#DejaVuSans-8722"/>
       <use x="83.789062" xlink:href="#DejaVuSans-51"/>
       <use x="147.412109" xlink:href="#DejaVuSans-57"/>
       <use x="211.035156" xlink:href="#DejaVuSans-46"/>
       <use x="242.822266" xlink:href="#DejaVuSans-50"/>
      </g>
     </g>
    </g>
    <g id="xtick_7">
     <g id="line2d_7">
      <g>
       <use style="stroke:#000000;stroke-width:0.8;" x="716.531357" xlink:href="#m5e2409ea59" y="630"/>
      </g>
     </g>
     <g id="text_7">
      <!-- −39.0 -->
      <g transform="translate(701.208701 644.598438)scale(0.1 -0.1)">
       <use xlink:href="#DejaVuSans-8722"/>
       <use x="83.789062" xlink:href="#DejaVuSans-51"/>
       <use x="147.412109" xlink:href="#DejaVuSans-57"/>
       <use x="211.035156" xlink:href="#DejaVuSans-46"/>
       <use x="242.822266" xlink:href="#DejaVuSans-48"/>
      </g>
     </g>
    </g>
    <g id="text_8">
     <!-- I(input;conv1) -->
     <defs>
      <path d="M 9.8125 72.90625 
L 19.671875 72.90625 
L 19.671875 0 
L 9.8125 0 
z
" id="DejaVuSans-73"/>
      <path d="M 31 75.875 
Q 24.46875 64.65625 21.28125 53.65625 
Q 18.109375 42.671875 18.109375 31.390625 
Q 18.109375 20.125 21.3125 9.0625 
Q 24.515625 -2 31 -13.1875 
L 23.1875 -13.1875 
Q 15.875 -1.703125 12.234375 9.375 
Q 8.59375 20.453125 8.59375 31.390625 
Q 8.59375 42.28125 12.203125 53.3125 
Q 15.828125 64.359375 23.1875 75.875 
z
" id="DejaVuSans-40"/>
      <path d="M 9.421875 54.6875 
L 18.40625 54.6875 
L 18.40625 0 
L 9.421875 0 
z
M 9.421875 75.984375 
L 18.40625 75.984375 
L 18.40625 64.59375 
L 9.421875 64.59375 
z
" id="DejaVuSans-105"/>
      <path d="M 54.890625 33.015625 
L 54.890625 0 
L 45.90625 0 
L 45.90625 32.71875 
Q 45.90625 40.484375 42.875 44.328125 
Q 39.84375 48.1875 33.796875 48.1875 
Q 26.515625 48.1875 22.3125 43.546875 
Q 18.109375 38.921875 18.109375 30.90625 
L 18.109375 0 
L 9.078125 0 
L 9.078125 54.6875 
L 18.109375 54.6875 
L 18.109375 46.1875 
Q 21.34375 51.125 25.703125 53.5625 
Q 30.078125 56 35.796875 56 
Q 45.21875 56 50.046875 50.171875 
Q 54.890625 44.34375 54.890625 33.015625 
z
" id="DejaVuSans-110"/>
      <path d="M 18.109375 8.203125 
L 18.109375 -20.796875 
L 9.078125 -20.796875 
L 9.078125 54.6875 
L 18.109375 54.6875 
L 18.109375 46.390625 
Q 20.953125 51.265625 25.265625 53.625 
Q 29.59375 56 35.59375 56 
Q 45.5625 56 51.78125 48.09375 
Q 58.015625 40.1875 58.015625 27.296875 
Q 58.015625 14.40625 51.78125 6.484375 
Q 45.5625 -1.421875 35.59375 -1.421875 
Q 29.59375 -1.421875 25.265625 0.953125 
Q 20.953125 3.328125 18.109375 8.203125 
z
M 48.6875 27.296875 
Q 48.6875 37.203125 44.609375 42.84375 
Q 40.53125 48.484375 33.40625 48.484375 
Q 26.265625 48.484375 22.1875 42.84375 
Q 18.109375 37.203125 18.109375 27.296875 
Q 18.109375 17.390625 22.1875 11.75 
Q 26.265625 6.109375 33.40625 6.109375 
Q 40.53125 6.109375 44.609375 11.75 
Q 48.6875 17.390625 48.6875 27.296875 
z
" id="DejaVuSans-112"/>
      <path d="M 8.5 21.578125 
L 8.5 54.6875 
L 17.484375 54.6875 
L 17.484375 21.921875 
Q 17.484375 14.15625 20.5 10.265625 
Q 23.53125 6.390625 29.59375 6.390625 
Q 36.859375 6.390625 41.078125 11.03125 
Q 45.3125 15.671875 45.3125 23.6875 
L 45.3125 54.6875 
L 54.296875 54.6875 
L 54.296875 0 
L 45.3125 0 
L 45.3125 8.40625 
Q 42.046875 3.421875 37.71875 1 
Q 33.40625 -1.421875 27.6875 -1.421875 
Q 18.265625 -1.421875 13.375 4.4375 
Q 8.5 10.296875 8.5 21.578125 
z
M 31.109375 56 
z
" id="DejaVuSans-117"/>
      <path d="M 18.3125 70.21875 
L 18.3125 54.6875 
L 36.8125 54.6875 
L 36.8125 47.703125 
L 18.3125 47.703125 
L 18.3125 18.015625 
Q 18.3125 11.328125 20.140625 9.421875 
Q 21.96875 7.515625 27.59375 7.515625 
L 36.8125 7.515625 
L 36.8125 0 
L 27.59375 0 
Q 17.1875 0 13.234375 3.875 
Q 9.28125 7.765625 9.28125 18.015625 
L 9.28125 47.703125 
L 2.6875 47.703125 
L 2.6875 54.6875 
L 9.28125 54.6875 
L 9.28125 70.21875 
z
" id="DejaVuSans-116"/>
      <path d="M 11.71875 51.703125 
L 22.015625 51.703125 
L 22.015625 39.3125 
L 11.71875 39.3125 
z
M 11.71875 12.40625 
L 22.015625 12.40625 
L 22.015625 4 
L 14.015625 -11.625 
L 7.71875 -11.625 
L 11.71875 4 
z
" id="DejaVuSans-59"/>
      <path d="M 48.78125 52.59375 
L 48.78125 44.1875 
Q 44.96875 46.296875 41.140625 47.34375 
Q 37.3125 48.390625 33.40625 48.390625 
Q 24.65625 48.390625 19.8125 42.84375 
Q 14.984375 37.3125 14.984375 27.296875 
Q 14.984375 17.28125 19.8125 11.734375 
Q 24.65625 6.203125 33.40625 6.203125 
Q 37.3125 6.203125 41.140625 7.25 
Q 44.96875 8.296875 48.78125 10.40625 
L 48.78125 2.09375 
Q 45.015625 0.34375 40.984375 -0.53125 
Q 36.96875 -1.421875 32.421875 -1.421875 
Q 20.0625 -1.421875 12.78125 6.34375 
Q 5.515625 14.109375 5.515625 27.296875 
Q 5.515625 40.671875 12.859375 48.328125 
Q 20.21875 56 33.015625 56 
Q 37.15625 56 41.109375 55.140625 
Q 45.0625 54.296875 48.78125 52.59375 
z
" id="DejaVuSans-99"/>
      <path d="M 30.609375 48.390625 
Q 23.390625 48.390625 19.1875 42.75 
Q 14.984375 37.109375 14.984375 27.296875 
Q 14.984375 17.484375 19.15625 11.84375 
Q 23.34375 6.203125 30.609375 6.203125 
Q 37.796875 6.203125 41.984375 11.859375 
Q 46.1875 17.53125 46.1875 27.296875 
Q 46.1875 37.015625 41.984375 42.703125 
Q 37.796875 48.390625 30.609375 48.390625 
z
M 30.609375 56 
Q 42.328125 56 49.015625 48.375 
Q 55.71875 40.765625 55.71875 27.296875 
Q 55.71875 13.875 49.015625 6.21875 
Q 42.328125 -1.421875 30.609375 -1.421875 
Q 18.84375 -1.421875 12.171875 6.21875 
Q 5.515625 13.875 5.515625 27.296875 
Q 5.515625 40.765625 12.171875 48.375 
Q 18.84375 56 30.609375 56 
z
" id="DejaVuSans-111"/>
      <path d="M 2.984375 54.6875 
L 12.5 54.6875 
L 29.59375 8.796875 
L 46.6875 54.6875 
L 56.203125 54.6875 
L 35.6875 0 
L 23.484375 0 
z
" id="DejaVuSans-118"/>
      <path d="M 12.40625 8.296875 
L 28.515625 8.296875 
L 28.515625 63.921875 
L 10.984375 60.40625 
L 10.984375 69.390625 
L 28.421875 72.90625 
L 38.28125 72.90625 
L 38.28125 8.296875 
L 54.390625 8.296875 
L 54.390625 0 
L 12.40625 0 
z
" id="DejaVuSans-49"/>
      <path d="M 8.015625 75.875 
L 15.828125 75.875 
Q 23.140625 64.359375 26.78125 53.3125 
Q 30.421875 42.28125 30.421875 31.390625 
Q 30.421875 20.453125 26.78125 9.375 
Q 23.140625 -1.703125 15.828125 -13.1875 
L 8.015625 -13.1875 
Q 14.5 -2 17.703125 9.0625 
Q 20.90625 20.125 20.90625 31.390625 
Q 20.90625 42.671875 17.703125 53.65625 
Q 14.5 64.65625 8.015625 75.875 
z
" id="DejaVuSans-41"/>
     </defs>
     <g transform="translate(407.760156 658.276562)scale(0.1 -0.1)">
      <use xlink:href="#DejaVuSans-73"/>
      <use x="29.492188" xlink:href="#DejaVuSans-40"/>
      <use x="68.505859" xlink:href="#DejaVuSans-105"/>
      <use x="96.289062" xlink:href="#DejaVuSans-110"/>
      <use x="159.667969" xlink:href="#DejaVuSans-112"/>
      <use x="223.144531" xlink:href="#DejaVuSans-117"/>
      <use x="286.523438" xlink:href="#DejaVuSans-116"/>
      <use x="325.732422" xlink:href="#DejaVuSans-59"/>
      <use x="359.423828" xlink:href="#DejaVuSans-99"/>
      <use x="414.404297" xlink:href="#DejaVuSans-111"/>
      <use x="475.585938" xlink:href="#DejaVuSans-110"/>
      <use x="538.964844" xlink:href="#DejaVuSans-118"/>
      <use x="598.144531" xlink:href="#DejaVuSans-49"/>
      <use x="661.767578" xlink:href="#DejaVuSans-41"/>
     </g>
    </g>
   </g>
   <g id="matplotlib.axis_2">
    <g id="ytick_1">
     <g id="line2d_8">
      <defs>
       <path d="M 0 0 
L -3.5 0 
" id="mca28ffd013" style="stroke:#000000;stroke-width:0.8;"/>
      </defs>
      <g>
       <use style="stroke:#000000;stroke-width:0.8;" x="108" xlink:href="#mca28ffd013" y="621.148353"/>
      </g>
     </g>
     <g id="text_9">
      <!-- −25.2 -->
      <defs>
       <path d="M 10.796875 72.90625 
L 49.515625 72.90625 
L 49.515625 64.59375 
L 19.828125 64.59375 
L 19.828125 46.734375 
Q 21.96875 47.46875 24.109375 47.828125 
Q 26.265625 48.1875 28.421875 48.1875 
Q 40.625 48.1875 47.75 41.5 
Q 54.890625 34.8125 54.890625 23.390625 
Q 54.890625 11.625 47.5625 5.09375 
Q 40.234375 -1.421875 26.90625 -1.421875 
Q 22.3125 -1.421875 17.546875 -0.640625 
Q 12.796875 0.140625 7.71875 1.703125 
L 7.71875 11.625 
Q 12.109375 9.234375 16.796875 8.0625 
Q 21.484375 6.890625 26.703125 6.890625 
Q 35.15625 6.890625 40.078125 11.328125 
Q 45.015625 15.765625 45.015625 23.390625 
Q 45.015625 31 40.078125 35.4375 
Q 35.15625 39.890625 26.703125 39.890625 
Q 22.75 39.890625 18.8125 39.015625 
Q 14.890625 38.140625 10.796875 36.28125 
z
" id="DejaVuSans-53"/>
      </defs>
      <g transform="translate(70.354687 624.947571)scale(0.1 -0.1)">
       <use xlink:href="#DejaVuSans-8722"/>
       <use x="83.789062" xlink:href="#DejaVuSans-50"/>
       <use x="147.412109" xlink:href="#DejaVuSans-53"/>
       <use x="211.035156" xlink:href="#DejaVuSans-46"/>
       <use x="242.822266" xlink:href="#DejaVuSans-50"/>
      </g>
     </g>
    </g>
    <g id="ytick_2">
     <g id="line2d_9">
      <g>
       <use style="stroke:#000000;stroke-width:0.8;" x="108" xlink:href="#mca28ffd013" y="559.582502"/>
      </g>
     </g>
     <g id="text_10">
      <!-- −25.0 -->
      <g transform="translate(70.354687 563.381721)scale(0.1 -0.1)">
       <use xlink:href="#DejaVuSans-8722"/>
       <use x="83.789062" xlink:href="#DejaVuSans-50"/>
       <use x="147.412109" xlink:href="#DejaVuSans-53"/>
       <use x="211.035156" xlink:href="#DejaVuSans-46"/>
       <use x="242.822266" xlink:href="#DejaVuSans-48"/>
      </g>
     </g>
    </g>
    <g id="ytick_3">
     <g id="line2d_10">
      <g>
       <use style="stroke:#000000;stroke-width:0.8;" x="108" xlink:href="#mca28ffd013" y="498.016651"/>
      </g>
     </g>
     <g id="text_11">
      <!-- −24.8 -->
      <g transform="translate(70.354687 501.81587)scale(0.1 -0.1)">
       <use xlink:href="#DejaVuSans-8722"/>
       <use x="83.789062" xlink:href="#DejaVuSans-50"/>
       <use x="147.412109" xlink:href="#DejaVuSans-52"/>
       <use x="211.035156" xlink:href="#DejaVuSans-46"/>
       <use x="242.822266" xlink:href="#DejaVuSans-56"/>
      </g>
     </g>
    </g>
    <g id="ytick_4">
     <g id="line2d_11">
      <g>
       <use style="stroke:#000000;stroke-width:0.8;" x="108" xlink:href="#mca28ffd013" y="436.4508"/>
      </g>
     </g>
     <g id="text_12">
      <!-- −24.6 -->
      <g transform="translate(70.354687 440.250019)scale(0.1 -0.1)">
       <use xlink:href="#DejaVuSans-8722"/>
       <use x="83.789062" xlink:href="#DejaVuSans-50"/>
       <use x="147.412109" xlink:href="#DejaVuSans-52"/>
       <use x="211.035156" xlink:href="#DejaVuSans-46"/>
       <use x="242.822266" xlink:href="#DejaVuSans-54"/>
      </g>
     </g>
    </g>
    <g id="ytick_5">
     <g id="line2d_12">
      <g>
       <use style="stroke:#000000;stroke-width:0.8;" x="108" xlink:href="#mca28ffd013" y="374.88495"/>
      </g>
     </g>
     <g id="text_13">
      <!-- −24.4 -->
      <g transform="translate(70.354687 378.684169)scale(0.1 -0.1)">
       <use xlink:href="#DejaVuSans-8722"/>
       <use x="83.789062" xlink:href="#DejaVuSans-50"/>
       <use x="147.412109" xlink:href="#DejaVuSans-52"/>
       <use x="211.035156" xlink:href="#DejaVuSans-46"/>
       <use x="242.822266" xlink:href="#DejaVuSans-52"/>
      </g>
     </g>
    </g>
    <g id="ytick_6">
     <g id="line2d_13">
      <g>
       <use style="stroke:#000000;stroke-width:0.8;" x="108" xlink:href="#mca28ffd013" y="313.319099"/>
      </g>
     </g>
     <g id="text_14">
      <!-- −24.2 -->
      <g transform="translate(70.354687 317.118318)scale(0.1 -0.1)">
       <use xlink:href="#DejaVuSans-8722"/>
       <use x="83.789062" xlink:href="#DejaVuSans-50"/>
       <use x="147.412109" xlink:href="#DejaVuSans-52"/>
       <use x="211.035156" xlink:href="#DejaVuSans-46"/>
       <use x="242.822266" xlink:href="#DejaVuSans-50"/>
      </g>
     </g>
    </g>
    <g id="ytick_7">
     <g id="line2d_14">
      <g>
       <use style="stroke:#000000;stroke-width:0.8;" x="108" xlink:href="#mca28ffd013" y="251.753248"/>
      </g>
     </g>
     <g id="text_15">
      <!-- −24.0 -->
      <g transform="translate(70.354687 255.552467)scale(0.1 -0.1)">
       <use xlink:href="#DejaVuSans-8722"/>
       <use x="83.789062" xlink:href="#DejaVuSans-50"/>
       <use x="147.412109" xlink:href="#DejaVuSans-52"/>
       <use x="211.035156" xlink:href="#DejaVuSans-46"/>
       <use x="242.822266" xlink:href="#DejaVuSans-48"/>
      </g>
     </g>
    </g>
    <g id="ytick_8">
     <g id="line2d_15">
      <g>
       <use style="stroke:#000000;stroke-width:0.8;" x="108" xlink:href="#mca28ffd013" y="190.187398"/>
      </g>
     </g>
     <g id="text_16">
      <!-- −23.8 -->
      <g transform="translate(70.354687 193.986616)scale(0.1 -0.1)">
       <use xlink:href="#DejaVuSans-8722"/>
       <use x="83.789062" xlink:href="#DejaVuSans-50"/>
       <use x="147.412109" xlink:href="#DejaVuSans-51"/>
       <use x="211.035156" xlink:href="#DejaVuSans-46"/>
       <use x="242.822266" xlink:href="#DejaVuSans-56"/>
      </g>
     </g>
    </g>
    <g id="ytick_9">
     <g id="line2d_16">
      <g>
       <use style="stroke:#000000;stroke-width:0.8;" x="108" xlink:href="#mca28ffd013" y="128.621547"/>
      </g>
     </g>
     <g id="text_17">
      <!-- −23.6 -->
      <g transform="translate(70.354687 132.420766)scale(0.1 -0.1)">
       <use xlink:href="#DejaVuSans-8722"/>
       <use x="83.789062" xlink:href="#DejaVuSans-50"/>
       <use x="147.412109" xlink:href="#DejaVuSans-51"/>
       <use x="211.035156" xlink:href="#DejaVuSans-46"/>
       <use x="242.822266" xlink:href="#DejaVuSans-54"/>
      </g>
     </g>
    </g>
    <g id="text_18">
     <!-- I(conv1;output) -->
     <g transform="translate(64.275 396.870313)rotate(-90)scale(0.1 -0.1)">
      <use xlink:href="#DejaVuSans-73"/>
      <use x="29.492188" xlink:href="#DejaVuSans-40"/>
      <use x="68.505859" xlink:href="#DejaVuSans-99"/>
      <use x="123.486328" xlink:href="#DejaVuSans-111"/>
      <use x="184.667969" xlink:href="#DejaVuSans-110"/>
      <use x="248.046875" xlink:href="#DejaVuSans-118"/>
      <use x="307.226562" xlink:href="#DejaVuSans-49"/>
      <use x="370.849609" xlink:href="#DejaVuSans-59"/>
      <use x="404.541016" xlink:href="#DejaVuSans-111"/>
      <use x="465.722656" xlink:href="#DejaVuSans-117"/>
      <use x="529.101562" xlink:href="#DejaVuSans-116"/>
      <use x="568.310547" xlink:href="#DejaVuSans-112"/>
      <use x="631.787109" xlink:href="#DejaVuSans-117"/>
      <use x="695.166016" xlink:href="#DejaVuSans-116"/>
      <use x="734.375" xlink:href="#DejaVuSans-41"/>
     </g>
    </g>
   </g>
   <g id="patch_3">
    <path d="M 108 630 
L 108 86.4 
" style="fill:none;stroke:#000000;stroke-linecap:square;stroke-linejoin:miter;stroke-width:0.8;"/>
   </g>
   <g id="patch_4">
    <path d="M 777.6 630 
L 777.6 86.4 
" style="fill:none;stroke:#000000;stroke-linecap:square;stroke-linejoin:miter;stroke-width:0.8;"/>
   </g>
   <g id="patch_5">
    <path d="M 108 630 
L 777.6 630 
" style="fill:none;stroke:#000000;stroke-linecap:square;stroke-linejoin:miter;stroke-width:0.8;"/>
   </g>
   <g id="patch_6">
    <path d="M 108 86.4 
L 777.6 86.4 
" style="fill:none;stroke:#000000;stroke-linecap:square;stroke-linejoin:miter;stroke-width:0.8;"/>
   </g>
   <g id="text_19">
    <!-- Information Plane Node Strengths input-conv1 -->
    <defs>
     <path d="M 37.109375 75.984375 
L 37.109375 68.5 
L 28.515625 68.5 
Q 23.6875 68.5 21.796875 66.546875 
Q 19.921875 64.59375 19.921875 59.515625 
L 19.921875 54.6875 
L 34.71875 54.6875 
L 34.71875 47.703125 
L 19.921875 47.703125 
L 19.921875 0 
L 10.890625 0 
L 10.890625 47.703125 
L 2.296875 47.703125 
L 2.296875 54.6875 
L 10.890625 54.6875 
L 10.890625 58.5 
Q 10.890625 67.625 15.140625 71.796875 
Q 19.390625 75.984375 28.609375 75.984375 
z
" id="DejaVuSans-102"/>
     <path d="M 41.109375 46.296875 
Q 39.59375 47.171875 37.8125 47.578125 
Q 36.03125 48 33.890625 48 
Q 26.265625 48 22.1875 43.046875 
Q 18.109375 38.09375 18.109375 28.8125 
L 18.109375 0 
L 9.078125 0 
L 9.078125 54.6875 
L 18.109375 54.6875 
L 18.109375 46.1875 
Q 20.953125 51.171875 25.484375 53.578125 
Q 30.03125 56 36.53125 56 
Q 37.453125 56 38.578125 55.875 
Q 39.703125 55.765625 41.0625 55.515625 
z
" id="DejaVuSans-114"/>
     <path d="M 52 44.1875 
Q 55.375 50.25 60.0625 53.125 
Q 64.75 56 71.09375 56 
Q 79.640625 56 84.28125 50.015625 
Q 88.921875 44.046875 88.921875 33.015625 
L 88.921875 0 
L 79.890625 0 
L 79.890625 32.71875 
Q 79.890625 40.578125 77.09375 44.375 
Q 74.3125 48.1875 68.609375 48.1875 
Q 61.625 48.1875 57.5625 43.546875 
Q 53.515625 38.921875 53.515625 30.90625 
L 53.515625 0 
L 44.484375 0 
L 44.484375 32.71875 
Q 44.484375 40.625 41.703125 44.40625 
Q 38.921875 48.1875 33.109375 48.1875 
Q 26.21875 48.1875 22.15625 43.53125 
Q 18.109375 38.875 18.109375 30.90625 
L 18.109375 0 
L 9.078125 0 
L 9.078125 54.6875 
L 18.109375 54.6875 
L 18.109375 46.1875 
Q 21.1875 51.21875 25.484375 53.609375 
Q 29.78125 56 35.6875 56 
Q 41.65625 56 45.828125 52.96875 
Q 50 49.953125 52 44.1875 
z
" id="DejaVuSans-109"/>
     <path d="M 34.28125 27.484375 
Q 23.390625 27.484375 19.1875 25 
Q 14.984375 22.515625 14.984375 16.5 
Q 14.984375 11.71875 18.140625 8.90625 
Q 21.296875 6.109375 26.703125 6.109375 
Q 34.1875 6.109375 38.703125 11.40625 
Q 43.21875 16.703125 43.21875 25.484375 
L 43.21875 27.484375 
z
M 52.203125 31.203125 
L 52.203125 0 
L 43.21875 0 
L 43.21875 8.296875 
Q 40.140625 3.328125 35.546875 0.953125 
Q 30.953125 -1.421875 24.3125 -1.421875 
Q 15.921875 -1.421875 10.953125 3.296875 
Q 6 8.015625 6 15.921875 
Q 6 25.140625 12.171875 29.828125 
Q 18.359375 34.515625 30.609375 34.515625 
L 43.21875 34.515625 
L 43.21875 35.40625 
Q 43.21875 41.609375 39.140625 45 
Q 35.0625 48.390625 27.6875 48.390625 
Q 23 48.390625 18.546875 47.265625 
Q 14.109375 46.140625 10.015625 43.890625 
L 10.015625 52.203125 
Q 14.9375 54.109375 19.578125 55.046875 
Q 24.21875 56 28.609375 56 
Q 40.484375 56 46.34375 49.84375 
Q 52.203125 43.703125 52.203125 31.203125 
z
" id="DejaVuSans-97"/>
     <path id="DejaVuSans-32"/>
     <path d="M 19.671875 64.796875 
L 19.671875 37.40625 
L 32.078125 37.40625 
Q 38.96875 37.40625 42.71875 40.96875 
Q 46.484375 44.53125 46.484375 51.125 
Q 46.484375 57.671875 42.71875 61.234375 
Q 38.96875 64.796875 32.078125 64.796875 
z
M 9.8125 72.90625 
L 32.078125 72.90625 
Q 44.34375 72.90625 50.609375 67.359375 
Q 56.890625 61.8125 56.890625 51.125 
Q 56.890625 40.328125 50.609375 34.8125 
Q 44.34375 29.296875 32.078125 29.296875 
L 19.671875 29.296875 
L 19.671875 0 
L 9.8125 0 
z
" id="DejaVuSans-80"/>
     <path d="M 9.421875 75.984375 
L 18.40625 75.984375 
L 18.40625 0 
L 9.421875 0 
z
" id="DejaVuSans-108"/>
     <path d="M 56.203125 29.59375 
L 56.203125 25.203125 
L 14.890625 25.203125 
Q 15.484375 15.921875 20.484375 11.0625 
Q 25.484375 6.203125 34.421875 6.203125 
Q 39.59375 6.203125 44.453125 7.46875 
Q 49.3125 8.734375 54.109375 11.28125 
L 54.109375 2.78125 
Q 49.265625 0.734375 44.1875 -0.34375 
Q 39.109375 -1.421875 33.890625 -1.421875 
Q 20.796875 -1.421875 13.15625 6.1875 
Q 5.515625 13.8125 5.515625 26.8125 
Q 5.515625 40.234375 12.765625 48.109375 
Q 20.015625 56 32.328125 56 
Q 43.359375 56 49.78125 48.890625 
Q 56.203125 41.796875 56.203125 29.59375 
z
M 47.21875 32.234375 
Q 47.125 39.59375 43.09375 43.984375 
Q 39.0625 48.390625 32.421875 48.390625 
Q 24.90625 48.390625 20.390625 44.140625 
Q 15.875 39.890625 15.1875 32.171875 
z
" id="DejaVuSans-101"/>
     <path d="M 9.8125 72.90625 
L 23.09375 72.90625 
L 55.421875 11.921875 
L 55.421875 72.90625 
L 64.984375 72.90625 
L 64.984375 0 
L 51.703125 0 
L 19.390625 60.984375 
L 19.390625 0 
L 9.8125 0 
z
" id="DejaVuSans-78"/>
     <path d="M 45.40625 46.390625 
L 45.40625 75.984375 
L 54.390625 75.984375 
L 54.390625 0 
L 45.40625 0 
L 45.40625 8.203125 
Q 42.578125 3.328125 38.25 0.953125 
Q 33.9375 -1.421875 27.875 -1.421875 
Q 17.96875 -1.421875 11.734375 6.484375 
Q 5.515625 14.40625 5.515625 27.296875 
Q 5.515625 40.1875 11.734375 48.09375 
Q 17.96875 56 27.875 56 
Q 33.9375 56 38.25 53.625 
Q 42.578125 51.265625 45.40625 46.390625 
z
M 14.796875 27.296875 
Q 14.796875 17.390625 18.875 11.75 
Q 22.953125 6.109375 30.078125 6.109375 
Q 37.203125 6.109375 41.296875 11.75 
Q 45.40625 17.390625 45.40625 27.296875 
Q 45.40625 37.203125 41.296875 42.84375 
Q 37.203125 48.484375 30.078125 48.484375 
Q 22.953125 48.484375 18.875 42.84375 
Q 14.796875 37.203125 14.796875 27.296875 
z
" id="DejaVuSans-100"/>
     <path d="M 53.515625 70.515625 
L 53.515625 60.890625 
Q 47.90625 63.578125 42.921875 64.890625 
Q 37.9375 66.21875 33.296875 66.21875 
Q 25.25 66.21875 20.875 63.09375 
Q 16.5 59.96875 16.5 54.203125 
Q 16.5 49.359375 19.40625 46.890625 
Q 22.3125 44.4375 30.421875 42.921875 
L 36.375 41.703125 
Q 47.40625 39.59375 52.65625 34.296875 
Q 57.90625 29 57.90625 20.125 
Q 57.90625 9.515625 50.796875 4.046875 
Q 43.703125 -1.421875 29.984375 -1.421875 
Q 24.8125 -1.421875 18.96875 -0.25 
Q 13.140625 0.921875 6.890625 3.21875 
L 6.890625 13.375 
Q 12.890625 10.015625 18.65625 8.296875 
Q 24.421875 6.59375 29.984375 6.59375 
Q 38.421875 6.59375 43.015625 9.90625 
Q 47.609375 13.234375 47.609375 19.390625 
Q 47.609375 24.75 44.3125 27.78125 
Q 41.015625 30.8125 33.5 32.328125 
L 27.484375 33.5 
Q 16.453125 35.6875 11.515625 40.375 
Q 6.59375 45.0625 6.59375 53.421875 
Q 6.59375 63.09375 13.40625 68.65625 
Q 20.21875 74.21875 32.171875 74.21875 
Q 37.3125 74.21875 42.625 73.28125 
Q 47.953125 72.359375 53.515625 70.515625 
z
" id="DejaVuSans-83"/>
     <path d="M 45.40625 27.984375 
Q 45.40625 37.75 41.375 43.109375 
Q 37.359375 48.484375 30.078125 48.484375 
Q 22.859375 48.484375 18.828125 43.109375 
Q 14.796875 37.75 14.796875 27.984375 
Q 14.796875 18.265625 18.828125 12.890625 
Q 22.859375 7.515625 30.078125 7.515625 
Q 37.359375 7.515625 41.375 12.890625 
Q 45.40625 18.265625 45.40625 27.984375 
z
M 54.390625 6.78125 
Q 54.390625 -7.171875 48.1875 -13.984375 
Q 42 -20.796875 29.203125 -20.796875 
Q 24.46875 -20.796875 20.265625 -20.09375 
Q 16.0625 -19.390625 12.109375 -17.921875 
L 12.109375 -9.1875 
Q 16.0625 -11.328125 19.921875 -12.34375 
Q 23.78125 -13.375 27.78125 -13.375 
Q 36.625 -13.375 41.015625 -8.765625 
Q 45.40625 -4.15625 45.40625 5.171875 
L 45.40625 9.625 
Q 42.625 4.78125 38.28125 2.390625 
Q 33.9375 0 27.875 0 
Q 17.828125 0 11.671875 7.65625 
Q 5.515625 15.328125 5.515625 27.984375 
Q 5.515625 40.671875 11.671875 48.328125 
Q 17.828125 56 27.875 56 
Q 33.9375 56 38.28125 53.609375 
Q 42.625 51.21875 45.40625 46.390625 
L 45.40625 54.6875 
L 54.390625 54.6875 
z
" id="DejaVuSans-103"/>
     <path d="M 54.890625 33.015625 
L 54.890625 0 
L 45.90625 0 
L 45.90625 32.71875 
Q 45.90625 40.484375 42.875 44.328125 
Q 39.84375 48.1875 33.796875 48.1875 
Q 26.515625 48.1875 22.3125 43.546875 
Q 18.109375 38.921875 18.109375 30.90625 
L 18.109375 0 
L 9.078125 0 
L 9.078125 75.984375 
L 18.109375 75.984375 
L 18.109375 46.1875 
Q 21.34375 51.125 25.703125 53.5625 
Q 30.078125 56 35.796875 56 
Q 45.21875 56 50.046875 50.171875 
Q 54.890625 44.34375 54.890625 33.015625 
z
" id="DejaVuSans-104"/>
     <path d="M 44.28125 53.078125 
L 44.28125 44.578125 
Q 40.484375 46.53125 36.375 47.5 
Q 32.28125 48.484375 27.875 48.484375 
Q 21.1875 48.484375 17.84375 46.4375 
Q 14.5 44.390625 14.5 40.28125 
Q 14.5 37.15625 16.890625 35.375 
Q 19.28125 33.59375 26.515625 31.984375 
L 29.59375 31.296875 
Q 39.15625 29.25 43.1875 25.515625 
Q 47.21875 21.78125 47.21875 15.09375 
Q 47.21875 7.46875 41.1875 3.015625 
Q 35.15625 -1.421875 24.609375 -1.421875 
Q 20.21875 -1.421875 15.453125 -0.5625 
Q 10.6875 0.296875 5.421875 2 
L 5.421875 11.28125 
Q 10.40625 8.6875 15.234375 7.390625 
Q 20.0625 6.109375 24.8125 6.109375 
Q 31.15625 6.109375 34.5625 8.28125 
Q 37.984375 10.453125 37.984375 14.40625 
Q 37.984375 18.0625 35.515625 20.015625 
Q 33.0625 21.96875 24.703125 23.78125 
L 21.578125 24.515625 
Q 13.234375 26.265625 9.515625 29.90625 
Q 5.8125 33.546875 5.8125 39.890625 
Q 5.8125 47.609375 11.28125 51.796875 
Q 16.75 56 26.8125 56 
Q 31.78125 56 36.171875 55.265625 
Q 40.578125 54.546875 44.28125 53.078125 
z
" id="DejaVuSans-115"/>
     <path d="M 4.890625 31.390625 
L 31.203125 31.390625 
L 31.203125 23.390625 
L 4.890625 23.390625 
z
" id="DejaVuSans-45"/>
    </defs>
    <g transform="translate(303.270938 80.4)scale(0.12 -0.12)">
     <use xlink:href="#DejaVuSans-73"/>
     <use x="29.492188" xlink:href="#DejaVuSans-110"/>
     <use x="92.871094" xlink:href="#DejaVuSans-102"/>
     <use x="128.076172" xlink:href="#DejaVuSans-111"/>
     <use x="189.257812" xlink:href="#DejaVuSans-114"/>
     <use x="230.355469" xlink:href="#DejaVuSans-109"/>
     <use x="327.767578" xlink:href="#DejaVuSans-97"/>
     <use x="389.046875" xlink:href="#DejaVuSans-116"/>
     <use x="428.255859" xlink:href="#DejaVuSans-105"/>
     <use x="456.039062" xlink:href="#DejaVuSans-111"/>
     <use x="517.220703" xlink:href="#DejaVuSans-110"/>
     <use x="580.599609" xlink:href="#DejaVuSans-32"/>
     <use x="612.386719" xlink:href="#DejaVuSans-80"/>
     <use x="672.689453" xlink:href="#DejaVuSans-108"/>
     <use x="700.472656" xlink:href="#DejaVuSans-97"/>
     <use x="761.751953" xlink:href="#DejaVuSans-110"/>
     <use x="825.130859" xlink:href="#DejaVuSans-101"/>
     <use x="886.654297" xlink:href="#DejaVuSans-32"/>
     <use x="918.441406" xlink:href="#DejaVuSans-78"/>
     <use x="993.246094" xlink:href="#DejaVuSans-111"/>
     <use x="1054.427734" xlink:href="#DejaVuSans-100"/>
     <use x="1117.904297" xlink:href="#DejaVuSans-101"/>
     <use x="1179.427734" xlink:href="#DejaVuSans-32"/>
     <use x="1211.214844" xlink:href="#DejaVuSans-83"/>
     <use x="1274.691406" xlink:href="#DejaVuSans-116"/>
     <use x="1313.900391" xlink:href="#DejaVuSans-114"/>
     <use x="1354.982422" xlink:href="#DejaVuSans-101"/>
     <use x="1416.505859" xlink:href="#DejaVuSans-110"/>
     <use x="1479.884766" xlink:href="#DejaVuSans-103"/>
     <use x="1543.361328" xlink:href="#DejaVuSans-116"/>
     <use x="1582.570312" xlink:href="#DejaVuSans-104"/>
     <use x="1645.949219" xlink:href="#DejaVuSans-115"/>
     <use x="1698.048828" xlink:href="#DejaVuSans-32"/>
     <use x="1729.835938" xlink:href="#DejaVuSans-105"/>
     <use x="1757.619141" xlink:href="#DejaVuSans-110"/>
     <use x="1820.998047" xlink:href="#DejaVuSans-112"/>
     <use x="1884.474609" xlink:href="#DejaVuSans-117"/>
     <use x="1947.853516" xlink:href="#DejaVuSans-116"/>
     <use x="1987.0625" xlink:href="#DejaVuSans-45"/>
     <use x="2023.146484" xlink:href="#DejaVuSans-99"/>
     <use x="2078.126953" xlink:href="#DejaVuSans-111"/>
     <use x="2139.308594" xlink:href="#DejaVuSans-110"/>
     <use x="2202.6875" xlink:href="#DejaVuSans-118"/>
     <use x="2261.867188" xlink:href="#DejaVuSans-49"/>
    </g>
   </g>
   <g id="legend_1">
    <g id="patch_7">
     <path d="M 722.50625 167.790625 
L 770.6 167.790625 
Q 772.6 167.790625 772.6 165.790625 
L 772.6 93.4 
Q 772.6 91.4 770.6 91.4 
L 722.50625 91.4 
Q 720.50625 91.4 720.50625 93.4 
L 720.50625 165.790625 
Q 720.50625 167.790625 722.50625 167.790625 
z
" style="fill:#ffffff;opacity:0.8;stroke:#cccccc;stroke-linejoin:miter;"/>
    </g>
    <g id="PathCollection_6">
     <g>
      <use style="fill:#0000ff;stroke:#0000ff;" x="734.50625" xlink:href="#me1745a10af" y="100.373438"/>
     </g>
    </g>
    <g id="text_20">
     <!-- 1/5 -->
     <defs>
      <path d="M 25.390625 72.90625 
L 33.6875 72.90625 
L 8.296875 -9.28125 
L 0 -9.28125 
z
" id="DejaVuSans-47"/>
     </defs>
     <g transform="translate(752.50625 102.998438)scale(0.1 -0.1)">
      <use xlink:href="#DejaVuSans-49"/>
      <use x="63.623047" xlink:href="#DejaVuSans-47"/>
      <use x="97.314453" xlink:href="#DejaVuSans-53"/>
     </g>
    </g>
    <g id="PathCollection_7">
     <g>
      <use style="fill:#008000;stroke:#008000;" x="734.50625" xlink:href="#m0f99b20d47" y="115.051563"/>
     </g>
    </g>
    <g id="text_21">
     <!-- 2/5 -->
     <g transform="translate(752.50625 117.676563)scale(0.1 -0.1)">
      <use xlink:href="#DejaVuSans-50"/>
      <use x="63.623047" xlink:href="#DejaVuSans-47"/>
      <use x="97.314453" xlink:href="#DejaVuSans-53"/>
     </g>
    </g>
    <g id="PathCollection_8">
     <g>
      <use style="fill:#ffff00;stroke:#ffff00;" x="734.50625" xlink:href="#m066dc8d342" y="129.729688"/>
     </g>
    </g>
    <g id="text_22">
     <!-- 3/5 -->
     <g transform="translate(752.50625 132.354688)scale(0.1 -0.1)">
      <use xlink:href="#DejaVuSans-51"/>
      <use x="63.623047" xlink:href="#DejaVuSans-47"/>
      <use x="97.314453" xlink:href="#DejaVuSans-53"/>
     </g>
    </g>
    <g id="PathCollection_9">
     <g>
      <use style="fill:#ffa500;stroke:#ffa500;" x="734.50625" xlink:href="#m2cfdc79246" y="144.407812"/>
     </g>
    </g>
    <g id="text_23">
     <!-- 4/5 -->
     <g transform="translate(752.50625 147.032812)scale(0.1 -0.1)">
      <use xlink:href="#DejaVuSans-52"/>
      <use x="63.623047" xlink:href="#DejaVuSans-47"/>
      <use x="97.314453" xlink:href="#DejaVuSans-53"/>
     </g>
    </g>
    <g id="PathCollection_10">
     <g>
      <use style="fill:#ff0000;stroke:#ff0000;" x="734.50625" xlink:href="#m4f696219ea" y="159.085938"/>
     </g>
    </g>
    <g id="text_24">
     <!-- 5/5 -->
     <g transform="translate(752.50625 161.710938)scale(0.1 -0.1)">
      <use xlink:href="#DejaVuSans-53"/>
      <use x="63.623047" xlink:href="#DejaVuSans-47"/>
      <use x="97.314453" xlink:href="#DejaVuSans-53"/>
     </g>
    </g>
   </g>
  </g>
 </g>
 <defs>
  <clipPath id="pcbc99a9d3f">
   <rect height="543.6" width="669.6" x="108" y="86.4"/>
  </clipPath>
 </defs>
</svg>
