<?xml version="1.0" encoding="utf-8" standalone="no"?>
<!DOCTYPE svg PUBLIC "-//W3C//DTD SVG 1.1//EN"
  "http://www.w3.org/Graphics/SVG/1.1/DTD/svg11.dtd">
<!-- Created with matplotlib (https://matplotlib.org/) -->
<svg height="720pt" version="1.1" viewBox="0 0 864 720" width="864pt" xmlns="http://www.w3.org/2000/svg" xmlns:xlink="http://www.w3.org/1999/xlink">
 <defs>
  <style type="text/css">
*{stroke-linecap:butt;stroke-linejoin:round;white-space:pre;}
  </style>
 </defs>
 <g id="figure_1">
  <g id="patch_1">
   <path d="M 0 720 
L 864 720 
L 864 0 
L 0 0 
z
" style="fill:#ffffff;"/>
  </g>
  <g id="axes_1">
   <g id="patch_2">
    <path d="M 108 630 
L 777.6 630 
L 777.6 86.4 
L 108 86.4 
z
" style="fill:#ffffff;"/>
   </g>
   <g id="PathCollection_1">
    <defs>
     <path d="M 0 3 
C 0.795609 3 1.55874 2.683901 2.12132 2.12132 
C 2.683901 1.55874 3 0.795609 3 0 
C 3 -0.795609 2.683901 -1.55874 2.12132 -2.12132 
C 1.55874 -2.683901 0.795609 -3 0 -3 
C -0.795609 -3 -1.55874 -2.683901 -2.12132 -2.12132 
C -2.683901 -1.55874 -3 -0.795609 -3 0 
C -3 0.795609 -2.683901 1.55874 -2.12132 2.12132 
C -1.55874 2.683901 -0.795609 3 0 3 
z
" id="m0411ddbb97" style="stroke:#0000ff;"/>
    </defs>
    <g clip-path="url(#p8a8ea14885)">
     <use style="fill:#0000ff;stroke:#0000ff;" x="312.344752" xlink:href="#m0411ddbb97" y="454.225161"/>
     <use style="fill:#0000ff;stroke:#0000ff;" x="213.620932" xlink:href="#m0411ddbb97" y="579.802027"/>
     <use style="fill:#0000ff;stroke:#0000ff;" x="211.596529" xlink:href="#m0411ddbb97" y="534.461389"/>
     <use style="fill:#0000ff;stroke:#0000ff;" x="239.92496" xlink:href="#m0411ddbb97" y="571.875099"/>
     <use style="fill:#0000ff;stroke:#0000ff;" x="140.23235" xlink:href="#m0411ddbb97" y="573.757726"/>
     <use style="fill:#0000ff;stroke:#0000ff;" x="254.758161" xlink:href="#m0411ddbb97" y="579.474407"/>
     <use style="fill:#0000ff;stroke:#0000ff;" x="232.093968" xlink:href="#m0411ddbb97" y="554.423301"/>
     <use style="fill:#0000ff;stroke:#0000ff;" x="435.464883" xlink:href="#m0411ddbb97" y="536.293012"/>
     <use style="fill:#0000ff;stroke:#0000ff;" x="155.933382" xlink:href="#m0411ddbb97" y="568.218273"/>
     <use style="fill:#0000ff;stroke:#0000ff;" x="218.971065" xlink:href="#m0411ddbb97" y="508.404397"/>
     <use style="fill:#0000ff;stroke:#0000ff;" x="156.406367" xlink:href="#m0411ddbb97" y="486.878161"/>
     <use style="fill:#0000ff;stroke:#0000ff;" x="204.632787" xlink:href="#m0411ddbb97" y="444.773414"/>
     <use style="fill:#0000ff;stroke:#0000ff;" x="318.559362" xlink:href="#m0411ddbb97" y="507.151429"/>
     <use style="fill:#0000ff;stroke:#0000ff;" x="247.285435" xlink:href="#m0411ddbb97" y="604.302168"/>
     <use style="fill:#0000ff;stroke:#0000ff;" x="358.244857" xlink:href="#m0411ddbb97" y="459.969593"/>
     <use style="fill:#0000ff;stroke:#0000ff;" x="310.499438" xlink:href="#m0411ddbb97" y="482.700888"/>
     <use style="fill:#0000ff;stroke:#0000ff;" x="341.008749" xlink:href="#m0411ddbb97" y="463.535446"/>
     <use style="fill:#0000ff;stroke:#0000ff;" x="280.611707" xlink:href="#m0411ddbb97" y="467.633569"/>
     <use style="fill:#0000ff;stroke:#0000ff;" x="214.185504" xlink:href="#m0411ddbb97" y="414.340108"/>
     <use style="fill:#0000ff;stroke:#0000ff;" x="396.673537" xlink:href="#m0411ddbb97" y="399.854939"/>
     <use style="fill:#0000ff;stroke:#0000ff;" x="317.172807" xlink:href="#m0411ddbb97" y="417.398139"/>
     <use style="fill:#0000ff;stroke:#0000ff;" x="379.91071" xlink:href="#m0411ddbb97" y="421.709558"/>
     <use style="fill:#0000ff;stroke:#0000ff;" x="328.665106" xlink:href="#m0411ddbb97" y="295.107408"/>
     <use style="fill:#0000ff;stroke:#0000ff;" x="340.370093" xlink:href="#m0411ddbb97" y="478.744055"/>
     <use style="fill:#0000ff;stroke:#0000ff;" x="341.116767" xlink:href="#m0411ddbb97" y="416.839026"/>
     <use style="fill:#0000ff;stroke:#0000ff;" x="442.208159" xlink:href="#m0411ddbb97" y="479.390329"/>
     <use style="fill:#0000ff;stroke:#0000ff;" x="390.265313" xlink:href="#m0411ddbb97" y="466.492138"/>
     <use style="fill:#0000ff;stroke:#0000ff;" x="332.867314" xlink:href="#m0411ddbb97" y="352.408104"/>
     <use style="fill:#0000ff;stroke:#0000ff;" x="268.28129" xlink:href="#m0411ddbb97" y="462.955363"/>
     <use style="fill:#0000ff;stroke:#0000ff;" x="430.013023" xlink:href="#m0411ddbb97" y="386.912482"/>
     <use style="fill:#0000ff;stroke:#0000ff;" x="350.860887" xlink:href="#m0411ddbb97" y="442.137855"/>
     <use style="fill:#0000ff;stroke:#0000ff;" x="264.368898" xlink:href="#m0411ddbb97" y="423.151175"/>
     <use style="fill:#0000ff;stroke:#0000ff;" x="397.145838" xlink:href="#m0411ddbb97" y="392.484565"/>
     <use style="fill:#0000ff;stroke:#0000ff;" x="402.259879" xlink:href="#m0411ddbb97" y="354.933806"/>
     <use style="fill:#0000ff;stroke:#0000ff;" x="357.487522" xlink:href="#m0411ddbb97" y="429.083851"/>
     <use style="fill:#0000ff;stroke:#0000ff;" x="284.375122" xlink:href="#m0411ddbb97" y="347.264541"/>
     <use style="fill:#0000ff;stroke:#0000ff;" x="226.874449" xlink:href="#m0411ddbb97" y="432.935343"/>
     <use style="fill:#0000ff;stroke:#0000ff;" x="277.546067" xlink:href="#m0411ddbb97" y="311.834818"/>
     <use style="fill:#0000ff;stroke:#0000ff;" x="406.606895" xlink:href="#m0411ddbb97" y="348.334718"/>
     <use style="fill:#0000ff;stroke:#0000ff;" x="345.927211" xlink:href="#m0411ddbb97" y="309.726769"/>
     <use style="fill:#0000ff;stroke:#0000ff;" x="363.734018" xlink:href="#m0411ddbb97" y="342.978047"/>
     <use style="fill:#0000ff;stroke:#0000ff;" x="328.183326" xlink:href="#m0411ddbb97" y="363.060854"/>
     <use style="fill:#0000ff;stroke:#0000ff;" x="352.210781" xlink:href="#m0411ddbb97" y="324.181379"/>
     <use style="fill:#0000ff;stroke:#0000ff;" x="462.012387" xlink:href="#m0411ddbb97" y="367.620919"/>
     <use style="fill:#0000ff;stroke:#0000ff;" x="577.257015" xlink:href="#m0411ddbb97" y="333.676758"/>
     <use style="fill:#0000ff;stroke:#0000ff;" x="364.937969" xlink:href="#m0411ddbb97" y="374.620821"/>
     <use style="fill:#0000ff;stroke:#0000ff;" x="316.997019" xlink:href="#m0411ddbb97" y="366.499848"/>
     <use style="fill:#0000ff;stroke:#0000ff;" x="506.44769" xlink:href="#m0411ddbb97" y="276.917915"/>
     <use style="fill:#0000ff;stroke:#0000ff;" x="596.553122" xlink:href="#m0411ddbb97" y="343.812072"/>
     <use style="fill:#0000ff;stroke:#0000ff;" x="373.593115" xlink:href="#m0411ddbb97" y="305.249205"/>
     <use style="fill:#0000ff;stroke:#0000ff;" x="466.327849" xlink:href="#m0411ddbb97" y="348.079069"/>
     <use style="fill:#0000ff;stroke:#0000ff;" x="471.059471" xlink:href="#m0411ddbb97" y="332.58892"/>
     <use style="fill:#0000ff;stroke:#0000ff;" x="533.874601" xlink:href="#m0411ddbb97" y="336.791664"/>
     <use style="fill:#0000ff;stroke:#0000ff;" x="405.358236" xlink:href="#m0411ddbb97" y="354.320628"/>
     <use style="fill:#0000ff;stroke:#0000ff;" x="414.532775" xlink:href="#m0411ddbb97" y="349.367062"/>
     <use style="fill:#0000ff;stroke:#0000ff;" x="511.062086" xlink:href="#m0411ddbb97" y="369.846147"/>
     <use style="fill:#0000ff;stroke:#0000ff;" x="468.424316" xlink:href="#m0411ddbb97" y="351.518434"/>
     <use style="fill:#0000ff;stroke:#0000ff;" x="533.147932" xlink:href="#m0411ddbb97" y="324.548832"/>
     <use style="fill:#0000ff;stroke:#0000ff;" x="422.209077" xlink:href="#m0411ddbb97" y="283.409145"/>
     <use style="fill:#0000ff;stroke:#0000ff;" x="392.842522" xlink:href="#m0411ddbb97" y="360.248419"/>
    </g>
   </g>
   <g id="PathCollection_2">
    <defs>
     <path d="M 0 3 
C 0.795609 3 1.55874 2.683901 2.12132 2.12132 
C 2.683901 1.55874 3 0.795609 3 0 
C 3 -0.795609 2.683901 -1.55874 2.12132 -2.12132 
C 1.55874 -2.683901 0.795609 -3 0 -3 
C -0.795609 -3 -1.55874 -2.683901 -2.12132 -2.12132 
C -2.683901 -1.55874 -3 -0.795609 -3 0 
C -3 0.795609 -2.683901 1.55874 -2.12132 2.12132 
C -1.55874 2.683901 -0.795609 3 0 3 
z
" id="m486e93a55c" style="stroke:#008000;"/>
    </defs>
    <g clip-path="url(#p8a8ea14885)">
     <use style="fill:#008000;stroke:#008000;" x="534.593185" xlink:href="#m486e93a55c" y="334.997724"/>
     <use style="fill:#008000;stroke:#008000;" x="379.816795" xlink:href="#m486e93a55c" y="367.759706"/>
     <use style="fill:#008000;stroke:#008000;" x="420.970782" xlink:href="#m486e93a55c" y="344.465153"/>
     <use style="fill:#008000;stroke:#008000;" x="405.528272" xlink:href="#m486e93a55c" y="392.284322"/>
     <use style="fill:#008000;stroke:#008000;" x="283.708801" xlink:href="#m486e93a55c" y="305.330201"/>
     <use style="fill:#008000;stroke:#008000;" x="652.472925" xlink:href="#m486e93a55c" y="374.961258"/>
     <use style="fill:#008000;stroke:#008000;" x="438.09766" xlink:href="#m486e93a55c" y="225.139656"/>
     <use style="fill:#008000;stroke:#008000;" x="397.328814" xlink:href="#m486e93a55c" y="354.842237"/>
     <use style="fill:#008000;stroke:#008000;" x="422.546868" xlink:href="#m486e93a55c" y="312.463557"/>
     <use style="fill:#008000;stroke:#008000;" x="523.176161" xlink:href="#m486e93a55c" y="332.93991"/>
     <use style="fill:#008000;stroke:#008000;" x="499.336266" xlink:href="#m486e93a55c" y="349.879199"/>
     <use style="fill:#008000;stroke:#008000;" x="482.639216" xlink:href="#m486e93a55c" y="351.804134"/>
     <use style="fill:#008000;stroke:#008000;" x="561.241399" xlink:href="#m486e93a55c" y="375.042141"/>
     <use style="fill:#008000;stroke:#008000;" x="572.106058" xlink:href="#m486e93a55c" y="322.805548"/>
     <use style="fill:#008000;stroke:#008000;" x="494.437515" xlink:href="#m486e93a55c" y="390.525731"/>
     <use style="fill:#008000;stroke:#008000;" x="495.41693" xlink:href="#m486e93a55c" y="372.866086"/>
     <use style="fill:#008000;stroke:#008000;" x="539.597809" xlink:href="#m486e93a55c" y="344.638555"/>
     <use style="fill:#008000;stroke:#008000;" x="490.237143" xlink:href="#m486e93a55c" y="355.866164"/>
     <use style="fill:#008000;stroke:#008000;" x="540.366883" xlink:href="#m486e93a55c" y="357.457976"/>
     <use style="fill:#008000;stroke:#008000;" x="495.849727" xlink:href="#m486e93a55c" y="329.136341"/>
     <use style="fill:#008000;stroke:#008000;" x="450.360136" xlink:href="#m486e93a55c" y="340.787741"/>
     <use style="fill:#008000;stroke:#008000;" x="556.584416" xlink:href="#m486e93a55c" y="395.75517"/>
     <use style="fill:#008000;stroke:#008000;" x="578.217445" xlink:href="#m486e93a55c" y="410.882238"/>
     <use style="fill:#008000;stroke:#008000;" x="490.085076" xlink:href="#m486e93a55c" y="370.989333"/>
     <use style="fill:#008000;stroke:#008000;" x="467.552066" xlink:href="#m486e93a55c" y="339.801101"/>
     <use style="fill:#008000;stroke:#008000;" x="558.668562" xlink:href="#m486e93a55c" y="364.112832"/>
     <use style="fill:#008000;stroke:#008000;" x="493.578821" xlink:href="#m486e93a55c" y="346.103405"/>
     <use style="fill:#008000;stroke:#008000;" x="557.932662" xlink:href="#m486e93a55c" y="375.616612"/>
     <use style="fill:#008000;stroke:#008000;" x="511.658462" xlink:href="#m486e93a55c" y="417.599179"/>
     <use style="fill:#008000;stroke:#008000;" x="460.973715" xlink:href="#m486e93a55c" y="392.25838"/>
     <use style="fill:#008000;stroke:#008000;" x="621.588407" xlink:href="#m486e93a55c" y="420.586153"/>
     <use style="fill:#008000;stroke:#008000;" x="496.534235" xlink:href="#m486e93a55c" y="354.637862"/>
     <use style="fill:#008000;stroke:#008000;" x="451.14252" xlink:href="#m486e93a55c" y="340.996452"/>
     <use style="fill:#008000;stroke:#008000;" x="577.748414" xlink:href="#m486e93a55c" y="351.078399"/>
     <use style="fill:#008000;stroke:#008000;" x="632.224354" xlink:href="#m486e93a55c" y="259.188438"/>
     <use style="fill:#008000;stroke:#008000;" x="558.247167" xlink:href="#m486e93a55c" y="373.63074"/>
     <use style="fill:#008000;stroke:#008000;" x="516.589861" xlink:href="#m486e93a55c" y="416.470937"/>
     <use style="fill:#008000;stroke:#008000;" x="414.51576" xlink:href="#m486e93a55c" y="375.437679"/>
     <use style="fill:#008000;stroke:#008000;" x="617.855522" xlink:href="#m486e93a55c" y="351.652819"/>
     <use style="fill:#008000;stroke:#008000;" x="529.913706" xlink:href="#m486e93a55c" y="421.723068"/>
     <use style="fill:#008000;stroke:#008000;" x="505.820872" xlink:href="#m486e93a55c" y="381.358604"/>
     <use style="fill:#008000;stroke:#008000;" x="474.504116" xlink:href="#m486e93a55c" y="390.48079"/>
     <use style="fill:#008000;stroke:#008000;" x="521.36583" xlink:href="#m486e93a55c" y="393.671466"/>
     <use style="fill:#008000;stroke:#008000;" x="496.891326" xlink:href="#m486e93a55c" y="343.788183"/>
     <use style="fill:#008000;stroke:#008000;" x="561.228579" xlink:href="#m486e93a55c" y="365.897989"/>
     <use style="fill:#008000;stroke:#008000;" x="491.813162" xlink:href="#m486e93a55c" y="337.070613"/>
     <use style="fill:#008000;stroke:#008000;" x="449.71018" xlink:href="#m486e93a55c" y="333.201632"/>
     <use style="fill:#008000;stroke:#008000;" x="468.270345" xlink:href="#m486e93a55c" y="392.362699"/>
     <use style="fill:#008000;stroke:#008000;" x="569.823843" xlink:href="#m486e93a55c" y="349.256227"/>
     <use style="fill:#008000;stroke:#008000;" x="547.888161" xlink:href="#m486e93a55c" y="288.984073"/>
     <use style="fill:#008000;stroke:#008000;" x="697.087254" xlink:href="#m486e93a55c" y="254.312433"/>
     <use style="fill:#008000;stroke:#008000;" x="631.709812" xlink:href="#m486e93a55c" y="305.091721"/>
     <use style="fill:#008000;stroke:#008000;" x="612.332849" xlink:href="#m486e93a55c" y="342.688668"/>
     <use style="fill:#008000;stroke:#008000;" x="484.610154" xlink:href="#m486e93a55c" y="317.864879"/>
     <use style="fill:#008000;stroke:#008000;" x="672.418636" xlink:href="#m486e93a55c" y="290.362235"/>
     <use style="fill:#008000;stroke:#008000;" x="550.532157" xlink:href="#m486e93a55c" y="342.271914"/>
     <use style="fill:#008000;stroke:#008000;" x="505.831285" xlink:href="#m486e93a55c" y="278.949131"/>
     <use style="fill:#008000;stroke:#008000;" x="384.121097" xlink:href="#m486e93a55c" y="300.939912"/>
     <use style="fill:#008000;stroke:#008000;" x="463.36203" xlink:href="#m486e93a55c" y="272.284034"/>
     <use style="fill:#008000;stroke:#008000;" x="511.864814" xlink:href="#m486e93a55c" y="293.28651"/>
    </g>
   </g>
   <g id="PathCollection_3">
    <defs>
     <path d="M 0 3 
C 0.795609 3 1.55874 2.683901 2.12132 2.12132 
C 2.683901 1.55874 3 0.795609 3 0 
C 3 -0.795609 2.683901 -1.55874 2.12132 -2.12132 
C 1.55874 -2.683901 0.795609 -3 0 -3 
C -0.795609 -3 -1.55874 -2.683901 -2.12132 -2.12132 
C -2.683901 -1.55874 -3 -0.795609 -3 0 
C -3 0.795609 -2.683901 1.55874 -2.12132 2.12132 
C -1.55874 2.683901 -0.795609 3 0 3 
z
" id="m1106ff22c5" style="stroke:#ffff00;"/>
    </defs>
    <g clip-path="url(#p8a8ea14885)">
     <use style="fill:#ffff00;stroke:#ffff00;" x="515.5096" xlink:href="#m1106ff22c5" y="323.482279"/>
     <use style="fill:#ffff00;stroke:#ffff00;" x="478.004498" xlink:href="#m1106ff22c5" y="372.233976"/>
     <use style="fill:#ffff00;stroke:#ffff00;" x="510.61391" xlink:href="#m1106ff22c5" y="317.347686"/>
     <use style="fill:#ffff00;stroke:#ffff00;" x="535.276058" xlink:href="#m1106ff22c5" y="393.052433"/>
     <use style="fill:#ffff00;stroke:#ffff00;" x="520.829563" xlink:href="#m1106ff22c5" y="405.630911"/>
     <use style="fill:#ffff00;stroke:#ffff00;" x="396.433786" xlink:href="#m1106ff22c5" y="307.495973"/>
     <use style="fill:#ffff00;stroke:#ffff00;" x="633.659318" xlink:href="#m1106ff22c5" y="316.958646"/>
     <use style="fill:#ffff00;stroke:#ffff00;" x="448.232668" xlink:href="#m1106ff22c5" y="419.506615"/>
     <use style="fill:#ffff00;stroke:#ffff00;" x="707.396467" xlink:href="#m1106ff22c5" y="370.258905"/>
     <use style="fill:#ffff00;stroke:#ffff00;" x="559.659969" xlink:href="#m1106ff22c5" y="281.473033"/>
     <use style="fill:#ffff00;stroke:#ffff00;" x="488.568304" xlink:href="#m1106ff22c5" y="301.298835"/>
     <use style="fill:#ffff00;stroke:#ffff00;" x="543.759818" xlink:href="#m1106ff22c5" y="235.226081"/>
     <use style="fill:#ffff00;stroke:#ffff00;" x="520.989137" xlink:href="#m1106ff22c5" y="403.109992"/>
     <use style="fill:#ffff00;stroke:#ffff00;" x="409.519922" xlink:href="#m1106ff22c5" y="376.392908"/>
     <use style="fill:#ffff00;stroke:#ffff00;" x="695.160081" xlink:href="#m1106ff22c5" y="287.819811"/>
     <use style="fill:#ffff00;stroke:#ffff00;" x="609.023409" xlink:href="#m1106ff22c5" y="291.250725"/>
     <use style="fill:#ffff00;stroke:#ffff00;" x="526.547763" xlink:href="#m1106ff22c5" y="282.868998"/>
     <use style="fill:#ffff00;stroke:#ffff00;" x="530.22014" xlink:href="#m1106ff22c5" y="293.970848"/>
     <use style="fill:#ffff00;stroke:#ffff00;" x="633.935026" xlink:href="#m1106ff22c5" y="319.363061"/>
     <use style="fill:#ffff00;stroke:#ffff00;" x="524.205705" xlink:href="#m1106ff22c5" y="371.520445"/>
     <use style="fill:#ffff00;stroke:#ffff00;" x="579.353692" xlink:href="#m1106ff22c5" y="344.012881"/>
     <use style="fill:#ffff00;stroke:#ffff00;" x="599.930585" xlink:href="#m1106ff22c5" y="311.098165"/>
     <use style="fill:#ffff00;stroke:#ffff00;" x="670.13263" xlink:href="#m1106ff22c5" y="350.475346"/>
     <use style="fill:#ffff00;stroke:#ffff00;" x="568.408039" xlink:href="#m1106ff22c5" y="346.494938"/>
     <use style="fill:#ffff00;stroke:#ffff00;" x="614.484586" xlink:href="#m1106ff22c5" y="274.075299"/>
     <use style="fill:#ffff00;stroke:#ffff00;" x="588.420846" xlink:href="#m1106ff22c5" y="398.789083"/>
     <use style="fill:#ffff00;stroke:#ffff00;" x="650.580326" xlink:href="#m1106ff22c5" y="305.535938"/>
     <use style="fill:#ffff00;stroke:#ffff00;" x="602.143056" xlink:href="#m1106ff22c5" y="384.705333"/>
     <use style="fill:#ffff00;stroke:#ffff00;" x="601.515071" xlink:href="#m1106ff22c5" y="278.916813"/>
     <use style="fill:#ffff00;stroke:#ffff00;" x="574.163213" xlink:href="#m1106ff22c5" y="293.538925"/>
     <use style="fill:#ffff00;stroke:#ffff00;" x="612.141521" xlink:href="#m1106ff22c5" y="239.538655"/>
     <use style="fill:#ffff00;stroke:#ffff00;" x="630.8982" xlink:href="#m1106ff22c5" y="281.640979"/>
     <use style="fill:#ffff00;stroke:#ffff00;" x="532.909557" xlink:href="#m1106ff22c5" y="282.906636"/>
     <use style="fill:#ffff00;stroke:#ffff00;" x="454.610321" xlink:href="#m1106ff22c5" y="257.566508"/>
     <use style="fill:#ffff00;stroke:#ffff00;" x="551.380757" xlink:href="#m1106ff22c5" y="270.369533"/>
     <use style="fill:#ffff00;stroke:#ffff00;" x="590.371746" xlink:href="#m1106ff22c5" y="344.243883"/>
     <use style="fill:#ffff00;stroke:#ffff00;" x="552.296466" xlink:href="#m1106ff22c5" y="302.206365"/>
     <use style="fill:#ffff00;stroke:#ffff00;" x="571.181527" xlink:href="#m1106ff22c5" y="283.637604"/>
     <use style="fill:#ffff00;stroke:#ffff00;" x="625.922234" xlink:href="#m1106ff22c5" y="257.317106"/>
     <use style="fill:#ffff00;stroke:#ffff00;" x="556.392263" xlink:href="#m1106ff22c5" y="334.787339"/>
     <use style="fill:#ffff00;stroke:#ffff00;" x="496.001199" xlink:href="#m1106ff22c5" y="280.448722"/>
     <use style="fill:#ffff00;stroke:#ffff00;" x="556.789831" xlink:href="#m1106ff22c5" y="234.856382"/>
     <use style="fill:#ffff00;stroke:#ffff00;" x="578.177715" xlink:href="#m1106ff22c5" y="235.568087"/>
     <use style="fill:#ffff00;stroke:#ffff00;" x="595.814242" xlink:href="#m1106ff22c5" y="265.101456"/>
     <use style="fill:#ffff00;stroke:#ffff00;" x="589.824876" xlink:href="#m1106ff22c5" y="280.92845"/>
     <use style="fill:#ffff00;stroke:#ffff00;" x="503.378278" xlink:href="#m1106ff22c5" y="300.019869"/>
     <use style="fill:#ffff00;stroke:#ffff00;" x="531.856853" xlink:href="#m1106ff22c5" y="288.917732"/>
     <use style="fill:#ffff00;stroke:#ffff00;" x="616.205984" xlink:href="#m1106ff22c5" y="311.421887"/>
     <use style="fill:#ffff00;stroke:#ffff00;" x="319.994113" xlink:href="#m1106ff22c5" y="239.598428"/>
     <use style="fill:#ffff00;stroke:#ffff00;" x="498.597377" xlink:href="#m1106ff22c5" y="375.498405"/>
     <use style="fill:#ffff00;stroke:#ffff00;" x="614.641632" xlink:href="#m1106ff22c5" y="318.132144"/>
     <use style="fill:#ffff00;stroke:#ffff00;" x="567.386089" xlink:href="#m1106ff22c5" y="270.668223"/>
     <use style="fill:#ffff00;stroke:#ffff00;" x="653.454274" xlink:href="#m1106ff22c5" y="297.26942"/>
     <use style="fill:#ffff00;stroke:#ffff00;" x="640.27057" xlink:href="#m1106ff22c5" y="314.983793"/>
     <use style="fill:#ffff00;stroke:#ffff00;" x="577.871034" xlink:href="#m1106ff22c5" y="250.480046"/>
     <use style="fill:#ffff00;stroke:#ffff00;" x="558.531306" xlink:href="#m1106ff22c5" y="274.716918"/>
     <use style="fill:#ffff00;stroke:#ffff00;" x="556.972553" xlink:href="#m1106ff22c5" y="346.136254"/>
     <use style="fill:#ffff00;stroke:#ffff00;" x="587.063067" xlink:href="#m1106ff22c5" y="310.557348"/>
     <use style="fill:#ffff00;stroke:#ffff00;" x="564.985561" xlink:href="#m1106ff22c5" y="276.773751"/>
     <use style="fill:#ffff00;stroke:#ffff00;" x="512.366779" xlink:href="#m1106ff22c5" y="288.11453"/>
    </g>
   </g>
   <g id="PathCollection_4">
    <defs>
     <path d="M 0 3 
C 0.795609 3 1.55874 2.683901 2.12132 2.12132 
C 2.683901 1.55874 3 0.795609 3 0 
C 3 -0.795609 2.683901 -1.55874 2.12132 -2.12132 
C 1.55874 -2.683901 0.795609 -3 0 -3 
C -0.795609 -3 -1.55874 -2.683901 -2.12132 -2.12132 
C -2.683901 -1.55874 -3 -0.795609 -3 0 
C -3 0.795609 -2.683901 1.55874 -2.12132 2.12132 
C -1.55874 2.683901 -0.795609 3 0 3 
z
" id="mcd8902fa0e" style="stroke:#ffa500;"/>
    </defs>
    <g clip-path="url(#p8a8ea14885)">
     <use style="fill:#ffa500;stroke:#ffa500;" x="563.434734" xlink:href="#mcd8902fa0e" y="230.594579"/>
     <use style="fill:#ffa500;stroke:#ffa500;" x="511.733476" xlink:href="#mcd8902fa0e" y="226.405941"/>
     <use style="fill:#ffa500;stroke:#ffa500;" x="416.427305" xlink:href="#mcd8902fa0e" y="213.199565"/>
     <use style="fill:#ffa500;stroke:#ffa500;" x="532.425225" xlink:href="#mcd8902fa0e" y="295.738475"/>
     <use style="fill:#ffa500;stroke:#ffa500;" x="530.309695" xlink:href="#mcd8902fa0e" y="302.464495"/>
     <use style="fill:#ffa500;stroke:#ffa500;" x="542.95129" xlink:href="#mcd8902fa0e" y="262.06332"/>
     <use style="fill:#ffa500;stroke:#ffa500;" x="591.892854" xlink:href="#mcd8902fa0e" y="249.99167"/>
     <use style="fill:#ffa500;stroke:#ffa500;" x="532.031575" xlink:href="#mcd8902fa0e" y="285.628645"/>
     <use style="fill:#ffa500;stroke:#ffa500;" x="635.131095" xlink:href="#mcd8902fa0e" y="207.15176"/>
     <use style="fill:#ffa500;stroke:#ffa500;" x="645.679626" xlink:href="#mcd8902fa0e" y="238.155519"/>
     <use style="fill:#ffa500;stroke:#ffa500;" x="541.5592" xlink:href="#mcd8902fa0e" y="227.23758"/>
     <use style="fill:#ffa500;stroke:#ffa500;" x="569.034597" xlink:href="#mcd8902fa0e" y="295.509048"/>
     <use style="fill:#ffa500;stroke:#ffa500;" x="695.106283" xlink:href="#mcd8902fa0e" y="219.642927"/>
     <use style="fill:#ffa500;stroke:#ffa500;" x="545.868761" xlink:href="#mcd8902fa0e" y="232.355566"/>
     <use style="fill:#ffa500;stroke:#ffa500;" x="636.236434" xlink:href="#mcd8902fa0e" y="262.206138"/>
     <use style="fill:#ffa500;stroke:#ffa500;" x="589.678949" xlink:href="#mcd8902fa0e" y="182.366692"/>
     <use style="fill:#ffa500;stroke:#ffa500;" x="637.08524" xlink:href="#mcd8902fa0e" y="149.656287"/>
     <use style="fill:#ffa500;stroke:#ffa500;" x="618.385539" xlink:href="#mcd8902fa0e" y="191.750648"/>
     <use style="fill:#ffa500;stroke:#ffa500;" x="642.09311" xlink:href="#mcd8902fa0e" y="154.991909"/>
     <use style="fill:#ffa500;stroke:#ffa500;" x="522.168093" xlink:href="#mcd8902fa0e" y="174.034568"/>
     <use style="fill:#ffa500;stroke:#ffa500;" x="454.232929" xlink:href="#mcd8902fa0e" y="228.040738"/>
     <use style="fill:#ffa500;stroke:#ffa500;" x="590.060463" xlink:href="#mcd8902fa0e" y="209.067756"/>
     <use style="fill:#ffa500;stroke:#ffa500;" x="538.41142" xlink:href="#mcd8902fa0e" y="178.083768"/>
     <use style="fill:#ffa500;stroke:#ffa500;" x="527.480956" xlink:href="#mcd8902fa0e" y="277.146261"/>
     <use style="fill:#ffa500;stroke:#ffa500;" x="445.631426" xlink:href="#mcd8902fa0e" y="300.136512"/>
     <use style="fill:#ffa500;stroke:#ffa500;" x="480.219187" xlink:href="#mcd8902fa0e" y="305.497812"/>
     <use style="fill:#ffa500;stroke:#ffa500;" x="471.373133" xlink:href="#mcd8902fa0e" y="265.945981"/>
     <use style="fill:#ffa500;stroke:#ffa500;" x="401.428928" xlink:href="#mcd8902fa0e" y="114.540878"/>
     <use style="fill:#ffa500;stroke:#ffa500;" x="543.299158" xlink:href="#mcd8902fa0e" y="119.246284"/>
     <use style="fill:#ffa500;stroke:#ffa500;" x="601.630553" xlink:href="#mcd8902fa0e" y="148.827071"/>
     <use style="fill:#ffa500;stroke:#ffa500;" x="561.826558" xlink:href="#mcd8902fa0e" y="144.308499"/>
     <use style="fill:#ffa500;stroke:#ffa500;" x="545.506804" xlink:href="#mcd8902fa0e" y="235.025615"/>
     <use style="fill:#ffa500;stroke:#ffa500;" x="542.47937" xlink:href="#mcd8902fa0e" y="205.859677"/>
     <use style="fill:#ffa500;stroke:#ffa500;" x="573.853892" xlink:href="#mcd8902fa0e" y="249.553039"/>
     <use style="fill:#ffa500;stroke:#ffa500;" x="520.944322" xlink:href="#mcd8902fa0e" y="208.598555"/>
     <use style="fill:#ffa500;stroke:#ffa500;" x="536.696174" xlink:href="#mcd8902fa0e" y="182.455879"/>
     <use style="fill:#ffa500;stroke:#ffa500;" x="608.496236" xlink:href="#mcd8902fa0e" y="222.846288"/>
     <use style="fill:#ffa500;stroke:#ffa500;" x="566.523781" xlink:href="#mcd8902fa0e" y="200.031517"/>
     <use style="fill:#ffa500;stroke:#ffa500;" x="469.96171" xlink:href="#mcd8902fa0e" y="240.758732"/>
     <use style="fill:#ffa500;stroke:#ffa500;" x="460.684203" xlink:href="#mcd8902fa0e" y="290.666331"/>
     <use style="fill:#ffa500;stroke:#ffa500;" x="389.970509" xlink:href="#mcd8902fa0e" y="253.19124"/>
     <use style="fill:#ffa500;stroke:#ffa500;" x="605.550694" xlink:href="#mcd8902fa0e" y="184.928807"/>
     <use style="fill:#ffa500;stroke:#ffa500;" x="575.416934" xlink:href="#mcd8902fa0e" y="216.330684"/>
     <use style="fill:#ffa500;stroke:#ffa500;" x="672.473605" xlink:href="#mcd8902fa0e" y="226.734161"/>
     <use style="fill:#ffa500;stroke:#ffa500;" x="482.204303" xlink:href="#mcd8902fa0e" y="307.153438"/>
     <use style="fill:#ffa500;stroke:#ffa500;" x="716.15826" xlink:href="#mcd8902fa0e" y="185.97701"/>
     <use style="fill:#ffa500;stroke:#ffa500;" x="607.7333" xlink:href="#mcd8902fa0e" y="266.76324"/>
     <use style="fill:#ffa500;stroke:#ffa500;" x="590.291159" xlink:href="#mcd8902fa0e" y="162.050873"/>
     <use style="fill:#ffa500;stroke:#ffa500;" x="721.276044" xlink:href="#mcd8902fa0e" y="139.226218"/>
     <use style="fill:#ffa500;stroke:#ffa500;" x="587.066292" xlink:href="#mcd8902fa0e" y="168.786515"/>
     <use style="fill:#ffa500;stroke:#ffa500;" x="480.423579" xlink:href="#mcd8902fa0e" y="220.529361"/>
     <use style="fill:#ffa500;stroke:#ffa500;" x="512.772441" xlink:href="#mcd8902fa0e" y="213.027727"/>
     <use style="fill:#ffa500;stroke:#ffa500;" x="515.32662" xlink:href="#mcd8902fa0e" y="226.437276"/>
     <use style="fill:#ffa500;stroke:#ffa500;" x="573.256394" xlink:href="#mcd8902fa0e" y="167.252534"/>
     <use style="fill:#ffa500;stroke:#ffa500;" x="567.807347" xlink:href="#mcd8902fa0e" y="200.973555"/>
     <use style="fill:#ffa500;stroke:#ffa500;" x="533.366168" xlink:href="#mcd8902fa0e" y="210.936638"/>
     <use style="fill:#ffa500;stroke:#ffa500;" x="683.022586" xlink:href="#mcd8902fa0e" y="255.007439"/>
     <use style="fill:#ffa500;stroke:#ffa500;" x="527.948881" xlink:href="#mcd8902fa0e" y="243.188944"/>
     <use style="fill:#ffa500;stroke:#ffa500;" x="372.010047" xlink:href="#mcd8902fa0e" y="255.698536"/>
     <use style="fill:#ffa500;stroke:#ffa500;" x="509.510718" xlink:href="#mcd8902fa0e" y="282.083855"/>
    </g>
   </g>
   <g id="PathCollection_5">
    <defs>
     <path d="M 0 3 
C 0.795609 3 1.55874 2.683901 2.12132 2.12132 
C 2.683901 1.55874 3 0.795609 3 0 
C 3 -0.795609 2.683901 -1.55874 2.12132 -2.12132 
C 1.55874 -2.683901 0.795609 -3 0 -3 
C -0.795609 -3 -1.55874 -2.683901 -2.12132 -2.12132 
C -2.683901 -1.55874 -3 -0.795609 -3 0 
C -3 0.795609 -2.683901 1.55874 -2.12132 2.12132 
C -1.55874 2.683901 -0.795609 3 0 3 
z
" id="m39011c3eff" style="stroke:#ff0000;"/>
    </defs>
    <g clip-path="url(#p8a8ea14885)">
     <use style="fill:#ff0000;stroke:#ff0000;" x="320.112567" xlink:href="#m39011c3eff" y="260.018198"/>
     <use style="fill:#ff0000;stroke:#ff0000;" x="589.261896" xlink:href="#m39011c3eff" y="215.164129"/>
     <use style="fill:#ff0000;stroke:#ff0000;" x="488.653502" xlink:href="#m39011c3eff" y="207.403505"/>
     <use style="fill:#ff0000;stroke:#ff0000;" x="559.747165" xlink:href="#m39011c3eff" y="190.171921"/>
     <use style="fill:#ff0000;stroke:#ff0000;" x="548.585041" xlink:href="#m39011c3eff" y="266.806539"/>
     <use style="fill:#ff0000;stroke:#ff0000;" x="422.810896" xlink:href="#m39011c3eff" y="223.000512"/>
     <use style="fill:#ff0000;stroke:#ff0000;" x="515.217876" xlink:href="#m39011c3eff" y="253.93491"/>
     <use style="fill:#ff0000;stroke:#ff0000;" x="568.731279" xlink:href="#m39011c3eff" y="255.119026"/>
     <use style="fill:#ff0000;stroke:#ff0000;" x="371.227678" xlink:href="#m39011c3eff" y="285.568712"/>
     <use style="fill:#ff0000;stroke:#ff0000;" x="404.612681" xlink:href="#m39011c3eff" y="198.637457"/>
     <use style="fill:#ff0000;stroke:#ff0000;" x="512.877183" xlink:href="#m39011c3eff" y="237.865575"/>
     <use style="fill:#ff0000;stroke:#ff0000;" x="546.403861" xlink:href="#m39011c3eff" y="163.389403"/>
     <use style="fill:#ff0000;stroke:#ff0000;" x="588.13948" xlink:href="#m39011c3eff" y="210.390342"/>
     <use style="fill:#ff0000;stroke:#ff0000;" x="369.221009" xlink:href="#m39011c3eff" y="284.722711"/>
     <use style="fill:#ff0000;stroke:#ff0000;" x="512.5812" xlink:href="#m39011c3eff" y="207.296798"/>
     <use style="fill:#ff0000;stroke:#ff0000;" x="523.878766" xlink:href="#m39011c3eff" y="160.802129"/>
     <use style="fill:#ff0000;stroke:#ff0000;" x="580.513874" xlink:href="#m39011c3eff" y="208.151513"/>
     <use style="fill:#ff0000;stroke:#ff0000;" x="665.008303" xlink:href="#m39011c3eff" y="233.947114"/>
     <use style="fill:#ff0000;stroke:#ff0000;" x="667.53304" xlink:href="#m39011c3eff" y="224.27025"/>
     <use style="fill:#ff0000;stroke:#ff0000;" x="697.228831" xlink:href="#m39011c3eff" y="193.967932"/>
     <use style="fill:#ff0000;stroke:#ff0000;" x="639.375201" xlink:href="#m39011c3eff" y="257.762548"/>
     <use style="fill:#ff0000;stroke:#ff0000;" x="558.216959" xlink:href="#m39011c3eff" y="114.102341"/>
     <use style="fill:#ff0000;stroke:#ff0000;" x="635.605862" xlink:href="#m39011c3eff" y="209.326299"/>
     <use style="fill:#ff0000;stroke:#ff0000;" x="683.971172" xlink:href="#m39011c3eff" y="205.27364"/>
     <use style="fill:#ff0000;stroke:#ff0000;" x="407.491477" xlink:href="#m39011c3eff" y="148.671971"/>
     <use style="fill:#ff0000;stroke:#ff0000;" x="526.264983" xlink:href="#m39011c3eff" y="224.741842"/>
     <use style="fill:#ff0000;stroke:#ff0000;" x="643.553028" xlink:href="#m39011c3eff" y="189.275831"/>
     <use style="fill:#ff0000;stroke:#ff0000;" x="493.857593" xlink:href="#m39011c3eff" y="245.231867"/>
     <use style="fill:#ff0000;stroke:#ff0000;" x="493.284835" xlink:href="#m39011c3eff" y="295.357217"/>
     <use style="fill:#ff0000;stroke:#ff0000;" x="661.610417" xlink:href="#m39011c3eff" y="201.225628"/>
     <use style="fill:#ff0000;stroke:#ff0000;" x="470.13526" xlink:href="#m39011c3eff" y="182.102906"/>
     <use style="fill:#ff0000;stroke:#ff0000;" x="574.086435" xlink:href="#m39011c3eff" y="160.597159"/>
     <use style="fill:#ff0000;stroke:#ff0000;" x="586.349251" xlink:href="#m39011c3eff" y="160.899261"/>
     <use style="fill:#ff0000;stroke:#ff0000;" x="605.052165" xlink:href="#m39011c3eff" y="210.0992"/>
     <use style="fill:#ff0000;stroke:#ff0000;" x="590.715779" xlink:href="#m39011c3eff" y="253.33956"/>
     <use style="fill:#ff0000;stroke:#ff0000;" x="616.516441" xlink:href="#m39011c3eff" y="170.45324"/>
     <use style="fill:#ff0000;stroke:#ff0000;" x="627.509931" xlink:href="#m39011c3eff" y="207.31251"/>
     <use style="fill:#ff0000;stroke:#ff0000;" x="744.277332" xlink:href="#m39011c3eff" y="135.462831"/>
     <use style="fill:#ff0000;stroke:#ff0000;" x="504.233281" xlink:href="#m39011c3eff" y="172.727655"/>
     <use style="fill:#ff0000;stroke:#ff0000;" x="655.870753" xlink:href="#m39011c3eff" y="169.300493"/>
     <use style="fill:#ff0000;stroke:#ff0000;" x="669.108076" xlink:href="#m39011c3eff" y="205.856886"/>
     <use style="fill:#ff0000;stroke:#ff0000;" x="670.028225" xlink:href="#m39011c3eff" y="164.907149"/>
     <use style="fill:#ff0000;stroke:#ff0000;" x="487.718598" xlink:href="#m39011c3eff" y="302.384787"/>
     <use style="fill:#ff0000;stroke:#ff0000;" x="548.168867" xlink:href="#m39011c3eff" y="181.002496"/>
     <use style="fill:#ff0000;stroke:#ff0000;" x="494.266073" xlink:href="#m39011c3eff" y="246.68088"/>
     <use style="fill:#ff0000;stroke:#ff0000;" x="482.618631" xlink:href="#m39011c3eff" y="253.692668"/>
     <use style="fill:#ff0000;stroke:#ff0000;" x="642.546774" xlink:href="#m39011c3eff" y="267.359967"/>
     <use style="fill:#ff0000;stroke:#ff0000;" x="502.938123" xlink:href="#m39011c3eff" y="188.286703"/>
     <use style="fill:#ff0000;stroke:#ff0000;" x="424.046996" xlink:href="#m39011c3eff" y="183.008352"/>
     <use style="fill:#ff0000;stroke:#ff0000;" x="538.94663" xlink:href="#m39011c3eff" y="187.574178"/>
     <use style="fill:#ff0000;stroke:#ff0000;" x="571.628229" xlink:href="#m39011c3eff" y="154.76084"/>
     <use style="fill:#ff0000;stroke:#ff0000;" x="517.20159" xlink:href="#m39011c3eff" y="218.093106"/>
     <use style="fill:#ff0000;stroke:#ff0000;" x="625.500706" xlink:href="#m39011c3eff" y="224.549111"/>
     <use style="fill:#ff0000;stroke:#ff0000;" x="628.362873" xlink:href="#m39011c3eff" y="152.410059"/>
     <use style="fill:#ff0000;stroke:#ff0000;" x="533.314207" xlink:href="#m39011c3eff" y="257.163106"/>
     <use style="fill:#ff0000;stroke:#ff0000;" x="612.224386" xlink:href="#m39011c3eff" y="176.676652"/>
     <use style="fill:#ff0000;stroke:#ff0000;" x="637.778676" xlink:href="#m39011c3eff" y="196.360213"/>
     <use style="fill:#ff0000;stroke:#ff0000;" x="438.973712" xlink:href="#m39011c3eff" y="187.529191"/>
     <use style="fill:#ff0000;stroke:#ff0000;" x="484.901111" xlink:href="#m39011c3eff" y="138.99513"/>
     <use style="fill:#ff0000;stroke:#ff0000;" x="445.625597" xlink:href="#m39011c3eff" y="286.133669"/>
    </g>
   </g>
   <g id="matplotlib.axis_1">
    <g id="xtick_1">
     <g id="line2d_1">
      <defs>
       <path d="M 0 0 
L 0 3.5 
" id="m4e91595d1e" style="stroke:#000000;stroke-width:0.8;"/>
      </defs>
      <g>
       <use style="stroke:#000000;stroke-width:0.8;" x="128.471876" xlink:href="#m4e91595d1e" y="630"/>
      </g>
     </g>
     <g id="text_1">
      <!-- −10.0 -->
      <defs>
       <path d="M 10.59375 35.5 
L 73.1875 35.5 
L 73.1875 27.203125 
L 10.59375 27.203125 
z
" id="DejaVuSans-8722"/>
       <path d="M 12.40625 8.296875 
L 28.515625 8.296875 
L 28.515625 63.921875 
L 10.984375 60.40625 
L 10.984375 69.390625 
L 28.421875 72.90625 
L 38.28125 72.90625 
L 38.28125 8.296875 
L 54.390625 8.296875 
L 54.390625 0 
L 12.40625 0 
z
" id="DejaVuSans-49"/>
       <path d="M 31.78125 66.40625 
Q 24.171875 66.40625 20.328125 58.90625 
Q 16.5 51.421875 16.5 36.375 
Q 16.5 21.390625 20.328125 13.890625 
Q 24.171875 6.390625 31.78125 6.390625 
Q 39.453125 6.390625 43.28125 13.890625 
Q 47.125 21.390625 47.125 36.375 
Q 47.125 51.421875 43.28125 58.90625 
Q 39.453125 66.40625 31.78125 66.40625 
z
M 31.78125 74.21875 
Q 44.046875 74.21875 50.515625 64.515625 
Q 56.984375 54.828125 56.984375 36.375 
Q 56.984375 17.96875 50.515625 8.265625 
Q 44.046875 -1.421875 31.78125 -1.421875 
Q 19.53125 -1.421875 13.0625 8.265625 
Q 6.59375 17.96875 6.59375 36.375 
Q 6.59375 54.828125 13.0625 64.515625 
Q 19.53125 74.21875 31.78125 74.21875 
z
" id="DejaVuSans-48"/>
       <path d="M 10.6875 12.40625 
L 21 12.40625 
L 21 0 
L 10.6875 0 
z
" id="DejaVuSans-46"/>
      </defs>
      <g transform="translate(113.149219 644.598438)scale(0.1 -0.1)">
       <use xlink:href="#DejaVuSans-8722"/>
       <use x="83.789062" xlink:href="#DejaVuSans-49"/>
       <use x="147.412109" xlink:href="#DejaVuSans-48"/>
       <use x="211.035156" xlink:href="#DejaVuSans-46"/>
       <use x="242.822266" xlink:href="#DejaVuSans-48"/>
      </g>
     </g>
    </g>
    <g id="xtick_2">
     <g id="line2d_2">
      <g>
       <use style="stroke:#000000;stroke-width:0.8;" x="208.644717" xlink:href="#m4e91595d1e" y="630"/>
      </g>
     </g>
     <g id="text_2">
      <!-- −9.8 -->
      <defs>
       <path d="M 10.984375 1.515625 
L 10.984375 10.5 
Q 14.703125 8.734375 18.5 7.8125 
Q 22.3125 6.890625 25.984375 6.890625 
Q 35.75 6.890625 40.890625 13.453125 
Q 46.046875 20.015625 46.78125 33.40625 
Q 43.953125 29.203125 39.59375 26.953125 
Q 35.25 24.703125 29.984375 24.703125 
Q 19.046875 24.703125 12.671875 31.3125 
Q 6.296875 37.9375 6.296875 49.421875 
Q 6.296875 60.640625 12.9375 67.421875 
Q 19.578125 74.21875 30.609375 74.21875 
Q 43.265625 74.21875 49.921875 64.515625 
Q 56.59375 54.828125 56.59375 36.375 
Q 56.59375 19.140625 48.40625 8.859375 
Q 40.234375 -1.421875 26.421875 -1.421875 
Q 22.703125 -1.421875 18.890625 -0.6875 
Q 15.09375 0.046875 10.984375 1.515625 
z
M 30.609375 32.421875 
Q 37.25 32.421875 41.125 36.953125 
Q 45.015625 41.5 45.015625 49.421875 
Q 45.015625 57.28125 41.125 61.84375 
Q 37.25 66.40625 30.609375 66.40625 
Q 23.96875 66.40625 20.09375 61.84375 
Q 16.21875 57.28125 16.21875 49.421875 
Q 16.21875 41.5 20.09375 36.953125 
Q 23.96875 32.421875 30.609375 32.421875 
z
" id="DejaVuSans-57"/>
       <path d="M 31.78125 34.625 
Q 24.75 34.625 20.71875 30.859375 
Q 16.703125 27.09375 16.703125 20.515625 
Q 16.703125 13.921875 20.71875 10.15625 
Q 24.75 6.390625 31.78125 6.390625 
Q 38.8125 6.390625 42.859375 10.171875 
Q 46.921875 13.96875 46.921875 20.515625 
Q 46.921875 27.09375 42.890625 30.859375 
Q 38.875 34.625 31.78125 34.625 
z
M 21.921875 38.8125 
Q 15.578125 40.375 12.03125 44.71875 
Q 8.5 49.078125 8.5 55.328125 
Q 8.5 64.0625 14.71875 69.140625 
Q 20.953125 74.21875 31.78125 74.21875 
Q 42.671875 74.21875 48.875 69.140625 
Q 55.078125 64.0625 55.078125 55.328125 
Q 55.078125 49.078125 51.53125 44.71875 
Q 48 40.375 41.703125 38.8125 
Q 48.828125 37.15625 52.796875 32.3125 
Q 56.78125 27.484375 56.78125 20.515625 
Q 56.78125 9.90625 50.3125 4.234375 
Q 43.84375 -1.421875 31.78125 -1.421875 
Q 19.734375 -1.421875 13.25 4.234375 
Q 6.78125 9.90625 6.78125 20.515625 
Q 6.78125 27.484375 10.78125 32.3125 
Q 14.796875 37.15625 21.921875 38.8125 
z
M 18.3125 54.390625 
Q 18.3125 48.734375 21.84375 45.5625 
Q 25.390625 42.390625 31.78125 42.390625 
Q 38.140625 42.390625 41.71875 45.5625 
Q 45.3125 48.734375 45.3125 54.390625 
Q 45.3125 60.0625 41.71875 63.234375 
Q 38.140625 66.40625 31.78125 66.40625 
Q 25.390625 66.40625 21.84375 63.234375 
Q 18.3125 60.0625 18.3125 54.390625 
z
" id="DejaVuSans-56"/>
      </defs>
      <g transform="translate(196.503311 644.598438)scale(0.1 -0.1)">
       <use xlink:href="#DejaVuSans-8722"/>
       <use x="83.789062" xlink:href="#DejaVuSans-57"/>
       <use x="147.412109" xlink:href="#DejaVuSans-46"/>
       <use x="179.199219" xlink:href="#DejaVuSans-56"/>
      </g>
     </g>
    </g>
    <g id="xtick_3">
     <g id="line2d_3">
      <g>
       <use style="stroke:#000000;stroke-width:0.8;" x="288.817558" xlink:href="#m4e91595d1e" y="630"/>
      </g>
     </g>
     <g id="text_3">
      <!-- −9.6 -->
      <defs>
       <path d="M 33.015625 40.375 
Q 26.375 40.375 22.484375 35.828125 
Q 18.609375 31.296875 18.609375 23.390625 
Q 18.609375 15.53125 22.484375 10.953125 
Q 26.375 6.390625 33.015625 6.390625 
Q 39.65625 6.390625 43.53125 10.953125 
Q 47.40625 15.53125 47.40625 23.390625 
Q 47.40625 31.296875 43.53125 35.828125 
Q 39.65625 40.375 33.015625 40.375 
z
M 52.59375 71.296875 
L 52.59375 62.3125 
Q 48.875 64.0625 45.09375 64.984375 
Q 41.3125 65.921875 37.59375 65.921875 
Q 27.828125 65.921875 22.671875 59.328125 
Q 17.53125 52.734375 16.796875 39.40625 
Q 19.671875 43.65625 24.015625 45.921875 
Q 28.375 48.1875 33.59375 48.1875 
Q 44.578125 48.1875 50.953125 41.515625 
Q 57.328125 34.859375 57.328125 23.390625 
Q 57.328125 12.15625 50.6875 5.359375 
Q 44.046875 -1.421875 33.015625 -1.421875 
Q 20.359375 -1.421875 13.671875 8.265625 
Q 6.984375 17.96875 6.984375 36.375 
Q 6.984375 53.65625 15.1875 63.9375 
Q 23.390625 74.21875 37.203125 74.21875 
Q 40.921875 74.21875 44.703125 73.484375 
Q 48.484375 72.75 52.59375 71.296875 
z
" id="DejaVuSans-54"/>
      </defs>
      <g transform="translate(276.676152 644.598438)scale(0.1 -0.1)">
       <use xlink:href="#DejaVuSans-8722"/>
       <use x="83.789062" xlink:href="#DejaVuSans-57"/>
       <use x="147.412109" xlink:href="#DejaVuSans-46"/>
       <use x="179.199219" xlink:href="#DejaVuSans-54"/>
      </g>
     </g>
    </g>
    <g id="xtick_4">
     <g id="line2d_4">
      <g>
       <use style="stroke:#000000;stroke-width:0.8;" x="368.990399" xlink:href="#m4e91595d1e" y="630"/>
      </g>
     </g>
     <g id="text_4">
      <!-- −9.4 -->
      <defs>
       <path d="M 37.796875 64.3125 
L 12.890625 25.390625 
L 37.796875 25.390625 
z
M 35.203125 72.90625 
L 47.609375 72.90625 
L 47.609375 25.390625 
L 58.015625 25.390625 
L 58.015625 17.1875 
L 47.609375 17.1875 
L 47.609375 0 
L 37.796875 0 
L 37.796875 17.1875 
L 4.890625 17.1875 
L 4.890625 26.703125 
z
" id="DejaVuSans-52"/>
      </defs>
      <g transform="translate(356.848993 644.598438)scale(0.1 -0.1)">
       <use xlink:href="#DejaVuSans-8722"/>
       <use x="83.789062" xlink:href="#DejaVuSans-57"/>
       <use x="147.412109" xlink:href="#DejaVuSans-46"/>
       <use x="179.199219" xlink:href="#DejaVuSans-52"/>
      </g>
     </g>
    </g>
    <g id="xtick_5">
     <g id="line2d_5">
      <g>
       <use style="stroke:#000000;stroke-width:0.8;" x="449.163241" xlink:href="#m4e91595d1e" y="630"/>
      </g>
     </g>
     <g id="text_5">
      <!-- −9.2 -->
      <defs>
       <path d="M 19.1875 8.296875 
L 53.609375 8.296875 
L 53.609375 0 
L 7.328125 0 
L 7.328125 8.296875 
Q 12.9375 14.109375 22.625 23.890625 
Q 32.328125 33.6875 34.8125 36.53125 
Q 39.546875 41.84375 41.421875 45.53125 
Q 43.3125 49.21875 43.3125 52.78125 
Q 43.3125 58.59375 39.234375 62.25 
Q 35.15625 65.921875 28.609375 65.921875 
Q 23.96875 65.921875 18.8125 64.3125 
Q 13.671875 62.703125 7.8125 59.421875 
L 7.8125 69.390625 
Q 13.765625 71.78125 18.9375 73 
Q 24.125 74.21875 28.421875 74.21875 
Q 39.75 74.21875 46.484375 68.546875 
Q 53.21875 62.890625 53.21875 53.421875 
Q 53.21875 48.921875 51.53125 44.890625 
Q 49.859375 40.875 45.40625 35.40625 
Q 44.1875 33.984375 37.640625 27.21875 
Q 31.109375 20.453125 19.1875 8.296875 
z
" id="DejaVuSans-50"/>
      </defs>
      <g transform="translate(437.021834 644.598438)scale(0.1 -0.1)">
       <use xlink:href="#DejaVuSans-8722"/>
       <use x="83.789062" xlink:href="#DejaVuSans-57"/>
       <use x="147.412109" xlink:href="#DejaVuSans-46"/>
       <use x="179.199219" xlink:href="#DejaVuSans-50"/>
      </g>
     </g>
    </g>
    <g id="xtick_6">
     <g id="line2d_6">
      <g>
       <use style="stroke:#000000;stroke-width:0.8;" x="529.336082" xlink:href="#m4e91595d1e" y="630"/>
      </g>
     </g>
     <g id="text_6">
      <!-- −9.0 -->
      <g transform="translate(517.194676 644.598438)scale(0.1 -0.1)">
       <use xlink:href="#DejaVuSans-8722"/>
       <use x="83.789062" xlink:href="#DejaVuSans-57"/>
       <use x="147.412109" xlink:href="#DejaVuSans-46"/>
       <use x="179.199219" xlink:href="#DejaVuSans-48"/>
      </g>
     </g>
    </g>
    <g id="xtick_7">
     <g id="line2d_7">
      <g>
       <use style="stroke:#000000;stroke-width:0.8;" x="609.508923" xlink:href="#m4e91595d1e" y="630"/>
      </g>
     </g>
     <g id="text_7">
      <!-- −8.8 -->
      <g transform="translate(597.367517 644.598438)scale(0.1 -0.1)">
       <use xlink:href="#DejaVuSans-8722"/>
       <use x="83.789062" xlink:href="#DejaVuSans-56"/>
       <use x="147.412109" xlink:href="#DejaVuSans-46"/>
       <use x="179.199219" xlink:href="#DejaVuSans-56"/>
      </g>
     </g>
    </g>
    <g id="xtick_8">
     <g id="line2d_8">
      <g>
       <use style="stroke:#000000;stroke-width:0.8;" x="689.681764" xlink:href="#m4e91595d1e" y="630"/>
      </g>
     </g>
     <g id="text_8">
      <!-- −8.6 -->
      <g transform="translate(677.540358 644.598438)scale(0.1 -0.1)">
       <use xlink:href="#DejaVuSans-8722"/>
       <use x="83.789062" xlink:href="#DejaVuSans-56"/>
       <use x="147.412109" xlink:href="#DejaVuSans-46"/>
       <use x="179.199219" xlink:href="#DejaVuSans-54"/>
      </g>
     </g>
    </g>
    <g id="xtick_9">
     <g id="line2d_9">
      <g>
       <use style="stroke:#000000;stroke-width:0.8;" x="769.854605" xlink:href="#m4e91595d1e" y="630"/>
      </g>
     </g>
     <g id="text_9">
      <!-- −8.4 -->
      <g transform="translate(757.713199 644.598438)scale(0.1 -0.1)">
       <use xlink:href="#DejaVuSans-8722"/>
       <use x="83.789062" xlink:href="#DejaVuSans-56"/>
       <use x="147.412109" xlink:href="#DejaVuSans-46"/>
       <use x="179.199219" xlink:href="#DejaVuSans-52"/>
      </g>
     </g>
    </g>
    <g id="text_10">
     <!-- I(conv2;dense1) -->
     <defs>
      <path d="M 9.8125 72.90625 
L 19.671875 72.90625 
L 19.671875 0 
L 9.8125 0 
z
" id="DejaVuSans-73"/>
      <path d="M 31 75.875 
Q 24.46875 64.65625 21.28125 53.65625 
Q 18.109375 42.671875 18.109375 31.390625 
Q 18.109375 20.125 21.3125 9.0625 
Q 24.515625 -2 31 -13.1875 
L 23.1875 -13.1875 
Q 15.875 -1.703125 12.234375 9.375 
Q 8.59375 20.453125 8.59375 31.390625 
Q 8.59375 42.28125 12.203125 53.3125 
Q 15.828125 64.359375 23.1875 75.875 
z
" id="DejaVuSans-40"/>
      <path d="M 48.78125 52.59375 
L 48.78125 44.1875 
Q 44.96875 46.296875 41.140625 47.34375 
Q 37.3125 48.390625 33.40625 48.390625 
Q 24.65625 48.390625 19.8125 42.84375 
Q 14.984375 37.3125 14.984375 27.296875 
Q 14.984375 17.28125 19.8125 11.734375 
Q 24.65625 6.203125 33.40625 6.203125 
Q 37.3125 6.203125 41.140625 7.25 
Q 44.96875 8.296875 48.78125 10.40625 
L 48.78125 2.09375 
Q 45.015625 0.34375 40.984375 -0.53125 
Q 36.96875 -1.421875 32.421875 -1.421875 
Q 20.0625 -1.421875 12.78125 6.34375 
Q 5.515625 14.109375 5.515625 27.296875 
Q 5.515625 40.671875 12.859375 48.328125 
Q 20.21875 56 33.015625 56 
Q 37.15625 56 41.109375 55.140625 
Q 45.0625 54.296875 48.78125 52.59375 
z
" id="DejaVuSans-99"/>
      <path d="M 30.609375 48.390625 
Q 23.390625 48.390625 19.1875 42.75 
Q 14.984375 37.109375 14.984375 27.296875 
Q 14.984375 17.484375 19.15625 11.84375 
Q 23.34375 6.203125 30.609375 6.203125 
Q 37.796875 6.203125 41.984375 11.859375 
Q 46.1875 17.53125 46.1875 27.296875 
Q 46.1875 37.015625 41.984375 42.703125 
Q 37.796875 48.390625 30.609375 48.390625 
z
M 30.609375 56 
Q 42.328125 56 49.015625 48.375 
Q 55.71875 40.765625 55.71875 27.296875 
Q 55.71875 13.875 49.015625 6.21875 
Q 42.328125 -1.421875 30.609375 -1.421875 
Q 18.84375 -1.421875 12.171875 6.21875 
Q 5.515625 13.875 5.515625 27.296875 
Q 5.515625 40.765625 12.171875 48.375 
Q 18.84375 56 30.609375 56 
z
" id="DejaVuSans-111"/>
      <path d="M 54.890625 33.015625 
L 54.890625 0 
L 45.90625 0 
L 45.90625 32.71875 
Q 45.90625 40.484375 42.875 44.328125 
Q 39.84375 48.1875 33.796875 48.1875 
Q 26.515625 48.1875 22.3125 43.546875 
Q 18.109375 38.921875 18.109375 30.90625 
L 18.109375 0 
L 9.078125 0 
L 9.078125 54.6875 
L 18.109375 54.6875 
L 18.109375 46.1875 
Q 21.34375 51.125 25.703125 53.5625 
Q 30.078125 56 35.796875 56 
Q 45.21875 56 50.046875 50.171875 
Q 54.890625 44.34375 54.890625 33.015625 
z
" id="DejaVuSans-110"/>
      <path d="M 2.984375 54.6875 
L 12.5 54.6875 
L 29.59375 8.796875 
L 46.6875 54.6875 
L 56.203125 54.6875 
L 35.6875 0 
L 23.484375 0 
z
" id="DejaVuSans-118"/>
      <path d="M 11.71875 51.703125 
L 22.015625 51.703125 
L 22.015625 39.3125 
L 11.71875 39.3125 
z
M 11.71875 12.40625 
L 22.015625 12.40625 
L 22.015625 4 
L 14.015625 -11.625 
L 7.71875 -11.625 
L 11.71875 4 
z
" id="DejaVuSans-59"/>
      <path d="M 45.40625 46.390625 
L 45.40625 75.984375 
L 54.390625 75.984375 
L 54.390625 0 
L 45.40625 0 
L 45.40625 8.203125 
Q 42.578125 3.328125 38.25 0.953125 
Q 33.9375 -1.421875 27.875 -1.421875 
Q 17.96875 -1.421875 11.734375 6.484375 
Q 5.515625 14.40625 5.515625 27.296875 
Q 5.515625 40.1875 11.734375 48.09375 
Q 17.96875 56 27.875 56 
Q 33.9375 56 38.25 53.625 
Q 42.578125 51.265625 45.40625 46.390625 
z
M 14.796875 27.296875 
Q 14.796875 17.390625 18.875 11.75 
Q 22.953125 6.109375 30.078125 6.109375 
Q 37.203125 6.109375 41.296875 11.75 
Q 45.40625 17.390625 45.40625 27.296875 
Q 45.40625 37.203125 41.296875 42.84375 
Q 37.203125 48.484375 30.078125 48.484375 
Q 22.953125 48.484375 18.875 42.84375 
Q 14.796875 37.203125 14.796875 27.296875 
z
" id="DejaVuSans-100"/>
      <path d="M 56.203125 29.59375 
L 56.203125 25.203125 
L 14.890625 25.203125 
Q 15.484375 15.921875 20.484375 11.0625 
Q 25.484375 6.203125 34.421875 6.203125 
Q 39.59375 6.203125 44.453125 7.46875 
Q 49.3125 8.734375 54.109375 11.28125 
L 54.109375 2.78125 
Q 49.265625 0.734375 44.1875 -0.34375 
Q 39.109375 -1.421875 33.890625 -1.421875 
Q 20.796875 -1.421875 13.15625 6.1875 
Q 5.515625 13.8125 5.515625 26.8125 
Q 5.515625 40.234375 12.765625 48.109375 
Q 20.015625 56 32.328125 56 
Q 43.359375 56 49.78125 48.890625 
Q 56.203125 41.796875 56.203125 29.59375 
z
M 47.21875 32.234375 
Q 47.125 39.59375 43.09375 43.984375 
Q 39.0625 48.390625 32.421875 48.390625 
Q 24.90625 48.390625 20.390625 44.140625 
Q 15.875 39.890625 15.1875 32.171875 
z
" id="DejaVuSans-101"/>
      <path d="M 44.28125 53.078125 
L 44.28125 44.578125 
Q 40.484375 46.53125 36.375 47.5 
Q 32.28125 48.484375 27.875 48.484375 
Q 21.1875 48.484375 17.84375 46.4375 
Q 14.5 44.390625 14.5 40.28125 
Q 14.5 37.15625 16.890625 35.375 
Q 19.28125 33.59375 26.515625 31.984375 
L 29.59375 31.296875 
Q 39.15625 29.25 43.1875 25.515625 
Q 47.21875 21.78125 47.21875 15.09375 
Q 47.21875 7.46875 41.1875 3.015625 
Q 35.15625 -1.421875 24.609375 -1.421875 
Q 20.21875 -1.421875 15.453125 -0.5625 
Q 10.6875 0.296875 5.421875 2 
L 5.421875 11.28125 
Q 10.40625 8.6875 15.234375 7.390625 
Q 20.0625 6.109375 24.8125 6.109375 
Q 31.15625 6.109375 34.5625 8.28125 
Q 37.984375 10.453125 37.984375 14.40625 
Q 37.984375 18.0625 35.515625 20.015625 
Q 33.0625 21.96875 24.703125 23.78125 
L 21.578125 24.515625 
Q 13.234375 26.265625 9.515625 29.90625 
Q 5.8125 33.546875 5.8125 39.890625 
Q 5.8125 47.609375 11.28125 51.796875 
Q 16.75 56 26.8125 56 
Q 31.78125 56 36.171875 55.265625 
Q 40.578125 54.546875 44.28125 53.078125 
z
" id="DejaVuSans-115"/>
      <path d="M 8.015625 75.875 
L 15.828125 75.875 
Q 23.140625 64.359375 26.78125 53.3125 
Q 30.421875 42.28125 30.421875 31.390625 
Q 30.421875 20.453125 26.78125 9.375 
Q 23.140625 -1.703125 15.828125 -13.1875 
L 8.015625 -13.1875 
Q 14.5 -2 17.703125 9.0625 
Q 20.90625 20.125 20.90625 31.390625 
Q 20.90625 42.671875 17.703125 53.65625 
Q 14.5 64.65625 8.015625 75.875 
z
" id="DejaVuSans-41"/>
     </defs>
     <g transform="translate(402.339063 658.276562)scale(0.1 -0.1)">
      <use xlink:href="#DejaVuSans-73"/>
      <use x="29.492188" xlink:href="#DejaVuSans-40"/>
      <use x="68.505859" xlink:href="#DejaVuSans-99"/>
      <use x="123.486328" xlink:href="#DejaVuSans-111"/>
      <use x="184.667969" xlink:href="#DejaVuSans-110"/>
      <use x="248.046875" xlink:href="#DejaVuSans-118"/>
      <use x="307.226562" xlink:href="#DejaVuSans-50"/>
      <use x="370.849609" xlink:href="#DejaVuSans-59"/>
      <use x="404.541016" xlink:href="#DejaVuSans-100"/>
      <use x="468.017578" xlink:href="#DejaVuSans-101"/>
      <use x="529.541016" xlink:href="#DejaVuSans-110"/>
      <use x="592.919922" xlink:href="#DejaVuSans-115"/>
      <use x="645.019531" xlink:href="#DejaVuSans-101"/>
      <use x="706.542969" xlink:href="#DejaVuSans-49"/>
      <use x="770.166016" xlink:href="#DejaVuSans-41"/>
     </g>
    </g>
   </g>
   <g id="matplotlib.axis_2">
    <g id="ytick_1">
     <g id="line2d_10">
      <defs>
       <path d="M 0 0 
L -3.5 0 
" id="mb5061ec4b2" style="stroke:#000000;stroke-width:0.8;"/>
      </defs>
      <g>
       <use style="stroke:#000000;stroke-width:0.8;" x="108" xlink:href="#mb5061ec4b2" y="610.691317"/>
      </g>
     </g>
     <g id="text_11">
      <!-- −16.5 -->
      <defs>
       <path d="M 10.796875 72.90625 
L 49.515625 72.90625 
L 49.515625 64.59375 
L 19.828125 64.59375 
L 19.828125 46.734375 
Q 21.96875 47.46875 24.109375 47.828125 
Q 26.265625 48.1875 28.421875 48.1875 
Q 40.625 48.1875 47.75 41.5 
Q 54.890625 34.8125 54.890625 23.390625 
Q 54.890625 11.625 47.5625 5.09375 
Q 40.234375 -1.421875 26.90625 -1.421875 
Q 22.3125 -1.421875 17.546875 -0.640625 
Q 12.796875 0.140625 7.71875 1.703125 
L 7.71875 11.625 
Q 12.109375 9.234375 16.796875 8.0625 
Q 21.484375 6.890625 26.703125 6.890625 
Q 35.15625 6.890625 40.078125 11.328125 
Q 45.015625 15.765625 45.015625 23.390625 
Q 45.015625 31 40.078125 35.4375 
Q 35.15625 39.890625 26.703125 39.890625 
Q 22.75 39.890625 18.8125 39.015625 
Q 14.890625 38.140625 10.796875 36.28125 
z
" id="DejaVuSans-53"/>
      </defs>
      <g transform="translate(70.354687 614.490536)scale(0.1 -0.1)">
       <use xlink:href="#DejaVuSans-8722"/>
       <use x="83.789062" xlink:href="#DejaVuSans-49"/>
       <use x="147.412109" xlink:href="#DejaVuSans-54"/>
       <use x="211.035156" xlink:href="#DejaVuSans-46"/>
       <use x="242.822266" xlink:href="#DejaVuSans-53"/>
      </g>
     </g>
    </g>
    <g id="ytick_2">
     <g id="line2d_11">
      <g>
       <use style="stroke:#000000;stroke-width:0.8;" x="108" xlink:href="#mb5061ec4b2" y="521.111416"/>
      </g>
     </g>
     <g id="text_12">
      <!-- −16.0 -->
      <g transform="translate(70.354687 524.910635)scale(0.1 -0.1)">
       <use xlink:href="#DejaVuSans-8722"/>
       <use x="83.789062" xlink:href="#DejaVuSans-49"/>
       <use x="147.412109" xlink:href="#DejaVuSans-54"/>
       <use x="211.035156" xlink:href="#DejaVuSans-46"/>
       <use x="242.822266" xlink:href="#DejaVuSans-48"/>
      </g>
     </g>
    </g>
    <g id="ytick_3">
     <g id="line2d_12">
      <g>
       <use style="stroke:#000000;stroke-width:0.8;" x="108" xlink:href="#mb5061ec4b2" y="431.531515"/>
      </g>
     </g>
     <g id="text_13">
      <!-- −15.5 -->
      <g transform="translate(70.354687 435.330734)scale(0.1 -0.1)">
       <use xlink:href="#DejaVuSans-8722"/>
       <use x="83.789062" xlink:href="#DejaVuSans-49"/>
       <use x="147.412109" xlink:href="#DejaVuSans-53"/>
       <use x="211.035156" xlink:href="#DejaVuSans-46"/>
       <use x="242.822266" xlink:href="#DejaVuSans-53"/>
      </g>
     </g>
    </g>
    <g id="ytick_4">
     <g id="line2d_13">
      <g>
       <use style="stroke:#000000;stroke-width:0.8;" x="108" xlink:href="#mb5061ec4b2" y="341.951615"/>
      </g>
     </g>
     <g id="text_14">
      <!-- −15.0 -->
      <g transform="translate(70.354687 345.750833)scale(0.1 -0.1)">
       <use xlink:href="#DejaVuSans-8722"/>
       <use x="83.789062" xlink:href="#DejaVuSans-49"/>
       <use x="147.412109" xlink:href="#DejaVuSans-53"/>
       <use x="211.035156" xlink:href="#DejaVuSans-46"/>
       <use x="242.822266" xlink:href="#DejaVuSans-48"/>
      </g>
     </g>
    </g>
    <g id="ytick_5">
     <g id="line2d_14">
      <g>
       <use style="stroke:#000000;stroke-width:0.8;" x="108" xlink:href="#mb5061ec4b2" y="252.371714"/>
      </g>
     </g>
     <g id="text_15">
      <!-- −14.5 -->
      <g transform="translate(70.354687 256.170933)scale(0.1 -0.1)">
       <use xlink:href="#DejaVuSans-8722"/>
       <use x="83.789062" xlink:href="#DejaVuSans-49"/>
       <use x="147.412109" xlink:href="#DejaVuSans-52"/>
       <use x="211.035156" xlink:href="#DejaVuSans-46"/>
       <use x="242.822266" xlink:href="#DejaVuSans-53"/>
      </g>
     </g>
    </g>
    <g id="ytick_6">
     <g id="line2d_15">
      <g>
       <use style="stroke:#000000;stroke-width:0.8;" x="108" xlink:href="#mb5061ec4b2" y="162.791813"/>
      </g>
     </g>
     <g id="text_16">
      <!-- −14.0 -->
      <g transform="translate(70.354687 166.591032)scale(0.1 -0.1)">
       <use xlink:href="#DejaVuSans-8722"/>
       <use x="83.789062" xlink:href="#DejaVuSans-49"/>
       <use x="147.412109" xlink:href="#DejaVuSans-52"/>
       <use x="211.035156" xlink:href="#DejaVuSans-46"/>
       <use x="242.822266" xlink:href="#DejaVuSans-48"/>
      </g>
     </g>
    </g>
    <g id="text_17">
     <!-- I(dense1;output) -->
     <defs>
      <path d="M 8.5 21.578125 
L 8.5 54.6875 
L 17.484375 54.6875 
L 17.484375 21.921875 
Q 17.484375 14.15625 20.5 10.265625 
Q 23.53125 6.390625 29.59375 6.390625 
Q 36.859375 6.390625 41.078125 11.03125 
Q 45.3125 15.671875 45.3125 23.6875 
L 45.3125 54.6875 
L 54.296875 54.6875 
L 54.296875 0 
L 45.3125 0 
L 45.3125 8.40625 
Q 42.046875 3.421875 37.71875 1 
Q 33.40625 -1.421875 27.6875 -1.421875 
Q 18.265625 -1.421875 13.375 4.4375 
Q 8.5 10.296875 8.5 21.578125 
z
M 31.109375 56 
z
" id="DejaVuSans-117"/>
      <path d="M 18.3125 70.21875 
L 18.3125 54.6875 
L 36.8125 54.6875 
L 36.8125 47.703125 
L 18.3125 47.703125 
L 18.3125 18.015625 
Q 18.3125 11.328125 20.140625 9.421875 
Q 21.96875 7.515625 27.59375 7.515625 
L 36.8125 7.515625 
L 36.8125 0 
L 27.59375 0 
Q 17.1875 0 13.234375 3.875 
Q 9.28125 7.765625 9.28125 18.015625 
L 9.28125 47.703125 
L 2.6875 47.703125 
L 2.6875 54.6875 
L 9.28125 54.6875 
L 9.28125 70.21875 
z
" id="DejaVuSans-116"/>
      <path d="M 18.109375 8.203125 
L 18.109375 -20.796875 
L 9.078125 -20.796875 
L 9.078125 54.6875 
L 18.109375 54.6875 
L 18.109375 46.390625 
Q 20.953125 51.265625 25.265625 53.625 
Q 29.59375 56 35.59375 56 
Q 45.5625 56 51.78125 48.09375 
Q 58.015625 40.1875 58.015625 27.296875 
Q 58.015625 14.40625 51.78125 6.484375 
Q 45.5625 -1.421875 35.59375 -1.421875 
Q 29.59375 -1.421875 25.265625 0.953125 
Q 20.953125 3.328125 18.109375 8.203125 
z
M 48.6875 27.296875 
Q 48.6875 37.203125 44.609375 42.84375 
Q 40.53125 48.484375 33.40625 48.484375 
Q 26.265625 48.484375 22.1875 42.84375 
Q 18.109375 37.203125 18.109375 27.296875 
Q 18.109375 17.390625 22.1875 11.75 
Q 26.265625 6.109375 33.40625 6.109375 
Q 40.53125 6.109375 44.609375 11.75 
Q 48.6875 17.390625 48.6875 27.296875 
z
" id="DejaVuSans-112"/>
     </defs>
     <g transform="translate(64.275 400.034375)rotate(-90)scale(0.1 -0.1)">
      <use xlink:href="#DejaVuSans-73"/>
      <use x="29.492188" xlink:href="#DejaVuSans-40"/>
      <use x="68.505859" xlink:href="#DejaVuSans-100"/>
      <use x="131.982422" xlink:href="#DejaVuSans-101"/>
      <use x="193.505859" xlink:href="#DejaVuSans-110"/>
      <use x="256.884766" xlink:href="#DejaVuSans-115"/>
      <use x="308.984375" xlink:href="#DejaVuSans-101"/>
      <use x="370.507812" xlink:href="#DejaVuSans-49"/>
      <use x="434.130859" xlink:href="#DejaVuSans-59"/>
      <use x="467.822266" xlink:href="#DejaVuSans-111"/>
      <use x="529.003906" xlink:href="#DejaVuSans-117"/>
      <use x="592.382812" xlink:href="#DejaVuSans-116"/>
      <use x="631.591797" xlink:href="#DejaVuSans-112"/>
      <use x="695.068359" xlink:href="#DejaVuSans-117"/>
      <use x="758.447266" xlink:href="#DejaVuSans-116"/>
      <use x="797.65625" xlink:href="#DejaVuSans-41"/>
     </g>
    </g>
   </g>
   <g id="patch_3">
    <path d="M 108 630 
L 108 86.4 
" style="fill:none;stroke:#000000;stroke-linecap:square;stroke-linejoin:miter;stroke-width:0.8;"/>
   </g>
   <g id="patch_4">
    <path d="M 777.6 630 
L 777.6 86.4 
" style="fill:none;stroke:#000000;stroke-linecap:square;stroke-linejoin:miter;stroke-width:0.8;"/>
   </g>
   <g id="patch_5">
    <path d="M 108 630 
L 777.6 630 
" style="fill:none;stroke:#000000;stroke-linecap:square;stroke-linejoin:miter;stroke-width:0.8;"/>
   </g>
   <g id="patch_6">
    <path d="M 108 86.4 
L 777.6 86.4 
" style="fill:none;stroke:#000000;stroke-linecap:square;stroke-linejoin:miter;stroke-width:0.8;"/>
   </g>
   <g id="text_18">
    <!-- Information Plane Node Strengths conv2-dense1 -->
    <defs>
     <path d="M 37.109375 75.984375 
L 37.109375 68.5 
L 28.515625 68.5 
Q 23.6875 68.5 21.796875 66.546875 
Q 19.921875 64.59375 19.921875 59.515625 
L 19.921875 54.6875 
L 34.71875 54.6875 
L 34.71875 47.703125 
L 19.921875 47.703125 
L 19.921875 0 
L 10.890625 0 
L 10.890625 47.703125 
L 2.296875 47.703125 
L 2.296875 54.6875 
L 10.890625 54.6875 
L 10.890625 58.5 
Q 10.890625 67.625 15.140625 71.796875 
Q 19.390625 75.984375 28.609375 75.984375 
z
" id="DejaVuSans-102"/>
     <path d="M 41.109375 46.296875 
Q 39.59375 47.171875 37.8125 47.578125 
Q 36.03125 48 33.890625 48 
Q 26.265625 48 22.1875 43.046875 
Q 18.109375 38.09375 18.109375 28.8125 
L 18.109375 0 
L 9.078125 0 
L 9.078125 54.6875 
L 18.109375 54.6875 
L 18.109375 46.1875 
Q 20.953125 51.171875 25.484375 53.578125 
Q 30.03125 56 36.53125 56 
Q 37.453125 56 38.578125 55.875 
Q 39.703125 55.765625 41.0625 55.515625 
z
" id="DejaVuSans-114"/>
     <path d="M 52 44.1875 
Q 55.375 50.25 60.0625 53.125 
Q 64.75 56 71.09375 56 
Q 79.640625 56 84.28125 50.015625 
Q 88.921875 44.046875 88.921875 33.015625 
L 88.921875 0 
L 79.890625 0 
L 79.890625 32.71875 
Q 79.890625 40.578125 77.09375 44.375 
Q 74.3125 48.1875 68.609375 48.1875 
Q 61.625 48.1875 57.5625 43.546875 
Q 53.515625 38.921875 53.515625 30.90625 
L 53.515625 0 
L 44.484375 0 
L 44.484375 32.71875 
Q 44.484375 40.625 41.703125 44.40625 
Q 38.921875 48.1875 33.109375 48.1875 
Q 26.21875 48.1875 22.15625 43.53125 
Q 18.109375 38.875 18.109375 30.90625 
L 18.109375 0 
L 9.078125 0 
L 9.078125 54.6875 
L 18.109375 54.6875 
L 18.109375 46.1875 
Q 21.1875 51.21875 25.484375 53.609375 
Q 29.78125 56 35.6875 56 
Q 41.65625 56 45.828125 52.96875 
Q 50 49.953125 52 44.1875 
z
" id="DejaVuSans-109"/>
     <path d="M 34.28125 27.484375 
Q 23.390625 27.484375 19.1875 25 
Q 14.984375 22.515625 14.984375 16.5 
Q 14.984375 11.71875 18.140625 8.90625 
Q 21.296875 6.109375 26.703125 6.109375 
Q 34.1875 6.109375 38.703125 11.40625 
Q 43.21875 16.703125 43.21875 25.484375 
L 43.21875 27.484375 
z
M 52.203125 31.203125 
L 52.203125 0 
L 43.21875 0 
L 43.21875 8.296875 
Q 40.140625 3.328125 35.546875 0.953125 
Q 30.953125 -1.421875 24.3125 -1.421875 
Q 15.921875 -1.421875 10.953125 3.296875 
Q 6 8.015625 6 15.921875 
Q 6 25.140625 12.171875 29.828125 
Q 18.359375 34.515625 30.609375 34.515625 
L 43.21875 34.515625 
L 43.21875 35.40625 
Q 43.21875 41.609375 39.140625 45 
Q 35.0625 48.390625 27.6875 48.390625 
Q 23 48.390625 18.546875 47.265625 
Q 14.109375 46.140625 10.015625 43.890625 
L 10.015625 52.203125 
Q 14.9375 54.109375 19.578125 55.046875 
Q 24.21875 56 28.609375 56 
Q 40.484375 56 46.34375 49.84375 
Q 52.203125 43.703125 52.203125 31.203125 
z
" id="DejaVuSans-97"/>
     <path d="M 9.421875 54.6875 
L 18.40625 54.6875 
L 18.40625 0 
L 9.421875 0 
z
M 9.421875 75.984375 
L 18.40625 75.984375 
L 18.40625 64.59375 
L 9.421875 64.59375 
z
" id="DejaVuSans-105"/>
     <path id="DejaVuSans-32"/>
     <path d="M 19.671875 64.796875 
L 19.671875 37.40625 
L 32.078125 37.40625 
Q 38.96875 37.40625 42.71875 40.96875 
Q 46.484375 44.53125 46.484375 51.125 
Q 46.484375 57.671875 42.71875 61.234375 
Q 38.96875 64.796875 32.078125 64.796875 
z
M 9.8125 72.90625 
L 32.078125 72.90625 
Q 44.34375 72.90625 50.609375 67.359375 
Q 56.890625 61.8125 56.890625 51.125 
Q 56.890625 40.328125 50.609375 34.8125 
Q 44.34375 29.296875 32.078125 29.296875 
L 19.671875 29.296875 
L 19.671875 0 
L 9.8125 0 
z
" id="DejaVuSans-80"/>
     <path d="M 9.421875 75.984375 
L 18.40625 75.984375 
L 18.40625 0 
L 9.421875 0 
z
" id="DejaVuSans-108"/>
     <path d="M 9.8125 72.90625 
L 23.09375 72.90625 
L 55.421875 11.921875 
L 55.421875 72.90625 
L 64.984375 72.90625 
L 64.984375 0 
L 51.703125 0 
L 19.390625 60.984375 
L 19.390625 0 
L 9.8125 0 
z
" id="DejaVuSans-78"/>
     <path d="M 53.515625 70.515625 
L 53.515625 60.890625 
Q 47.90625 63.578125 42.921875 64.890625 
Q 37.9375 66.21875 33.296875 66.21875 
Q 25.25 66.21875 20.875 63.09375 
Q 16.5 59.96875 16.5 54.203125 
Q 16.5 49.359375 19.40625 46.890625 
Q 22.3125 44.4375 30.421875 42.921875 
L 36.375 41.703125 
Q 47.40625 39.59375 52.65625 34.296875 
Q 57.90625 29 57.90625 20.125 
Q 57.90625 9.515625 50.796875 4.046875 
Q 43.703125 -1.421875 29.984375 -1.421875 
Q 24.8125 -1.421875 18.96875 -0.25 
Q 13.140625 0.921875 6.890625 3.21875 
L 6.890625 13.375 
Q 12.890625 10.015625 18.65625 8.296875 
Q 24.421875 6.59375 29.984375 6.59375 
Q 38.421875 6.59375 43.015625 9.90625 
Q 47.609375 13.234375 47.609375 19.390625 
Q 47.609375 24.75 44.3125 27.78125 
Q 41.015625 30.8125 33.5 32.328125 
L 27.484375 33.5 
Q 16.453125 35.6875 11.515625 40.375 
Q 6.59375 45.0625 6.59375 53.421875 
Q 6.59375 63.09375 13.40625 68.65625 
Q 20.21875 74.21875 32.171875 74.21875 
Q 37.3125 74.21875 42.625 73.28125 
Q 47.953125 72.359375 53.515625 70.515625 
z
" id="DejaVuSans-83"/>
     <path d="M 45.40625 27.984375 
Q 45.40625 37.75 41.375 43.109375 
Q 37.359375 48.484375 30.078125 48.484375 
Q 22.859375 48.484375 18.828125 43.109375 
Q 14.796875 37.75 14.796875 27.984375 
Q 14.796875 18.265625 18.828125 12.890625 
Q 22.859375 7.515625 30.078125 7.515625 
Q 37.359375 7.515625 41.375 12.890625 
Q 45.40625 18.265625 45.40625 27.984375 
z
M 54.390625 6.78125 
Q 54.390625 -7.171875 48.1875 -13.984375 
Q 42 -20.796875 29.203125 -20.796875 
Q 24.46875 -20.796875 20.265625 -20.09375 
Q 16.0625 -19.390625 12.109375 -17.921875 
L 12.109375 -9.1875 
Q 16.0625 -11.328125 19.921875 -12.34375 
Q 23.78125 -13.375 27.78125 -13.375 
Q 36.625 -13.375 41.015625 -8.765625 
Q 45.40625 -4.15625 45.40625 5.171875 
L 45.40625 9.625 
Q 42.625 4.78125 38.28125 2.390625 
Q 33.9375 0 27.875 0 
Q 17.828125 0 11.671875 7.65625 
Q 5.515625 15.328125 5.515625 27.984375 
Q 5.515625 40.671875 11.671875 48.328125 
Q 17.828125 56 27.875 56 
Q 33.9375 56 38.28125 53.609375 
Q 42.625 51.21875 45.40625 46.390625 
L 45.40625 54.6875 
L 54.390625 54.6875 
z
" id="DejaVuSans-103"/>
     <path d="M 54.890625 33.015625 
L 54.890625 0 
L 45.90625 0 
L 45.90625 32.71875 
Q 45.90625 40.484375 42.875 44.328125 
Q 39.84375 48.1875 33.796875 48.1875 
Q 26.515625 48.1875 22.3125 43.546875 
Q 18.109375 38.921875 18.109375 30.90625 
L 18.109375 0 
L 9.078125 0 
L 9.078125 75.984375 
L 18.109375 75.984375 
L 18.109375 46.1875 
Q 21.34375 51.125 25.703125 53.5625 
Q 30.078125 56 35.796875 56 
Q 45.21875 56 50.046875 50.171875 
Q 54.890625 44.34375 54.890625 33.015625 
z
" id="DejaVuSans-104"/>
     <path d="M 4.890625 31.390625 
L 31.203125 31.390625 
L 31.203125 23.390625 
L 4.890625 23.390625 
z
" id="DejaVuSans-45"/>
    </defs>
    <g transform="translate(296.765625 80.4)scale(0.12 -0.12)">
     <use xlink:href="#DejaVuSans-73"/>
     <use x="29.492188" xlink:href="#DejaVuSans-110"/>
     <use x="92.871094" xlink:href="#DejaVuSans-102"/>
     <use x="128.076172" xlink:href="#DejaVuSans-111"/>
     <use x="189.257812" xlink:href="#DejaVuSans-114"/>
     <use x="230.355469" xlink:href="#DejaVuSans-109"/>
     <use x="327.767578" xlink:href="#DejaVuSans-97"/>
     <use x="389.046875" xlink:href="#DejaVuSans-116"/>
     <use x="428.255859" xlink:href="#DejaVuSans-105"/>
     <use x="456.039062" xlink:href="#DejaVuSans-111"/>
     <use x="517.220703" xlink:href="#DejaVuSans-110"/>
     <use x="580.599609" xlink:href="#DejaVuSans-32"/>
     <use x="612.386719" xlink:href="#DejaVuSans-80"/>
     <use x="672.689453" xlink:href="#DejaVuSans-108"/>
     <use x="700.472656" xlink:href="#DejaVuSans-97"/>
     <use x="761.751953" xlink:href="#DejaVuSans-110"/>
     <use x="825.130859" xlink:href="#DejaVuSans-101"/>
     <use x="886.654297" xlink:href="#DejaVuSans-32"/>
     <use x="918.441406" xlink:href="#DejaVuSans-78"/>
     <use x="993.246094" xlink:href="#DejaVuSans-111"/>
     <use x="1054.427734" xlink:href="#DejaVuSans-100"/>
     <use x="1117.904297" xlink:href="#DejaVuSans-101"/>
     <use x="1179.427734" xlink:href="#DejaVuSans-32"/>
     <use x="1211.214844" xlink:href="#DejaVuSans-83"/>
     <use x="1274.691406" xlink:href="#DejaVuSans-116"/>
     <use x="1313.900391" xlink:href="#DejaVuSans-114"/>
     <use x="1354.982422" xlink:href="#DejaVuSans-101"/>
     <use x="1416.505859" xlink:href="#DejaVuSans-110"/>
     <use x="1479.884766" xlink:href="#DejaVuSans-103"/>
     <use x="1543.361328" xlink:href="#DejaVuSans-116"/>
     <use x="1582.570312" xlink:href="#DejaVuSans-104"/>
     <use x="1645.949219" xlink:href="#DejaVuSans-115"/>
     <use x="1698.048828" xlink:href="#DejaVuSans-32"/>
     <use x="1729.835938" xlink:href="#DejaVuSans-99"/>
     <use x="1784.816406" xlink:href="#DejaVuSans-111"/>
     <use x="1845.998047" xlink:href="#DejaVuSans-110"/>
     <use x="1909.376953" xlink:href="#DejaVuSans-118"/>
     <use x="1968.556641" xlink:href="#DejaVuSans-50"/>
     <use x="2032.179688" xlink:href="#DejaVuSans-45"/>
     <use x="2068.263672" xlink:href="#DejaVuSans-100"/>
     <use x="2131.740234" xlink:href="#DejaVuSans-101"/>
     <use x="2193.263672" xlink:href="#DejaVuSans-110"/>
     <use x="2256.642578" xlink:href="#DejaVuSans-115"/>
     <use x="2308.742188" xlink:href="#DejaVuSans-101"/>
     <use x="2370.265625" xlink:href="#DejaVuSans-49"/>
    </g>
   </g>
   <g id="legend_1">
    <g id="patch_7">
     <path d="M 115 167.790625 
L 163.09375 167.790625 
Q 165.09375 167.790625 165.09375 165.790625 
L 165.09375 93.4 
Q 165.09375 91.4 163.09375 91.4 
L 115 91.4 
Q 113 91.4 113 93.4 
L 113 165.790625 
Q 113 167.790625 115 167.790625 
z
" style="fill:#ffffff;opacity:0.8;stroke:#cccccc;stroke-linejoin:miter;"/>
    </g>
    <g id="PathCollection_6">
     <g>
      <use style="fill:#0000ff;stroke:#0000ff;" x="127" xlink:href="#m0411ddbb97" y="100.373438"/>
     </g>
    </g>
    <g id="text_19">
     <!-- 1/5 -->
     <defs>
      <path d="M 25.390625 72.90625 
L 33.6875 72.90625 
L 8.296875 -9.28125 
L 0 -9.28125 
z
" id="DejaVuSans-47"/>
     </defs>
     <g transform="translate(145 102.998438)scale(0.1 -0.1)">
      <use xlink:href="#DejaVuSans-49"/>
      <use x="63.623047" xlink:href="#DejaVuSans-47"/>
      <use x="97.314453" xlink:href="#DejaVuSans-53"/>
     </g>
    </g>
    <g id="PathCollection_7">
     <g>
      <use style="fill:#008000;stroke:#008000;" x="127" xlink:href="#m486e93a55c" y="115.051563"/>
     </g>
    </g>
    <g id="text_20">
     <!-- 2/5 -->
     <g transform="translate(145 117.676563)scale(0.1 -0.1)">
      <use xlink:href="#DejaVuSans-50"/>
      <use x="63.623047" xlink:href="#DejaVuSans-47"/>
      <use x="97.314453" xlink:href="#DejaVuSans-53"/>
     </g>
    </g>
    <g id="PathCollection_8">
     <g>
      <use style="fill:#ffff00;stroke:#ffff00;" x="127" xlink:href="#m1106ff22c5" y="129.729688"/>
     </g>
    </g>
    <g id="text_21">
     <!-- 3/5 -->
     <defs>
      <path d="M 40.578125 39.3125 
Q 47.65625 37.796875 51.625 33 
Q 55.609375 28.21875 55.609375 21.1875 
Q 55.609375 10.40625 48.1875 4.484375 
Q 40.765625 -1.421875 27.09375 -1.421875 
Q 22.515625 -1.421875 17.65625 -0.515625 
Q 12.796875 0.390625 7.625 2.203125 
L 7.625 11.71875 
Q 11.71875 9.328125 16.59375 8.109375 
Q 21.484375 6.890625 26.8125 6.890625 
Q 36.078125 6.890625 40.9375 10.546875 
Q 45.796875 14.203125 45.796875 21.1875 
Q 45.796875 27.640625 41.28125 31.265625 
Q 36.765625 34.90625 28.71875 34.90625 
L 20.21875 34.90625 
L 20.21875 43.015625 
L 29.109375 43.015625 
Q 36.375 43.015625 40.234375 45.921875 
Q 44.09375 48.828125 44.09375 54.296875 
Q 44.09375 59.90625 40.109375 62.90625 
Q 36.140625 65.921875 28.71875 65.921875 
Q 24.65625 65.921875 20.015625 65.03125 
Q 15.375 64.15625 9.8125 62.3125 
L 9.8125 71.09375 
Q 15.4375 72.65625 20.34375 73.4375 
Q 25.25 74.21875 29.59375 74.21875 
Q 40.828125 74.21875 47.359375 69.109375 
Q 53.90625 64.015625 53.90625 55.328125 
Q 53.90625 49.265625 50.4375 45.09375 
Q 46.96875 40.921875 40.578125 39.3125 
z
" id="DejaVuSans-51"/>
     </defs>
     <g transform="translate(145 132.354688)scale(0.1 -0.1)">
      <use xlink:href="#DejaVuSans-51"/>
      <use x="63.623047" xlink:href="#DejaVuSans-47"/>
      <use x="97.314453" xlink:href="#DejaVuSans-53"/>
     </g>
    </g>
    <g id="PathCollection_9">
     <g>
      <use style="fill:#ffa500;stroke:#ffa500;" x="127" xlink:href="#mcd8902fa0e" y="144.407812"/>
     </g>
    </g>
    <g id="text_22">
     <!-- 4/5 -->
     <g transform="translate(145 147.032812)scale(0.1 -0.1)">
      <use xlink:href="#DejaVuSans-52"/>
      <use x="63.623047" xlink:href="#DejaVuSans-47"/>
      <use x="97.314453" xlink:href="#DejaVuSans-53"/>
     </g>
    </g>
    <g id="PathCollection_10">
     <g>
      <use style="fill:#ff0000;stroke:#ff0000;" x="127" xlink:href="#m39011c3eff" y="159.085938"/>
     </g>
    </g>
    <g id="text_23">
     <!-- 5/5 -->
     <g transform="translate(145 161.710938)scale(0.1 -0.1)">
      <use xlink:href="#DejaVuSans-53"/>
      <use x="63.623047" xlink:href="#DejaVuSans-47"/>
      <use x="97.314453" xlink:href="#DejaVuSans-53"/>
     </g>
    </g>
   </g>
  </g>
 </g>
 <defs>
  <clipPath id="p8a8ea14885">
   <rect height="543.6" width="669.6" x="108" y="86.4"/>
  </clipPath>
 </defs>
</svg>
