<?xml version="1.0" encoding="utf-8" standalone="no"?>
<!DOCTYPE svg PUBLIC "-//W3C//DTD SVG 1.1//EN"
  "http://www.w3.org/Graphics/SVG/1.1/DTD/svg11.dtd">
<!-- Created with matplotlib (https://matplotlib.org/) -->
<svg height="720pt" version="1.1" viewBox="0 0 864 720" width="864pt" xmlns="http://www.w3.org/2000/svg" xmlns:xlink="http://www.w3.org/1999/xlink">
 <defs>
  <style type="text/css">
*{stroke-linecap:butt;stroke-linejoin:round;white-space:pre;}
  </style>
 </defs>
 <g id="figure_1">
  <g id="patch_1">
   <path d="M 0 720 
L 864 720 
L 864 0 
L 0 0 
z
" style="fill:#ffffff;"/>
  </g>
  <g id="axes_1">
   <g id="patch_2">
    <path d="M 108 630 
L 777.6 630 
L 777.6 86.4 
L 108 86.4 
z
" style="fill:#ffffff;"/>
   </g>
   <g id="PathCollection_1">
    <defs>
     <path d="M 0 3 
C 0.795609 3 1.55874 2.683901 2.12132 2.12132 
C 2.683901 1.55874 3 0.795609 3 0 
C 3 -0.795609 2.683901 -1.55874 2.12132 -2.12132 
C 1.55874 -2.683901 0.795609 -3 0 -3 
C -0.795609 -3 -1.55874 -2.683901 -2.12132 -2.12132 
C -2.683901 -1.55874 -3 -0.795609 -3 0 
C -3 0.795609 -2.683901 1.55874 -2.12132 2.12132 
C -1.55874 2.683901 -0.795609 3 0 3 
z
" id="m232439d5bf" style="stroke:#0000ff;"/>
    </defs>
    <g clip-path="url(#p61a1f6f64b)">
     <use style="fill:#0000ff;stroke:#0000ff;" x="324.57156" xlink:href="#m232439d5bf" y="454.225161"/>
     <use style="fill:#0000ff;stroke:#0000ff;" x="169.65161" xlink:href="#m232439d5bf" y="579.802027"/>
     <use style="fill:#0000ff;stroke:#0000ff;" x="225.586829" xlink:href="#m232439d5bf" y="534.461389"/>
     <use style="fill:#0000ff;stroke:#0000ff;" x="179.430795" xlink:href="#m232439d5bf" y="571.875099"/>
     <use style="fill:#0000ff;stroke:#0000ff;" x="177.108261" xlink:href="#m232439d5bf" y="573.757726"/>
     <use style="fill:#0000ff;stroke:#0000ff;" x="170.055785" xlink:href="#m232439d5bf" y="579.474407"/>
     <use style="fill:#0000ff;stroke:#0000ff;" x="200.96049" xlink:href="#m232439d5bf" y="554.423301"/>
     <use style="fill:#0000ff;stroke:#0000ff;" x="223.327217" xlink:href="#m232439d5bf" y="536.293012"/>
     <use style="fill:#0000ff;stroke:#0000ff;" x="183.942098" xlink:href="#m232439d5bf" y="568.218273"/>
     <use style="fill:#0000ff;stroke:#0000ff;" x="257.732462" xlink:href="#m232439d5bf" y="508.404397"/>
     <use style="fill:#0000ff;stroke:#0000ff;" x="284.288654" xlink:href="#m232439d5bf" y="486.878161"/>
     <use style="fill:#0000ff;stroke:#0000ff;" x="336.231862" xlink:href="#m232439d5bf" y="444.773414"/>
     <use style="fill:#0000ff;stroke:#0000ff;" x="259.278207" xlink:href="#m232439d5bf" y="507.151429"/>
     <use style="fill:#0000ff;stroke:#0000ff;" x="139.426612" xlink:href="#m232439d5bf" y="604.302168"/>
     <use style="fill:#0000ff;stroke:#0000ff;" x="317.484848" xlink:href="#m232439d5bf" y="459.969593"/>
     <use style="fill:#0000ff;stroke:#0000ff;" x="289.442015" xlink:href="#m232439d5bf" y="482.700888"/>
     <use style="fill:#0000ff;stroke:#0000ff;" x="313.085775" xlink:href="#m232439d5bf" y="463.535446"/>
     <use style="fill:#0000ff;stroke:#0000ff;" x="308.030059" xlink:href="#m232439d5bf" y="467.633569"/>
     <use style="fill:#0000ff;stroke:#0000ff;" x="373.776406" xlink:href="#m232439d5bf" y="414.340108"/>
     <use style="fill:#0000ff;stroke:#0000ff;" x="391.646271" xlink:href="#m232439d5bf" y="399.854939"/>
     <use style="fill:#0000ff;stroke:#0000ff;" x="370.003817" xlink:href="#m232439d5bf" y="417.398139"/>
     <use style="fill:#0000ff;stroke:#0000ff;" x="364.684964" xlink:href="#m232439d5bf" y="421.709558"/>
     <use style="fill:#0000ff;stroke:#0000ff;" x="520.869771" xlink:href="#m232439d5bf" y="295.107408"/>
     <use style="fill:#0000ff;stroke:#0000ff;" x="294.323427" xlink:href="#m232439d5bf" y="478.744055"/>
     <use style="fill:#0000ff;stroke:#0000ff;" x="370.693576" xlink:href="#m232439d5bf" y="416.839026"/>
     <use style="fill:#0000ff;stroke:#0000ff;" x="293.52614" xlink:href="#m232439d5bf" y="479.390329"/>
     <use style="fill:#0000ff;stroke:#0000ff;" x="309.438204" xlink:href="#m232439d5bf" y="466.492138"/>
     <use style="fill:#0000ff;stroke:#0000ff;" x="450.179833" xlink:href="#m232439d5bf" y="352.408104"/>
     <use style="fill:#0000ff;stroke:#0000ff;" x="313.801404" xlink:href="#m232439d5bf" y="462.955363"/>
     <use style="fill:#0000ff;stroke:#0000ff;" x="407.612944" xlink:href="#m232439d5bf" y="386.912482"/>
     <use style="fill:#0000ff;stroke:#0000ff;" x="339.483262" xlink:href="#m232439d5bf" y="442.137855"/>
     <use style="fill:#0000ff;stroke:#0000ff;" x="362.90649" xlink:href="#m232439d5bf" y="423.151175"/>
     <use style="fill:#0000ff;stroke:#0000ff;" x="400.738854" xlink:href="#m232439d5bf" y="392.484565"/>
     <use style="fill:#0000ff;stroke:#0000ff;" x="447.06396" xlink:href="#m232439d5bf" y="354.933806"/>
     <use style="fill:#0000ff;stroke:#0000ff;" x="355.587547" xlink:href="#m232439d5bf" y="429.083851"/>
     <use style="fill:#0000ff;stroke:#0000ff;" x="456.525273" xlink:href="#m232439d5bf" y="347.264541"/>
     <use style="fill:#0000ff;stroke:#0000ff;" x="350.836091" xlink:href="#m232439d5bf" y="432.935343"/>
     <use style="fill:#0000ff;stroke:#0000ff;" x="500.233728" xlink:href="#m232439d5bf" y="311.834818"/>
     <use style="fill:#0000ff;stroke:#0000ff;" x="455.205032" xlink:href="#m232439d5bf" y="348.334718"/>
     <use style="fill:#0000ff;stroke:#0000ff;" x="502.834358" xlink:href="#m232439d5bf" y="309.726769"/>
     <use style="fill:#0000ff;stroke:#0000ff;" x="461.813376" xlink:href="#m232439d5bf" y="342.978047"/>
     <use style="fill:#0000ff;stroke:#0000ff;" x="437.037894" xlink:href="#m232439d5bf" y="363.060854"/>
     <use style="fill:#0000ff;stroke:#0000ff;" x="485.002192" xlink:href="#m232439d5bf" y="324.181379"/>
     <use style="fill:#0000ff;stroke:#0000ff;" x="431.412296" xlink:href="#m232439d5bf" y="367.620919"/>
     <use style="fill:#0000ff;stroke:#0000ff;" x="473.288064" xlink:href="#m232439d5bf" y="333.676758"/>
     <use style="fill:#0000ff;stroke:#0000ff;" x="422.776753" xlink:href="#m232439d5bf" y="374.620821"/>
     <use style="fill:#0000ff;stroke:#0000ff;" x="432.795323" xlink:href="#m232439d5bf" y="366.499848"/>
     <use style="fill:#0000ff;stroke:#0000ff;" x="543.309536" xlink:href="#m232439d5bf" y="276.917915"/>
     <use style="fill:#0000ff;stroke:#0000ff;" x="460.784468" xlink:href="#m232439d5bf" y="343.812072"/>
     <use style="fill:#0000ff;stroke:#0000ff;" x="508.358178" xlink:href="#m232439d5bf" y="305.249205"/>
     <use style="fill:#0000ff;stroke:#0000ff;" x="455.520418" xlink:href="#m232439d5bf" y="348.079069"/>
     <use style="fill:#0000ff;stroke:#0000ff;" x="474.630092" xlink:href="#m232439d5bf" y="332.58892"/>
     <use style="fill:#0000ff;stroke:#0000ff;" x="469.445308" xlink:href="#m232439d5bf" y="336.791664"/>
     <use style="fill:#0000ff;stroke:#0000ff;" x="447.820416" xlink:href="#m232439d5bf" y="354.320628"/>
     <use style="fill:#0000ff;stroke:#0000ff;" x="453.931464" xlink:href="#m232439d5bf" y="349.367062"/>
     <use style="fill:#0000ff;stroke:#0000ff;" x="428.667107" xlink:href="#m232439d5bf" y="369.846147"/>
     <use style="fill:#0000ff;stroke:#0000ff;" x="451.277389" xlink:href="#m232439d5bf" y="351.518434"/>
     <use style="fill:#0000ff;stroke:#0000ff;" x="484.548878" xlink:href="#m232439d5bf" y="324.548832"/>
     <use style="fill:#0000ff;stroke:#0000ff;" x="535.301524" xlink:href="#m232439d5bf" y="283.409145"/>
     <use style="fill:#0000ff;stroke:#0000ff;" x="440.507501" xlink:href="#m232439d5bf" y="360.248419"/>
    </g>
   </g>
   <g id="PathCollection_2">
    <defs>
     <path d="M 0 3 
C 0.795609 3 1.55874 2.683901 2.12132 2.12132 
C 2.683901 1.55874 3 0.795609 3 0 
C 3 -0.795609 2.683901 -1.55874 2.12132 -2.12132 
C 1.55874 -2.683901 0.795609 -3 0 -3 
C -0.795609 -3 -1.55874 -2.683901 -2.12132 -2.12132 
C -2.683901 -1.55874 -3 -0.795609 -3 0 
C -3 0.795609 -2.683901 1.55874 -2.12132 2.12132 
C -1.55874 2.683901 -0.795609 3 0 3 
z
" id="me3c24d510e" style="stroke:#008000;"/>
    </defs>
    <g clip-path="url(#p61a1f6f64b)">
     <use style="fill:#008000;stroke:#008000;" x="471.658433" xlink:href="#me3c24d510e" y="334.997724"/>
     <use style="fill:#008000;stroke:#008000;" x="431.241078" xlink:href="#me3c24d510e" y="367.759706"/>
     <use style="fill:#008000;stroke:#008000;" x="459.978784" xlink:href="#me3c24d510e" y="344.465153"/>
     <use style="fill:#008000;stroke:#008000;" x="400.985887" xlink:href="#me3c24d510e" y="392.284322"/>
     <use style="fill:#008000;stroke:#008000;" x="508.258256" xlink:href="#me3c24d510e" y="305.330201"/>
     <use style="fill:#008000;stroke:#008000;" x="422.356767" xlink:href="#me3c24d510e" y="374.961258"/>
     <use style="fill:#008000;stroke:#008000;" x="607.18663" xlink:href="#me3c24d510e" y="225.139656"/>
     <use style="fill:#008000;stroke:#008000;" x="447.176925" xlink:href="#me3c24d510e" y="354.842237"/>
     <use style="fill:#008000;stroke:#008000;" x="499.458075" xlink:href="#me3c24d510e" y="312.463557"/>
     <use style="fill:#008000;stroke:#008000;" x="474.197088" xlink:href="#me3c24d510e" y="332.93991"/>
     <use style="fill:#008000;stroke:#008000;" x="453.299658" xlink:href="#me3c24d510e" y="349.879199"/>
     <use style="fill:#008000;stroke:#008000;" x="450.924931" xlink:href="#me3c24d510e" y="351.804134"/>
     <use style="fill:#008000;stroke:#008000;" x="422.256985" xlink:href="#me3c24d510e" y="375.042141"/>
     <use style="fill:#008000;stroke:#008000;" x="486.699509" xlink:href="#me3c24d510e" y="322.805548"/>
     <use style="fill:#008000;stroke:#008000;" x="403.155401" xlink:href="#me3c24d510e" y="390.525731"/>
     <use style="fill:#008000;stroke:#008000;" x="424.94151" xlink:href="#me3c24d510e" y="372.866086"/>
     <use style="fill:#008000;stroke:#008000;" x="459.764864" xlink:href="#me3c24d510e" y="344.638555"/>
     <use style="fill:#008000;stroke:#008000;" x="445.913741" xlink:href="#me3c24d510e" y="355.866164"/>
     <use style="fill:#008000;stroke:#008000;" x="443.949976" xlink:href="#me3c24d510e" y="357.457976"/>
     <use style="fill:#008000;stroke:#008000;" x="478.889423" xlink:href="#me3c24d510e" y="329.136341"/>
     <use style="fill:#008000;stroke:#008000;" x="464.515484" xlink:href="#me3c24d510e" y="340.787741"/>
     <use style="fill:#008000;stroke:#008000;" x="396.704018" xlink:href="#me3c24d510e" y="395.75517"/>
     <use style="fill:#008000;stroke:#008000;" x="378.042264" xlink:href="#me3c24d510e" y="410.882238"/>
     <use style="fill:#008000;stroke:#008000;" x="427.256797" xlink:href="#me3c24d510e" y="370.989333"/>
     <use style="fill:#008000;stroke:#008000;" x="465.732668" xlink:href="#me3c24d510e" y="339.801101"/>
     <use style="fill:#008000;stroke:#008000;" x="435.740105" xlink:href="#me3c24d510e" y="364.112832"/>
     <use style="fill:#008000;stroke:#008000;" x="457.957728" xlink:href="#me3c24d510e" y="346.103405"/>
     <use style="fill:#008000;stroke:#008000;" x="421.548278" xlink:href="#me3c24d510e" y="375.616612"/>
     <use style="fill:#008000;stroke:#008000;" x="369.755801" xlink:href="#me3c24d510e" y="417.599179"/>
     <use style="fill:#008000;stroke:#008000;" x="401.01789" xlink:href="#me3c24d510e" y="392.25838"/>
     <use style="fill:#008000;stroke:#008000;" x="366.07087" xlink:href="#me3c24d510e" y="420.586153"/>
     <use style="fill:#008000;stroke:#008000;" x="447.429055" xlink:href="#me3c24d510e" y="354.637862"/>
     <use style="fill:#008000;stroke:#008000;" x="464.258004" xlink:href="#me3c24d510e" y="340.996452"/>
     <use style="fill:#008000;stroke:#008000;" x="451.820245" xlink:href="#me3c24d510e" y="351.078399"/>
     <use style="fill:#008000;stroke:#008000;" x="565.181795" xlink:href="#me3c24d510e" y="259.188438"/>
     <use style="fill:#008000;stroke:#008000;" x="423.998182" xlink:href="#me3c24d510e" y="373.63074"/>
     <use style="fill:#008000;stroke:#008000;" x="371.147674" xlink:href="#me3c24d510e" y="416.470937"/>
     <use style="fill:#008000;stroke:#008000;" x="421.769022" xlink:href="#me3c24d510e" y="375.437679"/>
     <use style="fill:#008000;stroke:#008000;" x="451.111603" xlink:href="#me3c24d510e" y="351.652819"/>
     <use style="fill:#008000;stroke:#008000;" x="364.668296" xlink:href="#me3c24d510e" y="421.723068"/>
     <use style="fill:#008000;stroke:#008000;" x="414.464576" xlink:href="#me3c24d510e" y="381.358604"/>
     <use style="fill:#008000;stroke:#008000;" x="403.210842" xlink:href="#me3c24d510e" y="390.48079"/>
     <use style="fill:#008000;stroke:#008000;" x="399.274614" xlink:href="#me3c24d510e" y="393.671466"/>
     <use style="fill:#008000;stroke:#008000;" x="460.81394" xlink:href="#me3c24d510e" y="343.788183"/>
     <use style="fill:#008000;stroke:#008000;" x="433.537817" xlink:href="#me3c24d510e" y="365.897989"/>
     <use style="fill:#008000;stroke:#008000;" x="469.101179" xlink:href="#me3c24d510e" y="337.070613"/>
     <use style="fill:#008000;stroke:#008000;" x="473.874211" xlink:href="#me3c24d510e" y="333.201632"/>
     <use style="fill:#008000;stroke:#008000;" x="400.889195" xlink:href="#me3c24d510e" y="392.362699"/>
     <use style="fill:#008000;stroke:#008000;" x="454.068197" xlink:href="#me3c24d510e" y="349.256227"/>
     <use style="fill:#008000;stroke:#008000;" x="528.423924" xlink:href="#me3c24d510e" y="288.984073"/>
     <use style="fill:#008000;stroke:#008000;" x="571.197158" xlink:href="#me3c24d510e" y="254.312433"/>
     <use style="fill:#008000;stroke:#008000;" x="508.552461" xlink:href="#me3c24d510e" y="305.091721"/>
     <use style="fill:#008000;stroke:#008000;" x="462.170373" xlink:href="#me3c24d510e" y="342.688668"/>
     <use style="fill:#008000;stroke:#008000;" x="492.794646" xlink:href="#me3c24d510e" y="317.864879"/>
     <use style="fill:#008000;stroke:#008000;" x="526.723731" xlink:href="#me3c24d510e" y="290.362235"/>
     <use style="fill:#008000;stroke:#008000;" x="462.684509" xlink:href="#me3c24d510e" y="342.271914"/>
     <use style="fill:#008000;stroke:#008000;" x="540.803693" xlink:href="#me3c24d510e" y="278.949131"/>
     <use style="fill:#008000;stroke:#008000;" x="513.674407" xlink:href="#me3c24d510e" y="300.939912"/>
     <use style="fill:#008000;stroke:#008000;" x="549.026199" xlink:href="#me3c24d510e" y="272.284034"/>
     <use style="fill:#008000;stroke:#008000;" x="523.116152" xlink:href="#me3c24d510e" y="293.28651"/>
    </g>
   </g>
   <g id="PathCollection_3">
    <defs>
     <path d="M 0 3 
C 0.795609 3 1.55874 2.683901 2.12132 2.12132 
C 2.683901 1.55874 3 0.795609 3 0 
C 3 -0.795609 2.683901 -1.55874 2.12132 -2.12132 
C 1.55874 -2.683901 0.795609 -3 0 -3 
C -0.795609 -3 -1.55874 -2.683901 -2.12132 -2.12132 
C -2.683901 -1.55874 -3 -0.795609 -3 0 
C -3 0.795609 -2.683901 1.55874 -2.12132 2.12132 
C -1.55874 2.683901 -0.795609 3 0 3 
z
" id="mf8672a157f" style="stroke:#ffff00;"/>
    </defs>
    <g clip-path="url(#p61a1f6f64b)">
     <use style="fill:#ffff00;stroke:#ffff00;" x="485.864649" xlink:href="#mf8672a157f" y="323.482279"/>
     <use style="fill:#ffff00;stroke:#ffff00;" x="425.721323" xlink:href="#mf8672a157f" y="372.233976"/>
     <use style="fill:#ffff00;stroke:#ffff00;" x="493.43269" xlink:href="#mf8672a157f" y="317.347686"/>
     <use style="fill:#ffff00;stroke:#ffff00;" x="400.038294" xlink:href="#mf8672a157f" y="393.052433"/>
     <use style="fill:#ffff00;stroke:#ffff00;" x="384.520649" xlink:href="#mf8672a157f" y="405.630911"/>
     <use style="fill:#ffff00;stroke:#ffff00;" x="505.586416" xlink:href="#mf8672a157f" y="307.495973"/>
     <use style="fill:#ffff00;stroke:#ffff00;" x="493.912635" xlink:href="#mf8672a157f" y="316.958646"/>
     <use style="fill:#ffff00;stroke:#ffff00;" x="367.40266" xlink:href="#mf8672a157f" y="419.506615"/>
     <use style="fill:#ffff00;stroke:#ffff00;" x="428.157901" xlink:href="#mf8672a157f" y="370.258905"/>
     <use style="fill:#ffff00;stroke:#ffff00;" x="537.69004" xlink:href="#mf8672a157f" y="281.473033"/>
     <use style="fill:#ffff00;stroke:#ffff00;" x="513.231617" xlink:href="#mf8672a157f" y="301.298835"/>
     <use style="fill:#ffff00;stroke:#ffff00;" x="594.743347" xlink:href="#mf8672a157f" y="235.226081"/>
     <use style="fill:#ffff00;stroke:#ffff00;" x="387.630621" xlink:href="#mf8672a157f" y="403.109992"/>
     <use style="fill:#ffff00;stroke:#ffff00;" x="420.590589" xlink:href="#mf8672a157f" y="376.392908"/>
     <use style="fill:#ffff00;stroke:#ffff00;" x="529.860234" xlink:href="#mf8672a157f" y="287.819811"/>
     <use style="fill:#ffff00;stroke:#ffff00;" x="525.627631" xlink:href="#mf8672a157f" y="291.250725"/>
     <use style="fill:#ffff00;stroke:#ffff00;" x="535.967885" xlink:href="#mf8672a157f" y="282.868998"/>
     <use style="fill:#ffff00;stroke:#ffff00;" x="522.271907" xlink:href="#mf8672a157f" y="293.970848"/>
     <use style="fill:#ffff00;stroke:#ffff00;" x="490.946389" xlink:href="#mf8672a157f" y="319.363061"/>
     <use style="fill:#ffff00;stroke:#ffff00;" x="426.601581" xlink:href="#mf8672a157f" y="371.520445"/>
     <use style="fill:#ffff00;stroke:#ffff00;" x="460.536736" xlink:href="#mf8672a157f" y="344.012881"/>
     <use style="fill:#ffff00;stroke:#ffff00;" x="501.142513" xlink:href="#mf8672a157f" y="311.098165"/>
     <use style="fill:#ffff00;stroke:#ffff00;" x="452.564211" xlink:href="#mf8672a157f" y="350.475346"/>
     <use style="fill:#ffff00;stroke:#ffff00;" x="457.474706" xlink:href="#mf8672a157f" y="346.494938"/>
     <use style="fill:#ffff00;stroke:#ffff00;" x="546.816376" xlink:href="#mf8672a157f" y="274.075299"/>
     <use style="fill:#ffff00;stroke:#ffff00;" x="392.961181" xlink:href="#mf8672a157f" y="398.789083"/>
     <use style="fill:#ffff00;stroke:#ffff00;" x="508.004445" xlink:href="#mf8672a157f" y="305.535938"/>
     <use style="fill:#ffff00;stroke:#ffff00;" x="410.33583" xlink:href="#mf8672a157f" y="384.705333"/>
     <use style="fill:#ffff00;stroke:#ffff00;" x="540.843562" xlink:href="#mf8672a157f" y="278.916813"/>
     <use style="fill:#ffff00;stroke:#ffff00;" x="522.804756" xlink:href="#mf8672a157f" y="293.538925"/>
     <use style="fill:#ffff00;stroke:#ffff00;" x="589.42307" xlink:href="#mf8672a157f" y="239.538655"/>
     <use style="fill:#ffff00;stroke:#ffff00;" x="537.482851" xlink:href="#mf8672a157f" y="281.640979"/>
     <use style="fill:#ffff00;stroke:#ffff00;" x="535.921452" xlink:href="#mf8672a157f" y="282.906636"/>
     <use style="fill:#ffff00;stroke:#ffff00;" x="567.182714" xlink:href="#mf8672a157f" y="257.566508"/>
     <use style="fill:#ffff00;stroke:#ffff00;" x="551.388054" xlink:href="#mf8672a157f" y="270.369533"/>
     <use style="fill:#ffff00;stroke:#ffff00;" x="460.251758" xlink:href="#mf8672a157f" y="344.243883"/>
     <use style="fill:#ffff00;stroke:#ffff00;" x="512.112027" xlink:href="#mf8672a157f" y="302.206365"/>
     <use style="fill:#ffff00;stroke:#ffff00;" x="535.019682" xlink:href="#mf8672a157f" y="283.637604"/>
     <use style="fill:#ffff00;stroke:#ffff00;" x="567.490394" xlink:href="#mf8672a157f" y="257.317106"/>
     <use style="fill:#ffff00;stroke:#ffff00;" x="471.917977" xlink:href="#mf8672a157f" y="334.787339"/>
     <use style="fill:#ffff00;stroke:#ffff00;" x="538.953699" xlink:href="#mf8672a157f" y="280.448722"/>
     <use style="fill:#ffff00;stroke:#ffff00;" x="595.199433" xlink:href="#mf8672a157f" y="234.856382"/>
     <use style="fill:#ffff00;stroke:#ffff00;" x="594.321426" xlink:href="#mf8672a157f" y="235.568087"/>
     <use style="fill:#ffff00;stroke:#ffff00;" x="557.887103" xlink:href="#mf8672a157f" y="265.101456"/>
     <use style="fill:#ffff00;stroke:#ffff00;" x="538.361874" xlink:href="#mf8672a157f" y="280.92845"/>
     <use style="fill:#ffff00;stroke:#ffff00;" x="514.809433" xlink:href="#mf8672a157f" y="300.019869"/>
     <use style="fill:#ffff00;stroke:#ffff00;" x="528.505766" xlink:href="#mf8672a157f" y="288.917732"/>
     <use style="fill:#ffff00;stroke:#ffff00;" x="500.743148" xlink:href="#mf8672a157f" y="311.421887"/>
     <use style="fill:#ffff00;stroke:#ffff00;" x="589.34933" xlink:href="#mf8672a157f" y="239.598428"/>
     <use style="fill:#ffff00;stroke:#ffff00;" x="421.694107" xlink:href="#mf8672a157f" y="375.498405"/>
     <use style="fill:#ffff00;stroke:#ffff00;" x="492.46493" xlink:href="#mf8672a157f" y="318.132144"/>
     <use style="fill:#ffff00;stroke:#ffff00;" x="551.01957" xlink:href="#mf8672a157f" y="270.668223"/>
     <use style="fill:#ffff00;stroke:#ffff00;" x="518.20257" xlink:href="#mf8672a157f" y="297.26942"/>
     <use style="fill:#ffff00;stroke:#ffff00;" x="496.348945" xlink:href="#mf8672a157f" y="314.983793"/>
     <use style="fill:#ffff00;stroke:#ffff00;" x="575.925044" xlink:href="#mf8672a157f" y="250.480046"/>
     <use style="fill:#ffff00;stroke:#ffff00;" x="546.024832" xlink:href="#mf8672a157f" y="274.716918"/>
     <use style="fill:#ffff00;stroke:#ffff00;" x="457.917203" xlink:href="#mf8672a157f" y="346.136254"/>
     <use style="fill:#ffff00;stroke:#ffff00;" x="501.809701" xlink:href="#mf8672a157f" y="310.557348"/>
     <use style="fill:#ffff00;stroke:#ffff00;" x="543.487386" xlink:href="#mf8672a157f" y="276.773751"/>
     <use style="fill:#ffff00;stroke:#ffff00;" x="529.49665" xlink:href="#mf8672a157f" y="288.11453"/>
    </g>
   </g>
   <g id="PathCollection_4">
    <defs>
     <path d="M 0 3 
C 0.795609 3 1.55874 2.683901 2.12132 2.12132 
C 2.683901 1.55874 3 0.795609 3 0 
C 3 -0.795609 2.683901 -1.55874 2.12132 -2.12132 
C 1.55874 -2.683901 0.795609 -3 0 -3 
C -0.795609 -3 -1.55874 -2.683901 -2.12132 -2.12132 
C -2.683901 -1.55874 -3 -0.795609 -3 0 
C -3 0.795609 -2.683901 1.55874 -2.12132 2.12132 
C -1.55874 2.683901 -0.795609 3 0 3 
z
" id="ma37f68cf61" style="stroke:#ffa500;"/>
    </defs>
    <g clip-path="url(#p61a1f6f64b)">
     <use style="fill:#ffa500;stroke:#ffa500;" x="600.457075" xlink:href="#ma37f68cf61" y="230.594579"/>
     <use style="fill:#ffa500;stroke:#ffa500;" x="605.624457" xlink:href="#ma37f68cf61" y="226.405941"/>
     <use style="fill:#ffa500;stroke:#ffa500;" x="621.916717" xlink:href="#ma37f68cf61" y="213.199565"/>
     <use style="fill:#ffa500;stroke:#ffa500;" x="520.091245" xlink:href="#ma37f68cf61" y="295.738475"/>
     <use style="fill:#ffa500;stroke:#ffa500;" x="511.79358" xlink:href="#ma37f68cf61" y="302.464495"/>
     <use style="fill:#ffa500;stroke:#ffa500;" x="561.63515" xlink:href="#ma37f68cf61" y="262.06332"/>
     <use style="fill:#ffa500;stroke:#ffa500;" x="576.527538" xlink:href="#ma37f68cf61" y="249.99167"/>
     <use style="fill:#ffa500;stroke:#ffa500;" x="532.563401" xlink:href="#ma37f68cf61" y="285.628645"/>
     <use style="fill:#ffa500;stroke:#ffa500;" x="629.377691" xlink:href="#ma37f68cf61" y="207.15176"/>
     <use style="fill:#ffa500;stroke:#ffa500;" x="591.129398" xlink:href="#ma37f68cf61" y="238.155519"/>
     <use style="fill:#ffa500;stroke:#ffa500;" x="604.598491" xlink:href="#ma37f68cf61" y="227.23758"/>
     <use style="fill:#ffa500;stroke:#ffa500;" x="520.374281" xlink:href="#ma37f68cf61" y="295.509048"/>
     <use style="fill:#ffa500;stroke:#ffa500;" x="613.967759" xlink:href="#ma37f68cf61" y="219.642927"/>
     <use style="fill:#ffa500;stroke:#ffa500;" x="598.284605" xlink:href="#ma37f68cf61" y="232.355566"/>
     <use style="fill:#ffa500;stroke:#ffa500;" x="561.45896" xlink:href="#ma37f68cf61" y="262.206138"/>
     <use style="fill:#ffa500;stroke:#ffa500;" x="659.954194" xlink:href="#ma37f68cf61" y="182.366692"/>
     <use style="fill:#ffa500;stroke:#ffa500;" x="700.307919" xlink:href="#ma37f68cf61" y="149.656287"/>
     <use style="fill:#ffa500;stroke:#ffa500;" x="648.377524" xlink:href="#ma37f68cf61" y="191.750648"/>
     <use style="fill:#ffa500;stroke:#ffa500;" x="693.725542" xlink:href="#ma37f68cf61" y="154.991909"/>
     <use style="fill:#ffa500;stroke:#ffa500;" x="670.233255" xlink:href="#ma37f68cf61" y="174.034568"/>
     <use style="fill:#ffa500;stroke:#ffa500;" x="603.607663" xlink:href="#ma37f68cf61" y="228.040738"/>
     <use style="fill:#ffa500;stroke:#ffa500;" x="627.013992" xlink:href="#ma37f68cf61" y="209.067756"/>
     <use style="fill:#ffa500;stroke:#ffa500;" x="665.237894" xlink:href="#ma37f68cf61" y="178.083768"/>
     <use style="fill:#ffa500;stroke:#ffa500;" x="543.027833" xlink:href="#ma37f68cf61" y="277.146261"/>
     <use style="fill:#ffa500;stroke:#ffa500;" x="514.665535" xlink:href="#ma37f68cf61" y="300.136512"/>
     <use style="fill:#ffa500;stroke:#ffa500;" x="508.051479" xlink:href="#ma37f68cf61" y="305.497812"/>
     <use style="fill:#ffa500;stroke:#ffa500;" x="556.845241" xlink:href="#ma37f68cf61" y="265.945981"/>
     <use style="fill:#ffa500;stroke:#ffa500;" x="743.628616" xlink:href="#ma37f68cf61" y="114.540878"/>
     <use style="fill:#ffa500;stroke:#ffa500;" x="737.823716" xlink:href="#ma37f68cf61" y="119.246284"/>
     <use style="fill:#ffa500;stroke:#ffa500;" x="701.330895" xlink:href="#ma37f68cf61" y="148.827071"/>
     <use style="fill:#ffa500;stroke:#ffa500;" x="706.905305" xlink:href="#ma37f68cf61" y="144.308499"/>
     <use style="fill:#ffa500;stroke:#ffa500;" x="594.990656" xlink:href="#ma37f68cf61" y="235.025615"/>
     <use style="fill:#ffa500;stroke:#ffa500;" x="630.97169" xlink:href="#ma37f68cf61" y="205.859677"/>
     <use style="fill:#ffa500;stroke:#ffa500;" x="577.068661" xlink:href="#ma37f68cf61" y="249.553039"/>
     <use style="fill:#ffa500;stroke:#ffa500;" x="627.592829" xlink:href="#ma37f68cf61" y="208.598555"/>
     <use style="fill:#ffa500;stroke:#ffa500;" x="659.844167" xlink:href="#ma37f68cf61" y="182.455879"/>
     <use style="fill:#ffa500;stroke:#ffa500;" x="610.015881" xlink:href="#ma37f68cf61" y="222.846288"/>
     <use style="fill:#ffa500;stroke:#ffa500;" x="638.161695" xlink:href="#ma37f68cf61" y="200.031517"/>
     <use style="fill:#ffa500;stroke:#ffa500;" x="587.917902" xlink:href="#ma37f68cf61" y="240.758732"/>
     <use style="fill:#ffa500;stroke:#ffa500;" x="526.348578" xlink:href="#ma37f68cf61" y="290.666331"/>
     <use style="fill:#ffa500;stroke:#ffa500;" x="572.580335" xlink:href="#ma37f68cf61" y="253.19124"/>
     <use style="fill:#ffa500;stroke:#ffa500;" x="656.793399" xlink:href="#ma37f68cf61" y="184.928807"/>
     <use style="fill:#ffa500;stroke:#ffa500;" x="618.053962" xlink:href="#ma37f68cf61" y="216.330684"/>
     <use style="fill:#ffa500;stroke:#ffa500;" x="605.219543" xlink:href="#ma37f68cf61" y="226.734161"/>
     <use style="fill:#ffa500;stroke:#ffa500;" x="506.00899" xlink:href="#ma37f68cf61" y="307.153438"/>
     <use style="fill:#ffa500;stroke:#ffa500;" x="655.500267" xlink:href="#ma37f68cf61" y="185.97701"/>
     <use style="fill:#ffa500;stroke:#ffa500;" x="555.837016" xlink:href="#ma37f68cf61" y="266.76324"/>
     <use style="fill:#ffa500;stroke:#ffa500;" x="685.017135" xlink:href="#ma37f68cf61" y="162.050873"/>
     <use style="fill:#ffa500;stroke:#ffa500;" x="713.175144" xlink:href="#ma37f68cf61" y="139.226218"/>
     <use style="fill:#ffa500;stroke:#ffa500;" x="676.707601" xlink:href="#ma37f68cf61" y="168.786515"/>
     <use style="fill:#ffa500;stroke:#ffa500;" x="612.874196" xlink:href="#ma37f68cf61" y="220.529361"/>
     <use style="fill:#ffa500;stroke:#ffa500;" x="622.128709" xlink:href="#ma37f68cf61" y="213.027727"/>
     <use style="fill:#ffa500;stroke:#ffa500;" x="605.585799" xlink:href="#ma37f68cf61" y="226.437276"/>
     <use style="fill:#ffa500;stroke:#ffa500;" x="678.600022" xlink:href="#ma37f68cf61" y="167.252534"/>
     <use style="fill:#ffa500;stroke:#ffa500;" x="636.999534" xlink:href="#ma37f68cf61" y="200.973555"/>
     <use style="fill:#ffa500;stroke:#ffa500;" x="624.708414" xlink:href="#ma37f68cf61" y="210.936638"/>
     <use style="fill:#ffa500;stroke:#ffa500;" x="570.339752" xlink:href="#ma37f68cf61" y="255.007439"/>
     <use style="fill:#ffa500;stroke:#ffa500;" x="584.919832" xlink:href="#ma37f68cf61" y="243.188944"/>
     <use style="fill:#ffa500;stroke:#ffa500;" x="569.487168" xlink:href="#ma37f68cf61" y="255.698536"/>
     <use style="fill:#ffa500;stroke:#ffa500;" x="536.93649" xlink:href="#ma37f68cf61" y="282.083855"/>
    </g>
   </g>
   <g id="PathCollection_5">
    <defs>
     <path d="M 0 3 
C 0.795609 3 1.55874 2.683901 2.12132 2.12132 
C 2.683901 1.55874 3 0.795609 3 0 
C 3 -0.795609 2.683901 -1.55874 2.12132 -2.12132 
C 1.55874 -2.683901 0.795609 -3 0 -3 
C -0.795609 -3 -1.55874 -2.683901 -2.12132 -2.12132 
C -2.683901 -1.55874 -3 -0.795609 -3 0 
C -3 0.795609 -2.683901 1.55874 -2.12132 2.12132 
C -1.55874 2.683901 -0.795609 3 0 3 
z
" id="mab94ab76bb" style="stroke:#ff0000;"/>
    </defs>
    <g clip-path="url(#p61a1f6f64b)">
     <use style="fill:#ff0000;stroke:#ff0000;" x="564.158148" xlink:href="#mab94ab76bb" y="260.018198"/>
     <use style="fill:#ff0000;stroke:#ff0000;" x="619.493101" xlink:href="#mab94ab76bb" y="215.164129"/>
     <use style="fill:#ff0000;stroke:#ff0000;" x="629.067121" xlink:href="#mab94ab76bb" y="207.403505"/>
     <use style="fill:#ff0000;stroke:#ff0000;" x="650.325147" xlink:href="#mab94ab76bb" y="190.171921"/>
     <use style="fill:#ff0000;stroke:#ff0000;" x="555.783599" xlink:href="#mab94ab76bb" y="266.806539"/>
     <use style="fill:#ff0000;stroke:#ff0000;" x="609.82562" xlink:href="#mab94ab76bb" y="223.000512"/>
     <use style="fill:#ff0000;stroke:#ff0000;" x="571.662895" xlink:href="#mab94ab76bb" y="253.93491"/>
     <use style="fill:#ff0000;stroke:#ff0000;" x="570.20209" xlink:href="#mab94ab76bb" y="255.119026"/>
     <use style="fill:#ff0000;stroke:#ff0000;" x="532.637339" xlink:href="#mab94ab76bb" y="285.568712"/>
     <use style="fill:#ff0000;stroke:#ff0000;" x="639.8815" xlink:href="#mab94ab76bb" y="198.637457"/>
     <use style="fill:#ff0000;stroke:#ff0000;" x="591.487092" xlink:href="#mab94ab76bb" y="237.865575"/>
     <use style="fill:#ff0000;stroke:#ff0000;" x="683.365837" xlink:href="#mab94ab76bb" y="163.389403"/>
     <use style="fill:#ff0000;stroke:#ff0000;" x="625.382361" xlink:href="#mab94ab76bb" y="210.390342"/>
     <use style="fill:#ff0000;stroke:#ff0000;" x="533.681022" xlink:href="#mab94ab76bb" y="284.722711"/>
     <use style="fill:#ff0000;stroke:#ff0000;" x="629.198762" xlink:href="#mab94ab76bb" y="207.296798"/>
     <use style="fill:#ff0000;stroke:#ff0000;" x="686.557669" xlink:href="#mab94ab76bb" y="160.802129"/>
     <use style="fill:#ff0000;stroke:#ff0000;" x="628.14433" xlink:href="#mab94ab76bb" y="208.151513"/>
     <use style="fill:#ff0000;stroke:#ff0000;" x="596.321166" xlink:href="#mab94ab76bb" y="233.947114"/>
     <use style="fill:#ff0000;stroke:#ff0000;" x="608.259187" xlink:href="#mab94ab76bb" y="224.27025"/>
     <use style="fill:#ff0000;stroke:#ff0000;" x="645.642136" xlink:href="#mab94ab76bb" y="193.967932"/>
     <use style="fill:#ff0000;stroke:#ff0000;" x="566.940867" xlink:href="#mab94ab76bb" y="257.762548"/>
     <use style="fill:#ff0000;stroke:#ff0000;" x="744.169624" xlink:href="#mab94ab76bb" y="114.102341"/>
     <use style="fill:#ff0000;stroke:#ff0000;" x="626.695035" xlink:href="#mab94ab76bb" y="209.326299"/>
     <use style="fill:#ff0000;stroke:#ff0000;" x="631.694665" xlink:href="#mab94ab76bb" y="205.27364"/>
     <use style="fill:#ff0000;stroke:#ff0000;" x="701.522237" xlink:href="#mab94ab76bb" y="148.671971"/>
     <use style="fill:#ff0000;stroke:#ff0000;" x="607.677399" xlink:href="#mab94ab76bb" y="224.741842"/>
     <use style="fill:#ff0000;stroke:#ff0000;" x="651.430622" xlink:href="#mab94ab76bb" y="189.275831"/>
     <use style="fill:#ff0000;stroke:#ff0000;" x="582.399545" xlink:href="#mab94ab76bb" y="245.231867"/>
     <use style="fill:#ff0000;stroke:#ff0000;" x="520.56159" xlink:href="#mab94ab76bb" y="295.357217"/>
     <use style="fill:#ff0000;stroke:#ff0000;" x="636.68856" xlink:href="#mab94ab76bb" y="201.225628"/>
     <use style="fill:#ff0000;stroke:#ff0000;" x="660.279618" xlink:href="#mab94ab76bb" y="182.102906"/>
     <use style="fill:#ff0000;stroke:#ff0000;" x="686.810534" xlink:href="#mab94ab76bb" y="160.597159"/>
     <use style="fill:#ff0000;stroke:#ff0000;" x="686.437841" xlink:href="#mab94ab76bb" y="160.899261"/>
     <use style="fill:#ff0000;stroke:#ff0000;" x="625.741534" xlink:href="#mab94ab76bb" y="210.0992"/>
     <use style="fill:#ff0000;stroke:#ff0000;" x="572.397359" xlink:href="#mab94ab76bb" y="253.33956"/>
     <use style="fill:#ff0000;stroke:#ff0000;" x="674.651419" xlink:href="#mab94ab76bb" y="170.45324"/>
     <use style="fill:#ff0000;stroke:#ff0000;" x="629.179379" xlink:href="#mab94ab76bb" y="207.31251"/>
     <use style="fill:#ff0000;stroke:#ff0000;" x="717.817908" xlink:href="#mab94ab76bb" y="135.462831"/>
     <use style="fill:#ff0000;stroke:#ff0000;" x="671.84555" xlink:href="#mab94ab76bb" y="172.727655"/>
     <use style="fill:#ff0000;stroke:#ff0000;" x="676.073523" xlink:href="#mab94ab76bb" y="169.300493"/>
     <use style="fill:#ff0000;stroke:#ff0000;" x="630.975133" xlink:href="#mab94ab76bb" y="205.856886"/>
     <use style="fill:#ff0000;stroke:#ff0000;" x="681.493444" xlink:href="#mab94ab76bb" y="164.907149"/>
     <use style="fill:#ff0000;stroke:#ff0000;" x="511.891914" xlink:href="#mab94ab76bb" y="302.384787"/>
     <use style="fill:#ff0000;stroke:#ff0000;" x="661.637157" xlink:href="#mab94ab76bb" y="181.002496"/>
     <use style="fill:#ff0000;stroke:#ff0000;" x="580.611948" xlink:href="#mab94ab76bb" y="246.68088"/>
     <use style="fill:#ff0000;stroke:#ff0000;" x="571.961741" xlink:href="#mab94ab76bb" y="253.692668"/>
     <use style="fill:#ff0000;stroke:#ff0000;" x="555.100855" xlink:href="#mab94ab76bb" y="267.359967"/>
     <use style="fill:#ff0000;stroke:#ff0000;" x="652.650877" xlink:href="#mab94ab76bb" y="188.286703"/>
     <use style="fill:#ff0000;stroke:#ff0000;" x="659.1626" xlink:href="#mab94ab76bb" y="183.008352"/>
     <use style="fill:#ff0000;stroke:#ff0000;" x="653.529894" xlink:href="#mab94ab76bb" y="187.574178"/>
     <use style="fill:#ff0000;stroke:#ff0000;" x="694.010604" xlink:href="#mab94ab76bb" y="154.76084"/>
     <use style="fill:#ff0000;stroke:#ff0000;" x="615.879721" xlink:href="#mab94ab76bb" y="218.093106"/>
     <use style="fill:#ff0000;stroke:#ff0000;" x="607.915166" xlink:href="#mab94ab76bb" y="224.549111"/>
     <use style="fill:#ff0000;stroke:#ff0000;" x="696.910683" xlink:href="#mab94ab76bb" y="152.410059"/>
     <use style="fill:#ff0000;stroke:#ff0000;" x="567.680378" xlink:href="#mab94ab76bb" y="257.163106"/>
     <use style="fill:#ff0000;stroke:#ff0000;" x="666.973805" xlink:href="#mab94ab76bb" y="176.676652"/>
     <use style="fill:#ff0000;stroke:#ff0000;" x="642.690858" xlink:href="#mab94ab76bb" y="196.360213"/>
     <use style="fill:#ff0000;stroke:#ff0000;" x="653.585394" xlink:href="#mab94ab76bb" y="187.529191"/>
     <use style="fill:#ff0000;stroke:#ff0000;" x="713.46023" xlink:href="#mab94ab76bb" y="138.99513"/>
     <use style="fill:#ff0000;stroke:#ff0000;" x="531.940371" xlink:href="#mab94ab76bb" y="286.133669"/>
    </g>
   </g>
   <g id="matplotlib.axis_1">
    <g id="xtick_1">
     <g id="line2d_1">
      <defs>
       <path d="M 0 0 
L 0 3.5 
" id="m949ba51524" style="stroke:#000000;stroke-width:0.8;"/>
      </defs>
      <g>
       <use style="stroke:#000000;stroke-width:0.8;" x="131.544535" xlink:href="#m949ba51524" y="630"/>
      </g>
     </g>
     <g id="text_1">
      <!-- −16.5 -->
      <defs>
       <path d="M 10.59375 35.5 
L 73.1875 35.5 
L 73.1875 27.203125 
L 10.59375 27.203125 
z
" id="DejaVuSans-8722"/>
       <path d="M 12.40625 8.296875 
L 28.515625 8.296875 
L 28.515625 63.921875 
L 10.984375 60.40625 
L 10.984375 69.390625 
L 28.421875 72.90625 
L 38.28125 72.90625 
L 38.28125 8.296875 
L 54.390625 8.296875 
L 54.390625 0 
L 12.40625 0 
z
" id="DejaVuSans-49"/>
       <path d="M 33.015625 40.375 
Q 26.375 40.375 22.484375 35.828125 
Q 18.609375 31.296875 18.609375 23.390625 
Q 18.609375 15.53125 22.484375 10.953125 
Q 26.375 6.390625 33.015625 6.390625 
Q 39.65625 6.390625 43.53125 10.953125 
Q 47.40625 15.53125 47.40625 23.390625 
Q 47.40625 31.296875 43.53125 35.828125 
Q 39.65625 40.375 33.015625 40.375 
z
M 52.59375 71.296875 
L 52.59375 62.3125 
Q 48.875 64.0625 45.09375 64.984375 
Q 41.3125 65.921875 37.59375 65.921875 
Q 27.828125 65.921875 22.671875 59.328125 
Q 17.53125 52.734375 16.796875 39.40625 
Q 19.671875 43.65625 24.015625 45.921875 
Q 28.375 48.1875 33.59375 48.1875 
Q 44.578125 48.1875 50.953125 41.515625 
Q 57.328125 34.859375 57.328125 23.390625 
Q 57.328125 12.15625 50.6875 5.359375 
Q 44.046875 -1.421875 33.015625 -1.421875 
Q 20.359375 -1.421875 13.671875 8.265625 
Q 6.984375 17.96875 6.984375 36.375 
Q 6.984375 53.65625 15.1875 63.9375 
Q 23.390625 74.21875 37.203125 74.21875 
Q 40.921875 74.21875 44.703125 73.484375 
Q 48.484375 72.75 52.59375 71.296875 
z
" id="DejaVuSans-54"/>
       <path d="M 10.6875 12.40625 
L 21 12.40625 
L 21 0 
L 10.6875 0 
z
" id="DejaVuSans-46"/>
       <path d="M 10.796875 72.90625 
L 49.515625 72.90625 
L 49.515625 64.59375 
L 19.828125 64.59375 
L 19.828125 46.734375 
Q 21.96875 47.46875 24.109375 47.828125 
Q 26.265625 48.1875 28.421875 48.1875 
Q 40.625 48.1875 47.75 41.5 
Q 54.890625 34.8125 54.890625 23.390625 
Q 54.890625 11.625 47.5625 5.09375 
Q 40.234375 -1.421875 26.90625 -1.421875 
Q 22.3125 -1.421875 17.546875 -0.640625 
Q 12.796875 0.140625 7.71875 1.703125 
L 7.71875 11.625 
Q 12.109375 9.234375 16.796875 8.0625 
Q 21.484375 6.890625 26.703125 6.890625 
Q 35.15625 6.890625 40.078125 11.328125 
Q 45.015625 15.765625 45.015625 23.390625 
Q 45.015625 31 40.078125 35.4375 
Q 35.15625 39.890625 26.703125 39.890625 
Q 22.75 39.890625 18.8125 39.015625 
Q 14.890625 38.140625 10.796875 36.28125 
z
" id="DejaVuSans-53"/>
      </defs>
      <g transform="translate(116.221878 644.598438)scale(0.1 -0.1)">
       <use xlink:href="#DejaVuSans-8722"/>
       <use x="83.789062" xlink:href="#DejaVuSans-49"/>
       <use x="147.412109" xlink:href="#DejaVuSans-54"/>
       <use x="211.035156" xlink:href="#DejaVuSans-46"/>
       <use x="242.822266" xlink:href="#DejaVuSans-53"/>
      </g>
     </g>
    </g>
    <g id="xtick_2">
     <g id="line2d_2">
      <g>
       <use style="stroke:#000000;stroke-width:0.8;" x="242.05624" xlink:href="#m949ba51524" y="630"/>
      </g>
     </g>
     <g id="text_2">
      <!-- −16.0 -->
      <defs>
       <path d="M 31.78125 66.40625 
Q 24.171875 66.40625 20.328125 58.90625 
Q 16.5 51.421875 16.5 36.375 
Q 16.5 21.390625 20.328125 13.890625 
Q 24.171875 6.390625 31.78125 6.390625 
Q 39.453125 6.390625 43.28125 13.890625 
Q 47.125 21.390625 47.125 36.375 
Q 47.125 51.421875 43.28125 58.90625 
Q 39.453125 66.40625 31.78125 66.40625 
z
M 31.78125 74.21875 
Q 44.046875 74.21875 50.515625 64.515625 
Q 56.984375 54.828125 56.984375 36.375 
Q 56.984375 17.96875 50.515625 8.265625 
Q 44.046875 -1.421875 31.78125 -1.421875 
Q 19.53125 -1.421875 13.0625 8.265625 
Q 6.59375 17.96875 6.59375 36.375 
Q 6.59375 54.828125 13.0625 64.515625 
Q 19.53125 74.21875 31.78125 74.21875 
z
" id="DejaVuSans-48"/>
      </defs>
      <g transform="translate(226.733584 644.598438)scale(0.1 -0.1)">
       <use xlink:href="#DejaVuSans-8722"/>
       <use x="83.789062" xlink:href="#DejaVuSans-49"/>
       <use x="147.412109" xlink:href="#DejaVuSans-54"/>
       <use x="211.035156" xlink:href="#DejaVuSans-46"/>
       <use x="242.822266" xlink:href="#DejaVuSans-48"/>
      </g>
     </g>
    </g>
    <g id="xtick_3">
     <g id="line2d_3">
      <g>
       <use style="stroke:#000000;stroke-width:0.8;" x="352.567946" xlink:href="#m949ba51524" y="630"/>
      </g>
     </g>
     <g id="text_3">
      <!-- −15.5 -->
      <g transform="translate(337.24529 644.598438)scale(0.1 -0.1)">
       <use xlink:href="#DejaVuSans-8722"/>
       <use x="83.789062" xlink:href="#DejaVuSans-49"/>
       <use x="147.412109" xlink:href="#DejaVuSans-53"/>
       <use x="211.035156" xlink:href="#DejaVuSans-46"/>
       <use x="242.822266" xlink:href="#DejaVuSans-53"/>
      </g>
     </g>
    </g>
    <g id="xtick_4">
     <g id="line2d_4">
      <g>
       <use style="stroke:#000000;stroke-width:0.8;" x="463.079652" xlink:href="#m949ba51524" y="630"/>
      </g>
     </g>
     <g id="text_4">
      <!-- −15.0 -->
      <g transform="translate(447.756995 644.598438)scale(0.1 -0.1)">
       <use xlink:href="#DejaVuSans-8722"/>
       <use x="83.789062" xlink:href="#DejaVuSans-49"/>
       <use x="147.412109" xlink:href="#DejaVuSans-53"/>
       <use x="211.035156" xlink:href="#DejaVuSans-46"/>
       <use x="242.822266" xlink:href="#DejaVuSans-48"/>
      </g>
     </g>
    </g>
    <g id="xtick_5">
     <g id="line2d_5">
      <g>
       <use style="stroke:#000000;stroke-width:0.8;" x="573.591357" xlink:href="#m949ba51524" y="630"/>
      </g>
     </g>
     <g id="text_5">
      <!-- −14.5 -->
      <defs>
       <path d="M 37.796875 64.3125 
L 12.890625 25.390625 
L 37.796875 25.390625 
z
M 35.203125 72.90625 
L 47.609375 72.90625 
L 47.609375 25.390625 
L 58.015625 25.390625 
L 58.015625 17.1875 
L 47.609375 17.1875 
L 47.609375 0 
L 37.796875 0 
L 37.796875 17.1875 
L 4.890625 17.1875 
L 4.890625 26.703125 
z
" id="DejaVuSans-52"/>
      </defs>
      <g transform="translate(558.268701 644.598438)scale(0.1 -0.1)">
       <use xlink:href="#DejaVuSans-8722"/>
       <use x="83.789062" xlink:href="#DejaVuSans-49"/>
       <use x="147.412109" xlink:href="#DejaVuSans-52"/>
       <use x="211.035156" xlink:href="#DejaVuSans-46"/>
       <use x="242.822266" xlink:href="#DejaVuSans-53"/>
      </g>
     </g>
    </g>
    <g id="xtick_6">
     <g id="line2d_6">
      <g>
       <use style="stroke:#000000;stroke-width:0.8;" x="684.103063" xlink:href="#m949ba51524" y="630"/>
      </g>
     </g>
     <g id="text_6">
      <!-- −14.0 -->
      <g transform="translate(668.780407 644.598438)scale(0.1 -0.1)">
       <use xlink:href="#DejaVuSans-8722"/>
       <use x="83.789062" xlink:href="#DejaVuSans-49"/>
       <use x="147.412109" xlink:href="#DejaVuSans-52"/>
       <use x="211.035156" xlink:href="#DejaVuSans-46"/>
       <use x="242.822266" xlink:href="#DejaVuSans-48"/>
      </g>
     </g>
    </g>
    <g id="text_7">
     <!-- I(dense1;output) -->
     <defs>
      <path d="M 9.8125 72.90625 
L 19.671875 72.90625 
L 19.671875 0 
L 9.8125 0 
z
" id="DejaVuSans-73"/>
      <path d="M 31 75.875 
Q 24.46875 64.65625 21.28125 53.65625 
Q 18.109375 42.671875 18.109375 31.390625 
Q 18.109375 20.125 21.3125 9.0625 
Q 24.515625 -2 31 -13.1875 
L 23.1875 -13.1875 
Q 15.875 -1.703125 12.234375 9.375 
Q 8.59375 20.453125 8.59375 31.390625 
Q 8.59375 42.28125 12.203125 53.3125 
Q 15.828125 64.359375 23.1875 75.875 
z
" id="DejaVuSans-40"/>
      <path d="M 45.40625 46.390625 
L 45.40625 75.984375 
L 54.390625 75.984375 
L 54.390625 0 
L 45.40625 0 
L 45.40625 8.203125 
Q 42.578125 3.328125 38.25 0.953125 
Q 33.9375 -1.421875 27.875 -1.421875 
Q 17.96875 -1.421875 11.734375 6.484375 
Q 5.515625 14.40625 5.515625 27.296875 
Q 5.515625 40.1875 11.734375 48.09375 
Q 17.96875 56 27.875 56 
Q 33.9375 56 38.25 53.625 
Q 42.578125 51.265625 45.40625 46.390625 
z
M 14.796875 27.296875 
Q 14.796875 17.390625 18.875 11.75 
Q 22.953125 6.109375 30.078125 6.109375 
Q 37.203125 6.109375 41.296875 11.75 
Q 45.40625 17.390625 45.40625 27.296875 
Q 45.40625 37.203125 41.296875 42.84375 
Q 37.203125 48.484375 30.078125 48.484375 
Q 22.953125 48.484375 18.875 42.84375 
Q 14.796875 37.203125 14.796875 27.296875 
z
" id="DejaVuSans-100"/>
      <path d="M 56.203125 29.59375 
L 56.203125 25.203125 
L 14.890625 25.203125 
Q 15.484375 15.921875 20.484375 11.0625 
Q 25.484375 6.203125 34.421875 6.203125 
Q 39.59375 6.203125 44.453125 7.46875 
Q 49.3125 8.734375 54.109375 11.28125 
L 54.109375 2.78125 
Q 49.265625 0.734375 44.1875 -0.34375 
Q 39.109375 -1.421875 33.890625 -1.421875 
Q 20.796875 -1.421875 13.15625 6.1875 
Q 5.515625 13.8125 5.515625 26.8125 
Q 5.515625 40.234375 12.765625 48.109375 
Q 20.015625 56 32.328125 56 
Q 43.359375 56 49.78125 48.890625 
Q 56.203125 41.796875 56.203125 29.59375 
z
M 47.21875 32.234375 
Q 47.125 39.59375 43.09375 43.984375 
Q 39.0625 48.390625 32.421875 48.390625 
Q 24.90625 48.390625 20.390625 44.140625 
Q 15.875 39.890625 15.1875 32.171875 
z
" id="DejaVuSans-101"/>
      <path d="M 54.890625 33.015625 
L 54.890625 0 
L 45.90625 0 
L 45.90625 32.71875 
Q 45.90625 40.484375 42.875 44.328125 
Q 39.84375 48.1875 33.796875 48.1875 
Q 26.515625 48.1875 22.3125 43.546875 
Q 18.109375 38.921875 18.109375 30.90625 
L 18.109375 0 
L 9.078125 0 
L 9.078125 54.6875 
L 18.109375 54.6875 
L 18.109375 46.1875 
Q 21.34375 51.125 25.703125 53.5625 
Q 30.078125 56 35.796875 56 
Q 45.21875 56 50.046875 50.171875 
Q 54.890625 44.34375 54.890625 33.015625 
z
" id="DejaVuSans-110"/>
      <path d="M 44.28125 53.078125 
L 44.28125 44.578125 
Q 40.484375 46.53125 36.375 47.5 
Q 32.28125 48.484375 27.875 48.484375 
Q 21.1875 48.484375 17.84375 46.4375 
Q 14.5 44.390625 14.5 40.28125 
Q 14.5 37.15625 16.890625 35.375 
Q 19.28125 33.59375 26.515625 31.984375 
L 29.59375 31.296875 
Q 39.15625 29.25 43.1875 25.515625 
Q 47.21875 21.78125 47.21875 15.09375 
Q 47.21875 7.46875 41.1875 3.015625 
Q 35.15625 -1.421875 24.609375 -1.421875 
Q 20.21875 -1.421875 15.453125 -0.5625 
Q 10.6875 0.296875 5.421875 2 
L 5.421875 11.28125 
Q 10.40625 8.6875 15.234375 7.390625 
Q 20.0625 6.109375 24.8125 6.109375 
Q 31.15625 6.109375 34.5625 8.28125 
Q 37.984375 10.453125 37.984375 14.40625 
Q 37.984375 18.0625 35.515625 20.015625 
Q 33.0625 21.96875 24.703125 23.78125 
L 21.578125 24.515625 
Q 13.234375 26.265625 9.515625 29.90625 
Q 5.8125 33.546875 5.8125 39.890625 
Q 5.8125 47.609375 11.28125 51.796875 
Q 16.75 56 26.8125 56 
Q 31.78125 56 36.171875 55.265625 
Q 40.578125 54.546875 44.28125 53.078125 
z
" id="DejaVuSans-115"/>
      <path d="M 11.71875 51.703125 
L 22.015625 51.703125 
L 22.015625 39.3125 
L 11.71875 39.3125 
z
M 11.71875 12.40625 
L 22.015625 12.40625 
L 22.015625 4 
L 14.015625 -11.625 
L 7.71875 -11.625 
L 11.71875 4 
z
" id="DejaVuSans-59"/>
      <path d="M 30.609375 48.390625 
Q 23.390625 48.390625 19.1875 42.75 
Q 14.984375 37.109375 14.984375 27.296875 
Q 14.984375 17.484375 19.15625 11.84375 
Q 23.34375 6.203125 30.609375 6.203125 
Q 37.796875 6.203125 41.984375 11.859375 
Q 46.1875 17.53125 46.1875 27.296875 
Q 46.1875 37.015625 41.984375 42.703125 
Q 37.796875 48.390625 30.609375 48.390625 
z
M 30.609375 56 
Q 42.328125 56 49.015625 48.375 
Q 55.71875 40.765625 55.71875 27.296875 
Q 55.71875 13.875 49.015625 6.21875 
Q 42.328125 -1.421875 30.609375 -1.421875 
Q 18.84375 -1.421875 12.171875 6.21875 
Q 5.515625 13.875 5.515625 27.296875 
Q 5.515625 40.765625 12.171875 48.375 
Q 18.84375 56 30.609375 56 
z
" id="DejaVuSans-111"/>
      <path d="M 8.5 21.578125 
L 8.5 54.6875 
L 17.484375 54.6875 
L 17.484375 21.921875 
Q 17.484375 14.15625 20.5 10.265625 
Q 23.53125 6.390625 29.59375 6.390625 
Q 36.859375 6.390625 41.078125 11.03125 
Q 45.3125 15.671875 45.3125 23.6875 
L 45.3125 54.6875 
L 54.296875 54.6875 
L 54.296875 0 
L 45.3125 0 
L 45.3125 8.40625 
Q 42.046875 3.421875 37.71875 1 
Q 33.40625 -1.421875 27.6875 -1.421875 
Q 18.265625 -1.421875 13.375 4.4375 
Q 8.5 10.296875 8.5 21.578125 
z
M 31.109375 56 
z
" id="DejaVuSans-117"/>
      <path d="M 18.3125 70.21875 
L 18.3125 54.6875 
L 36.8125 54.6875 
L 36.8125 47.703125 
L 18.3125 47.703125 
L 18.3125 18.015625 
Q 18.3125 11.328125 20.140625 9.421875 
Q 21.96875 7.515625 27.59375 7.515625 
L 36.8125 7.515625 
L 36.8125 0 
L 27.59375 0 
Q 17.1875 0 13.234375 3.875 
Q 9.28125 7.765625 9.28125 18.015625 
L 9.28125 47.703125 
L 2.6875 47.703125 
L 2.6875 54.6875 
L 9.28125 54.6875 
L 9.28125 70.21875 
z
" id="DejaVuSans-116"/>
      <path d="M 18.109375 8.203125 
L 18.109375 -20.796875 
L 9.078125 -20.796875 
L 9.078125 54.6875 
L 18.109375 54.6875 
L 18.109375 46.390625 
Q 20.953125 51.265625 25.265625 53.625 
Q 29.59375 56 35.59375 56 
Q 45.5625 56 51.78125 48.09375 
Q 58.015625 40.1875 58.015625 27.296875 
Q 58.015625 14.40625 51.78125 6.484375 
Q 45.5625 -1.421875 35.59375 -1.421875 
Q 29.59375 -1.421875 25.265625 0.953125 
Q 20.953125 3.328125 18.109375 8.203125 
z
M 48.6875 27.296875 
Q 48.6875 37.203125 44.609375 42.84375 
Q 40.53125 48.484375 33.40625 48.484375 
Q 26.265625 48.484375 22.1875 42.84375 
Q 18.109375 37.203125 18.109375 27.296875 
Q 18.109375 17.390625 22.1875 11.75 
Q 26.265625 6.109375 33.40625 6.109375 
Q 40.53125 6.109375 44.609375 11.75 
Q 48.6875 17.390625 48.6875 27.296875 
z
" id="DejaVuSans-112"/>
      <path d="M 8.015625 75.875 
L 15.828125 75.875 
Q 23.140625 64.359375 26.78125 53.3125 
Q 30.421875 42.28125 30.421875 31.390625 
Q 30.421875 20.453125 26.78125 9.375 
Q 23.140625 -1.703125 15.828125 -13.1875 
L 8.015625 -13.1875 
Q 14.5 -2 17.703125 9.0625 
Q 20.90625 20.125 20.90625 31.390625 
Q 20.90625 42.671875 17.703125 53.65625 
Q 14.5 64.65625 8.015625 75.875 
z
" id="DejaVuSans-41"/>
     </defs>
     <g transform="translate(400.965625 658.276562)scale(0.1 -0.1)">
      <use xlink:href="#DejaVuSans-73"/>
      <use x="29.492188" xlink:href="#DejaVuSans-40"/>
      <use x="68.505859" xlink:href="#DejaVuSans-100"/>
      <use x="131.982422" xlink:href="#DejaVuSans-101"/>
      <use x="193.505859" xlink:href="#DejaVuSans-110"/>
      <use x="256.884766" xlink:href="#DejaVuSans-115"/>
      <use x="308.984375" xlink:href="#DejaVuSans-101"/>
      <use x="370.507812" xlink:href="#DejaVuSans-49"/>
      <use x="434.130859" xlink:href="#DejaVuSans-59"/>
      <use x="467.822266" xlink:href="#DejaVuSans-111"/>
      <use x="529.003906" xlink:href="#DejaVuSans-117"/>
      <use x="592.382812" xlink:href="#DejaVuSans-116"/>
      <use x="631.591797" xlink:href="#DejaVuSans-112"/>
      <use x="695.068359" xlink:href="#DejaVuSans-117"/>
      <use x="758.447266" xlink:href="#DejaVuSans-116"/>
      <use x="797.65625" xlink:href="#DejaVuSans-41"/>
     </g>
    </g>
   </g>
   <g id="matplotlib.axis_2">
    <g id="ytick_1">
     <g id="line2d_7">
      <defs>
       <path d="M 0 0 
L -3.5 0 
" id="m534cd0d6af" style="stroke:#000000;stroke-width:0.8;"/>
      </defs>
      <g>
       <use style="stroke:#000000;stroke-width:0.8;" x="108" xlink:href="#m534cd0d6af" y="610.691317"/>
      </g>
     </g>
     <g id="text_8">
      <!-- −16.5 -->
      <g transform="translate(70.354687 614.490536)scale(0.1 -0.1)">
       <use xlink:href="#DejaVuSans-8722"/>
       <use x="83.789062" xlink:href="#DejaVuSans-49"/>
       <use x="147.412109" xlink:href="#DejaVuSans-54"/>
       <use x="211.035156" xlink:href="#DejaVuSans-46"/>
       <use x="242.822266" xlink:href="#DejaVuSans-53"/>
      </g>
     </g>
    </g>
    <g id="ytick_2">
     <g id="line2d_8">
      <g>
       <use style="stroke:#000000;stroke-width:0.8;" x="108" xlink:href="#m534cd0d6af" y="521.111416"/>
      </g>
     </g>
     <g id="text_9">
      <!-- −16.0 -->
      <g transform="translate(70.354687 524.910635)scale(0.1 -0.1)">
       <use xlink:href="#DejaVuSans-8722"/>
       <use x="83.789062" xlink:href="#DejaVuSans-49"/>
       <use x="147.412109" xlink:href="#DejaVuSans-54"/>
       <use x="211.035156" xlink:href="#DejaVuSans-46"/>
       <use x="242.822266" xlink:href="#DejaVuSans-48"/>
      </g>
     </g>
    </g>
    <g id="ytick_3">
     <g id="line2d_9">
      <g>
       <use style="stroke:#000000;stroke-width:0.8;" x="108" xlink:href="#m534cd0d6af" y="431.531515"/>
      </g>
     </g>
     <g id="text_10">
      <!-- −15.5 -->
      <g transform="translate(70.354687 435.330734)scale(0.1 -0.1)">
       <use xlink:href="#DejaVuSans-8722"/>
       <use x="83.789062" xlink:href="#DejaVuSans-49"/>
       <use x="147.412109" xlink:href="#DejaVuSans-53"/>
       <use x="211.035156" xlink:href="#DejaVuSans-46"/>
       <use x="242.822266" xlink:href="#DejaVuSans-53"/>
      </g>
     </g>
    </g>
    <g id="ytick_4">
     <g id="line2d_10">
      <g>
       <use style="stroke:#000000;stroke-width:0.8;" x="108" xlink:href="#m534cd0d6af" y="341.951615"/>
      </g>
     </g>
     <g id="text_11">
      <!-- −15.0 -->
      <g transform="translate(70.354687 345.750833)scale(0.1 -0.1)">
       <use xlink:href="#DejaVuSans-8722"/>
       <use x="83.789062" xlink:href="#DejaVuSans-49"/>
       <use x="147.412109" xlink:href="#DejaVuSans-53"/>
       <use x="211.035156" xlink:href="#DejaVuSans-46"/>
       <use x="242.822266" xlink:href="#DejaVuSans-48"/>
      </g>
     </g>
    </g>
    <g id="ytick_5">
     <g id="line2d_11">
      <g>
       <use style="stroke:#000000;stroke-width:0.8;" x="108" xlink:href="#m534cd0d6af" y="252.371714"/>
      </g>
     </g>
     <g id="text_12">
      <!-- −14.5 -->
      <g transform="translate(70.354687 256.170933)scale(0.1 -0.1)">
       <use xlink:href="#DejaVuSans-8722"/>
       <use x="83.789062" xlink:href="#DejaVuSans-49"/>
       <use x="147.412109" xlink:href="#DejaVuSans-52"/>
       <use x="211.035156" xlink:href="#DejaVuSans-46"/>
       <use x="242.822266" xlink:href="#DejaVuSans-53"/>
      </g>
     </g>
    </g>
    <g id="ytick_6">
     <g id="line2d_12">
      <g>
       <use style="stroke:#000000;stroke-width:0.8;" x="108" xlink:href="#m534cd0d6af" y="162.791813"/>
      </g>
     </g>
     <g id="text_13">
      <!-- −14.0 -->
      <g transform="translate(70.354687 166.591032)scale(0.1 -0.1)">
       <use xlink:href="#DejaVuSans-8722"/>
       <use x="83.789062" xlink:href="#DejaVuSans-49"/>
       <use x="147.412109" xlink:href="#DejaVuSans-52"/>
       <use x="211.035156" xlink:href="#DejaVuSans-46"/>
       <use x="242.822266" xlink:href="#DejaVuSans-48"/>
      </g>
     </g>
    </g>
    <g id="text_14">
     <!-- I(output;output) -->
     <g transform="translate(64.275 398.24375)rotate(-90)scale(0.1 -0.1)">
      <use xlink:href="#DejaVuSans-73"/>
      <use x="29.492188" xlink:href="#DejaVuSans-40"/>
      <use x="68.505859" xlink:href="#DejaVuSans-111"/>
      <use x="129.6875" xlink:href="#DejaVuSans-117"/>
      <use x="193.066406" xlink:href="#DejaVuSans-116"/>
      <use x="232.275391" xlink:href="#DejaVuSans-112"/>
      <use x="295.751953" xlink:href="#DejaVuSans-117"/>
      <use x="359.130859" xlink:href="#DejaVuSans-116"/>
      <use x="398.339844" xlink:href="#DejaVuSans-59"/>
      <use x="432.03125" xlink:href="#DejaVuSans-111"/>
      <use x="493.212891" xlink:href="#DejaVuSans-117"/>
      <use x="556.591797" xlink:href="#DejaVuSans-116"/>
      <use x="595.800781" xlink:href="#DejaVuSans-112"/>
      <use x="659.277344" xlink:href="#DejaVuSans-117"/>
      <use x="722.65625" xlink:href="#DejaVuSans-116"/>
      <use x="761.865234" xlink:href="#DejaVuSans-41"/>
     </g>
    </g>
   </g>
   <g id="patch_3">
    <path d="M 108 630 
L 108 86.4 
" style="fill:none;stroke:#000000;stroke-linecap:square;stroke-linejoin:miter;stroke-width:0.8;"/>
   </g>
   <g id="patch_4">
    <path d="M 777.6 630 
L 777.6 86.4 
" style="fill:none;stroke:#000000;stroke-linecap:square;stroke-linejoin:miter;stroke-width:0.8;"/>
   </g>
   <g id="patch_5">
    <path d="M 108 630 
L 777.6 630 
" style="fill:none;stroke:#000000;stroke-linecap:square;stroke-linejoin:miter;stroke-width:0.8;"/>
   </g>
   <g id="patch_6">
    <path d="M 108 86.4 
L 777.6 86.4 
" style="fill:none;stroke:#000000;stroke-linecap:square;stroke-linejoin:miter;stroke-width:0.8;"/>
   </g>
   <g id="text_15">
    <!-- Information Plane Node Strengths dense1-output -->
    <defs>
     <path d="M 37.109375 75.984375 
L 37.109375 68.5 
L 28.515625 68.5 
Q 23.6875 68.5 21.796875 66.546875 
Q 19.921875 64.59375 19.921875 59.515625 
L 19.921875 54.6875 
L 34.71875 54.6875 
L 34.71875 47.703125 
L 19.921875 47.703125 
L 19.921875 0 
L 10.890625 0 
L 10.890625 47.703125 
L 2.296875 47.703125 
L 2.296875 54.6875 
L 10.890625 54.6875 
L 10.890625 58.5 
Q 10.890625 67.625 15.140625 71.796875 
Q 19.390625 75.984375 28.609375 75.984375 
z
" id="DejaVuSans-102"/>
     <path d="M 41.109375 46.296875 
Q 39.59375 47.171875 37.8125 47.578125 
Q 36.03125 48 33.890625 48 
Q 26.265625 48 22.1875 43.046875 
Q 18.109375 38.09375 18.109375 28.8125 
L 18.109375 0 
L 9.078125 0 
L 9.078125 54.6875 
L 18.109375 54.6875 
L 18.109375 46.1875 
Q 20.953125 51.171875 25.484375 53.578125 
Q 30.03125 56 36.53125 56 
Q 37.453125 56 38.578125 55.875 
Q 39.703125 55.765625 41.0625 55.515625 
z
" id="DejaVuSans-114"/>
     <path d="M 52 44.1875 
Q 55.375 50.25 60.0625 53.125 
Q 64.75 56 71.09375 56 
Q 79.640625 56 84.28125 50.015625 
Q 88.921875 44.046875 88.921875 33.015625 
L 88.921875 0 
L 79.890625 0 
L 79.890625 32.71875 
Q 79.890625 40.578125 77.09375 44.375 
Q 74.3125 48.1875 68.609375 48.1875 
Q 61.625 48.1875 57.5625 43.546875 
Q 53.515625 38.921875 53.515625 30.90625 
L 53.515625 0 
L 44.484375 0 
L 44.484375 32.71875 
Q 44.484375 40.625 41.703125 44.40625 
Q 38.921875 48.1875 33.109375 48.1875 
Q 26.21875 48.1875 22.15625 43.53125 
Q 18.109375 38.875 18.109375 30.90625 
L 18.109375 0 
L 9.078125 0 
L 9.078125 54.6875 
L 18.109375 54.6875 
L 18.109375 46.1875 
Q 21.1875 51.21875 25.484375 53.609375 
Q 29.78125 56 35.6875 56 
Q 41.65625 56 45.828125 52.96875 
Q 50 49.953125 52 44.1875 
z
" id="DejaVuSans-109"/>
     <path d="M 34.28125 27.484375 
Q 23.390625 27.484375 19.1875 25 
Q 14.984375 22.515625 14.984375 16.5 
Q 14.984375 11.71875 18.140625 8.90625 
Q 21.296875 6.109375 26.703125 6.109375 
Q 34.1875 6.109375 38.703125 11.40625 
Q 43.21875 16.703125 43.21875 25.484375 
L 43.21875 27.484375 
z
M 52.203125 31.203125 
L 52.203125 0 
L 43.21875 0 
L 43.21875 8.296875 
Q 40.140625 3.328125 35.546875 0.953125 
Q 30.953125 -1.421875 24.3125 -1.421875 
Q 15.921875 -1.421875 10.953125 3.296875 
Q 6 8.015625 6 15.921875 
Q 6 25.140625 12.171875 29.828125 
Q 18.359375 34.515625 30.609375 34.515625 
L 43.21875 34.515625 
L 43.21875 35.40625 
Q 43.21875 41.609375 39.140625 45 
Q 35.0625 48.390625 27.6875 48.390625 
Q 23 48.390625 18.546875 47.265625 
Q 14.109375 46.140625 10.015625 43.890625 
L 10.015625 52.203125 
Q 14.9375 54.109375 19.578125 55.046875 
Q 24.21875 56 28.609375 56 
Q 40.484375 56 46.34375 49.84375 
Q 52.203125 43.703125 52.203125 31.203125 
z
" id="DejaVuSans-97"/>
     <path d="M 9.421875 54.6875 
L 18.40625 54.6875 
L 18.40625 0 
L 9.421875 0 
z
M 9.421875 75.984375 
L 18.40625 75.984375 
L 18.40625 64.59375 
L 9.421875 64.59375 
z
" id="DejaVuSans-105"/>
     <path id="DejaVuSans-32"/>
     <path d="M 19.671875 64.796875 
L 19.671875 37.40625 
L 32.078125 37.40625 
Q 38.96875 37.40625 42.71875 40.96875 
Q 46.484375 44.53125 46.484375 51.125 
Q 46.484375 57.671875 42.71875 61.234375 
Q 38.96875 64.796875 32.078125 64.796875 
z
M 9.8125 72.90625 
L 32.078125 72.90625 
Q 44.34375 72.90625 50.609375 67.359375 
Q 56.890625 61.8125 56.890625 51.125 
Q 56.890625 40.328125 50.609375 34.8125 
Q 44.34375 29.296875 32.078125 29.296875 
L 19.671875 29.296875 
L 19.671875 0 
L 9.8125 0 
z
" id="DejaVuSans-80"/>
     <path d="M 9.421875 75.984375 
L 18.40625 75.984375 
L 18.40625 0 
L 9.421875 0 
z
" id="DejaVuSans-108"/>
     <path d="M 9.8125 72.90625 
L 23.09375 72.90625 
L 55.421875 11.921875 
L 55.421875 72.90625 
L 64.984375 72.90625 
L 64.984375 0 
L 51.703125 0 
L 19.390625 60.984375 
L 19.390625 0 
L 9.8125 0 
z
" id="DejaVuSans-78"/>
     <path d="M 53.515625 70.515625 
L 53.515625 60.890625 
Q 47.90625 63.578125 42.921875 64.890625 
Q 37.9375 66.21875 33.296875 66.21875 
Q 25.25 66.21875 20.875 63.09375 
Q 16.5 59.96875 16.5 54.203125 
Q 16.5 49.359375 19.40625 46.890625 
Q 22.3125 44.4375 30.421875 42.921875 
L 36.375 41.703125 
Q 47.40625 39.59375 52.65625 34.296875 
Q 57.90625 29 57.90625 20.125 
Q 57.90625 9.515625 50.796875 4.046875 
Q 43.703125 -1.421875 29.984375 -1.421875 
Q 24.8125 -1.421875 18.96875 -0.25 
Q 13.140625 0.921875 6.890625 3.21875 
L 6.890625 13.375 
Q 12.890625 10.015625 18.65625 8.296875 
Q 24.421875 6.59375 29.984375 6.59375 
Q 38.421875 6.59375 43.015625 9.90625 
Q 47.609375 13.234375 47.609375 19.390625 
Q 47.609375 24.75 44.3125 27.78125 
Q 41.015625 30.8125 33.5 32.328125 
L 27.484375 33.5 
Q 16.453125 35.6875 11.515625 40.375 
Q 6.59375 45.0625 6.59375 53.421875 
Q 6.59375 63.09375 13.40625 68.65625 
Q 20.21875 74.21875 32.171875 74.21875 
Q 37.3125 74.21875 42.625 73.28125 
Q 47.953125 72.359375 53.515625 70.515625 
z
" id="DejaVuSans-83"/>
     <path d="M 45.40625 27.984375 
Q 45.40625 37.75 41.375 43.109375 
Q 37.359375 48.484375 30.078125 48.484375 
Q 22.859375 48.484375 18.828125 43.109375 
Q 14.796875 37.75 14.796875 27.984375 
Q 14.796875 18.265625 18.828125 12.890625 
Q 22.859375 7.515625 30.078125 7.515625 
Q 37.359375 7.515625 41.375 12.890625 
Q 45.40625 18.265625 45.40625 27.984375 
z
M 54.390625 6.78125 
Q 54.390625 -7.171875 48.1875 -13.984375 
Q 42 -20.796875 29.203125 -20.796875 
Q 24.46875 -20.796875 20.265625 -20.09375 
Q 16.0625 -19.390625 12.109375 -17.921875 
L 12.109375 -9.1875 
Q 16.0625 -11.328125 19.921875 -12.34375 
Q 23.78125 -13.375 27.78125 -13.375 
Q 36.625 -13.375 41.015625 -8.765625 
Q 45.40625 -4.15625 45.40625 5.171875 
L 45.40625 9.625 
Q 42.625 4.78125 38.28125 2.390625 
Q 33.9375 0 27.875 0 
Q 17.828125 0 11.671875 7.65625 
Q 5.515625 15.328125 5.515625 27.984375 
Q 5.515625 40.671875 11.671875 48.328125 
Q 17.828125 56 27.875 56 
Q 33.9375 56 38.28125 53.609375 
Q 42.625 51.21875 45.40625 46.390625 
L 45.40625 54.6875 
L 54.390625 54.6875 
z
" id="DejaVuSans-103"/>
     <path d="M 54.890625 33.015625 
L 54.890625 0 
L 45.90625 0 
L 45.90625 32.71875 
Q 45.90625 40.484375 42.875 44.328125 
Q 39.84375 48.1875 33.796875 48.1875 
Q 26.515625 48.1875 22.3125 43.546875 
Q 18.109375 38.921875 18.109375 30.90625 
L 18.109375 0 
L 9.078125 0 
L 9.078125 75.984375 
L 18.109375 75.984375 
L 18.109375 46.1875 
Q 21.34375 51.125 25.703125 53.5625 
Q 30.078125 56 35.796875 56 
Q 45.21875 56 50.046875 50.171875 
Q 54.890625 44.34375 54.890625 33.015625 
z
" id="DejaVuSans-104"/>
     <path d="M 4.890625 31.390625 
L 31.203125 31.390625 
L 31.203125 23.390625 
L 4.890625 23.390625 
z
" id="DejaVuSans-45"/>
    </defs>
    <g transform="translate(295.116562 80.4)scale(0.12 -0.12)">
     <use xlink:href="#DejaVuSans-73"/>
     <use x="29.492188" xlink:href="#DejaVuSans-110"/>
     <use x="92.871094" xlink:href="#DejaVuSans-102"/>
     <use x="128.076172" xlink:href="#DejaVuSans-111"/>
     <use x="189.257812" xlink:href="#DejaVuSans-114"/>
     <use x="230.355469" xlink:href="#DejaVuSans-109"/>
     <use x="327.767578" xlink:href="#DejaVuSans-97"/>
     <use x="389.046875" xlink:href="#DejaVuSans-116"/>
     <use x="428.255859" xlink:href="#DejaVuSans-105"/>
     <use x="456.039062" xlink:href="#DejaVuSans-111"/>
     <use x="517.220703" xlink:href="#DejaVuSans-110"/>
     <use x="580.599609" xlink:href="#DejaVuSans-32"/>
     <use x="612.386719" xlink:href="#DejaVuSans-80"/>
     <use x="672.689453" xlink:href="#DejaVuSans-108"/>
     <use x="700.472656" xlink:href="#DejaVuSans-97"/>
     <use x="761.751953" xlink:href="#DejaVuSans-110"/>
     <use x="825.130859" xlink:href="#DejaVuSans-101"/>
     <use x="886.654297" xlink:href="#DejaVuSans-32"/>
     <use x="918.441406" xlink:href="#DejaVuSans-78"/>
     <use x="993.246094" xlink:href="#DejaVuSans-111"/>
     <use x="1054.427734" xlink:href="#DejaVuSans-100"/>
     <use x="1117.904297" xlink:href="#DejaVuSans-101"/>
     <use x="1179.427734" xlink:href="#DejaVuSans-32"/>
     <use x="1211.214844" xlink:href="#DejaVuSans-83"/>
     <use x="1274.691406" xlink:href="#DejaVuSans-116"/>
     <use x="1313.900391" xlink:href="#DejaVuSans-114"/>
     <use x="1354.982422" xlink:href="#DejaVuSans-101"/>
     <use x="1416.505859" xlink:href="#DejaVuSans-110"/>
     <use x="1479.884766" xlink:href="#DejaVuSans-103"/>
     <use x="1543.361328" xlink:href="#DejaVuSans-116"/>
     <use x="1582.570312" xlink:href="#DejaVuSans-104"/>
     <use x="1645.949219" xlink:href="#DejaVuSans-115"/>
     <use x="1698.048828" xlink:href="#DejaVuSans-32"/>
     <use x="1729.835938" xlink:href="#DejaVuSans-100"/>
     <use x="1793.3125" xlink:href="#DejaVuSans-101"/>
     <use x="1854.835938" xlink:href="#DejaVuSans-110"/>
     <use x="1918.214844" xlink:href="#DejaVuSans-115"/>
     <use x="1970.314453" xlink:href="#DejaVuSans-101"/>
     <use x="2031.837891" xlink:href="#DejaVuSans-49"/>
     <use x="2095.460938" xlink:href="#DejaVuSans-45"/>
     <use x="2131.560547" xlink:href="#DejaVuSans-111"/>
     <use x="2192.742188" xlink:href="#DejaVuSans-117"/>
     <use x="2256.121094" xlink:href="#DejaVuSans-116"/>
     <use x="2295.330078" xlink:href="#DejaVuSans-112"/>
     <use x="2358.806641" xlink:href="#DejaVuSans-117"/>
     <use x="2422.185547" xlink:href="#DejaVuSans-116"/>
    </g>
   </g>
   <g id="legend_1">
    <g id="patch_7">
     <path d="M 115 167.790625 
L 163.09375 167.790625 
Q 165.09375 167.790625 165.09375 165.790625 
L 165.09375 93.4 
Q 165.09375 91.4 163.09375 91.4 
L 115 91.4 
Q 113 91.4 113 93.4 
L 113 165.790625 
Q 113 167.790625 115 167.790625 
z
" style="fill:#ffffff;opacity:0.8;stroke:#cccccc;stroke-linejoin:miter;"/>
    </g>
    <g id="PathCollection_6">
     <g>
      <use style="fill:#0000ff;stroke:#0000ff;" x="127" xlink:href="#m232439d5bf" y="100.373438"/>
     </g>
    </g>
    <g id="text_16">
     <!-- 1/5 -->
     <defs>
      <path d="M 25.390625 72.90625 
L 33.6875 72.90625 
L 8.296875 -9.28125 
L 0 -9.28125 
z
" id="DejaVuSans-47"/>
     </defs>
     <g transform="translate(145 102.998438)scale(0.1 -0.1)">
      <use xlink:href="#DejaVuSans-49"/>
      <use x="63.623047" xlink:href="#DejaVuSans-47"/>
      <use x="97.314453" xlink:href="#DejaVuSans-53"/>
     </g>
    </g>
    <g id="PathCollection_7">
     <g>
      <use style="fill:#008000;stroke:#008000;" x="127" xlink:href="#me3c24d510e" y="115.051563"/>
     </g>
    </g>
    <g id="text_17">
     <!-- 2/5 -->
     <defs>
      <path d="M 19.1875 8.296875 
L 53.609375 8.296875 
L 53.609375 0 
L 7.328125 0 
L 7.328125 8.296875 
Q 12.9375 14.109375 22.625 23.890625 
Q 32.328125 33.6875 34.8125 36.53125 
Q 39.546875 41.84375 41.421875 45.53125 
Q 43.3125 49.21875 43.3125 52.78125 
Q 43.3125 58.59375 39.234375 62.25 
Q 35.15625 65.921875 28.609375 65.921875 
Q 23.96875 65.921875 18.8125 64.3125 
Q 13.671875 62.703125 7.8125 59.421875 
L 7.8125 69.390625 
Q 13.765625 71.78125 18.9375 73 
Q 24.125 74.21875 28.421875 74.21875 
Q 39.75 74.21875 46.484375 68.546875 
Q 53.21875 62.890625 53.21875 53.421875 
Q 53.21875 48.921875 51.53125 44.890625 
Q 49.859375 40.875 45.40625 35.40625 
Q 44.1875 33.984375 37.640625 27.21875 
Q 31.109375 20.453125 19.1875 8.296875 
z
" id="DejaVuSans-50"/>
     </defs>
     <g transform="translate(145 117.676563)scale(0.1 -0.1)">
      <use xlink:href="#DejaVuSans-50"/>
      <use x="63.623047" xlink:href="#DejaVuSans-47"/>
      <use x="97.314453" xlink:href="#DejaVuSans-53"/>
     </g>
    </g>
    <g id="PathCollection_8">
     <g>
      <use style="fill:#ffff00;stroke:#ffff00;" x="127" xlink:href="#mf8672a157f" y="129.729688"/>
     </g>
    </g>
    <g id="text_18">
     <!-- 3/5 -->
     <defs>
      <path d="M 40.578125 39.3125 
Q 47.65625 37.796875 51.625 33 
Q 55.609375 28.21875 55.609375 21.1875 
Q 55.609375 10.40625 48.1875 4.484375 
Q 40.765625 -1.421875 27.09375 -1.421875 
Q 22.515625 -1.421875 17.65625 -0.515625 
Q 12.796875 0.390625 7.625 2.203125 
L 7.625 11.71875 
Q 11.71875 9.328125 16.59375 8.109375 
Q 21.484375 6.890625 26.8125 6.890625 
Q 36.078125 6.890625 40.9375 10.546875 
Q 45.796875 14.203125 45.796875 21.1875 
Q 45.796875 27.640625 41.28125 31.265625 
Q 36.765625 34.90625 28.71875 34.90625 
L 20.21875 34.90625 
L 20.21875 43.015625 
L 29.109375 43.015625 
Q 36.375 43.015625 40.234375 45.921875 
Q 44.09375 48.828125 44.09375 54.296875 
Q 44.09375 59.90625 40.109375 62.90625 
Q 36.140625 65.921875 28.71875 65.921875 
Q 24.65625 65.921875 20.015625 65.03125 
Q 15.375 64.15625 9.8125 62.3125 
L 9.8125 71.09375 
Q 15.4375 72.65625 20.34375 73.4375 
Q 25.25 74.21875 29.59375 74.21875 
Q 40.828125 74.21875 47.359375 69.109375 
Q 53.90625 64.015625 53.90625 55.328125 
Q 53.90625 49.265625 50.4375 45.09375 
Q 46.96875 40.921875 40.578125 39.3125 
z
" id="DejaVuSans-51"/>
     </defs>
     <g transform="translate(145 132.354688)scale(0.1 -0.1)">
      <use xlink:href="#DejaVuSans-51"/>
      <use x="63.623047" xlink:href="#DejaVuSans-47"/>
      <use x="97.314453" xlink:href="#DejaVuSans-53"/>
     </g>
    </g>
    <g id="PathCollection_9">
     <g>
      <use style="fill:#ffa500;stroke:#ffa500;" x="127" xlink:href="#ma37f68cf61" y="144.407812"/>
     </g>
    </g>
    <g id="text_19">
     <!-- 4/5 -->
     <g transform="translate(145 147.032812)scale(0.1 -0.1)">
      <use xlink:href="#DejaVuSans-52"/>
      <use x="63.623047" xlink:href="#DejaVuSans-47"/>
      <use x="97.314453" xlink:href="#DejaVuSans-53"/>
     </g>
    </g>
    <g id="PathCollection_10">
     <g>
      <use style="fill:#ff0000;stroke:#ff0000;" x="127" xlink:href="#mab94ab76bb" y="159.085938"/>
     </g>
    </g>
    <g id="text_20">
     <!-- 5/5 -->
     <g transform="translate(145 161.710938)scale(0.1 -0.1)">
      <use xlink:href="#DejaVuSans-53"/>
      <use x="63.623047" xlink:href="#DejaVuSans-47"/>
      <use x="97.314453" xlink:href="#DejaVuSans-53"/>
     </g>
    </g>
   </g>
  </g>
 </g>
 <defs>
  <clipPath id="p61a1f6f64b">
   <rect height="543.6" width="669.6" x="108" y="86.4"/>
  </clipPath>
 </defs>
</svg>
